<svg width="279" height="120" viewBox="0 0 279 120" fill="none" xmlns="http://www.w3.org/2000/svg">
<mask id="path-1-inside-1_3593_8164" fill="white">
<path d="M0 0H278.75V120H0V0Z"/>
</mask>
<path d="M0 0H278.75V120H0V0Z" fill="#FCFCFD"/>
<path d="M278.75 0H279.75V-1H278.75V0ZM0 0V1H278.75V0V-1H0V0ZM278.75 0H277.75V120H278.75H279.75V0H278.75Z" fill="#EFEFF1" mask="url(#path-1-inside-1_3593_8164)"/>
<path d="M90.5254 63.167C90.3021 63.167 90.1061 63.0827 89.9375 62.9141C89.7826 62.7409 89.7051 62.5358 89.7051 62.2988C89.7051 62.0618 89.7848 61.859 89.9443 61.6904C90.1084 61.5218 90.3021 61.4375 90.5254 61.4375H90.5391C90.7624 61.4375 90.9561 61.5218 91.1201 61.6904C91.2796 61.859 91.3594 62.0618 91.3594 62.2988C91.3594 62.5358 91.2819 62.7409 91.127 62.9141C90.9583 63.0827 90.7624 63.167 90.5391 63.167H90.5254ZM93.9297 63.167C93.7064 63.167 93.5104 63.0827 93.3418 62.9141C93.1868 62.7409 93.1094 62.5358 93.1094 62.2988C93.1094 62.0618 93.1891 61.859 93.3486 61.6904C93.5127 61.5218 93.7064 61.4375 93.9297 61.4375H93.9434C94.1667 61.4375 94.3604 61.5218 94.5244 61.6904C94.6839 61.859 94.7637 62.0618 94.7637 62.2988C94.7637 62.5358 94.6862 62.7409 94.5312 62.9141C94.3626 63.0827 94.1667 63.167 93.9434 63.167H93.9297ZM97.6416 55.2715V61.1709C97.6416 61.5036 97.7533 61.7793 97.9766 61.998C98.1589 62.1803 98.3639 62.2715 98.5918 62.2715H100.205V63.4473H98.5918C97.8945 63.4473 97.3066 63.208 96.8281 62.7295C96.3906 62.292 96.1719 61.7725 96.1719 61.1709V55.2715H97.6416ZM101.347 56.2969C101.347 56.1921 101.367 56.0941 101.408 56.0029C101.449 55.9118 101.504 55.832 101.572 55.7637C101.641 55.6953 101.718 55.6429 101.805 55.6064C101.896 55.5654 101.992 55.5449 102.092 55.5449C102.192 55.5449 102.288 55.5654 102.379 55.6064C102.47 55.6429 102.55 55.6953 102.618 55.7637C102.687 55.832 102.739 55.9118 102.775 56.0029C102.816 56.0941 102.837 56.1921 102.837 56.2969C102.837 56.4017 102.816 56.4997 102.775 56.5908C102.739 56.6774 102.687 56.7549 102.618 56.8232C102.55 56.887 102.47 56.9395 102.379 56.9805C102.288 57.0169 102.192 57.0352 102.092 57.0352C101.992 57.0352 101.896 57.0169 101.805 56.9805C101.718 56.9395 101.641 56.887 101.572 56.8232C101.504 56.7549 101.449 56.6774 101.408 56.5908C101.367 56.4997 101.347 56.4017 101.347 56.2969ZM99.5967 63.4473V62.2715H100.164C100.533 62.2715 100.829 62.1576 101.053 61.9297C101.308 61.6654 101.436 61.2871 101.436 60.7949V57.8691H102.912V60.9385C102.935 61.3577 103.06 61.6859 103.288 61.9229C103.516 62.1553 103.805 62.2715 104.156 62.2715H104.751V63.4473H104.156C103.322 63.4473 102.661 63.1943 102.174 62.6885C101.682 63.1943 101.012 63.4473 100.164 63.4473H99.5967ZM110.302 60.084C110.302 59.3092 110.117 58.7282 109.748 58.3408C109.415 57.9899 108.946 57.8145 108.34 57.8145C107.743 57.8145 107.28 57.9899 106.952 58.3408C106.578 58.7373 106.392 59.3184 106.392 60.084C106.392 60.7812 106.581 61.3258 106.959 61.7178C107.314 62.0869 107.772 62.2715 108.333 62.2715C108.912 62.2715 109.379 62.0915 109.734 61.7314C110.113 61.3395 110.302 60.7904 110.302 60.084ZM111.067 62.2715H112.147C112.708 62.2715 113.166 62.0869 113.521 61.7178C113.9 61.3258 114.089 60.7812 114.089 60.084C114.089 59.3184 113.902 58.7373 113.528 58.3408C113.2 57.9899 112.738 57.8145 112.141 57.8145H111.102C111.553 58.293 111.778 59.0495 111.778 60.084C111.778 61.0547 111.541 61.7839 111.067 62.2715ZM105.756 57.6572C105.688 57.639 105.551 57.5684 105.346 57.4453L105.742 56.6387H112.141C113.23 56.6387 114.087 56.9714 114.711 57.6367C115.281 58.2383 115.565 59.054 115.565 60.084C115.565 61.0456 115.271 61.8294 114.684 62.4355C114.032 63.11 113.187 63.4473 112.147 63.4473H103.999V62.2715H105.633C105.154 61.7747 104.915 61.0456 104.915 60.084C104.915 59.054 105.195 58.2451 105.756 57.6572ZM122.121 55.2715V62.9961H120.651V55.2715H122.121ZM120.733 54.2461C120.656 54.1185 120.61 53.9818 120.597 53.8359V53.7676C120.597 53.6719 120.613 53.5785 120.645 53.4873C120.754 53.182 120.998 53.0293 121.376 53.0293C121.613 53.0293 121.811 53.0908 121.971 53.2139C122.112 53.3278 122.203 53.4827 122.244 53.6787L121.684 53.7471C121.661 53.6377 121.62 53.5579 121.561 53.5078C121.515 53.4759 121.453 53.46 121.376 53.46C121.289 53.46 121.228 53.5055 121.191 53.5967C121.173 53.6423 121.164 53.6924 121.164 53.7471C121.164 53.7653 121.166 53.7858 121.171 53.8086C121.175 53.8906 121.196 53.9658 121.232 54.0342C121.296 54.1527 121.374 54.2233 121.465 54.2461H122.354V54.6699H120.412V54.2461H120.733ZM124.787 63.4473C124.336 63.4473 123.926 63.3675 123.557 63.208L123.078 63.0029L123.639 61.7246C123.885 61.957 124.092 62.1097 124.261 62.1826C124.407 62.2419 124.582 62.2715 124.787 62.2715L126.968 62.2783C126.959 62.2145 126.936 62.0186 126.899 61.6904C126.754 60.4053 126.576 59.5143 126.366 59.0176C126.024 58.2155 125.405 57.8145 124.507 57.8145V56.6387C126.006 56.6387 127.041 57.181 127.61 58.2656C127.938 58.8945 128.189 60.002 128.362 61.5879C128.399 61.9069 128.426 62.1348 128.444 62.2715H129.654V63.4473H124.787ZM130.885 65.2451C130.885 65.1403 130.905 65.0423 130.946 64.9512C130.987 64.86 131.042 64.7803 131.11 64.7119C131.179 64.6436 131.256 64.5889 131.343 64.5479C131.434 64.5114 131.53 64.4932 131.63 64.4932C131.73 64.4932 131.826 64.5114 131.917 64.5479C132.008 64.5889 132.088 64.6436 132.156 64.7119C132.225 64.7803 132.277 64.86 132.313 64.9512C132.354 65.0423 132.375 65.1403 132.375 65.2451C132.375 65.3499 132.354 65.4456 132.313 65.5322C132.277 65.6234 132.225 65.7008 132.156 65.7646C132.088 65.833 132.008 65.8854 131.917 65.9219C131.826 65.9629 131.73 65.9834 131.63 65.9834C131.53 65.9834 131.434 65.9629 131.343 65.9219C131.256 65.8854 131.179 65.833 131.11 65.7646C131.042 65.7008 130.987 65.6234 130.946 65.5322C130.905 65.4456 130.885 65.3499 130.885 65.2451ZM129.046 63.4473V62.2715H129.613C129.982 62.2715 130.279 62.1576 130.502 61.9297C130.757 61.6654 130.885 61.2871 130.885 60.7949V57.8691H132.361V60.9385C132.384 61.3577 132.509 61.6859 132.737 61.9229C132.965 62.1553 133.255 62.2715 133.605 62.2715H134.2V63.4473H133.605C132.771 63.4473 132.111 63.1943 131.623 62.6885C131.131 63.1943 130.461 63.4473 129.613 63.4473H129.046ZM136.333 56.085C136.333 55.9801 136.354 55.8822 136.395 55.791C136.436 55.6999 136.49 55.6201 136.559 55.5518C136.627 55.4834 136.707 55.431 136.798 55.3945C136.889 55.3535 136.987 55.333 137.092 55.333C137.192 55.333 137.285 55.3535 137.372 55.3945C137.463 55.431 137.541 55.4834 137.604 55.5518C137.673 55.6201 137.725 55.6999 137.762 55.791C137.803 55.8822 137.823 55.9801 137.823 56.085C137.823 56.1898 137.803 56.2878 137.762 56.3789C137.725 56.4655 137.673 56.543 137.604 56.6113C137.541 56.6751 137.463 56.7275 137.372 56.7686C137.285 56.805 137.192 56.8232 137.092 56.8232C136.987 56.8232 136.889 56.805 136.798 56.7686C136.707 56.7275 136.627 56.6751 136.559 56.6113C136.49 56.543 136.436 56.4655 136.395 56.3789C136.354 56.2878 136.333 56.1898 136.333 56.085ZM134.549 56.085C134.549 55.9801 134.569 55.8822 134.61 55.791C134.651 55.6999 134.706 55.6201 134.774 55.5518C134.843 55.4834 134.92 55.431 135.007 55.3945C135.098 55.3535 135.194 55.333 135.294 55.333C135.394 55.333 135.49 55.3535 135.581 55.3945C135.672 55.431 135.752 55.4834 135.82 55.5518C135.889 55.6201 135.941 55.6999 135.978 55.791C136.019 55.8822 136.039 55.9801 136.039 56.085C136.039 56.1898 136.019 56.2878 135.978 56.3789C135.941 56.4655 135.889 56.543 135.82 56.6113C135.752 56.6751 135.672 56.7275 135.581 56.7686C135.49 56.805 135.394 56.8232 135.294 56.8232C135.194 56.8232 135.098 56.805 135.007 56.7686C134.92 56.7275 134.843 56.6751 134.774 56.6113C134.706 56.543 134.651 56.4655 134.61 56.3789C134.569 56.2878 134.549 56.1898 134.549 56.085ZM138.165 57.8691V61.1709C138.165 61.7725 137.946 62.292 137.509 62.7295C137.03 63.208 136.442 63.4473 135.745 63.4473H133.448V62.2715H135.745C135.973 62.2715 136.178 62.1803 136.36 61.998C136.584 61.7793 136.695 61.5036 136.695 61.1709V57.8691H138.165ZM146.218 63.4473C145.694 63.429 145.29 63.3379 145.008 63.1738C144.917 63.6569 144.737 64.1514 144.468 64.6572C144.322 64.9352 144.124 65.2223 143.873 65.5186C143.645 65.792 143.349 66.0973 142.984 66.4346L141.959 65.71C142.319 65.3773 142.597 65.0947 142.793 64.8623C142.989 64.6253 143.142 64.4043 143.251 64.1992C143.502 63.7389 143.627 63.2171 143.627 62.6338C143.627 62.5381 143.622 62.4378 143.613 62.333V57.8691H145.083V60.9795C145.11 61.376 145.236 61.6904 145.459 61.9229C145.687 62.1553 145.976 62.2715 146.327 62.2715H146.915V63.4473H146.218ZM148.918 56.1328C148.918 56.028 148.938 55.93 148.979 55.8389C149.021 55.7477 149.075 55.668 149.144 55.5996C149.212 55.5312 149.292 55.4788 149.383 55.4424C149.474 55.4014 149.572 55.3809 149.677 55.3809C149.777 55.3809 149.87 55.4014 149.957 55.4424C150.048 55.4788 150.126 55.5312 150.189 55.5996C150.258 55.668 150.31 55.7477 150.347 55.8389C150.388 55.93 150.408 56.028 150.408 56.1328C150.408 56.2376 150.388 56.3356 150.347 56.4268C150.31 56.5133 150.258 56.5908 150.189 56.6592C150.126 56.723 150.048 56.7754 149.957 56.8164C149.87 56.8529 149.777 56.8711 149.677 56.8711C149.572 56.8711 149.474 56.8529 149.383 56.8164C149.292 56.7754 149.212 56.723 149.144 56.6592C149.075 56.5908 149.021 56.5133 148.979 56.4268C148.938 56.3356 148.918 56.2376 148.918 56.1328ZM147.797 54.3691C147.797 54.2643 147.817 54.1663 147.858 54.0752C147.899 53.984 147.954 53.9043 148.022 53.8359C148.091 53.7676 148.168 53.7152 148.255 53.6787C148.346 53.6377 148.442 53.6172 148.542 53.6172C148.642 53.6172 148.738 53.6377 148.829 53.6787C148.92 53.7152 149 53.7676 149.068 53.8359C149.137 53.9043 149.189 53.984 149.226 54.0752C149.267 54.1663 149.287 54.2643 149.287 54.3691C149.287 54.474 149.267 54.5719 149.226 54.6631C149.189 54.7497 149.137 54.8271 149.068 54.8955C149 54.9593 148.92 55.0117 148.829 55.0527C148.738 55.0892 148.642 55.1074 148.542 55.1074C148.442 55.1074 148.346 55.0892 148.255 55.0527C148.168 55.0117 148.091 54.9593 148.022 54.8955C147.954 54.8271 147.899 54.7497 147.858 54.6631C147.817 54.5719 147.797 54.474 147.797 54.3691ZM146.669 56.1328C146.669 56.028 146.689 55.93 146.73 55.8389C146.771 55.7477 146.826 55.668 146.895 55.5996C146.963 55.5312 147.04 55.4788 147.127 55.4424C147.218 55.4014 147.314 55.3809 147.414 55.3809C147.514 55.3809 147.61 55.4014 147.701 55.4424C147.792 55.4788 147.872 55.5312 147.94 55.5996C148.009 55.668 148.061 55.7477 148.098 55.8389C148.139 55.93 148.159 56.028 148.159 56.1328C148.159 56.2376 148.139 56.3356 148.098 56.4268C148.061 56.5133 148.009 56.5908 147.94 56.6592C147.872 56.723 147.792 56.7754 147.701 56.8164C147.61 56.8529 147.514 56.8711 147.414 56.8711C147.314 56.8711 147.218 56.8529 147.127 56.8164C147.04 56.7754 146.963 56.723 146.895 56.6592C146.826 56.5908 146.771 56.5133 146.73 56.4268C146.689 56.3356 146.669 56.2376 146.669 56.1328ZM151.017 57.8691V61.1709C151.017 61.7725 150.798 62.292 150.36 62.7295C149.882 63.208 149.294 63.4473 148.597 63.4473H146.3V62.2715H148.597C148.825 62.2715 149.03 62.1803 149.212 61.998C149.435 61.7793 149.547 61.5036 149.547 61.1709V57.8691H151.017ZM153.963 62.2715H156.089C156.344 62.2715 156.565 62.1667 156.752 61.957C156.943 61.7383 157.039 61.4762 157.039 61.1709V55.2715H158.509V61.1709C158.509 61.7998 158.272 62.3376 157.798 62.7842C157.324 63.2262 156.754 63.4473 156.089 63.4473H151.673V62.2715C151.996 62.2715 152.249 62.1803 152.432 61.998C152.65 61.7793 152.76 61.5036 152.76 61.1709V55.2715H154.236V61.1709C154.236 61.6676 154.145 62.0345 153.963 62.2715ZM152.794 54.2119C152.716 54.0843 152.671 53.9476 152.657 53.8018V53.7334C152.657 53.6377 152.673 53.5443 152.705 53.4531C152.814 53.1478 153.058 52.9951 153.437 52.9951C153.674 52.9951 153.872 53.0566 154.031 53.1797C154.173 53.2936 154.264 53.4486 154.305 53.6445L153.744 53.7129C153.721 53.6035 153.68 53.5238 153.621 53.4736C153.576 53.4417 153.514 53.4258 153.437 53.4258C153.35 53.4258 153.288 53.4714 153.252 53.5625C153.234 53.6081 153.225 53.6582 153.225 53.7129C153.225 53.7311 153.227 53.7516 153.231 53.7744C153.236 53.8564 153.257 53.9316 153.293 54C153.357 54.1185 153.434 54.1891 153.525 54.2119H154.414V54.6357H152.473V54.2119H152.794ZM161.079 55.2715V62.9961H159.609V55.2715H161.079ZM173.37 63.4473C172.445 63.4473 171.723 63.1784 171.203 62.6406L171.142 62.5859C170.914 62.8366 170.581 63.0462 170.144 63.2148C169.765 63.3652 169.367 63.4404 168.947 63.4404C168.87 63.4404 168.795 63.4382 168.722 63.4336C168.216 63.4017 167.751 63.2604 167.327 63.0098C166.302 62.4219 165.789 61.4466 165.789 60.084C165.789 59.0586 166.072 58.2428 166.637 57.6367C167.261 56.9805 168.12 56.6501 169.214 56.6455H169.234C169.854 56.6455 170.41 56.7549 170.902 56.9736C171.618 57.2835 171.976 57.7324 171.976 58.3203V60.7949C171.976 61.2826 172.103 61.6585 172.358 61.9229C172.586 62.1553 172.924 62.2715 173.37 62.2715V63.4473ZM170.506 58.3203C170.506 58.1927 170.401 58.0833 170.191 57.9922C169.918 57.8737 169.599 57.8145 169.234 57.8145H169.214C168.617 57.8145 168.152 57.9922 167.819 58.3477C167.446 58.7396 167.259 59.3184 167.259 60.084C167.259 61.0456 167.571 61.7087 168.195 62.0732C168.4 62.1872 168.617 62.251 168.845 62.2646C168.881 62.2692 168.918 62.2715 168.954 62.2715C169.141 62.2715 169.323 62.235 169.501 62.1621C170.075 61.9388 170.41 61.4808 170.506 60.7881V58.3203ZM169.159 54.9775C169.159 54.8727 169.18 54.7747 169.221 54.6836C169.262 54.5924 169.316 54.5127 169.385 54.4443C169.453 54.376 169.533 54.3236 169.624 54.2871C169.715 54.2461 169.813 54.2256 169.918 54.2256C170.018 54.2256 170.112 54.2461 170.198 54.2871C170.289 54.3236 170.367 54.376 170.431 54.4443C170.499 54.5127 170.551 54.5924 170.588 54.6836C170.629 54.7747 170.649 54.8727 170.649 54.9775C170.649 55.0824 170.629 55.1803 170.588 55.2715C170.551 55.3581 170.499 55.4355 170.431 55.5039C170.367 55.5677 170.289 55.6201 170.198 55.6611C170.112 55.6976 170.018 55.7158 169.918 55.7158C169.813 55.7158 169.715 55.6976 169.624 55.6611C169.533 55.6201 169.453 55.5677 169.385 55.5039C169.316 55.4355 169.262 55.3581 169.221 55.2715C169.18 55.1803 169.159 55.0824 169.159 54.9775ZM167.375 54.9775C167.375 54.8727 167.396 54.7747 167.437 54.6836C167.478 54.5924 167.532 54.5127 167.601 54.4443C167.669 54.376 167.746 54.3236 167.833 54.2871C167.924 54.2461 168.02 54.2256 168.12 54.2256C168.22 54.2256 168.316 54.2461 168.407 54.2871C168.498 54.3236 168.578 54.376 168.646 54.4443C168.715 54.5127 168.767 54.5924 168.804 54.6836C168.845 54.7747 168.865 54.8727 168.865 54.9775C168.865 55.0824 168.845 55.1803 168.804 55.2715C168.767 55.3581 168.715 55.4355 168.646 55.5039C168.578 55.5677 168.498 55.6201 168.407 55.6611C168.316 55.6976 168.22 55.7158 168.12 55.7158C168.02 55.7158 167.924 55.6976 167.833 55.6611C167.746 55.6201 167.669 55.5677 167.601 55.5039C167.532 55.4355 167.478 55.3581 167.437 55.2715C167.396 55.1803 167.375 55.0824 167.375 54.9775ZM174.771 61.1709V55.2715H176.241V61.1709C176.241 61.5036 176.353 61.7793 176.576 61.998C176.758 62.1803 176.964 62.2715 177.191 62.2715H178.401V63.4473H177.191C176.494 63.4473 175.927 63.2399 175.489 62.8252C175.075 63.2399 174.519 63.4473 173.821 63.4473H172.618V62.2715H173.821C174.049 62.2715 174.254 62.1803 174.437 61.998C174.66 61.7793 174.771 61.5036 174.771 61.1709ZM178.429 58.7852C178.547 58.4753 178.663 58.2292 178.777 58.0469C178.896 57.86 179.033 57.6937 179.188 57.5479C179.497 57.2471 179.867 57.0192 180.295 56.8643C180.719 56.7139 181.181 56.6387 181.683 56.6387C183.091 56.6387 184.08 57.181 184.649 58.2656C184.978 58.8945 185.228 60.002 185.401 61.5879C185.465 62.1393 185.518 62.5358 185.559 62.7773C185.563 62.8047 185.565 62.832 185.565 62.8594C185.565 63.0052 185.506 63.1328 185.388 63.2422C185.265 63.3561 185.105 63.4222 184.909 63.4404C184.864 63.445 184.82 63.4473 184.779 63.4473H177.786V62.2715L184.007 62.2783C183.998 62.2191 183.975 62.0231 183.938 61.6904C183.793 60.4053 183.615 59.5143 183.405 59.0176C183.063 58.2155 182.489 57.8145 181.683 57.8145C181.391 57.8145 181.131 57.8555 180.903 57.9375C180.68 58.015 180.489 58.1312 180.329 58.2861C180.238 58.3773 180.158 58.4775 180.09 58.5869C180.012 58.7008 179.935 58.8649 179.857 59.0791L178.429 58.7852ZM186.051 65.7168C186.415 65.3796 186.696 65.0947 186.892 64.8623C187.088 64.6253 187.24 64.4066 187.35 64.2061C187.637 63.6683 187.78 63.0531 187.78 62.3604V57.8691H189.25V62.3262C189.25 63.1921 189.068 63.9691 188.703 64.6572C188.557 64.9352 188.359 65.2223 188.108 65.5186C187.881 65.792 187.584 66.0951 187.22 66.4277L186.051 65.7168Z" fill="#4B4851"/>
</svg>
