<svg width="134" height="134" viewBox="0 0 134 134" fill="none" xmlns="http://www.w3.org/2000/svg">
<circle cx="67" cy="67" r="67" fill="white" fill-opacity="0.13"/>
<path d="M55.5 84.0898V90.1777C55.5 91.0098 55.2461 91.6855 54.7383 92.2051C54.1836 92.7754 53.4531 93.0605 52.5469 93.0605C51.7695 93.0605 51.1055 92.7715 50.5547 92.1934C50.0508 91.6738 49.7988 91.002 49.7988 90.1777C49.7988 89.9512 49.8145 89.7363 49.8457 89.5332C49.8809 89.3301 49.9434 89.0996 50.0332 88.8418L51.082 89.1055C51 89.3164 50.9473 89.502 50.9238 89.6621C50.8965 89.8223 50.8828 89.9941 50.8828 90.1777C50.8828 90.7754 51.0469 91.2422 51.375 91.5781C51.6797 91.8945 52.0703 92.0527 52.5469 92.0527C53.0469 92.0527 53.4473 91.8984 53.748 91.5898C54.0762 91.2539 54.2402 90.7832 54.2402 90.1777V84.0898H55.5ZM60.6035 86.7031C60.6035 86.5938 60.5137 86.5 60.334 86.4219C60.0996 86.3203 59.8262 86.2695 59.5137 86.2695H59.4961C58.9844 86.2695 58.5859 86.4219 58.3008 86.7266C57.9805 87.0625 57.8203 87.5586 57.8203 88.2148C57.8203 88.8125 57.9844 89.2793 58.3125 89.6152C58.6172 89.9316 59.0488 90.0898 59.6074 90.0898V90.0957H60.6035V86.7031ZM61.752 91.0977C61.6816 91.4414 61.541 91.7891 61.3301 92.1406C61.209 92.375 61.041 92.6191 60.8262 92.873C60.6309 93.1074 60.377 93.3691 60.0645 93.6582L59.1855 93.0371C59.4941 92.752 59.7324 92.5098 59.9004 92.3105C60.0684 92.1074 60.1992 91.9199 60.293 91.748C60.4219 91.498 60.4961 91.2812 60.5156 91.0977H59.4902C58.5918 91.0977 57.8672 90.8086 57.3164 90.2305C56.8125 89.7109 56.5605 89.0391 56.5605 88.2148C56.5605 87.3359 56.8027 86.6367 57.2871 86.1172C57.8223 85.5547 58.5586 85.2715 59.4961 85.2676H59.5137C60.0449 85.2676 60.5215 85.3613 60.9434 85.5488C61.5566 85.8145 61.8633 86.1992 61.8633 86.7031V90.0898H62.9062V91.0977H61.752ZM69.8555 90.0898C70.332 90.0898 70.7227 89.9316 71.0273 89.6152C71.3555 89.2793 71.5195 88.8125 71.5195 88.2148C71.5195 87.5586 71.3594 87.0605 71.0391 86.7207C70.7539 86.4199 70.3555 86.2695 69.8438 86.2695H66.5918C66.0801 86.2695 65.6816 86.4199 65.3965 86.7207C65.0762 87.0605 64.916 87.5586 64.916 88.2148V90.0898H69.8555ZM63.6387 90.0898V87.9512C63.623 86.998 63.5059 86.3594 63.2871 86.0352L64.3184 85.4141C64.4668 85.6602 64.5605 85.8789 64.5996 86.0703C64.959 85.5391 65.623 85.2695 66.5918 85.2617H69.8438C70.7812 85.2617 71.5176 85.5469 72.0527 86.1172C72.5371 86.6328 72.7793 87.332 72.7793 88.2148C72.7793 89.0391 72.5273 89.7109 72.0234 90.2305C71.4727 90.8086 70.75 91.0977 69.8555 91.0977H62.3789V90.0898H63.6387ZM77.877 86.7031C77.877 86.5938 77.7871 86.5 77.6074 86.4219C77.373 86.3203 77.0996 86.2695 76.7871 86.2695H76.7695C76.2578 86.2695 75.8594 86.4219 75.5742 86.7266C75.2539 87.0625 75.0938 87.5586 75.0938 88.2148C75.0938 88.8125 75.2578 89.2793 75.5859 89.6152C75.8906 89.9316 76.3223 90.0898 76.8809 90.0898V90.0957H77.877V86.7031ZM79.0254 91.0977C78.9551 91.4414 78.8145 91.7891 78.6035 92.1406C78.4824 92.375 78.3145 92.6191 78.0996 92.873C77.9043 93.1074 77.6504 93.3691 77.3379 93.6582L76.459 93.0371C76.7676 92.752 77.0059 92.5098 77.1738 92.3105C77.3418 92.1074 77.4727 91.9199 77.5664 91.748C77.6953 91.498 77.7695 91.2812 77.7891 91.0977H76.7637C75.8652 91.0977 75.1406 90.8086 74.5898 90.2305C74.0859 89.7109 73.834 89.0391 73.834 88.2148C73.834 87.3359 74.0762 86.6367 74.5605 86.1172C75.0957 85.5547 75.832 85.2715 76.7695 85.2676H76.7871C77.3184 85.2676 77.7949 85.3613 78.2168 85.5488C78.8301 85.8145 79.1367 86.1992 79.1367 86.7031V90.0898H80.1797V91.0977H79.0254ZM82.7578 84.0898V89.1465C82.7578 89.6621 82.5703 90.1074 82.1953 90.4824C81.7852 90.8926 81.2812 91.0977 80.6836 91.0977H79.6523V90.0898H80.6836C80.8789 90.0898 81.0547 90.0117 81.2109 89.8555C81.4023 89.668 81.498 89.4316 81.498 89.1465V84.0898H82.7578ZM85.0781 84.0898V90.7109H83.8184V84.0898H85.0781Z" fill="white"/>
<path d="M49.2773 73L58.2233 62.269C57.9573 62.549 57.5023 62.822 56.8583 63.088C56.2143 63.34 55.4093 63.466 54.4433 63.466C52.9313 63.466 51.4963 63.088 50.1383 62.332C48.7943 61.562 47.7023 60.484 46.8623 59.098C46.0363 57.712 45.6233 56.102 45.6233 54.268C45.6233 52.434 46.0713 50.803 46.9673 49.375C47.8633 47.947 49.0603 46.827 50.5583 46.015C52.0563 45.189 53.7153 44.776 55.5353 44.776C57.3833 44.776 59.0493 45.175 60.5333 45.973C62.0313 46.771 63.2213 47.905 64.1033 49.375C64.9853 50.845 65.4263 52.574 65.4263 54.562C65.4263 56.676 65.0693 58.468 64.3553 59.938C63.6413 61.394 62.8083 62.71 61.8563 63.886L54.5063 73H49.2773ZM55.4933 59.833C56.5433 59.833 57.4953 59.581 58.3493 59.077C59.2173 58.573 59.9103 57.887 60.4283 57.019C60.9463 56.151 61.2053 55.199 61.2053 54.163C61.2053 53.113 60.9463 52.161 60.4283 51.307C59.9103 50.439 59.2173 49.753 58.3493 49.249C57.4953 48.731 56.5433 48.472 55.4933 48.472C54.4573 48.472 53.5053 48.731 52.6373 49.249C51.7833 49.753 51.0973 50.439 50.5793 51.307C50.0753 52.161 49.8233 53.113 49.8233 54.163C49.8233 55.199 50.0753 56.151 50.5793 57.019C51.0973 57.887 51.7833 58.573 52.6373 59.077C53.5053 59.581 54.4573 59.833 55.4933 59.833ZM72.7012 66.364C72.7992 66.658 72.9672 66.994 73.2052 67.372C73.4432 67.75 73.7652 68.121 74.1712 68.485C74.5772 68.835 75.0812 69.129 75.6832 69.367C76.2852 69.605 77.0062 69.724 77.8462 69.724C79.5262 69.724 80.8422 69.185 81.7942 68.107C82.7462 67.015 83.2152 65.587 83.2012 63.823C83.1872 62.157 82.7462 60.876 81.8782 59.98C81.0102 59.07 79.8482 58.615 78.3922 58.615C77.4822 58.615 76.6842 58.776 75.9982 59.098C75.3262 59.42 74.7802 59.812 74.3602 60.274C73.9402 60.736 73.6462 61.163 73.4782 61.555L69.6982 60.232L72.0922 45.28H86.4352V49.207H75.8722L74.6962 56.788C74.7662 56.662 74.9972 56.459 75.3892 56.179C75.7952 55.885 76.3482 55.612 77.0482 55.36C77.7622 55.094 78.6162 54.961 79.6102 54.961C80.9962 54.961 82.2982 55.276 83.5162 55.906C84.7342 56.522 85.7282 57.467 86.4982 58.741C87.2682 60.001 87.6532 61.618 87.6532 63.592C87.6672 65.566 87.2752 67.295 86.4772 68.779C85.6932 70.263 84.5732 71.425 83.1172 72.265C81.6752 73.091 79.9672 73.504 77.9932 73.504C76.5372 73.504 75.2772 73.322 74.2132 72.958C73.1492 72.58 72.2532 72.111 71.5252 71.551C70.7972 70.991 70.2162 70.41 69.7822 69.808C69.3482 69.192 69.0402 68.646 68.8582 68.17L72.7012 66.364Z" fill="white"/>
<circle cx="67" cy="67" r="50" stroke="white" stroke-opacity="0.24" stroke-width="7"/>
<path d="M67 17C94.6142 17 117 39.3858 117 67C117 94.6142 94.6142 117 67 117C39.3858 117 17 94.6142 17 67C17 53.7849 22.1268 41.7672 30.5 32.8274" stroke="white" stroke-width="7" stroke-linecap="round"/>
</svg>
