<svg width="17" height="18" viewBox="0 0 17 18" fill="none" xmlns="http://www.w3.org/2000/svg">
<path fill-rule="evenodd" clip-rule="evenodd" d="M6.17758 13.352C5.92824 13.352 5.69733 13.221 5.56912 13.0064C4.91887 11.9155 4.08233 10.9345 3.08428 10.0909C2.78537 9.83799 2.74853 9.39103 3.0007 9.09212C3.25358 8.79249 3.69983 8.75566 3.99874 9.00853C4.80908 9.69349 5.5252 10.4606 6.13578 11.2979C7.2953 9.42291 9.57472 6.45005 13.1497 4.71817C13.5017 4.54888 13.9253 4.69409 14.096 5.04684C14.266 5.39888 14.1194 5.82246 13.7673 5.99317C9.81768 7.90637 7.58076 11.5139 6.80303 12.9766C6.68262 13.2019 6.45028 13.3457 6.19458 13.352H6.17758Z" fill="#00C5AB"/>
</svg>
