<svg width="204" height="96" viewBox="0 0 204 96" fill="none" xmlns="http://www.w3.org/2000/svg">
<g filter="url(#filter0_i_108_5834)">
<path fill-rule="evenodd" clip-rule="evenodd" d="M29.2869 0C24.9669 0 21.4648 3.50203 21.4648 7.82201V15.2223C21.4648 19.5423 24.9669 23.0444 29.2869 23.0444H95.178C99.498 23.0444 103 19.5423 103 15.2223V7.82201C103 3.50203 99.498 0 95.178 0H29.2869ZM27.0085 23.0445C26.5604 23.0445 26.2551 23.4984 26.4241 23.9134C26.6374 24.4375 27.3795 24.4375 27.5929 23.9134C27.7618 23.4984 27.4565 23.0445 27.0085 23.0445Z" fill="#ECECEC"/>
</g>
<rect x="28" y="5" width="12" height="12" rx="6" fill="#480689"/>
<rect x="47.822" y="5" width="12" height="12" rx="6" fill="#D4088C"/>
<rect x="67.644" y="5" width="12" height="12" rx="6" fill="#14C0D8"/>
<rect x="87.4661" y="5" width="12" height="12" rx="6" fill="#F27227"/>
<g filter="url(#filter1_d_108_5834)">
<rect x="20" y="27" width="164" height="34" rx="7.82201" fill="#ECECEC"/>
</g>
<rect x="26" y="33" width="24" height="23" rx="7.11092" fill="#480689"/>
<path d="M43.5348 40.3549C43.5635 40.2836 43.5655 40.2042 43.5404 40.1315C43.5153 40.0588 43.4648 39.9975 43.3981 39.9591L40.0791 38.0429C40.0125 38.0044 39.9342 37.9912 39.8587 38.0058C39.7832 38.0204 39.7154 38.0619 39.668 38.1224L34.5811 44.4568L40.5926 47.9275L43.5348 40.3549Z" fill="#F4F4F4"/>
<path d="M34.2138 47.5637C34.1928 47.6001 34.1791 47.6402 34.1736 47.6817C34.1682 47.7233 34.1709 47.7656 34.1818 47.8061C34.1926 47.8466 34.2114 47.8846 34.2369 47.9179C34.2625 47.9511 34.2943 47.9791 34.3307 48L37.6497 49.9163C37.686 49.9372 37.7261 49.9509 37.7677 49.9564C37.8092 49.9618 37.8515 49.9591 37.892 49.9482C37.9325 49.9374 37.9705 49.9186 38.0038 49.8931C38.0371 49.8675 38.065 49.8357 38.0859 49.7993C38.6301 48.8568 39.3352 48.629 40.1488 48.4089L34.3865 45.082C34.6026 45.8967 34.7579 46.6212 34.2138 47.5637Z" fill="#F4F4F4"/>
<path d="M34.0428 50.415C34.0156 50.4621 34.0009 50.5155 34 50.5699C33.9992 50.6243 34.0123 50.6781 34.0381 50.726C34.0639 50.774 34.1015 50.8145 34.1474 50.8438C34.1933 50.8732 34.2459 50.8903 34.3003 50.8935L35.726 50.9791C35.7852 50.9826 35.8442 50.9696 35.8964 50.9415C35.9486 50.9134 35.992 50.8713 36.0217 50.8199L36.5007 49.9902L34.8412 49.0321L34.0428 50.415Z" fill="#F4F4F4"/>
<rect x="66" y="36" width="16" height="16" rx="3" fill="#480689" fill-opacity="0.1"/>
<path d="M69.9935 49.5V49.083C70.377 48.9008 70.77 48.7858 71.1726 48.7379V40.2105C70.9809 40.1722 70.7844 40.1242 70.5831 40.0667C70.3817 39.9996 70.1852 39.9277 69.9935 39.851V39.434H71.5178C71.6999 39.434 71.8725 39.4292 72.0354 39.4196C72.208 39.41 72.3854 39.4004 72.5675 39.3909C72.7497 39.3813 72.9462 39.3717 73.1571 39.3621C73.368 39.3525 73.6077 39.3477 73.8761 39.3477C74.2596 39.3477 74.6478 39.3813 75.0409 39.4484C75.4435 39.5059 75.803 39.6209 76.1194 39.7935C76.4453 39.9661 76.7089 40.2105 76.9103 40.5269C77.1116 40.8337 77.2122 41.2363 77.2122 41.7348C77.2122 41.9841 77.1739 42.2333 77.0972 42.4826C77.0205 42.7318 76.9007 42.9667 76.7377 43.1872C76.5843 43.3981 76.3878 43.585 76.1481 43.748C75.9085 43.911 75.6257 44.0308 75.2997 44.1075V44.165C75.5873 44.213 75.8701 44.2944 76.1481 44.4095C76.4357 44.5245 76.6898 44.6827 76.9103 44.884C77.1308 45.0758 77.3081 45.3154 77.4423 45.603C77.5861 45.8906 77.658 46.2357 77.658 46.6384C77.658 47.1561 77.543 47.6018 77.3129 47.9757C77.0828 48.3496 76.7808 48.6564 76.407 48.896C76.0427 49.1357 75.6257 49.3131 75.1559 49.4281C74.6862 49.5336 74.2116 49.5863 73.7323 49.5863C73.3968 49.5863 73.0181 49.5719 72.5963 49.5431C72.1745 49.5144 71.767 49.5 71.374 49.5H69.9935ZM73.8329 48.8385C74.1781 48.8385 74.4992 48.7858 74.7964 48.6803C75.1032 48.5749 75.362 48.4311 75.5729 48.2489C75.7934 48.0572 75.966 47.8319 76.0906 47.5731C76.2152 47.3047 76.2775 47.0171 76.2775 46.7103C76.2775 46.3268 76.2009 46.0105 76.0475 45.7612C75.9037 45.5024 75.7023 45.301 75.4435 45.1572C75.1943 45.0039 74.9019 44.8984 74.5663 44.8409C74.2404 44.7834 73.9001 44.7546 73.5453 44.7546H72.4668V48.7235C72.6011 48.7618 72.7592 48.7906 72.9414 48.8098C73.1331 48.8289 73.4303 48.8385 73.8329 48.8385ZM73.1858 44.0068C73.3488 44.0068 73.5406 44.002 73.761 43.9925C73.9911 43.9733 74.1781 43.9541 74.3219 43.9349C74.7629 43.7816 75.1224 43.5371 75.4004 43.2016C75.688 42.8564 75.8318 42.4538 75.8318 41.9936C75.8318 41.3609 75.64 40.8864 75.2566 40.57C74.8827 40.2537 74.3794 40.0955 73.7467 40.0955C73.4495 40.0955 73.1954 40.1003 72.9845 40.1099C72.7736 40.1194 72.6011 40.1338 72.4668 40.153V44.0068H73.1858Z" fill="#480689"/>
<path d="M95.7565 49H92.0752L92.1471 48.583C92.5689 48.4104 92.9811 48.2954 93.3838 48.2379L95.1813 39.7105C94.9895 39.6722 94.8074 39.6242 94.6348 39.5667C94.4623 39.4996 94.2849 39.4277 94.1028 39.351L94.2034 38.934H97.8847L97.7984 39.351C97.6067 39.4277 97.4006 39.4996 97.1801 39.5667C96.9596 39.6242 96.7535 39.6722 96.5617 39.7105L94.7642 48.2379C94.956 48.2762 95.1429 48.3241 95.3251 48.3817C95.5168 48.4392 95.6846 48.5063 95.8284 48.583L95.7565 49Z" fill="#202020"/>
<path d="M114.655 48.0078C114.77 48.1228 114.919 48.2235 115.101 48.3098C115.283 48.3865 115.556 48.4248 115.921 48.4248C116.227 48.4248 116.515 48.3865 116.783 48.3098C117.052 48.2235 117.282 48.1036 117.474 47.9503C117.675 47.7873 117.833 47.5956 117.948 47.3751C118.063 47.145 118.121 46.8861 118.121 46.5985C118.121 46.2151 118.001 45.8939 117.761 45.6351C117.531 45.3762 117.239 45.1462 116.884 44.9448C116.539 44.7435 116.16 44.547 115.748 44.3553C115.336 44.1635 114.952 43.9382 114.598 43.6794C114.252 43.411 113.96 43.0946 113.72 42.7303C113.49 42.3564 113.375 41.8915 113.375 41.3355C113.375 40.9328 113.447 40.5733 113.591 40.257C113.735 39.9406 113.936 39.6722 114.195 39.4517C114.463 39.2312 114.78 39.0634 115.144 38.9484C115.508 38.8238 115.916 38.7614 116.366 38.7614C116.951 38.7614 117.483 38.8094 117.963 38.9052C118.451 38.9915 118.835 39.1018 119.113 39.236C119.113 39.399 119.099 39.5907 119.07 39.8112C119.051 40.0221 119.022 40.2426 118.984 40.4727C118.955 40.7027 118.921 40.928 118.883 41.1485C118.845 41.3594 118.806 41.5464 118.768 41.7093H118.394L117.819 39.7393C117.646 39.6626 117.426 39.6051 117.157 39.5667C116.898 39.5284 116.62 39.5092 116.323 39.5092C115.834 39.5092 115.441 39.6482 115.144 39.9262C114.847 40.1946 114.698 40.5733 114.698 41.0622C114.698 41.4553 114.813 41.786 115.043 42.0545C115.283 42.3229 115.58 42.5626 115.935 42.7735C116.29 42.9844 116.668 43.1905 117.071 43.3918C117.483 43.5835 117.867 43.8088 118.221 44.0677C118.576 44.3265 118.868 44.6333 119.099 44.988C119.338 45.3427 119.458 45.7837 119.458 46.3109C119.458 46.7423 119.377 47.1354 119.214 47.4901C119.06 47.8448 118.835 48.1468 118.538 48.396C118.241 48.6453 117.876 48.837 117.445 48.9712C117.013 49.1055 116.525 49.1726 115.978 49.1726C115.374 49.1726 114.832 49.1007 114.353 48.9569C113.874 48.8131 113.533 48.6597 113.332 48.4967C113.342 48.3337 113.356 48.1372 113.375 47.9071C113.404 47.677 113.433 47.4422 113.462 47.2025C113.5 46.9532 113.538 46.7136 113.577 46.4835C113.615 46.2534 113.653 46.0569 113.692 45.8939H114.066L114.655 48.0078Z" fill="#202020"/>
<path d="M112.498 45.405H120.206V46.124H112.498V45.405Z" fill="#202020"/>
<path d="M136.063 47.3438L132.813 44.5L136.063 41.6563M140.938 47.3438L144.188 44.5L140.938 41.6563M139.719 40.4375L137.281 48.5625" stroke="#202020" stroke-linecap="round" stroke-linejoin="round"/>
<g clip-path="url(#clip0_108_5834)">
<path d="M161.416 44.5C161.649 44.7871 161.946 45.0246 162.286 45.1965C162.627 45.3684 163.004 45.4706 163.391 45.4962C163.779 45.5218 164.168 45.4702 164.531 45.3449C164.895 45.2196 165.226 45.0235 165.5 44.77L167.125 43.27C167.619 42.7985 167.892 42.167 167.885 41.5115C167.879 40.856 167.594 40.229 167.092 39.7655C166.59 39.3019 165.911 39.039 165.201 39.0333C164.491 39.0276 163.807 39.2796 163.296 39.735L162.364 40.59" stroke="#202020" stroke-linecap="round" stroke-linejoin="round"/>
<path d="M163.583 43.4999C163.35 43.2128 163.053 42.9753 162.712 42.8034C162.372 42.6315 161.995 42.5293 161.607 42.5037C161.22 42.4781 160.831 42.5297 160.467 42.655C160.104 42.7803 159.773 42.9763 159.499 43.2299L157.874 44.7299C157.38 45.2014 157.107 45.8329 157.113 46.4884C157.12 47.1439 157.404 47.7709 157.907 48.2344C158.409 48.6979 159.088 48.9609 159.798 48.9666C160.508 48.9722 161.192 48.7203 161.703 48.2649L162.629 47.4099" stroke="#202020" stroke-linecap="round" stroke-linejoin="round"/>
</g>
<defs>
<filter id="filter0_i_108_5834" x="21.4648" y="0" width="81.5352" height="28.2174" filterUnits="userSpaceOnUse" color-interpolation-filters="sRGB">
<feFlood flood-opacity="0" result="BackgroundImageFix"/>
<feBlend mode="normal" in="SourceGraphic" in2="BackgroundImageFix" result="shape"/>
<feColorMatrix in="SourceAlpha" type="matrix" values="0 0 0 0 0 0 0 0 0 0 0 0 0 0 0 0 0 0 127 0" result="hardAlpha"/>
<feOffset dy="3.91101"/>
<feGaussianBlur stdDeviation="6.84426"/>
<feComposite in2="hardAlpha" operator="arithmetic" k2="-1" k3="1"/>
<feColorMatrix type="matrix" values="0 0 0 0 1 0 0 0 0 1 0 0 0 0 1 0 0 0 0.08 0"/>
<feBlend mode="normal" in2="shape" result="effect1_innerShadow_108_5834"/>
</filter>
<filter id="filter1_d_108_5834" x="0.141861" y="21.5825" width="203.716" height="73.7163" filterUnits="userSpaceOnUse" color-interpolation-filters="sRGB">
<feFlood flood-opacity="0" result="BackgroundImageFix"/>
<feColorMatrix in="SourceAlpha" type="matrix" values="0 0 0 0 0 0 0 0 0 0 0 0 0 0 0 0 0 0 127 0" result="hardAlpha"/>
<feOffset dy="14.4406"/>
<feGaussianBlur stdDeviation="9.92907"/>
<feColorMatrix type="matrix" values="0 0 0 0 0 0 0 0 0 0 0 0 0 0 0 0 0 0 0.17 0"/>
<feBlend mode="normal" in2="BackgroundImageFix" result="effect1_dropShadow_108_5834"/>
<feBlend mode="normal" in="SourceGraphic" in2="effect1_dropShadow_108_5834" result="shape"/>
</filter>
<clipPath id="clip0_108_5834">
<rect width="13" height="12" fill="white" transform="translate(156 38)"/>
</clipPath>
</defs>
</svg>
