<svg width="102" height="41" viewBox="0 0 102 41" fill="none" xmlns="http://www.w3.org/2000/svg">
<rect width="92" height="32" rx="10" fill="#EECBF1"/>
<path d="M20.4697 19.0225H20.0762C19.6107 19.0225 19.1685 18.9378 18.7495 18.7686C18.7495 18.9717 18.7262 19.16 18.6797 19.3335C18.5062 20.0021 18.0259 20.4972 17.2388 20.8188C16.659 21.0558 15.9608 21.1764 15.144 21.1807C14.4754 21.1807 13.8872 21.113 13.3794 20.9775C12.5076 20.749 11.8306 20.3639 11.3481 19.8223C10.87 19.2975 10.6309 18.6649 10.6309 17.9243C10.6309 17.6281 10.6499 17.3551 10.688 17.1055C10.7218 16.8389 10.7917 16.5553 10.8975 16.2549L12.2241 16.4961C12.1353 16.7712 12.076 17.0145 12.0464 17.2261C12.0125 17.4461 11.9956 17.6789 11.9956 17.9243C11.9956 18.4237 12.1501 18.8468 12.459 19.1938C12.7721 19.5366 13.2228 19.7884 13.811 19.9492C14.1707 20.0423 14.5918 20.0889 15.0742 20.0889H15.1377C15.7344 20.0889 16.2231 20.0085 16.604 19.8477C17.0103 19.6868 17.2578 19.4414 17.3467 19.1113C17.3721 19.0055 17.3848 18.8913 17.3848 18.7686C17.3848 18.3792 17.2345 18.0872 16.9341 17.8926C16.7437 17.7741 16.3966 17.6556 15.8931 17.5371L15.7026 17.5054L16.0581 16.458C16.4601 16.5173 16.8135 16.6019 17.1182 16.7119C17.3848 16.7965 17.6112 16.8918 17.7974 16.9976C17.8947 17.0483 18.0428 17.1266 18.2417 17.2324C19.0288 17.6979 19.6403 17.9307 20.0762 17.9307H20.4697V19.0225ZM14.979 22.5581C14.979 22.4608 14.998 22.3698 15.0361 22.2852C15.0742 22.2005 15.125 22.1265 15.1885 22.063C15.252 21.9995 15.326 21.9487 15.4106 21.9106C15.4953 21.8768 15.5863 21.8599 15.6836 21.8599C15.7767 21.8599 15.8634 21.8768 15.9438 21.9106C16.0285 21.9487 16.1004 21.9995 16.1597 22.063C16.2231 22.1265 16.2718 22.2005 16.3057 22.2852C16.3438 22.3698 16.3628 22.4608 16.3628 22.5581C16.3628 22.6554 16.3438 22.7443 16.3057 22.8247C16.2718 22.9093 16.2231 22.9813 16.1597 23.0405C16.1004 23.104 16.0285 23.1527 15.9438 23.1865C15.8634 23.2246 15.7767 23.2437 15.6836 23.2437C15.5863 23.2437 15.4953 23.2246 15.4106 23.1865C15.326 23.1527 15.252 23.104 15.1885 23.0405C15.125 22.9813 15.0742 22.9093 15.0361 22.8247C14.998 22.7443 14.979 22.6554 14.979 22.5581ZM13.3223 22.5581C13.3223 22.4608 13.3413 22.3698 13.3794 22.2852C13.4175 22.2005 13.4683 22.1265 13.5317 22.063C13.5952 21.9995 13.6672 21.9487 13.7476 21.9106C13.8322 21.8768 13.9211 21.8599 14.0142 21.8599C14.1073 21.8599 14.1961 21.8768 14.2808 21.9106C14.3654 21.9487 14.4395 21.9995 14.5029 22.063C14.5664 22.1265 14.6151 22.2005 14.6489 22.2852C14.687 22.3698 14.7061 22.4608 14.7061 22.5581C14.7061 22.6554 14.687 22.7443 14.6489 22.8247C14.6151 22.9093 14.5664 22.9813 14.5029 23.0405C14.4395 23.104 14.3654 23.1527 14.2808 23.1865C14.1961 23.2246 14.1073 23.2437 14.0142 23.2437C13.9211 23.2437 13.8322 23.2246 13.7476 23.1865C13.6672 23.1527 13.5952 23.104 13.5317 23.0405C13.4683 22.9813 13.4175 22.9093 13.3794 22.8247C13.3413 22.7443 13.3223 22.6554 13.3223 22.5581ZM21.1172 17.9307C20.6729 17.4694 20.4507 16.7923 20.4507 15.8994C20.4507 14.943 20.7131 14.1855 21.2378 13.627C21.8218 13.0091 22.6195 12.7002 23.6309 12.7002C24.0964 12.7002 24.528 12.77 24.9258 12.9097C25.3236 13.0535 25.6642 13.2651 25.9478 13.5444C26.0916 13.6799 26.2186 13.8343 26.3286 14.0078C26.4386 14.1771 26.5465 14.4056 26.6523 14.6934L25.3257 14.9663C25.2537 14.7674 25.1839 14.6151 25.1162 14.5093C25.0527 14.4077 24.9766 14.3146 24.8877 14.23C24.7396 14.0861 24.5618 13.9782 24.3545 13.9062C24.1471 13.8301 23.9059 13.792 23.6309 13.792C23.0765 13.792 22.647 13.9549 22.3423 14.2808C21.991 14.6489 21.8154 15.1885 21.8154 15.8994C21.8154 16.5469 21.9932 17.0526 22.3486 17.4165C22.6787 17.7593 23.104 17.9307 23.6245 17.9307H26.9189V19.0225H19.7778V17.9307H21.1172ZM29.4263 11.4307V16.9087C29.4263 17.2176 29.5299 17.4736 29.7373 17.6768C29.9066 17.846 30.097 17.9307 30.3086 17.9307H31.8066V19.0225H30.3086C29.6611 19.0225 29.1152 18.8003 28.6709 18.356C28.2646 17.9497 28.0615 17.4673 28.0615 16.9087V11.4307H29.4263ZM37.5513 15.8994C37.5513 15.18 37.3778 14.6405 37.0308 14.2808C36.7261 13.9549 36.2923 13.792 35.7295 13.792C35.1751 13.792 34.7456 13.9549 34.4409 14.2808C34.0897 14.6489 33.9141 15.1885 33.9141 15.8994C33.9141 16.5469 34.0918 17.0526 34.4473 17.4165C34.7773 17.7593 35.2026 17.9307 35.7231 17.9307C36.2606 17.9307 36.6922 17.7635 37.0181 17.4292C37.3735 17.0653 37.5513 16.5553 37.5513 15.8994ZM35.7231 19.0225C34.7498 19.0225 33.9797 18.7241 33.4126 18.1274C33.3999 18.1401 33.3512 18.1909 33.2666 18.2798C32.7842 18.7749 32.1092 19.0225 31.2417 19.0225V17.9307C31.6691 17.9307 31.9865 17.8249 32.1938 17.6133C32.4308 17.3678 32.5493 17.0166 32.5493 16.5596V15.8994C32.5493 14.943 32.8117 14.1855 33.3364 13.627C33.9204 13.0091 34.7181 12.7002 35.7295 12.7002C36.7493 12.7002 37.5492 13.007 38.1289 13.6206C38.6536 14.1792 38.916 14.9388 38.916 15.8994C38.916 16.8008 38.696 17.4779 38.2559 17.9307H39.6016V19.0225H35.7231ZM41.5312 12.2749C41.5312 12.1776 41.5503 12.0866 41.5884 12.002C41.6265 11.9173 41.6772 11.8433 41.7407 11.7798C41.8042 11.7163 41.8783 11.6676 41.9629 11.6338C42.0475 11.5957 42.1385 11.5767 42.2358 11.5767C42.3289 11.5767 42.4157 11.5957 42.4961 11.6338C42.5807 11.6676 42.6527 11.7163 42.7119 11.7798C42.7754 11.8433 42.8241 11.9173 42.8579 12.002C42.896 12.0866 42.915 12.1776 42.915 12.2749C42.915 12.3722 42.896 12.4632 42.8579 12.5479C42.8241 12.6283 42.7754 12.7002 42.7119 12.7637C42.6527 12.8229 42.5807 12.8716 42.4961 12.9097C42.4157 12.9435 42.3289 12.9604 42.2358 12.9604C42.1385 12.9604 42.0475 12.9435 41.9629 12.9097C41.8783 12.8716 41.8042 12.8229 41.7407 12.7637C41.6772 12.7002 41.6265 12.6283 41.5884 12.5479C41.5503 12.4632 41.5312 12.3722 41.5312 12.2749ZM39.8745 12.2749C39.8745 12.1776 39.8936 12.0866 39.9316 12.002C39.9697 11.9173 40.0205 11.8433 40.084 11.7798C40.1475 11.7163 40.2194 11.6676 40.2998 11.6338C40.3844 11.5957 40.4733 11.5767 40.5664 11.5767C40.6595 11.5767 40.7484 11.5957 40.833 11.6338C40.9176 11.6676 40.9917 11.7163 41.0552 11.7798C41.1187 11.8433 41.1673 11.9173 41.2012 12.002C41.2393 12.0866 41.2583 12.1776 41.2583 12.2749C41.2583 12.3722 41.2393 12.4632 41.2012 12.5479C41.1673 12.6283 41.1187 12.7002 41.0552 12.7637C40.9917 12.8229 40.9176 12.8716 40.833 12.9097C40.7484 12.9435 40.6595 12.9604 40.5664 12.9604C40.4733 12.9604 40.3844 12.9435 40.2998 12.9097C40.2194 12.8716 40.1475 12.8229 40.084 12.7637C40.0205 12.7002 39.9697 12.6283 39.9316 12.5479C39.8936 12.4632 39.8745 12.3722 39.8745 12.2749ZM39.0366 19.0225V17.9307H39.5635C39.9062 17.9307 40.1813 17.8249 40.3887 17.6133C40.6257 17.3678 40.7441 17.0166 40.7441 16.5596V13.8428H42.1152V16.6929C42.1364 17.0822 42.2528 17.3869 42.4644 17.6069C42.6759 17.8228 42.9447 17.9307 43.2705 17.9307H43.8228V19.0225H43.2705C42.4961 19.0225 41.8825 18.7876 41.4297 18.3179C40.9727 18.7876 40.3506 19.0225 39.5635 19.0225H39.0366ZM43.7212 14.6934C43.8312 14.4056 43.9391 14.1771 44.0449 14.0078C44.1549 13.8343 44.2819 13.6799 44.4258 13.5444C44.7135 13.2651 45.0563 13.0535 45.4541 12.9097C45.8477 12.77 46.2772 12.7002 46.7427 12.7002C48.0503 12.7002 48.9686 13.2038 49.4976 14.2109C49.8022 14.7949 50.035 15.8232 50.1958 17.2959C50.255 17.8079 50.3037 18.1761 50.3418 18.4004C50.346 18.4258 50.3481 18.4512 50.3481 18.4766C50.3481 18.612 50.2931 18.7305 50.1831 18.832C50.0688 18.9378 49.9207 18.9992 49.7388 19.0161C49.6965 19.0203 49.6562 19.0225 49.6182 19.0225H43.1245V17.9307L48.9009 17.937C48.8924 17.882 48.8713 17.7 48.8374 17.3911C48.702 16.1978 48.5369 15.3704 48.3423 14.9092C48.0249 14.1644 47.4917 13.792 46.7427 13.792C46.4718 13.792 46.2306 13.8301 46.019 13.9062C45.8117 13.9782 45.634 14.0861 45.4858 14.23C45.4012 14.3146 45.3271 14.4077 45.2637 14.5093C45.1917 14.6151 45.1198 14.7674 45.0479 14.9663L43.7212 14.6934ZM46.1396 20.6919C46.1396 20.5946 46.1587 20.5036 46.1968 20.4189C46.2349 20.3343 46.2856 20.2603 46.3491 20.1968C46.4126 20.1333 46.4845 20.0825 46.5649 20.0444C46.6496 20.0106 46.7384 19.9937 46.8315 19.9937C46.9246 19.9937 47.0135 20.0106 47.0981 20.0444C47.1828 20.0825 47.2568 20.1333 47.3203 20.1968C47.3838 20.2603 47.4325 20.3343 47.4663 20.4189C47.5044 20.5036 47.5234 20.5946 47.5234 20.6919C47.5234 20.7892 47.5044 20.8781 47.4663 20.9585C47.4325 21.0431 47.3838 21.1151 47.3203 21.1743C47.2568 21.2378 47.1828 21.2865 47.0981 21.3203C47.0135 21.3584 46.9246 21.3774 46.8315 21.3774C46.7384 21.3774 46.6496 21.3584 46.5649 21.3203C46.4845 21.2865 46.4126 21.2378 46.3491 21.1743C46.2856 21.1151 46.2349 21.0431 46.1968 20.9585C46.1587 20.8781 46.1396 20.7892 46.1396 20.6919ZM53.0967 17.9307H55.0708C55.3078 17.9307 55.513 17.8333 55.6865 17.6387C55.8643 17.4355 55.9531 17.1922 55.9531 16.9087V11.4307H57.3179V16.9087C57.3179 17.4927 57.0978 17.992 56.6577 18.4067C56.2176 18.8172 55.6886 19.0225 55.0708 19.0225H50.9702V17.9307C51.2707 17.9307 51.5055 17.846 51.6748 17.6768C51.8779 17.4736 51.9795 17.2176 51.9795 16.9087V11.4307H53.3506V16.9087C53.3506 17.37 53.266 17.7106 53.0967 17.9307ZM59.8315 11.4307V18.6035H58.4668V11.4307H59.8315ZM67.436 19.0225C66.9494 19.0055 66.5749 18.9209 66.3125 18.7686C66.2279 19.2171 66.0607 19.6763 65.811 20.146C65.6756 20.4041 65.4915 20.6707 65.2588 20.9458C65.0472 21.1997 64.7721 21.4832 64.4336 21.7964L63.4814 21.1235C63.8158 20.8146 64.0739 20.5522 64.2559 20.3364C64.4378 20.1164 64.5796 19.9111 64.6812 19.7207C64.9139 19.2933 65.0303 18.8088 65.0303 18.2671C65.0303 18.1782 65.026 18.0851 65.0176 17.9878V13.8428H66.3823V16.731C66.4077 17.0991 66.5241 17.3911 66.7314 17.6069C66.943 17.8228 67.2118 17.9307 67.5376 17.9307H68.0835V19.0225H67.436ZM69.9434 12.2305C69.9434 12.1331 69.9624 12.0422 70.0005 11.9575C70.0386 11.8729 70.0894 11.7988 70.1528 11.7354C70.2163 11.6719 70.2904 11.6232 70.375 11.5894C70.4596 11.5513 70.5506 11.5322 70.6479 11.5322C70.741 11.5322 70.8278 11.5513 70.9082 11.5894C70.9928 11.6232 71.0648 11.6719 71.124 11.7354C71.1875 11.7988 71.2362 11.8729 71.27 11.9575C71.3081 12.0422 71.3271 12.1331 71.3271 12.2305C71.3271 12.3278 71.3081 12.4188 71.27 12.5034C71.2362 12.5838 71.1875 12.6558 71.124 12.7192C71.0648 12.7785 70.9928 12.8271 70.9082 12.8652C70.8278 12.8991 70.741 12.916 70.6479 12.916C70.5506 12.916 70.4596 12.8991 70.375 12.8652C70.2904 12.8271 70.2163 12.7785 70.1528 12.7192C70.0894 12.6558 70.0386 12.5838 70.0005 12.5034C69.9624 12.4188 69.9434 12.3278 69.9434 12.2305ZM68.9023 10.5928C68.9023 10.4954 68.9214 10.4045 68.9595 10.3198C68.9976 10.2352 69.0483 10.1611 69.1118 10.0977C69.1753 10.0342 69.2472 9.98551 69.3276 9.95166C69.4123 9.91357 69.5011 9.89453 69.5942 9.89453C69.6873 9.89453 69.7762 9.91357 69.8608 9.95166C69.9455 9.98551 70.0195 10.0342 70.083 10.0977C70.1465 10.1611 70.1951 10.2352 70.229 10.3198C70.2671 10.4045 70.2861 10.4954 70.2861 10.5928C70.2861 10.6901 70.2671 10.7811 70.229 10.8657C70.1951 10.9461 70.1465 11.0181 70.083 11.0815C70.0195 11.1408 69.9455 11.1895 69.8608 11.2275C69.7762 11.2614 69.6873 11.2783 69.5942 11.2783C69.5011 11.2783 69.4123 11.2614 69.3276 11.2275C69.2472 11.1895 69.1753 11.1408 69.1118 11.0815C69.0483 11.0181 68.9976 10.9461 68.9595 10.8657C68.9214 10.7811 68.9023 10.6901 68.9023 10.5928ZM67.855 12.2305C67.855 12.1331 67.874 12.0422 67.9121 11.9575C67.9502 11.8729 68.001 11.7988 68.0645 11.7354C68.1279 11.6719 68.1999 11.6232 68.2803 11.5894C68.3649 11.5513 68.4538 11.5322 68.5469 11.5322C68.64 11.5322 68.7288 11.5513 68.8135 11.5894C68.8981 11.6232 68.9722 11.6719 69.0356 11.7354C69.0991 11.7988 69.1478 11.8729 69.1816 11.9575C69.2197 12.0422 69.2388 12.1331 69.2388 12.2305C69.2388 12.3278 69.2197 12.4188 69.1816 12.5034C69.1478 12.5838 69.0991 12.6558 69.0356 12.7192C68.9722 12.7785 68.8981 12.8271 68.8135 12.8652C68.7288 12.8991 68.64 12.916 68.5469 12.916C68.4538 12.916 68.3649 12.8991 68.2803 12.8652C68.1999 12.8271 68.1279 12.7785 68.0645 12.7192C68.001 12.6558 67.9502 12.5838 67.9121 12.5034C67.874 12.4188 67.855 12.3278 67.855 12.2305ZM71.8921 13.8428V16.9087C71.8921 17.4673 71.689 17.9497 71.2827 18.356C70.8384 18.8003 70.2925 19.0225 69.645 19.0225H67.5122V17.9307H69.645C69.8566 17.9307 70.047 17.846 70.2163 17.6768C70.4237 17.4736 70.5273 17.2176 70.5273 16.9087V13.8428H71.8921ZM74.6279 17.9307H76.6021C76.839 17.9307 77.0443 17.8333 77.2178 17.6387C77.3955 17.4355 77.4844 17.1922 77.4844 16.9087V11.4307H78.8491V16.9087C78.8491 17.4927 78.6291 17.992 78.189 18.4067C77.7489 18.8172 77.2199 19.0225 76.6021 19.0225H72.5015V17.9307C72.8019 17.9307 73.0368 17.846 73.2061 17.6768C73.4092 17.4736 73.5107 17.2176 73.5107 16.9087V11.4307H74.8818V16.9087C74.8818 17.37 74.7972 17.7106 74.6279 17.9307ZM73.5425 10.4468C73.4705 10.3283 73.4282 10.2013 73.4155 10.0659V10.0024C73.4155 9.91357 73.4303 9.82682 73.46 9.74219C73.5615 9.45866 73.7879 9.31689 74.1392 9.31689C74.3592 9.31689 74.5433 9.37402 74.6914 9.48828C74.8226 9.59408 74.9072 9.73796 74.9453 9.91992L74.4248 9.9834C74.4036 9.88184 74.3656 9.80778 74.3105 9.76123C74.2682 9.73161 74.2111 9.7168 74.1392 9.7168C74.0588 9.7168 74.0016 9.75911 73.9678 9.84375C73.9508 9.88607 73.9424 9.93262 73.9424 9.9834C73.9424 10.0003 73.9445 10.0194 73.9487 10.0405C73.953 10.1167 73.972 10.1865 74.0059 10.25C74.0651 10.36 74.137 10.4256 74.2217 10.4468H75.0469V10.8403H73.2441V10.4468H73.5425ZM81.2358 11.4307V18.6035H79.8711V11.4307H81.2358Z" fill="#19181B"/>
<path d="M98.8266 40.2761C100.314 40.6746 101.675 39.3138 101.276 37.8266L99.1757 29.9881C98.7029 28.2235 96.3064 27.9644 95.4673 29.5872L94.2517 31.9381C94.0687 32.292 93.7842 32.5832 93.4346 32.7743L90.3799 34.4445C88.7967 35.3101 89.0788 37.6642 90.8217 38.1312L98.8266 40.2761Z" fill="#EECBF1"/>
</svg>
