<svg width="48" height="48" viewBox="0 0 48 48" fill="none" xmlns="http://www.w3.org/2000/svg">
<rect x="0.5" y="0.5" width="47" height="47" rx="23.5" stroke="#00C2E0" stroke-opacity="0.1"/>
<path fill-rule="evenodd" clip-rule="evenodd" d="M25.8515 24.8614L25.6987 24.947C24.9967 25.3392 24.7486 25.5407 24.754 25.8852C24.7595 26.3337 24.4009 26.702 23.9524 26.7085H23.9415C23.4974 26.7085 23.1345 26.3521 23.129 25.9068C23.1106 24.5332 24.234 23.9048 24.9046 23.53L25.0574 23.4433C25.6738 23.1042 25.9815 22.6341 25.9815 22.0426C25.9815 21.0643 25.1852 20.2692 24.207 20.2692C23.2114 20.2692 22.4314 21.0481 22.4314 22.0426C22.4314 22.4911 22.0674 22.8551 21.6189 22.8551C21.1704 22.8551 20.8064 22.4911 20.8064 22.0426C20.8064 20.1684 22.3317 18.6442 24.207 18.6442C26.0811 18.6442 27.6065 20.1684 27.6065 22.0426C27.6065 23.2375 26.9825 24.2385 25.8515 24.8614ZM23.9426 29.3735C23.4941 29.3735 23.1301 29.0257 23.1301 28.5772V28.5447C23.1301 28.0962 23.4941 27.7322 23.9426 27.7322C24.3911 27.7322 24.7551 28.0962 24.7551 28.5447C24.7551 28.9932 24.3911 29.3735 23.9426 29.3735ZM24 13.7085C18.3245 13.7085 13.7084 18.3257 13.7084 24.0002C13.7084 29.6747 18.3245 34.2918 24 34.2918C29.6745 34.2918 34.2917 29.6747 34.2917 24.0002C34.2917 18.3257 29.6745 13.7085 24 13.7085Z" fill="#00C2E0"/>
</svg>
