<svg width="353" height="174" viewBox="0 0 353 174" fill="none" xmlns="http://www.w3.org/2000/svg">
<rect x="83" y="71" width="102" height="32" rx="10" fill="#C2F7FF"/>
<path d="M100.999 90.0225C100.139 90.0225 99.4688 89.7728 98.9863 89.2734L98.9292 89.2227C98.7176 89.4554 98.4087 89.6501 98.0024 89.8066C97.6512 89.9463 97.2809 90.0161 96.8916 90.0161C96.8197 90.0161 96.7498 90.014 96.6821 90.0098C96.2124 89.9801 95.7808 89.849 95.3872 89.6162C94.4351 89.0703 93.959 88.1647 93.959 86.8994C93.959 85.9473 94.2214 85.1898 94.7461 84.627C95.3258 84.0176 96.1235 83.7108 97.1392 83.7065H97.1582C97.7337 83.7065 98.25 83.8081 98.707 84.0112C99.3714 84.299 99.7036 84.7158 99.7036 85.2617V87.5596C99.7036 88.0124 99.8221 88.3615 100.059 88.6069C100.271 88.8228 100.584 88.9307 100.999 88.9307V90.0225ZM98.3389 85.2617C98.3389 85.1432 98.2415 85.0417 98.0469 84.957C97.793 84.847 97.4967 84.792 97.1582 84.792H97.1392C96.5848 84.792 96.1532 84.957 95.8442 85.2871C95.4972 85.651 95.3237 86.1885 95.3237 86.8994C95.3237 87.7923 95.6136 88.408 96.1934 88.7466C96.3838 88.8524 96.5848 88.9116 96.7964 88.9243C96.8302 88.9285 96.8641 88.9307 96.8979 88.9307C97.0715 88.9307 97.2407 88.8968 97.4058 88.8291C97.939 88.6217 98.25 88.1965 98.3389 87.5532V85.2617ZM97.0884 82.1577C97.0884 82.0604 97.1074 81.9694 97.1455 81.8848C97.1836 81.8001 97.2344 81.7261 97.2979 81.6626C97.3613 81.5991 97.4354 81.5505 97.52 81.5166C97.6047 81.4785 97.6956 81.4595 97.793 81.4595C97.8861 81.4595 97.9728 81.4785 98.0532 81.5166C98.1379 81.5505 98.2098 81.5991 98.269 81.6626C98.3325 81.7261 98.3812 81.8001 98.415 81.8848C98.4531 81.9694 98.4722 82.0604 98.4722 82.1577C98.4722 82.255 98.4531 82.346 98.415 82.4307C98.3812 82.5111 98.3325 82.583 98.269 82.6465C98.2098 82.7057 98.1379 82.7544 98.0532 82.7925C97.9728 82.8263 97.8861 82.8433 97.793 82.8433C97.6956 82.8433 97.6047 82.8263 97.52 82.7925C97.4354 82.7544 97.3613 82.7057 97.2979 82.6465C97.2344 82.583 97.1836 82.5111 97.1455 82.4307C97.1074 82.346 97.0884 82.255 97.0884 82.1577ZM95.4316 82.1577C95.4316 82.0604 95.4507 81.9694 95.4888 81.8848C95.5269 81.8001 95.5776 81.7261 95.6411 81.6626C95.7046 81.5991 95.7765 81.5505 95.8569 81.5166C95.9416 81.4785 96.0304 81.4595 96.1235 81.4595C96.2166 81.4595 96.3055 81.4785 96.3901 81.5166C96.4748 81.5505 96.5488 81.5991 96.6123 81.6626C96.6758 81.7261 96.7244 81.8001 96.7583 81.8848C96.7964 81.9694 96.8154 82.0604 96.8154 82.1577C96.8154 82.255 96.7964 82.346 96.7583 82.4307C96.7244 82.5111 96.6758 82.583 96.6123 82.6465C96.5488 82.7057 96.4748 82.7544 96.3901 82.7925C96.3055 82.8263 96.2166 82.8433 96.1235 82.8433C96.0304 82.8433 95.9416 82.8263 95.8569 82.7925C95.7765 82.7544 95.7046 82.7057 95.6411 82.6465C95.5776 82.583 95.5269 82.5111 95.4888 82.4307C95.4507 82.346 95.4316 82.255 95.4316 82.1577ZM102.3 87.9087V82.4307H103.665V87.9087C103.665 88.2176 103.768 88.4736 103.976 88.6768C104.145 88.846 104.335 88.9307 104.547 88.9307H105.67V90.0225H104.547C103.899 90.0225 103.373 89.8299 102.966 89.4448C102.581 89.8299 102.065 90.0225 101.417 90.0225H100.3V88.9307H101.417C101.629 88.9307 101.819 88.846 101.989 88.6768C102.196 88.4736 102.3 88.2176 102.3 87.9087ZM111.409 86.8994C111.409 86.18 111.235 85.6405 110.888 85.2808C110.583 84.9549 110.15 84.792 109.587 84.792C109.033 84.792 108.603 84.9549 108.298 85.2808C107.947 85.6489 107.771 86.1885 107.771 86.8994C107.771 87.5469 107.949 88.0526 108.305 88.4165C108.635 88.7593 109.06 88.9307 109.581 88.9307C110.118 88.9307 110.55 88.7635 110.875 88.4292C111.231 88.0653 111.409 87.5553 111.409 86.8994ZM106.407 86.8994C106.407 85.943 106.669 85.1855 107.194 84.627C107.778 84.0091 108.576 83.7002 109.587 83.7002C110.607 83.7002 111.407 84.007 111.986 84.6206C112.511 85.1792 112.773 85.9388 112.773 86.8994C112.773 87.8008 112.498 88.5329 111.948 89.0957C111.347 89.7135 110.558 90.0225 109.581 90.0225C108.607 90.0225 107.837 89.7241 107.27 89.1274C107.257 89.1401 107.209 89.1909 107.124 89.2798C106.642 89.7749 105.967 90.0225 105.099 90.0225V88.9307C105.527 88.9307 105.844 88.8249 106.051 88.6133C106.288 88.3678 106.407 88.0166 106.407 87.5596V86.8994ZM115.281 82.4307V87.9087C115.281 88.2176 115.384 88.4736 115.592 88.6768C115.761 88.846 115.951 88.9307 116.163 88.9307H117.661V90.0225H116.163C115.516 90.0225 114.97 89.8003 114.525 89.356C114.119 88.9497 113.916 88.4673 113.916 87.9087V82.4307H115.281ZM117.096 90.0225V88.9307H125.818V87.7881C125.818 87.4072 125.678 87.1195 125.399 86.9248C125.086 86.709 124.62 86.6011 124.002 86.6011H118.207L118.201 86.0615V85.4458C118.235 84.3244 118.863 83.5267 120.086 83.0527C120.767 82.7861 121.891 82.5851 123.457 82.4497C123.99 82.4032 124.392 82.3566 124.663 82.3101L124.967 83.3701C124.646 83.4251 124.193 83.478 123.609 83.5288C122.361 83.6431 121.47 83.7912 120.937 83.9731C120.044 84.2821 119.587 84.7772 119.565 85.4585V85.5093H124.002C124.955 85.5093 125.718 85.7103 126.294 86.1123C126.886 86.5228 127.183 87.0814 127.183 87.7881L127.176 88.9307H128.192V90.0225H117.096ZM130.115 83.2749C130.115 83.1776 130.134 83.0866 130.172 83.002C130.21 82.9173 130.261 82.8433 130.325 82.7798C130.388 82.7163 130.462 82.6676 130.547 82.6338C130.632 82.5957 130.722 82.5767 130.82 82.5767C130.913 82.5767 131 82.5957 131.08 82.6338C131.165 82.6676 131.237 82.7163 131.296 82.7798C131.359 82.8433 131.408 82.9173 131.442 83.002C131.48 83.0866 131.499 83.1776 131.499 83.2749C131.499 83.3722 131.48 83.4632 131.442 83.5479C131.408 83.6283 131.359 83.7002 131.296 83.7637C131.237 83.8229 131.165 83.8716 131.08 83.9097C131 83.9435 130.913 83.9604 130.82 83.9604C130.722 83.9604 130.632 83.9435 130.547 83.9097C130.462 83.8716 130.388 83.8229 130.325 83.7637C130.261 83.7002 130.21 83.6283 130.172 83.5479C130.134 83.4632 130.115 83.3722 130.115 83.2749ZM128.458 83.2749C128.458 83.1776 128.478 83.0866 128.516 83.002C128.554 82.9173 128.604 82.8433 128.668 82.7798C128.731 82.7163 128.803 82.6676 128.884 82.6338C128.968 82.5957 129.057 82.5767 129.15 82.5767C129.243 82.5767 129.332 82.5957 129.417 82.6338C129.502 82.6676 129.576 82.7163 129.639 82.7798C129.703 82.8433 129.751 82.9173 129.785 83.002C129.823 83.0866 129.842 83.1776 129.842 83.2749C129.842 83.3722 129.823 83.4632 129.785 83.5479C129.751 83.6283 129.703 83.7002 129.639 83.7637C129.576 83.8229 129.502 83.8716 129.417 83.9097C129.332 83.9435 129.243 83.9604 129.15 83.9604C129.057 83.9604 128.968 83.9435 128.884 83.9097C128.803 83.8716 128.731 83.8229 128.668 83.7637C128.604 83.7002 128.554 83.6283 128.516 83.5479C128.478 83.4632 128.458 83.3722 128.458 83.2749ZM127.621 90.0225V88.9307H128.147C128.49 88.9307 128.765 88.8249 128.973 88.6133C129.21 88.3678 129.328 88.0166 129.328 87.5596V84.8428H130.699V87.6929C130.72 88.0822 130.837 88.3869 131.048 88.6069C131.26 88.8228 131.529 88.9307 131.854 88.9307H132.407V90.0225H131.854C131.08 90.0225 130.466 89.7876 130.014 89.3179C129.557 89.7876 128.935 90.0225 128.147 90.0225H127.621ZM138.018 86.8994C138.018 86.18 137.845 85.6405 137.498 85.2808C137.193 84.9549 136.759 84.792 136.196 84.792C135.642 84.792 135.212 84.9549 134.908 85.2808C134.556 85.6489 134.381 86.1885 134.381 86.8994C134.381 87.5469 134.559 88.0526 134.914 88.4165C135.244 88.7593 135.669 88.9307 136.19 88.9307C136.727 88.9307 137.159 88.7635 137.485 88.4292C137.84 88.0653 138.018 87.5553 138.018 86.8994ZM133.016 86.8994C133.016 85.943 133.278 85.1855 133.803 84.627C134.387 84.0091 135.185 83.7002 136.196 83.7002C137.216 83.7002 138.016 84.007 138.596 84.6206C139.12 85.1792 139.383 85.9388 139.383 86.8994C139.383 87.8008 139.108 88.5329 138.558 89.0957C137.957 89.7135 137.167 90.0225 136.19 90.0225C135.217 90.0225 134.446 89.7241 133.879 89.1274C133.867 89.1401 133.818 89.1909 133.733 89.2798C133.251 89.7749 132.576 90.0225 131.708 90.0225V88.9307C132.136 88.9307 132.453 88.8249 132.661 88.6133C132.898 88.3678 133.016 88.0166 133.016 87.5596V86.8994ZM150.79 90.0225C149.931 90.0225 149.26 89.7728 148.777 89.2734L148.72 89.2227C148.509 89.4554 148.2 89.6501 147.793 89.8066C147.442 89.9463 147.072 90.0161 146.683 90.0161C146.611 90.0161 146.541 90.014 146.473 90.0098C146.003 89.9801 145.572 89.849 145.178 89.6162C144.226 89.0703 143.75 88.1647 143.75 86.8994C143.75 85.9473 144.012 85.1898 144.537 84.627C145.117 84.0176 145.915 83.7108 146.93 83.7065H146.949C147.525 83.7065 148.041 83.8081 148.498 84.0112C149.162 84.299 149.495 84.7158 149.495 85.2617V87.5596C149.495 88.0124 149.613 88.3615 149.85 88.6069C150.062 88.8228 150.375 88.9307 150.79 88.9307V90.0225ZM148.13 85.2617C148.13 85.1432 148.033 85.0417 147.838 84.957C147.584 84.847 147.288 84.792 146.949 84.792H146.93C146.376 84.792 145.944 84.957 145.635 85.2871C145.288 85.651 145.115 86.1885 145.115 86.8994C145.115 87.7923 145.405 88.408 145.984 88.7466C146.175 88.8524 146.376 88.9116 146.587 88.9243C146.621 88.9285 146.655 88.9307 146.689 88.9307C146.862 88.9307 147.032 88.8968 147.197 88.8291C147.73 88.6217 148.041 88.1965 148.13 87.5532V85.2617ZM146.879 82.1577C146.879 82.0604 146.898 81.9694 146.937 81.8848C146.975 81.8001 147.025 81.7261 147.089 81.6626C147.152 81.5991 147.226 81.5505 147.311 81.5166C147.396 81.4785 147.487 81.4595 147.584 81.4595C147.677 81.4595 147.764 81.4785 147.844 81.5166C147.929 81.5505 148.001 81.5991 148.06 81.6626C148.124 81.7261 148.172 81.8001 148.206 81.8848C148.244 81.9694 148.263 82.0604 148.263 82.1577C148.263 82.255 148.244 82.346 148.206 82.4307C148.172 82.5111 148.124 82.583 148.06 82.6465C148.001 82.7057 147.929 82.7544 147.844 82.7925C147.764 82.8263 147.677 82.8433 147.584 82.8433C147.487 82.8433 147.396 82.8263 147.311 82.7925C147.226 82.7544 147.152 82.7057 147.089 82.6465C147.025 82.583 146.975 82.5111 146.937 82.4307C146.898 82.346 146.879 82.255 146.879 82.1577ZM145.223 82.1577C145.223 82.0604 145.242 81.9694 145.28 81.8848C145.318 81.8001 145.369 81.7261 145.432 81.6626C145.496 81.5991 145.568 81.5505 145.648 81.5166C145.733 81.4785 145.821 81.4595 145.915 81.4595C146.008 81.4595 146.097 81.4785 146.181 81.5166C146.266 81.5505 146.34 81.5991 146.403 81.6626C146.467 81.7261 146.515 81.8001 146.549 81.8848C146.587 81.9694 146.606 82.0604 146.606 82.1577C146.606 82.255 146.587 82.346 146.549 82.4307C146.515 82.5111 146.467 82.583 146.403 82.6465C146.34 82.7057 146.266 82.7544 146.181 82.7925C146.097 82.8263 146.008 82.8433 145.915 82.8433C145.821 82.8433 145.733 82.8263 145.648 82.7925C145.568 82.7544 145.496 82.7057 145.432 82.6465C145.369 82.583 145.318 82.5111 145.28 82.4307C145.242 82.346 145.223 82.255 145.223 82.1577ZM152.51 91.6538C152.51 91.5565 152.529 91.4655 152.567 91.3809C152.605 91.2962 152.656 91.2222 152.719 91.1587C152.783 91.0952 152.857 91.0444 152.941 91.0063C153.026 90.9725 153.117 90.9556 153.214 90.9556C153.307 90.9556 153.394 90.9725 153.475 91.0063C153.559 91.0444 153.631 91.0952 153.69 91.1587C153.754 91.2222 153.803 91.2962 153.836 91.3809C153.875 91.4655 153.894 91.5565 153.894 91.6538C153.894 91.7511 153.875 91.84 153.836 91.9204C153.803 92.005 153.754 92.077 153.69 92.1362C153.631 92.1997 153.559 92.2484 153.475 92.2822C153.394 92.3203 153.307 92.3394 153.214 92.3394C153.117 92.3394 153.026 92.3203 152.941 92.2822C152.857 92.2484 152.783 92.1997 152.719 92.1362C152.656 92.077 152.605 92.005 152.567 91.9204C152.529 91.84 152.51 91.7511 152.51 91.6538ZM150.853 91.6538C150.853 91.5565 150.872 91.4655 150.91 91.3809C150.948 91.2962 150.999 91.2222 151.062 91.1587C151.126 91.0952 151.198 91.0444 151.278 91.0063C151.363 90.9725 151.452 90.9556 151.545 90.9556C151.638 90.9556 151.727 90.9725 151.812 91.0063C151.896 91.0444 151.97 91.0952 152.034 91.1587C152.097 91.2222 152.146 91.2962 152.18 91.3809C152.218 91.4655 152.237 91.5565 152.237 91.6538C152.237 91.7511 152.218 91.84 152.18 91.9204C152.146 92.005 152.097 92.077 152.034 92.1362C151.97 92.1997 151.896 92.2484 151.812 92.2822C151.727 92.3203 151.638 92.3394 151.545 92.3394C151.452 92.3394 151.363 92.3203 151.278 92.2822C151.198 92.2484 151.126 92.1997 151.062 92.1362C150.999 92.077 150.948 92.005 150.91 91.9204C150.872 91.84 150.853 91.7511 150.853 91.6538ZM150.091 90.0225V88.9307H150.618C150.961 88.9307 151.236 88.8249 151.443 88.6133C151.68 88.3678 151.799 88.0166 151.799 87.5596V84.8428H153.17V87.6929C153.191 88.0822 153.307 88.3869 153.519 88.6069C153.731 88.8228 153.999 88.9307 154.325 88.9307H154.877V90.0225H154.325C153.551 90.0225 152.937 89.7876 152.484 89.3179C152.027 89.7876 151.405 90.0225 150.618 90.0225H150.091ZM156.179 87.9087V82.4307H157.543V87.9087C157.543 88.2176 157.647 88.4736 157.854 88.6768C158.024 88.846 158.214 88.9307 158.426 88.9307H159.549V90.0225H158.426C157.778 90.0225 157.251 89.8299 156.845 89.4448C156.46 89.8299 155.944 90.0225 155.296 90.0225H154.179V88.9307H155.296C155.508 88.9307 155.698 88.846 155.868 88.6768C156.075 88.4736 156.179 88.2176 156.179 87.9087ZM165.288 86.8994C165.288 86.18 165.114 85.6405 164.767 85.2808C164.462 84.9549 164.029 84.792 163.466 84.792C162.911 84.792 162.482 84.9549 162.177 85.2808C161.826 85.6489 161.65 86.1885 161.65 86.8994C161.65 87.5469 161.828 88.0526 162.184 88.4165C162.514 88.7593 162.939 88.9307 163.459 88.9307C163.997 88.9307 164.429 88.7635 164.754 88.4292C165.11 88.0653 165.288 87.5553 165.288 86.8994ZM163.459 90.0225C162.486 90.0225 161.716 89.7241 161.149 89.1274C161.136 89.1401 161.088 89.1909 161.003 89.2798C160.521 89.7749 159.846 90.0225 158.978 90.0225V88.9307C159.405 88.9307 159.723 88.8249 159.93 88.6133C160.167 88.3678 160.286 88.0166 160.286 87.5596V86.8994C160.286 85.943 160.548 85.1855 161.073 84.627C161.657 84.0091 162.454 83.7002 163.466 83.7002C164.486 83.7002 165.285 84.007 165.865 84.6206C166.39 85.1792 166.652 85.9388 166.652 86.8994C166.652 87.8008 166.432 88.4779 165.992 88.9307H167.338V90.0225H163.459ZM168.112 88.9307C167.668 88.4694 167.446 87.7923 167.446 86.8994C167.446 85.943 167.708 85.1855 168.233 84.627C168.817 84.0091 169.615 83.7002 170.626 83.7002C171.091 83.7002 171.523 83.77 171.921 83.9097C172.319 84.0535 172.659 84.2651 172.943 84.5444C173.087 84.6799 173.214 84.8343 173.324 85.0078C173.434 85.1771 173.542 85.4056 173.647 85.6934L172.321 85.9663C172.249 85.7674 172.179 85.6151 172.111 85.5093C172.048 85.4077 171.972 85.3146 171.883 85.23C171.735 85.0861 171.557 84.9782 171.35 84.9062C171.142 84.8301 170.901 84.792 170.626 84.792C170.072 84.792 169.642 84.9549 169.337 85.2808C168.986 85.6489 168.811 86.1885 168.811 86.8994C168.811 87.5469 168.988 88.0526 169.344 88.4165C169.674 88.7593 170.099 88.9307 170.62 88.9307H173.914V90.0225H166.773V88.9307H168.112Z" fill="#19181B"/>
<path d="M76.2656 111.276C74.7785 111.675 73.4177 110.314 73.8161 108.827L75.9165 100.988C76.3893 99.2235 78.7858 98.9644 79.6249 100.587L80.8405 102.938C81.0235 103.292 81.308 103.583 81.6576 103.774L84.7123 105.445C86.2955 106.31 86.0133 108.664 84.2705 109.131L76.2656 111.276Z" fill="#C2F7FF"/>
</svg>
