<svg width="181" height="41" viewBox="0 0 181 41" fill="none" xmlns="http://www.w3.org/2000/svg">
<rect x="9" y="9" width="172" height="32" rx="10" fill="#A0F1FE"/>
<path d="M24.7251 22.519C24.7251 22.4217 24.7441 22.3307 24.7822 22.2461C24.8203 22.1615 24.8711 22.0874 24.9346 22.0239C24.998 21.9604 25.0721 21.9118 25.1567 21.8779C25.2414 21.8398 25.3324 21.8208 25.4297 21.8208C25.5228 21.8208 25.6095 21.8398 25.6899 21.8779C25.7746 21.9118 25.8465 21.9604 25.9058 22.0239C25.9692 22.0874 26.0179 22.1615 26.0518 22.2461C26.0898 22.3307 26.1089 22.4217 26.1089 22.519C26.1089 22.6164 26.0898 22.7074 26.0518 22.792C26.0179 22.8724 25.9692 22.9443 25.9058 23.0078C25.8465 23.0671 25.7746 23.1157 25.6899 23.1538C25.6095 23.1877 25.5228 23.2046 25.4297 23.2046C25.3324 23.2046 25.2414 23.1877 25.1567 23.1538C25.0721 23.1157 24.998 23.0671 24.9346 23.0078C24.8711 22.9443 24.8203 22.8724 24.7822 22.792C24.7441 22.7074 24.7251 22.6164 24.7251 22.519ZM23.0684 22.519C23.0684 22.4217 23.0874 22.3307 23.1255 22.2461C23.1636 22.1615 23.2144 22.0874 23.2778 22.0239C23.3413 21.9604 23.4132 21.9118 23.4937 21.8779C23.5783 21.8398 23.6672 21.8208 23.7603 21.8208C23.8534 21.8208 23.9422 21.8398 24.0269 21.8779C24.1115 21.9118 24.1855 21.9604 24.249 22.0239C24.3125 22.0874 24.3612 22.1615 24.395 22.2461C24.4331 22.3307 24.4521 22.4217 24.4521 22.519C24.4521 22.6164 24.4331 22.7074 24.395 22.792C24.3612 22.8724 24.3125 22.9443 24.249 23.0078C24.1855 23.0671 24.1115 23.1157 24.0269 23.1538C23.9422 23.1877 23.8534 23.2046 23.7603 23.2046C23.6672 23.2046 23.5783 23.1877 23.4937 23.1538C23.4132 23.1157 23.3413 23.0671 23.2778 23.0078C23.2144 22.9443 23.1636 22.8724 23.1255 22.792C23.0874 22.7074 23.0684 22.6164 23.0684 22.519ZM21.0562 23.7314C20.9631 23.9557 20.9017 24.1483 20.8721 24.3091C20.8424 24.4657 20.8276 24.6392 20.8276 24.8296C20.8276 25.5405 21.0011 26.078 21.3481 26.4419C21.6571 26.7677 22.0887 26.9307 22.6431 26.9307H26.166C26.7204 26.9307 27.152 26.7677 27.4609 26.4419C27.8079 26.078 27.9814 25.5405 27.9814 24.8296V22.8428H29.3462V24.8296C29.3462 25.7817 29.0838 26.5392 28.5591 27.1021C27.9793 27.7157 27.1816 28.0225 26.166 28.0225H22.8335C21.8179 28.0225 21.0202 27.7157 20.4404 27.1021C19.9157 26.5392 19.6533 25.7817 19.6533 24.8296C19.6533 24.5968 19.6724 24.3683 19.7104 24.144C19.7528 23.924 19.8289 23.6807 19.939 23.4141L21.0562 23.7314ZM31.7329 20.4307V27.6035H30.3682V20.4307H31.7329ZM32.1709 30.1299C32.5094 29.8167 32.7697 29.5522 32.9517 29.3364C33.1336 29.1164 33.2754 28.9132 33.377 28.7271C33.6436 28.2277 33.7769 27.6564 33.7769 27.0132V22.8428H35.1416V26.9814C35.1416 27.7855 34.9723 28.507 34.6338 29.146C34.4984 29.4041 34.3143 29.6707 34.0815 29.9458C33.87 30.1997 33.5949 30.4811 33.2563 30.79L32.1709 30.1299ZM37.6489 20.4307V25.9087C37.6489 26.2176 37.7526 26.4736 37.96 26.6768C38.1292 26.846 38.3197 26.9307 38.5312 26.9307H40.0293V28.0225H38.5312C37.8838 28.0225 37.3379 27.8003 36.8936 27.356C36.4873 26.9497 36.2842 26.4673 36.2842 25.9087V20.4307H37.6489ZM51.7026 26.9307V28.0225H51.1504C50.376 28.0225 49.7624 27.7876 49.3096 27.3179C48.8525 27.7876 48.2305 28.0225 47.4434 28.0225C46.6689 28.0225 46.0553 27.7876 45.6025 27.3179C45.1413 27.7876 44.5171 28.0225 43.73 28.0225C42.9556 28.0225 42.342 27.7876 41.8892 27.3179C41.4279 27.7876 40.8037 28.0225 40.0166 28.0225H39.4644V26.9307H40.0166C40.3594 26.9307 40.6366 26.8249 40.8481 26.6133C41.0851 26.3678 41.2036 26.0166 41.2036 25.5596V22.8428H42.5684V25.5596C42.5684 26.0124 42.6868 26.3615 42.9238 26.6069C43.1354 26.8228 43.4041 26.9307 43.73 26.9307C44.0728 26.9307 44.3478 26.8249 44.5552 26.6133C44.7964 26.3678 44.917 26.0166 44.917 25.5596V22.8428H46.2817V25.5596C46.2817 26.0124 46.4002 26.3615 46.6372 26.6069C46.8488 26.8228 47.1175 26.9307 47.4434 26.9307C47.7861 26.9307 48.0612 26.8249 48.2686 26.6133C48.5055 26.3678 48.624 26.0166 48.624 25.5596V22.8428H49.9951V25.6929C50.0163 26.0822 50.1326 26.3869 50.3442 26.6069C50.5558 26.8228 50.8245 26.9307 51.1504 26.9307H51.7026ZM45.9517 21.2305C45.9517 21.1331 45.9707 21.0422 46.0088 20.9575C46.0469 20.8729 46.0977 20.7988 46.1611 20.7354C46.2246 20.6719 46.2987 20.6232 46.3833 20.5894C46.4679 20.5513 46.5589 20.5322 46.6562 20.5322C46.7493 20.5322 46.8361 20.5513 46.9165 20.5894C47.0011 20.6232 47.0731 20.6719 47.1323 20.7354C47.1958 20.7988 47.2445 20.8729 47.2783 20.9575C47.3164 21.0422 47.3354 21.1331 47.3354 21.2305C47.3354 21.3278 47.3164 21.4188 47.2783 21.5034C47.2445 21.5838 47.1958 21.6558 47.1323 21.7192C47.0731 21.7785 47.0011 21.8271 46.9165 21.8652C46.8361 21.8991 46.7493 21.916 46.6562 21.916C46.5589 21.916 46.4679 21.8991 46.3833 21.8652C46.2987 21.8271 46.2246 21.7785 46.1611 21.7192C46.0977 21.6558 46.0469 21.5838 46.0088 21.5034C45.9707 21.4188 45.9517 21.3278 45.9517 21.2305ZM44.9106 19.5928C44.9106 19.4954 44.9297 19.4045 44.9678 19.3198C45.0059 19.2352 45.0566 19.1611 45.1201 19.0977C45.1836 19.0342 45.2555 18.9855 45.3359 18.9517C45.4206 18.9136 45.5094 18.8945 45.6025 18.8945C45.6956 18.8945 45.7845 18.9136 45.8691 18.9517C45.9538 18.9855 46.0278 19.0342 46.0913 19.0977C46.1548 19.1611 46.2035 19.2352 46.2373 19.3198C46.2754 19.4045 46.2944 19.4954 46.2944 19.5928C46.2944 19.6901 46.2754 19.7811 46.2373 19.8657C46.2035 19.9461 46.1548 20.0181 46.0913 20.0815C46.0278 20.1408 45.9538 20.1895 45.8691 20.2275C45.7845 20.2614 45.6956 20.2783 45.6025 20.2783C45.5094 20.2783 45.4206 20.2614 45.3359 20.2275C45.2555 20.1895 45.1836 20.1408 45.1201 20.0815C45.0566 20.0181 45.0059 19.9461 44.9678 19.8657C44.9297 19.7811 44.9106 19.6901 44.9106 19.5928ZM43.8633 21.2305C43.8633 21.1331 43.8823 21.0422 43.9204 20.9575C43.9585 20.8729 44.0093 20.7988 44.0728 20.7354C44.1362 20.6719 44.2082 20.6232 44.2886 20.5894C44.3732 20.5513 44.4621 20.5322 44.5552 20.5322C44.6483 20.5322 44.7371 20.5513 44.8218 20.5894C44.9064 20.6232 44.9805 20.6719 45.0439 20.7354C45.1074 20.7988 45.1561 20.8729 45.1899 20.9575C45.228 21.0422 45.2471 21.1331 45.2471 21.2305C45.2471 21.3278 45.228 21.4188 45.1899 21.5034C45.1561 21.5838 45.1074 21.6558 45.0439 21.7192C44.9805 21.7785 44.9064 21.8271 44.8218 21.8652C44.7371 21.8991 44.6483 21.916 44.5552 21.916C44.4621 21.916 44.3732 21.8991 44.2886 21.8652C44.2082 21.8271 44.1362 21.7785 44.0728 21.7192C44.0093 21.6558 43.9585 21.5838 43.9204 21.5034C43.8823 21.4188 43.8633 21.3278 43.8633 21.2305ZM53.499 21.2749C53.499 21.1776 53.5181 21.0866 53.5562 21.002C53.5942 20.9173 53.645 20.8433 53.7085 20.7798C53.772 20.7163 53.846 20.6676 53.9307 20.6338C54.0153 20.5957 54.1063 20.5767 54.2036 20.5767C54.2967 20.5767 54.3835 20.5957 54.4639 20.6338C54.5485 20.6676 54.6204 20.7163 54.6797 20.7798C54.7432 20.8433 54.7918 20.9173 54.8257 21.002C54.8638 21.0866 54.8828 21.1776 54.8828 21.2749C54.8828 21.3722 54.8638 21.4632 54.8257 21.5479C54.7918 21.6283 54.7432 21.7002 54.6797 21.7637C54.6204 21.8229 54.5485 21.8716 54.4639 21.9097C54.3835 21.9435 54.2967 21.9604 54.2036 21.9604C54.1063 21.9604 54.0153 21.9435 53.9307 21.9097C53.846 21.8716 53.772 21.8229 53.7085 21.7637C53.645 21.7002 53.5942 21.6283 53.5562 21.5479C53.5181 21.4632 53.499 21.3722 53.499 21.2749ZM51.8423 21.2749C51.8423 21.1776 51.8613 21.0866 51.8994 21.002C51.9375 20.9173 51.9883 20.8433 52.0518 20.7798C52.1152 20.7163 52.1872 20.6676 52.2676 20.6338C52.3522 20.5957 52.4411 20.5767 52.5342 20.5767C52.6273 20.5767 52.7161 20.5957 52.8008 20.6338C52.8854 20.6676 52.9595 20.7163 53.0229 20.7798C53.0864 20.8433 53.1351 20.9173 53.1689 21.002C53.207 21.0866 53.2261 21.1776 53.2261 21.2749C53.2261 21.3722 53.207 21.4632 53.1689 21.5479C53.1351 21.6283 53.0864 21.7002 53.0229 21.7637C52.9595 21.8229 52.8854 21.8716 52.8008 21.9097C52.7161 21.9435 52.6273 21.9604 52.5342 21.9604C52.4411 21.9604 52.3522 21.9435 52.2676 21.9097C52.1872 21.8716 52.1152 21.8229 52.0518 21.7637C51.9883 21.7002 51.9375 21.6283 51.8994 21.5479C51.8613 21.4632 51.8423 21.3722 51.8423 21.2749ZM51.0044 28.0225V26.9307H51.5312C51.874 26.9307 52.1491 26.8249 52.3564 26.6133C52.5934 26.3678 52.7119 26.0166 52.7119 25.5596V22.8428H54.083V25.6929C54.1042 26.0822 54.2205 26.3869 54.4321 26.6069C54.6437 26.8228 54.9124 26.9307 55.2383 26.9307H55.7905V28.0225H55.2383C54.4639 28.0225 53.8503 27.7876 53.3975 27.3179C52.9404 27.7876 52.3184 28.0225 51.5312 28.0225H51.0044ZM61.4844 25.5596C61.4844 26.0124 61.6029 26.3615 61.8398 26.6069C62.0514 26.8228 62.3201 26.9307 62.646 26.9307C62.9888 26.9307 63.2638 26.8249 63.4712 26.6133C63.7082 26.3678 63.8267 26.0166 63.8267 25.5596V22.8428H65.1978V25.5596C65.1978 26.262 64.9819 26.8354 64.5503 27.2798C64.0679 27.7749 63.4331 28.0225 62.646 28.0225C61.8716 28.0225 61.258 27.7876 60.8052 27.3179C60.3439 27.7876 59.7197 28.0225 58.9326 28.0225C58.1582 28.0225 57.5446 27.7876 57.0918 27.3179C56.6305 27.7876 55.964 28.0225 55.0923 28.0225V26.9307C55.5197 26.9307 55.8392 26.8249 56.0508 26.6133C56.2878 26.3678 56.4062 26.0166 56.4062 25.5596V22.8428H57.771V25.5596C57.771 26.0124 57.8895 26.3615 58.1265 26.6069C58.3381 26.8228 58.6068 26.9307 58.9326 26.9307C59.2754 26.9307 59.5505 26.8249 59.7578 26.6133C59.999 26.3678 60.1196 26.0166 60.1196 25.5596V22.8428H61.4844V25.5596ZM68.0605 26.9307H70.0347C70.2716 26.9307 70.4769 26.8333 70.6504 26.6387C70.8281 26.4355 70.917 26.1922 70.917 25.9087V20.4307H72.2817V25.9087C72.2817 26.4927 72.0617 26.992 71.6216 27.4067C71.1815 27.8172 70.6525 28.0225 70.0347 28.0225H65.9341V26.9307C66.2345 26.9307 66.4694 26.846 66.6387 26.6768C66.8418 26.4736 66.9434 26.2176 66.9434 25.9087V20.4307H68.3145V25.9087C68.3145 26.37 68.2298 26.7106 68.0605 26.9307ZM66.6387 29.7998C66.5667 29.6813 66.5244 29.5544 66.5117 29.4189V29.3555C66.5117 29.2666 66.5265 29.1799 66.5562 29.0952C66.6577 28.8117 66.8841 28.6699 67.2354 28.6699C67.4554 28.6699 67.6395 28.7271 67.7876 28.8413C67.9188 28.9471 68.0034 29.091 68.0415 29.2729L67.521 29.3364C67.4998 29.2349 67.4618 29.1608 67.4067 29.1143C67.3644 29.0846 67.3073 29.0698 67.2354 29.0698C67.1549 29.0698 67.0978 29.1121 67.064 29.1968C67.047 29.2391 67.0386 29.2856 67.0386 29.3364C67.0386 29.3534 67.0407 29.3724 67.0449 29.3936C67.0492 29.4697 67.0682 29.5396 67.1021 29.603C67.1613 29.7131 67.2332 29.7786 67.3179 29.7998H68.1431V30.1934H66.3403V29.7998H66.6387ZM74.6685 20.4307V27.6035H73.3037V20.4307H74.6685ZM84.1138 27.1084C83.8345 27.4173 83.4917 27.6501 83.0854 27.8066C82.7342 27.9463 82.3639 28.0161 81.9746 28.0161C81.9027 28.0161 81.8328 28.014 81.7651 28.0098C81.2954 27.9801 80.8638 27.849 80.4702 27.6162C79.5181 27.0703 79.042 26.1647 79.042 24.8994C79.042 23.9473 79.3044 23.1898 79.8291 22.627C80.4089 22.0176 81.2065 21.7108 82.2222 21.7065H82.2412C82.8167 21.7065 83.333 21.8081 83.79 22.0112C84.4544 22.299 84.7866 22.7158 84.7866 23.2617V25.5596C84.7866 26.0758 84.5623 26.5921 84.1138 27.1084ZM83.4219 23.2617C83.4219 23.1432 83.3245 23.0417 83.1299 22.957C82.876 22.847 82.5798 22.792 82.2412 22.792H82.2222C81.6678 22.792 81.2362 22.957 80.9272 23.2871C80.5802 23.651 80.4067 24.1885 80.4067 24.8994C80.4067 25.7923 80.6966 26.408 81.2764 26.7466C81.4668 26.8524 81.6678 26.9116 81.8794 26.9243C81.9132 26.9285 81.9471 26.9307 81.981 26.9307C82.1545 26.9307 82.3237 26.8968 82.4888 26.8291C83.022 26.6217 83.333 26.1965 83.4219 25.5532V23.2617ZM82.1396 20.5576C82.1396 20.4603 82.1587 20.3693 82.1968 20.2847C82.2349 20.2 82.2856 20.126 82.3491 20.0625C82.4126 19.999 82.4867 19.9504 82.5713 19.9165C82.6559 19.8784 82.7469 19.8594 82.8442 19.8594C82.9373 19.8594 83.0241 19.8784 83.1045 19.9165C83.1891 19.9504 83.2611 19.999 83.3203 20.0625C83.3838 20.126 83.4325 20.2 83.4663 20.2847C83.5044 20.3693 83.5234 20.4603 83.5234 20.5576C83.5234 20.6549 83.5044 20.7459 83.4663 20.8306C83.4325 20.911 83.3838 20.9829 83.3203 21.0464C83.2611 21.1056 83.1891 21.1543 83.1045 21.1924C83.0241 21.2262 82.9373 21.2432 82.8442 21.2432C82.7469 21.2432 82.6559 21.2262 82.5713 21.1924C82.4867 21.1543 82.4126 21.1056 82.3491 21.0464C82.2856 20.9829 82.2349 20.911 82.1968 20.8306C82.1587 20.7459 82.1396 20.6549 82.1396 20.5576ZM80.4829 20.5576C80.4829 20.4603 80.502 20.3693 80.54 20.2847C80.5781 20.2 80.6289 20.126 80.6924 20.0625C80.7559 19.999 80.8278 19.9504 80.9082 19.9165C80.9928 19.8784 81.0817 19.8594 81.1748 19.8594C81.2679 19.8594 81.3568 19.8784 81.4414 19.9165C81.526 19.9504 81.6001 19.999 81.6636 20.0625C81.7271 20.126 81.7757 20.2 81.8096 20.2847C81.8477 20.3693 81.8667 20.4603 81.8667 20.5576C81.8667 20.6549 81.8477 20.7459 81.8096 20.8306C81.7757 20.911 81.7271 20.9829 81.6636 21.0464C81.6001 21.1056 81.526 21.1543 81.4414 21.1924C81.3568 21.2262 81.2679 21.2432 81.1748 21.2432C81.0817 21.2432 80.9928 21.2262 80.9082 21.1924C80.8278 21.1543 80.7559 21.1056 80.6924 21.0464C80.6289 20.9829 80.5781 20.911 80.54 20.8306C80.502 20.7459 80.4829 20.6549 80.4829 20.5576ZM85.0977 30.1299C85.4362 29.8167 85.6965 29.5522 85.8784 29.3364C86.0604 29.1164 86.2021 28.9132 86.3037 28.7271C86.5703 28.2277 86.7036 27.6564 86.7036 27.0132V22.8428H88.0684V26.9814C88.0684 27.7855 87.8991 28.507 87.5605 29.146C87.4251 29.4041 87.241 29.6707 87.0083 29.9458C86.7967 30.1997 86.5216 30.4811 86.1831 30.79L85.0977 30.1299ZM90.5757 20.4307V27.6035H89.2109V20.4307H90.5757ZM92.5435 21.7002C93.9357 21.7002 94.8963 22.2038 95.4253 23.2109C95.73 23.7949 95.9627 24.8232 96.1235 26.2959C96.1828 26.8079 96.2314 27.1761 96.2695 27.4004C96.2738 27.4258 96.2759 27.4512 96.2759 27.4766C96.2759 27.612 96.2209 27.7305 96.1108 27.832C95.9966 27.9378 95.8485 27.9992 95.6665 28.0161C95.6242 28.0203 95.584 28.0225 95.5459 28.0225H92.8037C92.3848 28.0225 92.0039 27.9484 91.6611 27.8003L91.2168 27.6099L91.7373 26.4229C91.9658 26.6387 92.1584 26.7804 92.3149 26.8481C92.4504 26.9032 92.6133 26.9307 92.8037 26.9307L94.8286 26.937C94.8201 26.8778 94.799 26.6958 94.7651 26.3911C94.6297 25.1978 94.4647 24.3704 94.27 23.9092C93.9526 23.1644 93.3771 22.792 92.5435 22.792V21.7002ZM99.1514 26.9307H101.125C101.362 26.9307 101.568 26.8333 101.741 26.6387C101.919 26.4355 102.008 26.1922 102.008 25.9087V20.4307H103.373V25.9087C103.373 26.4927 103.153 26.992 102.712 27.4067C102.272 27.8172 101.743 28.0225 101.125 28.0225H97.0249V26.9307C97.3254 26.9307 97.5602 26.846 97.7295 26.6768C97.9326 26.4736 98.0342 26.2176 98.0342 25.9087V20.4307H99.4053V25.9087C99.4053 26.37 99.3206 26.7106 99.1514 26.9307ZM97.7295 29.7998C97.6576 29.6813 97.6152 29.5544 97.6025 29.4189V29.3555C97.6025 29.2666 97.6174 29.1799 97.647 29.0952C97.7485 28.8117 97.9749 28.6699 98.3262 28.6699C98.5462 28.6699 98.7303 28.7271 98.8784 28.8413C99.0096 28.9471 99.0942 29.091 99.1323 29.2729L98.6118 29.3364C98.5907 29.2349 98.5526 29.1608 98.4976 29.1143C98.4552 29.0846 98.3981 29.0698 98.3262 29.0698C98.2458 29.0698 98.1886 29.1121 98.1548 29.1968C98.1379 29.2391 98.1294 29.2856 98.1294 29.3364C98.1294 29.3534 98.1315 29.3724 98.1357 29.3936C98.14 29.4697 98.159 29.5396 98.1929 29.603C98.2521 29.7131 98.3241 29.7786 98.4087 29.7998H99.2339V30.1934H97.4312V29.7998H97.7295ZM114.659 28.0225C113.8 28.0225 113.129 27.7728 112.646 27.2734L112.589 27.2227C112.378 27.4554 112.069 27.6501 111.663 27.8066C111.311 27.9463 110.941 28.0161 110.552 28.0161C110.48 28.0161 110.41 28.014 110.342 28.0098C109.873 27.9801 109.441 27.849 109.047 27.6162C108.095 27.0703 107.619 26.1647 107.619 24.8994C107.619 23.9473 107.882 23.1898 108.406 22.627C108.986 22.0176 109.784 21.7108 110.799 21.7065H110.818C111.394 21.7065 111.91 21.8081 112.367 22.0112C113.032 22.299 113.364 22.7158 113.364 23.2617V25.5596C113.364 26.0124 113.482 26.3615 113.719 26.6069C113.931 26.8228 114.244 26.9307 114.659 26.9307V28.0225ZM111.999 23.2617C111.999 23.1432 111.902 23.0417 111.707 22.957C111.453 22.847 111.157 22.792 110.818 22.792H110.799C110.245 22.792 109.813 22.957 109.504 23.2871C109.157 23.651 108.984 24.1885 108.984 24.8994C108.984 25.7923 109.274 26.408 109.854 26.7466C110.044 26.8524 110.245 26.9116 110.457 26.9243C110.49 26.9285 110.524 26.9307 110.558 26.9307C110.732 26.9307 110.901 26.8968 111.066 26.8291C111.599 26.6217 111.91 26.1965 111.999 25.5532V23.2617ZM110.749 20.1577C110.749 20.0604 110.768 19.9694 110.806 19.8848C110.844 19.8001 110.895 19.7261 110.958 19.6626C111.021 19.5991 111.096 19.5505 111.18 19.5166C111.265 19.4785 111.356 19.4595 111.453 19.4595C111.546 19.4595 111.633 19.4785 111.713 19.5166C111.798 19.5505 111.87 19.5991 111.929 19.6626C111.993 19.7261 112.041 19.8001 112.075 19.8848C112.113 19.9694 112.132 20.0604 112.132 20.1577C112.132 20.255 112.113 20.346 112.075 20.4307C112.041 20.5111 111.993 20.583 111.929 20.6465C111.87 20.7057 111.798 20.7544 111.713 20.7925C111.633 20.8263 111.546 20.8433 111.453 20.8433C111.356 20.8433 111.265 20.8263 111.18 20.7925C111.096 20.7544 111.021 20.7057 110.958 20.6465C110.895 20.583 110.844 20.5111 110.806 20.4307C110.768 20.346 110.749 20.255 110.749 20.1577ZM109.092 20.1577C109.092 20.0604 109.111 19.9694 109.149 19.8848C109.187 19.8001 109.238 19.7261 109.301 19.6626C109.365 19.5991 109.437 19.5505 109.517 19.5166C109.602 19.4785 109.691 19.4595 109.784 19.4595C109.877 19.4595 109.966 19.4785 110.05 19.5166C110.135 19.5505 110.209 19.5991 110.272 19.6626C110.336 19.7261 110.385 19.8001 110.418 19.8848C110.457 19.9694 110.476 20.0604 110.476 20.1577C110.476 20.255 110.457 20.346 110.418 20.4307C110.385 20.5111 110.336 20.583 110.272 20.6465C110.209 20.7057 110.135 20.7544 110.05 20.7925C109.966 20.8263 109.877 20.8433 109.784 20.8433C109.691 20.8433 109.602 20.8263 109.517 20.7925C109.437 20.7544 109.365 20.7057 109.301 20.6465C109.238 20.583 109.187 20.5111 109.149 20.4307C109.111 20.346 109.092 20.255 109.092 20.1577ZM116.379 29.6538C116.379 29.5565 116.398 29.4655 116.436 29.3809C116.474 29.2962 116.525 29.2222 116.588 29.1587C116.652 29.0952 116.726 29.0444 116.811 29.0063C116.895 28.9725 116.986 28.9556 117.083 28.9556C117.177 28.9556 117.263 28.9725 117.344 29.0063C117.428 29.0444 117.5 29.0952 117.56 29.1587C117.623 29.2222 117.672 29.2962 117.706 29.3809C117.744 29.4655 117.763 29.5565 117.763 29.6538C117.763 29.7511 117.744 29.84 117.706 29.9204C117.672 30.005 117.623 30.077 117.56 30.1362C117.5 30.1997 117.428 30.2484 117.344 30.2822C117.263 30.3203 117.177 30.3394 117.083 30.3394C116.986 30.3394 116.895 30.3203 116.811 30.2822C116.726 30.2484 116.652 30.1997 116.588 30.1362C116.525 30.077 116.474 30.005 116.436 29.9204C116.398 29.84 116.379 29.7511 116.379 29.6538ZM114.722 29.6538C114.722 29.5565 114.741 29.4655 114.779 29.3809C114.817 29.2962 114.868 29.2222 114.932 29.1587C114.995 29.0952 115.067 29.0444 115.147 29.0063C115.232 28.9725 115.321 28.9556 115.414 28.9556C115.507 28.9556 115.596 28.9725 115.681 29.0063C115.765 29.0444 115.839 29.0952 115.903 29.1587C115.966 29.2222 116.015 29.2962 116.049 29.3809C116.087 29.4655 116.106 29.5565 116.106 29.6538C116.106 29.7511 116.087 29.84 116.049 29.9204C116.015 30.005 115.966 30.077 115.903 30.1362C115.839 30.1997 115.765 30.2484 115.681 30.2822C115.596 30.3203 115.507 30.3394 115.414 30.3394C115.321 30.3394 115.232 30.3203 115.147 30.2822C115.067 30.2484 114.995 30.1997 114.932 30.1362C114.868 30.077 114.817 30.005 114.779 29.9204C114.741 29.84 114.722 29.7511 114.722 29.6538ZM113.96 28.0225V26.9307H114.487C114.83 26.9307 115.105 26.8249 115.312 26.6133C115.549 26.3678 115.668 26.0166 115.668 25.5596V22.8428H117.039V25.6929C117.06 26.0822 117.177 26.3869 117.388 26.6069C117.6 26.8228 117.868 26.9307 118.194 26.9307H118.747V28.0225H118.194C117.42 28.0225 116.806 27.7876 116.354 27.3179C115.896 27.7876 115.274 28.0225 114.487 28.0225H113.96ZM124.358 24.8994C124.358 24.18 124.184 23.6405 123.837 23.2808C123.533 22.9549 123.099 22.792 122.536 22.792C121.982 22.792 121.552 22.9549 121.248 23.2808C120.896 23.6489 120.721 24.1885 120.721 24.8994C120.721 25.5469 120.898 26.0526 121.254 26.4165C121.584 26.7593 122.009 26.9307 122.53 26.9307C123.067 26.9307 123.499 26.7635 123.825 26.4292C124.18 26.0653 124.358 25.5553 124.358 24.8994ZM122.53 28.0225C121.556 28.0225 120.786 27.7241 120.219 27.1274C120.207 27.1401 120.158 27.1909 120.073 27.2798C119.591 27.7749 118.916 28.0225 118.048 28.0225V26.9307C118.476 26.9307 118.793 26.8249 119 26.6133C119.237 26.3678 119.356 26.0166 119.356 25.5596V24.8994C119.356 23.943 119.618 23.1855 120.143 22.627C120.727 22.0091 121.525 21.7002 122.536 21.7002C123.556 21.7002 124.356 22.007 124.936 22.6206C125.46 23.1792 125.723 23.9388 125.723 24.8994C125.723 25.8008 125.503 26.4779 125.062 26.9307H126.408V28.0225H122.53ZM129.83 20.583C129.83 20.4857 129.849 20.3947 129.887 20.3101C129.925 20.2254 129.976 20.1514 130.039 20.0879C130.103 20.0244 130.177 19.9757 130.261 19.9419C130.346 19.9038 130.437 19.8848 130.534 19.8848C130.627 19.8848 130.714 19.9038 130.794 19.9419C130.879 19.9757 130.951 20.0244 131.01 20.0879C131.074 20.1514 131.122 20.2254 131.156 20.3101C131.194 20.3947 131.213 20.4857 131.213 20.583C131.213 20.6803 131.194 20.7713 131.156 20.856C131.122 20.9364 131.074 21.0083 131.01 21.0718C130.951 21.131 130.879 21.1797 130.794 21.2178C130.714 21.2516 130.627 21.2686 130.534 21.2686C130.437 21.2686 130.346 21.2516 130.261 21.2178C130.177 21.1797 130.103 21.131 130.039 21.0718C129.976 21.0083 129.925 20.9364 129.887 20.856C129.849 20.7713 129.83 20.6803 129.83 20.583ZM128.173 20.583C128.173 20.4857 128.192 20.3947 128.23 20.3101C128.268 20.2254 128.319 20.1514 128.382 20.0879C128.446 20.0244 128.518 19.9757 128.598 19.9419C128.683 19.9038 128.772 19.8848 128.865 19.8848C128.958 19.8848 129.047 19.9038 129.131 19.9419C129.216 19.9757 129.29 20.0244 129.354 20.0879C129.417 20.1514 129.466 20.2254 129.5 20.3101C129.538 20.3947 129.557 20.4857 129.557 20.583C129.557 20.6803 129.538 20.7713 129.5 20.856C129.466 20.9364 129.417 21.0083 129.354 21.0718C129.29 21.131 129.216 21.1797 129.131 21.2178C129.047 21.2516 128.958 21.2686 128.865 21.2686C128.772 21.2686 128.683 21.2516 128.598 21.2178C128.518 21.1797 128.446 21.131 128.382 21.0718C128.319 21.0083 128.268 20.9364 128.23 20.856C128.192 20.7713 128.173 20.6803 128.173 20.583ZM131.728 24.8994C131.728 24.18 131.554 23.6405 131.207 23.2808C130.902 22.9549 130.469 22.792 129.906 22.792C129.351 22.792 128.922 22.9549 128.617 23.2808C128.266 23.6489 128.09 24.1885 128.09 24.8994C128.09 25.5469 128.268 26.0526 128.624 26.4165C128.954 26.7593 129.379 26.9307 129.899 26.9307C130.437 26.9307 130.868 26.7635 131.194 26.4292C131.55 26.0653 131.728 25.5553 131.728 24.8994ZM127.392 26.9307C126.948 26.4694 126.726 25.7923 126.726 24.8994C126.726 23.943 126.988 23.1855 127.513 22.627C128.097 22.0091 128.894 21.7002 129.906 21.7002C130.926 21.7002 131.725 22.007 132.305 22.6206C132.83 23.1792 133.092 23.9388 133.092 24.8994C133.092 25.8008 132.817 26.5329 132.267 27.0957C131.666 27.7135 130.877 28.0225 129.899 28.0225H125.843V26.9307H127.392ZM133.403 30.1299C133.742 29.8167 134.002 29.5522 134.184 29.3364C134.366 29.1164 134.508 28.9132 134.609 28.7271C134.876 28.2277 135.009 27.6564 135.009 27.0132V22.8428H136.374V26.9814C136.374 27.7855 136.205 28.507 135.866 29.146C135.731 29.4041 135.547 29.6707 135.314 29.9458C135.102 30.1997 134.827 30.4811 134.489 30.79L133.403 30.1299ZM147.781 28.0225C146.922 28.0225 146.251 27.7728 145.769 27.2734L145.711 27.2227C145.5 27.4554 145.191 27.6501 144.785 27.8066C144.433 27.9463 144.063 28.0161 143.674 28.0161C143.602 28.0161 143.532 28.014 143.464 28.0098C142.995 27.9801 142.563 27.849 142.169 27.6162C141.217 27.0703 140.741 26.1647 140.741 24.8994C140.741 23.9473 141.004 23.1898 141.528 22.627C142.108 22.0176 142.906 21.7108 143.921 21.7065H143.94C144.516 21.7065 145.032 21.8081 145.489 22.0112C146.154 22.299 146.486 22.7158 146.486 23.2617V25.5596C146.486 26.0124 146.604 26.3615 146.841 26.6069C147.053 26.8228 147.366 26.9307 147.781 26.9307V28.0225ZM145.121 23.2617C145.121 23.1432 145.024 23.0417 144.829 22.957C144.575 22.847 144.279 22.792 143.94 22.792H143.921C143.367 22.792 142.935 22.957 142.626 23.2871C142.279 23.651 142.106 24.1885 142.106 24.8994C142.106 25.7923 142.396 26.408 142.976 26.7466C143.166 26.8524 143.367 26.9116 143.579 26.9243C143.612 26.9285 143.646 26.9307 143.68 26.9307C143.854 26.9307 144.023 26.8968 144.188 26.8291C144.721 26.6217 145.032 26.1965 145.121 25.5532V23.2617ZM143.871 20.1577C143.871 20.0604 143.89 19.9694 143.928 19.8848C143.966 19.8001 144.017 19.7261 144.08 19.6626C144.144 19.5991 144.218 19.5505 144.302 19.5166C144.387 19.4785 144.478 19.4595 144.575 19.4595C144.668 19.4595 144.755 19.4785 144.835 19.5166C144.92 19.5505 144.992 19.5991 145.051 19.6626C145.115 19.7261 145.163 19.8001 145.197 19.8848C145.235 19.9694 145.254 20.0604 145.254 20.1577C145.254 20.255 145.235 20.346 145.197 20.4307C145.163 20.5111 145.115 20.583 145.051 20.6465C144.992 20.7057 144.92 20.7544 144.835 20.7925C144.755 20.8263 144.668 20.8433 144.575 20.8433C144.478 20.8433 144.387 20.8263 144.302 20.7925C144.218 20.7544 144.144 20.7057 144.08 20.6465C144.017 20.583 143.966 20.5111 143.928 20.4307C143.89 20.346 143.871 20.255 143.871 20.1577ZM142.214 20.1577C142.214 20.0604 142.233 19.9694 142.271 19.8848C142.309 19.8001 142.36 19.7261 142.423 19.6626C142.487 19.5991 142.559 19.5505 142.639 19.5166C142.724 19.4785 142.813 19.4595 142.906 19.4595C142.999 19.4595 143.088 19.4785 143.172 19.5166C143.257 19.5505 143.331 19.5991 143.395 19.6626C143.458 19.7261 143.507 19.8001 143.541 19.8848C143.579 19.9694 143.598 20.0604 143.598 20.1577C143.598 20.255 143.579 20.346 143.541 20.4307C143.507 20.5111 143.458 20.583 143.395 20.6465C143.331 20.7057 143.257 20.7544 143.172 20.7925C143.088 20.8263 142.999 20.8433 142.906 20.8433C142.813 20.8433 142.724 20.8263 142.639 20.7925C142.559 20.7544 142.487 20.7057 142.423 20.6465C142.36 20.583 142.309 20.5111 142.271 20.4307C142.233 20.346 142.214 20.255 142.214 20.1577ZM155.182 26.9307C155.698 26.9307 156.122 26.7593 156.452 26.4165C156.807 26.0526 156.985 25.5469 156.985 24.8994C156.985 24.1885 156.811 23.6489 156.464 23.2808C156.155 22.9549 155.724 22.792 155.169 22.792H151.646C151.092 22.792 150.66 22.9549 150.352 23.2808C150.005 23.6489 149.831 24.1885 149.831 24.8994V26.9307H155.182ZM147.083 28.0225V26.9307H148.447V24.6138C148.43 23.5812 148.303 22.8893 148.066 22.5381L149.184 21.8652C149.344 22.1318 149.446 22.3688 149.488 22.5762C149.878 22.0007 150.597 21.7087 151.646 21.7002H155.169C156.185 21.7002 156.983 22.0091 157.562 22.627C158.087 23.1855 158.35 23.943 158.35 24.8994C158.35 25.7923 158.077 26.5202 157.531 27.083L157.524 27.0894L157.683 26.9307H159.029V28.0225H147.083ZM160.083 21.3828C160.083 21.2855 160.102 21.1945 160.14 21.1099C160.178 21.0252 160.229 20.9512 160.292 20.8877C160.355 20.8242 160.427 20.7756 160.508 20.7417C160.592 20.7036 160.681 20.6846 160.774 20.6846C160.868 20.6846 160.956 20.7036 161.041 20.7417C161.126 20.7756 161.2 20.8242 161.263 20.8877C161.327 20.9512 161.375 21.0252 161.409 21.1099C161.447 21.1945 161.466 21.2855 161.466 21.3828C161.466 21.4801 161.447 21.5711 161.409 21.6558C161.375 21.7362 161.327 21.8081 161.263 21.8716C161.2 21.9308 161.126 21.9795 161.041 22.0176C160.956 22.0514 160.868 22.0684 160.774 22.0684C160.681 22.0684 160.592 22.0514 160.508 22.0176C160.427 21.9795 160.355 21.9308 160.292 21.8716C160.229 21.8081 160.178 21.7362 160.14 21.6558C160.102 21.5711 160.083 21.4801 160.083 21.3828ZM158.458 28.0225V26.9307H158.984C159.327 26.9307 159.602 26.8249 159.81 26.6133C160.047 26.3678 160.165 26.0166 160.165 25.5596V22.8428H161.536V25.6929C161.557 26.0822 161.674 26.3869 161.885 26.6069C162.097 26.8228 162.366 26.9307 162.691 26.9307H163.244V28.0225H162.691C161.917 28.0225 161.303 27.7876 160.851 27.3179C160.394 27.7876 159.771 28.0225 158.984 28.0225H158.458ZM168.855 24.8994C168.855 24.18 168.681 23.6405 168.334 23.2808C168.03 22.9549 167.596 22.792 167.033 22.792C166.479 22.792 166.049 22.9549 165.745 23.2808C165.393 23.6489 165.218 24.1885 165.218 24.8994C165.218 25.5469 165.396 26.0526 165.751 26.4165C166.081 26.7593 166.506 26.9307 167.027 26.9307C167.564 26.9307 167.996 26.7635 168.322 26.4292C168.677 26.0653 168.855 25.5553 168.855 24.8994ZM163.853 24.8994C163.853 23.943 164.115 23.1855 164.64 22.627C165.224 22.0091 166.022 21.7002 167.033 21.7002C168.053 21.7002 168.853 22.007 169.433 22.6206C169.957 23.1792 170.22 23.9388 170.22 24.8994C170.22 25.8008 169.945 26.5329 169.395 27.0957C168.794 27.7135 168.004 28.0225 167.027 28.0225C166.054 28.0225 165.283 27.7241 164.716 27.1274C164.704 27.1401 164.655 27.1909 164.57 27.2798C164.088 27.7749 163.413 28.0225 162.545 28.0225V26.9307C162.973 26.9307 163.29 26.8249 163.498 26.6133C163.735 26.3678 163.853 26.0166 163.853 25.5596V24.8994Z" fill="#19181B"/>
<path d="M3.2657 0.816175C1.77856 0.417697 0.417731 1.77852 0.816209 3.26567L2.91653 11.1042C3.38936 12.8688 5.78584 13.1279 6.62494 11.5051L7.84055 9.15417C8.02355 8.80026 8.30808 8.50907 8.65766 8.31794L11.7124 6.64776C13.2955 5.78218 13.0134 3.42807 11.2706 2.96107L3.2657 0.816175Z" fill="#A0F1FE"/>
</svg>
