<svg width="34" height="34" viewBox="0 0 34 34" fill="none" xmlns="http://www.w3.org/2000/svg">
<g filter="url(#filter0_i_3717_1404)">
<path d="M12.6432 3.64453L14.5226 5.86192C9.73869 8.1646 7.17588 10.979 7.17588 13.7934C7.17588 14.3904 7.43216 15.0726 7.77387 15.4138C8.11558 15.7549 8.11558 15.7549 10.2513 16.3519C13.1558 17.1194 14.8643 19.4221 14.8643 22.4071C14.8643 26.2449 11.7889 29.1445 7.68844 29.1445C3.07538 29.1445 0 25.5626 0 20.3603C0 13.1111 4.86935 6.71476 12.6432 3.64453ZM31.7789 3.64453L33.6583 5.86192C28.9598 8.07931 26.3116 10.8937 26.3116 13.7934C26.3116 14.3904 26.5678 15.0726 26.9095 15.4138C27.2513 15.7549 27.2513 15.7549 29.3869 16.3519C32.2915 17.1194 34 19.4221 34 22.4071C34 26.2449 30.9246 29.1445 26.8241 29.1445C22.2965 29.1445 19.1357 25.5626 19.1357 20.3603C19.1357 13.1111 24.005 6.71476 31.7789 3.64453Z" fill="#00C2E0"/>
</g>
<defs>
<filter id="filter0_i_3717_1404" x="0" y="3.64453" width="34" height="29.5" filterUnits="userSpaceOnUse" color-interpolation-filters="sRGB">
<feFlood flood-opacity="0" result="BackgroundImageFix"/>
<feBlend mode="normal" in="SourceGraphic" in2="BackgroundImageFix" result="shape"/>
<feColorMatrix in="SourceAlpha" type="matrix" values="0 0 0 0 0 0 0 0 0 0 0 0 0 0 0 0 0 0 127 0" result="hardAlpha"/>
<feOffset dy="4"/>
<feGaussianBlur stdDeviation="2"/>
<feComposite in2="hardAlpha" operator="arithmetic" k2="-1" k3="1"/>
<feColorMatrix type="matrix" values="0 0 0 0 0 0 0 0 0 0 0 0 0 0 0 0 0 0 0.25 0"/>
<feBlend mode="normal" in2="shape" result="effect1_innerShadow_3717_1404"/>
</filter>
</defs>
</svg>
