<svg width="21" height="20" viewBox="0 0 21 20" fill="none" xmlns="http://www.w3.org/2000/svg">
<path d="M10.4714 12.4594V12.4714" stroke="#19181B" stroke-width="1.5" stroke-linecap="round" stroke-linejoin="round"/>
<path d="M10.4706 10.7895C10.4642 10.2603 10.945 10.0356 11.303 9.83117C11.7393 9.59033 12.0359 9.20733 12.0359 8.67558C12.0359 7.88857 11.3983 7.25586 10.6161 7.25586C9.82821 7.25586 9.19629 7.88857 9.19629 8.67558" stroke="#19181B" stroke-width="1.5" stroke-linecap="round" stroke-linejoin="round"/>
<path fill-rule="evenodd" clip-rule="evenodd" d="M4.80714 15.9437C5.24026 16.6952 6.20185 16.9522 6.95254 16.5183C7.70242 16.0843 7.95938 15.1251 7.52626 14.3753L6.2075 12.0893C5.77438 11.3386 4.81522 11.0808 4.06453 11.5139L3.87948 11.6198C3.40838 11.8921 3.17082 12.4513 3.33163 12.9708C3.61768 13.8968 4.10817 14.8932 4.80714 15.9437Z" stroke="#19181B" stroke-width="1.5" stroke-linecap="round" stroke-linejoin="round"/>
<path fill-rule="evenodd" clip-rule="evenodd" d="M16.1981 15.9437C15.765 16.6952 14.8034 16.9522 14.0527 16.5183C13.3028 16.0843 13.0458 15.1251 13.479 14.3753L14.7978 12.0893C15.2308 11.3386 16.19 11.0808 16.9415 11.5139L17.1258 11.6198C17.5968 11.8921 17.8344 12.4513 17.6736 12.9708C17.3876 13.8968 16.8971 14.8932 16.1981 15.9437Z" stroke="#19181B" stroke-width="1.5" stroke-linecap="round" stroke-linejoin="round"/>
<path d="M17.356 13.8086C17.7681 12.8809 18 11.8507 18 10.7687C18 6.62735 14.6377 3.27148 10.4963 3.27148C6.36152 3.27148 3 6.62735 3 10.7687C3 11.7084 3.17373 12.611 3.48968 13.4352" stroke="#19181B" stroke-width="1.5" stroke-linecap="round" stroke-linejoin="round"/>
</svg>
