<svg width="48" height="48" viewBox="0 0 48 48" fill="none" xmlns="http://www.w3.org/2000/svg">
<rect x="0.5" y="0.5" width="47" height="47" rx="23.5" stroke="#EC7227" stroke-opacity="0.12"/>
<path d="M32.4717 21.5904L32.0479 18.8345C31.871 17.684 30.9201 16.8379 29.8042 16.8379H18.8408C17.442 16.8379 16.3754 18.1448 16.5971 19.587L18.2925 30.6105C18.4694 31.761 19.4202 32.6071 20.5362 32.6071H23.277" stroke="#EC7227" stroke-width="1.5" stroke-linecap="round" stroke-linejoin="round"/>
<path opacity="0.4" d="M22.0736 16.8379H18.2412C17.1253 16.8379 16.1745 17.684 15.9976 18.8345L14.3022 29.858C14.0804 31.3002 15.1471 32.6071 16.5459 32.6071H20.0821" stroke="#EC7227" stroke-width="1.5" stroke-linecap="round" stroke-linejoin="round"/>
<path opacity="0.4" d="M20.9888 24.2217H20.9988" stroke="#EC7227" stroke-width="1.5" stroke-linecap="round" stroke-linejoin="round"/>
<path opacity="0.4" d="M24.6807 24.2217H24.6907" stroke="#EC7227" stroke-width="1.5" stroke-linecap="round" stroke-linejoin="round"/>
<path opacity="0.4" d="M21.9951 27.9653H22.0051" stroke="#EC7227" stroke-width="1.5" stroke-linecap="round" stroke-linejoin="round"/>
<path d="M20.7997 18.7416C21.0064 18.9909 21.1425 18.9524 21.4132 18.9524C22.1191 18.9524 22.6915 17.9585 22.6915 16.7326C22.6915 15.5066 22.1191 14.5127 21.4132 14.5127C21.0364 14.5127 20.816 14.5568 20.582 15.0071" stroke="#EC7227" stroke-width="1.5" stroke-linecap="round" stroke-linejoin="round"/>
<path d="M27.2007 18.7416C27.4074 18.9909 27.5434 18.9524 27.814 18.9524C28.5201 18.9524 29.0923 17.9585 29.0923 16.7326C29.0923 15.5066 28.5201 14.5127 27.814 14.5127C27.4374 14.5127 27.2169 14.5568 26.9829 15.0071" stroke="#EC7227" stroke-width="1.5" stroke-linecap="round" stroke-linejoin="round"/>
<g opacity="0.4">
<path d="M32.5342 30.4274L27.3137 31.6491C26.7423 31.7828 26.1442 31.5849 25.7656 31.1366C25.3018 30.5876 25.2727 29.793 25.6951 29.2117L29.0381 24.6104" stroke="#EC7227" stroke-width="1.5" stroke-linecap="round" stroke-linejoin="round"/>
<path d="M27.9302 31.4977L29.4768 33.2618L29.3426 31.1924" stroke="#EC7227" stroke-width="1.5" stroke-linecap="round" stroke-linejoin="round"/>
<path d="M33.1736 26.1105C34.1379 27.7807 34.0568 29.633 32.9923 30.2476C31.9278 30.8622 30.2831 30.0063 29.3188 28.3361C28.3545 26.6659 28.4357 24.8137 29.5001 24.1991C30.5646 23.5845 32.2093 24.4403 33.1736 26.1105Z" stroke="#EC7227" stroke-width="1.5" stroke-linecap="round" stroke-linejoin="round"/>
</g>
</svg>
