<svg width="60" height="60" viewBox="0 0 60 60" fill="none" xmlns="http://www.w3.org/2000/svg">
<rect width="60" height="60" rx="8" fill="#F27227" fill-opacity="0.2"/>
<path d="M33.75 41.25H22.5C21.5054 41.25 20.5516 40.8549 19.8483 40.1517C19.1451 39.4484 18.75 38.4946 18.75 37.5V36.25H31.25V38.75C31.25 39.413 31.5134 40.0489 31.9822 40.5178C32.4511 40.9866 33.087 41.25 33.75 41.25ZM33.75 41.25C34.413 41.25 35.0489 40.9866 35.5178 40.5178C35.9866 40.0489 36.25 39.413 36.25 38.75V21.25C36.25 20.7555 36.3966 20.2722 36.6713 19.8611C36.946 19.45 37.3365 19.1295 37.7933 18.9403C38.2501 18.7511 38.7528 18.7016 39.2377 18.798C39.7227 18.8945 40.1681 19.1326 40.5178 19.4822C40.8674 19.8319 41.1055 20.2773 41.202 20.7623C41.2984 21.2472 41.2489 21.7499 41.0597 22.2067C40.8705 22.6635 40.55 23.054 40.1389 23.3287C39.7278 23.6034 39.2445 23.75 38.75 23.75H36.25M38.75 18.75H25C24.0054 18.75 23.0516 19.1451 22.3483 19.8484C21.6451 20.5516 21.25 21.5054 21.25 22.5V36.25M26.25 23.75H31.25M26.25 28.75H31.25" stroke="#F27227" stroke-width="2" stroke-linecap="round" stroke-linejoin="round"/>
</svg>
