<svg width="60" height="60" viewBox="0 0 60 60" fill="none" xmlns="http://www.w3.org/2000/svg">
<rect width="60" height="60" rx="8" fill="#14C0D8" fill-opacity="0.2"/>
<path d="M23.3333 24.6666H19.3333C18.9797 24.6666 18.6406 24.8071 18.3905 25.0572C18.1405 25.3072 18 25.6463 18 26V28.6666C18 29.0202 18.1405 29.3594 18.3905 29.6094C18.6406 29.8595 18.9797 30 19.3333 30H22C22.3536 30 22.6928 30.1404 22.9428 30.3905C23.1929 30.6405 23.3333 30.9797 23.3333 31.3333V34C23.3333 34.3536 23.1929 34.6927 22.9428 34.9428C22.6928 35.1928 22.3536 35.3333 22 35.3333H18M32.6667 35.3333H27.3333V24.6666H32.6667M28.6667 30H31.3333M36.6667 26C36.6667 25.6463 36.8071 25.3072 37.0572 25.0572C37.3072 24.8071 37.6464 24.6666 38 24.6666H40.6667C41.0203 24.6666 41.3594 24.8071 41.6095 25.0572C41.8595 25.3072 42 25.6463 42 26V34C42 34.3536 41.8595 34.6927 41.6095 34.9428C41.3594 35.1928 41.0203 35.3333 40.6667 35.3333H38C37.6464 35.3333 37.3072 35.1928 37.0572 34.9428C36.8071 34.6927 36.6667 34.3536 36.6667 34V26Z" stroke="#14C0D8" stroke-width="2" stroke-linecap="round" stroke-linejoin="round"/>
</svg>
