<svg width="26" height="26" viewBox="0 0 26 26" fill="none" xmlns="http://www.w3.org/2000/svg">
<path fill-rule="evenodd" clip-rule="evenodd" d="M9.35986 19.101V20.6937C9.35986 21.5457 10.0483 22.2368 10.8981 22.2368H15.1027C15.9523 22.2368 16.6399 21.5457 16.6399 20.6937V19.101C16.6399 18.248 15.9523 17.5569 15.1027 17.5569H10.8981C10.0483 17.5569 9.35986 18.248 9.35986 19.101Z" stroke="#4BB669" stroke-width="1.5" stroke-linecap="round" stroke-linejoin="round"/>
<path fill-rule="evenodd" clip-rule="evenodd" d="M3.63965 6.10052V7.69328C3.63965 8.54525 4.32813 9.23633 5.1779 9.23633H9.3824C10.2322 9.23633 10.9197 8.54525 10.9197 7.69328V6.10052C10.9197 5.24751 10.2322 4.55643 9.3824 4.55643H5.1779C4.32813 4.55643 3.63965 5.24751 3.63965 6.10052Z" stroke="#4BB669" stroke-width="1.5" stroke-linecap="round" stroke-linejoin="round"/>
<path fill-rule="evenodd" clip-rule="evenodd" d="M15.0801 6.10052V7.69328C15.0801 8.54525 15.7686 9.23633 16.6183 9.23633H20.8229C21.6725 9.23633 22.3601 8.54525 22.3601 7.69328V6.10052C22.3601 5.24751 21.6725 4.55643 20.8229 4.55643H16.6183C15.7686 4.55643 15.0801 5.24751 15.0801 6.10052Z" stroke="#4BB669" stroke-width="1.5" stroke-linecap="round" stroke-linejoin="round"/>
<path opacity="0.4" d="M13 17.5566V13.3966" stroke="#4BB669" stroke-width="1.5" stroke-linecap="round"/>
<path opacity="0.4" d="M18.7198 9.23648V11.3165C18.7198 12.4653 17.7885 13.3965 16.6398 13.3965H9.35978C8.21103 13.3965 7.27979 12.4653 7.27979 11.3165V9.23648" stroke="#4BB669" stroke-width="1.5" stroke-linecap="round"/>
</svg>
