<svg width="244" height="176" viewBox="0 0 244 176" fill="none" xmlns="http://www.w3.org/2000/svg">
<rect x="5" y="5" width="225" height="36" rx="8" fill="white"/>
<rect x="2.5" y="2.5" width="230" height="41" rx="10.5" stroke="white" stroke-opacity="0.1" stroke-width="5"/>
<rect x="13.2" y="17.2" width="33.6" height="11.6" rx="1.8" stroke="#EAEAEA" stroke-width="0.4"/>
<path d="M19 23L17.5 24L16 23" stroke="#D8D8D8" stroke-width="0.5" stroke-linecap="round" stroke-linejoin="round"/>
<path d="M24.209 24.1602C23.9811 24.1602 23.7969 24.0872 23.6562 23.9414C23.6406 23.9258 23.6263 23.9095 23.6133 23.8926C23.5312 23.9824 23.431 24.0501 23.3125 24.0957C23.2083 24.1374 23.099 24.1582 22.9844 24.1582C22.9635 24.1582 22.9427 24.1576 22.9219 24.1562C22.7839 24.1471 22.6569 24.1087 22.541 24.041C22.2611 23.8796 22.1211 23.612 22.1211 23.2383C22.1211 22.9557 22.1986 22.7318 22.3535 22.5664C22.5241 22.3867 22.7598 22.2962 23.0605 22.2949H23.0664C23.2383 22.2949 23.3919 22.3249 23.5273 22.3848C23.7161 22.4668 23.8105 22.5833 23.8105 22.7344V23.4414C23.8105 23.5911 23.8509 23.7077 23.9316 23.791C24.0046 23.8652 24.097 23.9023 24.209 23.9023V24.1602ZM23.4688 22.7344C23.4688 22.681 23.431 22.638 23.3555 22.6055C23.2721 22.569 23.1758 22.5508 23.0664 22.5508H23.0605C22.8783 22.5508 22.7357 22.6055 22.6328 22.7148C22.5195 22.8346 22.4629 23.0091 22.4629 23.2383C22.4629 23.5286 22.5586 23.7292 22.75 23.8398C22.8138 23.8763 22.8809 23.8965 22.9512 23.9004C22.9629 23.9017 22.9746 23.9023 22.9863 23.9023C23.0449 23.9023 23.1016 23.8913 23.1562 23.8691C23.3346 23.7988 23.4388 23.6562 23.4688 23.4414V22.7344ZM23.0449 21.7793C23.0449 21.7493 23.0508 21.7214 23.0625 21.6953C23.0742 21.6693 23.0898 21.6465 23.1094 21.627C23.1289 21.6074 23.1517 21.5924 23.1777 21.582C23.2038 21.5703 23.2318 21.5645 23.2617 21.5645C23.2904 21.5645 23.3171 21.5703 23.3418 21.582C23.3678 21.5924 23.39 21.6074 23.4082 21.627C23.4277 21.6465 23.4427 21.6693 23.4531 21.6953C23.4648 21.7214 23.4707 21.7493 23.4707 21.7793C23.4707 21.8092 23.4648 21.8372 23.4531 21.8633C23.4427 21.888 23.4277 21.9102 23.4082 21.9297C23.39 21.9479 23.3678 21.9629 23.3418 21.9746C23.3171 21.985 23.2904 21.9902 23.2617 21.9902C23.2318 21.9902 23.2038 21.985 23.1777 21.9746C23.1517 21.9629 23.1289 21.9479 23.1094 21.9297C23.0898 21.9102 23.0742 21.888 23.0625 21.8633C23.0508 21.8372 23.0449 21.8092 23.0449 21.7793ZM22.5352 21.7793C22.5352 21.7493 22.541 21.7214 22.5527 21.6953C22.5645 21.6693 22.5801 21.6465 22.5996 21.627C22.6191 21.6074 22.6413 21.5924 22.666 21.582C22.6921 21.5703 22.7194 21.5645 22.748 21.5645C22.7767 21.5645 22.804 21.5703 22.8301 21.582C22.8561 21.5924 22.8789 21.6074 22.8984 21.627C22.918 21.6465 22.9329 21.6693 22.9434 21.6953C22.9551 21.7214 22.9609 21.7493 22.9609 21.7793C22.9609 21.8092 22.9551 21.8372 22.9434 21.8633C22.9329 21.888 22.918 21.9102 22.8984 21.9297C22.8789 21.9479 22.8561 21.9629 22.8301 21.9746C22.804 21.985 22.7767 21.9902 22.748 21.9902C22.7194 21.9902 22.6921 21.985 22.666 21.9746C22.6413 21.9629 22.6191 21.9479 22.5996 21.9297C22.5801 21.9102 22.5645 21.888 22.5527 21.8633C22.541 21.8372 22.5352 21.8092 22.5352 21.7793ZM24.7773 24.7012C24.7773 24.6712 24.7832 24.6432 24.7949 24.6172C24.8066 24.5911 24.8223 24.5684 24.8418 24.5488C24.8613 24.5293 24.8841 24.5137 24.9102 24.502C24.9362 24.4915 24.9642 24.4863 24.9941 24.4863C25.0228 24.4863 25.0495 24.4915 25.0742 24.502C25.1003 24.5137 25.1224 24.5293 25.1406 24.5488C25.1602 24.5684 25.1751 24.5911 25.1855 24.6172C25.1973 24.6432 25.2031 24.6712 25.2031 24.7012C25.2031 24.7311 25.1973 24.7585 25.1855 24.7832C25.1751 24.8092 25.1602 24.8314 25.1406 24.8496C25.1224 24.8691 25.1003 24.8841 25.0742 24.8945C25.0495 24.9062 25.0228 24.9121 24.9941 24.9121C24.9642 24.9121 24.9362 24.9062 24.9102 24.8945C24.8841 24.8841 24.8613 24.8691 24.8418 24.8496C24.8223 24.8314 24.8066 24.8092 24.7949 24.7832C24.7832 24.7585 24.7773 24.7311 24.7773 24.7012ZM24.2676 24.7012C24.2676 24.6712 24.2734 24.6432 24.2852 24.6172C24.2969 24.5911 24.3125 24.5684 24.332 24.5488C24.3516 24.5293 24.3737 24.5137 24.3984 24.502C24.4245 24.4915 24.4518 24.4863 24.4805 24.4863C24.5091 24.4863 24.5365 24.4915 24.5625 24.502C24.5885 24.5137 24.6113 24.5293 24.6309 24.5488C24.6504 24.5684 24.6654 24.5911 24.6758 24.6172C24.6875 24.6432 24.6934 24.6712 24.6934 24.7012C24.6934 24.7311 24.6875 24.7585 24.6758 24.7832C24.6654 24.8092 24.6504 24.8314 24.6309 24.8496C24.6113 24.8691 24.5885 24.8841 24.5625 24.8945C24.5365 24.9062 24.5091 24.9121 24.4805 24.9121C24.4518 24.9121 24.4245 24.9062 24.3984 24.8945C24.3737 24.8841 24.3516 24.8691 24.332 24.8496C24.3125 24.8314 24.2969 24.8092 24.2852 24.7832C24.2734 24.7585 24.2676 24.7311 24.2676 24.7012ZM24.0723 24.1602V23.9023H24.1953C24.3112 23.9023 24.4049 23.8659 24.4766 23.793C24.5573 23.7096 24.5977 23.5924 24.5977 23.4414V22.6445H24.9414V23.4824C24.9479 23.6126 24.9876 23.7155 25.0605 23.791C25.1335 23.8652 25.2253 23.9023 25.3359 23.9023H25.4668V24.1602H25.3359C25.1081 24.1602 24.9238 24.0872 24.7832 23.9414L24.7695 23.9277L24.7539 23.9434C24.6133 24.0879 24.4271 24.1602 24.1953 24.1602H24.0723ZM25.7637 24.7129C25.7637 24.6829 25.7695 24.6549 25.7812 24.6289C25.793 24.6029 25.8086 24.5801 25.8281 24.5605C25.8477 24.541 25.8698 24.5254 25.8945 24.5137C25.9206 24.5033 25.9479 24.498 25.9766 24.498C26.0052 24.498 26.0326 24.5033 26.0586 24.5137C26.0846 24.5254 26.1074 24.541 26.127 24.5605C26.1465 24.5801 26.1615 24.6029 26.1719 24.6289C26.1836 24.6549 26.1895 24.6829 26.1895 24.7129C26.1895 24.7428 26.1836 24.7702 26.1719 24.7949C26.1615 24.821 26.1465 24.8431 26.127 24.8613C26.1074 24.8809 26.0846 24.8958 26.0586 24.9062C26.0326 24.918 26.0052 24.9238 25.9766 24.9238C25.9479 24.9238 25.9206 24.918 25.8945 24.9062C25.8698 24.8958 25.8477 24.8809 25.8281 24.8613C25.8086 24.8431 25.793 24.821 25.7812 24.7949C25.7695 24.7702 25.7637 24.7428 25.7637 24.7129ZM26.5996 22.6445V23.5488C26.5996 23.7103 26.541 23.8496 26.4238 23.9668C26.2949 24.0957 26.1361 24.1602 25.9473 24.1602H25.3301V23.9023H25.9473C26.0228 23.9023 26.0905 23.8724 26.1504 23.8125C26.222 23.7422 26.2578 23.6543 26.2578 23.5488V22.6445H26.5996ZM27.9336 24.1602C27.7917 24.1549 27.6673 24.1211 27.5605 24.0586C27.528 24.2292 27.474 24.3854 27.3984 24.5273C27.3581 24.6042 27.3034 24.6836 27.2344 24.7656C27.1706 24.8424 27.0944 24.9212 27.0059 25.002L26.7793 24.8418C26.86 24.7676 26.9284 24.6966 26.9844 24.6289C27.043 24.5586 27.0885 24.4935 27.1211 24.4336C27.1953 24.2956 27.2324 24.14 27.2324 23.9668C27.2324 23.9382 27.2311 23.9089 27.2285 23.8789V22.6445H27.5703V23.4961C27.5794 23.6198 27.6191 23.7181 27.6895 23.791C27.7624 23.8652 27.8542 23.9023 27.9648 23.9023H28.0938V24.1602H27.9336ZM28.8887 23.7812C28.9564 23.8346 29.0293 23.8776 29.1074 23.9102C29.1868 23.8776 29.2604 23.8346 29.3281 23.7812C29.4948 23.6497 29.6087 23.472 29.6699 23.248C29.6973 23.1478 29.7109 23.056 29.7109 22.9727C29.7109 22.8568 29.6842 22.7643 29.6309 22.6953C29.5866 22.6367 29.5228 22.5964 29.4395 22.5742C29.3835 22.5586 29.3197 22.5508 29.248 22.5508H28.9668C28.8952 22.5508 28.832 22.5586 28.7773 22.5742C28.694 22.5964 28.6302 22.6367 28.5859 22.6953C28.5326 22.7643 28.5059 22.8568 28.5059 22.9727C28.5059 23.056 28.5195 23.1478 28.5469 23.248C28.6081 23.472 28.722 23.6497 28.8887 23.7812ZM27.959 24.1602V23.9023H28.5762C28.4004 23.7435 28.2786 23.5423 28.2109 23.2988C28.1784 23.179 28.1621 23.0703 28.1621 22.9727C28.1621 22.8112 28.2044 22.6758 28.2891 22.5664C28.3763 22.4544 28.5 22.3763 28.6602 22.332C28.7539 22.306 28.8561 22.293 28.9668 22.293H29.248C29.36 22.293 29.4629 22.306 29.5566 22.332C29.7168 22.3763 29.8398 22.4544 29.9258 22.5664C30.0104 22.6758 30.0527 22.8112 30.0527 22.9727C30.0527 23.0703 30.0365 23.179 30.0039 23.2988C29.9375 23.5423 29.8158 23.7435 29.6387 23.9023H30.248V24.1602H27.959ZM31.0684 21.9023V23.5488C31.0684 23.7103 31.0098 23.8496 30.8926 23.9668C30.7637 24.0957 30.6048 24.1602 30.416 24.1602H30.1113V23.9023H30.416C30.4915 23.9023 30.5592 23.8724 30.6191 23.8125C30.6908 23.7422 30.7266 23.6543 30.7266 23.5488V21.9023H31.0684ZM31.8027 21.9023V24.0312H31.4609V21.9023H31.8027Z" fill="#B7B7B7"/>
<g clip-path="url(#clip0_2732_499)">
<path d="M34.0059 19H44.0059V27H34.0059V19Z" fill="#165D31"/>
<path fill-rule="evenodd" clip-rule="evenodd" d="M36.2149 21.2671C36.2032 21.4546 36.1856 21.7827 36.3365 21.8171C36.5167 21.8359 36.4171 21.4921 36.483 21.4296C36.4948 21.3984 36.5167 21.3984 36.5182 21.4374V21.7296C36.5182 21.8234 36.5768 21.8515 36.6207 21.8702C36.6676 21.8671 36.6999 21.8702 36.7174 21.9171L36.7409 22.4218C36.7409 22.4218 36.8493 22.4562 36.8551 22.139C36.8595 21.9515 36.82 21.7968 36.8434 21.7609C36.8434 21.7249 36.8874 21.7234 36.9167 21.7405C36.9636 21.7749 36.9841 21.8187 37.0573 21.803C37.1687 21.7687 37.236 21.7109 37.2375 21.6202C37.2353 21.5312 37.2179 21.4433 37.1862 21.3609C37.1921 21.3452 37.1657 21.303 37.1716 21.2874C37.1906 21.3218 37.2214 21.3187 37.2273 21.2874C37.2082 21.2218 37.1789 21.1577 37.132 21.1312C37.0925 21.0937 37.0339 21.0999 37.0148 21.178C37.0031 21.2671 37.0441 21.3718 37.1042 21.4593C37.1174 21.4921 37.135 21.5484 37.1276 21.5984C37.0954 21.6187 37.0632 21.6093 37.0353 21.5796C37.0353 21.5796 36.9474 21.5093 36.9474 21.4921C36.9709 21.3327 36.9518 21.314 36.9386 21.2687C36.9299 21.2077 36.902 21.1874 36.8801 21.1468C36.8581 21.1218 36.8288 21.1218 36.8141 21.1468C36.7746 21.2187 36.7936 21.3734 36.8215 21.4437C36.842 21.5077 36.8727 21.5484 36.8581 21.5484C36.8464 21.5843 36.8215 21.5749 36.8024 21.5327C36.781 21.4439 36.7706 21.3525 36.7716 21.2609C36.7643 21.189 36.7555 21.0359 36.7101 20.9952C36.6837 20.9577 36.6442 20.9765 36.6295 21.0109C36.6257 21.0807 36.6271 21.1507 36.6339 21.2202C36.6632 21.3359 36.6735 21.439 36.6881 21.5562C36.6925 21.714 36.6032 21.6249 36.6076 21.5452C36.6268 21.445 36.6253 21.3416 36.6032 21.2421C36.5885 21.2015 36.5724 21.1921 36.5358 21.1984C36.5079 21.1984 36.4362 21.2812 36.4156 21.4218C36.4156 21.4218 36.3981 21.4937 36.3907 21.5577C36.3805 21.6296 36.3365 21.6827 36.3043 21.5484C36.2779 21.4499 36.2604 21.2109 36.2164 21.2671H36.2149Z" fill="white"/>
<path fill-rule="evenodd" clip-rule="evenodd" d="M36.7059 22.0343L36.2371 22.2749C36.2415 22.1608 36.4583 21.9562 36.6077 21.9546C36.7029 21.9562 36.6795 21.9937 36.7044 22.0343H36.7059Z" fill="white"/>
<path fill-rule="evenodd" clip-rule="evenodd" d="M36.6225 22.1905C36.3764 22.8702 37.2011 22.9655 37.2934 22.2186C37.3022 22.1874 37.3374 22.1577 37.3432 22.2077C37.3242 22.8843 36.7045 22.9296 36.599 22.7171C36.5742 22.644 36.5618 22.5667 36.5624 22.4889C36.5478 22.3561 36.4818 22.4077 36.4716 22.5389C36.4613 22.6124 36.4643 22.6327 36.4643 22.703C36.4965 23.2374 37.2949 23.0077 37.4253 22.5671C37.4941 22.3233 37.4136 22.1436 37.4502 22.1436C37.5293 22.2343 37.6406 22.1561 37.6655 22.1249C37.6758 22.1093 37.7022 22.0983 37.7197 22.1186C37.7813 22.1655 37.8897 22.1436 37.9131 22.0608C37.9263 21.978 37.9366 21.8936 37.9395 21.8077C37.8882 21.8233 37.8516 21.8343 37.8472 21.8577L37.8369 21.9296C37.8326 21.953 37.7901 21.953 37.7871 21.9233C37.7681 21.8296 37.689 21.8186 37.6406 21.9624C37.6099 21.9905 37.5513 21.9968 37.5454 21.9546C37.5527 21.8577 37.5161 21.8452 37.4429 21.8905L37.3725 21.3249C37.4018 21.3249 37.4311 21.3483 37.459 21.3108C37.4297 21.2093 37.3638 21.003 37.3271 20.9874C37.311 20.9655 37.2964 20.9796 37.2729 20.9858C37.2348 20.9983 37.1997 21.0327 37.2114 21.1014C37.2553 21.3952 37.2846 21.6186 37.3301 21.9139C37.3374 21.9468 37.311 21.9921 37.2759 21.9874C37.2173 21.9452 37.2026 21.8593 37.1001 21.8624C37.0268 21.8624 36.9448 21.9483 36.9345 22.0296C36.9213 22.0952 36.9169 22.1655 36.9345 22.2218C36.9858 22.2874 37.0473 22.2811 37.1015 22.2671C37.1455 22.2468 37.1821 22.1999 37.1982 22.2108C37.2085 22.2249 37.1997 22.3811 36.9887 22.4999C36.8613 22.5624 36.7587 22.5749 36.7045 22.4639C36.6708 22.3936 36.7074 22.1296 36.6225 22.1905Z" fill="white"/>
<path fill-rule="evenodd" clip-rule="evenodd" d="M37.6727 21.5001C37.721 21.4814 37.9554 21.1939 37.9554 21.1939L37.9202 21.1626C37.9071 21.1517 37.9085 21.1392 37.9202 21.1282C37.9788 21.0907 37.9598 21.0126 37.9305 20.9751C37.9106 20.9648 37.8887 20.9595 37.8666 20.9598C37.8445 20.9601 37.8227 20.9658 37.803 20.9767C37.762 21.0189 37.7532 21.086 37.7855 21.1267C37.8162 21.1423 37.847 21.1767 37.8265 21.1954C37.7298 21.3048 37.4676 21.4939 37.4983 21.5001C37.5042 21.5095 37.6668 21.5095 37.6712 21.5001H37.6727ZM36.2516 22.5157C36.1637 22.6657 36.1564 22.8892 36.2047 22.9564C36.2311 22.9876 36.2736 23.0017 36.3044 22.9907C36.36 22.9657 36.3849 22.8454 36.3718 22.8032C36.3527 22.772 36.3381 22.7673 36.319 22.7923C36.2809 22.8767 36.2648 22.8189 36.2604 22.772C36.2562 22.6926 36.2601 22.613 36.2721 22.5345C36.2824 22.4689 36.2721 22.4876 36.2516 22.5157ZM40.0181 22.2767C39.9331 22.0798 39.8145 21.886 39.7778 21.8126C39.6637 21.6201 39.5425 21.4325 39.4145 21.2501C39.3237 21.1345 39.564 21.2985 39.3852 21.0673L39.2548 20.9501C39.2255 20.9282 39.1552 20.8876 39.1435 20.9532C39.1377 21.0126 39.1406 21.0439 39.1494 21.0923C39.1567 21.1235 39.2006 21.1782 39.2226 21.2095C39.523 21.6338 39.7868 22.0861 40.0108 22.561C40.0489 22.5407 40.0401 22.3095 40.0181 22.2767Z" fill="white"/>
<path fill-rule="evenodd" clip-rule="evenodd" d="M39.6445 22.9297C39.6269 22.9501 39.6855 23.036 39.7617 23.036C39.8877 23.0204 39.999 22.9454 40.1016 22.7454C40.1432 22.6788 40.1698 22.6029 40.1792 22.5235C40.1916 22.1442 40.1631 21.7646 40.0942 21.3922C40.0899 21.361 40.0942 21.3235 40.0972 21.3141C40.106 21.3032 40.1338 21.3141 40.1485 21.2876C40.1704 21.2641 40.0899 21.0688 40.0459 20.9954C40.0313 20.961 40.0239 20.9391 39.9976 20.9985C39.9657 21.064 39.9506 21.1373 39.9536 21.211C40.0137 21.6563 40.0327 22.0454 40.0708 22.4907C40.0752 22.5344 40.0693 22.5969 40.0415 22.6219C39.931 22.7532 39.7957 22.8581 39.6445 22.9297ZM41.3512 22.9282C41.2604 22.9844 41.2604 23.0485 41.3336 23.0501C41.4596 23.0344 41.609 23.0235 41.7116 22.8579C41.7478 22.7799 41.7688 22.6948 41.7731 22.6079C41.7916 22.2344 41.7685 21.8599 41.7043 21.4922C41.7013 21.461 41.6882 21.3876 41.6925 21.3782C41.7013 21.3563 41.7424 21.3797 41.757 21.3547C41.7775 21.3313 41.6501 21.1563 41.6046 21.0813C41.59 21.0469 41.5841 21.0251 41.5563 21.0844C41.5268 21.1505 41.5176 21.2249 41.5299 21.2969C41.5973 21.7813 41.6471 22.1438 41.6574 22.5719C41.6515 22.6126 41.6501 22.6344 41.6325 22.686C41.5929 22.7391 41.549 22.8079 41.508 22.8407C41.4669 22.8719 41.379 22.9032 41.3512 22.9282Z" fill="white"/>
<path fill-rule="evenodd" clip-rule="evenodd" d="M41.4188 22.4954C41.4188 22.3813 41.4203 22.2844 41.4173 22.1985C41.4164 22.1257 41.4014 22.0539 41.3734 21.9876C41.347 21.9235 41.3631 21.8719 41.3499 21.8032C41.3382 21.7344 41.3411 21.6313 41.3236 21.5516C41.3177 21.5204 41.3031 21.4188 41.3074 21.4079C41.3148 21.386 41.3426 21.4079 41.3573 21.3829C41.3778 21.3594 41.284 21.1016 41.2371 21.0282C41.221 20.9954 41.1888 21.0063 41.1522 21.0594C41.1155 21.0954 41.1287 21.1751 41.1434 21.2516C41.2327 21.7563 41.3016 22.2141 41.2869 22.6938C41.2811 22.7344 41.4188 22.5719 41.4188 22.4954ZM40.7493 21.8704C40.6922 21.8672 40.5735 21.7501 40.5383 21.6829C40.5326 21.6664 40.5301 21.6489 40.5311 21.6314C40.5321 21.6139 40.5366 21.5968 40.5442 21.5813C40.5662 21.5657 40.5984 21.5501 40.6233 21.5657C40.6233 21.5657 40.6482 21.6032 40.6438 21.6079C40.6731 21.6235 40.6878 21.6157 40.6907 21.6016C40.6922 21.5782 40.6819 21.5641 40.6819 21.5391C40.6951 21.4672 40.7698 21.4563 40.7991 21.5016C40.8196 21.5297 40.8284 21.5876 40.8299 21.6266C40.8299 21.6469 40.8006 21.6235 40.7815 21.6266C40.7654 21.6329 40.761 21.6547 40.7595 21.6735C40.7566 21.7251 40.7508 21.8079 40.7493 21.8688V21.8704ZM39.6974 22.6204C39.7121 22.4672 39.6916 22.1938 39.6901 22.1032C39.6823 21.8701 39.6642 21.6376 39.6359 21.4063C39.6183 21.2751 39.6857 21.4204 39.6769 21.3438C39.6549 21.2141 39.5876 21.1251 39.507 21.0079C39.4821 20.9688 39.4821 20.961 39.4425 21.0172C39.3986 21.1219 39.4367 21.1954 39.4484 21.2782C39.5055 21.5469 39.5392 21.7938 39.5553 22.0391C39.5722 22.2939 39.5742 22.5496 39.5612 22.8047C39.6051 22.8063 39.6725 22.7313 39.6974 22.6204Z" fill="white"/>
<path fill-rule="evenodd" clip-rule="evenodd" d="M41.6137 22.375C41.5126 22.1937 41.3617 22 41.3207 21.9266C41.1848 21.7242 41.0421 21.5272 40.8929 21.3359C40.7684 21.1953 40.9515 21.3125 40.8694 21.2031C40.8006 21.1234 40.7815 21.0969 40.7215 21.0484C40.6922 21.0281 40.6746 20.9891 40.6629 21.0562C40.6582 21.1144 40.6572 21.1729 40.6599 21.2312C40.6599 21.2578 40.6863 21.3094 40.7098 21.3406C41.013 21.7391 41.3456 22.1453 41.6122 22.6562C41.6503 22.6359 41.6371 22.4062 41.6122 22.375H41.6137Z" fill="white"/>
<path fill-rule="evenodd" clip-rule="evenodd" d="M37.0516 22.0421C37.0442 22.0562 37.0281 22.0734 37.034 22.0906C37.0442 22.1062 37.0545 22.1109 37.0721 22.1109C37.0882 22.1109 37.1116 22.1156 37.116 22.1062C37.1248 22.0953 37.1307 22.075 37.1248 22.0546C37.1072 22.0078 37.0603 22.0265 37.0516 22.0421Z" fill="#165D31"/>
<path fill-rule="evenodd" clip-rule="evenodd" d="M40.4444 24.6641C40.5792 24.6704 40.6671 24.6719 40.7858 24.686L40.9264 24.6704C41.0817 24.6547 41.0876 24.9063 41.0876 24.9063C41.0876 25.0547 41.0334 25.0626 40.9645 25.0782C40.9249 25.0844 40.9059 25.0532 40.8839 25.0219C40.8508 25.0333 40.8155 25.0354 40.7814 25.0282C40.7242 25.0251 40.6686 25.0251 40.6129 25.0204C40.5543 25.0157 40.5221 25.0282 40.462 25.0219C40.4503 25.0422 40.4327 25.0704 40.3976 25.0626C40.3683 25.0579 40.3316 24.9688 40.3419 24.8985C40.3639 24.8485 40.3565 24.8657 40.3565 24.8438C39.8057 24.8282 39.2505 24.8016 38.7114 24.8094C38.2894 24.811 37.8734 24.8297 37.4559 24.8485C37.2332 24.8454 37.0632 24.8079 36.946 24.6251C36.9578 24.6251 37.5145 24.6579 37.6771 24.6469C37.9774 24.6438 38.2528 24.6172 38.559 24.6079C39.1626 24.6188 39.7617 24.6188 40.3653 24.6641C40.3067 24.6219 40.3067 24.5235 40.3946 24.4985C40.4019 24.4922 40.4063 24.5469 40.4195 24.5454C40.4913 24.5407 40.4591 24.6438 40.4444 24.6641ZM38.0184 21.1141C37.9276 21.3922 38.0712 21.6985 38.1708 21.6688C38.244 21.7001 38.288 21.5532 38.3173 21.3938C38.3392 21.3485 38.3539 21.3438 38.3642 21.3672C38.3612 21.5797 38.3788 21.6282 38.4301 21.6922C38.5443 21.786 38.6396 21.7047 38.6469 21.6969L38.7348 21.6016C38.7553 21.5782 38.7817 21.5782 38.8095 21.5969C38.8373 21.6235 38.8329 21.6688 38.8915 21.7001C38.9414 21.7219 39.0454 21.7063 39.0703 21.661C39.1025 21.6001 39.1113 21.5797 39.1259 21.5579C39.1494 21.5251 39.1889 21.5391 39.1889 21.5501C39.1845 21.5688 39.1611 21.586 39.1772 21.6204C39.2065 21.6422 39.2124 21.6282 39.2285 21.6235C39.2871 21.5922 39.331 21.4579 39.331 21.4579C39.3325 21.4079 39.3061 21.411 39.2886 21.4235L39.2431 21.4563C39.2138 21.461 39.1596 21.4813 39.1318 21.436C39.104 21.3829 39.104 21.3063 39.0835 21.2516C39.0835 21.2485 39.0454 21.1657 39.0805 21.161C39.0981 21.1641 39.1347 21.1751 39.1406 21.1422C39.1582 21.1094 39.1025 21.0172 39.063 20.9704C39.0293 20.9313 38.9824 20.9266 38.937 20.9672C38.9047 20.9985 38.9091 21.0329 38.9033 21.0657C38.8977 21.0892 38.8975 21.1138 38.9026 21.1374C38.9077 21.161 38.9179 21.1831 38.9326 21.2016C38.9648 21.2672 39.0219 21.3532 39.0029 21.4751C39.0029 21.4751 38.9692 21.5313 38.9106 21.5235C38.8857 21.5188 38.8461 21.5079 38.8256 21.3391C38.8095 21.2141 38.8286 21.036 38.7787 20.9532C38.7597 20.9016 38.7465 20.8532 38.7026 20.9391C38.6908 20.9735 38.6396 21.0251 38.6762 21.1297C38.7109 21.2241 38.721 21.3267 38.7055 21.4266C38.6835 21.461 38.6791 21.4719 38.6513 21.5047C38.6132 21.5516 38.5707 21.5391 38.5385 21.5219C38.5092 21.5016 38.4857 21.4907 38.4711 21.4204C38.474 21.311 38.4799 21.1313 38.4608 21.0938C38.433 21.0344 38.3876 21.0563 38.3685 21.0751C38.2814 21.1783 38.223 21.3055 38.2001 21.4422C38.1737 21.5329 38.1459 21.5063 38.1268 21.4704C38.0799 21.4235 38.0755 21.0532 38.0184 21.1141Z" fill="white"/>
<path fill-rule="evenodd" clip-rule="evenodd" d="M38.2939 21.7202C38.3363 21.689 38.3173 21.6671 38.3788 21.7327C38.4582 21.8826 38.5044 22.0499 38.5136 22.2218C38.5107 22.2624 38.537 22.2874 38.5502 22.278C38.5561 22.1843 38.7714 22.053 38.9692 22.0343C38.9985 22.0265 38.9839 21.9655 38.9883 21.9343C38.9765 21.8171 39.0498 21.7109 39.1523 21.703C39.293 21.7249 39.3399 21.8046 39.3428 21.9249C39.3267 22.1593 39.0981 22.1984 38.9707 22.2171C38.9516 22.2249 38.9428 22.2343 38.9707 22.2452L39.5069 22.2484L39.5347 22.264C39.5376 22.2796 39.5259 22.2671 39.5054 22.3046C39.4759 22.3599 39.4575 22.4211 39.4512 22.4843C39.2915 22.5405 39.126 22.5624 38.959 22.5859C38.9004 22.6171 38.8711 22.6593 38.8828 22.7062C38.9033 22.7577 39.0322 22.8109 39.0322 22.8124C39.0571 22.828 39.085 22.8671 39.0249 22.9468C38.7641 22.9343 38.5605 22.8155 38.4902 22.6484C38.4697 22.6312 38.4462 22.6484 38.4316 22.6702C38.329 22.8109 38.2294 22.9359 38.0551 23.0046C37.9525 23.0327 37.8456 22.9874 37.7958 22.9155C37.7621 22.8734 37.7635 22.828 37.7518 22.8187C37.6947 22.8452 37.2112 23.064 37.2728 22.9609C37.39 22.828 37.5951 22.728 37.7738 22.5968C37.787 22.5515 37.8104 22.4015 37.8807 22.353C37.8851 22.353 37.8705 22.4405 37.8719 22.478C37.8719 22.5093 37.869 22.5202 37.8749 22.5124C37.8881 22.5046 38.1049 22.3218 38.1239 22.2655C38.1444 22.2343 38.1283 22.153 38.1283 22.1499C38.0873 22.0374 38.0302 22.028 38.0097 21.9718C37.9906 21.8984 37.9994 21.814 38.039 21.789C38.0741 21.7562 38.1151 21.7593 38.1547 21.7968C38.1986 21.839 38.2367 21.9218 38.2484 21.9827C38.2411 22.0062 38.1898 21.9671 38.1752 21.978C38.2034 22.0126 38.2221 22.0548 38.2294 22.0999C38.2587 22.228 38.2499 22.278 38.2206 22.3609C38.1239 22.578 38.0009 22.6421 37.8925 22.7234C37.8895 22.7234 37.8881 22.778 37.9276 22.8077C37.9423 22.8234 37.9994 22.8312 38.0653 22.8077C38.2062 22.7243 38.32 22.5974 38.392 22.4437C38.4045 22.3267 38.3925 22.2082 38.3569 22.0968C38.3144 21.9921 38.2646 21.8437 38.2646 21.8405C38.2631 21.7749 38.2675 21.753 38.2939 21.7202ZM36.8904 21.1171C36.9519 21.1484 37.0691 21.1343 37.0633 21.028L37.0603 20.9796C37.0486 20.9484 37.0135 20.9562 37.0061 20.9874C37.0032 20.9984 37.0105 21.0155 37.0017 21.0202C36.9959 21.0265 36.9768 21.0234 36.9768 20.9937C36.9768 20.9843 36.971 20.9749 36.9666 20.9687C36.9637 20.9655 36.9607 20.9655 36.9534 20.9655C36.9446 20.9655 36.9446 20.9671 36.9402 20.9749C36.9387 20.9827 36.9358 20.9905 36.9358 20.9999C36.9358 21.0109 36.93 21.014 36.9241 21.0155C36.9153 21.0155 36.9168 21.0155 36.9094 21.0124C36.9065 21.0077 36.9021 21.0062 36.9021 20.9968L36.8977 20.9718C36.8948 20.9671 36.8889 20.964 36.8831 20.9624C36.8494 20.9624 36.8465 21.0046 36.8494 21.0202C36.8465 21.0234 36.845 21.0968 36.8904 21.1171Z" fill="white"/>
<path fill-rule="evenodd" clip-rule="evenodd" d="M38.6997 21.9328C38.7613 21.964 38.9092 21.9469 38.8726 21.8453L38.8697 21.7953C38.8565 21.764 38.8228 21.7719 38.8155 21.8047C38.8125 21.814 38.8199 21.8312 38.8096 21.8359C38.8052 21.8422 38.7847 21.839 38.7862 21.8109C38.7862 21.8015 38.7803 21.7906 38.7759 21.7844C38.7715 21.7828 38.7701 21.7812 38.7613 21.7812C38.7539 21.7812 38.7539 21.7844 38.7495 21.7922C38.7466 21.8 38.7451 21.8078 38.7451 21.8172C38.7437 21.8265 38.7393 21.8297 38.732 21.8328C38.7246 21.8328 38.7261 21.8328 38.7202 21.8281C38.7158 21.8234 38.7115 21.8219 38.7115 21.814L38.7071 21.789C38.7041 21.7844 38.6983 21.7812 38.6924 21.7797C38.6587 21.7797 38.6558 21.8203 38.6572 21.8359C38.6558 21.839 38.6543 21.914 38.7012 21.9328H38.6997ZM39.7545 21.5953C39.8161 21.6265 39.9318 21.6125 39.9274 21.5078L39.9245 21.4578C39.9113 21.4265 39.8776 21.4344 39.8703 21.4656C39.8673 21.4765 39.8747 21.4937 39.8644 21.5C39.86 21.5047 39.8395 21.5015 39.841 21.4719C39.841 21.4625 39.8351 21.4531 39.8307 21.4469C39.8263 21.4437 39.8248 21.4437 39.8161 21.4437C39.8087 21.4437 39.8087 21.4469 39.8043 21.4547L39.7999 21.4781C39.7985 21.489 39.7941 21.4937 39.7868 21.4937C39.7794 21.4937 39.7809 21.4937 39.775 21.4906C39.7706 21.4859 39.7662 21.4844 39.7662 21.4765C39.7662 21.4687 39.7648 21.4562 39.7618 21.45C39.7589 21.4453 39.7531 21.4437 39.7472 21.4422C39.7135 21.4422 39.7106 21.4828 39.712 21.4984C39.7106 21.5015 39.7091 21.575 39.756 21.5953H39.7545ZM40.301 22.4437C40.194 22.5734 40.2409 22.7875 40.2658 22.8344C40.301 22.9094 40.3288 22.9578 40.3977 22.9953C40.4606 23.0437 40.5105 23.014 40.5368 22.9797C40.5998 22.9094 40.6013 22.7297 40.6306 22.6953C40.6511 22.6297 40.7038 22.6406 40.7287 22.6703C40.752 22.7056 40.7833 22.734 40.8196 22.7531C40.8782 22.8078 40.9485 22.8187 41.0188 22.7687C41.0657 22.739 41.0965 22.7031 41.1243 22.6297C41.1536 22.5422 41.1389 22.1359 41.1316 21.8953L41.0701 21.5594C41.0701 21.5562 41.0628 21.4 41.0554 21.364C41.0554 21.3484 41.051 21.3437 41.0657 21.3453C41.0818 21.3609 41.0833 21.3609 41.095 21.3656C41.1096 21.3687 41.1243 21.339 41.114 21.314L40.9675 21.0234C40.9558 21.0109 40.9397 20.9984 40.9207 21.0265C40.9094 21.0374 40.9005 21.0507 40.8944 21.0655C40.8883 21.0803 40.8853 21.0963 40.8855 21.1125C40.8899 21.1812 40.9001 21.2515 40.9045 21.3203L40.9631 21.6734C40.9822 21.9234 40.9866 22.1297 41.0056 22.3812C41.0027 22.4875 40.9719 22.5797 40.9426 22.5937C40.9426 22.5937 40.8987 22.6203 40.8694 22.5906C40.8474 22.5812 40.761 22.4359 40.761 22.4359C40.717 22.3937 40.6877 22.4047 40.657 22.4359C40.5691 22.5265 40.531 22.6922 40.4709 22.8078C40.4563 22.8344 40.4123 22.8547 40.3654 22.8062C40.2453 22.6297 40.3156 22.3797 40.301 22.4437ZM39.7824 20.9797C39.838 21.0031 39.8761 21.1234 39.8644 21.1828C39.8527 21.2531 39.8234 21.3312 39.8029 21.3219C39.7794 21.3125 39.8175 21.25 39.7955 21.1844C39.7838 21.1406 39.7076 21.0625 39.7164 21.0406C39.7018 20.9922 39.7487 20.9703 39.7824 20.9781V20.9797Z" fill="white"/>
<path fill-rule="evenodd" clip-rule="evenodd" d="M40.4796 22.5157C40.4899 22.3719 40.4708 22.2844 40.4679 22.2C40.465 22.1157 40.3785 21.4719 40.361 21.4094C40.339 21.2875 40.4445 21.3938 40.4327 21.3219C40.3961 21.2344 40.3068 21.1047 40.2789 21.0282C40.2613 20.9969 40.2687 20.9657 40.2306 21.0204C40.1978 21.1162 40.1862 21.2189 40.1969 21.3204C40.2877 21.825 40.38 22.2438 40.3654 22.7235C40.4093 22.7235 40.4577 22.6188 40.4796 22.5157ZM41.4231 21.1829C41.4744 21.2094 41.5037 21.3594 41.4978 21.4016C41.4875 21.4797 41.4612 21.5641 41.4421 21.5532C41.4201 21.5438 41.4465 21.4375 41.4363 21.4047C41.4245 21.3579 41.3557 21.2735 41.363 21.2485C41.3484 21.1954 41.3923 21.1735 41.4231 21.1829ZM37.6771 22.2438C37.7255 22.2641 37.7548 22.3735 37.7504 22.4047C37.7386 22.4625 37.7137 22.525 37.6947 22.5157C37.6756 22.5094 37.6991 22.4313 37.6903 22.4063C37.6859 22.3485 37.6185 22.3172 37.62 22.2922C37.6083 22.2454 37.6493 22.2375 37.6786 22.2438H37.6771Z" fill="white"/>
<path fill-rule="evenodd" clip-rule="evenodd" d="M38.8434 22.4095C38.9049 22.4126 38.9356 22.4657 38.8785 22.4876C38.8199 22.5079 38.7657 22.5251 38.7642 22.6126C38.7862 22.7376 38.7349 22.6938 38.7056 22.6782C38.6705 22.6501 38.5709 22.5845 38.5562 22.4438C38.5547 22.411 38.5797 22.3813 38.6192 22.3813C38.6778 22.3985 38.7657 22.4001 38.8434 22.4095Z" fill="#165D31"/>
<path fill-rule="evenodd" clip-rule="evenodd" d="M36.3894 20.9438C36.4598 20.9657 36.4642 21.0782 36.4598 21.111C36.4495 21.1704 36.4246 21.2344 36.407 21.2266C36.3865 21.2188 36.407 21.1376 36.3968 21.1126C36.3865 21.0782 36.3264 21.0126 36.3323 20.9938C36.3191 20.9547 36.3616 20.936 36.3894 20.9438ZM37.7944 21.4688C37.7387 21.5001 37.7182 21.5938 37.7519 21.6501C37.7841 21.6969 37.8339 21.6797 37.8398 21.6797C37.894 21.686 37.9262 21.5719 37.9262 21.5719C37.9262 21.5719 37.9277 21.5407 37.8647 21.6016C37.8368 21.6063 37.8354 21.5954 37.8281 21.5797C37.8214 21.55 37.8239 21.5187 37.8354 21.4907C37.8456 21.4626 37.8251 21.4501 37.7944 21.4688ZM38.2046 20.9001C38.1753 20.9204 38.1211 20.9813 38.1196 21.0501C38.1181 21.0891 38.1108 21.0891 38.1342 21.1126C38.1533 21.1407 38.1694 21.1391 38.2046 21.1188C38.2133 21.1129 38.2208 21.1052 38.2266 21.096C38.2324 21.0869 38.2364 21.0765 38.2383 21.0657C38.247 21.0219 38.1943 21.0876 38.1884 21.0376C38.1767 20.9907 38.2104 20.9719 38.2427 20.9282C38.2427 20.8969 38.2427 20.8766 38.2031 20.9001H38.2046ZM38.5327 20.9626C38.5198 21.0195 38.512 21.0775 38.5093 21.136C38.5005 21.1797 38.5532 21.1985 38.5752 21.1422C38.6104 21.0407 38.6104 20.9969 38.6133 20.9547C38.603 20.8876 38.5606 20.8891 38.5327 20.9626ZM40.613 22.0922C40.6189 22.0844 40.906 21.8672 40.906 21.8672C40.9353 21.8563 40.928 21.9797 40.9148 21.9782C40.8257 22.0697 40.7233 22.1452 40.6115 22.2016C40.5969 22.2126 40.5837 22.1188 40.6115 22.0922H40.613ZM40.8723 22.0891C40.9236 22.1157 40.9441 22.2735 40.9382 22.3157C40.9382 22.4001 40.8899 22.4657 40.8694 22.4563C40.8489 22.4454 40.8723 22.3516 40.862 22.3188C40.8503 22.2719 40.8078 22.186 40.8152 22.161C40.8005 22.1079 40.8415 22.0797 40.8738 22.0891H40.8723ZM39.1729 22.7672C39.1967 22.7377 39.2243 22.7119 39.255 22.6907C39.2843 22.6751 39.3106 22.7032 39.3092 22.7016C39.3136 22.7329 39.2916 22.7594 39.2989 22.8001C39.3048 22.8157 39.3092 22.8344 39.337 22.8282C39.3824 22.7891 39.4249 22.786 39.4688 22.7844C39.5055 22.786 39.5069 22.8501 39.4835 22.8501C39.4 22.8688 39.3634 22.8938 39.3033 22.9172C39.274 22.936 39.2506 22.9126 39.2506 22.911C39.2506 22.9094 39.2344 22.8938 39.2447 22.8532C39.2476 22.8219 39.2359 22.8032 39.2095 22.8063C39.192 22.8188 39.1744 22.8251 39.1656 22.8016C39.1612 22.786 39.1597 22.7766 39.1729 22.7672ZM41.1741 22.8516C41.1858 22.8672 41.1946 22.8829 41.1726 22.911L41.1184 22.961C41.1096 22.9766 41.1038 23.0047 41.1331 23.0126C41.1858 23.0282 41.3089 22.9422 41.3089 22.9407C41.3294 22.9251 41.3235 22.8938 41.3206 22.8938C41.3089 22.8797 41.2825 22.8891 41.2649 22.886C41.2561 22.886 41.2283 22.8829 41.2415 22.8547C41.2513 22.8409 41.2592 22.8257 41.2649 22.8094C41.2722 22.7907 41.2649 22.7782 41.2356 22.7672C41.2049 22.761 41.1917 22.7641 41.158 22.7672C41.1404 22.7704 41.1345 22.7797 41.1301 22.8032C41.1316 22.8391 41.1521 22.8376 41.1741 22.8501V22.8516Z" fill="white"/>
<path fill-rule="evenodd" clip-rule="evenodd" d="M39.1831 21.964C39.1758 21.9796 39.1494 21.9796 39.1245 21.964C39.0996 21.9483 39.085 21.9233 39.0937 21.9093C39.1025 21.8952 39.1274 21.8952 39.1523 21.9093C39.1772 21.9233 39.1904 21.9499 39.1831 21.964ZM37.8793 21.1265C37.8646 21.1312 37.8441 21.1171 37.8353 21.0952C37.8265 21.0733 37.8309 21.0546 37.8456 21.0499C37.8602 21.0452 37.8793 21.0608 37.8895 21.0812C37.8998 21.1015 37.8939 21.1233 37.8778 21.128L37.8793 21.1265ZM40.4591 24.8593C40.5968 24.8655 40.7257 24.8593 40.862 24.8671C40.8869 24.8905 40.8693 24.9452 40.8532 24.9421L40.7389 24.9374C40.7375 24.8905 40.6261 24.8983 40.6291 24.939C40.569 24.9468 40.5148 24.9374 40.4533 24.9343C40.4357 24.9108 40.4386 24.8687 40.4591 24.8593Z" fill="#165D31"/>
</g>
<path d="M181.174 25.4209C181.174 25.3385 181.19 25.2616 181.223 25.1899C181.255 25.1183 181.298 25.0557 181.352 25.002C181.405 24.9482 181.466 24.9071 181.534 24.8784C181.606 24.8462 181.681 24.8301 181.76 24.8301C181.839 24.8301 181.914 24.8462 181.985 24.8784C182.057 24.9071 182.12 24.9482 182.173 25.002C182.227 25.0557 182.268 25.1183 182.297 25.1899C182.329 25.2616 182.345 25.3385 182.345 25.4209C182.345 25.5033 182.329 25.5802 182.297 25.6519C182.268 25.7199 182.227 25.7808 182.173 25.8345C182.12 25.8846 182.057 25.9258 181.985 25.958C181.914 25.9867 181.839 26.001 181.76 26.001C181.681 26.001 181.606 25.9867 181.534 25.958C181.466 25.9258 181.405 25.8846 181.352 25.8345C181.298 25.7808 181.255 25.7199 181.223 25.6519C181.19 25.5802 181.174 25.5033 181.174 25.4209ZM181.174 22.7354C181.174 22.653 181.19 22.576 181.223 22.5044C181.255 22.4328 181.298 22.3701 181.352 22.3164C181.405 22.2627 181.466 22.2215 181.534 22.1929C181.606 22.1606 181.681 22.1445 181.76 22.1445C181.839 22.1445 181.914 22.1606 181.985 22.1929C182.057 22.2215 182.12 22.2627 182.173 22.3164C182.227 22.3701 182.268 22.4328 182.297 22.5044C182.329 22.576 182.345 22.653 182.345 22.7354C182.345 22.8177 182.329 22.8947 182.297 22.9663C182.268 23.0343 182.227 23.0952 182.173 23.1489C182.12 23.1991 182.057 23.2402 181.985 23.2725C181.914 23.3011 181.839 23.3154 181.76 23.3154C181.681 23.3154 181.606 23.3011 181.534 23.2725C181.466 23.2402 181.405 23.1991 181.352 23.1489C181.298 23.0952 181.255 23.0343 181.223 22.9663C181.19 22.8947 181.174 22.8177 181.174 22.7354ZM189.457 26.0654C188.83 26.0654 188.323 25.8649 187.937 25.4639C187.894 25.4209 187.854 25.3761 187.818 25.3296C187.593 25.5767 187.317 25.7629 186.991 25.8882C186.705 26.0028 186.404 26.0601 186.089 26.0601C186.032 26.0601 185.974 26.0583 185.917 26.0547C185.537 26.0296 185.188 25.924 184.87 25.7378C184.1 25.2938 183.715 24.5579 183.715 23.5303C183.715 22.7533 183.928 22.1374 184.354 21.6826C184.823 21.1885 185.471 20.9396 186.298 20.936H186.314C186.787 20.936 187.21 21.0184 187.582 21.1831C188.101 21.4087 188.361 21.7292 188.361 22.1445V24.0889C188.361 24.5007 188.472 24.8211 188.694 25.0503C188.894 25.2544 189.149 25.3564 189.457 25.3564V26.0654ZM187.421 22.1445C187.421 21.9977 187.317 21.8796 187.109 21.79C186.88 21.6898 186.615 21.6396 186.314 21.6396H186.298C185.797 21.6396 185.405 21.79 185.122 22.0908C184.811 22.4202 184.655 22.9001 184.655 23.5303C184.655 24.3288 184.918 24.8802 185.444 25.1846C185.62 25.2848 185.804 25.3403 185.998 25.3511C186.03 25.3547 186.062 25.3564 186.094 25.3564C186.255 25.3564 186.411 25.326 186.562 25.2651C187.052 25.0718 187.339 24.6797 187.421 24.0889V22.1445ZM186.255 19.5181C186.255 19.4357 186.271 19.3587 186.304 19.2871C186.336 19.2155 186.379 19.1528 186.433 19.0991C186.486 19.0454 186.549 19.0042 186.621 18.9756C186.692 18.9434 186.769 18.9272 186.852 18.9272C186.93 18.9272 187.004 18.9434 187.072 18.9756C187.143 19.0042 187.204 19.0454 187.254 19.0991C187.308 19.1528 187.349 19.2155 187.378 19.2871C187.41 19.3587 187.426 19.4357 187.426 19.5181C187.426 19.6004 187.41 19.6774 187.378 19.749C187.349 19.8171 187.308 19.8779 187.254 19.9316C187.204 19.9818 187.143 20.0229 187.072 20.0552C187.004 20.0838 186.93 20.0981 186.852 20.0981C186.769 20.0981 186.692 20.0838 186.621 20.0552C186.549 20.0229 186.486 19.9818 186.433 19.9316C186.379 19.8779 186.336 19.8171 186.304 19.749C186.271 19.6774 186.255 19.6004 186.255 19.5181ZM184.854 19.5181C184.854 19.4357 184.87 19.3587 184.902 19.2871C184.934 19.2155 184.977 19.1528 185.031 19.0991C185.084 19.0454 185.145 19.0042 185.213 18.9756C185.285 18.9434 185.36 18.9272 185.439 18.9272C185.518 18.9272 185.593 18.9434 185.665 18.9756C185.736 19.0042 185.799 19.0454 185.853 19.0991C185.906 19.1528 185.947 19.2155 185.976 19.2871C186.008 19.3587 186.024 19.4357 186.024 19.5181C186.024 19.6004 186.008 19.6774 185.976 19.749C185.947 19.8171 185.906 19.8779 185.853 19.9316C185.799 19.9818 185.736 20.0229 185.665 20.0552C185.593 20.0838 185.518 20.0981 185.439 20.0981C185.36 20.0981 185.285 20.0838 185.213 20.0552C185.145 20.0229 185.084 19.9818 185.031 19.9316C184.977 19.8779 184.934 19.8171 184.902 19.749C184.87 19.6774 184.854 19.6004 184.854 19.5181ZM191.637 25.0234C191.823 25.1702 192.024 25.2884 192.239 25.3779C192.457 25.2884 192.66 25.1702 192.846 25.0234C193.304 24.6618 193.617 24.173 193.786 23.5571C193.861 23.2814 193.898 23.029 193.898 22.7998C193.898 22.4811 193.825 22.2269 193.678 22.0371C193.556 21.876 193.381 21.765 193.152 21.7041C192.998 21.6611 192.822 21.6396 192.625 21.6396H191.852C191.655 21.6396 191.481 21.6611 191.331 21.7041C191.102 21.765 190.926 21.876 190.805 22.0371C190.658 22.2269 190.584 22.4811 190.584 22.7998C190.584 23.029 190.622 23.2814 190.697 23.5571C190.866 24.173 191.179 24.6618 191.637 25.0234ZM189.081 26.0654V25.3564H190.778C190.294 24.9196 189.96 24.3664 189.773 23.6968C189.684 23.3674 189.639 23.0684 189.639 22.7998C189.639 22.3558 189.756 21.9834 189.988 21.6826C190.228 21.3747 190.568 21.1598 191.009 21.0381C191.267 20.9665 191.548 20.9307 191.852 20.9307H192.625C192.933 20.9307 193.216 20.9665 193.474 21.0381C193.915 21.1598 194.253 21.3747 194.489 21.6826C194.722 21.9834 194.838 22.3558 194.838 22.7998C194.838 23.0684 194.794 23.3674 194.704 23.6968C194.521 24.3664 194.187 24.9196 193.7 25.3564H195.375V26.0654H189.081ZM191.643 19.8511C191.643 19.7687 191.659 19.6917 191.691 19.6201C191.723 19.5485 191.766 19.4858 191.82 19.4321C191.874 19.3784 191.934 19.3372 192.002 19.3086C192.074 19.2764 192.149 19.2603 192.228 19.2603C192.307 19.2603 192.382 19.2764 192.454 19.3086C192.525 19.3372 192.588 19.3784 192.642 19.4321C192.695 19.4858 192.736 19.5485 192.765 19.6201C192.797 19.6917 192.813 19.7687 192.813 19.8511C192.813 19.9334 192.797 20.0104 192.765 20.082C192.736 20.1501 192.695 20.2109 192.642 20.2646C192.588 20.3148 192.525 20.356 192.454 20.3882C192.382 20.4168 192.307 20.4312 192.228 20.4312C192.149 20.4312 192.074 20.4168 192.002 20.3882C191.934 20.356 191.874 20.3148 191.82 20.2646C191.766 20.2109 191.723 20.1501 191.691 20.082C191.659 20.0104 191.643 19.9334 191.643 19.8511ZM196.691 24.3843V19.8564H197.631V24.3843C197.631 24.6743 197.73 24.916 197.927 25.1094C198.091 25.2741 198.278 25.3564 198.485 25.3564H199.329V26.0654H198.485C197.966 26.0654 197.529 25.8882 197.175 25.5337L197.164 25.5176L197.148 25.5337C196.793 25.8882 196.357 26.0654 195.837 26.0654H195V25.3564H195.837C196.045 25.3564 196.231 25.2741 196.396 25.1094C196.593 24.916 196.691 24.6743 196.691 24.3843ZM201.584 19.8564V24.3843C201.584 24.8283 201.423 25.2114 201.101 25.5337C200.747 25.8882 200.31 26.0654 199.791 26.0654H198.953V25.3564H199.791C199.998 25.3564 200.184 25.2741 200.349 25.1094C200.546 24.916 200.645 24.6743 200.645 24.3843V19.8564H201.584ZM203.604 19.8564V25.7109H202.664V19.8564H203.604ZM210.001 26.0654C209.611 26.0511 209.269 25.958 208.975 25.7861C208.886 26.2552 208.737 26.6849 208.529 27.0752C208.418 27.2865 208.268 27.5049 208.078 27.7305C207.903 27.9417 207.693 28.1584 207.45 28.3804L206.827 27.9399C207.049 27.7358 207.237 27.5407 207.391 27.3545C207.552 27.1611 207.677 26.9821 207.767 26.8174C207.971 26.4378 208.073 26.0099 208.073 25.5337C208.073 25.4549 208.069 25.3743 208.062 25.292V21.8975H209.002V24.2393C209.027 24.5794 209.136 24.8498 209.33 25.0503C209.53 25.2544 209.783 25.3564 210.087 25.3564H210.441V26.0654H210.001ZM212.074 20.4634C212.074 20.381 212.09 20.304 212.123 20.2324C212.155 20.1608 212.198 20.0981 212.251 20.0444C212.305 19.9907 212.368 19.9495 212.439 19.9209C212.511 19.8887 212.588 19.8726 212.67 19.8726C212.749 19.8726 212.823 19.8887 212.891 19.9209C212.962 19.9495 213.023 19.9907 213.073 20.0444C213.127 20.0981 213.168 20.1608 213.197 20.2324C213.229 20.304 213.245 20.381 213.245 20.4634C213.245 20.5457 213.229 20.6227 213.197 20.6943C213.168 20.7624 213.127 20.8232 213.073 20.877C213.023 20.9271 212.962 20.9683 212.891 21.0005C212.823 21.0291 212.749 21.0435 212.67 21.0435C212.588 21.0435 212.511 21.0291 212.439 21.0005C212.368 20.9683 212.305 20.9271 212.251 20.877C212.198 20.8232 212.155 20.7624 212.123 20.6943C212.09 20.6227 212.074 20.5457 212.074 20.4634ZM210.672 20.4634C210.672 20.381 210.688 20.304 210.721 20.2324C210.753 20.1608 210.796 20.0981 210.85 20.0444C210.903 19.9907 210.964 19.9495 211.032 19.9209C211.104 19.8887 211.179 19.8726 211.258 19.8726C211.337 19.8726 211.412 19.8887 211.483 19.9209C211.555 19.9495 211.618 19.9907 211.671 20.0444C211.725 20.0981 211.766 20.1608 211.795 20.2324C211.827 20.304 211.843 20.381 211.843 20.4634C211.843 20.5457 211.827 20.6227 211.795 20.6943C211.766 20.7624 211.725 20.8232 211.671 20.877C211.618 20.9271 211.555 20.9683 211.483 21.0005C211.412 21.0291 211.337 21.0435 211.258 21.0435C211.179 21.0435 211.104 21.0291 211.032 21.0005C210.964 20.9683 210.903 20.9271 210.85 20.877C210.796 20.8232 210.753 20.7624 210.721 20.6943C210.688 20.6227 210.672 20.5457 210.672 20.4634ZM210.071 26.0654V25.3564H210.409C210.728 25.3564 210.986 25.2562 211.183 25.0557C211.405 24.8265 211.516 24.5042 211.516 24.0889V21.8975H212.461V24.2017C212.479 24.5597 212.588 24.8426 212.789 25.0503C212.989 25.2544 213.242 25.3564 213.546 25.3564H213.906V26.0654H213.546C212.919 26.0654 212.413 25.8649 212.026 25.4639L211.988 25.4263L211.945 25.4692C211.559 25.8667 211.047 26.0654 210.409 26.0654H210.071ZM214.072 22.4292C214.133 22.2716 214.207 22.1248 214.292 21.9888C214.382 21.8491 214.484 21.7238 214.599 21.6128C214.831 21.3872 215.109 21.2171 215.431 21.1025C215.75 20.988 216.101 20.9307 216.484 20.9307C217.547 20.9307 218.292 21.3371 218.718 22.1499C218.972 22.6333 219.166 23.4909 219.298 24.7227C219.348 25.1595 219.39 25.4746 219.422 25.668C219.425 25.6823 219.427 25.6966 219.427 25.7109C219.427 25.7933 219.391 25.8667 219.32 25.9312C219.241 26.0063 219.137 26.0493 219.008 26.0601C218.976 26.0636 218.946 26.0654 218.917 26.0654H213.53V25.3564L218.428 25.3618C218.414 25.2365 218.392 25.0431 218.364 24.7817C218.249 23.7612 218.106 23.0505 217.934 22.6494C217.648 21.9762 217.164 21.6396 216.484 21.6396C216.244 21.6396 216.027 21.6737 215.834 21.7417C215.644 21.8097 215.481 21.91 215.345 22.0425C215.266 22.1177 215.198 22.2018 215.141 22.2949C215.077 22.3916 215.023 22.499 214.98 22.6172L214.072 22.4292ZM215.764 19.6094C215.764 19.527 215.78 19.45 215.812 19.3784C215.845 19.3068 215.888 19.2441 215.941 19.1904C215.995 19.1367 216.056 19.0955 216.124 19.0669C216.196 19.0347 216.271 19.0186 216.35 19.0186C216.428 19.0186 216.504 19.0347 216.575 19.0669C216.647 19.0955 216.709 19.1367 216.763 19.1904C216.817 19.2441 216.858 19.3068 216.887 19.3784C216.919 19.45 216.935 19.527 216.935 19.6094C216.935 19.6917 216.919 19.7687 216.887 19.8403C216.858 19.9084 216.817 19.9692 216.763 20.0229C216.709 20.0731 216.647 20.1143 216.575 20.1465C216.504 20.1751 216.428 20.1895 216.35 20.1895C216.271 20.1895 216.196 20.1751 216.124 20.1465C216.056 20.1143 215.995 20.0731 215.941 20.0229C215.888 19.9692 215.845 19.9084 215.812 19.8403C215.78 19.7687 215.764 19.6917 215.764 19.6094ZM221.458 19.8564V25.7109H220.518V19.8564H221.458Z" fill="#3E3E3E"/>
<g filter="url(#filter0_d_2732_499)">
<mask id="path-24-inside-1_2732_499" fill="white">
<path d="M8 38C8 35.7909 9.79086 34 12 34H73C75.2091 34 77 35.7909 77 38V53.0566H8V38Z"/>
</mask>
<path d="M8 38C8 35.7909 9.79086 34 12 34H73C75.2091 34 77 35.7909 77 38V53.0566H8V38Z" fill="white"/>
<path d="M8 34H77H8ZM77 53.3566H8V52.7566H77V53.3566ZM8 53.0566V34V53.0566ZM77 34V53.0566V34Z" fill="#E8E8E8" mask="url(#path-24-inside-1_2732_499)"/>
<g clip-path="url(#clip1_2732_499)">
<path d="M16 39H28V48.0566H16V39Z" fill="black"/>
<path fill-rule="evenodd" clip-rule="evenodd" d="M16 39H27.9994V39.6969H16V39ZM16 40.3939H27.9994V41.0908H16V40.3939ZM16 41.786H27.9994V42.4847H16V41.786ZM16 43.1798H27.9994V43.8768H16V43.1798ZM16 44.5737H27.9994V45.2706H16V44.5737ZM16 45.9658H27.9994V46.6627H16V45.9658ZM16 47.3597H27.9994V48.0566H16V47.3597Z" fill="#BD3D44"/>
<path fill-rule="evenodd" clip-rule="evenodd" d="M16 39.698H27.9994V40.3947H16V39.698ZM16 41.0914H27.9994V41.7864H16V41.0914ZM16 42.4831H27.9994V43.1798H16V42.4831ZM16 43.8765H27.9994V44.5733H16V43.8765ZM16 45.27H27.9994V45.9667H16V45.27ZM16 46.6617H27.9994V47.3584H16V46.6617Z" fill="white"/>
<path fill-rule="evenodd" clip-rule="evenodd" d="M16 39H22.8393V43.8768H16V39Z" fill="#192F5D"/>
<path fill-rule="evenodd" clip-rule="evenodd" d="M16.5696 39.2087L16.6328 39.4015H16.8332L16.6715 39.5201L16.733 39.7146L16.5696 39.5944L16.4079 39.7129L16.4694 39.5201L16.3059 39.4015H16.5098L16.5696 39.2087ZM17.7103 39.2087L17.7719 39.4015H17.974L17.8105 39.5201L17.872 39.7146L17.7103 39.5944L17.5469 39.7129L17.6084 39.5201L17.4467 39.4015H17.6471L17.7103 39.2087ZM18.8493 39.2087L18.9126 39.4015H19.1112L18.9495 39.5201L19.011 39.7146L18.8476 39.5944L18.6859 39.7129L18.7474 39.5201L18.5839 39.4015H18.7861L18.8493 39.2087ZM19.9901 39.2087L20.0516 39.4015H20.2538L20.0903 39.5201L20.1536 39.7146L19.9901 39.5944L19.8266 39.7129L19.8899 39.5201L19.7264 39.4015H19.9268L19.9901 39.2087ZM21.1291 39.2087L21.1924 39.4015H21.3928L21.2311 39.5201L21.2926 39.7146L21.1291 39.5944L20.9674 39.7129L21.0289 39.5201L20.8672 39.4015H21.0676L21.1291 39.2087ZM22.2699 39.2087L22.3314 39.4015H22.5335L22.3701 39.5201L22.4333 39.7146L22.2699 39.5944L22.1064 39.7129L22.1697 39.5201L22.0062 39.4015H22.2084L22.2699 39.2087ZM17.1408 39.6969L17.2023 39.8898H17.4045L17.241 40.0083L17.3008 40.2011L17.1426 40.0826L16.9791 40.2011L17.0371 40.0083L16.8789 39.8898H17.0793L17.1408 39.6969ZM18.2798 39.6969L18.3431 39.8898H18.5435L18.38 40.0083L18.4433 40.2011L18.2798 40.0826L18.1164 40.2011L18.1796 40.0083L18.0162 39.8898H18.2183L18.2798 39.6969ZM19.4206 39.6969L19.4821 39.8898H19.6843L19.5208 40.0083L19.5823 40.2011L19.4206 40.0826L19.2571 40.2011L19.3187 40.0083L19.1569 39.8898H19.3573L19.4206 39.6969ZM20.5596 39.6969L20.6229 39.8898H20.8233L20.6598 40.0083L20.7231 40.2011L20.5596 40.0826L20.3979 40.2011L20.4594 40.0083L20.2959 39.8898H20.4998L20.5596 39.6969ZM21.7004 39.6969L21.7619 39.8898H21.964L21.8006 40.0083L21.8621 40.2011L21.7004 40.0826L21.5369 40.2011L21.5984 40.0083L21.4367 39.8898H21.6371L21.7004 39.6969ZM16.5696 40.1834L16.6328 40.3797H16.8332L16.6715 40.4982L16.733 40.6911L16.5696 40.5708L16.4079 40.6911L16.4694 40.4965L16.3059 40.378H16.5098L16.5696 40.1834ZM17.7103 40.1834L17.7719 40.378H17.974L17.8105 40.4965L17.872 40.6893L17.7103 40.569L17.5469 40.6893L17.6084 40.4947L17.4467 40.3762H17.6471L17.7103 40.1834ZM18.8493 40.1834L18.9126 40.378H19.1112L18.9495 40.4965L19.011 40.6893L18.8476 40.569L18.6859 40.6893L18.7474 40.4947L18.5839 40.3762H18.7861L18.8493 40.1834ZM19.9901 40.1834L20.0516 40.378H20.2538L20.0903 40.4965L20.1536 40.6893L19.9901 40.569L19.8266 40.6893L19.8899 40.4947L19.7264 40.3762H19.9268L19.9901 40.1834ZM21.1291 40.1834L21.1924 40.378H21.3928L21.2311 40.4965L21.2926 40.6893L21.1291 40.569L20.9674 40.6893L21.0289 40.4947L20.8672 40.3762H21.0676L21.1291 40.1834ZM22.2699 40.1834L22.3314 40.378H22.5335L22.3701 40.4965L22.4333 40.6893L22.2699 40.569L22.1064 40.6893L22.1697 40.4947L22.0062 40.3762H22.2084L22.2699 40.1834ZM17.1408 40.6716L17.2023 40.8644H17.4045L17.241 40.9829L17.3025 41.1775L17.1408 41.0572L16.9774 41.1757L17.0389 40.9829L16.8772 40.8644H17.0776L17.1408 40.6716ZM18.2798 40.6716L18.3431 40.8644H18.5435L18.38 40.9829L18.4433 41.1775L18.2798 41.0572L18.1164 41.1757L18.1796 40.9829L18.0162 40.8644H18.2183L18.2798 40.6716ZM19.4206 40.6716L19.4821 40.8644H19.6843L19.5208 40.9829L19.5823 41.1775L19.4206 41.0572L19.2571 41.1757L19.3187 40.9829L19.1569 40.8644H19.3573L19.4206 40.6716ZM20.5596 40.6716L20.6229 40.8644H20.8233L20.6616 40.9829L20.7231 41.1775L20.5596 41.0572L20.3979 41.1757L20.4594 40.9829L20.2959 40.8644H20.4998L20.5596 40.6716ZM21.7004 40.6716L21.7619 40.8644H21.964L21.8006 40.9829L21.8621 41.1775L21.7004 41.0572L21.5369 41.1757L21.5984 40.9829L21.4367 40.8644H21.6371L21.7004 40.6716ZM16.5696 41.1598L16.6328 41.3526H16.8332L16.6715 41.4711L16.733 41.6657L16.5696 41.5454L16.4079 41.6639L16.4694 41.4711L16.3059 41.3526H16.5098L16.5696 41.1598ZM17.7103 41.1598L17.7719 41.3526H17.974L17.8105 41.4711L17.872 41.6639L17.7103 41.5454L17.5469 41.6639L17.6084 41.4711L17.4467 41.3526H17.6471L17.7103 41.1598ZM18.8493 41.1598L18.9126 41.3526H19.1112L18.9495 41.4711L19.011 41.6657L18.8476 41.5454L18.6859 41.6639L18.7474 41.4711L18.5839 41.3526H18.7861L18.8493 41.1598ZM19.9901 41.1598L20.0516 41.3526H20.2538L20.0903 41.4711L20.1536 41.6657L19.9901 41.5454L19.8266 41.6639L19.8899 41.4711L19.7264 41.3526H19.9268L19.9901 41.1598ZM21.1291 41.1598L21.1924 41.3526H21.3928L21.2311 41.4711L21.2926 41.6657L21.1291 41.5454L20.9674 41.6639L21.0289 41.4711L20.8672 41.3526H21.0676L21.1291 41.1598ZM22.2699 41.1598L22.3314 41.3526H22.5335L22.3701 41.4711L22.4333 41.6657L22.2699 41.5454L22.1064 41.6639L22.1697 41.4711L22.0062 41.3526H22.2084L22.2699 41.1598ZM17.1408 41.648L17.2023 41.8408H17.4045L17.241 41.9593L17.3025 42.1521L17.1408 42.0319L16.9774 42.1521L17.0389 41.9576L16.8772 41.839H17.0776L17.1408 41.648ZM18.2798 41.648L18.3431 41.8408H18.5435L18.38 41.9593L18.4433 42.1521L18.2798 42.0319L18.1164 42.1521L18.1796 41.9576L18.0162 41.839H18.2183L18.2798 41.648ZM19.4206 41.648L19.4821 41.8408H19.6843L19.5208 41.9593L19.5823 42.1521L19.4206 42.0319L19.2571 42.1521L19.3187 41.9576L19.1569 41.839H19.3573L19.4206 41.648ZM20.5596 41.648L20.6229 41.8408H20.8233L20.6616 41.9593L20.7231 42.1521L20.5596 42.0319L20.3979 42.1521L20.4594 41.9576L20.2959 41.839H20.4998L20.5596 41.648ZM21.7004 41.648L21.7619 41.8408H21.964L21.8006 41.9593L21.8621 42.1521L21.7004 42.0319L21.5369 42.1521L21.5984 41.9576L21.4367 41.839H21.6371L21.7004 41.648ZM16.5696 42.1344L16.6328 42.329H16.8332L16.6715 42.4475L16.733 42.6386L16.5696 42.5201L16.4079 42.6386L16.4694 42.4458L16.3059 42.3273H16.5098L16.5696 42.1344ZM17.7103 42.1344L17.7719 42.329H17.974L17.8105 42.4475L17.8738 42.6386L17.7103 42.5201L17.5469 42.6386L17.6101 42.4458L17.4467 42.3273H17.6471L17.7103 42.1344ZM18.8493 42.1344L18.9126 42.329H19.1112L18.9495 42.4475L19.011 42.6386L18.8476 42.5201L18.6859 42.6386L18.7474 42.4458L18.5839 42.3273H18.7861L18.8493 42.1344ZM19.9901 42.1344L20.0516 42.329H20.2538L20.0903 42.4475L20.1536 42.6386L19.9901 42.5201L19.8266 42.6386L19.8899 42.4458L19.7264 42.3273H19.9268L19.9901 42.1344ZM21.1291 42.1344L21.1924 42.329H21.3928L21.2311 42.4475L21.2926 42.6386L21.1291 42.5201L20.9674 42.6386L21.0289 42.4458L20.8672 42.3273H21.0676L21.1291 42.1344ZM22.2699 42.1344L22.3314 42.329H22.5335L22.3701 42.4475L22.4333 42.6386L22.2699 42.5201L22.1064 42.6386L22.1697 42.4458L22.0062 42.3273H22.2084L22.2699 42.1344ZM17.1408 42.6227L17.2023 42.8155H17.4045L17.241 42.934L17.3025 43.1286L17.1408 43.0083L16.9774 43.1268L17.0389 42.934L16.8772 42.8155H17.0776L17.1408 42.6227ZM18.2798 42.6227L18.3431 42.8155H18.5435L18.38 42.934L18.4433 43.1286L18.2798 43.0083L18.1164 43.1268L18.1796 42.934L18.0162 42.8155H18.2183L18.2798 42.6227ZM19.4206 42.6227L19.4821 42.8155H19.6843L19.5208 42.934L19.5823 43.1286L19.4206 43.0083L19.2571 43.1268L19.3187 42.934L19.1569 42.8155H19.3573L19.4206 42.6227ZM20.5596 42.6227L20.6229 42.8155H20.8233L20.6616 42.934L20.7231 43.1286L20.5596 43.0083L20.3979 43.1268L20.4594 42.934L20.2959 42.8155H20.4998L20.5596 42.6227ZM21.7004 42.6227L21.7619 42.8155H21.964L21.8006 42.934L21.8621 43.1286L21.7004 43.0083L21.5369 43.1268L21.5984 42.934L21.4367 42.8155H21.6371L21.7004 42.6227ZM16.5696 43.1109L16.6328 43.3037H16.8332L16.6715 43.4222L16.733 43.615L16.5696 43.4965L16.4079 43.615L16.4694 43.4204L16.3059 43.3019H16.5098L16.5696 43.1109ZM17.7103 43.1109L17.7719 43.3037H17.974L17.8105 43.4222L17.8738 43.615L17.7103 43.4965L17.5469 43.615L17.6101 43.4204L17.4467 43.3019H17.6471L17.7103 43.1109ZM18.8493 43.1109L18.9126 43.3037H19.1112L18.953 43.4222L19.0146 43.615L18.8511 43.4965L18.6894 43.615L18.7509 43.4204L18.5874 43.3019H18.7896L18.8493 43.1109ZM19.9901 43.1109L20.0516 43.3037H20.2538L20.0903 43.4222L20.1536 43.615L19.9901 43.4965L19.8266 43.615L19.8899 43.4204L19.7264 43.3019H19.9268L19.9901 43.1109ZM21.1291 43.1109L21.1924 43.3037H21.3928L21.2311 43.4222L21.2926 43.615L21.1291 43.4965L20.9674 43.615L21.0289 43.4204L20.8672 43.3019H21.0676L21.1291 43.1109ZM22.2699 43.1109L22.3314 43.3037H22.5335L22.3701 43.4222L22.4333 43.615L22.2699 43.4965L22.1064 43.615L22.1697 43.4204L22.0062 43.3019H22.2084L22.2699 43.1109Z" fill="white"/>
</g>
<path d="M31.9812 40.7219H35.4053V41.3152H32.6404V42.7141H35.1965V43.311H32.6404V44.8748H35.4382V45.4717H31.9812V40.7219ZM36.3318 40.7219H37.0679L39.2432 44.4536V40.7219H39.9097V45.4717H39.1626L36.991 41.707V45.4717H36.3318V40.7219ZM44.9304 42.1904H44.2566C44.2078 42.0244 44.1602 41.8987 44.1138 41.8132C44.0698 41.7253 44.0039 41.6375 43.916 41.5496C43.6963 41.3347 43.3765 41.2273 42.9565 41.2273C42.4634 41.2273 42.0789 41.3921 41.803 41.7217C41.5295 42.0513 41.3928 42.5151 41.3928 43.1133C41.3928 43.6895 41.5308 44.1423 41.8066 44.4719C42.0825 44.7991 42.4646 44.9626 42.9529 44.9626C43.4583 44.9626 43.8428 44.7795 44.1064 44.4133C44.2065 44.2815 44.2786 44.1484 44.3225 44.0142C44.3665 43.8774 44.3884 43.6919 44.3884 43.4575H42.9053V42.9155H44.9817V45.4424H44.5642L44.4067 44.8638C44.1895 45.1128 43.9636 45.2922 43.7292 45.4021C43.4973 45.5095 43.2214 45.5632 42.9016 45.5632C42.2351 45.5632 41.7029 45.3435 41.3049 44.9041C40.907 44.4622 40.708 43.8713 40.708 43.1316C40.708 42.365 40.9119 41.7559 41.3196 41.3042C41.7297 40.8501 42.2803 40.623 42.9712 40.623C43.6328 40.623 44.1333 40.8159 44.4727 41.2017C44.5996 41.3433 44.6948 41.4849 44.7583 41.6265C44.8242 41.7681 44.8816 41.9561 44.9304 42.1904ZM46.1169 40.7219H46.7761V44.8748H49.1785V45.4717H46.1169V40.7219ZM49.7424 40.7219H50.4016V45.4717H49.7424V40.7219ZM51.2329 43.886H51.9177V44.0215C51.9177 44.1924 51.9348 44.323 51.969 44.4133C52.0056 44.5012 52.0715 44.5842 52.1667 44.6624C52.3938 44.8625 52.7283 44.9626 53.1702 44.9626C53.5217 44.9626 53.8037 44.8943 54.0161 44.7576C54.2285 44.6208 54.3347 44.4377 54.3347 44.2083C54.3347 44.0764 54.2957 43.9458 54.2175 43.8164C54.1418 43.687 53.9978 43.5845 53.7854 43.5088L52.3206 43.1426C51.7175 42.9229 51.416 42.5579 51.416 42.0476V41.9744C51.416 41.7888 51.449 41.6228 51.5149 41.4763C51.5881 41.3127 51.6943 41.165 51.8335 41.0332C52.1338 40.7598 52.5598 40.623 53.1116 40.623C53.7317 40.623 54.1968 40.7866 54.5068 41.1138C54.6265 41.2383 54.7107 41.3628 54.7595 41.4873C54.8108 41.6118 54.8364 41.7827 54.8364 42L54.8474 42.1575H54.1589C54.1589 42.011 54.1492 41.9011 54.1296 41.8279C54.1125 41.7522 54.0833 41.6802 54.0417 41.6118C53.9612 41.4922 53.8354 41.3982 53.6646 41.3298C53.4961 41.2615 53.3081 41.2273 53.1006 41.2273C52.8052 41.2273 52.5635 41.2944 52.3755 41.4287C52.1973 41.5557 52.1082 41.7302 52.1082 41.9524V41.989C52.1082 42.1233 52.1436 42.2307 52.2144 42.3113C52.2876 42.3894 52.4219 42.4626 52.6172 42.531L54.137 42.9192C54.7205 43.1267 55.0122 43.5137 55.0122 44.0801V44.1423C55.0122 44.3376 54.9719 44.5208 54.8914 44.6917C54.8132 44.8601 54.6948 45.0127 54.5361 45.1494C54.3799 45.2861 54.1882 45.3899 53.9612 45.4607C53.7366 45.5291 53.4644 45.5632 53.1445 45.5632C52.5171 45.5632 52.041 45.4338 51.7163 45.175C51.394 44.9163 51.2329 44.5342 51.2329 44.0288V43.886ZM55.8655 40.7219H56.5247V42.6665H58.7769V40.7219H59.4434V45.4717H58.7769V43.2671H56.5247V45.4717H55.8655V40.7219Z" fill="#9A9A9A"/>
<mask id="path-33-inside-2_2732_499" fill="white">
<path d="M8 53.0566H77V72.1132H8V53.0566Z"/>
</mask>
<path d="M8 53.0566H77V72.1132H8V53.0566Z" fill="white"/>
<path d="M77 71.8132H8V72.4132H77V71.8132Z" fill="#E8E8E8" mask="url(#path-33-inside-2_2732_499)"/>
<g clip-path="url(#clip2_2732_499)">
<path d="M16 58.0566H28V67.1132H16V58.0566Z" fill="#EE1C25"/>
<path d="M17.4399 61.4077L18.2499 58.9624L19.0599 61.4077L16.8999 59.9133H19.5999L17.4399 61.4077Z" fill="#FFFF00"/>
<path d="M20.9534 59.0092L20.1198 59.1951L20.6758 58.543L20.6213 59.4206L20.1587 58.6437L20.9534 59.0092Z" fill="#FFFF00"/>
<path d="M21.7946 60.0822L20.9546 59.9282L21.7184 59.5442L21.3299 60.3317L21.2029 59.4351L21.7946 60.0822Z" fill="#FFFF00"/>
<path d="M21.672 61.5873L20.9675 61.102L21.8205 61.0649L21.1466 61.6245L21.3941 60.7538L21.672 61.5873Z" fill="#FFFF00"/>
<path d="M20.6122 62.5706L20.1487 61.8491L20.9497 62.1464L20.1133 62.4007L20.6758 61.6937L20.6122 62.5706Z" fill="#FFFF00"/>
</g>
<path d="M36.187 61.2617H35.5132C35.4741 61.0908 35.4326 60.9626 35.3887 60.8772C35.3447 60.7917 35.2751 60.7039 35.1799 60.6135C34.9456 60.3938 34.6233 60.2839 34.2131 60.2839C33.7322 60.2839 33.3562 60.4487 33.0852 60.7783C32.8167 61.1079 32.6824 61.5718 32.6824 62.1699C32.6824 62.7412 32.813 63.1929 33.0742 63.5249C33.3354 63.8545 33.6968 64.0193 34.1582 64.0193C34.5269 64.0193 34.8296 63.9106 35.0664 63.6934C35.3032 63.4761 35.4521 63.1672 35.5132 62.7668H36.187C36.126 63.1892 35.9905 63.5444 35.7805 63.8325C35.3972 64.3574 34.8625 64.6199 34.1765 64.6199C33.5002 64.6199 32.9668 64.405 32.5762 63.9753C32.1855 63.5432 31.9902 62.9536 31.9902 62.2065C31.9902 61.3179 32.2405 60.6538 32.741 60.2144C32.9631 60.0239 33.1853 59.8872 33.4075 59.8042C33.6296 59.7212 33.8921 59.6797 34.1948 59.6797C34.7612 59.6797 35.2239 59.8213 35.5828 60.1045C35.9417 60.3877 36.1431 60.7734 36.187 61.2617ZM37.033 59.7786H37.6921V61.7231H39.9443V59.7786H40.6108V64.5283H39.9443V62.3237H37.6921V64.5283H37.033V59.7786ZM41.7424 59.7786H42.4016V64.5283H41.7424V59.7786ZM43.5149 59.7786H44.251L46.4263 63.5103V59.7786H47.0928V64.5283H46.3457L44.1741 60.7637V64.5283H43.5149V59.7786ZM49.5427 59.7786H50.2385L51.9487 64.5283H51.231L50.7549 63.1147H48.9275L48.4148 64.5283H47.7117L49.5427 59.7786ZM49.8687 60.489L49.1362 62.5728H50.5571L49.8687 60.489Z" fill="#9A9A9A"/>
<mask id="path-43-inside-3_2732_499" fill="white">
<path d="M8 72.1133H77V87.1699C77 89.379 75.2091 91.1699 73 91.1699H12C9.79086 91.1699 8 89.379 8 87.1699V72.1133Z"/>
</mask>
<path d="M8 72.1133H77V87.1699C77 89.379 75.2091 91.1699 73 91.1699H12C9.79086 91.1699 8 89.379 8 87.1699V72.1133Z" fill="white"/>
<path d="M8 72.1133H77H8ZM77 87.1699C77 89.5447 75.0748 91.4699 72.7 91.4699H12.3C9.92518 91.4699 8 89.5447 8 87.1699C8 89.2133 9.79086 90.8699 12 90.8699H73C75.2091 90.8699 77 89.2133 77 87.1699ZM8 91.1699V72.1133V91.1699ZM77 72.1133V91.1699V72.1133Z" fill="#E8E8E8" mask="url(#path-43-inside-3_2732_499)"/>
<g clip-path="url(#clip3_2732_499)">
<path d="M16 83.1511H28V86.17H16V83.1511Z" fill="#FFCE00"/>
<path d="M16 77.1133H28V80.1321H16V77.1133Z" fill="black"/>
<path d="M16 80.1321H28V83.1509H16V80.1321Z" fill="#DD0000"/>
</g>
<path d="M35.5491 80.3037H34.8752C34.8264 80.1377 34.7788 80.012 34.7324 79.9265C34.6885 79.8386 34.6226 79.7507 34.5347 79.6628C34.3149 79.448 33.9951 79.3406 33.5752 79.3406C33.082 79.3406 32.6975 79.5054 32.4216 79.835C32.1482 80.1646 32.0115 80.6284 32.0115 81.2266C32.0115 81.8027 32.1494 82.2556 32.4253 82.5852C32.7012 82.9124 33.0833 83.0759 33.5715 83.0759C34.0769 83.0759 34.4614 82.8928 34.7251 82.5266C34.8252 82.3948 34.8972 82.2617 34.9412 82.1274C34.9851 81.9907 35.0071 81.8052 35.0071 81.5708H33.5239V81.0288H35.6003V83.5557H35.1829L35.0254 82.9771C34.8081 83.2261 34.5823 83.4055 34.3479 83.5154C34.116 83.6228 33.8401 83.6765 33.5203 83.6765C32.8538 83.6765 32.3215 83.4568 31.9236 83.0173C31.5256 82.5754 31.3267 81.9846 31.3267 81.2449C31.3267 80.4783 31.5305 79.8691 31.9382 79.4175C32.3484 78.9634 32.8989 78.7363 33.5898 78.7363C34.2515 78.7363 34.752 78.9292 35.0913 79.3149C35.2183 79.4565 35.3135 79.5981 35.377 79.7397C35.4429 79.8813 35.5002 80.0693 35.5491 80.3037ZM36.7356 78.8352H40.1597V79.4285H37.3948V80.8274H39.9509V81.4243H37.3948V82.988H40.1926V83.585H36.7356V78.8352ZM41.0862 78.8352H43.0637C43.3591 78.8352 43.5837 78.8462 43.7375 78.8682C43.8914 78.8877 44.0293 78.9304 44.1514 78.9963C44.564 79.2161 44.7703 79.5981 44.7703 80.1426C44.7703 80.4209 44.7166 80.6431 44.6091 80.8091C44.5042 80.9751 44.3345 81.1143 44.1001 81.2266C44.3345 81.3071 44.4919 81.4207 44.5725 81.5671C44.6531 81.7136 44.6934 81.9602 44.6934 82.3069V82.8562C44.6934 83.115 44.7544 83.3433 44.8765 83.541L44.9094 83.585H44.1257C44.0867 83.4604 44.0586 83.342 44.0415 83.2297C44.0244 83.115 44.0159 83.0076 44.0159 82.9075V82.3142C44.0159 82.0457 43.9524 81.8516 43.8254 81.7319C43.7571 81.6636 43.6692 81.6184 43.5618 81.5964C43.4543 81.5745 43.2749 81.5635 43.0234 81.5635H41.7454V83.585H41.0862V78.8352ZM41.7454 79.4285V80.9629H42.9905C43.2249 80.9629 43.3896 80.9556 43.4849 80.9409C43.5825 80.9238 43.6729 80.8921 43.7559 80.8457C43.9756 80.7261 44.0854 80.51 44.0854 80.1975C44.0854 80.0364 44.0525 79.8972 43.9866 79.78C43.9231 79.6604 43.8279 79.5725 43.7009 79.5164C43.5764 79.4578 43.3579 79.4285 43.0454 79.4285H41.7454ZM45.6455 83.585V78.8389H46.4475L47.9343 82.783L49.3772 78.8389H50.1792V83.585H49.5969V79.78L48.209 83.585H47.6743L46.2241 79.78V83.585H45.6455ZM52.4827 78.8352H53.1785L54.8887 83.585H54.1709L53.6948 82.1714H51.8674L51.3547 83.585H50.6516L52.4827 78.8352ZM52.8086 79.5457L52.0762 81.6294H53.4971L52.8086 79.5457ZM55.5149 78.8352H56.251L58.4263 82.5669V78.8352H59.0928V83.585H58.3457L56.1741 79.8203V83.585H55.5149V78.8352ZM59.6567 78.8352H60.4844L61.8613 81.0874L63.2163 78.8352H64.0073L62.1836 81.7136V83.585H61.5098V81.7136L59.6567 78.8352Z" fill="#9A9A9A"/>
</g>
<path d="M243.5 175C209.833 175 119 152 111.5 28.5" stroke="url(#paint0_linear_2732_499)"/>
<circle cx="112" cy="27" r="4.5" fill="white" stroke="#D4088C" stroke-width="3"/>
<defs>
<filter id="filter0_d_2732_499" x="2" y="28" width="81" height="69.1699" filterUnits="userSpaceOnUse" color-interpolation-filters="sRGB">
<feFlood flood-opacity="0" result="BackgroundImageFix"/>
<feColorMatrix in="SourceAlpha" type="matrix" values="0 0 0 0 0 0 0 0 0 0 0 0 0 0 0 0 0 0 127 0" result="hardAlpha"/>
<feOffset/>
<feGaussianBlur stdDeviation="3"/>
<feComposite in2="hardAlpha" operator="out"/>
<feColorMatrix type="matrix" values="0 0 0 0 0 0 0 0 0 0 0 0 0 0 0 0 0 0 0.25 0"/>
<feBlend mode="normal" in2="BackgroundImageFix" result="effect1_dropShadow_2732_499"/>
<feBlend mode="normal" in="SourceGraphic" in2="effect1_dropShadow_2732_499" result="shape"/>
</filter>
<linearGradient id="paint0_linear_2732_499" x1="106" y1="90" x2="230" y2="178" gradientUnits="userSpaceOnUse">
<stop stop-color="#D4088C"/>
<stop offset="1" stop-color="#D4088C" stop-opacity="0"/>
</linearGradient>
<clipPath id="clip0_2732_499">
<rect x="34" y="19" width="10" height="8" rx="1" fill="white"/>
</clipPath>
<clipPath id="clip1_2732_499">
<rect x="16" y="39" width="12" height="9.0566" rx="1" fill="white"/>
</clipPath>
<clipPath id="clip2_2732_499">
<rect x="16" y="58.0566" width="12" height="9.0566" rx="1" fill="white"/>
</clipPath>
<clipPath id="clip3_2732_499">
<rect x="16" y="77.1133" width="12" height="9.0566" rx="1" fill="white"/>
</clipPath>
</defs>
</svg>
