<svg width="22" height="22" viewBox="0 0 22 22" fill="none" xmlns="http://www.w3.org/2000/svg">
<path fill-rule="evenodd" clip-rule="evenodd" d="M15.3788 13.9029C15.3788 14.2672 15.0831 14.5629 14.7188 14.5629C14.3545 14.5629 14.0588 14.2672 14.0588 13.9029V10.9021C14.0588 10.0186 13.3425 9.30051 12.4616 9.30051C11.5807 9.30051 10.8644 10.0186 10.8644 10.9021V13.9029C10.8644 14.2672 10.5687 14.5629 10.2044 14.5629C9.84005 14.5629 9.54437 14.2672 9.54437 13.9029V10.9021C9.54437 9.29083 10.8529 7.9805 12.4616 7.9805C14.0702 7.9805 15.3788 9.29083 15.3788 10.9021V13.9029ZM7.28189 8.80771C6.91757 8.80771 6.59021 8.47682 6.59021 8.1125C6.59021 7.74818 6.91757 7.4173 7.28189 7.4173C7.64621 7.4173 7.97181 7.74818 7.97181 8.1125C7.97181 8.47682 7.64621 8.80771 7.28189 8.80771ZM7.94101 13.9029C7.94101 14.2672 7.64533 14.5629 7.28101 14.5629C6.91669 14.5629 6.62101 14.2672 6.62101 13.9029V10.5844C6.62101 10.2201 6.91669 9.92443 7.28101 9.92443C7.64533 9.92443 7.94101 10.2201 7.94101 10.5844V13.9029ZM14.7109 2.64771H7.28893C4.50813 2.64771 2.63989 4.60394 2.63989 7.5141V14.5013C2.63989 17.4115 4.50813 19.3677 7.28893 19.3677H14.71C17.4908 19.3677 19.3599 17.4115 19.3599 14.5013V7.5141C19.3599 4.60394 17.4917 2.64771 14.7109 2.64771Z" fill="#4B4851"/>
</svg>
