<svg width="75" height="48" viewBox="0 0 75 48" fill="none" xmlns="http://www.w3.org/2000/svg">
<path d="M50.9521 0C51.171 0.770372 51.9675 1.19 52.7236 1.19836C54.798 1.2161 56.8744 1.19627 58.9487 1.20671C59.8282 1.2328 60.6953 1.59502 61.3228 2.21717C61.9938 2.86436 62.3807 3.78714 62.3983 4.72035C62.4087 7.78931 62.3828 10.8572 62.4118 13.9251C62.1608 13.0598 61.1963 12.7685 60.3987 12.7362C58.7371 12.7101 57.0756 12.7362 55.414 12.7226C54.1611 12.7028 52.9311 12.1287 52.1055 11.1808C51.3753 10.3593 50.9615 9.26638 50.9573 8.1651C50.9521 5.44375 50.9636 2.72135 50.9521 0Z" fill="#00F3FF"/>
<path d="M72.6891 15.7256C72.715 15.9751 72.7368 16.2256 72.7503 16.4772C72.7513 19.2382 72.7461 22.0003 72.7544 24.7623C72.7285 26.3365 72.7378 28.0004 71.9807 29.4273C71.5171 30.3157 70.762 31.0171 69.9157 31.5307C62.6503 35.8095 55.3715 40.0643 48.0989 44.3285C46.7599 45.1354 45.5028 46.3755 45.2788 47.9998C45.2964 46.3463 45.2705 44.6928 45.2923 43.0393C45.3338 41.3493 45.4613 39.5967 46.2185 38.057C46.7651 36.9296 47.6871 36.0152 48.7616 35.393C52.4799 33.2197 56.1929 31.037 59.9091 28.8584C63.4635 26.7697 67.0293 24.6997 70.5598 22.5712C71.0939 22.2247 71.4238 21.6495 71.6768 21.0796C72.2794 19.6401 72.492 18.0753 72.659 16.5346C72.6787 16.2653 72.6787 15.9949 72.6891 15.7256Z" fill="#00F3FF"/>
<path d="M72.8646 7.87737C74.0231 7.14354 74.7917 5.87629 75.0001 4.52344C74.9701 6.85021 75.0333 9.17803 74.9669 11.5038C74.9089 12.8691 74.6651 14.3034 73.8167 15.412C73.516 15.8191 73.1436 16.1646 72.7505 16.4778C72.737 16.2262 72.7153 15.9757 72.6893 15.7262C72.679 15.9955 72.679 16.2659 72.6592 16.5352C71.5702 17.2742 70.3982 17.8839 69.275 18.5697C63.4046 22.0238 57.5249 25.4623 51.6483 28.905C50.4939 29.5751 49.2721 30.2171 48.4351 31.2954C47.984 31.8789 47.6096 32.5606 47.5536 33.3111C47.4986 31.8205 47.5421 30.3267 47.5287 28.835C47.5556 27.0218 47.6376 25.1335 48.4289 23.4685C48.962 22.3328 49.8727 21.4048 50.9441 20.7722C54.7909 18.5227 58.6336 16.2648 62.4784 14.0101C65.9446 11.9745 69.4212 9.95362 72.8646 7.87737Z" fill="white"/>
<path d="M2.95218 14.3402C3.82236 14.0886 4.79004 14.765 4.87924 15.6648C5.012 16.5187 4.30879 17.3799 3.45313 17.4237C2.63273 17.5104 1.83411 16.8266 1.78433 15.9989C1.69928 15.2546 2.23135 14.5114 2.95218 14.3402Z" fill="white"/>
<path d="M6.58515 14.3425C7.46467 14.0826 8.44791 14.7716 8.52569 15.687C8.65845 16.6161 7.80486 17.519 6.87452 17.4251C6.01782 17.3917 5.3084 16.5409 5.43078 15.6849C5.49094 15.0544 5.97633 14.497 6.58515 14.3425Z" fill="white"/>
<path d="M31.3945 14.3767C32.2553 14.0479 33.2884 14.6638 33.4336 15.573C33.6213 16.4258 32.9513 17.333 32.0915 17.4154C31.2814 17.5386 30.46 16.9039 30.3625 16.0866C30.2412 15.3621 30.7068 14.6085 31.3945 14.3767Z" fill="white"/>
<path d="M3.9187 18.7973C5.39666 18.5321 7.04576 18.7618 8.22917 19.7503C10.234 21.3485 10.5659 24.4968 9.24974 26.6346C8.60151 27.6858 7.51145 28.4436 6.30626 28.6879C5.05751 28.9384 3.70712 28.8497 2.55586 28.2724C1.55395 27.7494 0.747037 26.8486 0.358099 25.7797C-0.219604 24.2838 -0.0868459 22.5416 0.673398 21.1366C1.34341 19.9267 2.55897 19.0363 3.9187 18.7973ZM4.22466 21.5959C3.32648 21.8683 2.74566 22.8005 2.72803 23.7191C2.68032 24.6847 3.2798 25.6868 4.22155 25.9697C5.08136 26.2265 6.1538 26.1012 6.75639 25.3736C7.57887 24.3976 7.41707 22.7807 6.44317 21.9685C5.83642 21.4591 4.96416 21.3777 4.22466 21.5959Z" fill="white"/>
<path d="M27.3191 19.0642C29.1289 18.5924 31.0943 18.5214 32.87 19.1738C33.9071 19.56 34.8945 20.1602 35.5832 21.0465C36.5405 22.2521 36.9523 23.7835 37.2323 25.2731C37.2883 25.5288 37.3754 25.819 37.6275 25.9464C37.9749 26.1353 38.3867 26.0695 38.7663 26.0936C38.7673 27.0028 38.7673 27.9109 38.7663 28.8201C34.9806 28.8201 31.195 28.8201 27.4093 28.8201C26.2943 28.841 25.14 28.8494 24.0852 28.4308C23.4618 28.1938 22.9194 27.7648 22.5429 27.2115C21.9299 27.8953 21.1178 28.3932 20.23 28.6187C19.0808 28.9318 17.8798 28.7919 16.7057 28.8212C16.6881 29.8369 16.5325 30.9256 15.876 31.7398C15.4041 32.3327 14.6822 32.6856 13.9396 32.7743C12.9512 32.9163 11.9472 32.7148 11.0044 32.4183C11.1818 31.6187 11.3591 30.8191 11.5365 30.0195C12.1297 30.1291 12.7572 30.3316 13.3536 30.1354C13.8338 29.9642 13.9188 29.388 13.9313 28.9423C13.9375 25.9516 13.9313 22.9609 13.9344 19.9703C14.8564 19.9703 15.7795 19.9692 16.7026 19.9703C16.7016 22.011 16.7026 24.0507 16.7026 26.0904C17.3985 26.0946 18.0945 26.0915 18.7915 26.081C19.4718 26.0549 20.1771 25.7376 20.5453 25.1416C20.8316 24.6906 20.8979 24.1394 20.8948 23.6154C20.8928 22.4004 20.8948 21.1853 20.8938 19.9703C21.8158 19.9703 22.7368 19.9692 23.6589 19.9703C23.6599 21.2542 23.6547 22.5382 23.661 23.8221C23.6713 24.5215 23.9462 25.2835 24.5685 25.6572C25.2302 26.0706 26.034 26.0862 26.788 26.0904C29.3758 26.0946 31.9625 26.0894 34.5502 26.0936C34.3521 24.9683 34.1561 23.7751 33.4601 22.8367C32.8638 22.0444 31.893 21.6477 30.9523 21.4515C29.8518 21.2427 28.7089 21.3304 27.6333 21.631C27.5286 20.7751 27.4238 19.9191 27.3191 19.0642Z" fill="white"/>
<path d="M21.8439 30.5245C22.7089 30.1988 23.744 30.8282 23.8757 31.7426C24.0614 32.6278 23.3229 33.5443 22.433 33.5757C21.6271 33.6446 20.8555 32.9734 20.7943 32.1654C20.7113 31.4598 21.1749 30.7437 21.8439 30.5245Z" fill="white"/>
<path d="M20.0786 36.0357C21.037 35.9511 22.0005 35.9501 22.9619 35.9584C23.5251 35.9835 24.1329 36.0033 24.6152 36.3332C25.0518 36.6349 25.1524 37.208 25.1607 37.7059C25.1618 38.1641 25.1172 38.6808 24.7853 39.0295C24.5509 39.279 24.2024 39.3458 23.8829 39.4115C24.2708 39.4648 24.6888 39.5577 24.9637 39.8635C25.3236 40.2633 25.3806 40.8354 25.3796 41.3521C25.3713 41.8521 25.2665 42.4221 24.8371 42.7352C24.3538 43.0818 23.7326 43.1027 23.1611 43.1225C22.1332 43.1256 21.1044 43.1225 20.0796 43.0432C20.0786 40.707 20.0786 38.3719 20.0786 36.0357ZM21.5804 37.1077C21.5815 37.7038 21.5804 38.3009 21.5815 38.898C22.1384 38.875 22.7078 38.9596 23.2565 38.8332C23.6102 38.7477 23.6848 38.3312 23.6797 38.019C23.6921 37.6996 23.6164 37.2706 23.2503 37.1881C22.7037 37.0576 22.1364 37.1307 21.5804 37.1077ZM21.5815 39.9199C21.5804 40.5963 21.5815 41.2728 21.5804 41.9492C22.0752 41.944 22.572 41.9669 23.0667 41.9367C23.3353 41.92 23.6662 41.8385 23.7595 41.5473C23.8788 41.1621 23.8674 40.732 23.7398 40.351C23.6392 40.0723 23.3364 39.9638 23.0667 39.9377C22.573 39.8969 22.0762 39.9283 21.5815 39.9199Z" fill="white"/>
<path d="M26.6143 36.0359C27.6877 35.9409 28.7685 35.921 29.845 35.9638C30.5047 36.0046 31.2867 36.1778 31.6134 36.8271C31.9007 37.4733 31.9214 38.2416 31.7036 38.9117C31.5284 39.4347 30.9921 39.6988 30.4808 39.7677C30.9372 39.9107 31.3116 40.2677 31.4558 40.7301C31.686 41.4963 31.8851 42.273 32.103 43.0433C31.5626 43.0444 31.0233 43.0433 30.4839 43.0444C30.3004 42.322 30.1292 41.5965 29.9467 40.8742C29.8876 40.6383 29.7455 40.3846 29.4862 40.3418C29.036 40.2781 28.5797 40.3188 28.1275 40.3011C28.1254 41.2155 28.1275 42.1289 28.1264 43.0433C27.6224 43.0444 27.1183 43.0444 26.6143 43.0433C26.6143 40.7082 26.6143 38.372 26.6143 36.0359ZM28.1285 37.1361C28.1254 37.7927 28.1264 38.4503 28.1275 39.108C28.7083 39.0798 29.3078 39.1831 29.8741 39.0192C30.2765 38.8741 30.3055 38.372 30.2921 38.0098C30.2921 37.6779 30.1749 37.2614 29.8046 37.1852C29.2549 37.063 28.6855 37.1559 28.1285 37.1361Z" fill="white"/>
<path d="M0.65068 36.0366C1.16097 36.0366 1.67125 36.0356 2.1805 36.0376C2.15354 36.974 2.24377 37.9176 2.11412 38.8488C2.31119 38.8488 2.50929 38.8488 2.70739 38.8498C3.29857 37.9124 3.88768 36.974 4.47887 36.0366C5.03272 36.0366 5.58553 36.0356 6.13937 36.0366C5.5596 36.9416 4.97982 37.8456 4.40108 38.7506C4.24551 38.997 4.0443 39.2089 3.83479 39.4093C4.07852 39.6202 4.31603 39.8467 4.47991 40.1296C5.07109 41.1014 5.66643 42.0722 6.25969 43.0441C5.69339 43.0482 5.1271 43.0378 4.56081 43.0503C3.92813 42.0252 3.32865 40.9793 2.70531 39.948C2.50825 39.949 2.31222 39.949 2.11516 39.949C2.24792 40.9741 2.15146 42.0127 2.1805 43.0441C1.67022 43.0451 1.16097 43.0451 0.65068 43.0441C0.649643 40.7089 0.649643 38.3728 0.65068 36.0366Z" fill="white"/>
<path d="M7.11426 36.0374C7.62454 36.0354 8.13379 36.0364 8.64408 36.0364C8.64616 36.9299 8.64408 37.8235 8.64512 38.717C9.46863 38.716 10.2911 38.716 11.1136 38.717C11.1146 37.8235 11.1136 36.9299 11.1146 36.0364C11.6249 36.0364 12.1352 36.0354 12.6455 36.0374C12.6413 38.3736 12.6507 40.7108 12.6403 43.047C12.1321 43.0418 11.6228 43.0459 11.1146 43.0439C11.1136 41.9989 11.1136 40.954 11.1146 39.9091C10.2911 39.9091 9.46759 39.9091 8.64512 39.9091C8.64408 40.954 8.64512 41.9989 8.64408 43.0439C8.13483 43.0449 7.62454 43.0449 7.11426 43.0439C7.11426 40.7087 7.11529 38.3726 7.11426 36.0374Z" fill="white"/>
<path d="M14.7418 36.2186C15.2178 35.9388 15.7903 36.0087 16.3172 36.0025C17.1646 36.0234 18.0151 36.0098 18.8593 36.1058C18.8365 36.4858 18.8137 36.8668 18.7888 37.2468C17.8948 37.2499 17.0007 37.2415 16.1067 37.2499C15.8878 37.229 15.6597 37.3752 15.6545 37.6132C15.6182 38.0192 15.6483 38.4295 15.64 38.8376C16.5651 38.8376 17.4892 38.8366 18.4144 38.8376C18.4154 39.2082 18.4154 39.5777 18.4144 39.9483C17.4892 39.9493 16.5651 39.9483 15.64 39.9493C15.6483 40.4462 15.6213 40.9452 15.6514 41.4421C15.6524 41.6435 15.8142 41.8262 16.0206 41.8241C16.9426 41.8471 17.8668 41.8252 18.7898 41.8335C18.8137 42.2135 18.8365 42.5934 18.8593 42.9734C17.8419 43.0736 16.8182 43.0621 15.7966 43.0757C15.3392 43.0861 14.8413 43.0047 14.4991 42.6728C14.1973 42.3951 14.0821 41.9723 14.0935 41.5715C14.0977 40.18 14.0915 38.7875 14.0967 37.396C14.0894 36.9253 14.3238 36.4472 14.7418 36.2186Z" fill="white"/>
<path d="M34.5129 36.4624C34.57 36.2474 34.7504 36.0563 34.9807 36.0459C35.5013 36.0261 36.0241 36.0334 36.5447 36.0417C36.8248 36.0355 37.0218 36.2797 37.0789 36.5355C37.7364 38.7057 38.3992 40.8738 39.0567 43.044C38.533 43.045 38.0082 43.045 37.4844 43.044C37.3184 42.4312 37.1546 41.8164 36.9876 41.2036C36.1879 41.2036 35.3883 41.2036 34.5886 41.2047C34.4185 41.8174 34.2526 42.4312 34.0814 43.045C33.5587 43.044 33.0349 43.045 32.5122 43.044C33.1791 40.8508 33.8429 38.6556 34.5129 36.4624ZM35.6579 37.1962C35.4381 38.1409 35.1622 39.071 34.9205 40.0105C35.4972 40.0105 36.0728 40.0105 36.6495 40.0105C36.4109 39.071 36.105 38.1472 35.9162 37.1962C35.8519 37.1962 35.7222 37.1962 35.6579 37.1962Z" fill="white"/>
</svg>
