<svg width="79" height="50" viewBox="0 0 79 50" fill="none" xmlns="http://www.w3.org/2000/svg">
<path d="M53.4178 0C53.6473 0.802471 54.4824 1.23959 55.2751 1.24829C57.4498 1.26677 59.6267 1.24611 61.8014 1.25699C62.7235 1.28417 63.6325 1.66148 64.2903 2.30955C64.9939 2.98371 65.3994 3.94494 65.4179 4.91704C65.4288 8.11387 65.4016 11.3096 65.4321 14.5054C65.1689 13.6039 64.1577 13.3006 63.3215 13.2669C61.5796 13.2397 59.8376 13.2669 58.0957 13.2527C56.7821 13.2321 55.4925 12.634 54.627 11.6467C53.8615 10.7909 53.4276 9.65248 53.4233 8.50532C53.4178 5.67057 53.4298 2.83474 53.4178 0Z" fill="#00F3FF"/>
<path d="M76.2067 16.3809C76.2339 16.6407 76.2567 16.9017 76.2708 17.1638C76.2719 20.0398 76.2665 22.917 76.2752 25.7941C76.248 27.4339 76.2578 29.1671 75.464 30.6535C74.978 31.5789 74.1864 32.3096 73.2991 32.8446C65.6821 37.3016 58.0511 41.7337 50.4265 46.1756C49.0227 47.0161 47.7048 48.3079 47.47 49.9998C47.4885 48.2774 47.4613 46.5551 47.4841 44.8327C47.5276 43.0722 47.6613 41.2466 48.4551 39.6427C49.0282 38.4684 49.9948 37.5158 51.1213 36.8678C55.0195 34.6039 58.9122 32.3302 62.8082 30.0609C66.5346 27.8851 70.273 25.7289 73.9743 23.5118C74.5343 23.1508 74.8801 22.5516 75.1454 21.9579C75.7772 20.4585 76.0001 18.8285 76.1751 17.2236C76.1958 16.943 76.1958 16.6614 76.2067 16.3809Z" fill="#00F3FF"/>
<path d="M76.3905 8.20511C77.6051 7.4407 78.4108 6.12064 78.6294 4.71143C78.5979 7.13515 78.6642 9.55996 78.5946 11.9826C78.5337 13.4049 78.2782 14.8989 77.3887 16.0537C77.0734 16.4777 76.683 16.8376 76.2709 17.1639C76.2568 16.9018 76.2339 16.6408 76.2068 16.381C76.1959 16.6615 76.1959 16.9431 76.1752 17.2237C75.0335 17.9935 73.8048 18.6285 72.6272 19.3429C66.4727 22.941 60.3085 26.5227 54.1475 30.1089C52.9373 30.8069 51.6564 31.4757 50.7789 32.5989C50.3059 33.2067 49.9133 33.9168 49.8546 34.6986C49.797 33.1459 49.8427 31.5898 49.8285 30.036C49.8568 28.1473 49.9427 26.1802 50.7724 24.4459C51.3313 23.2628 52.286 22.2962 53.4092 21.6372C57.4422 19.294 61.4709 16.942 65.5017 14.5933C69.1357 12.473 72.7805 10.3679 76.3905 8.20511Z" fill="#008ABA"/>
<path d="M3.09494 14.9386C4.00723 14.6765 5.02174 15.3811 5.11525 16.3184C5.25443 17.2079 4.5172 18.105 3.62013 18.1506C2.76003 18.2409 1.92277 17.5287 1.87057 16.6664C1.78141 15.8911 2.33923 15.1169 3.09494 14.9386Z" fill="#480689"/>
<path d="M6.90389 14.9405C7.82597 14.6698 8.85678 15.3874 8.93833 16.3411C9.07752 17.3088 8.18262 18.2494 7.20726 18.1515C6.3091 18.1167 5.56535 17.2305 5.69366 16.3389C5.75672 15.6821 6.26561 15.1015 6.90389 14.9405Z" fill="#480689"/>
<path d="M32.9135 14.9767C33.816 14.6341 34.899 15.2757 35.0512 16.2228C35.2481 17.1111 34.5456 18.0561 33.6442 18.142C32.795 18.2703 31.9338 17.6092 31.8316 16.7578C31.7043 16.0031 32.1926 15.2181 32.9135 14.9767Z" fill="#480689"/>
<path d="M4.10833 19.5813C5.65782 19.3051 7.38672 19.5443 8.62739 20.5741C10.7293 22.2388 11.0772 25.5183 9.69735 27.7452C9.01775 28.8402 7.87494 29.6296 6.61143 29.884C5.30225 30.145 3.88651 30.0526 2.67954 29.4513C1.62915 28.9065 0.783188 27.9681 0.375428 26.8546C-0.230231 25.2965 -0.0910486 23.4817 0.705985 22.0181C1.40842 20.7578 2.6828 19.8303 4.10833 19.5813ZM4.4291 22.4965C3.48745 22.7803 2.87853 23.7513 2.86004 24.7082C2.81002 25.714 3.43852 26.7579 4.42584 27.0525C5.32726 27.32 6.45159 27.1895 7.08334 26.4317C7.94562 25.415 7.77599 23.7307 6.75496 22.8847C6.11886 22.3541 5.20439 22.2693 4.4291 22.4965Z" fill="#480689"/>
<path d="M28.6413 19.8588C30.5387 19.3673 32.5992 19.2933 34.4608 19.9729C35.5482 20.3753 36.5833 21.0005 37.3053 21.9237C38.309 23.1796 38.7406 24.7747 39.0342 26.3264C39.0929 26.5928 39.1843 26.8951 39.4485 27.0277C39.8128 27.2245 40.2445 27.156 40.6424 27.181C40.6435 28.1281 40.6435 29.0741 40.6424 30.0212C36.6736 30.0212 32.7047 30.0212 28.7359 30.0212C27.5669 30.043 26.3567 30.0517 25.2509 29.6156C24.5974 29.3688 24.0287 28.9219 23.634 28.3456C22.9913 29.0578 22.1399 29.5765 21.2092 29.8114C20.0044 30.1376 18.7452 29.9919 17.5143 30.0223C17.4958 31.0803 17.3327 32.2144 16.6444 33.0626C16.1497 33.6802 15.3929 34.0477 14.6143 34.1401C13.5781 34.288 12.5255 34.0781 11.5371 33.7693C11.723 32.9364 11.909 32.1035 12.0949 31.2706C12.7169 31.3848 13.3747 31.5957 14 31.3913C14.5034 31.213 14.5926 30.6127 14.6056 30.1484C14.6122 27.0332 14.6056 23.9179 14.6089 20.8026C15.5756 20.8026 16.5433 20.8015 17.5111 20.8026C17.51 22.9284 17.5111 25.0531 17.5111 27.1778C18.2407 27.1821 18.9703 27.1789 19.701 27.168C20.4143 27.1408 21.1537 26.8102 21.5397 26.1894C21.8398 25.7196 21.9094 25.1455 21.9062 24.5996C21.904 23.334 21.9062 22.0683 21.9051 20.8026C22.8717 20.8026 23.8373 20.8015 24.804 20.8026C24.8051 22.14 24.7996 23.4775 24.8061 24.8149C24.817 25.5435 25.1052 26.3372 25.7576 26.7265C26.4513 27.1571 27.294 27.1734 28.0845 27.1778C30.7975 27.1821 33.5094 27.1767 36.2223 27.181C36.0146 26.0089 35.8091 24.766 35.0795 23.7885C34.4543 22.9632 33.4365 22.55 32.4503 22.3456C31.2966 22.1281 30.0983 22.2194 28.9707 22.5326C28.8609 21.6409 28.7511 20.7493 28.6413 19.8588Z" fill="#480689"/>
<path d="M22.9011 31.7966C23.808 31.4574 24.8932 32.113 25.0313 33.0656C25.2259 33.9877 24.4517 34.9424 23.5187 34.975C22.6739 35.0467 21.8649 34.3476 21.8007 33.506C21.7137 32.7709 22.1998 32.025 22.9011 31.7966Z" fill="#480689"/>
<path d="M21.0504 37.5381C22.0551 37.45 23.0653 37.4489 24.0733 37.4576C24.6637 37.4837 25.3009 37.5044 25.8065 37.848C26.2643 38.1622 26.3698 38.7592 26.3785 39.2778C26.3796 39.7552 26.3328 40.2934 25.9848 40.6566C25.7391 40.9165 25.3738 40.9861 25.0388 41.0546C25.4455 41.11 25.8837 41.2068 26.1719 41.5254C26.5492 41.9419 26.609 42.5377 26.6079 43.076C26.5992 43.5968 26.4894 44.1905 26.0392 44.5167C25.5325 44.8777 24.8812 44.8995 24.282 44.9202C23.2045 44.9234 22.1258 44.9202 21.0515 44.8375C21.0504 42.404 21.0504 39.9716 21.0504 37.5381ZM22.6249 38.6548C22.626 39.2757 22.6249 39.8976 22.626 40.5196C23.2099 40.4957 23.8069 40.5838 24.3821 40.4522C24.7529 40.363 24.8312 39.9292 24.8257 39.6041C24.8388 39.2713 24.7594 38.8244 24.3756 38.7385C23.8025 38.6026 23.2077 38.6787 22.6249 38.6548ZM22.626 41.5841C22.6249 42.2887 22.626 42.9934 22.6249 43.698C23.1436 43.6925 23.6644 43.7164 24.1831 43.6849C24.4647 43.6675 24.8116 43.5827 24.9094 43.2793C25.0345 42.8781 25.0225 42.4301 24.8888 42.0332C24.7833 41.7429 24.4658 41.6298 24.1831 41.6026C23.6655 41.5602 23.1447 41.5928 22.626 41.5841Z" fill="#480689"/>
<path d="M27.9019 37.5378C29.0273 37.4389 30.1603 37.4182 31.289 37.4628C31.9805 37.5052 32.8004 37.6857 33.1429 38.362C33.4441 39.0351 33.4659 39.8354 33.2375 40.5335C33.0538 41.0782 32.4916 41.3534 31.9555 41.4251C32.434 41.5741 32.8265 41.946 32.9776 42.4277C33.219 43.2258 33.4278 44.0348 33.6562 44.8372C33.0896 44.8383 32.5242 44.8372 31.9588 44.8383C31.7663 44.0859 31.5869 43.3302 31.3955 42.5777C31.3336 42.332 31.1846 42.0677 30.9128 42.0232C30.4408 41.9568 29.9624 41.9992 29.4883 41.9808C29.4861 42.9333 29.4883 43.8847 29.4872 44.8372C28.9588 44.8383 28.4303 44.8383 27.9019 44.8372C27.9019 42.4048 27.9019 39.9713 27.9019 37.5378ZM29.4894 38.6839C29.4861 39.3678 29.4872 40.0529 29.4883 40.7379C30.0972 40.7085 30.7257 40.8162 31.3194 40.6455C31.7413 40.4943 31.7718 39.9713 31.7576 39.594C31.7576 39.2482 31.6348 38.8144 31.2466 38.735C30.6703 38.6078 30.0733 38.7045 29.4894 38.6839Z" fill="#480689"/>
<path d="M0.68209 37.5381C1.21707 37.5381 1.75205 37.537 2.28594 37.5392C2.25767 38.5145 2.35227 39.4975 2.21635 40.4674C2.42295 40.4674 2.63064 40.4674 2.83832 40.4685C3.45812 39.4921 4.07574 38.5145 4.69553 37.5381C5.27618 37.5381 5.85574 37.537 6.43639 37.5381C5.82856 38.4808 5.22072 39.4225 4.61398 40.3652C4.45088 40.6218 4.23993 40.8426 4.02028 41.0513C4.27581 41.271 4.52481 41.5069 4.69662 41.8016C5.31641 42.8139 5.94056 43.8252 6.56252 44.8375C5.96883 44.8419 5.37513 44.831 4.78143 44.844C4.11814 43.7763 3.48965 42.6867 2.83615 41.6124C2.62955 41.6135 2.42404 41.6135 2.21744 41.6135C2.35662 42.6813 2.2555 43.7632 2.28594 44.8375C1.75096 44.8386 1.21707 44.8386 0.68209 44.8375C0.681003 42.4051 0.681003 39.9716 0.68209 37.5381Z" fill="#480689"/>
<path d="M7.4585 37.539C7.99348 37.5368 8.52737 37.5379 9.06235 37.5379C9.06452 38.4686 9.06235 39.3994 9.06344 40.3302C9.9268 40.3291 10.7891 40.3291 11.6514 40.3302C11.6524 39.3994 11.6514 38.4686 11.6524 37.5379C12.1874 37.5379 12.7224 37.5368 13.2574 37.539C13.253 39.9725 13.2628 42.4071 13.2519 44.8406C12.7191 44.8351 12.1852 44.8395 11.6524 44.8373C11.6514 43.7489 11.6514 42.6604 11.6524 41.572C10.7891 41.572 9.92571 41.572 9.06344 41.572C9.06235 42.6604 9.06344 43.7489 9.06235 44.8373C8.52846 44.8384 7.99348 44.8384 7.4585 44.8373C7.4585 42.4049 7.45958 39.9714 7.4585 37.539Z" fill="#480689"/>
<path d="M15.4549 37.7282C15.954 37.4368 16.5543 37.5096 17.1066 37.5031C17.995 37.5249 18.8866 37.5107 19.7718 37.6108C19.7478 38.0066 19.7239 38.4034 19.6978 38.7992C18.7605 38.8025 17.8232 38.7938 16.8859 38.8025C16.6565 38.7808 16.4172 38.933 16.4118 39.1809C16.3738 39.6039 16.4053 40.0312 16.3966 40.4564C17.3665 40.4564 18.3353 40.4553 19.3053 40.4564C19.3064 40.8424 19.3064 41.2273 19.3053 41.6133C18.3353 41.6144 17.3665 41.6133 16.3966 41.6144C16.4053 42.132 16.377 42.6518 16.4086 43.1693C16.4096 43.3792 16.5793 43.5695 16.7957 43.5673C17.7623 43.5912 18.7311 43.5684 19.6989 43.5771C19.7239 43.9729 19.7478 44.3687 19.7718 44.7645C18.7051 44.8689 17.6318 44.8569 16.5608 44.8711C16.0813 44.8819 15.5593 44.7971 15.2005 44.4513C14.8841 44.1621 14.7634 43.7217 14.7753 43.3042C14.7797 41.8547 14.7732 40.4042 14.7786 38.9547C14.771 38.4643 15.0167 37.9663 15.4549 37.7282Z" fill="#480689"/>
<path d="M36.1832 37.9817C36.243 37.7577 36.4322 37.5588 36.6736 37.5479C37.2195 37.5272 37.7675 37.5348 38.3133 37.5435C38.6069 37.537 38.8135 37.7915 38.8733 38.0579C39.5627 40.3185 40.2575 42.5769 40.9469 44.8375C40.3978 44.8386 39.8476 44.8386 39.2985 44.8375C39.1245 44.1993 38.9527 43.5588 38.7776 42.9205C37.9393 42.9205 37.1009 42.9205 36.2626 42.9216C36.0843 43.5599 35.9103 44.1993 35.7309 44.8386C35.1828 44.8375 34.6337 44.8386 34.0857 44.8375C34.7849 42.553 35.4808 40.2663 36.1832 37.9817ZM37.3837 38.7462C37.1531 39.7302 36.8639 40.6991 36.6105 41.6777C37.2151 41.6777 37.8186 41.6777 38.4232 41.6777C38.1731 40.6991 37.8523 39.7367 37.6544 38.7462C37.587 38.7462 37.4511 38.7462 37.3837 38.7462Z" fill="#480689"/>
</svg>
