<svg width="496" height="262" viewBox="0 0 496 262" fill="none" xmlns="http://www.w3.org/2000/svg">
<mask id="mask0_108_5515" style="mask-type:alpha" maskUnits="userSpaceOnUse" x="0" y="0" width="496" height="262">
<rect width="496" height="262" fill="url(#paint0_linear_108_5515)"/>
</mask>
<g mask="url(#mask0_108_5515)">
<g filter="url(#filter0_d_108_5515)">
<g clip-path="url(#clip0_108_5515)">
<path d="M0 24C0 10.7452 10.7452 0 24 0H472C485.255 0 496 10.7452 496 24V238C496 251.255 485.255 262 472 262H24C10.7452 262 0 251.255 0 238V24Z" fill="white"/>
<path d="M371.781 25.2168C372.146 24.8796 372.426 24.5947 372.622 24.3623C372.818 24.1253 372.971 23.9066 373.08 23.7061C373.367 23.1683 373.511 22.5531 373.511 21.8604V17.3691H374.98V21.8262C374.98 22.6921 374.798 23.4691 374.434 24.1572C374.288 24.4352 374.09 24.7223 373.839 25.0186C373.611 25.292 373.315 25.5951 372.95 25.9277L371.781 25.2168ZM380.928 17.8203C380.928 17.6927 380.823 17.5833 380.613 17.4922C380.34 17.3737 380.021 17.3145 379.656 17.3145H379.636C379.039 17.3145 378.574 17.4922 378.241 17.8477C377.868 18.2396 377.681 18.8184 377.681 19.584C377.681 20.2812 377.872 20.8258 378.255 21.2178C378.61 21.5869 379.114 21.7715 379.766 21.7715V21.7783H380.928V17.8203ZM382.268 22.9473C382.186 23.3483 382.021 23.7539 381.775 24.1641C381.634 24.4375 381.438 24.7223 381.188 25.0186C380.96 25.292 380.663 25.5973 380.299 25.9346L379.273 25.21C379.633 24.8773 379.911 24.5947 380.107 24.3623C380.303 24.1253 380.456 23.9066 380.565 23.7061C380.716 23.4144 380.802 23.1615 380.825 22.9473H379.629C378.581 22.9473 377.735 22.61 377.093 21.9355C376.505 21.3294 376.211 20.5456 376.211 19.584C376.211 18.5586 376.493 17.7428 377.059 17.1367C377.683 16.4805 378.542 16.1501 379.636 16.1455H379.656C380.276 16.1455 380.832 16.2549 381.324 16.4736C382.04 16.7835 382.397 17.2324 382.397 17.8203V21.7715H383.614V22.9473H382.268ZM391.722 21.7715C392.278 21.7715 392.733 21.5869 393.089 21.2178C393.472 20.8258 393.663 20.2812 393.663 19.584C393.663 18.8184 393.476 18.2373 393.103 17.8408C392.77 17.4899 392.305 17.3145 391.708 17.3145H387.914C387.317 17.3145 386.852 17.4899 386.52 17.8408C386.146 18.2373 385.959 18.8184 385.959 19.584V21.7715H391.722ZM382.999 22.9473V21.7715H384.469V19.2764C384.451 18.1644 384.314 17.4193 384.059 17.041L385.262 16.3164C385.435 16.6035 385.544 16.8587 385.59 17.082C386.009 16.4622 386.784 16.1478 387.914 16.1387H391.708C392.802 16.1387 393.661 16.4714 394.285 17.1367C394.85 17.7383 395.133 18.554 395.133 19.584C395.133 20.5456 394.839 21.3294 394.251 21.9355L394.244 21.9424L394.415 21.7715H395.864V22.9473H382.999ZM388.017 14.9287C388.017 14.8239 388.037 14.7259 388.078 14.6348C388.119 14.5436 388.174 14.4639 388.242 14.3955C388.311 14.3271 388.388 14.2747 388.475 14.2383C388.566 14.1973 388.661 14.1768 388.762 14.1768C388.862 14.1768 388.958 14.1973 389.049 14.2383C389.14 14.2747 389.22 14.3271 389.288 14.3955C389.356 14.4639 389.409 14.5436 389.445 14.6348C389.486 14.7259 389.507 14.8239 389.507 14.9287C389.507 15.0335 389.486 15.1315 389.445 15.2227C389.409 15.3092 389.356 15.3867 389.288 15.4551C389.22 15.5189 389.14 15.5713 389.049 15.6123C388.958 15.6488 388.862 15.667 388.762 15.667C388.661 15.667 388.566 15.6488 388.475 15.6123C388.388 15.5713 388.311 15.5189 388.242 15.4551C388.174 15.3867 388.119 15.3092 388.078 15.2227C388.037 15.1315 388.017 15.0335 388.017 14.9287ZM395.112 22.9473V21.7715L401.333 21.7783C401.324 21.7191 401.301 21.5231 401.265 21.1904C401.119 19.9053 400.941 19.0143 400.731 18.5176C400.39 17.7155 399.815 17.3145 399.009 17.3145C398.717 17.3145 398.457 17.3555 398.229 17.4375C398.006 17.515 397.815 17.6312 397.655 17.7861C397.564 17.8773 397.484 17.9775 397.416 18.0869C397.339 18.2008 397.261 18.3649 397.184 18.5791L395.755 18.2852C395.873 17.9753 395.99 17.7292 396.104 17.5469C396.222 17.36 396.359 17.1937 396.514 17.0479C396.824 16.7471 397.193 16.5192 397.621 16.3643C398.045 16.2139 398.507 16.1387 399.009 16.1387C400.417 16.1387 401.406 16.681 401.976 17.7656C402.304 18.3945 402.554 19.502 402.728 21.0879C402.764 21.4069 402.791 21.6348 402.81 21.7715H403.883V22.9473H395.112ZM406.897 14.7715V20.6709C406.897 21.2725 406.679 21.792 406.241 22.2295C405.763 22.708 405.175 22.9473 404.478 22.9473H403.274V21.7715H404.478C404.705 21.7715 404.91 21.6803 405.093 21.498C405.316 21.2793 405.428 21.0036 405.428 20.6709V14.7715H406.897ZM409.604 14.7715V22.4961H408.135V14.7715H409.604ZM421.896 22.9473C420.97 22.9473 420.248 22.6784 419.729 22.1406L419.667 22.0859C419.439 22.3366 419.106 22.5462 418.669 22.7148C418.291 22.8652 417.892 22.9404 417.473 22.9404C417.395 22.9404 417.32 22.9382 417.247 22.9336C416.741 22.9017 416.276 22.7604 415.853 22.5098C414.827 21.9219 414.314 20.9466 414.314 19.584C414.314 18.5586 414.597 17.7428 415.162 17.1367C415.786 16.4805 416.646 16.1501 417.739 16.1455H417.76C418.38 16.1455 418.936 16.2549 419.428 16.4736C420.143 16.7835 420.501 17.2324 420.501 17.8203V20.2949C420.501 20.7826 420.629 21.1585 420.884 21.4229C421.112 21.6553 421.449 21.7715 421.896 21.7715V22.9473ZM419.031 17.8203C419.031 17.6927 418.926 17.5833 418.717 17.4922C418.443 17.3737 418.124 17.3145 417.76 17.3145H417.739C417.142 17.3145 416.677 17.4922 416.345 17.8477C415.971 18.2396 415.784 18.8184 415.784 19.584C415.784 20.5456 416.096 21.2087 416.721 21.5732C416.926 21.6872 417.142 21.751 417.37 21.7646C417.407 21.7692 417.443 21.7715 417.479 21.7715C417.666 21.7715 417.849 21.735 418.026 21.6621C418.601 21.4388 418.936 20.9808 419.031 20.2881V17.8203ZM417.685 14.4775C417.685 14.3727 417.705 14.2747 417.746 14.1836C417.787 14.0924 417.842 14.0127 417.91 13.9443C417.979 13.876 418.058 13.8236 418.149 13.7871C418.241 13.7461 418.339 13.7256 418.443 13.7256C418.544 13.7256 418.637 13.7461 418.724 13.7871C418.815 13.8236 418.892 13.876 418.956 13.9443C419.024 14.0127 419.077 14.0924 419.113 14.1836C419.154 14.2747 419.175 14.3727 419.175 14.4775C419.175 14.5824 419.154 14.6803 419.113 14.7715C419.077 14.8581 419.024 14.9355 418.956 15.0039C418.892 15.0677 418.815 15.1201 418.724 15.1611C418.637 15.1976 418.544 15.2158 418.443 15.2158C418.339 15.2158 418.241 15.1976 418.149 15.1611C418.058 15.1201 417.979 15.0677 417.91 15.0039C417.842 14.9355 417.787 14.8581 417.746 14.7715C417.705 14.6803 417.685 14.5824 417.685 14.4775ZM415.9 14.4775C415.9 14.3727 415.921 14.2747 415.962 14.1836C416.003 14.0924 416.058 14.0127 416.126 13.9443C416.194 13.876 416.272 13.8236 416.358 13.7871C416.45 13.7461 416.545 13.7256 416.646 13.7256C416.746 13.7256 416.841 13.7461 416.933 13.7871C417.024 13.8236 417.104 13.876 417.172 13.9443C417.24 14.0127 417.293 14.0924 417.329 14.1836C417.37 14.2747 417.391 14.3727 417.391 14.4775C417.391 14.5824 417.37 14.6803 417.329 14.7715C417.293 14.8581 417.24 14.9355 417.172 15.0039C417.104 15.0677 417.024 15.1201 416.933 15.1611C416.841 15.1976 416.746 15.2158 416.646 15.2158C416.545 15.2158 416.45 15.1976 416.358 15.1611C416.272 15.1201 416.194 15.0677 416.126 15.0039C416.058 14.9355 416.003 14.8581 415.962 14.7715C415.921 14.6803 415.9 14.5824 415.9 14.4775ZM422.982 24.7451C422.982 24.6403 423.003 24.5423 423.044 24.4512C423.085 24.36 423.14 24.2803 423.208 24.2119C423.276 24.1436 423.354 24.0889 423.44 24.0479C423.532 24.0114 423.627 23.9932 423.728 23.9932C423.828 23.9932 423.924 24.0114 424.015 24.0479C424.106 24.0889 424.186 24.1436 424.254 24.2119C424.322 24.2803 424.375 24.36 424.411 24.4512C424.452 24.5423 424.473 24.6403 424.473 24.7451C424.473 24.8499 424.452 24.9456 424.411 25.0322C424.375 25.1234 424.322 25.2008 424.254 25.2646C424.186 25.333 424.106 25.3854 424.015 25.4219C423.924 25.4629 423.828 25.4834 423.728 25.4834C423.627 25.4834 423.532 25.4629 423.44 25.4219C423.354 25.3854 423.276 25.333 423.208 25.2646C423.14 25.2008 423.085 25.1234 423.044 25.0322C423.003 24.9456 422.982 24.8499 422.982 24.7451ZM421.144 22.9473V21.7715H421.711C422.08 21.7715 422.376 21.6576 422.6 21.4297C422.855 21.1654 422.982 20.7871 422.982 20.2949V17.3691H424.459V20.4385C424.482 20.8577 424.607 21.1859 424.835 21.4229C425.063 21.6553 425.352 21.7715 425.703 21.7715H426.298V22.9473H425.703C424.869 22.9473 424.208 22.6943 423.721 22.1885C423.229 22.6943 422.559 22.9473 421.711 22.9473H421.144ZM438.726 21.7715V22.9473H438.131C437.297 22.9473 436.636 22.6943 436.148 22.1885C435.656 22.6943 434.986 22.9473 434.139 22.9473C433.305 22.9473 432.644 22.6943 432.156 22.1885C431.66 22.6943 430.987 22.9473 430.14 22.9473C429.306 22.9473 428.645 22.6943 428.157 22.1885C427.66 22.6943 426.988 22.9473 426.141 22.9473H425.546V21.7715H426.141C426.51 21.7715 426.808 21.6576 427.036 21.4297C427.291 21.1654 427.419 20.7871 427.419 20.2949V17.3691H428.889V20.2949C428.889 20.7826 429.016 21.1585 429.271 21.4229C429.499 21.6553 429.789 21.7715 430.14 21.7715C430.509 21.7715 430.805 21.6576 431.028 21.4297C431.288 21.1654 431.418 20.7871 431.418 20.2949V17.3691H432.888V20.2949C432.888 20.7826 433.015 21.1585 433.271 21.4229C433.498 21.6553 433.788 21.7715 434.139 21.7715C434.508 21.7715 434.804 21.6576 435.027 21.4297C435.283 21.1654 435.41 20.7871 435.41 20.2949V17.3691H436.887V20.4385C436.91 20.8577 437.035 21.1859 437.263 21.4229C437.491 21.6553 437.78 21.7715 438.131 21.7715H438.726ZM439.573 15.7832C439.573 15.6784 439.594 15.5804 439.635 15.4893C439.676 15.3981 439.73 15.3184 439.799 15.25C439.867 15.1816 439.945 15.1292 440.031 15.0928C440.122 15.0518 440.218 15.0312 440.318 15.0312C440.419 15.0312 440.514 15.0518 440.605 15.0928C440.697 15.1292 440.776 15.1816 440.845 15.25C440.913 15.3184 440.965 15.3981 441.002 15.4893C441.043 15.5804 441.063 15.6784 441.063 15.7832C441.063 15.888 441.043 15.986 441.002 16.0771C440.965 16.1637 440.913 16.2412 440.845 16.3096C440.776 16.3734 440.697 16.4258 440.605 16.4668C440.514 16.5033 440.419 16.5215 440.318 16.5215C440.218 16.5215 440.122 16.5033 440.031 16.4668C439.945 16.4258 439.867 16.3734 439.799 16.3096C439.73 16.2412 439.676 16.1637 439.635 16.0771C439.594 15.986 439.573 15.888 439.573 15.7832ZM442.827 17.3691V20.6709C442.827 21.2725 442.608 21.792 442.171 22.2295C441.692 22.708 441.104 22.9473 440.407 22.9473H438.11V21.7715H440.407C440.635 21.7715 440.84 21.6803 441.022 21.498C441.246 21.2793 441.357 21.0036 441.357 20.6709V17.3691H442.827Z" fill="#480689"/>
<path d="M451.652 22.7724C450.748 18.1168 453.993 14.0032 458.344 13.4758C458.846 13.4155 459.291 13.8115 459.291 14.3174V20.3672C459.291 20.8333 459.667 21.2098 460.132 21.2098H466.183C466.689 21.2098 467.085 21.6544 467.025 22.1565C466.497 26.5075 462.384 29.7523 457.728 28.8475C455.697 28.4533 453.93 27.2285 452.805 25.5521" stroke="#480689" stroke-width="1.5" stroke-linecap="round" stroke-linejoin="round"/>
<path d="M466.833 18.2158H468.653C469.163 18.2158 469.56 17.7653 469.494 17.2594C469.067 14.0088 466.492 11.4343 463.242 11.0072C462.737 10.941 462.285 11.339 462.285 11.8478V17.3752C462.285 17.8393 462.662 18.2158 463.127 18.2158H464.257" stroke="#480689" stroke-width="1.5" stroke-linecap="round" stroke-linejoin="round"/>
<path d="M328.773 74.4258C328.664 74.6914 328.578 74.9805 328.516 75.293C328.461 75.5977 328.434 75.9336 328.434 76.3008C328.434 77.6758 328.773 78.7227 329.453 79.4414C330.07 80.0898 330.926 80.4141 332.02 80.4141H338.523C339.617 80.4141 340.473 80.0898 341.09 79.4414C341.77 78.7227 342.109 77.6758 342.109 76.3008V68.4141H344.16V76.3008C344.16 77.9961 343.695 79.3398 342.766 80.332C341.742 81.418 340.328 81.9609 338.523 81.9609H332.371C330.566 81.9609 329.152 81.418 328.129 80.332C327.199 79.3398 326.734 77.9961 326.734 76.3008C326.734 75.8867 326.77 75.4805 326.84 75.082C326.91 74.6914 327.02 74.3203 327.168 73.9688L328.773 74.4258ZM334.082 74.7656C333.707 74.4141 333.414 74.0195 333.203 73.582C333.016 73.2148 332.922 72.8516 332.922 72.4922C332.922 72.4375 332.926 72.3828 332.934 72.3281C332.957 71.8828 333.125 71.4922 333.438 71.1562C333.953 70.5938 334.719 70.3125 335.734 70.3125C336.188 70.3125 336.605 70.3789 336.988 70.5117C337.371 70.6523 337.699 70.8516 337.973 71.1094C338.113 71.2344 338.234 71.3828 338.336 71.5547C338.43 71.7031 338.512 71.8633 338.582 72.0352L336.883 72.3867C336.844 72.2773 336.797 72.1836 336.742 72.1055C336.695 72.0352 336.641 71.9688 336.578 71.9062C336.484 71.8125 336.371 71.7422 336.238 71.6953C336.098 71.6484 335.93 71.625 335.734 71.625C335.336 71.625 335.051 71.7109 334.879 71.8828C334.77 72.0234 334.707 72.1914 334.691 72.3867V72.4688C334.691 72.6875 334.75 72.9141 334.867 73.1484C335.211 73.8516 335.863 74.3906 336.824 74.7656H338.465V76.0781H332.535V74.7656H334.082ZM345.309 86.0508C345.793 85.6055 346.203 85.1797 346.539 84.7734C346.891 84.3516 347.164 83.9609 347.359 83.6016C347.867 82.6484 348.121 81.5586 348.121 80.332V72.8672H350.172V80.2734C350.172 81.7188 349.867 83.0156 349.258 84.1641C349.016 84.625 348.688 85.1016 348.273 85.5938C347.891 86.0547 347.434 86.5273 346.902 87.0117L345.309 86.0508ZM354.566 68.4141V78.293C354.566 78.9258 354.781 79.4531 355.211 79.875C355.57 80.2344 355.977 80.4141 356.43 80.4141H358.961V81.9609H356.43C355.297 81.9609 354.344 81.5742 353.57 80.8008C352.867 80.0977 352.516 79.2617 352.516 78.293V68.4141H354.566ZM380.277 80.4141V81.9609H379.492C378.125 81.9609 377.02 81.5234 376.176 80.6484L376.094 80.5664L376 80.6602C375.156 81.5273 374.039 81.9609 372.648 81.9609C371.281 81.9609 370.176 81.5234 369.332 80.6484L369.238 80.5547L369.145 80.6602C368.301 81.5273 367.184 81.9609 365.793 81.9609C364.426 81.9609 363.32 81.5234 362.477 80.6484L362.383 80.5547L362.289 80.6602C361.445 81.5273 360.328 81.9609 358.938 81.9609H358.152V80.4141H358.938C359.633 80.4141 360.199 80.1953 360.637 79.7578C361.121 79.2578 361.363 78.5547 361.363 77.6484V72.8672H363.414V77.6484C363.414 78.5469 363.656 79.2461 364.141 79.7461C364.578 80.1914 365.129 80.4141 365.793 80.4141C366.488 80.4141 367.051 80.1953 367.48 79.7578C367.973 79.2578 368.219 78.5547 368.219 77.6484V72.8672H370.27V77.6484C370.27 78.5469 370.512 79.2461 370.996 79.7461C371.434 80.1914 371.984 80.4141 372.648 80.4141C373.344 80.4141 373.906 80.1953 374.336 79.7578C374.82 79.2578 375.062 78.5547 375.062 77.6484V72.8672H377.125V77.8945C377.164 78.6758 377.402 79.293 377.84 79.7461C378.277 80.1914 378.828 80.4141 379.492 80.4141H380.277ZM369.895 69.6562C369.895 69.4766 369.93 69.3086 370 69.1523C370.07 68.9961 370.164 68.8594 370.281 68.7422C370.398 68.625 370.535 68.5352 370.691 68.4727C370.848 68.4023 371.016 68.3672 371.195 68.3672C371.367 68.3672 371.527 68.4023 371.676 68.4727C371.832 68.5352 371.965 68.625 372.074 68.7422C372.191 68.8594 372.281 68.9961 372.344 69.1523C372.414 69.3086 372.449 69.4766 372.449 69.6562C372.449 69.8359 372.414 70.0039 372.344 70.1602C372.281 70.3086 372.191 70.4414 372.074 70.5586C371.965 70.668 371.832 70.7578 371.676 70.8281C371.527 70.8906 371.367 70.9219 371.195 70.9219C371.016 70.9219 370.848 70.8906 370.691 70.8281C370.535 70.7578 370.398 70.668 370.281 70.5586C370.164 70.4414 370.07 70.3086 370 70.1602C369.93 70.0039 369.895 69.8359 369.895 69.6562ZM367.973 66.6328C367.973 66.4531 368.008 66.2852 368.078 66.1289C368.148 65.9727 368.242 65.8359 368.359 65.7188C368.477 65.6016 368.609 65.5117 368.758 65.4492C368.914 65.3789 369.078 65.3438 369.25 65.3438C369.422 65.3438 369.586 65.3789 369.742 65.4492C369.898 65.5117 370.035 65.6016 370.152 65.7188C370.27 65.8359 370.359 65.9727 370.422 66.1289C370.492 66.2852 370.527 66.4531 370.527 66.6328C370.527 66.8125 370.492 66.9805 370.422 67.1367C370.359 67.2852 370.27 67.418 370.152 67.5352C370.035 67.6445 369.898 67.7344 369.742 67.8047C369.586 67.8672 369.422 67.8984 369.25 67.8984C369.078 67.8984 368.914 67.8672 368.758 67.8047C368.609 67.7344 368.477 67.6445 368.359 67.5352C368.242 67.418 368.148 67.2852 368.078 67.1367C368.008 66.9805 367.973 66.8125 367.973 66.6328ZM366.039 69.6562C366.039 69.4766 366.074 69.3086 366.145 69.1523C366.215 68.9961 366.309 68.8594 366.426 68.7422C366.543 68.625 366.676 68.5352 366.824 68.4727C366.98 68.4023 367.145 68.3672 367.316 68.3672C367.488 68.3672 367.652 68.4023 367.809 68.4727C367.965 68.5352 368.102 68.625 368.219 68.7422C368.336 68.8594 368.426 68.9961 368.488 69.1523C368.559 69.3086 368.594 69.4766 368.594 69.6562C368.594 69.8359 368.559 70.0039 368.488 70.1602C368.426 70.3086 368.336 70.4414 368.219 70.5586C368.102 70.668 367.965 70.7578 367.809 70.8281C367.652 70.8906 367.488 70.9219 367.316 70.9219C367.145 70.9219 366.98 70.8906 366.824 70.8281C366.676 70.7578 366.543 70.668 366.426 70.5586C366.309 70.4414 366.215 70.3086 366.145 70.1602C366.074 70.0039 366.039 69.8359 366.039 69.6562ZM391.105 76.4297C391.105 75.0391 390.766 73.9883 390.086 73.2773C389.477 72.6289 388.617 72.3047 387.508 72.3047C386.414 72.3047 385.562 72.6289 384.953 73.2773C384.266 74.0039 383.922 75.0547 383.922 76.4297C383.922 77.6875 384.273 78.6758 384.977 79.3945C385.633 80.0742 386.473 80.4141 387.496 80.4141C388.551 80.4141 389.402 80.082 390.051 79.418C390.754 78.6992 391.105 77.7031 391.105 76.4297ZM381.871 76.4297C381.871 74.7266 382.336 73.3828 383.266 72.3984C384.297 71.3047 385.711 70.7578 387.508 70.7578C389.32 70.7578 390.738 71.3008 391.762 72.3867C392.691 73.3711 393.156 74.7188 393.156 76.4297C393.156 78.0312 392.672 79.3281 391.703 80.3203C390.641 81.4141 389.238 81.9609 387.496 81.9609C385.77 81.9609 384.375 81.4062 383.312 80.2969C383.273 80.2578 383.234 80.2188 383.195 80.1797C383.078 80.3438 382.945 80.5039 382.797 80.6602C381.953 81.5273 380.84 81.9609 379.457 81.9609V80.4141C380.152 80.4141 380.715 80.1953 381.145 79.7578C381.629 79.2578 381.871 78.5547 381.871 77.6484V76.4297Z" fill="#595959"/>
<path d="M411.484 82.0078V57.8438L405.859 61.7344L404.266 57.9375L410.969 52.3359H416.992V82.0078H411.484ZM434.383 82.5703C432.711 82.5703 431.242 82.4297 429.977 82.1484C428.727 81.8672 427.602 81.4297 426.602 80.8359L427.727 77.3203C428.602 77.7422 429.445 78.0469 430.258 78.2344C431.07 78.4219 431.898 78.5156 432.742 78.5156H433.023C434.445 78.5156 435.633 78.2969 436.586 77.8594C437.602 77.4062 438.336 76.8203 438.789 76.1016C439.164 75.5078 439.352 74.875 439.352 74.2031C439.352 74.0625 439.344 73.9141 439.328 73.7578C439.234 72.9297 438.852 72.1484 438.18 71.4141C437.508 70.6797 436.547 70.0625 435.297 69.5625C434.062 69.0625 432.531 68.7969 430.703 68.7656L430.516 65.1562C431.266 65.0625 432.094 64.8906 433 64.6406C433.922 64.375 434.789 64.0234 435.602 63.5859C436.414 63.1484 437.094 62.6172 437.641 61.9922C438.203 61.3516 438.5 60.6094 438.531 59.7656V59.6484C438.531 58.9609 438.391 58.3672 438.109 57.8672C437.812 57.3516 437.414 56.9297 436.914 56.6016C436.414 56.2734 435.836 56.0391 435.18 55.8984C434.586 55.7734 433.977 55.7109 433.352 55.7109H433.141C432.422 55.7266 431.711 55.8203 431.008 55.9922C430.305 56.1484 429.656 56.375 429.062 56.6719L427.656 53.1328C428.203 52.8516 428.852 52.6172 429.602 52.4297C430.367 52.2266 431.18 52.0703 432.039 51.9609C432.836 51.8672 433.656 51.8203 434.5 51.8203H434.711C435.617 51.8359 436.492 51.9219 437.336 52.0781C438.18 52.2188 438.961 52.4375 439.68 52.7344C440.414 53.0156 441.023 53.3906 441.508 53.8594C442.539 54.875 443.234 55.9531 443.594 57.0938C443.797 57.7344 443.898 58.3672 443.898 58.9922C443.898 59.5078 443.836 60.0078 443.711 60.4922C443.414 61.6172 442.805 62.6719 441.883 63.6562C440.961 64.6406 439.734 65.4688 438.203 66.1406C442.562 67.8594 444.742 70.5469 444.742 74.2031C444.742 75.4688 444.516 76.6094 444.062 77.625C443.625 78.625 442.938 79.5 442 80.25C440.172 81.7969 437.633 82.5703 434.383 82.5703ZM469.82 82.0078H450.438L450.672 77.5781C451.328 76.8594 452.086 76.0938 452.945 75.2812C453.805 74.4688 454.68 73.625 455.57 72.75C456.461 71.875 457.336 70.9766 458.195 70.0547C459.07 69.1328 459.852 68.2109 460.539 67.2891C461.227 66.3516 461.781 65.4219 462.203 64.5C462.641 63.5625 462.875 62.6406 462.906 61.7344V61.4766C462.906 60.6016 462.766 59.8516 462.484 59.2266C462.156 58.5391 461.711 57.9844 461.148 57.5625C460.586 57.1406 459.93 56.8516 459.18 56.6953C458.711 56.6016 458.227 56.5547 457.727 56.5547C457.43 56.5547 457.133 56.5703 456.836 56.6016C456.023 56.6953 455.203 56.9062 454.375 57.2344C453.547 57.5469 452.766 57.9688 452.031 58.5L450.273 54.5391C451.742 53.5859 453.211 52.8906 454.68 52.4531C456.148 52.0156 457.688 51.7969 459.297 51.7969C460.469 51.7969 461.555 51.9609 462.555 52.2891C463.555 52.6172 464.445 53.0703 465.227 53.6484C466.023 54.2266 466.695 54.9141 467.242 55.7109C467.805 56.4922 468.227 57.3359 468.508 58.2422C468.758 59.0703 468.883 59.9453 468.883 60.8672V61.1016C468.852 62.1016 468.656 63.0938 468.297 64.0781C467.828 65.3438 467.141 66.5859 466.234 67.8047C465.344 69.0234 464.352 70.1953 463.258 71.3203C462.164 72.4297 461.047 73.4766 459.906 74.4609C458.766 75.4453 457.719 76.3359 456.766 77.1328H469.82V82.0078Z" fill="#480689"/>
<path d="M379.509 238.292C383.678 238.229 387.025 234.76 386.732 230.601C386.439 226.444 382.647 223.549 378.512 224.068L342.303 228.619C339.639 228.954 337.761 231.356 337.95 234.035C338.139 236.714 340.335 238.889 343.02 238.848L379.509 238.292Z" fill="black" fill-opacity="0.1"/>
<path d="M377.902 219.829C382.02 219.172 384.842 215.271 383.956 211.196C383.071 207.123 378.9 204.791 374.882 205.898L339.684 215.594C337.104 216.305 335.599 218.954 336.167 221.569C336.735 224.183 339.207 226.002 341.849 225.581L377.902 219.829Z" fill="black" fill-opacity="0.1"/>
<path d="M373.669 201.794C377.651 200.553 379.887 196.295 378.427 192.388C376.967 188.484 372.502 186.765 368.683 188.435L335.244 203.062C332.788 204.136 331.68 206.987 332.618 209.497C333.556 212.006 336.265 213.446 338.822 212.649L373.669 201.794Z" fill="black" fill-opacity="0.1"/>
<path d="M366.892 184.547C370.657 182.75 372.266 178.221 370.262 174.562C368.26 170.906 363.592 169.833 360.05 172.03L329.05 191.252C326.764 192.669 326.072 195.664 327.364 198.024C328.654 200.381 331.548 201.418 333.974 200.26L366.892 184.547Z" fill="black" fill-opacity="0.1"/>
<path d="M357.722 168.435C361.194 166.121 362.146 161.414 359.643 158.075C357.143 154.74 352.367 154.334 349.171 157.01L321.218 180.416C319.15 182.148 318.89 185.22 320.508 187.378C322.124 189.534 325.142 190.149 327.384 188.654L357.722 168.435Z" fill="black" fill-opacity="0.1"/>
<path d="M346.356 153.781C349.466 150.999 349.747 146.207 346.796 143.256C343.849 140.308 339.059 140.578 336.274 143.68L311.919 170.802C310.117 172.809 310.295 175.888 312.202 177.796C314.107 179.702 317.181 179.882 319.19 178.086L346.356 153.781Z" fill="black" fill-opacity="0.1"/>
<path d="M333.031 140.882C335.716 137.687 335.319 132.908 331.98 130.404C328.645 127.903 323.936 128.848 321.62 132.315L301.364 162.627C299.869 164.865 300.482 167.881 302.635 169.496C304.786 171.109 307.846 170.851 309.576 168.793L333.031 140.882Z" fill="black" fill-opacity="0.1"/>
<path d="M318.013 130.006C320.216 126.461 319.15 121.791 315.488 119.789C311.83 117.788 307.298 119.394 305.501 123.156L289.783 156.064C288.627 158.484 289.666 161.374 292.02 162.661C294.371 163.946 297.349 163.256 298.763 160.98L318.013 130.006Z" fill="black" fill-opacity="0.1"/>
<path d="M301.602 121.385C303.274 117.562 301.559 113.096 297.649 111.639C293.742 110.183 289.478 112.419 288.239 116.401L277.404 151.226C276.608 153.783 278.058 156.493 280.568 157.428C283.075 158.362 285.912 157.251 286.984 154.799L301.602 121.385Z" fill="black" fill-opacity="0.1"/>
<path d="M284.124 115.203C285.231 111.18 282.904 107.01 278.826 106.127C274.751 105.244 270.838 108.064 270.18 112.182L264.428 148.175C264.004 150.83 265.845 153.317 268.473 153.886C271.099 154.455 273.744 152.938 274.457 150.348L284.124 115.203Z" fill="black" fill-opacity="0.1"/>
<path d="M265.932 111.582C266.455 107.442 263.523 103.64 259.36 103.342C255.196 103.043 251.751 106.388 251.678 110.562L251.041 146.952C250.994 149.665 253.157 151.89 255.863 152.084C258.57 152.278 261.028 150.384 261.368 147.692L265.932 111.582Z" fill="black" fill-opacity="0.1"/>
<path d="M247.388 110.551C247.324 106.381 243.853 103.031 239.693 103.324C235.531 103.617 232.634 107.412 233.155 111.551L237.707 147.714C238.043 150.38 240.446 152.259 243.126 152.07C245.807 151.882 247.985 149.683 247.944 146.996L247.388 110.551Z" fill="black" fill-opacity="0.1"/>
<path d="M228.912 112.153C228.254 108.035 224.352 105.213 220.276 106.097C216.198 106.982 213.864 111.157 214.974 115.18L224.672 150.334C225.384 152.915 228.034 154.42 230.649 153.852C233.266 153.284 235.088 150.809 234.665 148.165L228.912 112.153Z" fill="#480689"/>
<path d="M210.863 116.38C209.621 112.399 205.363 110.163 201.456 111.621C197.547 113.081 195.825 117.552 197.5 121.374L212.131 154.774C213.206 157.229 216.056 158.337 218.567 157.399C221.08 156.461 222.521 153.749 221.722 151.189L210.863 116.38Z" fill="#480689"/>
<path d="M193.601 123.147C191.803 119.385 187.277 117.778 183.618 119.778C179.956 121.78 178.882 126.454 181.084 129.999L200.314 160.966C201.732 163.25 204.725 163.941 207.084 162.652C209.445 161.36 210.483 158.462 209.323 156.034L193.601 123.147Z" fill="#480689"/>
<path d="M177.475 132.307C175.16 128.839 170.457 127.888 167.119 130.386C163.778 132.887 163.372 137.67 166.054 140.868L189.472 168.793C191.204 170.858 194.273 171.118 196.43 169.503C198.59 167.887 199.205 164.864 197.708 162.62L177.475 132.307Z" fill="#480689"/>
<path d="M162.807 143.662C160.025 140.558 155.239 140.278 152.289 143.222C149.335 146.17 149.606 150.966 152.713 153.752L179.853 178.086C181.859 179.885 184.934 179.708 186.841 177.804C188.751 175.898 188.931 172.82 187.131 170.811L162.807 143.662Z" fill="#480689"/>
<path d="M149.895 156.977C146.702 154.298 141.929 154.694 139.426 158.027C136.92 161.363 137.867 166.076 141.337 168.392L171.674 188.634C173.91 190.126 176.922 189.513 178.536 187.364C180.151 185.213 179.894 182.149 177.833 180.42L149.895 156.977Z" fill="#480689"/>
<path d="M139.008 171.984C135.467 169.787 130.802 170.851 128.8 174.507C126.797 178.166 128.403 182.701 132.169 184.496L165.107 200.206C167.525 201.359 170.411 200.321 171.697 197.972C172.985 195.62 172.294 192.64 170.016 191.226L139.008 171.984Z" fill="#480689"/>
<path d="M130.379 188.385C126.56 186.717 122.1 188.43 120.642 192.334C119.184 196.242 121.421 200.507 125.404 201.744L160.266 212.574C162.82 213.368 165.527 211.92 166.462 209.414C167.397 206.907 166.285 204.069 163.833 202.998L130.379 188.385Z" fill="#480689"/>
<path d="M124.193 205.852C120.174 204.748 116.008 207.072 115.125 211.145C114.241 215.22 117.061 219.132 121.178 219.789L157.214 225.539C159.865 225.962 162.349 224.123 162.918 221.499C163.487 218.874 161.971 216.228 159.381 215.517L124.193 205.852Z" fill="#480689"/>
<path d="M112.337 230.602C112.635 226.442 116.434 223.511 120.573 224.033L156.727 228.596C159.417 228.936 161.309 231.392 161.115 234.096C160.921 236.801 158.698 238.962 155.987 238.914L119.551 238.278C115.381 238.205 112.038 234.762 112.337 230.602Z" fill="#480689"/>
<path d="M234.422 199.266L234.484 193.75L229.938 199.266H234.422ZM234.406 207.641V203.141H226.094V199.469L235.672 187.547H238.375V199.266H240.281V203.141H238.375V207.641H234.406ZM244.828 204.391C245.589 204.661 246.344 204.797 247.094 204.797H247.344C248.177 204.766 248.927 204.609 249.594 204.328C250.26 204.036 250.797 203.641 251.203 203.141C251.62 202.641 251.828 202.078 251.828 201.453C251.828 200.724 251.656 200.156 251.312 199.75C250.969 199.333 250.505 199.026 249.922 198.828C249.339 198.62 248.656 198.495 247.875 198.453C247.104 198.401 246.281 198.375 245.406 198.375H244.359L244.328 187.797H254.844V191.406H247.953V194.594C249.224 194.615 250.359 194.781 251.359 195.094C252.359 195.406 253.203 195.854 253.891 196.438C254.589 197.021 255.12 197.734 255.484 198.578C255.828 199.401 256 200.328 256 201.359V201.531C256 202.531 255.812 203.406 255.438 204.156C255.052 204.938 254.531 205.599 253.875 206.141C253.219 206.672 252.464 207.094 251.609 207.406C250.766 207.708 249.885 207.901 248.969 207.984C248.594 208.026 248.214 208.047 247.828 208.047C247.297 208.047 246.76 208.01 246.219 207.938C245.302 207.812 244.453 207.594 243.672 207.281L244.828 204.391ZM268.688 186.406L262.141 208.141L258.422 210.125L264.953 188.391L268.688 186.406ZM267.453 203.359C267.745 203.359 268.021 203.417 268.281 203.531C268.542 203.646 268.766 203.802 268.953 204C269.151 204.188 269.307 204.417 269.422 204.688C269.536 204.948 269.594 205.224 269.594 205.516C269.594 205.807 269.536 206.083 269.422 206.344C269.307 206.604 269.151 206.833 268.953 207.031C268.766 207.219 268.542 207.37 268.281 207.484C268.021 207.589 267.745 207.641 267.453 207.641C267.161 207.641 266.885 207.589 266.625 207.484C266.375 207.37 266.151 207.219 265.953 207.031C265.766 206.833 265.615 206.604 265.5 206.344C265.396 206.083 265.344 205.807 265.344 205.516C265.344 205.224 265.396 204.948 265.5 204.688C265.615 204.417 265.766 204.188 265.953 204C266.151 203.802 266.375 203.646 266.625 203.531C266.885 203.417 267.161 203.359 267.453 203.359ZM259.75 189.234C260.042 189.234 260.318 189.292 260.578 189.406C260.839 189.51 261.062 189.661 261.25 189.859C261.448 190.047 261.599 190.271 261.703 190.531C261.818 190.792 261.875 191.068 261.875 191.359C261.875 191.651 261.818 191.927 261.703 192.188C261.599 192.448 261.448 192.677 261.25 192.875C261.062 193.062 260.839 193.214 260.578 193.328C260.318 193.443 260.042 193.5 259.75 193.5C259.458 193.5 259.182 193.443 258.922 193.328C258.661 193.214 258.432 193.062 258.234 192.875C258.047 192.677 257.896 192.448 257.781 192.188C257.667 191.927 257.609 191.651 257.609 191.359C257.609 191.068 257.667 190.792 257.781 190.531C257.896 190.271 258.047 190.047 258.234 189.859C258.432 189.661 258.661 189.51 258.922 189.406C259.182 189.292 259.458 189.234 259.75 189.234Z" fill="black"/>
<path d="M200.285 231.811H199.998C199.515 231.811 198.989 231.676 198.419 231.407C198.428 231.494 198.433 231.583 198.433 231.674C198.433 231.879 198.41 232.07 198.364 232.248C198.187 232.923 197.694 233.424 196.888 233.752C196.282 234.003 195.548 234.13 194.687 234.135C193.98 234.135 193.358 234.064 192.82 233.923C191.909 233.681 191.202 233.28 190.701 232.72C190.209 232.177 189.963 231.526 189.963 230.765C189.963 230.455 189.983 230.168 190.024 229.903C190.061 229.625 190.12 229.366 190.202 229.124L191.364 229.336C191.296 229.536 191.246 229.755 191.214 229.992C191.177 230.238 191.159 230.496 191.159 230.765C191.159 231.339 191.337 231.824 191.692 232.221C192.048 232.613 192.556 232.897 193.217 233.075C193.613 233.18 194.078 233.232 194.611 233.232H194.68C195.34 233.232 195.885 233.144 196.313 232.966C196.792 232.774 197.084 232.478 197.188 232.077C197.22 231.95 197.236 231.815 197.236 231.674C197.236 231.204 197.054 230.851 196.689 230.614C196.471 230.478 196.081 230.343 195.521 230.211L195.473 230.204L195.767 229.336C196.113 229.386 196.448 229.47 196.771 229.589C197.049 229.675 197.284 229.776 197.476 229.89C197.585 229.944 197.744 230.026 197.954 230.136C198.825 230.651 199.506 230.908 199.998 230.908H200.285V231.811ZM194.509 235.755C194.509 235.65 194.529 235.552 194.57 235.461C194.611 235.37 194.666 235.29 194.734 235.222C194.803 235.153 194.882 235.099 194.974 235.058C195.065 235.021 195.163 235.003 195.268 235.003C195.368 235.003 195.461 235.021 195.548 235.058C195.639 235.099 195.716 235.153 195.78 235.222C195.849 235.29 195.901 235.37 195.938 235.461C195.979 235.552 195.999 235.65 195.999 235.755C195.999 235.86 195.979 235.955 195.938 236.042C195.901 236.133 195.849 236.211 195.78 236.274C195.716 236.343 195.639 236.395 195.548 236.432C195.461 236.473 195.368 236.493 195.268 236.493C195.163 236.493 195.065 236.473 194.974 236.432C194.882 236.395 194.803 236.343 194.734 236.274C194.666 236.211 194.611 236.133 194.57 236.042C194.529 235.955 194.509 235.86 194.509 235.755ZM192.725 235.755C192.725 235.65 192.745 235.552 192.786 235.461C192.827 235.37 192.882 235.29 192.95 235.222C193.019 235.153 193.096 235.099 193.183 235.058C193.274 235.021 193.369 235.003 193.47 235.003C193.57 235.003 193.666 235.021 193.757 235.058C193.848 235.099 193.928 235.153 193.996 235.222C194.064 235.29 194.117 235.37 194.153 235.461C194.194 235.552 194.215 235.65 194.215 235.755C194.215 235.86 194.194 235.955 194.153 236.042C194.117 236.133 194.064 236.211 193.996 236.274C193.928 236.343 193.848 236.395 193.757 236.432C193.666 236.473 193.57 236.493 193.47 236.493C193.369 236.493 193.274 236.473 193.183 236.432C193.096 236.395 193.019 236.343 192.95 236.274C192.882 236.211 192.827 236.133 192.786 236.042C192.745 235.955 192.725 235.86 192.725 235.755ZM203.067 230.484C203.304 230.671 203.56 230.822 203.833 230.936C204.111 230.822 204.368 230.671 204.605 230.484C205.189 230.024 205.588 229.402 205.802 228.618C205.897 228.267 205.945 227.946 205.945 227.654C205.945 227.249 205.852 226.925 205.665 226.684C205.51 226.479 205.287 226.337 204.995 226.26C204.799 226.205 204.576 226.178 204.325 226.178H203.341C203.09 226.178 202.869 226.205 202.678 226.26C202.386 226.337 202.163 226.479 202.008 226.684C201.821 226.925 201.728 227.249 201.728 227.654C201.728 227.946 201.775 228.267 201.871 228.618C202.085 229.402 202.484 230.024 203.067 230.484ZM199.813 231.811V230.908H201.974C201.358 230.352 200.932 229.648 200.695 228.796C200.581 228.377 200.524 227.996 200.524 227.654C200.524 227.089 200.673 226.615 200.969 226.232C201.274 225.84 201.707 225.567 202.268 225.412C202.596 225.321 202.953 225.275 203.341 225.275H204.325C204.717 225.275 205.077 225.321 205.405 225.412C205.966 225.567 206.396 225.84 206.697 226.232C206.993 226.615 207.142 227.089 207.142 227.654C207.142 227.996 207.085 228.377 206.971 228.796C206.738 229.648 206.312 230.352 205.692 230.908H207.825V231.811H199.813ZM208.96 224.797C208.96 224.692 208.98 224.594 209.021 224.503C209.062 224.412 209.117 224.332 209.186 224.264C209.254 224.195 209.331 224.143 209.418 224.106C209.509 224.065 209.605 224.045 209.705 224.045C209.805 224.045 209.901 224.065 209.992 224.106C210.083 224.143 210.163 224.195 210.231 224.264C210.3 224.332 210.352 224.412 210.389 224.503C210.43 224.594 210.45 224.692 210.45 224.797C210.45 224.902 210.43 225 210.389 225.091C210.352 225.177 210.3 225.255 210.231 225.323C210.163 225.387 210.083 225.439 209.992 225.48C209.901 225.517 209.805 225.535 209.705 225.535C209.605 225.535 209.509 225.517 209.418 225.48C209.331 225.439 209.254 225.387 209.186 225.323C209.117 225.255 209.062 225.177 209.021 225.091C208.98 225 208.96 224.902 208.96 224.797ZM207.347 231.811V230.908H207.777C208.183 230.908 208.511 230.781 208.762 230.525C209.044 230.234 209.186 229.824 209.186 229.295V226.506H210.389V229.438C210.411 229.894 210.55 230.254 210.806 230.519C211.061 230.778 211.382 230.908 211.77 230.908H212.228V231.811H211.77C210.972 231.811 210.327 231.555 209.835 231.045L209.787 230.997L209.732 231.052C209.24 231.558 208.589 231.811 207.777 231.811H207.347ZM220.335 230.908C220.927 230.908 221.415 230.71 221.798 230.313C222.208 229.894 222.413 229.318 222.413 228.584C222.413 227.782 222.215 227.169 221.818 226.745C221.458 226.367 220.959 226.178 220.321 226.178H216.527C215.889 226.178 215.39 226.367 215.03 226.745C214.634 227.169 214.436 227.782 214.436 228.584V230.908H220.335ZM211.749 231.811V230.908H213.219V228.276C213.201 227.137 213.082 226.406 212.863 226.082L213.827 225.501C213.946 225.697 214.048 226.005 214.135 226.424C214.65 225.667 215.447 225.285 216.527 225.275H220.321C221.374 225.275 222.199 225.594 222.796 226.232C223.338 226.807 223.609 227.59 223.609 228.584C223.609 229.509 223.329 230.261 222.769 230.84C222.746 230.863 222.723 230.885 222.7 230.908H224.341V231.811H211.749ZM227.212 223.908V229.671C227.212 230.236 227.007 230.724 226.597 231.134C226.146 231.585 225.59 231.811 224.929 231.811H223.862V230.908H224.929C225.193 230.908 225.43 230.803 225.64 230.594C225.89 230.348 226.016 230.04 226.016 229.671V223.908H227.212ZM229.782 223.908V231.359H228.586V223.908H229.782ZM235.675 230.908C235.424 230.671 235.226 230.402 235.08 230.102C234.957 229.842 234.896 229.587 234.896 229.336V229.24C234.914 228.935 235.028 228.668 235.237 228.44C235.588 228.053 236.11 227.859 236.803 227.859C237.108 227.859 237.391 227.905 237.65 227.996C237.91 228.092 238.133 228.229 238.32 228.406C238.411 228.493 238.491 228.593 238.56 228.707C238.628 228.812 238.685 228.924 238.73 229.042L237.575 229.281C237.552 229.208 237.523 229.145 237.486 229.09C237.454 229.04 237.416 228.994 237.37 228.953C237.306 228.889 237.229 228.841 237.138 228.81C237.042 228.773 236.93 228.755 236.803 228.755C236.529 228.755 236.336 228.816 236.222 228.939C236.144 229.031 236.101 229.145 236.092 229.281V229.329C236.092 229.479 236.131 229.637 236.208 229.801C236.445 230.284 236.889 230.653 237.541 230.908H238.648V231.811H234.629V230.908H235.675ZM241.294 223.908V229.671C241.294 230.04 241.419 230.348 241.67 230.594C241.88 230.803 242.117 230.908 242.381 230.908H243.857V231.811H242.381C241.72 231.811 241.164 231.585 240.713 231.134C240.303 230.724 240.098 230.236 240.098 229.671V223.908H241.294ZM243.386 230.908H250.7C251.347 230.908 251.865 230.778 252.252 230.519C252.603 230.282 252.778 229.956 252.778 229.541C252.778 229.085 252.607 228.739 252.266 228.502C251.906 228.251 251.379 228.126 250.687 228.126H244.582L244.575 227.682V227.019C244.612 225.875 245.259 225.059 246.517 224.571C247.241 224.289 248.44 224.075 250.112 223.929C250.691 223.879 251.088 223.835 251.302 223.799L251.555 224.674C251.309 224.715 250.873 224.763 250.249 224.817C248.896 224.94 247.925 225.102 247.337 225.303C246.316 225.658 245.794 226.235 245.771 227.032V227.224H250.687C251.685 227.224 252.482 227.431 253.079 227.846C253.676 228.26 253.975 228.826 253.975 229.541C253.975 230.215 253.667 230.762 253.052 231.182C252.437 231.601 251.653 231.811 250.7 231.811H243.386V230.908ZM256.695 231.811C256.262 231.811 255.87 231.735 255.52 231.585C255.214 231.453 254.907 231.243 254.597 230.956L255.526 230.396C255.736 230.591 255.932 230.728 256.114 230.806C256.278 230.874 256.472 230.908 256.695 230.908L259.026 230.915C259.008 230.751 258.981 230.505 258.944 230.177C258.799 228.878 258.616 227.973 258.397 227.463C258.033 226.606 257.418 226.178 256.552 226.178V225.275C257.905 225.275 258.853 225.793 259.396 226.827C259.719 227.442 259.965 228.534 260.134 230.102C260.17 230.421 260.202 230.689 260.229 230.908H261.426V231.811H256.695ZM256.429 223.498C256.429 223.393 256.449 223.295 256.49 223.204C256.531 223.113 256.586 223.033 256.654 222.965C256.723 222.896 256.8 222.844 256.887 222.808C256.978 222.767 257.074 222.746 257.174 222.746C257.274 222.746 257.37 222.767 257.461 222.808C257.552 222.844 257.632 222.896 257.7 222.965C257.769 223.033 257.821 223.113 257.857 223.204C257.898 223.295 257.919 223.393 257.919 223.498C257.919 223.603 257.898 223.701 257.857 223.792C257.821 223.879 257.769 223.956 257.7 224.024C257.632 224.088 257.552 224.141 257.461 224.182C257.37 224.218 257.274 224.236 257.174 224.236C257.074 224.236 256.978 224.218 256.887 224.182C256.8 224.141 256.723 224.088 256.654 224.024C256.586 223.956 256.531 223.879 256.49 223.792C256.449 223.701 256.429 223.603 256.429 223.498ZM264.304 223.908V229.671C264.304 230.236 264.099 230.724 263.688 231.134C263.237 231.585 262.681 231.811 262.021 231.811H260.954V230.908H262.021C262.285 230.908 262.522 230.803 262.731 230.594C262.982 230.348 263.107 230.04 263.107 229.671V223.908H264.304ZM266.874 223.908V231.359H265.678V223.908H266.874ZM279.028 231.811C278.231 231.811 277.586 231.555 277.094 231.045C277.039 230.99 276.989 230.933 276.943 230.874C276.656 231.188 276.305 231.425 275.891 231.585C275.526 231.731 275.143 231.804 274.742 231.804C274.669 231.804 274.596 231.801 274.523 231.797C274.04 231.765 273.596 231.631 273.19 231.394C272.211 230.828 271.721 229.892 271.721 228.584C271.721 227.595 271.992 226.811 272.534 226.232C273.131 225.604 273.956 225.287 275.009 225.282H275.029C275.631 225.282 276.169 225.387 276.643 225.597C277.303 225.884 277.634 226.292 277.634 226.82V229.295C277.634 229.819 277.775 230.227 278.058 230.519C278.313 230.778 278.636 230.908 279.028 230.908V231.811ZM276.438 226.82C276.438 226.633 276.305 226.483 276.041 226.369C275.749 226.242 275.412 226.178 275.029 226.178H275.009C274.371 226.178 273.872 226.369 273.512 226.752C273.115 227.171 272.917 227.782 272.917 228.584C272.917 229.6 273.252 230.302 273.922 230.689C274.145 230.817 274.38 230.888 274.626 230.901C274.667 230.906 274.708 230.908 274.749 230.908C274.954 230.908 275.152 230.869 275.344 230.792C275.968 230.546 276.333 230.047 276.438 229.295V226.82ZM274.954 223.478C274.954 223.373 274.975 223.275 275.016 223.184C275.057 223.092 275.111 223.013 275.18 222.944C275.248 222.876 275.328 222.824 275.419 222.787C275.51 222.746 275.608 222.726 275.713 222.726C275.813 222.726 275.907 222.746 275.993 222.787C276.084 222.824 276.162 222.876 276.226 222.944C276.294 223.013 276.346 223.092 276.383 223.184C276.424 223.275 276.444 223.373 276.444 223.478C276.444 223.582 276.424 223.68 276.383 223.771C276.346 223.858 276.294 223.936 276.226 224.004C276.162 224.068 276.084 224.12 275.993 224.161C275.907 224.198 275.813 224.216 275.713 224.216C275.608 224.216 275.51 224.198 275.419 224.161C275.328 224.12 275.248 224.068 275.18 224.004C275.111 223.936 275.057 223.858 275.016 223.771C274.975 223.68 274.954 223.582 274.954 223.478ZM273.17 223.478C273.17 223.373 273.19 223.275 273.231 223.184C273.272 223.092 273.327 223.013 273.396 222.944C273.464 222.876 273.541 222.824 273.628 222.787C273.719 222.746 273.815 222.726 273.915 222.726C274.015 222.726 274.111 222.746 274.202 222.787C274.293 222.824 274.373 222.876 274.441 222.944C274.51 223.013 274.562 223.092 274.599 223.184C274.64 223.275 274.66 223.373 274.66 223.478C274.66 223.582 274.64 223.68 274.599 223.771C274.562 223.858 274.51 223.936 274.441 224.004C274.373 224.068 274.293 224.12 274.202 224.161C274.111 224.198 274.015 224.216 273.915 224.216C273.815 224.216 273.719 224.198 273.628 224.161C273.541 224.12 273.464 224.068 273.396 224.004C273.327 223.936 273.272 223.858 273.231 223.771C273.19 223.68 273.17 223.582 273.17 223.478ZM281.018 233.704C281.018 233.599 281.038 233.501 281.079 233.41C281.12 233.319 281.175 233.239 281.243 233.171C281.312 233.103 281.391 233.048 281.482 233.007C281.574 232.97 281.672 232.952 281.776 232.952C281.877 232.952 281.97 232.97 282.057 233.007C282.148 233.048 282.225 233.103 282.289 233.171C282.357 233.239 282.41 233.319 282.446 233.41C282.487 233.501 282.508 233.599 282.508 233.704C282.508 233.809 282.487 233.905 282.446 233.991C282.41 234.082 282.357 234.16 282.289 234.224C282.225 234.292 282.148 234.344 282.057 234.381C281.97 234.422 281.877 234.442 281.776 234.442C281.672 234.442 281.574 234.422 281.482 234.381C281.391 234.344 281.312 234.292 281.243 234.224C281.175 234.16 281.12 234.082 281.079 233.991C281.038 233.905 281.018 233.809 281.018 233.704ZM279.233 233.704C279.233 233.599 279.254 233.501 279.295 233.41C279.336 233.319 279.391 233.239 279.459 233.171C279.527 233.103 279.605 233.048 279.691 233.007C279.783 232.97 279.878 232.952 279.979 232.952C280.079 232.952 280.174 232.97 280.266 233.007C280.357 233.048 280.437 233.103 280.505 233.171C280.573 233.239 280.626 233.319 280.662 233.41C280.703 233.501 280.724 233.599 280.724 233.704C280.724 233.809 280.703 233.905 280.662 233.991C280.626 234.082 280.573 234.16 280.505 234.224C280.437 234.292 280.357 234.344 280.266 234.381C280.174 234.422 280.079 234.442 279.979 234.442C279.878 234.442 279.783 234.422 279.691 234.381C279.605 234.344 279.527 234.292 279.459 234.224C279.391 234.16 279.336 234.082 279.295 233.991C279.254 233.905 279.233 233.809 279.233 233.704ZM278.55 231.811V230.908H278.98C279.386 230.908 279.714 230.781 279.965 230.525C280.247 230.234 280.389 229.824 280.389 229.295V226.506H281.592V229.438C281.615 229.894 281.754 230.254 282.009 230.519C282.264 230.778 282.585 230.908 282.973 230.908H283.431V231.811H282.973C282.175 231.811 281.53 231.555 281.038 231.045L280.99 230.997L280.936 231.052C280.443 231.558 279.792 231.811 278.98 231.811H278.55ZM286.302 223.908V229.671C286.302 230.236 286.097 230.724 285.687 231.134C285.235 231.585 284.679 231.811 284.019 231.811H282.952V230.908H284.019C284.283 230.908 284.52 230.803 284.729 230.594C284.98 230.348 285.105 230.04 285.105 229.671V223.908H286.302ZM288.872 223.908V229.671C288.872 230.04 288.997 230.348 289.248 230.594C289.458 230.803 289.695 230.908 289.959 230.908H291.436V231.811H289.959C289.298 231.811 288.742 231.585 288.291 231.134C287.881 230.724 287.676 230.236 287.676 229.671V223.908H288.872ZM294.218 230.484C294.455 230.671 294.71 230.822 294.983 230.936C295.261 230.822 295.519 230.671 295.756 230.484C296.339 230.024 296.738 229.402 296.952 228.618C297.048 228.267 297.096 227.946 297.096 227.654C297.096 227.249 297.002 226.925 296.815 226.684C296.66 226.479 296.437 226.337 296.146 226.26C295.95 226.205 295.726 226.178 295.476 226.178H294.491C294.241 226.178 294.02 226.205 293.828 226.26C293.536 226.337 293.313 226.479 293.158 226.684C292.971 226.925 292.878 227.249 292.878 227.654C292.878 227.946 292.926 228.267 293.021 228.618C293.236 229.402 293.634 230.024 294.218 230.484ZM290.964 231.811V230.908H293.124C292.509 230.352 292.083 229.648 291.846 228.796C291.732 228.377 291.675 227.996 291.675 227.654C291.675 227.089 291.823 226.615 292.119 226.232C292.424 225.84 292.857 225.567 293.418 225.412C293.746 225.321 294.104 225.275 294.491 225.275H295.476C295.868 225.275 296.228 225.321 296.556 225.412C297.116 225.567 297.547 225.84 297.848 226.232C298.144 226.615 298.292 227.089 298.292 227.654C298.292 227.996 298.235 228.377 298.121 228.796C297.889 229.648 297.463 230.352 296.843 230.908H298.976V231.811H290.964ZM301.97 223.908C301.97 223.803 301.99 223.705 302.031 223.614C302.072 223.523 302.127 223.443 302.195 223.375C302.264 223.307 302.341 223.254 302.428 223.218C302.519 223.177 302.615 223.156 302.715 223.156C302.815 223.156 302.911 223.177 303.002 223.218C303.093 223.254 303.173 223.307 303.241 223.375C303.31 223.443 303.362 223.523 303.398 223.614C303.439 223.705 303.46 223.803 303.46 223.908C303.46 224.013 303.439 224.111 303.398 224.202C303.362 224.289 303.31 224.366 303.241 224.435C303.173 224.498 303.093 224.551 303.002 224.592C302.911 224.628 302.815 224.646 302.715 224.646C302.615 224.646 302.519 224.628 302.428 224.592C302.341 224.551 302.264 224.498 302.195 224.435C302.127 224.366 302.072 224.289 302.031 224.202C301.99 224.111 301.97 224.013 301.97 223.908ZM304.834 228.584C304.834 227.773 304.636 227.16 304.239 226.745C303.884 226.367 303.382 226.178 302.735 226.178C302.097 226.178 301.601 226.367 301.245 226.745C300.844 227.169 300.644 227.782 300.644 228.584C300.644 229.318 300.849 229.894 301.259 230.313C301.642 230.71 302.132 230.908 302.729 230.908C303.344 230.908 303.84 230.715 304.219 230.327C304.629 229.908 304.834 229.327 304.834 228.584ZM300.356 230.908C300.334 230.885 300.311 230.863 300.288 230.84C299.728 230.261 299.447 229.509 299.447 228.584C299.447 227.59 299.718 226.807 300.261 226.232C300.862 225.594 301.687 225.275 302.735 225.275C303.793 225.275 304.62 225.592 305.217 226.226C305.759 226.8 306.03 227.586 306.03 228.584C306.03 229.518 305.748 230.275 305.183 230.854C304.563 231.492 303.745 231.811 302.729 231.811H298.497V230.908H300.356Z" fill="black" fill-opacity="0.4"/>
</g>
</g>
</g>
<defs>
<filter id="filter0_d_108_5515" x="0" y="0" width="496" height="263" filterUnits="userSpaceOnUse" color-interpolation-filters="sRGB">
<feFlood flood-opacity="0" result="BackgroundImageFix"/>
<feColorMatrix in="SourceAlpha" type="matrix" values="0 0 0 0 0 0 0 0 0 0 0 0 0 0 0 0 0 0 127 0" result="hardAlpha"/>
<feOffset dy="1"/>
<feComposite in2="hardAlpha" operator="out"/>
<feColorMatrix type="matrix" values="0 0 0 0 0 0 0 0 0 0 0 0 0 0 0 0 0 0 0.1 0"/>
<feBlend mode="normal" in2="BackgroundImageFix" result="effect1_dropShadow_108_5515"/>
<feBlend mode="normal" in="SourceGraphic" in2="effect1_dropShadow_108_5515" result="shape"/>
</filter>
<linearGradient id="paint0_linear_108_5515" x1="248" y1="0" x2="248" y2="238" gradientUnits="userSpaceOnUse">
<stop stop-color="white"/>
<stop offset="0.772538" stop-color="white" stop-opacity="0.971069"/>
<stop offset="1" stop-color="#FAFAFA" stop-opacity="0"/>
</linearGradient>
<clipPath id="clip0_108_5515">
<path d="M0 24C0 10.7452 10.7452 0 24 0H472C485.255 0 496 10.7452 496 24V238C496 251.255 485.255 262 472 262H24C10.7452 262 0 251.255 0 238V24Z" fill="white"/>
</clipPath>
</defs>
</svg>
