<svg width="20" height="20" viewBox="0 0 20 20" fill="none" xmlns="http://www.w3.org/2000/svg">
<rect width="20" height="20" rx="4" fill="url(#paint0_linear_195_603)"/>
<path fill-rule="evenodd" clip-rule="evenodd" d="M4.61389 9.9998V6H5.61389V9.98487C5.61426 9.98767 5.61486 9.99173 5.61581 9.99693C5.61976 10.0188 5.62966 10.0613 5.65364 10.1183C5.70026 10.2289 5.80674 10.4105 6.05579 10.6077C6.56123 11.0078 7.69262 11.4996 10.1664 11.4996C12.64 11.4996 13.7714 11.0078 14.2769 10.6077C14.526 10.4105 14.6324 10.2289 14.679 10.1183C14.703 10.0613 14.7129 10.0188 14.7168 9.99693C14.7178 9.99173 14.7184 9.98767 14.7188 9.98487V6H15.7188V9.9998H15.2188C15.7188 9.9998 15.7188 10.0011 15.7188 10.0011V10.0024V10.0051L15.7186 10.0113L15.7182 10.0259C15.7178 10.0367 15.717 10.0495 15.7158 10.0642C15.7133 10.0937 15.7088 10.1308 15.701 10.1745C15.6852 10.2621 15.6556 10.3758 15.6006 10.5063C15.4894 10.7706 15.2801 11.0889 14.8976 11.3917C14.1399 11.9915 12.7451 12.4996 10.1664 12.4996C7.5876 12.4996 6.19277 11.9915 5.4351 11.3917C5.0526 11.0889 4.8433 10.7706 4.73202 10.5063C4.67706 10.3758 4.6475 10.2621 4.6317 10.1745C4.62382 10.1308 4.61936 10.0937 4.61688 10.0642C4.61564 10.0495 4.6149 10.0367 4.61446 10.0259L4.61401 10.0113L4.61392 10.0051L4.6139 10.0024L4.61389 10.0011C4.61389 10.0011 4.61389 9.9998 5.11389 9.9998H4.61389Z" fill="white"/>
<path fill-rule="evenodd" clip-rule="evenodd" d="M4.61462 13.9997V10H5.61462V13.9848C5.61499 13.9876 5.6156 13.9917 5.61654 13.9969C5.6205 14.0188 5.63041 14.0613 5.6544 14.1183C5.70103 14.2291 5.80754 14.4108 6.05658 14.6081C6.56202 15.0083 7.69338 15.5003 10.167 15.5003C12.6408 15.5003 13.7721 15.0083 14.2776 14.6081C14.5266 14.4108 14.6331 14.2291 14.6797 14.1183C14.7037 14.0613 14.7136 14.0188 14.7176 13.9969C14.7185 13.9917 14.7191 13.9876 14.7195 13.9848V10H15.7195V13.9997H15.2195C15.7195 13.9997 15.7195 14.001 15.7195 14.001V14.0023V14.0051L15.7194 14.0112L15.719 14.0258C15.7185 14.0366 15.7178 14.0494 15.7165 14.0641C15.714 14.0936 15.7096 14.1307 15.7017 14.1745C15.6859 14.262 15.6564 14.3757 15.6014 14.5063C15.4902 14.7706 15.2808 15.0891 14.8984 15.392C14.1407 15.992 12.7458 16.5003 10.167 16.5003C7.5883 16.5003 6.19344 15.992 5.43576 15.392C5.05326 15.0891 4.84398 14.7706 4.73272 14.5063C4.67778 14.3757 4.64822 14.262 4.63243 14.1745C4.62454 14.1307 4.6201 14.0936 4.61762 14.0641C4.61638 14.0494 4.61563 14.0366 4.61519 14.0258L4.61474 14.0112L4.61465 14.0051L4.61462 14.0023V14.001C4.61462 14.001 4.61462 13.9997 5.11462 13.9997H4.61462Z" fill="white"/>
<path fill-rule="evenodd" clip-rule="evenodd" d="M5.85446 5.59317C5.66106 5.77531 5.61462 5.91725 5.61462 6.01255C5.61462 6.10785 5.66106 6.24979 5.85446 6.43193C6.04884 6.61499 6.35704 6.80287 6.77948 6.97113C7.62149 7.30653 8.81897 7.5251 10.167 7.5251C11.5152 7.5251 12.7126 7.30653 13.5546 6.97113C13.9771 6.80287 14.2853 6.61499 14.4796 6.43193C14.673 6.24979 14.7195 6.10785 14.7195 6.01255C14.7195 5.91725 14.673 5.77531 14.4796 5.59317C14.2853 5.41011 13.9771 5.22223 13.5546 5.05397C12.7126 4.71857 11.5152 4.5 10.167 4.5C8.81897 4.5 7.62149 4.71857 6.77948 5.05397C6.35704 5.22223 6.04884 5.41011 5.85446 5.59317ZM6.40942 4.12496C7.39602 3.73196 8.72477 3.5 10.167 3.5C11.6094 3.5 12.9381 3.73196 13.9247 4.12496C14.4166 4.32089 14.8483 4.56668 15.1652 4.86518C15.4832 5.1646 15.7195 5.5521 15.7195 6.01255C15.7195 6.473 15.4832 6.8605 15.1652 7.15992C14.8483 7.45842 14.4166 7.70421 13.9247 7.90014C12.9381 8.29314 11.6094 8.5251 10.167 8.5251C8.72477 8.5251 7.39602 8.29314 6.40942 7.90014C5.91754 7.70421 5.48583 7.45842 5.16887 7.15992C4.85094 6.8605 4.61462 6.473 4.61462 6.01255C4.61462 5.5521 4.85094 5.1646 5.16887 4.86518C5.48583 4.56668 5.91754 4.32089 6.40942 4.12496Z" fill="white"/>
<defs>
<linearGradient id="paint0_linear_195_603" x1="10" y1="0" x2="10" y2="20" gradientUnits="userSpaceOnUse">
<stop offset="0.77" stop-color="#14C0D8"/>
<stop offset="1" stop-color="#129AAD"/>
</linearGradient>
</defs>
</svg>
