<svg width="20" height="20" viewBox="0 0 20 20" fill="none" xmlns="http://www.w3.org/2000/svg">
<rect width="20" height="20" rx="4" fill="url(#paint0_linear_195_573)"/>
<path d="M5.91096 7.47484C5.91096 6.79443 6.48522 6.24314 7.1934 6.24314H7.77731C8.11608 6.2426 8.44067 6.11403 8.68127 5.88523L9.0893 5.49301C9.58863 5.01036 10.4012 5.00818 10.904 5.48756L10.9046 5.48811L10.9096 5.49247L11.3177 5.88469C11.5583 6.11349 11.8829 6.2426 12.2216 6.2426H12.8066C13.5154 6.2426 14.0897 6.79389 14.0897 7.47429V8.0343C14.0897 8.35952 14.2236 8.67167 14.4625 8.90211L14.8711 9.29433C15.3738 9.77369 15.3767 10.5538 14.8773 11.0364L14.8767 11.037L14.8716 11.0419L14.4631 11.4341C14.2241 11.6646 14.0903 11.9762 14.0903 12.3014V12.863C14.0891 13.5429 13.5149 14.0936 12.8066 14.0931H12.2205C11.8817 14.0931 11.5566 14.2217 11.3165 14.4515L10.9085 14.8427C10.4097 15.3259 9.59773 15.3292 9.09437 14.8509L9.09268 14.8492L9.08813 14.8443L8.68014 14.4527C8.43954 14.2238 8.11495 14.0947 7.77618 14.0947H7.1934C6.48522 14.0947 5.91096 13.5434 5.91096 12.863V12.3003C5.91096 11.975 5.77647 11.6635 5.53757 11.433L5.12957 11.0408C4.62681 10.5625 4.62283 9.78299 5.12162 9.30032L5.12333 9.29814L5.12844 9.29321L5.53643 8.90099C5.77534 8.67058 5.90982 8.35843 5.90982 8.03321V7.47484" stroke="white" stroke-linecap="round" stroke-linejoin="round"/>
<path d="M9.99896 8.13707V8.10819M9.99505 8.02252C9.92272 8.02252 9.8638 8.07908 9.86438 8.14852C9.86438 8.21796 9.9233 8.27452 9.99563 8.27452C10.068 8.27452 10.1269 8.21796 10.1269 8.14852C10.1269 8.07852 10.068 8.02252 9.99505 8.02252Z" stroke="white" stroke-linecap="round" stroke-linejoin="round"/>
<path d="M11.9028 9.06563V9.03673M11.899 8.95111C11.8266 8.95111 11.7677 9.00767 11.7683 9.07711C11.7683 9.14655 11.8272 9.20311 11.8996 9.20311C11.9719 9.20311 12.0308 9.14655 12.0308 9.07711C12.0308 9.00711 11.9719 8.95111 11.899 8.95111Z" stroke="white" stroke-linecap="round" stroke-linejoin="round"/>
<path d="M8.10319 9.06563V9.03673M8.0993 8.95111C8.02697 8.95111 7.96805 9.00767 7.96863 9.07711C7.96863 9.14655 8.02755 9.20311 8.09988 9.20311C8.17222 9.20311 8.23113 9.14655 8.23113 9.07711C8.23113 9.00711 8.17222 8.95111 8.0993 8.95111Z" stroke="white" stroke-linecap="round" stroke-linejoin="round"/>
<path d="M10.0175 11.9432C10.8152 11.9432 11.8271 12.6069 11.8126 11.5854C11.8067 10.8194 10.9756 10.1004 10.0175 10.0995C9.05374 10.0995 8.09653 10.8807 8.22931 11.6773C8.37629 12.601 9.31046 11.9432 10.0175 11.9432Z" stroke="white"/>
<defs>
<linearGradient id="paint0_linear_195_573" x1="10" y1="0" x2="10" y2="20" gradientUnits="userSpaceOnUse">
<stop offset="0.77" stop-color="#480689"/>
<stop offset="1" stop-color="#2C0652"/>
</linearGradient>
</defs>
</svg>
