<svg width="20" height="20" viewBox="0 0 20 20" fill="none" xmlns="http://www.w3.org/2000/svg">
<rect width="20" height="20" rx="4" fill="url(#paint0_linear_195_595)"/>
<path fill-rule="evenodd" clip-rule="evenodd" d="M5.625 5.16675C5.86662 5.16675 6.0625 5.35479 6.0625 5.58675V13.4267C6.0625 13.8133 6.38896 14.1267 6.79167 14.1267H14.9583C15.1999 14.1267 15.3958 14.3148 15.3958 14.5467C15.3958 14.7787 15.1999 14.9667 14.9583 14.9667H6.79167C5.90571 14.9667 5.1875 14.2773 5.1875 13.4267V5.58675C5.1875 5.35479 5.38338 5.16675 5.625 5.16675Z" fill="white"/>
<path fill-rule="evenodd" clip-rule="evenodd" d="M14.56 7.03143C14.7423 7.18372 14.7614 7.44902 14.6027 7.62398L11.9684 10.5293C11.8189 10.6942 11.5626 10.7214 11.3792 10.5919L8.55864 8.59987L6.1107 10.8452C5.936 11.0054 5.65906 10.9993 5.49215 10.8316C5.32523 10.6639 5.33154 10.398 5.50625 10.2378L8.21977 7.74891C8.37336 7.60804 8.61016 7.59343 8.78126 7.71427L11.5731 9.68597L13.9427 7.07247C14.1014 6.89751 14.3777 6.87914 14.56 7.03143Z" fill="white"/>
<path fill-rule="evenodd" clip-rule="evenodd" d="M14.6603 10.8748C14.7725 11.0802 14.6899 11.3341 14.4759 11.4418L11.8209 12.7776C11.7174 12.8297 11.5964 12.8399 11.485 12.8057L8.56399 11.9122L6.01267 13.2041C5.79896 13.3124 5.53432 13.2338 5.42159 13.0286C5.30886 12.8234 5.39073 12.5694 5.60445 12.4612L8.31798 11.0871C8.42174 11.0346 8.54314 11.0242 8.65491 11.0584L11.5766 11.9521L14.0697 10.6977C14.2837 10.5901 14.5482 10.6693 14.6603 10.8748Z" fill="white"/>
<path fill-rule="evenodd" clip-rule="evenodd" d="M14.6603 5.39186C14.7725 5.59731 14.6899 5.85116 14.4759 5.95884L11.8209 7.29468C11.7174 7.34678 11.5964 7.35692 11.485 7.32285L8.56399 6.42931L6.01267 7.72122C5.79896 7.82944 5.53432 7.75084 5.42159 7.54567C5.30886 7.34051 5.39073 7.08646 5.60445 6.97824L8.31798 5.6042C8.42174 5.55165 8.54314 5.54132 8.65491 5.57551L11.5766 6.46925L14.0697 5.21483C14.2837 5.10715 14.5482 5.18641 14.6603 5.39186Z" fill="white"/>
<defs>
<linearGradient id="paint0_linear_195_595" x1="10" y1="0" x2="10" y2="20" gradientUnits="userSpaceOnUse">
<stop offset="0.77" stop-color="#F27227"/>
<stop offset="1" stop-color="#C95C1C"/>
</linearGradient>
</defs>
</svg>
