<svg width="20" height="20" viewBox="0 0 20 20" fill="none" xmlns="http://www.w3.org/2000/svg">
<path d="M0 4C0 1.79086 1.79086 0 4 0H16C18.2091 0 20 1.79086 20 4V16C20 18.2091 18.2091 20 16 20H4C1.79086 20 0 18.2091 0 16V4Z" fill="url(#paint0_linear_195_646)"/>
<path fill-rule="evenodd" clip-rule="evenodd" d="M9.99805 5.25708C7.78093 5.25708 6.8176 7.2647 6.8176 8.59184C6.8176 9.58375 6.96141 9.29185 6.41236 10.5019C5.74188 12.2262 8.43807 12.9309 9.99805 12.9309C11.5576 12.9309 14.2538 12.2262 13.5838 10.5019C13.0348 9.29185 13.1786 9.58375 13.1786 8.59184C13.1786 7.2647 12.2148 5.25708 9.99805 5.25708Z" stroke="#404040" stroke-linecap="round" stroke-linejoin="round"/>
<path d="M11.1529 14.2561C10.5057 14.979 9.49624 14.9876 8.8429 14.2561" stroke="#404040" stroke-linecap="round" stroke-linejoin="round"/>
<defs>
<linearGradient id="paint0_linear_195_646" x1="10" y1="0" x2="10" y2="20" gradientUnits="userSpaceOnUse">
<stop offset="0.675" stop-color="#F6F6F6"/>
<stop offset="1" stop-color="#DDDDDD"/>
</linearGradient>
</defs>
</svg>
