<svg width="20" height="20" viewBox="0 0 20 20" fill="none" xmlns="http://www.w3.org/2000/svg">
<rect width="20" height="20" rx="4" fill="url(#paint0_linear_195_497)"/>
<path fill-rule="evenodd" clip-rule="evenodd" d="M7.19666 5.32253C7.58316 4.93602 8.10734 4.71875 8.65392 4.71875H13.8973C14.7364 4.71875 15.4166 5.39897 15.4166 6.23812V11.4815C15.4166 12.0281 15.1994 12.5522 14.8128 12.9387L13.0741 14.6775C12.6876 15.064 12.1634 15.2812 11.6168 15.2812H6.3735C5.53435 15.2812 4.85413 14.601 4.85413 13.7619V8.51854C4.85413 7.97197 5.0714 7.44779 5.45791 7.06128L7.19666 5.32253ZM8.65392 5.53125C8.32299 5.53125 8.00542 5.66281 7.77118 5.89705L6.03243 7.6358C5.79819 7.87005 5.66663 8.18762 5.66663 8.51854V13.7619C5.66663 14.1523 5.98307 14.4688 6.3735 14.4688H11.6168C11.9477 14.4688 12.2653 14.3372 12.4996 14.103L14.2383 12.3642C14.4726 12.1299 14.6041 11.8124 14.6041 11.4815V6.23812C14.6041 5.8477 14.2877 5.53125 13.8973 5.53125H8.65392Z" fill="white"/>
<path fill-rule="evenodd" clip-rule="evenodd" d="M7.96925 12.0298C7.74489 12.0299 7.56299 11.848 7.56299 11.6236C7.56298 11.3992 7.74486 11.2174 7.96922 11.2173L15.0055 11.2172C15.2299 11.2172 15.4117 11.3991 15.4117 11.6234C15.4117 11.8478 15.2299 12.0297 15.0055 12.0297L7.96925 12.0298Z" fill="white"/>
<path fill-rule="evenodd" clip-rule="evenodd" d="M8.22594 11.3085C8.39988 11.4502 8.426 11.7061 8.28428 11.88L5.90126 14.8049C5.75955 14.9789 5.50365 15.005 5.32971 14.8633C5.15577 14.7215 5.12965 14.4656 5.27137 14.2917L7.65438 11.3669C7.7961 11.1929 8.052 11.1668 8.22594 11.3085Z" fill="white"/>
<path fill-rule="evenodd" clip-rule="evenodd" d="M7.96875 4.86899C8.19311 4.86899 8.375 5.05087 8.375 5.27524V11.6235C8.375 11.848 8.19311 12.0298 7.96875 12.0298C7.74439 12.0298 7.5625 11.848 7.5625 11.6235V5.27524C7.5625 5.05087 7.74439 4.86899 7.96875 4.86899Z" fill="white"/>
<path fill-rule="evenodd" clip-rule="evenodd" d="M5.29322 8.61197C5.06886 8.61197 4.88697 8.4301 4.88696 8.20573C4.88695 7.98137 5.06883 7.79947 5.2932 7.79947H12.1887C12.413 7.79947 12.5949 7.98136 12.5949 8.20573C12.5949 8.43009 12.413 8.61197 12.1886 8.61197H5.29322Z" fill="white"/>
<path fill-rule="evenodd" clip-rule="evenodd" d="M14.9462 5.14122C15.1128 5.29149 15.126 5.54837 14.9758 5.71498L12.636 8.30925C12.636 8.30927 12.6361 8.30924 12.636 8.30925C12.6086 8.33972 12.5941 8.37714 12.5941 8.42207V14.7758C12.5941 15.0002 12.4122 15.1821 12.1879 15.1821C11.9635 15.1821 11.7816 15.0002 11.7816 14.7758V8.42207C11.7816 8.18535 11.8645 7.95191 12.0321 7.76572L14.3724 5.17083C14.5227 5.00421 14.7796 4.99096 14.9462 5.14122Z" fill="white"/>
<defs>
<linearGradient id="paint0_linear_195_497" x1="10" y1="0" x2="10" y2="20" gradientUnits="userSpaceOnUse">
<stop offset="0.77" stop-color="#480689"/>
<stop offset="1" stop-color="#2C0652"/>
</linearGradient>
</defs>
</svg>
