<svg width="20" height="20" viewBox="0 0 20 20" fill="none" xmlns="http://www.w3.org/2000/svg">
<rect width="20" height="20" rx="4" fill="url(#paint0_linear_195_634)"/>
<path fill-rule="evenodd" clip-rule="evenodd" d="M10.1666 4.5C7.12906 4.5 4.66663 6.96243 4.66663 10C4.66663 13.0375 7.12906 15.5 10.1666 15.5C13.2042 15.5 15.6666 13.0375 15.6666 10C15.6666 6.96243 13.2042 4.5 10.1666 4.5ZM3.66663 10C3.66663 6.41015 6.57677 3.5 10.1666 3.5C13.7565 3.5 16.6666 6.41015 16.6666 10C16.6666 13.5899 13.7565 16.5 10.1666 16.5C6.57677 16.5 3.66663 13.5899 3.66663 10Z" fill="#404040"/>
<path fill-rule="evenodd" clip-rule="evenodd" d="M8.27341 7.73417C8.64777 7.2394 9.25013 6.84375 10.1053 6.84375C10.9608 6.84375 11.5632 7.23936 11.9375 7.73422C12.1771 8.0509 12.3252 8.40931 12.3972 8.73527C12.7689 8.81107 13.1127 8.9802 13.3887 9.24354C13.7759 9.613 13.9958 10.136 13.9958 10.7491C13.9958 11.5838 13.5006 12.3047 12.7855 12.6285C12.7787 12.6315 12.7719 12.6344 12.765 12.6372C12.4717 12.7545 12.1805 12.7988 11.9488 12.7988H8.25927C8.02518 12.7988 7.7343 12.7515 7.44516 12.6345C7.43896 12.632 7.43282 12.6293 7.42672 12.6266C6.71335 12.3041 6.21484 11.5852 6.21484 10.7491C6.21484 10.136 6.43472 9.613 6.82194 9.24354C7.09792 8.9802 7.44174 8.81107 7.81349 8.73527C7.88558 8.40924 8.03382 8.05082 8.27341 7.73417ZM9.07086 8.33756C8.84793 8.63215 8.7606 8.98674 8.7606 9.18914C8.7606 9.46354 8.53948 9.68667 8.26512 9.68914C7.94778 9.692 7.68847 9.79887 7.51228 9.967C7.34037 10.1311 7.21484 10.3841 7.21484 10.7491C7.21484 11.1745 7.46591 11.5427 7.82962 11.7113C7.99256 11.7756 8.15166 11.7988 8.25927 11.7988H11.9488C12.0598 11.7988 12.2195 11.7765 12.3831 11.7129C12.7458 11.544 12.9958 11.1755 12.9958 10.7491C12.9958 10.3841 12.8703 10.1311 12.6984 9.967C12.5222 9.79887 12.2629 9.692 11.9455 9.68914C11.6712 9.68667 11.4501 9.46354 11.4501 9.18914C11.4501 8.9866 11.3628 8.63202 11.14 8.3375C10.9327 8.0634 10.6127 7.84375 10.1053 7.84375C9.59833 7.84375 9.27833 8.06334 9.07086 8.33756Z" fill="#404040"/>
<defs>
<linearGradient id="paint0_linear_195_634" x1="10" y1="0" x2="10" y2="20" gradientUnits="userSpaceOnUse">
<stop offset="0.675" stop-color="#F6F6F6"/>
<stop offset="1" stop-color="#DDDDDD"/>
</linearGradient>
</defs>
</svg>
