<svg width="20" height="20" viewBox="0 0 20 20" fill="none" xmlns="http://www.w3.org/2000/svg">
<rect width="20" height="20" rx="4" fill="url(#paint0_linear_195_548)"/>
<path fill-rule="evenodd" clip-rule="evenodd" d="M5.35717 6.74596C5.35717 5.71928 6.1894 4.88785 7.21528 4.88785H13.0765C14.1031 4.88785 14.9346 5.7194 14.9346 6.74596V11.3197L15.7265 13.0429C15.7313 13.0534 15.7357 13.0641 15.7397 13.075C16.102 14.0637 15.3702 15.1114 14.317 15.1114H5.97432C4.92184 15.1114 4.18926 14.0645 4.55152 13.0751C4.55553 13.0642 4.55998 13.0534 4.56485 13.0428L5.35717 11.3197V6.74596ZM7.21528 5.76285C6.67242 5.76285 6.23217 6.20276 6.23217 6.74596V11.4154C6.23217 11.4786 6.21852 11.5409 6.19216 11.5982L5.36807 13.3904C5.22722 13.8043 5.53468 14.2364 5.97432 14.2364H14.317C14.757 14.2364 15.0641 13.8038 14.9232 13.3904L14.0996 11.5981C14.0732 11.5408 14.0596 11.4785 14.0596 11.4154V6.74596C14.0596 6.20265 13.6198 5.76285 13.0765 5.76285H7.21528Z" fill="white"/>
<path fill-rule="evenodd" clip-rule="evenodd" d="M8.94617 13.0648C8.94617 12.8232 9.14199 12.6273 9.38367 12.6273H10.9093C11.1509 12.6273 11.3468 12.8232 11.3468 13.0648C11.3468 13.3064 11.1509 13.5023 10.9093 13.5023H9.38367C9.14199 13.5023 8.94617 13.3064 8.94617 13.0648Z" fill="white"/>
<path fill-rule="evenodd" clip-rule="evenodd" d="M5.36755 11.4162C5.36755 11.1746 5.56343 10.9787 5.80505 10.9787H14.4877C14.7293 10.9787 14.9252 11.1746 14.9252 11.4162C14.9252 11.6578 14.7293 11.8537 14.4877 11.8537H5.80505C5.56343 11.8537 5.36755 11.6578 5.36755 11.4162Z" fill="white"/>
<path d="M6.99969 11.2058L7 14.7938C7 15.46 6.49184 16 5.86494 16H4.13505C3.50847 16 3.00031 15.46 3.00031 14.7942L3 11.2062C3 10.54 3.50816 10 4.13475 10H5.86494C6.49152 10 6.99969 10.54 6.99969 11.2058Z" fill="#D4088C"/>
<path d="M3.00349 13.9541H6.99739H3.00349Z" fill="#D4088C"/>
<path d="M5.00009 14.9936V14.9775V14.9936ZM5.00009 14.8932C4.95674 14.8932 4.92161 14.9305 4.92161 14.9764C4.92161 15.0225 4.95674 15.0598 5.00009 15.0598C5.04347 15.0598 5.0786 15.0225 5.0786 14.9764C5.0786 14.9305 5.04347 14.8932 5.00009 14.8932Z" fill="#D4088C"/>
<path d="M3.00349 13.9541H6.99739M5.00009 14.9936V14.9775M6.99969 11.2058L7 14.7938C7 15.46 6.49184 16 5.86494 16H4.13505C3.50847 16 3.00031 15.46 3.00031 14.7942L3 11.2062C3 10.54 3.50816 10 4.13475 10H5.86494C6.49152 10 6.99969 10.54 6.99969 11.2058ZM5.00009 14.8932C4.95674 14.8932 4.92161 14.9305 4.92161 14.9764C4.92161 15.0225 4.95674 15.0598 5.00009 15.0598C5.04347 15.0598 5.0786 15.0225 5.0786 14.9764C5.0786 14.9305 5.04347 14.8932 5.00009 14.8932Z" stroke="white" stroke-width="0.5" stroke-linecap="round" stroke-linejoin="round"/>
<defs>
<linearGradient id="paint0_linear_195_548" x1="10" y1="0" x2="10" y2="20" gradientUnits="userSpaceOnUse">
<stop offset="0.77" stop-color="#D4088C"/>
<stop offset="1" stop-color="#A30A6D"/>
</linearGradient>
</defs>
</svg>
