<svg width="20" height="20" viewBox="0 0 20 20" fill="none" xmlns="http://www.w3.org/2000/svg">
<rect width="20" height="20" rx="4" fill="url(#paint0_linear_195_506)"/>
<path fill-rule="evenodd" clip-rule="evenodd" d="M4.36145 7.2188C4.36145 5.67922 5.60953 4.431 7.14868 4.431H12.9487C14.4883 4.431 15.7365 5.67915 15.7365 7.2188V10.4017C15.7365 11.9413 14.4883 13.1895 12.9487 13.1895C12.707 13.1895 12.5112 12.9936 12.5112 12.752C12.5112 12.5104 12.707 12.3145 12.9487 12.3145C14.0051 12.3145 14.8615 11.4581 14.8615 10.4017V7.2188C14.8615 6.1624 14.0051 5.306 12.9487 5.306H7.14868C6.09292 5.306 5.23645 6.16233 5.23645 7.2188V10.4017C5.23645 11.4582 6.09292 12.3145 7.14868 12.3145C7.39031 12.3145 7.58618 12.5104 7.58618 12.752C7.58618 12.9936 7.39031 13.1895 7.14868 13.1895C5.60953 13.1895 4.36145 11.9413 4.36145 10.4017V7.2188Z" fill="white"/>
<path fill-rule="evenodd" clip-rule="evenodd" d="M10.8339 11.4509C10.4929 10.8518 9.63128 10.8498 9.28705 11.4466L10.8339 11.4509ZM10.8339 11.4509L12.4207 14.2353C12.7595 14.8294 12.3304 15.5689 11.6456 15.5689H8.45253C7.76573 15.5689 7.33743 14.8255 7.68023 14.2312L9.28705 11.4466C9.28705 11.4467 9.28711 11.4466 9.28705 11.4466M10.049 11.8783C10.0485 11.8787 10.0471 11.8802 10.045 11.8838L8.43819 14.6684C8.43818 14.6684 8.43821 14.6683 8.43819 14.6684C8.43621 14.6718 8.43559 14.6739 8.43543 14.6745C8.43523 14.6753 8.43518 14.6758 8.43519 14.6765C8.43522 14.678 8.43575 14.6814 8.43814 14.6856C8.44054 14.6897 8.44318 14.6918 8.4444 14.6926C8.4449 14.6929 8.44536 14.6931 8.44602 14.6933C8.4466 14.6934 8.44857 14.6939 8.45253 14.6939H11.6456C11.6497 14.6939 11.6517 14.6934 11.6524 14.6932C11.6531 14.693 11.6536 14.6928 11.6541 14.6925C11.6554 14.6917 11.6581 14.6896 11.6605 14.6854C11.6629 14.6813 11.6634 14.6779 11.6634 14.6764C11.6634 14.6761 11.6634 14.6758 11.6634 14.6755C11.6634 14.6752 11.6633 14.675 11.6633 14.6746C11.6631 14.674 11.6626 14.6722 11.6607 14.6688L10.0737 11.8842C10.0716 11.8806 10.07 11.8787 10.0695 11.8783C10.069 11.8778 10.0686 11.8775 10.0681 11.8772C10.067 11.8765 10.0639 11.8754 10.0593 11.8753C10.0547 11.8753 10.0516 11.8765 10.0505 11.8772C10.0499 11.8775 10.0495 11.8778 10.049 11.8783Z" fill="white"/>
<defs>
<linearGradient id="paint0_linear_195_506" x1="10" y1="0" x2="10" y2="20" gradientUnits="userSpaceOnUse">
<stop offset="0.77" stop-color="#F27227"/>
<stop offset="1" stop-color="#C95C1C"/>
</linearGradient>
</defs>
</svg>
