<svg width="356" height="325" viewBox="0 0 356 325" fill="none" xmlns="http://www.w3.org/2000/svg">
<mask id="mask0_3461_5390" style="mask-type:alpha" maskUnits="userSpaceOnUse" x="-1" y="-31" width="360" height="362">
<path d="M29.4506 -30H-0.325928V0H29.4506V-30Z" stroke="white" stroke-linecap="round" stroke-linejoin="round" stroke-dasharray="0.1 4"/>
<path d="M59.2271 -30H29.4506V0H59.2271V-30Z" stroke="white" stroke-linecap="round" stroke-linejoin="round" stroke-dasharray="0.1 4"/>
<path d="M89.0037 -30H59.2271V0H89.0037V-30Z" stroke="white" stroke-linecap="round" stroke-linejoin="round" stroke-dasharray="0.1 4"/>
<path d="M118.78 -30H89.0037V0H118.78V-30Z" stroke="white" stroke-linecap="round" stroke-linejoin="round" stroke-dasharray="0.1 4"/>
<path d="M148.557 -30H118.78V0H148.557V-30Z" stroke="white" stroke-linecap="round" stroke-linejoin="round" stroke-dasharray="0.1 4"/>
<path d="M178.333 -30H148.557V0H178.333V-30Z" stroke="white" stroke-linecap="round" stroke-linejoin="round" stroke-dasharray="0.1 4"/>
<path d="M208.11 -30H178.333V0H208.11V-30Z" stroke="white" stroke-linecap="round" stroke-linejoin="round" stroke-dasharray="0.1 4"/>
<path d="M237.886 -30H208.11V0H237.886V-30Z" stroke="white" stroke-linecap="round" stroke-linejoin="round" stroke-dasharray="0.1 4"/>
<path d="M267.663 -30H237.886V0H267.663V-30Z" stroke="white" stroke-linecap="round" stroke-linejoin="round" stroke-dasharray="0.1 4"/>
<path d="M297.439 -30H267.663V0H297.439V-30Z" stroke="white" stroke-linecap="round" stroke-linejoin="round" stroke-dasharray="0.1 4"/>
<path d="M327.216 -30H297.439V0H327.216V-30Z" stroke="white" stroke-linecap="round" stroke-linejoin="round" stroke-dasharray="0.1 4"/>
<path d="M356.992 -30H327.216V0H356.992V-30Z" stroke="white" stroke-linecap="round" stroke-linejoin="round" stroke-dasharray="0.1 4"/>
<path d="M29.4506 0H-0.325928V30H29.4506V0Z" stroke="white" stroke-linecap="round" stroke-linejoin="round" stroke-dasharray="0.1 4"/>
<path d="M59.2271 0H29.4506V30H59.2271V0Z" stroke="white" stroke-linecap="round" stroke-linejoin="round" stroke-dasharray="0.1 4"/>
<path d="M89.0037 0H59.2271V30H89.0037V0Z" stroke="white" stroke-linecap="round" stroke-linejoin="round" stroke-dasharray="0.1 4"/>
<path d="M118.78 0H89.0037V30H118.78V0Z" stroke="white" stroke-linecap="round" stroke-linejoin="round" stroke-dasharray="0.1 4"/>
<path d="M148.557 0H118.78V30H148.557V0Z" stroke="white" stroke-linecap="round" stroke-linejoin="round" stroke-dasharray="0.1 4"/>
<path d="M178.333 0H148.557V30H178.333V0Z" stroke="white" stroke-linecap="round" stroke-linejoin="round" stroke-dasharray="0.1 4"/>
<path d="M208.11 0H178.333V30H208.11V0Z" stroke="white" stroke-linecap="round" stroke-linejoin="round" stroke-dasharray="0.1 4"/>
<path d="M237.886 0H208.11V30H237.886V0Z" stroke="white" stroke-linecap="round" stroke-linejoin="round" stroke-dasharray="0.1 4"/>
<path d="M267.663 0H237.886V30H267.663V0Z" stroke="white" stroke-linecap="round" stroke-linejoin="round" stroke-dasharray="0.1 4"/>
<path d="M297.439 0H267.663V30H297.439V0Z" stroke="white" stroke-linecap="round" stroke-linejoin="round" stroke-dasharray="0.1 4"/>
<path d="M327.216 0H297.439V30H327.216V0Z" stroke="white" stroke-linecap="round" stroke-linejoin="round" stroke-dasharray="0.1 4"/>
<path d="M356.992 0H327.216V30H356.992V0Z" stroke="white" stroke-linecap="round" stroke-linejoin="round" stroke-dasharray="0.1 4"/>
<path d="M29.4506 30H-0.325928V60H29.4506V30Z" stroke="white" stroke-linecap="round" stroke-linejoin="round" stroke-dasharray="0.1 4"/>
<path d="M59.2271 30H29.4506V60H59.2271V30Z" stroke="white" stroke-linecap="round" stroke-linejoin="round" stroke-dasharray="0.1 4"/>
<path d="M89.0037 30H59.2271V60H89.0037V30Z" stroke="white" stroke-linecap="round" stroke-linejoin="round" stroke-dasharray="0.1 4"/>
<path d="M118.78 30H89.0037V60H118.78V30Z" stroke="white" stroke-linecap="round" stroke-linejoin="round" stroke-dasharray="0.1 4"/>
<path d="M148.557 30H118.78V60H148.557V30Z" stroke="white" stroke-linecap="round" stroke-linejoin="round" stroke-dasharray="0.1 4"/>
<path d="M178.333 30H148.557V60H178.333V30Z" stroke="white" stroke-linecap="round" stroke-linejoin="round" stroke-dasharray="0.1 4"/>
<path d="M208.11 30H178.333V60H208.11V30Z" stroke="white" stroke-linecap="round" stroke-linejoin="round" stroke-dasharray="0.1 4"/>
<path d="M237.886 30H208.11V60H237.886V30Z" stroke="white" stroke-linecap="round" stroke-linejoin="round" stroke-dasharray="0.1 4"/>
<path d="M267.663 30H237.886V60H267.663V30Z" stroke="white" stroke-linecap="round" stroke-linejoin="round" stroke-dasharray="0.1 4"/>
<path d="M297.439 30H267.663V60H297.439V30Z" stroke="white" stroke-linecap="round" stroke-linejoin="round" stroke-dasharray="0.1 4"/>
<path d="M327.216 30H297.439V60H327.216V30Z" stroke="white" stroke-linecap="round" stroke-linejoin="round" stroke-dasharray="0.1 4"/>
<path d="M356.992 30H327.216V60H356.992V30Z" stroke="white" stroke-linecap="round" stroke-linejoin="round" stroke-dasharray="0.1 4"/>
<path d="M29.4506 60H-0.325928V90H29.4506V60Z" stroke="white" stroke-linecap="round" stroke-linejoin="round" stroke-dasharray="0.1 4"/>
<path d="M59.2271 60H29.4506V90H59.2271V60Z" stroke="white" stroke-linecap="round" stroke-linejoin="round" stroke-dasharray="0.1 4"/>
<path d="M89.0037 60H59.2271V90H89.0037V60Z" stroke="white" stroke-linecap="round" stroke-linejoin="round" stroke-dasharray="0.1 4"/>
<path d="M118.78 60H89.0037V90H118.78V60Z" stroke="white" stroke-linecap="round" stroke-linejoin="round" stroke-dasharray="0.1 4"/>
<path d="M148.557 60H118.78V90H148.557V60Z" stroke="white" stroke-linecap="round" stroke-linejoin="round" stroke-dasharray="0.1 4"/>
<path d="M178.333 60H148.557V90H178.333V60Z" stroke="white" stroke-linecap="round" stroke-linejoin="round" stroke-dasharray="0.1 4"/>
<path d="M208.11 60H178.333V90H208.11V60Z" stroke="white" stroke-linecap="round" stroke-linejoin="round" stroke-dasharray="0.1 4"/>
<path d="M237.886 60H208.11V90H237.886V60Z" stroke="white" stroke-linecap="round" stroke-linejoin="round" stroke-dasharray="0.1 4"/>
<path d="M267.663 60H237.886V90H267.663V60Z" stroke="white" stroke-linecap="round" stroke-linejoin="round" stroke-dasharray="0.1 4"/>
<path d="M297.439 60H267.663V90H297.439V60Z" stroke="white" stroke-linecap="round" stroke-linejoin="round" stroke-dasharray="0.1 4"/>
<path d="M327.216 60H297.439V90H327.216V60Z" stroke="white" stroke-linecap="round" stroke-linejoin="round" stroke-dasharray="0.1 4"/>
<path d="M356.992 60H327.216V90H356.992V60Z" stroke="white" stroke-linecap="round" stroke-linejoin="round" stroke-dasharray="0.1 4"/>
<path d="M29.4506 90H-0.325928V120H29.4506V90Z" stroke="white" stroke-linecap="round" stroke-linejoin="round" stroke-dasharray="0.1 4"/>
<path d="M59.2271 90H29.4506V120H59.2271V90Z" stroke="white" stroke-linecap="round" stroke-linejoin="round" stroke-dasharray="0.1 4"/>
<path d="M89.0037 90H59.2271V120H89.0037V90Z" stroke="white" stroke-linecap="round" stroke-linejoin="round" stroke-dasharray="0.1 4"/>
<path d="M118.78 90H89.0037V120H118.78V90Z" stroke="white" stroke-linecap="round" stroke-linejoin="round" stroke-dasharray="0.1 4"/>
<path d="M148.557 90H118.78V120H148.557V90Z" stroke="white" stroke-linecap="round" stroke-linejoin="round" stroke-dasharray="0.1 4"/>
<path d="M178.333 90H148.557V120H178.333V90Z" stroke="white" stroke-linecap="round" stroke-linejoin="round" stroke-dasharray="0.1 4"/>
<path d="M208.11 90H178.333V120H208.11V90Z" stroke="white" stroke-linecap="round" stroke-linejoin="round" stroke-dasharray="0.1 4"/>
<path d="M237.886 90H208.11V120H237.886V90Z" stroke="white" stroke-linecap="round" stroke-linejoin="round" stroke-dasharray="0.1 4"/>
<path d="M267.663 90H237.886V120H267.663V90Z" stroke="white" stroke-linecap="round" stroke-linejoin="round" stroke-dasharray="0.1 4"/>
<path d="M297.439 90H267.663V120H297.439V90Z" stroke="white" stroke-linecap="round" stroke-linejoin="round" stroke-dasharray="0.1 4"/>
<path d="M327.216 90H297.439V120H327.216V90Z" stroke="white" stroke-linecap="round" stroke-linejoin="round" stroke-dasharray="0.1 4"/>
<path d="M356.992 90H327.216V120H356.992V90Z" stroke="white" stroke-linecap="round" stroke-linejoin="round" stroke-dasharray="0.1 4"/>
<path d="M29.4506 120H-0.325928V150H29.4506V120Z" stroke="white" stroke-linecap="round" stroke-linejoin="round" stroke-dasharray="0.1 4"/>
<path d="M59.2271 120H29.4506V150H59.2271V120Z" stroke="white" stroke-linecap="round" stroke-linejoin="round" stroke-dasharray="0.1 4"/>
<path d="M89.0037 120H59.2271V150H89.0037V120Z" stroke="white" stroke-linecap="round" stroke-linejoin="round" stroke-dasharray="0.1 4"/>
<path d="M118.78 120H89.0037V150H118.78V120Z" stroke="white" stroke-linecap="round" stroke-linejoin="round" stroke-dasharray="0.1 4"/>
<path d="M148.557 120H118.78V150H148.557V120Z" stroke="white" stroke-linecap="round" stroke-linejoin="round" stroke-dasharray="0.1 4"/>
<path d="M178.333 120H148.557V150H178.333V120Z" stroke="white" stroke-linecap="round" stroke-linejoin="round" stroke-dasharray="0.1 4"/>
<path d="M208.11 120H178.333V150H208.11V120Z" stroke="white" stroke-linecap="round" stroke-linejoin="round" stroke-dasharray="0.1 4"/>
<path d="M237.886 120H208.11V150H237.886V120Z" stroke="white" stroke-linecap="round" stroke-linejoin="round" stroke-dasharray="0.1 4"/>
<path d="M267.663 120H237.886V150H267.663V120Z" stroke="white" stroke-linecap="round" stroke-linejoin="round" stroke-dasharray="0.1 4"/>
<path d="M297.439 120H267.663V150H297.439V120Z" stroke="white" stroke-linecap="round" stroke-linejoin="round" stroke-dasharray="0.1 4"/>
<path d="M327.216 120H297.439V150H327.216V120Z" stroke="white" stroke-linecap="round" stroke-linejoin="round" stroke-dasharray="0.1 4"/>
<path d="M356.992 120H327.216V150H356.992V120Z" stroke="white" stroke-linecap="round" stroke-linejoin="round" stroke-dasharray="0.1 4"/>
<path d="M29.4506 150H-0.325928V180H29.4506V150Z" stroke="white" stroke-linecap="round" stroke-linejoin="round" stroke-dasharray="0.1 4"/>
<path d="M59.2271 150H29.4506V180H59.2271V150Z" stroke="white" stroke-linecap="round" stroke-linejoin="round" stroke-dasharray="0.1 4"/>
<path d="M89.0037 150H59.2271V180H89.0037V150Z" stroke="white" stroke-linecap="round" stroke-linejoin="round" stroke-dasharray="0.1 4"/>
<path d="M118.78 150H89.0037V180H118.78V150Z" stroke="white" stroke-linecap="round" stroke-linejoin="round" stroke-dasharray="0.1 4"/>
<path d="M148.557 150H118.78V180H148.557V150Z" stroke="white" stroke-linecap="round" stroke-linejoin="round" stroke-dasharray="0.1 4"/>
<path d="M178.333 150H148.557V180H178.333V150Z" stroke="white" stroke-linecap="round" stroke-linejoin="round" stroke-dasharray="0.1 4"/>
<path d="M208.11 150H178.333V180H208.11V150Z" stroke="white" stroke-linecap="round" stroke-linejoin="round" stroke-dasharray="0.1 4"/>
<path d="M237.886 150H208.11V180H237.886V150Z" stroke="white" stroke-linecap="round" stroke-linejoin="round" stroke-dasharray="0.1 4"/>
<path d="M267.663 150H237.886V180H267.663V150Z" stroke="white" stroke-linecap="round" stroke-linejoin="round" stroke-dasharray="0.1 4"/>
<path d="M297.439 150H267.663V180H297.439V150Z" stroke="white" stroke-linecap="round" stroke-linejoin="round" stroke-dasharray="0.1 4"/>
<path d="M327.216 150H297.439V180H327.216V150Z" stroke="white" stroke-linecap="round" stroke-linejoin="round" stroke-dasharray="0.1 4"/>
<path d="M356.992 150H327.216V180H356.992V150Z" stroke="white" stroke-linecap="round" stroke-linejoin="round" stroke-dasharray="0.1 4"/>
<path d="M29.4506 180H-0.325928V210H29.4506V180Z" stroke="white" stroke-linecap="round" stroke-linejoin="round" stroke-dasharray="0.1 4"/>
<path d="M59.2271 180H29.4506V210H59.2271V180Z" stroke="white" stroke-linecap="round" stroke-linejoin="round" stroke-dasharray="0.1 4"/>
<path d="M89.0037 180H59.2271V210H89.0037V180Z" stroke="white" stroke-linecap="round" stroke-linejoin="round" stroke-dasharray="0.1 4"/>
<path d="M118.78 180H89.0037V210H118.78V180Z" stroke="white" stroke-linecap="round" stroke-linejoin="round" stroke-dasharray="0.1 4"/>
<path d="M148.557 180H118.78V210H148.557V180Z" stroke="white" stroke-linecap="round" stroke-linejoin="round" stroke-dasharray="0.1 4"/>
<path d="M178.333 180H148.557V210H178.333V180Z" stroke="white" stroke-linecap="round" stroke-linejoin="round" stroke-dasharray="0.1 4"/>
<path d="M208.11 180H178.333V210H208.11V180Z" stroke="white" stroke-linecap="round" stroke-linejoin="round" stroke-dasharray="0.1 4"/>
<path d="M237.886 180H208.11V210H237.886V180Z" stroke="white" stroke-linecap="round" stroke-linejoin="round" stroke-dasharray="0.1 4"/>
<path d="M267.663 180H237.886V210H267.663V180Z" stroke="white" stroke-linecap="round" stroke-linejoin="round" stroke-dasharray="0.1 4"/>
<path d="M297.439 180H267.663V210H297.439V180Z" stroke="white" stroke-linecap="round" stroke-linejoin="round" stroke-dasharray="0.1 4"/>
<path d="M327.216 180H297.439V210H327.216V180Z" stroke="white" stroke-linecap="round" stroke-linejoin="round" stroke-dasharray="0.1 4"/>
<path d="M356.992 180H327.216V210H356.992V180Z" stroke="white" stroke-linecap="round" stroke-linejoin="round" stroke-dasharray="0.1 4"/>
<path d="M29.4506 210H-0.325928V240H29.4506V210Z" stroke="white" stroke-linecap="round" stroke-linejoin="round" stroke-dasharray="0.1 4"/>
<path d="M59.2271 210H29.4506V240H59.2271V210Z" stroke="white" stroke-linecap="round" stroke-linejoin="round" stroke-dasharray="0.1 4"/>
<path d="M89.0037 210H59.2271V240H89.0037V210Z" stroke="white" stroke-linecap="round" stroke-linejoin="round" stroke-dasharray="0.1 4"/>
<path d="M118.78 210H89.0037V240H118.78V210Z" stroke="white" stroke-linecap="round" stroke-linejoin="round" stroke-dasharray="0.1 4"/>
<path d="M148.557 210H118.78V240H148.557V210Z" stroke="white" stroke-linecap="round" stroke-linejoin="round" stroke-dasharray="0.1 4"/>
<path d="M178.333 210H148.557V240H178.333V210Z" stroke="white" stroke-linecap="round" stroke-linejoin="round" stroke-dasharray="0.1 4"/>
<path d="M208.11 210H178.333V240H208.11V210Z" stroke="white" stroke-linecap="round" stroke-linejoin="round" stroke-dasharray="0.1 4"/>
<path d="M237.886 210H208.11V240H237.886V210Z" stroke="white" stroke-linecap="round" stroke-linejoin="round" stroke-dasharray="0.1 4"/>
<path d="M267.663 210H237.886V240H267.663V210Z" stroke="white" stroke-linecap="round" stroke-linejoin="round" stroke-dasharray="0.1 4"/>
<path d="M297.439 210H267.663V240H297.439V210Z" stroke="white" stroke-linecap="round" stroke-linejoin="round" stroke-dasharray="0.1 4"/>
<path d="M327.216 210H297.439V240H327.216V210Z" stroke="white" stroke-linecap="round" stroke-linejoin="round" stroke-dasharray="0.1 4"/>
<path d="M356.992 210H327.216V240H356.992V210Z" stroke="white" stroke-linecap="round" stroke-linejoin="round" stroke-dasharray="0.1 4"/>
<path d="M29.4506 240H-0.325928V270H29.4506V240Z" stroke="white" stroke-linecap="round" stroke-linejoin="round" stroke-dasharray="0.1 4"/>
<path d="M59.2271 240H29.4506V270H59.2271V240Z" stroke="white" stroke-linecap="round" stroke-linejoin="round" stroke-dasharray="0.1 4"/>
<path d="M89.0037 240H59.2271V270H89.0037V240Z" stroke="white" stroke-linecap="round" stroke-linejoin="round" stroke-dasharray="0.1 4"/>
<path d="M118.78 240H89.0037V270H118.78V240Z" stroke="white" stroke-linecap="round" stroke-linejoin="round" stroke-dasharray="0.1 4"/>
<path d="M148.557 240H118.78V270H148.557V240Z" stroke="white" stroke-linecap="round" stroke-linejoin="round" stroke-dasharray="0.1 4"/>
<path d="M178.333 240H148.557V270H178.333V240Z" stroke="white" stroke-linecap="round" stroke-linejoin="round" stroke-dasharray="0.1 4"/>
<path d="M208.11 240H178.333V270H208.11V240Z" stroke="white" stroke-linecap="round" stroke-linejoin="round" stroke-dasharray="0.1 4"/>
<path d="M237.886 240H208.11V270H237.886V240Z" stroke="white" stroke-linecap="round" stroke-linejoin="round" stroke-dasharray="0.1 4"/>
<path d="M267.663 240H237.886V270H267.663V240Z" stroke="white" stroke-linecap="round" stroke-linejoin="round" stroke-dasharray="0.1 4"/>
<path d="M297.439 240H267.663V270H297.439V240Z" stroke="white" stroke-linecap="round" stroke-linejoin="round" stroke-dasharray="0.1 4"/>
<path d="M327.216 240H297.439V270H327.216V240Z" stroke="white" stroke-linecap="round" stroke-linejoin="round" stroke-dasharray="0.1 4"/>
<path d="M356.992 240H327.216V270H356.992V240Z" stroke="white" stroke-linecap="round" stroke-linejoin="round" stroke-dasharray="0.1 4"/>
<path d="M29.4506 270H-0.325928V300H29.4506V270Z" stroke="white" stroke-linecap="round" stroke-linejoin="round" stroke-dasharray="0.1 4"/>
<path d="M59.2271 270H29.4506V300H59.2271V270Z" stroke="white" stroke-linecap="round" stroke-linejoin="round" stroke-dasharray="0.1 4"/>
<path d="M89.0037 270H59.2271V300H89.0037V270Z" stroke="white" stroke-linecap="round" stroke-linejoin="round" stroke-dasharray="0.1 4"/>
<path d="M118.78 270H89.0037V300H118.78V270Z" stroke="white" stroke-linecap="round" stroke-linejoin="round" stroke-dasharray="0.1 4"/>
<path d="M148.557 270H118.78V300H148.557V270Z" stroke="white" stroke-linecap="round" stroke-linejoin="round" stroke-dasharray="0.1 4"/>
<path d="M178.333 270H148.557V300H178.333V270Z" stroke="white" stroke-linecap="round" stroke-linejoin="round" stroke-dasharray="0.1 4"/>
<path d="M208.11 270H178.333V300H208.11V270Z" stroke="white" stroke-linecap="round" stroke-linejoin="round" stroke-dasharray="0.1 4"/>
<path d="M237.886 270H208.11V300H237.886V270Z" stroke="white" stroke-linecap="round" stroke-linejoin="round" stroke-dasharray="0.1 4"/>
<path d="M267.663 270H237.886V300H267.663V270Z" stroke="white" stroke-linecap="round" stroke-linejoin="round" stroke-dasharray="0.1 4"/>
<path d="M297.439 270H267.663V300H297.439V270Z" stroke="white" stroke-linecap="round" stroke-linejoin="round" stroke-dasharray="0.1 4"/>
<path d="M327.216 270H297.439V300H327.216V270Z" stroke="white" stroke-linecap="round" stroke-linejoin="round" stroke-dasharray="0.1 4"/>
<path d="M356.992 270H327.216V300H356.992V270Z" stroke="white" stroke-linecap="round" stroke-linejoin="round" stroke-dasharray="0.1 4"/>
<path d="M29.4506 300H-0.325928V330H29.4506V300Z" stroke="white" stroke-linecap="round" stroke-linejoin="round" stroke-dasharray="0.1 4"/>
<path d="M59.2271 300H29.4506V330H59.2271V300Z" stroke="white" stroke-linecap="round" stroke-linejoin="round" stroke-dasharray="0.1 4"/>
<path d="M89.0037 300H59.2271V330H89.0037V300Z" stroke="white" stroke-linecap="round" stroke-linejoin="round" stroke-dasharray="0.1 4"/>
<path d="M118.78 300H89.0037V330H118.78V300Z" stroke="white" stroke-linecap="round" stroke-linejoin="round" stroke-dasharray="0.1 4"/>
<path d="M148.557 300H118.78V330H148.557V300Z" stroke="white" stroke-linecap="round" stroke-linejoin="round" stroke-dasharray="0.1 4"/>
<path d="M178.333 300H148.557V330H178.333V300Z" stroke="white" stroke-linecap="round" stroke-linejoin="round" stroke-dasharray="0.1 4"/>
<path d="M208.11 300H178.333V330H208.11V300Z" stroke="white" stroke-linecap="round" stroke-linejoin="round" stroke-dasharray="0.1 4"/>
<path d="M237.886 300H208.11V330H237.886V300Z" stroke="white" stroke-linecap="round" stroke-linejoin="round" stroke-dasharray="0.1 4"/>
<path d="M267.663 300H237.886V330H267.663V300Z" stroke="white" stroke-linecap="round" stroke-linejoin="round" stroke-dasharray="0.1 4"/>
<path d="M297.439 300H267.663V330H297.439V300Z" stroke="white" stroke-linecap="round" stroke-linejoin="round" stroke-dasharray="0.1 4"/>
<path d="M327.216 300H297.439V330H327.216V300Z" stroke="white" stroke-linecap="round" stroke-linejoin="round" stroke-dasharray="0.1 4"/>
<path d="M356.992 300H327.216V330H356.992V300Z" stroke="white" stroke-linecap="round" stroke-linejoin="round" stroke-dasharray="0.1 4"/>
<path d="M29.4506 -2L29.9868 -0.540199L31.4357 0L29.9868 0.540199L29.4506 2L28.9144 0.540199L27.4655 0L28.9144 -0.540199L29.4506 -2Z" fill="white"/>
<path d="M59.2271 -2L59.7633 -0.540199L61.2122 0L59.7633 0.540199L59.2271 2L58.691 0.540199L57.242 0L58.691 -0.540199L59.2271 -2Z" fill="white"/>
<path d="M89.0037 -2L89.5399 -0.540199L90.9888 0L89.5399 0.540199L89.0037 2L88.4675 0.540199L87.0186 0L88.4675 -0.540199L89.0037 -2Z" fill="white"/>
<path d="M118.78 -2L119.316 -0.540199L120.765 0L119.316 0.540199L118.78 2L118.244 0.540199L116.795 0L118.244 -0.540199L118.78 -2Z" fill="white"/>
<path d="M148.557 -2L149.093 -0.540199L150.542 0L149.093 0.540199L148.557 2L148.021 0.540199L146.572 0L148.021 -0.540199L148.557 -2Z" fill="white"/>
<path d="M178.333 -2L178.869 -0.540199L180.318 0L178.869 0.540199L178.333 2L177.797 0.540199L176.348 0L177.797 -0.540199L178.333 -2Z" fill="white"/>
<path d="M208.11 -2L208.646 -0.540199L210.095 0L208.646 0.540199L208.11 2L207.574 0.540199L206.125 0L207.574 -0.540199L208.11 -2Z" fill="white"/>
<path d="M237.886 -2L238.422 -0.540199L239.871 0L238.422 0.540199L237.886 2L237.35 0.540199L235.901 0L237.35 -0.540199L237.886 -2Z" fill="white"/>
<path d="M267.663 -2L268.199 -0.540199L269.648 0L268.199 0.540199L267.663 2L267.127 0.540199L265.678 0L267.127 -0.540199L267.663 -2Z" fill="white"/>
<path d="M297.439 -2L297.975 -0.540199L299.425 0L297.975 0.540199L297.439 2L296.903 0.540199L295.454 0L296.903 -0.540199L297.439 -2Z" fill="white"/>
<path d="M327.216 -2L327.752 -0.540199L329.201 0L327.752 0.540199L327.216 2L326.68 0.540199L325.231 0L326.68 -0.540199L327.216 -2Z" fill="white"/>
<path d="M356.992 -2L357.528 -0.540199L358.978 0L357.528 0.540199L356.992 2L356.457 0.540199L355.007 0L356.457 -0.540199L356.992 -2Z" fill="white"/>
<path d="M29.4506 28L29.9868 29.4598L31.4357 30L29.9868 30.5402L29.4506 32L28.9144 30.5402L27.4655 30L28.9144 29.4598L29.4506 28Z" fill="white"/>
<path d="M59.2271 28L59.7633 29.4598L61.2122 30L59.7633 30.5402L59.2271 32L58.691 30.5402L57.242 30L58.691 29.4598L59.2271 28Z" fill="white"/>
<path d="M89.0037 28L89.5399 29.4598L90.9888 30L89.5399 30.5402L89.0037 32L88.4675 30.5402L87.0186 30L88.4675 29.4598L89.0037 28Z" fill="white"/>
<path d="M118.78 28L119.316 29.4598L120.765 30L119.316 30.5402L118.78 32L118.244 30.5402L116.795 30L118.244 29.4598L118.78 28Z" fill="white"/>
<path d="M148.557 28L149.093 29.4598L150.542 30L149.093 30.5402L148.557 32L148.021 30.5402L146.572 30L148.021 29.4598L148.557 28Z" fill="white"/>
<path d="M178.333 28L178.869 29.4598L180.318 30L178.869 30.5402L178.333 32L177.797 30.5402L176.348 30L177.797 29.4598L178.333 28Z" fill="white"/>
<path d="M208.11 28L208.646 29.4598L210.095 30L208.646 30.5402L208.11 32L207.574 30.5402L206.125 30L207.574 29.4598L208.11 28Z" fill="white"/>
<path d="M237.886 28L238.422 29.4598L239.871 30L238.422 30.5402L237.886 32L237.35 30.5402L235.901 30L237.35 29.4598L237.886 28Z" fill="white"/>
<path d="M267.663 28L268.199 29.4598L269.648 30L268.199 30.5402L267.663 32L267.127 30.5402L265.678 30L267.127 29.4598L267.663 28Z" fill="white"/>
<path d="M297.439 28L297.975 29.4598L299.425 30L297.975 30.5402L297.439 32L296.903 30.5402L295.454 30L296.903 29.4598L297.439 28Z" fill="white"/>
<path d="M327.216 28L327.752 29.4598L329.201 30L327.752 30.5402L327.216 32L326.68 30.5402L325.231 30L326.68 29.4598L327.216 28Z" fill="white"/>
<path d="M356.992 28L357.528 29.4598L358.978 30L357.528 30.5402L356.992 32L356.457 30.5402L355.007 30L356.457 29.4598L356.992 28Z" fill="white"/>
<path d="M29.4506 58L29.9868 59.4598L31.4357 60L29.9868 60.5402L29.4506 62L28.9144 60.5402L27.4655 60L28.9144 59.4598L29.4506 58Z" fill="white"/>
<path d="M59.2271 58L59.7633 59.4598L61.2122 60L59.7633 60.5402L59.2271 62L58.691 60.5402L57.242 60L58.691 59.4598L59.2271 58Z" fill="white"/>
<path d="M89.0037 58L89.5399 59.4598L90.9888 60L89.5399 60.5402L89.0037 62L88.4675 60.5402L87.0186 60L88.4675 59.4598L89.0037 58Z" fill="white"/>
<path d="M118.78 58L119.316 59.4598L120.765 60L119.316 60.5402L118.78 62L118.244 60.5402L116.795 60L118.244 59.4598L118.78 58Z" fill="white"/>
<path d="M148.557 58L149.093 59.4598L150.542 60L149.093 60.5402L148.557 62L148.021 60.5402L146.572 60L148.021 59.4598L148.557 58Z" fill="white"/>
<path d="M178.333 58L178.869 59.4598L180.318 60L178.869 60.5402L178.333 62L177.797 60.5402L176.348 60L177.797 59.4598L178.333 58Z" fill="white"/>
<path d="M208.11 58L208.646 59.4598L210.095 60L208.646 60.5402L208.11 62L207.574 60.5402L206.125 60L207.574 59.4598L208.11 58Z" fill="white"/>
<path d="M237.886 58L238.422 59.4598L239.871 60L238.422 60.5402L237.886 62L237.35 60.5402L235.901 60L237.35 59.4598L237.886 58Z" fill="white"/>
<path d="M267.663 58L268.199 59.4598L269.648 60L268.199 60.5402L267.663 62L267.127 60.5402L265.678 60L267.127 59.4598L267.663 58Z" fill="white"/>
<path d="M297.439 58L297.975 59.4598L299.425 60L297.975 60.5402L297.439 62L296.903 60.5402L295.454 60L296.903 59.4598L297.439 58Z" fill="white"/>
<path d="M327.216 58L327.752 59.4598L329.201 60L327.752 60.5402L327.216 62L326.68 60.5402L325.231 60L326.68 59.4598L327.216 58Z" fill="white"/>
<path d="M356.992 58L357.528 59.4598L358.978 60L357.528 60.5402L356.992 62L356.457 60.5402L355.007 60L356.457 59.4598L356.992 58Z" fill="white"/>
<path d="M29.4506 88L29.9868 89.46L31.4357 90L29.9868 90.54L29.4506 92L28.9144 90.54L27.4655 90L28.9144 89.46L29.4506 88Z" fill="white"/>
<path d="M59.2271 88L59.7633 89.46L61.2122 90L59.7633 90.54L59.2271 92L58.691 90.54L57.242 90L58.691 89.46L59.2271 88Z" fill="white"/>
<path d="M89.0037 88L89.5399 89.46L90.9888 90L89.5399 90.54L89.0037 92L88.4675 90.54L87.0186 90L88.4675 89.46L89.0037 88Z" fill="white"/>
<path d="M118.78 88L119.316 89.46L120.765 90L119.316 90.54L118.78 92L118.244 90.54L116.795 90L118.244 89.46L118.78 88Z" fill="white"/>
<path d="M148.557 88L149.093 89.46L150.542 90L149.093 90.54L148.557 92L148.021 90.54L146.572 90L148.021 89.46L148.557 88Z" fill="white"/>
<path d="M178.333 88L178.869 89.46L180.318 90L178.869 90.54L178.333 92L177.797 90.54L176.348 90L177.797 89.46L178.333 88Z" fill="white"/>
<path d="M208.11 88L208.646 89.46L210.095 90L208.646 90.54L208.11 92L207.574 90.54L206.125 90L207.574 89.46L208.11 88Z" fill="white"/>
<path d="M237.886 88L238.422 89.46L239.871 90L238.422 90.54L237.886 92L237.35 90.54L235.901 90L237.35 89.46L237.886 88Z" fill="white"/>
<path d="M267.663 88L268.199 89.46L269.648 90L268.199 90.54L267.663 92L267.127 90.54L265.678 90L267.127 89.46L267.663 88Z" fill="white"/>
<path d="M297.439 88L297.975 89.46L299.425 90L297.975 90.54L297.439 92L296.903 90.54L295.454 90L296.903 89.46L297.439 88Z" fill="white"/>
<path d="M327.216 88L327.752 89.46L329.201 90L327.752 90.54L327.216 92L326.68 90.54L325.231 90L326.68 89.46L327.216 88Z" fill="white"/>
<path d="M356.992 88L357.528 89.46L358.978 90L357.528 90.54L356.992 92L356.457 90.54L355.007 90L356.457 89.46L356.992 88Z" fill="white"/>
<path d="M29.4506 118L29.9868 119.46L31.4357 120L29.9868 120.54L29.4506 122L28.9144 120.54L27.4655 120L28.9144 119.46L29.4506 118Z" fill="white"/>
<path d="M59.2271 118L59.7633 119.46L61.2122 120L59.7633 120.54L59.2271 122L58.691 120.54L57.242 120L58.691 119.46L59.2271 118Z" fill="white"/>
<path d="M89.0037 118L89.5399 119.46L90.9888 120L89.5399 120.54L89.0037 122L88.4675 120.54L87.0186 120L88.4675 119.46L89.0037 118Z" fill="white"/>
<path d="M118.78 118L119.316 119.46L120.765 120L119.316 120.54L118.78 122L118.244 120.54L116.795 120L118.244 119.46L118.78 118Z" fill="white"/>
<path d="M148.557 118L149.093 119.46L150.542 120L149.093 120.54L148.557 122L148.021 120.54L146.572 120L148.021 119.46L148.557 118Z" fill="white"/>
<path d="M178.333 118L178.869 119.46L180.318 120L178.869 120.54L178.333 122L177.797 120.54L176.348 120L177.797 119.46L178.333 118Z" fill="white"/>
<path d="M208.11 118L208.646 119.46L210.095 120L208.646 120.54L208.11 122L207.574 120.54L206.125 120L207.574 119.46L208.11 118Z" fill="white"/>
<path d="M237.886 118L238.422 119.46L239.871 120L238.422 120.54L237.886 122L237.35 120.54L235.901 120L237.35 119.46L237.886 118Z" fill="white"/>
<path d="M267.663 118L268.199 119.46L269.648 120L268.199 120.54L267.663 122L267.127 120.54L265.678 120L267.127 119.46L267.663 118Z" fill="white"/>
<path d="M297.439 118L297.975 119.46L299.425 120L297.975 120.54L297.439 122L296.903 120.54L295.454 120L296.903 119.46L297.439 118Z" fill="white"/>
<path d="M327.216 118L327.752 119.46L329.201 120L327.752 120.54L327.216 122L326.68 120.54L325.231 120L326.68 119.46L327.216 118Z" fill="white"/>
<path d="M356.992 118L357.528 119.46L358.978 120L357.528 120.54L356.992 122L356.457 120.54L355.007 120L356.457 119.46L356.992 118Z" fill="white"/>
<path d="M29.4506 148L29.9868 149.46L31.4357 150L29.9868 150.54L29.4506 152L28.9144 150.54L27.4655 150L28.9144 149.46L29.4506 148Z" fill="white"/>
<path d="M59.2271 148L59.7633 149.46L61.2122 150L59.7633 150.54L59.2271 152L58.691 150.54L57.242 150L58.691 149.46L59.2271 148Z" fill="white"/>
<path d="M89.0037 148L89.5399 149.46L90.9888 150L89.5399 150.54L89.0037 152L88.4675 150.54L87.0186 150L88.4675 149.46L89.0037 148Z" fill="white"/>
<path d="M118.78 148L119.316 149.46L120.765 150L119.316 150.54L118.78 152L118.244 150.54L116.795 150L118.244 149.46L118.78 148Z" fill="white"/>
<path d="M148.557 148L149.093 149.46L150.542 150L149.093 150.54L148.557 152L148.021 150.54L146.572 150L148.021 149.46L148.557 148Z" fill="white"/>
<path d="M178.333 148L178.869 149.46L180.318 150L178.869 150.54L178.333 152L177.797 150.54L176.348 150L177.797 149.46L178.333 148Z" fill="white"/>
<path d="M208.11 148L208.646 149.46L210.095 150L208.646 150.54L208.11 152L207.574 150.54L206.125 150L207.574 149.46L208.11 148Z" fill="white"/>
<path d="M237.886 148L238.422 149.46L239.871 150L238.422 150.54L237.886 152L237.35 150.54L235.901 150L237.35 149.46L237.886 148Z" fill="white"/>
<path d="M267.663 148L268.199 149.46L269.648 150L268.199 150.54L267.663 152L267.127 150.54L265.678 150L267.127 149.46L267.663 148Z" fill="white"/>
<path d="M297.439 148L297.975 149.46L299.425 150L297.975 150.54L297.439 152L296.903 150.54L295.454 150L296.903 149.46L297.439 148Z" fill="white"/>
<path d="M327.216 148L327.752 149.46L329.201 150L327.752 150.54L327.216 152L326.68 150.54L325.231 150L326.68 149.46L327.216 148Z" fill="white"/>
<path d="M356.992 148L357.528 149.46L358.978 150L357.528 150.54L356.992 152L356.457 150.54L355.007 150L356.457 149.46L356.992 148Z" fill="white"/>
<path d="M29.4506 178L29.9868 179.46L31.4357 180L29.9868 180.54L29.4506 182L28.9144 180.54L27.4655 180L28.9144 179.46L29.4506 178Z" fill="white"/>
<path d="M59.2271 178L59.7633 179.46L61.2122 180L59.7633 180.54L59.2271 182L58.691 180.54L57.242 180L58.691 179.46L59.2271 178Z" fill="white"/>
<path d="M89.0037 178L89.5399 179.46L90.9888 180L89.5399 180.54L89.0037 182L88.4675 180.54L87.0186 180L88.4675 179.46L89.0037 178Z" fill="white"/>
<path d="M118.78 178L119.316 179.46L120.765 180L119.316 180.54L118.78 182L118.244 180.54L116.795 180L118.244 179.46L118.78 178Z" fill="white"/>
<path d="M148.557 178L149.093 179.46L150.542 180L149.093 180.54L148.557 182L148.021 180.54L146.572 180L148.021 179.46L148.557 178Z" fill="white"/>
<path d="M178.333 178L178.869 179.46L180.318 180L178.869 180.54L178.333 182L177.797 180.54L176.348 180L177.797 179.46L178.333 178Z" fill="white"/>
<path d="M208.11 178L208.646 179.46L210.095 180L208.646 180.54L208.11 182L207.574 180.54L206.125 180L207.574 179.46L208.11 178Z" fill="white"/>
<path d="M237.886 178L238.422 179.46L239.871 180L238.422 180.54L237.886 182L237.35 180.54L235.901 180L237.35 179.46L237.886 178Z" fill="white"/>
<path d="M267.663 178L268.199 179.46L269.648 180L268.199 180.54L267.663 182L267.127 180.54L265.678 180L267.127 179.46L267.663 178Z" fill="white"/>
<path d="M297.439 178L297.975 179.46L299.425 180L297.975 180.54L297.439 182L296.903 180.54L295.454 180L296.903 179.46L297.439 178Z" fill="white"/>
<path d="M327.216 178L327.752 179.46L329.201 180L327.752 180.54L327.216 182L326.68 180.54L325.231 180L326.68 179.46L327.216 178Z" fill="white"/>
<path d="M356.992 178L357.528 179.46L358.978 180L357.528 180.54L356.992 182L356.457 180.54L355.007 180L356.457 179.46L356.992 178Z" fill="white"/>
<path d="M29.4506 208L29.9868 209.46L31.4357 210L29.9868 210.54L29.4506 212L28.9144 210.54L27.4655 210L28.9144 209.46L29.4506 208Z" fill="white"/>
<path d="M59.2271 208L59.7633 209.46L61.2122 210L59.7633 210.54L59.2271 212L58.691 210.54L57.242 210L58.691 209.46L59.2271 208Z" fill="white"/>
<path d="M89.0037 208L89.5399 209.46L90.9888 210L89.5399 210.54L89.0037 212L88.4675 210.54L87.0186 210L88.4675 209.46L89.0037 208Z" fill="white"/>
<path d="M118.78 208L119.316 209.46L120.765 210L119.316 210.54L118.78 212L118.244 210.54L116.795 210L118.244 209.46L118.78 208Z" fill="white"/>
<path d="M148.557 208L149.093 209.46L150.542 210L149.093 210.54L148.557 212L148.021 210.54L146.572 210L148.021 209.46L148.557 208Z" fill="white"/>
<path d="M178.333 208L178.869 209.46L180.318 210L178.869 210.54L178.333 212L177.797 210.54L176.348 210L177.797 209.46L178.333 208Z" fill="white"/>
<path d="M208.11 208L208.646 209.46L210.095 210L208.646 210.54L208.11 212L207.574 210.54L206.125 210L207.574 209.46L208.11 208Z" fill="white"/>
<path d="M237.886 208L238.422 209.46L239.871 210L238.422 210.54L237.886 212L237.35 210.54L235.901 210L237.35 209.46L237.886 208Z" fill="white"/>
<path d="M267.663 208L268.199 209.46L269.648 210L268.199 210.54L267.663 212L267.127 210.54L265.678 210L267.127 209.46L267.663 208Z" fill="white"/>
<path d="M297.439 208L297.975 209.46L299.425 210L297.975 210.54L297.439 212L296.903 210.54L295.454 210L296.903 209.46L297.439 208Z" fill="white"/>
<path d="M327.216 208L327.752 209.46L329.201 210L327.752 210.54L327.216 212L326.68 210.54L325.231 210L326.68 209.46L327.216 208Z" fill="white"/>
<path d="M356.992 208L357.528 209.46L358.978 210L357.528 210.54L356.992 212L356.457 210.54L355.007 210L356.457 209.46L356.992 208Z" fill="white"/>
<path d="M29.4506 238L29.9868 239.46L31.4357 240L29.9868 240.54L29.4506 242L28.9144 240.54L27.4655 240L28.9144 239.46L29.4506 238Z" fill="white"/>
<path d="M59.2271 238L59.7633 239.46L61.2122 240L59.7633 240.54L59.2271 242L58.691 240.54L57.242 240L58.691 239.46L59.2271 238Z" fill="white"/>
<path d="M89.0037 238L89.5399 239.46L90.9888 240L89.5399 240.54L89.0037 242L88.4675 240.54L87.0186 240L88.4675 239.46L89.0037 238Z" fill="white"/>
<path d="M118.78 238L119.316 239.46L120.765 240L119.316 240.54L118.78 242L118.244 240.54L116.795 240L118.244 239.46L118.78 238Z" fill="white"/>
<path d="M148.557 238L149.093 239.46L150.542 240L149.093 240.54L148.557 242L148.021 240.54L146.572 240L148.021 239.46L148.557 238Z" fill="white"/>
<path d="M178.333 238L178.869 239.46L180.318 240L178.869 240.54L178.333 242L177.797 240.54L176.348 240L177.797 239.46L178.333 238Z" fill="white"/>
<path d="M208.11 238L208.646 239.46L210.095 240L208.646 240.54L208.11 242L207.574 240.54L206.125 240L207.574 239.46L208.11 238Z" fill="white"/>
<path d="M237.886 238L238.422 239.46L239.871 240L238.422 240.54L237.886 242L237.35 240.54L235.901 240L237.35 239.46L237.886 238Z" fill="white"/>
<path d="M267.663 238L268.199 239.46L269.648 240L268.199 240.54L267.663 242L267.127 240.54L265.678 240L267.127 239.46L267.663 238Z" fill="white"/>
<path d="M297.439 238L297.975 239.46L299.425 240L297.975 240.54L297.439 242L296.903 240.54L295.454 240L296.903 239.46L297.439 238Z" fill="white"/>
<path d="M327.216 238L327.752 239.46L329.201 240L327.752 240.54L327.216 242L326.68 240.54L325.231 240L326.68 239.46L327.216 238Z" fill="white"/>
<path d="M356.992 238L357.528 239.46L358.978 240L357.528 240.54L356.992 242L356.457 240.54L355.007 240L356.457 239.46L356.992 238Z" fill="white"/>
<path d="M29.4506 268L29.9868 269.46L31.4357 270L29.9868 270.54L29.4506 272L28.9144 270.54L27.4655 270L28.9144 269.46L29.4506 268Z" fill="white"/>
<path d="M59.2271 268L59.7633 269.46L61.2122 270L59.7633 270.54L59.2271 272L58.691 270.54L57.242 270L58.691 269.46L59.2271 268Z" fill="white"/>
<path d="M89.0037 268L89.5399 269.46L90.9888 270L89.5399 270.54L89.0037 272L88.4675 270.54L87.0186 270L88.4675 269.46L89.0037 268Z" fill="white"/>
<path d="M118.78 268L119.316 269.46L120.765 270L119.316 270.54L118.78 272L118.244 270.54L116.795 270L118.244 269.46L118.78 268Z" fill="white"/>
<path d="M148.557 268L149.093 269.46L150.542 270L149.093 270.54L148.557 272L148.021 270.54L146.572 270L148.021 269.46L148.557 268Z" fill="white"/>
<path d="M178.333 268L178.869 269.46L180.318 270L178.869 270.54L178.333 272L177.797 270.54L176.348 270L177.797 269.46L178.333 268Z" fill="white"/>
<path d="M208.11 268L208.646 269.46L210.095 270L208.646 270.54L208.11 272L207.574 270.54L206.125 270L207.574 269.46L208.11 268Z" fill="white"/>
<path d="M237.886 268L238.422 269.46L239.871 270L238.422 270.54L237.886 272L237.35 270.54L235.901 270L237.35 269.46L237.886 268Z" fill="white"/>
<path d="M267.663 268L268.199 269.46L269.648 270L268.199 270.54L267.663 272L267.127 270.54L265.678 270L267.127 269.46L267.663 268Z" fill="white"/>
<path d="M297.439 268L297.975 269.46L299.425 270L297.975 270.54L297.439 272L296.903 270.54L295.454 270L296.903 269.46L297.439 268Z" fill="white"/>
<path d="M327.216 268L327.752 269.46L329.201 270L327.752 270.54L327.216 272L326.68 270.54L325.231 270L326.68 269.46L327.216 268Z" fill="white"/>
<path d="M356.992 268L357.528 269.46L358.978 270L357.528 270.54L356.992 272L356.457 270.54L355.007 270L356.457 269.46L356.992 268Z" fill="white"/>
<path d="M29.4506 298L29.9868 299.46L31.4357 300L29.9868 300.54L29.4506 302L28.9144 300.54L27.4655 300L28.9144 299.46L29.4506 298Z" fill="white"/>
<path d="M59.2271 298L59.7633 299.46L61.2122 300L59.7633 300.54L59.2271 302L58.691 300.54L57.242 300L58.691 299.46L59.2271 298Z" fill="white"/>
<path d="M89.0037 298L89.5399 299.46L90.9888 300L89.5399 300.54L89.0037 302L88.4675 300.54L87.0186 300L88.4675 299.46L89.0037 298Z" fill="white"/>
<path d="M118.78 298L119.316 299.46L120.765 300L119.316 300.54L118.78 302L118.244 300.54L116.795 300L118.244 299.46L118.78 298Z" fill="white"/>
<path d="M148.557 298L149.093 299.46L150.542 300L149.093 300.54L148.557 302L148.021 300.54L146.572 300L148.021 299.46L148.557 298Z" fill="white"/>
<path d="M178.333 298L178.869 299.46L180.318 300L178.869 300.54L178.333 302L177.797 300.54L176.348 300L177.797 299.46L178.333 298Z" fill="white"/>
<path d="M208.11 298L208.646 299.46L210.095 300L208.646 300.54L208.11 302L207.574 300.54L206.125 300L207.574 299.46L208.11 298Z" fill="white"/>
<path d="M237.886 298L238.422 299.46L239.871 300L238.422 300.54L237.886 302L237.35 300.54L235.901 300L237.35 299.46L237.886 298Z" fill="white"/>
<path d="M267.663 298L268.199 299.46L269.648 300L268.199 300.54L267.663 302L267.127 300.54L265.678 300L267.127 299.46L267.663 298Z" fill="white"/>
<path d="M297.439 298L297.975 299.46L299.425 300L297.975 300.54L297.439 302L296.903 300.54L295.454 300L296.903 299.46L297.439 298Z" fill="white"/>
<path d="M327.216 298L327.752 299.46L329.201 300L327.752 300.54L327.216 302L326.68 300.54L325.231 300L326.68 299.46L327.216 298Z" fill="white"/>
<path d="M356.992 298L357.528 299.46L358.978 300L357.528 300.54L356.992 302L356.457 300.54L355.007 300L356.457 299.46L356.992 298Z" fill="white"/>
</mask>
<g mask="url(#mask0_3461_5390)">
<rect x="-6.33337" y="-16" width="372" height="350" fill="url(#paint0_linear_3461_5390)"/>
</g>
<defs>
<linearGradient id="paint0_linear_3461_5390" x1="179.667" y1="-16" x2="179.667" y2="334" gradientUnits="userSpaceOnUse">
<stop stop-color="white" stop-opacity="0.5"/>
<stop offset="0.753125" stop-color="white" stop-opacity="0"/>
</linearGradient>
</defs>
</svg>
