<svg width="141" height="30" viewBox="0 0 141 30" fill="none" xmlns="http://www.w3.org/2000/svg">
<path d="M2.03567 2.49445C2.03567 1.84285 2.5469 1.29865 3.19648 1.29865C3.86498 1.29865 4.3762 1.82596 4.3762 2.49445C4.3762 3.14324 3.86498 3.68744 3.19648 3.68744C2.54649 3.68744 2.03567 3.16174 2.03567 2.49445ZM6.1142 3.68744C6.7658 3.68744 7.27421 3.14324 7.27421 2.49445C7.27421 1.82596 6.7658 1.29865 6.1142 1.29865C5.46461 1.29865 4.95339 1.84285 4.95339 2.49445C4.95339 3.16174 5.46461 3.68744 6.1142 3.68744ZM4.9365 13.2869C1.50836 13.2869 0.226074 11.7061 0.226074 9.20835C0.226074 6.90723 1.64873 4.79718 4.88461 4.79718C6.95726 4.79718 8.5577 5.41217 8.5577 5.41217V11.4596H10.0162H10.2808H13.3212V5.02524H15.642V13.2869H10.2804H10.0158H4.9365ZM5.18306 11.4592H6.30727V6.94102C6.30727 6.94102 5.63878 6.62568 4.63805 6.62568C3.31997 6.62568 2.5469 7.62761 2.5469 8.99838C2.54649 10.5988 3.33686 11.4592 5.18306 11.4592ZM15.5893 15.9222C15.5893 15.2545 15.0781 14.7264 14.4285 14.7264C13.7769 14.7264 13.2677 15.2722 13.2677 15.9222C13.2677 16.5931 13.7769 17.1196 14.4285 17.1196C15.0785 17.1196 15.5893 16.5746 15.5893 15.9222ZM11.5084 14.7268C10.8588 14.7268 10.35 15.2727 10.35 15.9226C10.35 16.5935 10.8584 17.1201 11.5084 17.1201C12.1793 17.1201 12.6881 16.575 12.6881 15.9226C12.6877 15.255 12.1793 14.7268 11.5084 14.7268ZM25.2366 12.1277C25.2366 7.76598 23.1998 5.60484 19.3859 4.60331L18.8228 6.53558C21.5809 7.23907 22.8676 8.85721 22.9721 11.4596H17.7505V13.2873H25.2366V12.1277ZM59.0285 13.2869C57.4985 13.2869 56.5689 12.9349 56.1804 11.9857C55.7593 12.9695 54.7396 13.445 53.6327 13.445C52.3504 13.445 51.4334 12.8999 51.1349 11.9857C50.8196 12.832 50.0984 13.2869 48.7972 13.2869H48.5157H48.2522H47.0938C45.5637 13.2869 44.4202 12.832 43.4718 12.1969C41.9791 12.8654 40.026 13.2869 37.6721 13.2869H37.4783H37.1967H35.1003V13.3219C35.1003 15.7481 33.5365 17.7178 29.5963 17.7178C28.2807 17.7178 26.9244 17.4873 26.9244 17.4873L27.0672 15.5892C27.0672 15.5892 28.4379 15.8876 29.8087 15.8876C31.6372 15.8876 32.8507 15.2031 32.8507 13.5499V13.2873H31.4783C28.051 13.2873 26.7687 11.7065 26.7687 9.20875C26.7687 6.90764 28.1898 4.79758 31.4256 4.79758C33.5007 4.79758 35.1003 5.41258 35.1003 5.41258V11.46H37.1967H37.4783H37.8109C39.4801 11.46 40.836 11.2661 41.9075 10.9142C40.7833 9.86035 39.7448 8.76952 38.2143 8.34759L38.4082 6.69526C39.7979 5.69333 41.7487 4.74449 43.4895 4.74449C46.1071 4.74449 47.1972 6.09756 47.1972 7.62842C47.1972 8.80452 46.5842 10.0172 45.4089 11.0047C45.9865 11.2826 46.62 11.4604 47.3573 11.4604H48.2526H48.5161H48.8145C49.9576 11.4604 50.3973 11.0047 50.3973 9.26224V6.08187H52.7181V9.56109C52.7181 10.8792 53.0141 11.6012 54.053 11.6012C55.0727 11.6012 55.3566 10.8434 55.3566 9.57879V5.37879H57.5701V9.51001C57.5701 10.9677 57.9546 11.4608 59.5023 11.4608H60.1182C60.1853 10.7565 60.2424 9.89534 60.2424 9.34993C60.2424 7.59222 60.0325 5.97448 59.7312 4.63951L61.9977 4.32336C62.3344 5.72752 62.5616 7.45305 62.5616 9.19185C62.5616 9.89534 62.5258 10.6869 62.4748 11.4608H63.9316H64.1971H66.1121V0.572236H68.4329V13.2885H64.1971H63.9316H59.0285V13.2869ZM32.8511 6.94102C32.8511 6.94102 32.181 6.62568 31.1799 6.62568C29.861 6.62568 29.0895 7.62761 29.0895 8.99838C29.0895 10.5988 29.8787 11.4596 31.7241 11.4596H32.8507L32.8511 6.94102ZM44.8932 7.92606C44.8932 7.09949 44.3506 6.44709 43.224 6.44709C42.276 6.44709 41.1872 7.08139 40.5561 7.50413C41.7688 7.99645 42.7321 9.03217 43.8064 9.92953C44.5445 9.34872 44.8932 8.64604 44.8932 7.92606ZM73.7406 0.570628H71.4198V13.2877H73.7406V0.570628ZM85.4968 3.68744C86.1463 3.68744 86.6576 3.14324 86.6576 2.49445C86.6576 1.82596 86.1463 1.29865 85.4968 1.29865C84.8472 1.29865 84.3367 1.84285 84.3367 2.49445C84.3371 3.16174 84.8472 3.68744 85.4968 3.68744ZM86.9391 11.4592H84.5487C81.261 11.4592 80.191 10.2992 80.191 7.81867C80.191 6.88913 80.4171 5.72591 80.7871 4.91945L78.3066 5.32328C78.0448 6.04527 77.8509 7.13449 77.8509 8.08374C77.8509 11.3007 79.5221 13.2865 84.303 13.2865H89.2599V5.02483H86.9391V11.4592ZM82.579 3.68744C83.2475 3.68744 83.7575 3.14324 83.7575 2.49445C83.7575 1.82596 83.2471 1.29865 82.579 1.29865C81.9294 1.29865 81.4182 1.84285 81.4182 2.49445C81.4182 3.16174 81.9294 3.68744 82.579 3.68744ZM94.3754 0.570628H92.0538V13.2877H94.3754V0.570628ZM93.7427 17.5754C94.1815 17.6824 94.6714 17.7507 95.2201 17.7507C98.8027 17.7507 99.5613 15.6069 99.5613 13.3565V5.02483H97.2404V13.4812C97.2404 15.3792 96.5361 15.9407 95.3584 15.9407C94.7973 15.9407 94.3412 15.8515 93.933 15.7272L93.7427 17.5754ZM109.156 12.1277C109.156 7.76598 107.119 5.60484 103.303 4.60331L102.742 6.53558C105.5 7.23907 106.783 8.85721 106.89 11.4596H101.67V13.2873H109.156L109.156 12.1277ZM115.327 13.2869H111.512V0.570628H113.832V11.4592H115.327H115.591H119.384V5.02483H121.705V5.46527C121.705 6.23673 121.652 7.22298 121.511 8.06684H121.528C122.391 5.99097 124.164 4.79677 126.048 4.79677C128.473 4.79677 129.615 6.4125 129.615 9.04987C129.615 9.83984 129.596 10.6672 129.544 11.4592H130.898H131.16H133.075V0.570628H135.397V13.2869H131.16H130.898H115.591H115.327ZM121.688 11.4592H127.156C127.206 10.7549 127.242 9.94643 127.242 9.31454C127.242 7.6614 126.819 6.65947 125.571 6.65947C123.69 6.65947 122.128 8.99839 121.688 11.4592ZM138.21 13.2869H140.529V0.569824H138.21V13.2869Z" fill="#565D56"/>
<path d="M1.32216 20.0427C1.32216 19.6421 1.6359 19.3071 2.0357 19.3071C2.44718 19.3071 2.76011 19.6313 2.76011 20.0427C2.76011 20.4426 2.44718 20.7776 2.0357 20.7776C1.6359 20.7776 1.32216 20.4542 1.32216 20.0427ZM3.83082 20.7776C4.23224 20.7776 4.54597 20.4426 4.54597 20.0427C4.54597 19.6313 4.23224 19.3071 3.83082 19.3071C3.43101 19.3071 3.11567 19.6421 3.11567 20.0427C3.11567 20.4542 3.43101 20.7776 3.83082 20.7776ZM8.26653 21.6006H9.692V26.6834H3.10521C0.997167 26.6834 0.208008 25.7089 0.208008 24.174C0.208008 22.7574 1.08485 21.4586 3.07384 21.4586C4.35049 21.4586 5.33352 21.8371 5.33352 21.8371V25.5584H8.26653V21.6006ZM3.95068 22.7783C3.95068 22.7783 3.53841 22.5836 2.92261 22.5836C2.11132 22.5836 1.6359 23.2002 1.6359 24.0445C1.6359 25.0275 2.12138 25.558 3.25685 25.558H3.95068V22.7783ZM8.94789 27.5695C8.54647 27.5695 8.23274 27.9046 8.23274 28.3052C8.23274 28.7159 8.54647 29.0409 8.94789 29.0409C9.3469 29.0409 9.66063 28.7058 9.66063 28.3052C9.66023 27.8953 9.34649 27.5695 8.94789 27.5695ZM7.14996 27.5695C6.75095 27.5695 6.43722 27.9046 6.43722 28.3052C6.43722 28.7159 6.75095 29.0409 7.14996 29.0409C7.56224 29.0409 7.87517 28.7058 7.87517 28.3052C7.87517 27.8953 7.56224 27.5695 7.14996 27.5695ZM11.9955 21.3403L11.6512 22.5301C13.3478 22.9621 14.1378 23.9572 14.2033 25.5584H10.9912V26.6834H15.5994V25.9683C15.5998 23.2863 14.3445 21.9569 11.9955 21.3403ZM40.3562 19.0577H41.7841V26.6834H35.9977C35.0561 26.6834 34.4822 26.4674 34.244 25.883C33.9838 26.4876 33.3571 26.7796 32.6758 26.7796C31.8874 26.7796 31.3243 26.4461 31.1401 25.883C30.9462 26.4027 30.5022 26.6834 29.7038 26.6834H29.5284H28.6524C27.7128 26.6834 27.0085 26.4027 26.4244 26.0125C25.505 26.4232 24.3043 26.6834 22.8559 26.6834H21.6666V26.7048C21.6666 28.1982 20.704 29.4081 18.2794 29.4081C17.4706 29.4081 16.6356 29.2669 16.6356 29.2669L16.7224 28.1001C16.7224 28.1001 17.5679 28.2847 18.4106 28.2847C19.5356 28.2847 20.2813 27.8628 20.2813 26.8451V26.6834H19.4382C17.3294 26.6834 16.5382 25.7089 16.5382 24.174C16.5382 22.7574 17.4151 21.4586 19.4041 21.4586C20.6807 21.4586 21.6662 21.8371 21.6662 21.8371V25.5584H22.9428C23.9701 25.5584 24.8027 25.4386 25.4635 25.2234C24.7697 24.5746 24.1302 23.9037 23.193 23.6442L23.3104 22.629C24.1644 22.0108 25.365 21.4276 26.4365 21.4276C28.047 21.4276 28.7175 22.261 28.7175 23.2006C28.7175 23.9242 28.3398 24.6727 27.6146 25.2773C27.9718 25.4514 28.3603 25.5588 28.8144 25.5588H29.5288H29.7142C30.4165 25.5588 30.688 25.2773 30.688 24.2057V22.2489H32.1135V24.3912C32.1135 25.2025 32.2981 25.6429 32.9376 25.6429C33.5643 25.6429 33.736 25.1803 33.736 24.3996V21.8162H35.0984V24.3582C35.0984 25.2564 35.3381 25.5588 36.2881 25.5588H36.669C36.7109 25.1252 36.7422 24.5951 36.7422 24.2601C36.7422 23.1785 36.6147 22.1842 36.4293 21.3628L37.825 21.1682C38.029 22.0321 38.173 23.0908 38.173 24.1651C38.173 24.5955 38.1492 25.0826 38.1178 25.5588H40.357V19.0577H40.3562ZM20.2813 22.7783C20.2813 22.7783 19.8698 22.5836 19.2532 22.5836C18.4436 22.5836 17.9665 23.2002 17.9665 24.0445C17.9665 25.0275 18.452 25.558 19.5891 25.558H20.2813V22.7783ZM27.3005 23.384C27.3005 22.8756 26.9662 22.475 26.2724 22.475C25.688 22.475 25.0179 22.8664 24.6285 23.1246C25.375 23.4283 25.9723 24.0662 26.6304 24.618C27.0837 24.26 27.3005 23.8281 27.3005 23.384ZM43.6206 26.6834H45.0477V19.0569H43.6206V26.6834ZM53.5732 25.5584H52.1011C50.0815 25.5584 49.4215 24.8433 49.4215 23.3193C49.4215 22.7469 49.5619 22.0317 49.7871 21.5358L48.2623 21.784C48.1006 22.2272 47.9836 22.8989 47.9836 23.4822C47.9836 25.4611 49.0092 26.683 51.9507 26.683H55.0011V21.6002H53.5732V25.5584ZM50.8908 20.7776C51.3023 20.7776 51.616 20.4426 51.616 20.0427C51.616 19.6313 51.3023 19.3071 50.8908 19.3071C50.491 19.3071 50.1781 19.6421 50.1781 20.0427C50.1785 20.4542 50.4914 20.7776 50.8908 20.7776ZM52.6863 20.7776C53.0877 20.7776 53.4007 20.4426 53.4007 20.0427C53.4007 19.6313 53.0877 19.3071 52.6863 19.3071C52.2865 19.3071 51.9736 19.6421 51.9736 20.0427C51.9736 20.4542 52.2865 20.7776 52.6863 20.7776ZM58.1477 19.0577H56.7222V26.6834H58.1477V19.0577ZM59.9114 26.8017C59.9114 27.9693 59.4787 28.3165 58.753 28.3165C58.4087 28.3165 58.1248 28.2622 57.879 28.1874L57.7592 29.3216C58.0303 29.388 58.3307 29.4306 58.669 29.4306C60.874 29.4306 61.3393 28.1101 61.3393 26.7273V21.601H59.9114V26.8017ZM63.6429 21.3403L63.2957 22.5301C64.9947 22.9621 65.7831 23.9572 65.8478 25.5584H62.6385V26.6834H67.2444V25.9683C67.2444 23.2863 65.9894 21.9569 63.6429 21.3403ZM81.9524 19.0577H83.3795V26.6834H68.6928V19.0577H70.1223V25.5584H73.5255V21.6006H74.9533V21.8709C74.9533 22.3455 74.922 22.9524 74.8359 23.4705H74.846C75.3757 22.193 76.4669 21.4586 77.6253 21.4586C79.1204 21.4586 79.8202 22.4537 79.8202 24.0762C79.8202 24.5633 79.8094 25.0713 79.7776 25.5584H81.952L81.9524 19.0577ZM78.361 24.2379C78.361 23.2227 78.1023 22.6061 77.3329 22.6061C76.1773 22.6061 75.2144 24.0449 74.9449 25.5588H78.3067C78.3397 25.1248 78.361 24.6281 78.361 24.2379ZM85.2189 26.6834H86.6443V19.0569H85.2189V26.6834ZM91.2755 20.7776C91.6878 20.7776 92.0011 20.4426 92.0011 20.0427C92.0011 19.6313 91.6882 19.3071 91.2755 19.3071C90.8785 19.3071 90.5628 19.6421 90.5628 20.0427C90.5628 20.4542 90.8781 20.7776 91.2755 20.7776ZM93.0731 20.7776C93.4729 20.7776 93.7858 20.4426 93.7858 20.0427C93.7858 19.6313 93.4729 19.3071 93.0731 19.3071C92.6716 19.3071 92.3579 19.6421 92.3579 20.0427C92.3579 20.4542 92.6716 20.7776 93.0731 20.7776ZM99.3546 27.5695C98.9556 27.5695 98.6418 27.9046 98.6418 28.3052C98.6418 28.7159 98.9556 29.0409 99.3546 29.0409C99.7568 29.0409 100.068 28.7058 100.068 28.3052C100.068 27.8953 99.7568 27.5695 99.3546 27.5695ZM97.5598 27.5695C97.16 27.5695 96.8471 27.9046 96.8471 28.3052C96.8471 28.7159 97.16 29.0409 97.5598 29.0409C97.9713 29.0409 98.2842 28.7058 98.2842 28.3052C98.2846 27.8953 97.9717 27.5695 97.5598 27.5695ZM110.258 20.6931C110.667 20.6931 111.004 20.3557 111.004 19.9438C111.004 19.5331 110.667 19.1981 110.258 19.1981C109.845 19.1981 109.511 19.5331 109.511 19.9438C109.511 20.3665 109.845 20.6931 110.258 20.6931ZM112.994 20.7776C113.404 20.7776 113.72 20.4426 113.72 20.0427C113.72 19.6313 113.404 19.3071 112.994 19.3071C112.593 19.3071 112.28 19.6421 112.28 20.0427C112.28 20.4542 112.593 20.7776 112.994 20.7776ZM113.384 21.6006H114.811V26.6834H104.817C103.541 26.6834 102.912 26.3806 102.59 25.85C102.322 26.4087 101.817 26.679 101.174 26.6818V26.6834H101.161H92.3483C90.2402 26.6834 89.451 25.7089 89.451 24.174C89.451 22.7574 90.3263 21.4586 92.3153 21.4586C93.5927 21.4586 94.5774 21.8371 94.5774 21.8371V25.5584H98.6748V21.6006H100.102V25.5584H101.174H101.216C101.736 25.5584 102.027 25.2455 102.027 24.2596C102.027 22.7135 102.967 21.4586 104.785 21.4586C106.527 21.4586 107.284 22.4537 107.284 24.0328V25.5584H109.544V21.6006H110.972V25.5584H113.385V21.6006H113.384ZM93.1905 22.7783C93.1905 22.7783 92.7806 22.5836 92.1632 22.5836C91.3536 22.5836 90.8781 23.2002 90.8781 24.0445C90.8781 25.0275 91.3636 25.558 92.4991 25.558H93.1905V22.7783ZM105.886 24.1961C105.886 23.0598 105.476 22.5836 104.686 22.5836C103.896 22.5836 103.431 23.2102 103.431 24.1297C103.431 25.0822 103.843 25.5584 104.958 25.5584H105.886V24.1961ZM114.79 19.3071C114.389 19.3071 114.075 19.6421 114.075 20.0427C114.075 20.4542 114.389 20.7776 114.79 20.7776C115.19 20.7776 115.503 20.4426 115.503 20.0427C115.503 19.6309 115.19 19.3071 114.79 19.3071ZM121.118 20.7776C121.517 20.7776 121.831 20.4426 121.831 20.0427C121.831 19.6313 121.517 19.3071 121.118 19.3071C120.719 19.3071 120.403 19.6421 120.403 20.0427C120.403 20.4542 120.719 20.7776 121.118 20.7776ZM119.32 20.7776C119.735 20.7776 120.048 20.4426 120.048 20.0427C120.048 19.6313 119.735 19.3071 119.32 19.3071C118.921 19.3071 118.609 19.6421 118.609 20.0427C118.609 20.4542 118.921 20.7776 119.32 20.7776ZM128.08 19.8803H127.465C126.912 19.8803 126.718 19.7069 126.718 19.4696C126.718 19.2528 126.904 19.1012 127.235 19.1012C127.485 19.1012 127.723 19.1446 127.778 19.1554L127.909 18.3442C127.831 18.3341 127.562 18.2891 127.269 18.2891C126.134 18.2891 125.701 18.8964 125.701 19.5018C125.701 19.6643 125.778 19.8597 125.907 19.9245C125.756 19.8903 125.528 19.8803 125.302 19.8803V20.6931H128.081L128.08 19.8803ZM131.241 27.5695C130.841 27.5695 130.524 27.9046 130.524 28.3052C130.524 28.7159 130.841 29.0409 131.241 29.0409C131.64 29.0409 131.953 28.7058 131.953 28.3052C131.953 27.8953 131.64 27.5695 131.241 27.5695ZM129.443 27.5695C129.044 27.5695 128.73 27.9046 128.73 28.3052C128.73 28.7159 129.044 29.0409 129.443 29.0409C129.855 29.0409 130.168 28.7058 130.168 28.3052C130.168 27.8953 129.855 27.5695 129.443 27.5695ZM140.53 25.5262V26.6838H120.393C118.284 26.6838 117.494 25.7093 117.494 24.1744C117.494 22.7577 118.37 21.459 120.359 21.459C121.637 21.459 122.621 21.8375 122.621 21.8375V25.5588H126.199V21.601H127.626V25.5588H130.557V21.601H131.986V25.5588H133.803C134.095 25.5588 134.291 25.6123 134.291 25.6123C134.291 25.6123 134.009 25.3316 134.009 24.8895C134.009 23.8614 134.755 23.0602 136.052 23.0602C137.47 23.0602 138.033 24.0235 138.033 25.2773V25.5588H139.169V25.4277C139.169 23.1901 138.26 22.0965 136.108 22.0965C135.372 22.0965 134.485 22.2707 133.793 22.4979L133.663 21.4928C134.43 21.2446 135.425 21.0708 136.28 21.0708C138.986 21.0708 140.53 22.3676 140.53 25.5262ZM121.235 22.7783C121.235 22.7783 120.826 22.5836 120.21 22.5836C119.398 22.5836 118.921 23.2002 118.921 24.0445C118.921 25.0275 119.406 25.558 120.544 25.558H121.235V22.7783ZM136.875 25.266C136.875 24.4982 136.582 23.9572 135.955 23.9572C135.458 23.9572 135.175 24.3043 135.175 24.7355C135.175 25.2994 135.632 25.6023 136.193 25.6023H136.875V25.266Z" fill="#565D56"/>
</svg>
