<svg width="163" height="46" viewBox="0 0 163 46" fill="none" xmlns="http://www.w3.org/2000/svg">
<path d="M147.07 45.6103C147.205 45.5429 147.407 45.543 147.542 45.4756L147.07 45.6103Z" fill="#9E9B9C"/>
<path d="M162.093 25.1313C161.891 28.3649 160.544 34.1583 158.792 36.853C157.31 39.2107 152.392 43.4548 148.216 45.1389H148.148H148.081C145.993 45.9473 143.5 44.8021 142.018 43.859H141.951C141.681 43.7242 141.479 43.5895 141.344 43.4548C141.075 43.2527 140.873 43.118 140.873 43.118C140.469 42.8485 140.132 42.5117 139.66 42.2422L139.391 41.9727C139.256 41.9054 139.121 41.7706 139.054 41.6359L138.515 41.1644L137.976 40.6928L137.437 40.1539L136.629 39.3455C142.894 37.9308 152.729 34.091 158.253 30.1164C160.544 28.4323 162.093 26.7481 162.295 25.3334C162.093 25.1987 162.093 25.1313 162.093 25.1313Z" fill="url(#paint0_linear_2795_9672)"/>
<path d="M148.013 45.3408C147.879 45.4082 147.744 45.4755 147.542 45.4755L147.07 45.6102C146.936 45.6776 146.801 45.6776 146.733 45.745L146.599 45.8123L146.397 45.8797H146.195C146.127 45.8797 145.992 45.8797 145.925 45.9471C142.692 46.2839 133.799 45.004 128.208 42.3767L128.006 42.242L127.736 42.1072C126.254 41.3662 124.974 40.3557 123.829 39.0758C119.989 34.3602 115.408 22.8407 115.476 16.2389C115.543 15.0936 115.88 14.0832 116.419 13.14L116.486 13.0727C116.554 13.0053 116.554 12.9379 116.621 12.8706C117.699 11.3212 118.979 10.0412 120.596 8.96338C122.414 17.7883 128.275 31.0593 136.359 39.2779C136.629 39.5473 136.898 39.8168 137.168 40.0863C137.437 40.3557 137.909 40.7599 138.313 41.1641L138.852 41.6357C138.986 41.7704 139.121 41.8378 139.189 41.9725L139.458 42.242C139.862 42.5788 140.199 42.8483 140.671 43.1177C140.671 43.1177 140.805 43.2525 141.142 43.4545C141.344 43.5893 141.546 43.724 141.816 43.8587C141.816 43.8587 141.816 43.8587 141.883 43.8587C143.5 44.8692 145.992 46.0818 148.013 45.3408Z" fill="url(#paint1_linear_2795_9672)"/>
<path d="M115.543 15.0264C115.476 15.3632 115.476 15.7 115.476 15.9695C115.476 15.7674 115.476 15.4306 115.543 15.0264Z" fill="url(#paint2_linear_2795_9672)"/>
<path d="M162.093 25.1311V25.1985C161.891 26.7479 160.342 28.3646 158.051 29.9814C154.346 28.5667 150.843 26.7479 147.677 24.3901C139.054 18.1924 133.53 7.81815 126.255 7.27923C124.234 7.21186 122.28 7.68342 120.596 8.82864C118.979 9.90649 117.699 11.1864 116.621 12.7358C116.554 12.8032 116.554 12.8706 116.487 12.9379L116.419 13.0053C115.88 13.8811 115.543 14.9589 115.476 16.1041V16.0368C115.476 16.0368 115.476 15.9694 115.476 15.902C115.476 15.6326 115.476 15.2957 115.543 14.9589C115.543 14.8915 115.543 14.8915 115.543 14.8242C116.621 7.81815 123.829 -0.198352 129.758 0.00374453C136.966 0.205841 143.096 8.69391 148.62 13.8811C153.403 18.2598 157.243 20.1461 159.735 21.7628C161.285 22.8407 162.16 23.7838 162.093 25.1311Z" fill="url(#paint3_linear_2795_9672)"/>
<path d="M3.44699 8.08742L4.12064 7.27904L4.86167 8.08742H4.9964L5.87215 7.14431L4.92903 6.26855H4.7943L4.12064 7.00958L3.37962 6.26855H3.24489L2.36914 7.14431L3.24489 8.08742H3.44699Z" fill="#040404"/>
<path d="M2.84083 14.6894C3.31238 14.6894 3.71658 14.5547 4.18814 14.3526C4.2555 14.0831 4.32287 13.8137 4.39023 13.5442C4.59233 15.0936 5.13126 15.6999 6.4112 15.6999H30.5954C32.2122 15.6999 33.7616 15.4305 35.2437 15.0263L36.3889 14.6894L36.7257 13.2748L36.6583 13.2074L35.5131 13.4769C33.7616 13.881 31.9428 13.3421 31.9428 12.2643C31.9428 11.4559 32.8185 10.9843 33.6943 10.9843C34.4353 10.9843 35.2437 11.1864 35.85 11.658L36.1194 11.3212C35.5805 10.1086 34.8395 9.50229 33.9637 9.50229C32.6164 9.50229 31.4712 10.9843 31.4712 12.5337C31.4712 13.14 31.7407 13.8137 32.2122 14.2179C31.7407 14.2852 31.2691 14.2852 30.5954 14.2852H6.68066C5.53545 14.2852 5.26599 13.881 5.13125 12.6011L4.72706 8.896H4.39023L3.91867 10.1086L2.77346 10.8496C1.42615 11.658 0.95459 12.3316 0.95459 13.14C0.95459 13.9484 1.76298 14.6894 2.84083 14.6894ZM2.43663 11.8601L3.98604 11.1191L4.2555 13.0053C3.78394 13.2074 3.31238 13.2748 2.77346 13.2748C2.03244 13.2748 1.42615 13.0727 1.42615 12.7358C1.42615 12.399 1.83034 12.1295 2.43663 11.8601Z" fill="#040404"/>
<path d="M40.9022 15.7H51.2765C51.7481 15.7 52.2197 15.4979 52.6912 15.2284C52.7586 14.9589 52.8259 14.7568 52.8933 14.4874C53.0954 15.2284 53.7691 15.7673 54.9143 15.7673H57.9457C58.552 15.7673 59.1583 15.4979 59.4951 15.0937C60.4383 15.7 61.6508 16.0368 62.8634 16.0368C64.2107 16.0368 65.4907 15.8347 66.7706 15.3631C67.3769 15.7 68.1853 15.8347 68.859 15.8347C69.6673 15.8347 70.5431 15.5652 71.2168 15.161C71.4862 14.5547 71.5536 13.8811 71.5536 13.2074V7.88556L72.2272 7.34663V7.27927L71.5536 6.47088V5.39303H71.4188C70.5431 5.99932 70.2736 6.74034 70.8126 7.414L71.0147 14.0158C70.4757 14.2179 69.8694 14.2853 69.3305 14.2853C68.9263 14.2853 68.5221 14.2179 68.0506 14.2179C68.2527 13.7464 68.32 13.2748 68.32 12.7359C68.32 11.4559 67.4443 10.5128 66.1643 10.4454H66.097C64.6149 10.4454 63.2676 11.5907 61.3814 14.2853C61.0446 14.2179 60.7077 14.0832 60.4383 13.9485L61.1119 13.0053L60.7751 12.7359L60.3035 13.4095C59.832 14.0832 58.9562 14.5547 58.1478 14.3527H55.4532C54.2406 14.3527 53.8364 14.0832 53.8364 13.2074V11.9275H53.3649L53.028 13.9485C52.5565 14.2179 51.9502 14.2853 51.4113 14.2853H41.3064C40.0939 14.2853 39.6897 13.9485 39.6897 13.0053V5.2583H39.2855L38.6118 6.60561L38.8139 13.0053C38.6792 14.9589 39.3528 15.7 40.9022 15.7ZM65.4907 11.8601C66.5685 11.9275 67.4443 12.6011 67.7137 13.6116C66.2317 14.2179 64.6149 14.4874 62.9981 14.4874C62.6613 14.4874 62.2571 14.42 61.8529 14.3527C63.335 12.6011 64.2781 11.8601 65.4907 11.8601Z" fill="#040404"/>
<path d="M53.5671 10.7823L54.4429 9.90652L53.5671 9.03076H53.4324L52.4893 9.90652L53.4324 10.7823H53.5671Z" fill="#040404"/>
<path d="M74.8548 15.7L75.3264 14.0832V5.2583H74.7874L74.1812 6.60561L74.3833 15.7H74.8548Z" fill="#040404"/>
<path d="M81.0525 9.30033L81.7935 8.55931L82.4672 9.30033H82.6019L83.545 8.42458L82.6019 7.54883H82.4672L81.7935 8.22248L81.0525 7.54883H80.8504L80.042 8.42458L80.9851 9.30033H81.0525Z" fill="#040404"/>
<path d="M81.7259 15.9018C83.1405 15.9018 83.9489 14.824 83.9489 13.3419C83.9489 11.9273 83.3426 11.1189 80.7827 10.041L80.7154 10.1084V11.5231C80.1091 12.1967 79.6375 13.1398 79.5702 14.0156C79.5028 15.0934 80.2438 15.9018 81.3217 15.9692C81.5238 15.9018 81.5911 15.9018 81.7259 15.9018ZM81.3217 11.9273C82.8711 12.6009 83.41 13.2072 83.41 13.6788C83.41 14.1503 82.8711 14.4871 81.7932 14.4871C80.7154 14.4871 80.1764 14.1503 80.1764 13.6114C80.3112 12.8704 80.7154 12.2641 81.3217 11.9273Z" fill="#040404"/>
<path d="M83.8818 17.7209V18.1251L86.5091 18.9334C87.7217 17.4514 88.3953 15.6999 88.4627 13.8137C88.3953 12.6684 88.0585 11.658 87.5196 10.7148H87.1154L86.6438 11.9274C87.5869 13.2074 87.9911 13.7463 87.9911 14.4873C87.9238 16.0367 86.4417 17.0472 83.8818 17.7209Z" fill="#040404"/>
<path d="M90.9549 15.7L91.3591 14.0832V5.2583H90.9549L90.2139 6.60561L90.4833 15.7H90.9549Z" fill="#040404"/>
<path d="M95.8729 13.9484C95.8055 12.8032 95.4687 11.7927 94.9298 10.8496H94.5256L94.054 12.0622C94.9971 13.3421 95.4013 13.8811 95.4013 14.6221C95.4013 15.902 93.9193 16.9799 91.3594 17.6535V18.0577L93.9866 18.8661C95.1318 17.5862 95.7381 15.8347 95.8729 13.9484Z" fill="#040404"/>
<path d="M94.5251 9.83938L95.4009 8.89626L94.4578 8.02051H94.3904L93.5146 8.89626L94.3904 9.83938H94.5251Z" fill="#040404"/>
<path d="M101.464 13.8136C101.464 11.9273 100.588 10.3779 99.3757 10.3779C98.2978 10.3779 97.2874 11.86 97.2874 13.2747C97.22 14.1504 97.8263 15.0262 98.8368 15.1609C98.9715 15.1609 99.0389 15.1609 99.1736 15.1609C99.5778 15.1609 100.049 15.0935 100.521 14.8914L100.925 13.8136C100.992 14.0157 100.992 14.2851 100.992 14.4872C100.992 16.104 99.3083 17.1819 96.3442 17.7208V18.125L98.9715 18.9334C100.386 17.7208 101.329 15.8345 101.464 13.8136ZM99.3083 13.7462C98.4326 13.7462 97.8263 13.5441 97.8263 13.0726C97.8263 12.4663 98.2978 11.86 99.0389 11.86C99.7799 11.86 100.521 12.601 100.79 13.5441C100.251 13.6788 99.7799 13.7462 99.3083 13.7462Z" fill="#040404"/>
<path d="M4.7943 22.167L4.12064 22.908L3.37962 22.167H3.24489L2.36914 23.0427L3.24489 23.9859H3.44699L4.12064 23.1775L4.86167 23.9859H4.9964L5.87215 23.0427L4.92903 22.167H4.7943Z" fill="#040404"/>
<path d="M21.4339 32.7437H21.2992L20.5581 33.552L19.8171 32.7437H19.7498L18.8066 33.6868L19.7498 34.5625H19.8845L20.5581 33.8215L21.3665 34.5625H21.5013L22.3097 33.6868L21.4339 32.7437Z" fill="#040404"/>
<path d="M28.1029 31.531H30.8649C31.7407 31.531 32.6164 31.3289 33.4248 30.9247C33.6943 30.3184 33.7616 29.5774 33.7616 28.9711C33.7616 28.2301 33.4922 27.4217 33.088 26.8154H32.6838L32.2122 28.028C32.6838 28.4995 33.0206 29.1058 33.2901 29.7795C32.549 30.0489 31.7407 30.1837 30.9323 30.1837H22.6463C21.4337 30.1837 21.0295 29.9142 21.0295 29.0385V27.7585H20.6253L20.2885 29.7795C19.8169 30.0489 19.2107 30.1163 18.6717 30.1163H6.68066C5.53545 30.1163 5.26599 29.7121 5.13125 28.4322L4.72706 24.7271H4.39023L3.91867 25.9396L2.77346 26.6807C1.42615 27.5564 0.95459 28.1627 0.95459 29.0385C0.95459 29.9142 1.69561 30.5879 2.84083 30.5879C3.31238 30.5879 3.71658 30.4531 4.18814 30.251C4.2555 29.9816 4.32287 29.7121 4.39023 29.4426C4.59233 30.992 5.13126 31.5983 6.4112 31.5983H18.6717C19.1433 31.5983 19.7496 31.3962 20.0864 31.1268C20.1538 30.8573 20.2211 30.6552 20.2885 30.3858C20.4906 31.1268 21.1643 31.6657 22.3095 31.6657L28.1029 31.531ZM2.84083 29.1058C2.0998 29.1058 1.49351 28.9037 1.49351 28.5669C1.49351 28.2301 1.76298 27.9606 2.36927 27.6911L3.91867 26.9501L4.18814 28.9037C3.85131 29.0385 3.37975 29.1058 2.84083 29.1058Z" fill="#040404"/>
<path d="M31.8081 24.7942L32.6839 25.7373H32.8186L33.7617 24.7942L32.8186 23.9185H32.6839L31.8081 24.7942Z" fill="#040404"/>
<path d="M62.5941 21.0894H62.1899C61.3141 21.6956 61.0447 22.4367 61.5836 23.1103L61.7857 29.7122C61.2468 29.9142 60.6405 29.9816 60.1016 29.9816C59.4953 30.049 58.8216 29.7121 58.6195 29.1059L58.35 28.4996C57.8111 27.4217 57.4743 27.0849 56.8006 27.0849C55.9249 27.0849 54.9818 28.2301 54.7123 29.5774C54.3081 29.7795 53.8366 29.9142 53.365 29.9142C52.5566 29.9816 51.7482 29.7122 51.1419 29.2406C51.8156 28.6343 52.2198 28.1627 52.2198 27.6912C52.2198 26.8828 51.6135 26.4112 50.5356 26.4112C49.9293 26.4112 49.2557 26.6133 48.7841 26.8828L48.3799 28.2975L48.5147 28.6343C49.0536 28.6343 49.6599 28.8364 49.9293 29.308L49.9967 29.3753C49.2557 29.7795 48.4473 29.9816 47.6389 29.9816H42.0476C40.9697 29.9816 40.4308 29.5101 39.9592 27.8933L38.8814 24.9966H38.5446L38.073 26.2091L39.0161 28.6343C39.1509 29.0385 39.353 29.3753 39.4877 29.7122C38.9488 30.049 38.2077 30.2511 37.5341 30.2511C36.2541 30.2511 35.9173 30.049 35.8499 29.1059V28.9038H35.4458C35.311 29.2406 35.2437 29.6448 35.2437 30.1163C35.2437 31.1942 35.8499 31.6657 37.1973 31.6657C37.9383 31.6657 38.7467 31.4637 39.353 30.9921C39.4203 30.7226 39.4877 30.4532 39.5551 30.1837H39.6224C40.1613 31.2616 40.835 31.5984 41.6434 31.5984H47.4368C48.582 31.4637 49.5925 30.9921 50.3335 30.1837C50.9398 31.0595 51.9503 31.5984 53.0282 31.5984C53.6345 31.5984 54.2407 31.3963 54.7123 30.9921C55.6554 31.4637 56.8006 31.8005 57.8785 31.9352C58.0132 31.5984 58.1479 31.2616 58.2153 30.8574C58.5521 31.3289 59.1584 31.531 59.7647 31.531C60.5731 31.531 61.4489 31.3289 62.1225 30.8574C62.392 30.2511 62.4593 29.5774 62.4593 28.9038V23.5819L63.133 23.043L62.4593 22.2346L62.5941 21.0894ZM55.3186 29.7122C55.386 29.1732 55.8575 28.769 56.4638 28.6343C56.868 28.6343 57.1375 28.8364 57.609 29.5101L57.9458 30.1163C58.0132 30.2511 58.0806 30.3184 58.1479 30.4532C57.1375 30.3184 56.1943 30.049 55.3186 29.7122Z" fill="#040404"/>
<path d="M65.6932 31.531L66.0974 29.9816V21.0894H65.6932L64.9521 22.504L65.289 31.531H65.6932Z" fill="#040404"/>
<path d="M72.4969 31.8003C73.9115 31.8003 74.7199 30.7224 74.7199 29.2404C74.7199 27.8257 74.1136 27.0173 71.5537 25.9395L71.4864 26.0068V27.4215C70.8801 28.0951 70.4085 28.9709 70.3412 29.914C70.2738 30.8571 71.0148 31.8003 72.0927 31.8676C72.2948 31.8003 72.3621 31.8003 72.4969 31.8003ZM72.0927 27.7583C73.6421 28.432 74.181 29.0383 74.181 29.5098C74.181 29.9814 73.5747 30.3182 72.5642 30.3182C71.6211 30.3182 70.9475 29.9814 70.9475 29.4425C71.1495 28.7688 71.5537 28.1625 72.0927 27.7583Z" fill="#040404"/>
<path d="M71.7556 23.3794L70.8125 24.2551L71.7556 25.1309H71.8903L72.564 24.3899L73.3724 25.1309H73.5071L74.3155 24.2551L73.4398 23.3794H73.3724L72.564 24.1204L71.823 23.3794H71.7556Z" fill="#040404"/>
<path d="M78.2229 26.2764C77.145 26.2764 76.1345 27.7584 76.1345 29.1731C76.0672 30.0488 76.7408 30.9246 77.6839 30.992C77.7513 30.992 77.886 30.992 78.0208 30.992C78.425 30.992 78.8965 30.9246 79.3681 30.7225L79.7723 29.6446C79.8396 29.8467 79.8396 30.1162 79.8396 30.3183C79.8396 31.9351 78.1555 33.0129 75.1914 33.5519V33.956L77.8187 34.7644C79.3681 33.4171 80.2438 31.5309 80.3786 29.5099C80.3112 27.8258 79.4354 26.2764 78.2229 26.2764ZM78.1555 29.5773C77.2797 29.5773 76.6734 29.3752 76.6734 28.9036C76.6734 28.2973 77.145 27.691 77.886 27.691C78.6271 27.691 79.3681 28.4321 79.6375 29.3752C79.166 29.5773 78.627 29.6447 78.1555 29.5773Z" fill="#040404"/>
<path d="M87.3171 23.5142L88.1255 22.6385L87.2498 21.8301H87.1824L86.3066 22.6385L87.1824 23.5142H87.3171Z" fill="#040404"/>
<path d="M87.9911 23.4468L87.25 24.1204L86.4416 23.4468H86.3743L85.4985 24.3225L86.3743 25.1983H86.509L87.25 24.4573L87.9911 25.1983H88.1258L89.0015 24.3225L88.0584 23.4468H87.9911Z" fill="#040404"/>
<path d="M89.2707 31.531C90.0791 31.531 90.9548 31.3289 91.6285 30.8574C91.8979 30.2511 91.9653 29.5774 91.9653 28.9038V23.5819L92.639 23.043L91.9653 22.2346V21.0894H91.6285C90.7527 21.6956 90.4833 22.4367 91.0222 23.1103L91.2243 29.7122C90.6854 29.9142 90.0791 29.9816 89.5401 29.9816C88.4623 29.9816 88.0581 29.5774 87.856 28.2975L87.5192 26.1418H87.1823L86.9802 26.6133C86.5761 27.8259 86.1045 28.0954 85.4982 28.0954C84.8919 28.028 84.2856 27.6238 83.9488 27.0175H83.5446L83.073 28.2975C83.9488 29.1059 84.4204 29.8469 84.4204 30.4532C84.4204 31.7331 82.9383 32.7436 80.3784 33.3499V33.7541L83.0057 34.6298C84.2183 33.1478 84.8919 31.3963 84.9593 29.5101V29.3753C85.094 29.3753 85.2287 29.4427 85.3635 29.4427C86.1045 29.4427 86.7108 28.9711 86.9802 27.8259L87.115 28.7017C87.4518 30.9247 87.9234 31.5984 89.2707 31.531Z" fill="#040404"/>
<path d="M95.5358 29.9816V21.0894H95.1316L94.3906 22.504L94.6601 31.531H95.1316L95.5358 29.9816Z" fill="#040404"/>
<path d="M96.4116 33.6192V34.0234L99.0389 34.8318C100.588 33.4844 101.464 31.5982 101.599 29.5772C101.599 27.691 100.723 26.1416 99.5104 26.1416C98.4326 26.1416 97.4221 27.6236 97.4221 29.0383C97.3547 29.9141 98.0284 30.7898 98.9715 30.8572C99.0389 30.8572 99.1736 30.8572 99.241 30.8572C99.6452 30.8572 100.117 30.7898 100.588 30.5877L100.992 29.5099C101.06 29.712 101.06 29.9814 101.06 30.1835C101.127 31.935 99.3757 33.0129 96.4116 33.6192ZM99.4431 29.5772C98.5673 29.5772 97.961 29.3752 97.961 28.9036C97.961 28.2973 98.4326 27.691 99.1736 27.691C99.9146 27.691 100.656 28.432 100.925 29.3752C100.386 29.5772 99.9146 29.6446 99.4431 29.5772Z" fill="#040404"/>
<path d="M4.99652 38.3349L5.46808 38.2675V38.0654H4.2555V38.2675L3.24502 40.558L2.16717 38.0654H1.02196V38.2675L1.49351 38.3349V41.299L0.95459 41.4337V41.6358H2.36927V41.4337L1.76298 41.1642V38.537L2.90819 41.0969L3.04292 41.4337H3.24502L3.37975 41.0969L4.4576 38.4696V41.299L3.98604 41.4337V41.6358H5.53545V41.4337L4.99652 41.299V38.3349Z" fill="#040404"/>
<path d="M6.68093 38.9409L5.87254 39.143V39.4125L6.142 39.4798V41.2987L5.80518 41.4334V41.6355H7.01776V41.4334L6.68093 41.2987V38.9409Z" fill="#040404"/>
<path d="M6.74787 37.998C6.74787 37.7959 6.61314 37.6611 6.41105 37.6611C6.20895 37.6611 6.07422 37.7959 6.07422 37.998C6.14158 38.2001 6.34368 38.2674 6.47841 38.2674C6.61314 38.2001 6.68051 38.0653 6.74787 37.998Z" fill="#040404"/>
<path d="M9.84705 39.884C9.84705 39.2104 9.64496 39.0083 9.10603 39.0083C8.7692 39.0757 8.49974 39.2104 8.29765 39.4799L8.16291 39.0083L7.48926 39.2778V39.4125L7.82609 39.4799V41.2987L7.48926 41.4335V41.6356H8.7692V41.4335L8.43238 41.3661V39.682C8.56711 39.5472 8.7692 39.4125 9.03867 39.4125C9.37549 39.4125 9.51022 39.6146 9.51022 39.9514V41.2987L9.24076 41.3661V41.5682H10.3186V41.3661L9.98178 41.2314L9.84705 39.884Z" fill="#040404"/>
<path d="M11.3289 38.9409L10.4531 39.143V39.4125L10.79 39.4798V41.2987L10.4531 41.4334V41.6355H11.7331V41.4334L11.3289 41.2987V38.9409Z" fill="#040404"/>
<path d="M11.3963 37.998C11.3289 37.7959 11.1269 37.7285 10.9921 37.7285C10.8574 37.7285 10.79 37.8633 10.7227 37.998C10.79 38.2001 10.9921 38.2674 11.1269 38.2674C11.1942 38.2001 11.3963 38.0653 11.3963 37.998Z" fill="#040404"/>
<path d="M13.2824 40.1536L13.0129 40.0188C12.6761 39.8841 12.6087 39.7494 12.6087 39.5473C12.6087 39.3452 12.7435 39.2104 12.9456 39.2104C13.0803 39.2104 13.215 39.2778 13.2824 39.3452L13.4845 39.8167H13.6192V39.1431C13.4171 39.0083 13.1477 39.0083 12.9456 39.0083C12.474 38.941 12.0698 39.3452 12.0698 39.8167C12.0698 40.1536 12.2045 40.3557 12.6087 40.4904L12.8108 40.6251C13.1477 40.7598 13.2824 40.9619 13.2824 41.164C13.2824 41.3661 13.0803 41.5682 12.8782 41.5682C12.7435 41.5682 12.5414 41.5009 12.474 41.4335L12.2045 40.8272H12.0024L12.0698 41.5682C12.2719 41.703 12.5414 41.7703 12.8108 41.7703C13.2824 41.8377 13.7539 41.5009 13.8887 40.9619C13.8887 40.5578 13.7539 40.3557 13.2824 40.1536Z" fill="#040404"/>
<path d="M15.4382 41.2991C15.2361 41.2991 15.1014 41.2991 15.1014 40.8949V39.4128H15.775V39.1434H15.1014V38.4697H14.8993L14.6298 39.1434L14.293 39.2107V39.4128H14.6298V41.1643C14.6298 41.5012 14.7645 41.7706 15.1687 41.7706C15.4382 41.7706 15.7076 41.7033 15.9097 41.5012L15.8424 41.3664C15.7076 41.2991 15.5729 41.2991 15.4382 41.2991Z" fill="#040404"/>
<path d="M17.6612 38.9409C17.4591 38.9409 17.3244 39.0757 17.1223 39.3451L16.9202 39.6146L16.8528 39.0083L16.1118 39.2777V39.4125L16.4486 39.4798V41.2987L16.1118 41.4334V41.6355H17.4591V41.4334L16.9876 41.3661V39.9514C17.0549 39.8167 17.1897 39.6819 17.3244 39.6146L17.7286 39.7493C17.8633 39.6819 17.9307 39.5472 17.9307 39.3451C17.9307 39.2104 17.8633 39.0756 17.7286 39.0756C17.7286 38.9409 17.6612 38.9409 17.6612 38.9409Z" fill="#040404"/>
<path d="M19.7495 39.2104L20.0863 39.3452L19.4127 41.164L18.8064 39.3452L19.1432 39.2778V39.0757H17.8633V39.2778L18.1327 39.3452L19.0759 41.8377L18.8064 42.5113C18.739 42.3766 18.6717 42.3092 18.5369 42.3092C18.4022 42.3092 18.2675 42.444 18.2675 42.5787C18.2675 42.7808 18.4022 42.9155 18.6043 42.9155C18.8738 42.9155 19.0085 42.7134 19.2106 42.2419L20.4232 39.3452L20.6926 39.2778V39.0757H19.8169L19.7495 39.2104Z" fill="#040404"/>
<path d="M23.1177 38.9409C22.444 38.9409 21.7704 39.5472 21.8377 40.3556C21.7704 41.0293 22.3093 41.6355 22.9829 41.7029C23.0503 41.7029 23.0503 41.7029 23.1177 41.7029C23.7913 41.7029 24.465 41.0966 24.3976 40.2882C24.465 39.6819 23.9934 39.0083 23.3198 38.9409C23.3198 38.9409 23.2524 38.9409 23.1177 38.9409ZM23.2524 41.4334C22.7135 41.4334 22.5114 40.8271 22.5114 40.2209C22.5114 39.6819 22.7135 39.2777 23.1177 39.2777C23.5219 39.2777 23.8587 39.6819 23.8587 40.4903C23.8587 40.9619 23.6566 41.4334 23.2524 41.4334Z" fill="#040404"/>
<path d="M26.2843 37.5938C25.6106 37.6611 25.0717 38.2674 25.0717 39.0084L24.7349 39.1432V39.3453H25.0717V41.2989L24.7349 41.4336V41.6357H26.0822V41.4336L25.6106 41.2989V39.3453H26.2843V39.0758H25.6106V38.6042C25.6106 38.0653 25.8127 37.8632 26.1495 37.8632C26.2169 37.8632 26.2843 37.8632 26.3516 37.9306L26.4864 38.4021C26.5537 38.4021 26.5537 38.4021 26.6211 38.4021C26.7558 38.4021 26.8906 38.3348 26.8906 38.1327C26.8906 38.1327 26.8906 38.1327 26.8906 38.0653C26.9579 37.8632 26.6885 37.5938 26.2843 37.5938Z" fill="#040404"/>
<path d="M28.7766 38.3349L29.2482 38.2675V38.0654H27.7661V38.2675L28.2377 38.3349V41.299L27.7661 41.4337V41.6358H29.3155V41.4337L28.7766 41.299V38.3349Z" fill="#040404"/>
<path d="M32.0775 39.884C32.0775 39.2104 31.8754 39.0083 31.3365 39.0083C30.9997 39.0757 30.7302 39.2104 30.5281 39.4799L30.3934 39.0083L29.7197 39.2778V39.4125L30.0566 39.4799V41.2987L29.7197 41.4335V41.6356H30.9323V41.4335L30.5955 41.3661V39.682C30.7302 39.5472 30.9323 39.4125 31.2018 39.4125C31.5386 39.4125 31.6733 39.6146 31.6733 39.9514V41.2987L31.4039 41.3661V41.5682H32.6164V41.3661L32.2796 41.2314L32.0775 39.884Z" fill="#040404"/>
<path d="M35.0414 37.6611L33.9635 37.7959V37.998L34.4351 38.0653V39.1432C34.3004 39.0758 34.1656 39.0758 34.0309 39.0758C33.2899 39.0758 32.6162 39.7495 32.6836 40.5578C32.6162 41.1641 33.0204 41.7031 33.6267 41.7704H33.6941C33.9635 41.7704 34.233 41.6357 34.4351 41.4336L34.5698 41.7704L35.3108 41.6357V41.4336L34.9067 41.2989L35.0414 37.6611ZM34.5025 41.1641C34.3677 41.2315 34.233 41.2989 34.0983 41.2989C33.492 41.2989 33.2899 40.7599 33.2899 40.1537C33.2899 39.6147 33.6267 39.2779 33.9635 39.2779C34.1656 39.2779 34.3677 39.4126 34.5025 39.6147V41.1641Z" fill="#040404"/>
<path d="M38.2079 39.0083L37.2647 39.0757V39.2778L37.6689 39.3451V41.0293C37.5342 41.164 37.3321 41.2314 37.13 41.2314C36.7932 41.2314 36.5911 41.0293 36.5911 40.6251V39.0083L35.7153 39.0757V39.2778L36.0522 39.3451V40.6924C36.0522 41.2987 36.3216 41.5682 36.7258 41.5682C37.0626 41.5682 37.3995 41.3661 37.6016 41.164L37.7363 41.5682L38.5447 41.5008V41.2987L38.1405 41.2314L38.2079 39.0083Z" fill="#040404"/>
<path d="M40.1613 40.1536L39.9592 40.0188C39.6223 39.8841 39.555 39.7494 39.555 39.5473C39.555 39.3452 39.6897 39.2104 39.8918 39.2104C40.0265 39.2104 40.1613 39.2778 40.2286 39.3452L40.4307 39.8167H40.5655V39.1431C40.3634 39.0083 40.0939 39.0083 39.8918 39.0083C39.4203 38.941 39.0161 39.3452 38.9487 39.8167C38.9487 40.1536 39.0834 40.3557 39.4876 40.4904L39.6897 40.6251C40.0265 40.7598 40.1613 40.9619 40.1613 41.164C40.1613 41.3661 39.9592 41.5682 39.7571 41.5682C39.7571 41.5682 39.7571 41.5682 39.6897 41.5682C39.555 41.5682 39.3529 41.5009 39.2855 41.4335L39.0161 40.8272H38.814L38.8813 41.5682C39.0834 41.703 39.3529 41.7703 39.6223 41.7703C40.0939 41.8377 40.5655 41.5009 40.7002 40.9619C40.7676 40.5578 40.5655 40.3557 40.1613 40.1536Z" fill="#040404"/>
<path d="M42.2497 41.2991C42.0476 41.2991 41.9129 41.2991 41.9129 40.8949V39.4128H42.5865V39.1434H41.9129V38.4697H41.7108L41.4413 39.076L41.1045 39.2107V39.4128H41.4413V41.1643C41.4413 41.5012 41.5761 41.7706 41.9802 41.7706C42.2497 41.7706 42.5192 41.7033 42.7213 41.5012V41.3664C42.5192 41.2991 42.3844 41.2991 42.2497 41.2991Z" fill="#040404"/>
<path d="M44.4727 38.9409C44.2706 38.9409 44.1359 39.0757 43.9338 39.3451L43.7317 39.6146L43.6644 39.0083L42.9233 39.2777V39.4125L43.2602 39.4798V41.2987L42.9233 41.4334V41.6355H44.2707V41.4334L43.7991 41.3661V39.9514C43.8665 39.8167 44.0012 39.6819 44.1359 39.6146L44.5401 39.7493C44.6748 39.6819 44.7422 39.5472 44.7422 39.3451C44.7422 39.2104 44.6748 39.0756 44.5401 39.0756C44.5401 38.9409 44.4727 38.9409 44.4727 38.9409Z" fill="#040404"/>
<path d="M46.5611 39.2104L46.8979 39.3452L46.2242 41.164L45.6179 39.3452L46.0221 39.2778V39.0757H44.7422V39.2778L44.9443 39.3452L45.8874 41.8377L45.6179 42.5113C45.5506 42.3766 45.4832 42.3092 45.3485 42.3092C45.2137 42.3092 45.079 42.444 45.079 42.5787C45.079 42.7808 45.2137 42.9155 45.4158 42.9155C45.6853 42.9155 45.82 42.7134 46.0221 42.2419L47.2347 39.3452L47.4368 39.2778V39.1431H46.5611V39.2104Z" fill="#040404"/>
<path d="M50.7378 41.164V39.7493C50.7378 39.2104 50.5357 38.9409 49.9294 38.9409C49.3231 38.9409 48.8515 39.3451 48.8515 39.6146C48.8515 39.7493 48.9189 39.8167 49.121 39.8167C49.1884 39.8167 49.2557 39.8167 49.3231 39.8167V39.2777C49.3905 39.2104 49.5252 39.2104 49.5926 39.2104C49.862 39.2104 50.0641 39.4125 50.0641 39.8167V40.0861L49.5252 40.2209C48.9863 40.3556 48.7168 40.5577 48.7168 40.9619C48.7168 41.2987 48.9863 41.5682 49.3231 41.5682C49.6599 41.5682 49.7946 41.4334 50.0641 41.164C50.0641 41.3661 50.1988 41.5682 50.4683 41.5682C50.6704 41.5682 50.8051 41.5008 51.0072 41.4334V41.2987H50.7378C50.7378 41.3661 50.7378 41.3661 50.7378 41.164ZM50.1988 41.0293C50.1315 41.164 49.9294 41.2313 49.7946 41.2987C49.5925 41.2987 49.3905 41.164 49.3905 40.9619C49.3905 40.9619 49.3905 40.9619 49.3905 40.8945C49.3905 40.6924 49.5252 40.5577 49.7946 40.4903L50.2662 40.3556L50.1988 41.0293Z" fill="#040404"/>
<path d="M53.9042 39.884C53.9042 39.2104 53.7021 39.0083 53.1632 39.0083C52.8263 39.0757 52.5569 39.2104 52.3548 39.4799L52.22 39.0083L51.5464 39.2778V39.4125L51.8832 39.4799V41.2987L51.5464 41.4335V41.6356H52.6916V41.4335L52.3548 41.3661V39.682C52.4895 39.5472 52.6916 39.4125 52.9611 39.4125C53.2979 39.4125 53.4326 39.6146 53.4326 39.9514V41.2987L53.1632 41.3661V41.5682H54.3757V41.3661L54.0389 41.2314V39.884H53.9042Z" fill="#040404"/>
<path d="M56.868 37.6611L55.7902 37.7959V37.998L56.2618 38.0653V39.1432C56.127 39.0758 55.9923 39.0758 55.8576 39.0758C55.1165 39.0758 54.4429 39.7495 54.5102 40.5578C54.4429 41.1641 54.8471 41.7031 55.4534 41.7704H55.5207C55.7902 41.7704 56.0597 41.6357 56.2618 41.4336L56.3965 41.7704L57.1375 41.6357V41.4336L56.7333 41.2989V37.6611H56.868ZM56.3291 41.1641C56.1944 41.2315 56.0597 41.2989 55.9249 41.2989C55.3186 41.2989 55.1165 40.7599 55.1165 40.1537C55.1165 39.6147 55.4534 39.2779 55.7902 39.2779C55.9923 39.2779 56.1944 39.4126 56.3291 39.6147V41.1641Z" fill="#040404"/>
<path d="M62.7289 38.3349L63.2005 38.2675V38.0654H61.9879V38.2675L60.9774 40.558L59.8996 38.0654H58.687V38.2675L59.2259 38.3349V41.299L58.687 41.4337V41.6358H60.1017V41.4337L59.4954 41.1642V38.537L60.6406 41.0969L60.708 41.4337H60.9101L61.1122 41.0969L62.19 38.4696V41.299L61.7185 41.4337V41.6358H63.2005V41.4337L62.7289 41.299V38.3349Z" fill="#040404"/>
<path d="M63.7393 37.998C63.7393 38.2001 63.874 38.3348 64.0761 38.3348C64.2782 38.3348 64.4129 38.2001 64.4129 37.998C64.4129 37.7959 64.2782 37.6612 64.0761 37.6612C63.874 37.5938 63.7393 37.7959 63.7393 37.998Z" fill="#040404"/>
<path d="M64.3455 38.9409L63.6045 39.143V39.4125L63.8739 39.4798V41.2987L63.5371 41.4334V41.6355H64.7497V41.4334L64.3455 41.2987V38.9409Z" fill="#040404"/>
<path d="M67.5116 39.884C67.5116 39.2104 67.3095 39.0083 66.7706 39.0083C66.4338 39.0757 66.1643 39.2104 65.9622 39.4799L65.8948 39.0083L65.2212 39.2778V39.4125L65.558 39.4799V41.2987L65.2212 41.4335V41.6356H66.4338V41.4335L66.0969 41.3661V39.682C66.2317 39.5472 66.4338 39.4125 66.7032 39.4125C67.0401 39.4125 67.1748 39.6146 67.1748 39.9514V41.2987L66.9053 41.3661V41.5682H68.0505V41.3661L67.7137 41.2314L67.5116 39.884Z" fill="#040404"/>
<path d="M69.6003 41.2987C69.0614 41.2987 68.7245 40.8945 68.7245 40.2209H70.476C70.476 39.5472 70.1392 39.0083 69.5329 39.0083C68.8593 39.0083 68.1856 39.6146 68.253 40.423V40.4903C68.1856 41.0966 68.6572 41.7029 69.3308 41.7703C69.8024 41.8376 70.274 41.5008 70.5434 41.0293L70.4087 40.9619C70.1392 41.0293 69.9371 41.164 69.6003 41.2987ZM69.3982 39.2104C69.735 39.2104 69.8698 39.5472 69.8698 39.884H68.6572C68.6572 39.6146 68.9266 39.2104 69.3982 39.2104Z" fill="#040404"/>
<path d="M72.4293 38.9409C72.2272 38.9409 72.0925 39.0757 71.8904 39.3451L71.6883 39.6146L71.6209 39.0083L70.8799 39.2777V39.4125L71.2167 39.4798V41.2987L70.8799 41.4334V41.6355H72.2272V41.4334L71.7556 41.3661V39.9514C71.8904 39.8167 71.9577 39.7493 72.0925 39.6146L72.4967 39.7493C72.6314 39.6819 72.6988 39.5472 72.6988 39.3451C72.6988 39.2104 72.6314 39.0756 72.4967 39.0756C72.4967 38.9409 72.4293 38.9409 72.4293 38.9409Z" fill="#040404"/>
<path d="M74.8545 41.164V39.7493C74.8545 39.2104 74.6524 38.9409 74.0461 38.9409C73.4398 38.9409 72.9682 39.3451 72.9682 39.6146C72.9682 39.7493 73.0356 39.8167 73.2377 39.8167C73.305 39.8167 73.3724 39.8167 73.4398 39.8167V39.2777C73.5071 39.2104 73.6419 39.2104 73.7093 39.2104C73.9787 39.2104 74.1808 39.4125 74.1808 39.8167V40.0861L73.6419 40.2209C73.103 40.3556 72.8335 40.5577 72.8335 40.9619C72.8335 41.2987 73.103 41.5682 73.4398 41.5682C73.7766 41.5682 73.9113 41.4334 74.1808 41.164C74.1808 41.3661 74.3155 41.5682 74.585 41.5682C74.7871 41.5682 74.9218 41.5008 75.1239 41.4334V41.2987H74.8545C74.9218 41.3661 74.8545 41.3661 74.8545 41.164ZM74.3155 41.0293C74.2482 41.164 74.0461 41.2313 73.9113 41.2987C73.7092 41.2987 73.5072 41.164 73.5072 40.9619C73.5072 40.9619 73.5072 40.9619 73.5072 40.8945C73.5072 40.6924 73.6419 40.5577 73.9113 40.4903L74.3829 40.3556L74.3155 41.0293Z" fill="#040404"/>
<path d="M76.4041 37.6611L75.5957 37.7959V37.998L75.9325 38.0653V41.2989L75.5957 41.4336V41.6357H76.7409V41.4336L76.4041 41.2989V37.6611Z" fill="#040404"/>
<path d="M80.2436 39.8843C80.6478 39.8169 80.9846 39.4128 80.9846 39.0086C80.9846 38.4696 80.4457 38.1328 79.4352 38.1328H78.1553V38.3349L78.6268 38.4696V41.3664L78.1553 41.5011V41.7032H79.6373V41.5011L79.2331 41.3664V40.0864H79.6373L79.8394 40.4232L80.7152 41.7032H81.5909V41.5011L81.1194 41.3664L80.2436 39.8843ZM79.7047 39.817H79.3005V38.2675C80.0415 38.2675 80.5131 38.537 80.5131 39.0759C80.3783 39.4801 80.0415 39.7496 79.7047 39.817Z" fill="#040404"/>
<path d="M83.208 41.2987C82.6691 41.2987 82.3322 40.8945 82.3322 40.2209H84.0837C84.0837 39.5472 83.7469 39.0083 83.1406 39.0083C82.3996 39.0083 81.7933 39.6146 81.8607 40.423V40.4903C81.7933 41.0966 82.3322 41.7029 83.0059 41.7703C83.4774 41.7703 83.949 41.5008 84.2185 41.0966L84.0837 41.0293C83.7469 41.0293 83.4775 41.164 83.208 41.2987ZM82.8712 39.2104C83.208 39.2104 83.3427 39.5472 83.3427 39.884H82.1301C82.2649 39.6146 82.5343 39.2104 82.8712 39.2104Z" fill="#040404"/>
<path d="M85.7004 40.1538L85.4983 40.0191C85.1614 39.8843 85.0941 39.7496 85.0941 39.5475C85.0941 39.3454 85.2288 39.2107 85.4309 39.2107C85.5656 39.2107 85.7004 39.278 85.7677 39.3454L85.9698 39.817H86.1045V39.1433C85.9025 39.0086 85.633 39.0086 85.4309 39.0086C84.9593 38.9412 84.5551 39.278 84.4878 39.7496C84.4878 40.0864 84.6225 40.2885 85.0267 40.4233L85.2288 40.558C85.633 40.6927 85.7004 40.8948 85.7004 41.0969C85.7004 41.299 85.4983 41.5011 85.2962 41.5011C85.1614 41.5011 84.9593 41.4337 84.892 41.3664L84.6225 40.7601H84.4204L84.4878 41.5011C84.6899 41.6358 84.9593 41.7032 85.2288 41.7032C85.7004 41.7706 86.1719 41.4337 86.3066 40.8948C86.3066 40.558 86.1719 40.3559 85.7004 40.1538Z" fill="#040404"/>
<path d="M88.0581 38.9409C87.3844 38.9409 86.7108 39.5472 86.7782 40.3556C86.7108 41.0293 87.2497 41.6355 87.9234 41.7029C87.9907 41.7029 87.9907 41.7029 88.0581 41.7029C88.7318 41.7029 89.4054 41.0966 89.3381 40.2882C89.4054 39.6819 88.9339 39.0083 88.2602 38.9409C88.1255 38.9409 88.1255 38.9409 88.0581 38.9409ZM88.1255 41.4334C87.5865 41.4334 87.3844 40.8271 87.3844 40.2209C87.3844 39.6819 87.5865 39.2777 87.9907 39.2777C88.3949 39.2777 88.7318 39.6819 88.7318 40.4903C88.7318 40.9619 88.4623 41.4334 88.1255 41.4334Z" fill="#040404"/>
<path d="M92.0331 39.0083L91.0899 39.0757V39.2778L91.4941 39.3451V41.0293C91.3594 41.164 91.1573 41.2314 90.9552 41.2314C90.6184 41.2314 90.4163 41.0293 90.4163 40.6251V39.0083L89.5405 39.0757V39.2778L89.8774 39.3451V40.6924C89.8774 41.2987 90.1468 41.5682 90.6184 41.5682C90.9552 41.5682 91.292 41.3661 91.4941 41.164L91.6289 41.5682L92.3699 41.4335V41.2987L91.9657 41.2314L92.0331 39.0083Z" fill="#040404"/>
<path d="M94.256 38.9409C94.0539 38.9409 93.9191 39.0757 93.717 39.3451L93.5149 39.6146L93.4476 39.0083L92.7065 39.2777V39.4125L93.0434 39.4798V41.2987L92.7065 41.4334V41.6355H94.0539V41.4334L93.5823 41.3661V39.9514C93.6497 39.8167 93.7844 39.6819 93.9191 39.6146L94.3233 39.7493C94.458 39.6819 94.5254 39.5472 94.5254 39.3451C94.5254 39.2104 94.458 39.0756 94.3233 39.0756C94.2559 38.9409 94.256 38.9409 94.256 38.9409Z" fill="#040404"/>
<path d="M96.1423 41.2987C95.6033 41.2314 95.1992 40.8272 95.2665 40.2209C95.2665 39.682 95.536 39.2778 96.0075 39.2778C96.1423 39.2778 96.2096 39.2778 96.277 39.3452L96.3444 39.8841C96.4117 39.8841 96.4791 39.8841 96.5465 39.8841C96.6812 39.8841 96.8159 39.7493 96.8159 39.6146C96.8159 39.3451 96.4791 39.0757 96.0749 39.0757C95.3339 39.0757 94.6602 39.7493 94.7276 40.5577C94.6602 41.164 95.1318 41.7703 95.8054 41.8377C95.8728 41.8377 95.8728 41.8377 95.9402 41.8377C96.3444 41.8377 96.7486 41.5682 96.8833 41.2314L96.7486 41.164C96.6138 41.0967 96.3444 41.2987 96.1423 41.2987Z" fill="#040404"/>
<path d="M98.6347 41.2987C98.0958 41.2987 97.759 40.8945 97.759 40.2209H99.5105C99.5105 39.5472 99.1737 39.0083 98.5674 39.0083C97.8263 39.0083 97.2201 39.6146 97.2201 40.423V40.4903C97.1527 41.0966 97.6916 41.7029 98.3653 41.7703H98.4326C98.9042 41.7703 99.3084 41.5008 99.5778 41.0293L99.4431 40.9619C99.1737 41.0293 98.9716 41.164 98.6347 41.2987ZM98.3653 39.2104C98.7021 39.2104 98.8368 39.5472 98.8368 39.884H97.6916C97.6916 39.6146 97.9611 39.2104 98.3653 39.2104Z" fill="#040404"/>
<path d="M101.194 40.1538L100.925 40.0191C100.588 39.8843 100.521 39.7496 100.521 39.5475C100.521 39.3454 100.656 39.2107 100.858 39.2107C100.992 39.2107 101.127 39.278 101.194 39.3454L101.397 39.817H101.531V39.1433C101.329 39.0086 101.06 39.0086 100.858 39.0086C100.386 38.9412 99.9819 39.278 99.9145 39.7496C99.9145 40.0864 100.049 40.2885 100.453 40.4233L100.656 40.558C100.992 40.6927 101.127 40.8948 101.127 41.0969C101.127 41.299 100.925 41.5011 100.723 41.5011C100.723 41.5011 100.723 41.5011 100.656 41.5011C100.521 41.5011 100.319 41.4337 100.251 41.3664L99.9819 40.7601H99.7798L99.8471 41.5011C100.049 41.6358 100.319 41.7032 100.588 41.7032C101.06 41.7706 101.531 41.4337 101.666 40.8948C101.801 40.558 101.666 40.3559 101.194 40.1538Z" fill="#040404"/>
<defs>
<linearGradient id="paint0_linear_2795_9672" x1="180.903" y1="35.725" x2="117.781" y2="34.651" gradientUnits="userSpaceOnUse">
<stop offset="0.13" stop-color="#DDD9D7"/>
<stop offset="0.16" stop-color="#CECBC9"/>
<stop offset="0.24" stop-color="#A7A7A6"/>
<stop offset="0.25" stop-color="#A2A2A1"/>
<stop offset="0.28" stop-color="#A9A9A9"/>
<stop offset="0.32" stop-color="#BBBBBB"/>
<stop offset="0.35" stop-color="#ACACAC"/>
<stop offset="0.42" stop-color="#808181"/>
<stop offset="0.48" stop-color="#8D8E8E"/>
<stop offset="0.6" stop-color="#B1B1B1"/>
<stop offset="0.7" stop-color="#D6D6D6"/>
<stop offset="0.72" stop-color="#CCCDCD"/>
<stop offset="0.77" stop-color="#B2B4B4"/>
<stop offset="0.83" stop-color="#878B8C"/>
<stop offset="0.9" stop-color="#4D5455"/>
<stop offset="0.92" stop-color="#707475"/>
<stop offset="0.96" stop-color="#9FA1A1"/>
<stop offset="0.98" stop-color="#BDBDBD"/>
<stop offset="1" stop-color="#C8C7C7"/>
</linearGradient>
<linearGradient id="paint1_linear_2795_9672" x1="119.556" y1="6.77801" x2="174.26" y2="128.79" gradientUnits="userSpaceOnUse">
<stop offset="0.03" stop-color="#4E4D4D"/>
<stop offset="0.04" stop-color="#636363"/>
<stop offset="0.06" stop-color="#737474"/>
<stop offset="0.08" stop-color="#7F7F80"/>
<stop offset="0.11" stop-color="#858687"/>
<stop offset="0.18" stop-color="#878889"/>
<stop offset="0.35" stop-color="#4E4D4D"/>
<stop offset="0.39" stop-color="#6B6A6A"/>
<stop offset="0.45" stop-color="#888787"/>
<stop offset="0.51" stop-color="#9F9E9E"/>
<stop offset="0.58" stop-color="#B2B1B1"/>
<stop offset="0.66" stop-color="#BEBDBD"/>
<stop offset="0.77" stop-color="#C6C5C5"/>
<stop offset="1" stop-color="#C8C7C7"/>
</linearGradient>
<linearGradient id="paint2_linear_2795_9672" x1="155.101" y1="38.7949" x2="105.681" y2="9.7196" gradientUnits="userSpaceOnUse">
<stop stop-color="#DDD9D7"/>
<stop offset="0.04" stop-color="#B3B2B1"/>
<stop offset="0.12" stop-color="#6A6F6F"/>
<stop offset="0.16" stop-color="#4D5455"/>
<stop offset="0.73" stop-color="#7D8386"/>
<stop offset="0.82" stop-color="#868B8F"/>
<stop offset="0.84" stop-color="#8B9093"/>
<stop offset="0.86" stop-color="#9A9DA0"/>
<stop offset="0.88" stop-color="#B3B4B5"/>
<stop offset="0.9" stop-color="#C8C7C7"/>
</linearGradient>
<linearGradient id="paint3_linear_2795_9672" x1="159.513" y1="31.5311" x2="102.02" y2="-6.62864" gradientUnits="userSpaceOnUse">
<stop offset="0.03" stop-color="#676767"/>
<stop offset="0.09" stop-color="#7E7E7D"/>
<stop offset="0.16" stop-color="#929291"/>
<stop offset="0.23" stop-color="#9E9E9D"/>
<stop offset="0.29" stop-color="#A2A2A1"/>
<stop offset="0.35" stop-color="#9A9A99"/>
<stop offset="0.44" stop-color="#838383"/>
<stop offset="0.52" stop-color="#676767"/>
<stop offset="0.53" stop-color="#6D6D6D"/>
<stop offset="0.59" stop-color="#979797"/>
<stop offset="0.64" stop-color="#B1B1B1"/>
<stop offset="0.67" stop-color="#BBBBBB"/>
<stop offset="0.71" stop-color="#B9B9B9"/>
<stop offset="0.73" stop-color="#B2B3B4"/>
<stop offset="0.74" stop-color="#A6A8AA"/>
<stop offset="0.75" stop-color="#95999C"/>
<stop offset="0.76" stop-color="#868B8F"/>
<stop offset="0.79" stop-color="#8B9093"/>
<stop offset="0.83" stop-color="#9A9DA0"/>
<stop offset="0.87" stop-color="#B3B4B5"/>
<stop offset="0.9" stop-color="#C8C7C7"/>
<stop offset="0.92" stop-color="#C3C2C3"/>
<stop offset="0.95" stop-color="#B4B4B6"/>
<stop offset="0.98" stop-color="#9B9EA0"/>
<stop offset="1" stop-color="#868B8F"/>
</linearGradient>
</defs>
</svg>
