<svg width="164" height="46" viewBox="0 0 164 46" fill="none" xmlns="http://www.w3.org/2000/svg">
<path d="M151.306 24.3194C151.089 24.211 150.728 23.9941 150.186 23.8134C149.427 23.5604 148.342 23.3797 147.077 23.5965C146.643 23.6688 146.21 23.7773 145.74 23.958C145.704 23.9941 145.668 23.9941 145.595 23.9941C145.342 24.0664 145.125 24.1748 144.872 24.3194C144.655 24.4279 144.475 24.5363 144.258 24.6447C143.788 24.9339 143.354 25.223 142.884 25.5845C142.378 22.5483 142.631 19.7652 142.74 18.3917C143.824 19.0785 143.499 20.958 143.282 21.5001C144.619 19.9098 143.969 18.1748 143.68 17.7411C143.86 17.8857 144.041 18.0664 144.149 18.2471C144.583 18.7893 144.728 19.3315 144.764 19.8375C144.8 20.0905 144.764 20.3435 144.764 20.5604C144.764 20.6327 144.764 20.6688 144.764 20.705C145.125 19.9821 145.306 18.9339 144.764 17.8857C144.619 17.5965 144.402 17.3435 144.149 17.0544C144.077 16.9821 144.005 16.9098 143.896 16.8375V16.8013C143.969 16.8375 144.041 16.8375 144.113 16.8736C144.33 16.9459 144.547 17.0544 144.728 17.1989C145.125 17.4881 145.415 17.9218 145.559 18.3194C145.704 18.6809 145.776 19.0423 145.776 19.3676C145.776 19.3676 145.776 19.3676 145.812 19.3676C146.065 18.4278 145.921 17.7411 145.595 17.2351C145.378 16.8736 145.053 16.6206 144.764 16.4038C144.547 16.2953 144.33 16.1869 144.149 16.1146C144.041 16.0784 143.933 16.0785 143.86 16.0423V16.0062C143.969 16.0062 144.041 16.0062 144.149 16.0062C144.366 16.0062 144.583 16.0062 144.764 16.0423C145.125 16.1146 145.415 16.223 145.595 16.3676C145.921 16.5845 146.101 16.8736 146.174 16.9821H146.21C146.174 16.5122 145.921 16.1146 145.631 15.8254C145.378 15.6086 145.089 15.464 144.8 15.3917C144.583 15.3194 144.402 15.3194 144.186 15.3194C143.896 15.3194 143.643 15.3556 143.427 15.464C143.607 15.1748 143.896 14.9941 144.186 14.9218C144.402 14.8495 144.619 14.8495 144.8 14.8495C144.981 14.8495 145.161 14.8857 145.306 14.958C145.306 14.958 145.342 14.958 145.306 14.9218C145.161 14.7411 144.981 14.5965 144.8 14.5242C144.619 14.4158 144.402 14.3435 144.186 14.3435C143.643 14.2712 143.101 14.5242 142.74 15.0664C142.668 14.9218 142.595 14.8134 142.523 14.6688C142.378 14.3435 142.27 13.9459 142.198 13.5845H142.161C142.089 13.9821 141.981 14.3435 141.836 14.705C141.764 14.8495 141.692 14.9941 141.619 15.1025C141.619 15.1025 141.619 15.1025 141.583 15.1025C140.933 14.1266 139.74 14.1628 139.017 14.9941V15.0303C139.523 14.8134 140.427 14.8495 140.896 15.5363C140.174 15.2471 139.089 15.4278 138.475 16.1507C138.258 16.4038 138.113 16.7291 138.077 17.0905C138.077 17.0905 138.113 17.1266 138.113 17.0905C138.149 17.0182 138.258 16.8013 138.475 16.6206C138.8 16.3315 139.415 16.0062 140.427 16.1146V16.1507C139.921 16.223 138.872 16.6568 138.475 17.705C138.294 18.1748 138.258 18.717 138.439 19.4399H138.475V19.4038C138.475 18.464 139.017 17.1989 140.354 16.8736C140.354 16.8736 140.39 16.8736 140.354 16.9098C138.872 18.211 139.017 19.8375 139.487 20.7772H139.523C139.451 20.0544 139.415 18.7893 140.607 17.8134C140.318 18.2471 139.668 19.9821 141.005 21.5724H141.041C140.824 21.0303 140.499 19.1507 141.583 18.464C141.692 19.8375 141.945 22.6568 141.439 25.6568C140.571 25.0062 139.668 24.4278 138.764 24.0664C138.655 24.0303 138.547 23.9941 138.439 23.958C137.499 23.6688 136.668 23.5604 135.908 23.5965C134.716 23.6327 133.812 23.9941 133.306 24.2471C133.198 24.2833 133.125 24.3556 133.053 24.3917C133.017 24.3917 133.053 24.4278 133.089 24.4278C133.161 24.3917 133.234 24.3917 133.306 24.3556C134.21 24.1025 135.077 24.0303 135.908 24.1025C136.812 24.1748 137.643 24.4278 138.439 24.7893C139.523 25.2953 140.535 25.9821 141.439 26.7411C140.174 27.8616 139.089 28.9459 138.439 29.3074C138.402 29.3435 138.366 29.3435 138.33 29.3435C138.186 29.1266 137.896 29.0182 137.607 29.0543C137.354 29.1266 137.137 29.3074 137.065 29.5604C136.993 29.7773 137.065 30.0303 137.21 30.1748C137.571 30.5363 137.969 30.5363 138.439 30.3556C139.306 29.9941 140.427 28.8375 141.764 27.5724C141.872 27.464 141.981 27.3556 142.089 27.2471C142.198 27.3556 142.306 27.464 142.415 27.5363C143.029 28.0785 143.571 28.6206 144.113 29.0905C144.33 29.2712 144.547 29.4519 144.728 29.6327C145.017 29.8857 145.306 30.0664 145.559 30.211C146.065 30.464 146.535 30.5001 146.896 30.1748C146.933 30.1748 146.933 30.1387 146.969 30.1387C147.041 30.0664 147.149 29.7772 147.113 29.5242C147.077 29.3797 147.005 29.2712 146.896 29.1628C146.824 29.0905 146.68 29.0182 146.571 28.9821C146.282 28.9098 145.993 29.0544 145.848 29.2712C145.776 29.2351 145.668 29.1628 145.559 29.0905C145.306 28.9098 145.017 28.6929 144.728 28.4038C144.547 28.223 144.33 28.0423 144.113 27.8616C143.716 27.5001 143.246 27.0664 142.74 26.6327C143.174 26.2712 143.607 25.9459 144.113 25.6206C144.294 25.476 144.511 25.3676 144.728 25.223C145.017 25.0423 145.27 24.8977 145.559 24.7893C145.993 24.5724 146.427 24.3917 146.896 24.2833C147.872 23.9941 148.884 23.9218 150.005 24.1025C150.366 24.1748 150.728 24.2471 151.125 24.3556C151.342 24.3556 151.342 24.3194 151.306 24.3194Z" fill="#565D56"/>
<path d="M139.522 3.89746L141.185 5.48783L139.595 7.11433L137.932 5.52397L139.522 3.89746Z" fill="#3D423D"/>
<path d="M143.318 5.52397L144.944 7.11433L146.535 5.45168L144.872 3.89746L143.318 5.52397Z" fill="#3D423D"/>
<path d="M140.969 7.62054L142.27 8.84946L143.499 7.54826L142.198 6.31934L140.969 7.62054Z" fill="#3D423D"/>
<path d="M145.704 8.30705L146.969 9.53597L148.198 8.27091L146.933 7.04199L145.704 8.30705Z" fill="#3D423D"/>
<path d="M138.872 9.5722L140.173 10.8011L141.402 9.49991L140.101 8.271L138.872 9.5722Z" fill="#3D423D"/>
<path d="M143.173 9.71673L144.475 10.9456L145.703 9.64445L144.438 8.41553L143.173 9.71673Z" fill="#3D423D"/>
<path d="M141.511 11.1985L142.414 12.0299L143.282 11.1262L142.378 10.2949L141.511 11.1985Z" fill="#3D423D"/>
<path d="M144.908 11.8494L145.812 12.7169L146.679 11.8133L145.776 10.9458L144.908 11.8494Z" fill="#3D423D"/>
<path d="M152.354 5.01823L152.86 7.80137L155.679 7.29534L155.173 4.51221L152.354 5.01823Z" fill="#3D423D"/>
<path d="M148.704 6.17494L149.101 8.4159L151.342 8.01831L150.945 5.77734L148.704 6.17494Z" fill="#3D423D"/>
<path d="M153.041 9.31948L153.439 11.5604L155.716 11.1267L155.282 8.88574L153.041 9.31948Z" fill="#3D423D"/>
<path d="M149.933 9.64464L150.258 11.3796L152.029 11.0543L151.704 9.31934L149.933 9.64464Z" fill="#3D423D"/>
<path d="M155.105 12.6302L153.363 12.9521L153.685 14.6937L155.427 14.3717L155.105 12.6302Z" fill="#3D423D"/>
<path d="M149.07 10.0281L147.329 10.3481L147.649 12.09L149.391 11.77L149.07 10.0281Z" fill="#3D423D"/>
<path d="M152.259 12.3286L150.517 12.6465L150.835 14.3889L152.577 14.071L152.259 12.3286Z" fill="#3D423D"/>
<path d="M148.27 12.8253L148.486 14.0542L149.715 13.8373L149.498 12.6084L148.27 12.8253Z" fill="#3D423D"/>
<path d="M150.619 15.3917L150.872 16.6206L152.101 16.3676L151.848 15.1387L150.619 15.3917Z" fill="#3D423D"/>
<path d="M160.704 14.1626L159.475 16.7289L162.041 17.9578L163.27 15.3915L160.704 14.1626Z" fill="#3D423D"/>
<path d="M157.053 12.9697L156.041 15.03L158.137 16.0059L159.113 13.9456L157.053 12.9697Z" fill="#3D423D"/>
<path d="M158.716 18.0303L157.74 20.0905L159.8 21.0664L160.812 19.0062L158.716 18.0303Z" fill="#3D423D"/>
<path d="M156.005 16.5122L155.246 18.1026L156.872 18.8616L157.631 17.2712L156.005 16.5122Z" fill="#3D423D"/>
<path d="M156.836 21.1748L156.077 22.7652L157.667 23.5242L158.462 21.9338L156.836 21.1748Z" fill="#3D423D"/>
<path d="M153.474 15.5361L152.715 17.1626L154.306 17.9217L155.101 16.2952L153.474 15.5361Z" fill="#3D423D"/>
<path d="M154.703 19.2593L153.944 20.8496L155.571 21.6087L156.33 20.0183L154.703 19.2593Z" fill="#3D423D"/>
<path d="M152.788 18.1387L152.246 19.2592L153.366 19.8013L153.908 18.6447L152.788 18.1387Z" fill="#3D423D"/>
<path d="M153.221 21.5723L152.679 22.6927L153.8 23.2349L154.342 22.0783L153.221 21.5723Z" fill="#3D423D"/>
<path d="M162.077 26.4155L159.583 27.789L160.957 30.283L163.45 28.9095L162.077 26.4155Z" fill="#3D423D"/>
<path d="M159.8 23.3433L157.812 24.4276L158.896 26.4517L160.92 25.3312L159.8 23.3433Z" fill="#3D423D"/>
<path d="M158.21 28.4399L156.186 29.5243L157.306 31.5122L159.294 30.4279L158.21 28.4399Z" fill="#3D423D"/>
<path d="M156.908 25.6206L155.354 26.4519L156.221 28.0062L157.776 27.1748L156.908 25.6206Z" fill="#3D423D"/>
<path d="M154.848 29.8857L153.258 30.7171L154.125 32.2713L155.68 31.44L154.848 29.8857Z" fill="#3D423D"/>
<path d="M155.426 23.3433L153.836 24.2107L154.703 25.765L156.258 24.8975L155.426 23.3433Z" fill="#3D423D"/>
<path d="M154.233 27.0664L152.679 27.9339L153.547 29.4881L155.101 28.6206L154.233 27.0664Z" fill="#3D423D"/>
<path d="M153.258 25.042L152.173 25.6203L152.752 26.7408L153.836 26.1263L153.258 25.042Z" fill="#3D423D"/>
<path d="M151.667 28.0781L150.547 28.6564L151.161 29.7769L152.282 29.1625L151.667 28.0781Z" fill="#3D423D"/>
<path d="M153.162 36.8393L152.813 39.6733L155.647 40.0228L155.997 37.1888L153.162 36.8393Z" fill="#3D423D"/>
<path d="M155.969 33.3556L153.691 33.1025L153.402 35.3435L155.679 35.6327L155.969 33.3556Z" fill="#3D423D"/>
<path d="M151.667 36.5724L149.39 36.2832L149.137 38.5242L151.378 38.8133L151.667 36.5724Z" fill="#3D423D"/>
<path d="M152.282 33.5362L150.511 33.2832L150.294 35.0543L152.065 35.2712L152.282 33.5362Z" fill="#3D423D"/>
<path d="M146.322 35.5547L146.105 37.3125L147.863 37.5295L148.08 35.7716L146.322 35.5547Z" fill="#3D423D"/>
<path d="M150.618 30.6065L150.402 32.3643L152.16 32.5809L152.376 30.8231L150.618 30.6065Z" fill="#3D423D"/>
<path d="M147.483 32.9341L147.266 34.6919L149.024 34.9089L149.241 33.1511L147.483 32.9341Z" fill="#3D423D"/>
<path d="M149.715 30.9698L148.486 30.8252L148.342 32.0541L149.571 32.1987L149.715 30.9698Z" fill="#3D423D"/>
<path d="M146.571 32.4517L145.342 32.3071L145.197 33.5361L146.426 33.6806L146.571 32.4517Z" fill="#3D423D"/>
<path d="M144.727 42.3918L142.631 40.4399L140.715 42.5363L142.776 44.452L144.727 42.3918Z" fill="#3D423D"/>
<path d="M144.33 2.63247L142.27 0.680664L140.318 2.77705L142.414 4.69271L144.33 2.63247Z" fill="#3D423D"/>
<path d="M146.968 39.2471L145.27 37.6929L143.715 39.3917L145.414 40.9459L146.968 39.2471Z" fill="#3D423D"/>
<path d="M141.583 39.3555L139.92 37.8013L138.366 39.4639L140.029 41.0181L141.583 39.3555Z" fill="#3D423D"/>
<path d="M143.896 37.223L142.595 36.0303L141.366 37.3315L142.667 38.5242L143.896 37.223Z" fill="#3D423D"/>
<path d="M139.161 36.6083L137.86 35.4155L136.667 36.7167L137.969 37.9095L139.161 36.6083Z" fill="#3D423D"/>
<path d="M145.559 35.0902L144.258 33.8975L143.065 35.1987L144.366 36.3914L145.559 35.0902Z" fill="#3D423D"/>
<path d="M141.655 35.1625L140.354 33.9697L139.125 35.2709L140.426 36.4637L141.655 35.1625Z" fill="#3D423D"/>
<path d="M143.318 33.6809L142.378 32.8135L141.547 33.7532L142.45 34.5846L143.318 33.6809Z" fill="#3D423D"/>
<path d="M138.97 32.1933L138.111 33.1216L139.039 33.9811L139.899 33.0528L138.97 32.1933Z" fill="#3D423D"/>
<path d="M132.547 40.0058L132.005 37.2227L129.222 37.801L129.764 40.5841L132.547 40.0058Z" fill="#3D423D"/>
<path d="M136.197 38.7771L135.763 36.5723L133.486 37.006L133.956 39.247L136.197 38.7771Z" fill="#3D423D"/>
<path d="M131.788 35.741L131.354 33.5L129.113 33.9699L129.547 36.1747L131.788 35.741Z" fill="#3D423D"/>
<path d="M134.896 35.3433L134.535 33.6084L132.8 33.9698L133.161 35.7048L134.896 35.3433Z" fill="#3D423D"/>
<path d="M137.499 34.6207L137.173 32.8857L135.402 33.211L135.764 34.946L137.499 34.6207Z" fill="#3D423D"/>
<path d="M133.938 30.6312L132.201 30.9771L132.547 32.714L134.283 32.3681L133.938 30.6312Z" fill="#3D423D"/>
<path d="M136.279 30.8984L135.038 31.1465L135.286 32.387L136.527 32.1389L136.279 30.8984Z" fill="#3D423D"/>
<path d="M134.101 29.6327L133.848 28.4038L132.619 28.6568L132.872 29.8857L134.101 29.6327Z" fill="#3D423D"/>
<path d="M124.053 31.0061L125.245 28.4398L122.643 27.2471L121.486 29.8495L124.053 31.0061Z" fill="#3D423D"/>
<path d="M127.739 32.1265L128.679 30.0662L126.619 29.1265L125.679 31.1867L127.739 32.1265Z" fill="#3D423D"/>
<path d="M125.968 27.1025L126.908 25.0423L124.848 24.0664L123.872 26.1628L125.968 27.1025Z" fill="#3D423D"/>
<path d="M128.715 28.5843L129.438 26.9939L127.812 26.2349L127.089 27.8614L128.715 28.5843Z" fill="#3D423D"/>
<path d="M130.884 32.6326L131.607 31.0061L129.981 30.2832L129.258 31.9097L130.884 32.6326Z" fill="#3D423D"/>
<path d="M127.812 23.9217L128.535 22.3313L126.908 21.5723L126.186 23.1988L127.812 23.9217Z" fill="#3D423D"/>
<path d="M131.246 29.5242L132.005 27.8977L130.378 27.1748L129.655 28.7652L131.246 29.5242Z" fill="#3D423D"/>
<path d="M129.103 23.4848L128.366 25.0952L129.976 25.8322L130.713 24.2217L129.103 23.4848Z" fill="#3D423D"/>
<path d="M131.932 26.9219L132.439 25.8014L131.282 25.2593L130.776 26.4159L131.932 26.9219Z" fill="#3D423D"/>
<path d="M131.426 23.4878L131.932 22.3674L130.812 21.8252L130.306 22.9818L131.426 23.4878Z" fill="#3D423D"/>
<path d="M122.462 18.7532L124.956 17.3436L123.547 14.8857L121.053 16.2954L122.462 18.7532Z" fill="#3D423D"/>
<path d="M124.812 21.8252L126.764 20.6686L125.643 18.7168L123.655 19.8373L124.812 21.8252Z" fill="#3D423D"/>
<path d="M126.33 16.6929L128.318 15.5724L127.161 13.5845L125.173 14.705L126.33 16.6929Z" fill="#3D423D"/>
<path d="M127.667 19.512L129.185 18.6084L128.318 17.0903L126.764 17.9578L127.667 19.512Z" fill="#3D423D"/>
<path d="M130.326 12.7887L128.788 13.6655L129.664 15.2042L131.203 14.3274L130.326 12.7887Z" fill="#3D423D"/>
<path d="M129.185 21.7171L130.74 20.8496L129.872 19.3315L128.318 20.199L129.185 21.7171Z" fill="#3D423D"/>
<path d="M130.306 17.994L131.86 17.1265L130.957 15.5723L129.438 16.4397L130.306 17.994Z" fill="#3D423D"/>
<path d="M131.246 20.0181L132.33 19.4037L131.716 18.3193L130.631 18.9338L131.246 20.0181Z" fill="#3D423D"/>
<path d="M132.872 16.9459L133.957 16.3314L133.342 15.2471L132.258 15.8615L132.872 16.9459Z" fill="#3D423D"/>
<path d="M128.39 7.90961L131.209 8.19877L131.535 5.37949L128.679 5.09033L128.39 7.90961Z" fill="#3D423D"/>
<path d="M128.713 9.45293L128.473 11.7173L130.737 11.9573L130.977 9.69294L128.713 9.45293Z" fill="#3D423D"/>
<path d="M132.728 8.4519L134.969 8.70491L135.222 6.4278L132.944 6.21094L132.728 8.4519Z" fill="#3D423D"/>
<path d="M132.149 11.524L133.92 11.7047L134.101 9.93365L132.33 9.75293L132.149 11.524Z" fill="#3D423D"/>
<path d="M136.306 9.21102L138.077 9.39175L138.257 7.62066L136.486 7.43994L136.306 9.21102Z" fill="#3D423D"/>
<path d="M132.077 14.235L133.848 14.4157L134.028 12.6446L132.257 12.4639L132.077 14.235Z" fill="#3D423D"/>
<path d="M135.186 11.8492L136.957 12.0299L137.137 10.2588L135.366 10.0781L135.186 11.8492Z" fill="#3D423D"/>
<path d="M134.751 14.018L136.017 14.1626L136.125 12.9336L134.896 12.7891L134.751 14.018Z" fill="#3D423D"/>
<path d="M137.86 12.4999L139.125 12.6084L139.233 11.3794L138.004 11.2349L137.86 12.4999Z" fill="#3D423D"/>
<path d="M108.547 10.4036C109.017 10.4036 109.414 10.7651 109.414 11.2711C109.414 11.7771 109.017 12.1386 108.547 12.1386C108.041 12.1386 107.679 11.741 107.679 11.2711C107.679 10.8012 108.041 10.4036 108.547 10.4036ZM106.27 9.57229C106.017 9.57229 105.511 9.31928 105.511 8.92169C105.511 8.5241 106.017 8.27109 106.27 8.27109H107.752V3.57229H109.414V9.60843H106.27V9.57229ZM101.246 12.6807L101.354 11.3434C101.643 11.4518 101.968 11.488 102.402 11.488C103.27 11.488 103.776 11.0904 103.776 9.68072V3.5H105.438V8.1988H106.74V9.53615H105.438V9.57229C105.438 11.1988 104.896 12.7892 102.294 12.7892C101.932 12.8253 101.571 12.753 101.246 12.6807ZM100.197 0.969881C100.667 0.969881 101.065 1.36747 101.065 1.83735C101.065 2.34337 100.667 2.70482 100.197 2.70482C99.7275 2.70482 99.3299 2.30723 99.3299 1.83735C99.3299 1.36747 99.7275 0.969881 100.197 0.969881ZM97.8842 9.57229C97.6311 9.57229 97.1251 9.31928 97.1251 8.92169C97.1251 8.5241 97.6311 8.27109 97.8842 8.27109H99.3661V3.57229H101.029V9.60843H97.8842V9.57229ZM95.0649 0.5H96.7637V8.1988H98.0649V9.53615H95.0649V0.5ZM91.595 6.5C91.595 5.23494 91.089 4.69277 90.2215 4.69277C89.2817 4.69277 88.7034 5.41566 88.7034 6.42771C88.7034 7.62048 89.2817 8.23494 90.6191 8.23494H91.595V6.5ZM86.0649 9.57229C85.8119 9.57229 85.3058 9.31928 85.3058 8.92169C85.3058 8.5241 85.8119 8.27109 86.0649 8.27109H87.0408C87.4745 8.27109 87.7637 8.34337 87.7637 8.34337C87.2938 7.98193 87.0408 7.40361 87.0408 6.5C87.0408 4.87349 88.1613 3.39157 90.3299 3.39157C92.3179 3.39157 93.2215 4.54819 93.2215 6.35542V9.60843H86.0649V9.57229ZM83.7155 10.4036C84.1853 10.4036 84.5829 10.7651 84.5829 11.2711C84.5829 11.7771 84.2215 12.1386 83.7155 12.1386C83.2094 12.1386 82.848 11.741 82.848 11.2711C82.848 10.8012 83.2094 10.4036 83.7155 10.4036ZM82.848 9.57229C80.9685 9.57229 80.4625 10.1867 80.4625 10.9819C80.4625 11.7048 81.1131 12.3554 82.5589 12.3554L82.4504 13.6928C79.9564 13.6928 78.7998 12.5723 78.7998 11.0904C78.7998 9.46386 79.9926 8.23494 82.9203 8.23494H83.7878C83.8239 7.90964 83.86 7.58434 83.86 7.25904C83.86 5.63253 83.2094 4.8012 81.3661 4.8012C80.8601 4.8012 80.354 4.83735 79.9203 4.90964V3.57229C80.4263 3.5 81.0046 3.46385 81.5468 3.46385C84.4022 3.46385 85.5227 4.72892 85.5227 7.18675C85.5227 7.51205 85.5227 7.83735 85.4866 8.23494H86.2817V9.57229H82.848ZM74.7516 0.969881C75.1854 0.969881 75.5829 1.33132 75.5829 1.8012C75.5829 2.23494 75.2215 2.63253 74.7516 2.63253C74.2817 2.63253 73.9203 2.23494 73.9203 1.8012C73.9564 1.36747 74.3179 0.969881 74.7516 0.969881ZM72.7275 0.969881C73.1974 0.969881 73.5588 1.33132 73.5588 1.8012C73.5588 2.27108 73.1974 2.63253 72.7275 2.63253C72.2215 2.63253 71.8962 2.23494 71.8962 1.8012C71.8962 1.36747 72.2576 0.969881 72.7275 0.969881ZM71.4625 9.57229C71.2094 9.57229 70.7034 9.31928 70.7034 8.92169C70.7034 8.5241 71.2094 8.27109 71.4625 8.27109H72.9805V3.57229H74.6432V9.60843H71.4625V9.57229ZM67.089 8.23494C68.6793 8.23494 69.1131 7.43976 69.1131 6.39157C69.1131 5.34338 68.6793 4.72892 67.8119 4.72892C66.4384 4.72892 65.3179 6.42771 65.0649 8.23494H67.089ZM61.8841 9.57229C61.6311 9.57229 61.1251 9.31928 61.1251 8.92169C61.1251 8.5241 61.6311 8.27109 61.8841 8.27109H63.4022V0.572288H65.0649V3.89759C65.0649 4.4759 65.0287 5.16265 64.9203 5.81325H64.9564C65.4986 4.25904 66.836 3.42771 68.1733 3.42771C69.9444 3.42771 70.848 4.51205 70.848 6.35542C70.848 7.11446 70.6673 7.76506 70.3058 8.30723H71.6793V9.64458H67.1613H66.9444H61.8841V9.57229ZM59.1372 4.90964C59.1372 4.90964 58.6673 4.69277 57.9444 4.69277C57.0046 4.69277 56.4263 5.41566 56.4263 6.42771C56.4263 7.58434 57.0046 8.23494 58.342 8.23494H59.1733V4.90964H59.1372ZM54.836 12.6084L54.9444 11.2349C54.9444 11.2349 55.9203 11.4518 56.9323 11.4518C58.2697 11.4518 59.1372 10.9458 59.1372 9.75301V9.57229H58.1251C55.6673 9.57229 54.7275 8.41566 54.7275 6.60843C54.7275 4.90964 55.7396 3.39157 58.089 3.39157C59.607 3.39157 60.7637 3.8253 60.7637 3.8253V8.23494H62.0649V9.57229H60.7637V9.60843C60.7637 11.3795 59.607 12.8253 56.7878 12.8253C55.848 12.7892 54.836 12.6084 54.836 12.6084ZM52.342 10.512C52.7757 10.512 53.1733 10.8735 53.1733 11.3434C53.1733 11.7771 52.8119 12.1747 52.342 12.1747C51.8721 12.1747 51.5107 11.7771 51.5107 11.3434C51.5107 10.8735 51.8721 10.512 52.342 10.512ZM50.3179 10.512C50.7516 10.512 51.1492 10.8735 51.1492 11.3434C51.1492 11.7771 50.7878 12.1747 50.3179 12.1747C49.848 12.1747 49.4866 11.7771 49.4866 11.3434C49.4866 10.8735 49.848 10.512 50.3179 10.512ZM49.8841 9.57229C49.6311 9.57229 49.1251 9.31928 49.1251 8.92169C49.1251 8.5241 49.6311 8.27109 49.8841 8.27109H51.3661V3.57229H53.0287V9.60843H49.8841V9.57229ZM48.5468 8.23494H50.101V9.57229H48.5468V8.23494ZM43.1974 12.6807L43.342 11.3434C43.6311 11.4518 43.9564 11.488 44.3902 11.488C45.2576 11.488 45.7637 11.0904 45.7637 9.68072V3.5H47.4263V8.1988H48.7275V9.53615H47.4263V9.57229C47.4263 11.1988 46.848 12.7892 44.2817 12.7892C43.8841 12.8253 43.5227 12.753 43.1974 12.6807ZM37.848 0.5H39.5107V9.53615H37.848V0.5ZM32.607 9.57229C32.354 9.57229 31.848 9.31928 31.848 8.92169C31.848 8.5241 32.354 8.27109 32.607 8.27109H34.1251V0.572288H35.7878V9.60843H32.607V9.57229ZM28.2697 8.23494C29.86 8.23494 30.2938 7.43976 30.2938 6.39157C30.2938 5.34338 29.86 4.72892 28.9926 4.72892C27.6191 4.72892 26.4986 6.42771 26.2456 8.23494H28.2697ZM23.0287 9.57229C22.7757 9.57229 22.2697 9.31928 22.2697 8.92169C22.2697 8.5241 22.7757 8.27109 23.0287 8.27109H24.5468V3.57229H26.2094V3.89759C26.2094 4.4759 26.1733 5.16265 26.0649 5.81325H26.101C26.6793 4.25904 27.9805 3.42771 29.3179 3.42771C31.089 3.42771 31.9926 4.51205 31.9926 6.35542C31.9926 7.11446 31.8119 7.76506 31.4504 8.30723H32.8239V9.64458H28.3058H28.089H23.0287V9.57229ZM21.0769 0.969881C21.5468 0.969881 21.9444 1.36747 21.9444 1.83735C21.9444 2.34337 21.5468 2.70482 21.0769 2.70482C20.607 2.70482 20.2094 2.30723 20.2094 1.83735C20.2094 1.36747 20.607 0.969881 21.0769 0.969881ZM17.9685 8.88554C17.9685 8.48795 18.4745 8.23494 18.7275 8.23494H20.2094V3.53614H21.9082V8.23494H23.2094V9.57229H18.7275C18.4745 9.57229 17.9685 9.28313 17.9685 8.88554ZM15.9444 0.5H17.607V8.1988H18.9082V9.53615H15.9082V0.5H15.9444ZM7.95643 9.57229C7.70342 9.57229 7.1974 9.31928 7.1974 8.92169C7.1974 8.5241 7.70342 8.27109 7.95643 8.27109H9.94438C9.36607 7.94578 8.96848 7.22289 8.96848 6.35542C8.96848 4.76506 10.0528 3.39157 12.2938 3.39157C13.1613 3.39157 13.8841 3.64458 13.8841 3.64458L13.595 4.98193C13.595 4.98193 13.0167 4.72892 12.2576 4.72892C11.3179 4.72892 10.6673 5.37952 10.6673 6.35542C10.6673 7.43976 11.5347 8.27109 13.5588 8.27109H14.5347V9.60843H7.95643V9.57229ZM5.02872 0.969881C5.46246 0.969881 5.86005 1.33132 5.86005 1.8012C5.86005 2.23494 5.4986 2.63253 5.02872 2.63253C4.55884 2.63253 4.1974 2.23494 4.1974 1.8012C4.1974 1.36747 4.55884 0.969881 5.02872 0.969881ZM5.20944 4.90964C5.20944 4.90964 4.73956 4.69277 4.01667 4.69277C3.07691 4.69277 2.4986 5.41566 2.4986 6.42771C2.4986 7.58434 3.07691 8.23494 4.41426 8.23494H5.20944V4.90964ZM3.00462 0.969881C3.4745 0.969881 3.83595 1.33132 3.83595 1.8012C3.83595 2.27108 3.4745 2.63253 3.00462 2.63253C2.4986 2.63253 2.1733 2.23494 2.1733 1.8012C2.1733 1.36747 2.53474 0.969881 3.00462 0.969881ZM4.1974 9.57229C1.73956 9.57229 0.799805 8.41566 0.799805 6.60843C0.799805 4.90964 1.848 3.39157 4.16125 3.39157C5.67932 3.39157 6.83595 3.8253 6.83595 3.8253V8.23494H8.13715V9.57229H4.1974Z" fill="#565D56"/>
<path d="M107.752 16.8374H109.414V25.8735H107.752V16.8374ZM102.547 25.8735C102.294 25.8735 101.788 25.6205 101.788 25.2229C101.788 24.8254 102.294 24.5723 102.547 24.5723H104.029V16.8374H105.727V25.8735H102.547ZM99.7998 21.247C99.7998 21.247 99.3299 21.0302 98.607 21.0302C97.6673 21.0302 97.0889 21.7531 97.0889 22.7651C97.0889 23.9217 97.6673 24.5723 99.0046 24.5723H99.8359V21.247H99.7998ZM95.5347 28.9458L95.6432 27.5723C95.6432 27.5723 96.6191 27.7892 97.6311 27.7892C98.9685 27.7892 99.8359 27.2832 99.8359 26.0904V25.8735H98.8239C96.3661 25.8735 95.4263 24.7169 95.4263 22.9097C95.4263 21.2109 96.4383 19.6928 98.7877 19.6928C100.306 19.6928 101.462 20.1266 101.462 20.1266V24.5362H102.764V25.8735H101.462V25.9097C101.462 27.6808 100.306 29.1266 97.4865 29.1266C96.5106 29.1266 95.5347 28.9458 95.5347 28.9458ZM90.4022 24.5723C91.9926 24.5723 92.4263 23.7772 92.4263 22.729C92.4263 21.6808 91.9926 21.0663 91.1251 21.0663C89.7516 21.0663 88.6311 22.7651 88.3781 24.5723H90.4022ZM85.1974 25.8735C84.9444 25.8735 84.4383 25.6205 84.4383 25.2229C84.4383 24.8254 84.9444 24.5723 85.1974 24.5723H86.7155V16.8374H88.4142V20.1627C88.4142 20.741 88.3781 21.4278 88.2697 22.0784H88.3058C88.8841 20.5241 90.1853 19.6928 91.5227 19.6928C93.2938 19.6928 94.1974 20.8133 94.1974 22.6205C94.1974 24.4639 93.1492 25.9097 90.2938 25.9097H85.1974V25.8735ZM83.2456 17.3073C83.7155 17.3073 84.113 17.7049 84.113 18.2109C84.113 18.6808 83.7155 19.0784 83.2456 19.0784C82.7757 19.0784 82.3781 18.6808 82.3781 18.2109C82.3781 17.7049 82.7757 17.3073 83.2456 17.3073ZM80.1371 25.2229C80.1371 24.8254 80.6432 24.5723 80.8962 24.5723H82.3781V19.8735H84.0407V24.5723H85.342V25.9097H80.86C80.6432 25.8735 80.1371 25.6205 80.1371 25.2229ZM79.9564 26.8133C80.3902 26.8133 80.7877 27.1748 80.7877 27.6446C80.7877 28.0784 80.4263 28.476 79.9564 28.476C79.4865 28.476 79.1251 28.0784 79.1251 27.6446C79.1251 27.2109 79.4865 26.8133 79.9564 26.8133ZM77.9323 26.8133C78.3661 26.8133 78.7636 27.1748 78.7636 27.6446C78.7636 28.0784 78.4022 28.476 77.9323 28.476C77.4624 28.476 77.101 28.0784 77.101 27.6446C77.101 27.2109 77.4624 26.8133 77.9323 26.8133ZM75.8359 25.2229C75.8359 24.8254 76.342 24.5723 76.595 24.5723H78.0769V19.8735H79.7757V24.5723H81.0769V25.9097H76.595C76.342 25.8735 75.8359 25.6205 75.8359 25.2229ZM73.7034 17.3073C74.1371 17.3073 74.5347 17.6687 74.5347 18.1386C74.5347 18.5723 74.1733 18.9699 73.7034 18.9699C73.2335 18.9699 72.8721 18.5723 72.8721 18.1386C72.8721 17.7049 73.2335 17.3073 73.7034 17.3073ZM73.8841 21.247C73.8841 21.247 73.4142 21.0302 72.6914 21.0302C71.7516 21.0302 71.1733 21.7531 71.1733 22.7651C71.1733 23.9217 71.7516 24.5723 73.0889 24.5723H73.9203V21.247H73.8841ZM71.6432 17.3073C72.113 17.3073 72.4745 17.6687 72.4745 18.1386C72.4745 18.6085 72.113 18.9699 71.6432 18.9699C71.1733 18.9699 70.8118 18.5723 70.8118 18.1386C70.8118 17.7049 71.2094 17.3073 71.6432 17.3073ZM72.8721 25.8735C70.4142 25.8735 69.4745 24.7169 69.4745 22.9097C69.4745 21.2109 70.5227 19.6928 72.8359 19.6928C74.354 19.6928 75.5106 20.1266 75.5106 20.1266V24.5362H76.8118V25.8735H72.8721ZM62.9685 21.247C62.9685 21.247 62.4986 21.0302 61.7757 21.0302C60.8359 21.0302 60.2576 21.7531 60.2576 22.7651C60.2576 23.9217 60.8359 24.5723 62.1733 24.5723H63.0046V21.247H62.9685ZM58.7034 28.9458L58.8118 27.5723C58.8118 27.5723 59.7877 27.7892 60.7998 27.7892C62.1371 27.7892 63.0046 27.2832 63.0046 26.0904V25.8735H61.9926C59.5347 25.8735 58.595 24.7169 58.595 22.9097C58.595 21.2109 59.6432 19.6928 61.9564 19.6928C63.4745 19.6928 64.6311 20.1266 64.6311 20.1266V25.9097C64.6311 27.6808 63.4745 29.1266 60.6552 29.1266C59.6793 29.1266 58.7034 28.9458 58.7034 28.9458ZM55.2335 16.8374H56.9323V25.8735H55.2335V16.8374ZM49.9926 25.8735C49.7395 25.8735 49.2335 25.6205 49.2335 25.2229C49.2335 24.8254 49.7395 24.5723 49.9926 24.5723H51.5106V16.8374H53.1733V25.8735H49.9926ZM45.8359 17.3073C46.3058 17.3073 46.7034 17.7049 46.7034 18.2109C46.7034 18.6808 46.3058 19.0784 45.8359 19.0784C45.3661 19.0784 44.9685 18.6808 44.9685 18.2109C44.9323 17.7049 45.3661 17.3073 45.8359 17.3073ZM42.5106 25.2229C42.5106 24.8254 43.0167 24.5723 43.2697 24.5723H47.7155C47.7516 24.247 47.7877 23.9217 47.7877 23.5964C47.7877 21.9699 47.1371 21.1386 45.2938 21.1386C44.7877 21.1386 44.3179 21.1748 43.8841 21.2832V19.9458C44.354 19.8735 44.9323 19.8013 45.4745 19.8013C48.3299 19.8013 49.4504 21.0663 49.4504 23.5241C49.4504 23.8495 49.4504 24.2109 49.4142 24.5723H50.2094V25.9097H43.3058C43.0167 25.8735 42.5106 25.6205 42.5106 25.2229ZM37.342 24.5723H41.101C41.0287 22.6567 40.1251 21.5001 38.101 20.994L38.4986 19.5844C41.101 20.2711 42.5829 21.7169 42.7275 24.5723H43.4504V25.9097H37.342V24.5723ZM34.3058 22.8374C34.3058 21.5362 33.7998 21.0302 32.9323 21.0302C31.9926 21.0302 31.4142 21.7531 31.4142 22.7651C31.4142 23.9579 31.9926 24.5723 33.3299 24.5723H34.3058V22.8374ZM28.8118 25.8735C28.5588 25.8735 28.0528 25.6205 28.0528 25.2229C28.0528 24.8254 28.5588 24.5723 28.8118 24.5723H29.7877C30.2215 24.5723 30.5106 24.6446 30.5106 24.6446C30.0407 24.2832 29.7877 23.7049 29.7877 22.8013C29.7877 21.1748 30.9082 19.6928 33.0769 19.6928C35.0648 19.6928 35.9685 20.8495 35.9685 22.6567V25.9097H28.8118V25.8735ZM27.4383 24.5723H28.9926V25.9097H27.4383V24.5723ZM26.101 24.5723H27.6191V25.9097H26.101V24.5723ZM24.7636 24.5723H26.3179V25.9097H24.7636V24.5723ZM23.4263 24.5723H24.9805V25.9097H23.4263V24.5723ZM22.0528 24.5723H23.607V25.9097H22.0528V24.5723ZM20.7154 24.5723H22.2697V25.9097H20.7154V24.5723ZM19.3781 24.5723H20.9323V25.9097H19.3781V24.5723ZM18.0046 24.5723H19.5588V25.9097H18.0046V24.5723ZM16.6673 24.5723H18.2215V25.9097H16.6673V24.5723ZM15.3299 24.5723H16.8841V25.9097H15.3299V24.5723ZM13.9564 24.5723H15.5106V25.9097H13.9564V24.5723ZM11.1733 16.8374H12.8721V24.5362H14.1733V25.8735H11.1733V16.8374ZM6.36605 17.3073C6.79978 17.3073 7.19737 17.6687 7.19737 18.1386C7.19737 18.5723 6.83593 18.9699 6.36605 18.9699C5.89617 18.9699 5.53472 18.5723 5.53472 18.1386C5.53472 17.7049 5.89617 17.3073 6.36605 17.3073ZM4.34195 17.3073C4.81183 17.3073 5.17327 17.6687 5.17327 18.1386C5.17327 18.6085 4.81183 18.9699 4.34195 18.9699C3.87207 18.9699 3.51062 18.5723 3.51062 18.1386C3.51062 17.7049 3.87207 17.3073 4.34195 17.3073ZM5.53472 25.8735C2.06484 25.8735 0.87207 24.4278 0.87207 22.0784C0.87207 21.3916 1.01665 20.5964 1.19737 20.0543L3.0046 19.7651C2.71544 20.3434 2.57087 21.2109 2.57087 21.8976C2.57087 23.7049 3.3299 24.5723 5.75159 24.5723H7.48653V19.8735H9.11303V25.8735H5.53472Z" fill="#565D56"/>
<path d="M107.752 33.1748H109.414V42.2109H107.752V33.1748ZM102.547 42.2109C102.294 42.2109 101.788 41.9579 101.788 41.5603C101.788 41.1628 102.294 40.9097 102.547 40.9097H104.065V33.2109H105.728V42.2471H102.547V42.2109ZM97.4865 41.5603C97.4865 41.1628 97.9926 40.9097 98.2456 40.9097H99.7275V33.5724H101.39V40.9097H102.691V42.2471H98.2094C97.9926 42.2109 97.4865 41.9579 97.4865 41.5603ZM95.4986 37.5844C95.4986 37.5844 95.0287 37.3676 94.3058 37.3676C93.3661 37.3676 92.7878 38.0905 92.7878 39.1025C92.7878 40.2591 93.3661 40.9097 94.7034 40.9097H95.5347V37.5844H95.4986ZM91.2335 45.2832L91.342 43.9097C91.342 43.9097 92.354 44.1266 93.3299 44.1266C94.6673 44.1266 95.5347 43.6206 95.5347 42.4278V42.2471H94.5227C92.0649 42.2471 91.1251 41.0905 91.1251 39.2832C91.1251 37.5844 92.1372 36.0664 94.4865 36.0664C96.0046 36.0664 97.1612 36.5001 97.1612 36.5001V40.9097H98.4625V42.2471H97.1612V42.2832C97.1612 44.0543 96.0046 45.5001 93.1853 45.5001C92.2094 45.464 91.2335 45.2832 91.2335 45.2832ZM86.101 43.0784C86.5709 43.0784 86.9685 43.4399 86.9685 43.9459C86.9685 44.4519 86.5709 44.8134 86.101 44.8134C85.595 44.8134 85.2335 44.4158 85.2335 43.9459C85.2335 43.4399 85.595 43.0784 86.101 43.0784ZM83.5709 42.2109C83.3179 42.2109 82.8118 41.9579 82.8118 41.5603C82.8118 41.1628 83.3179 40.9097 83.5709 40.9097H88.0167C88.0528 40.6206 88.089 40.2591 88.089 39.9338C88.089 38.3073 87.4384 37.476 85.595 37.476C85.089 37.476 84.6191 37.5121 84.1853 37.6206V36.2832C84.6552 36.1748 85.2335 36.1387 85.7757 36.1387C88.6311 36.1387 89.7516 37.4037 89.7516 39.8616C89.7516 40.5122 89.6793 41.3073 89.5347 42.2471H83.5709V42.2109ZM81.1853 41.5603C81.1853 41.1628 81.6914 40.9097 81.9444 40.9097H83.4263H82.4143H83.7155V42.2471H81.9082C81.6914 42.2109 81.1853 41.9579 81.1853 41.5603ZM76.2697 41.3435C76.0167 41.8856 75.3299 42.3194 74.354 42.3194C73.5227 42.3194 72.8359 41.9218 72.6552 41.3073C72.4022 41.8856 71.8962 42.2109 70.9564 42.2109H70.5227C70.2697 42.2109 69.7637 41.9579 69.7637 41.5603C69.7637 41.1628 70.2697 40.9097 70.5227 40.9097H70.9926C71.8239 40.9097 72.1492 40.5844 72.1492 39.3194V36.97H73.8118V39.3555C73.8118 40.5121 73.9564 41.0182 74.6793 41.0182C75.3299 41.0182 75.6914 40.6206 75.6914 39.3917V36.5001H77.3179V39.717C77.3179 40.729 77.6793 40.9459 78.8359 40.9459H79.1974C79.2335 40.4399 79.2697 39.7893 79.2697 39.3917C79.2697 38.0905 79.1251 36.9338 78.9082 35.9579L80.5347 35.7411C80.7878 36.7531 80.9323 38.0182 80.9323 39.2832C80.9323 39.7893 80.9323 40.3676 80.8962 40.9459H82.1974V42.2832H78.6914C77.3179 42.2109 76.6311 42.0302 76.2697 41.3435ZM69.5468 33.6447C69.9805 33.6447 70.3781 34.0061 70.3781 34.476C70.3781 34.9097 70.0167 35.3073 69.5468 35.3073C69.0769 35.3073 68.7155 34.9097 68.7155 34.476C68.7155 34.0423 69.113 33.6447 69.5468 33.6447ZM67.5227 33.6447C67.9926 33.6447 68.354 34.0061 68.354 34.476C68.354 34.9459 67.9926 35.3073 67.5227 35.3073C67.0528 35.3073 66.6914 34.9097 66.6914 34.476C66.6914 34.0423 67.0528 33.6447 67.5227 33.6447ZM66.1853 42.2109C65.9323 42.2109 65.4263 41.9579 65.4263 41.5603C65.4263 41.1628 65.9323 40.9097 66.1853 40.9097H67.7034V36.2109H69.3661V40.9097H70.6673V42.2471H66.1853V42.2109ZM65.2456 43.1507C65.6793 43.1507 66.0769 43.5122 66.0769 43.982C66.0769 44.4158 65.7155 44.8134 65.2456 44.8134C64.7757 44.8134 64.4143 44.4158 64.4143 43.982C64.4143 43.5122 64.7757 43.1507 65.2456 43.1507ZM63.2215 43.1507C63.6552 43.1507 64.0528 43.5122 64.0528 43.982C64.0528 44.4158 63.6914 44.8134 63.2215 44.8134C62.7516 44.8134 62.3902 44.4158 62.3902 43.982C62.3902 43.5122 62.7516 43.1507 63.2215 43.1507ZM61.1251 41.5603C61.1251 41.1628 61.6311 40.9097 61.8841 40.9097H63.4022V36.2109H65.0649V40.9097H66.3661V42.2471H61.8841C61.6311 42.2109 61.1251 41.9579 61.1251 41.5603ZM60.5468 40.8736H62.101V42.2109H60.5468V40.8736ZM59.2094 40.8736H60.7275V42.2109H59.2094V40.8736ZM57.8721 40.8736H59.4263V42.2109H57.8721V40.8736ZM56.4986 40.8736H58.0528V42.2109H56.4986V40.8736ZM52.4504 40.8736H56.6793V42.2109H52.4504V40.8736ZM51.113 40.8736H52.6311V42.2109H51.113V40.8736ZM49.7757 40.8736H51.3299V42.2109H49.7757V40.8736ZM48.4384 40.8736H49.9926V42.2109H48.4384V40.8736ZM47.0649 40.8736H48.6191V42.2109H47.0649V40.8736ZM45.7275 40.8736H47.2817V42.2109H45.7275V40.8736ZM44.3902 40.8736H45.9444V42.2109H44.3902V40.8736ZM43.0167 40.8736H44.5709V42.2109H43.0167V40.8736ZM41.6793 40.8736H43.2335V42.2109H41.6793V40.8736ZM40.342 40.8736H41.8962V42.2109H40.342V40.8736ZM39.0046 40.8736H40.5227V42.2109H39.0046V40.8736ZM37.6311 40.8736H39.1853V42.2109H37.6311V40.8736ZM36.2938 40.8736H37.848V42.2109H36.2938V40.8736ZM34.9564 40.8736H36.5106V42.2109H34.9564V40.8736ZM33.5829 40.8736H35.101V42.2109H33.5829V40.8736ZM32.2456 40.8736H33.7998V42.2109H32.2456V40.8736ZM30.9082 40.8736H32.4624V42.2109H30.9082V40.8736ZM29.5347 40.8736H31.089V42.2109H29.5347V40.8736ZM28.1974 40.8736H29.7155V42.2109H28.1974V40.8736ZM26.86 40.8736H28.4143V42.2109H26.86V40.8736ZM25.5227 40.8736H27.0769V42.2109H25.5227V40.8736ZM24.1492 40.8736H25.7034V42.2109H24.1492V40.8736ZM22.8118 40.8736H24.3661V42.2109H22.8118V40.8736ZM21.4745 40.8736H23.0287V42.2109H21.4745V40.8736ZM20.101 40.8736H21.6552V42.2109H20.101V40.8736ZM18.7636 40.8736H20.3179V42.2109H18.7636V40.8736ZM17.4263 40.8736H18.9805V42.2109H17.4263V40.8736ZM16.089 40.8736H17.6432V42.2109H16.089V40.8736ZM14.7155 40.8736H16.2697V42.2109H14.7155V40.8736ZM13.3781 40.8736H14.8962V42.2109H13.342V40.8736H13.3781ZM12.0408 40.8736H13.595V42.2109H12.0408V40.8736ZM10.6673 40.8736H12.1853V42.2109H10.6673V40.8736ZM9.32991 40.8736H10.8841V42.2109H9.32991V40.8736ZM7.99257 40.8736H9.54678V42.2109H7.99257V40.8736ZM5.06485 33.6447C5.49859 33.6447 5.89618 34.0061 5.89618 34.476C5.89618 34.9097 5.53473 35.3073 5.06485 35.3073C4.59497 35.3073 4.23353 34.9097 4.23353 34.476C4.23353 34.0423 4.59497 33.6447 5.06485 33.6447ZM5.24558 37.5844C5.24558 37.5844 4.7757 37.3676 4.05281 37.3676C3.11305 37.3676 2.53473 38.0905 2.53473 39.1025C2.53473 40.2591 3.11305 40.9097 4.45039 40.9097H5.28172V37.5844H5.24558ZM3.04076 33.6447C3.51064 33.6447 3.87208 34.0061 3.87208 34.476C3.87208 34.9459 3.51064 35.3073 3.04076 35.3073C2.57088 35.3073 2.20943 34.9097 2.20943 34.476C2.20943 34.0423 2.57088 33.6447 3.04076 33.6447ZM4.23353 42.2109C1.7757 42.2109 0.835938 41.0543 0.835938 39.2471C0.835938 37.5483 1.84799 36.0302 4.19738 36.0302C5.71546 36.0302 6.87208 36.464 6.87208 36.464V40.8736H8.17329V42.2109H4.23353Z" fill="#565D56"/>
</svg>
