<svg width="32" height="32" viewBox="0 0 32 32" fill="none" xmlns="http://www.w3.org/2000/svg">
<path d="M1.82467e-06 21.2237C2.88688e-06 27.1753 4.92487 32 11 32L11 21.7763C11 15.8247 6.07513 11 0 11L1.82467e-06 21.2237Z" fill="#14C0D8"/>
<path d="M21 10.2237C21 16.1753 25.9249 21 32 21L32 10.7763C32 4.82472 27.0751 -1.04061e-06 21 0L21 10.2237Z" fill="#D4088C"/>
<path d="M10.7763 0C4.82472 -2.65552e-07 2.60152e-07 4.92487 0 11H10.2237C16.1753 11 21 6.07513 21 4.56168e-07L10.7763 0Z" fill="#480689"/>
<path d="M21.7763 21C15.8247 21 11 25.9249 11 32H21.2237C27.1753 32 32 27.0751 32 21L21.7763 21Z" fill="#F27227"/>
</svg>
