<svg width="32" height="32" viewBox="0 0 32 32" fill="none" xmlns="http://www.w3.org/2000/svg">
<path d="M30.2895 0C22.9229 0 16.9502 5.97519 16.9502 13.3449V15.0128H18.6174C25.9841 15.0128 31.9567 9.03765 31.9567 1.6679V0H30.2895Z" fill="white"/>
<path d="M1.99411 0H0.326904V1.6679C0.326904 9.03765 6.29959 15.0128 13.6663 15.0128H15.3334V13.3449C15.3334 5.97519 9.36076 0 1.99411 0Z" fill="#14C0D8"/>
<path d="M0.0432129 30.3321V32H1.71041C9.07707 32 15.0498 26.0248 15.0498 18.6551V16.9872H13.3826C6.0159 16.9872 0.0432129 22.9624 0.0432129 30.3321Z" fill="#F27227"/>
<path d="M18.6174 16.9872H16.9502V18.6551C16.9502 26.0248 22.9229 32 30.2895 32H31.9567V30.3321C31.9567 22.9624 25.9841 16.9872 18.6174 16.9872Z" fill="#D4088C"/>
</svg>
