<svg width="32" height="32" viewBox="0 0 32 32" fill="none" xmlns="http://www.w3.org/2000/svg">
<path d="M16.0001 31.9999C13.899 31.9999 11.8184 31.586 9.87718 30.782C7.93598 29.9779 6.17215 28.7993 4.68641 27.3136C3.20068 25.8278 2.02212 24.064 1.21805 22.1228C0.413974 20.1816 0.000122095 18.101 0.00012207 15.9999L16.0001 15.9999V31.9999Z" fill="#14C0D8"/>
<path d="M32.0001 15.9999C29.899 15.9999 27.8184 16.4137 25.8772 17.2178C23.936 18.0219 22.1722 19.2004 20.6864 20.6862C19.2007 22.1719 18.0221 23.9357 17.218 25.8769C16.414 27.8182 16.0001 29.8987 16.0001 31.9999H32.0001L32.0001 15.9999Z" fill="#F27227"/>
<path d="M0.00012207 15.9999C2.10127 15.9999 4.18185 15.586 6.12306 14.782C8.06427 13.9779 9.82809 12.7993 11.3138 11.3136C12.7996 9.82785 13.9781 8.06402 14.7822 6.12281C15.5863 4.1816 16.0001 2.10103 16.0001 -0.00012207L0.000122261 -0.000121151L0.00012207 15.9999Z" fill="#480689"/>
<path d="M16.0001 -0.00012207C18.1013 -0.000121795 20.1818 0.413729 22.1231 1.2178C24.0643 2.02188 25.8281 3.20043 27.3138 4.68617C28.7996 6.17191 29.9781 7.93574 30.7822 9.87695C31.5863 11.8182 32.0001 13.8987 32.0001 15.9999L16.0001 15.9999L16.0001 -0.00012207Z" fill="#D4088C"/>
</svg>
