<svg width="213" height="159" viewBox="0 0 213 159" fill="none" xmlns="http://www.w3.org/2000/svg">
<g filter="url(#filter0_b_3461_6308)">
<rect width="213" height="159" rx="10" fill="#0A0114" fill-opacity="0.9"/>
<path d="M136.518 25.4307V32.0259C136.518 32.9272 136.243 33.6593 135.693 34.2222C135.092 34.84 134.301 35.1489 133.319 35.1489C132.477 35.1489 131.757 34.8358 131.161 34.2095C130.615 33.6466 130.342 32.9188 130.342 32.0259C130.342 31.7804 130.359 31.5477 130.393 31.3276C130.431 31.1076 130.498 30.8579 130.596 30.5786L131.732 30.8643C131.643 31.0928 131.586 31.2938 131.561 31.4673C131.531 31.6408 131.516 31.827 131.516 32.0259C131.516 32.6733 131.694 33.179 132.049 33.543C132.379 33.8857 132.803 34.0571 133.319 34.0571C133.861 34.0571 134.294 33.89 134.62 33.5557C134.976 33.1917 135.153 32.6818 135.153 32.0259V25.4307H136.518ZM142.047 28.2617C142.047 28.1432 141.95 28.0417 141.755 27.957C141.501 27.847 141.205 27.792 140.866 27.792H140.847C140.293 27.792 139.861 27.957 139.552 28.2871C139.205 28.651 139.032 29.1885 139.032 29.8994C139.032 30.5469 139.209 31.0526 139.565 31.4165C139.895 31.7593 140.363 31.9307 140.968 31.9307V31.937H142.047V28.2617ZM143.291 33.0225C143.215 33.3949 143.062 33.7715 142.834 34.1523C142.703 34.4062 142.521 34.6707 142.288 34.9458C142.076 35.1997 141.801 35.4832 141.463 35.7964L140.511 35.1235C140.845 34.8146 141.103 34.5522 141.285 34.3364C141.467 34.1164 141.609 33.9132 141.71 33.7271C141.85 33.4562 141.931 33.2214 141.952 33.0225H140.841C139.868 33.0225 139.083 32.7093 138.486 32.083C137.94 31.5202 137.667 30.7923 137.667 29.8994C137.667 28.9473 137.929 28.1898 138.454 27.627C139.034 27.0176 139.832 26.7108 140.847 26.7065H140.866C141.442 26.7065 141.958 26.8081 142.415 27.0112C143.079 27.299 143.412 27.7158 143.412 28.2617V31.9307H144.542V33.0225H143.291ZM147.785 25.5195C147.785 25.4222 147.804 25.3312 147.842 25.2466C147.88 25.1619 147.931 25.0879 147.995 25.0244C148.058 24.9609 148.132 24.9123 148.217 24.8784C148.301 24.8403 148.392 24.8213 148.49 24.8213C148.583 24.8213 148.67 24.8403 148.75 24.8784C148.835 24.9123 148.907 24.9609 148.966 25.0244C149.029 25.0879 149.078 25.1619 149.112 25.2466C149.15 25.3312 149.169 25.4222 149.169 25.5195C149.169 25.6169 149.15 25.7078 149.112 25.7925C149.078 25.8729 149.029 25.9448 148.966 26.0083C148.907 26.0675 148.835 26.1162 148.75 26.1543C148.67 26.1882 148.583 26.2051 148.49 26.2051C148.392 26.2051 148.301 26.1882 148.217 26.1543C148.132 26.1162 148.058 26.0675 147.995 26.0083C147.931 25.9448 147.88 25.8729 147.842 25.7925C147.804 25.7078 147.785 25.6169 147.785 25.5195ZM146.128 25.5195C146.128 25.4222 146.147 25.3312 146.186 25.2466C146.224 25.1619 146.274 25.0879 146.338 25.0244C146.401 24.9609 146.473 24.9123 146.554 24.8784C146.638 24.8403 146.727 24.8213 146.82 24.8213C146.913 24.8213 147.002 24.8403 147.087 24.8784C147.172 24.9123 147.246 24.9609 147.309 25.0244C147.373 25.0879 147.421 25.1619 147.455 25.2466C147.493 25.3312 147.512 25.4222 147.512 25.5195C147.512 25.6169 147.493 25.7078 147.455 25.7925C147.421 25.8729 147.373 25.9448 147.309 26.0083C147.246 26.0675 147.172 26.1162 147.087 26.1543C147.002 26.1882 146.913 26.2051 146.82 26.2051C146.727 26.2051 146.638 26.1882 146.554 26.1543C146.473 26.1162 146.401 26.0675 146.338 26.0083C146.274 25.9448 146.224 25.8729 146.186 25.7925C146.147 25.7078 146.128 25.6169 146.128 25.5195ZM149.601 29.8994C149.601 29.18 149.427 28.6405 149.08 28.2808C148.775 27.9549 148.342 27.792 147.779 27.792C147.224 27.792 146.795 27.9549 146.49 28.2808C146.139 28.6489 145.963 29.1885 145.963 29.8994C145.963 30.5469 146.141 31.0526 146.497 31.4165C146.827 31.7593 147.252 31.9307 147.772 31.9307C148.31 31.9307 148.742 31.7635 149.067 31.4292C149.423 31.0653 149.601 30.5553 149.601 29.8994ZM145.265 31.9307C144.821 31.4694 144.599 30.7923 144.599 29.8994C144.599 28.943 144.861 28.1855 145.386 27.627C145.97 27.0091 146.767 26.7002 147.779 26.7002C148.799 26.7002 149.598 27.007 150.178 27.6206C150.703 28.1792 150.965 28.9388 150.965 29.8994C150.965 30.8008 150.745 31.4779 150.305 31.9307H151.6V33.0225H143.97V31.9307H145.265ZM150.902 33.0225V31.9307L156.678 31.937C156.67 31.882 156.649 31.7 156.615 31.3911C156.479 30.1978 156.314 29.3704 156.12 28.9092C155.802 28.1644 155.269 27.792 154.52 27.792C154.249 27.792 154.008 27.8301 153.796 27.9062C153.589 27.9782 153.411 28.0861 153.263 28.23C153.179 28.3146 153.104 28.4077 153.041 28.5093C152.969 28.6151 152.897 28.7674 152.825 28.9663L151.499 28.6934C151.609 28.4056 151.716 28.1771 151.822 28.0078C151.932 27.8343 152.059 27.6799 152.203 27.5444C152.491 27.2651 152.834 27.0535 153.231 26.9097C153.625 26.77 154.055 26.7002 154.52 26.7002C155.828 26.7002 156.746 27.2038 157.275 28.2109C157.58 28.7949 157.812 29.8232 157.973 31.2959C158.007 31.5921 158.032 31.8037 158.049 31.9307H159.046V33.0225H150.902ZM161.845 25.4307V30.9087C161.845 31.4673 161.642 31.9497 161.236 32.356C160.792 32.8003 160.246 33.0225 159.598 33.0225H158.481V31.9307H159.598C159.81 31.9307 160 31.846 160.169 31.6768C160.377 31.4736 160.48 31.2176 160.48 30.9087V25.4307H161.845ZM164.359 25.4307V32.6035H162.994V25.4307H164.359Z" fill="white"/>
<rect x="173" y="20" width="20" height="20" rx="5" fill="#D4088C"/>
<path d="M179.62 25.9719C179.436 25.8998 179.226 25.943 179.084 26.0833L179.084 26.0839C178.943 26.2246 178.9 26.435 178.971 26.6194L181.732 33.6204L181.732 33.6211C181.808 33.8115 181.992 33.9367 182.197 33.9367H182.207L182.217 33.9359C182.391 33.9222 182.584 33.8223 182.664 33.6159L182.665 33.6147L183.51 31.394L185.995 33.8795L185.996 33.8801C186.118 34.0014 186.278 34.0622 186.438 34.0622C186.597 34.0622 186.757 34.0015 186.879 33.8795C187.123 33.6354 187.123 33.2396 186.879 32.9954L184.394 30.51L186.615 29.6649L186.615 29.6646C186.807 29.5909 186.935 29.4073 186.937 29.2011V29.1999C186.938 28.9936 186.812 28.8079 186.62 28.7321L179.621 25.9721L179.62 25.9719Z" fill="white"/>
<path d="M81.1019 73.1729H80.7689C80.375 73.1729 80.0009 73.1012 79.6464 72.958C79.6464 73.1299 79.6267 73.2892 79.5873 73.436C79.4405 74.0018 79.0341 74.4207 78.368 74.6929C77.8775 74.8934 77.2867 74.9954 76.5956 74.999C76.0298 74.999 75.5321 74.9417 75.1024 74.8271C74.3648 74.6338 73.7919 74.3079 73.3837 73.8496C72.979 73.4056 72.7767 72.8703 72.7767 72.2437C72.7767 71.993 72.7928 71.762 72.8251 71.5508C72.8537 71.3252 72.9128 71.0853 73.0023 70.8311L74.1249 71.0352C74.0497 71.2679 73.9996 71.4738 73.9745 71.6528C73.9458 71.839 73.9315 72.036 73.9315 72.2437C73.9315 72.6662 74.0622 73.0243 74.3236 73.3179C74.5886 73.6079 74.9699 73.821 75.4677 73.957C75.772 74.0358 76.1283 74.0752 76.5365 74.0752H76.5902C77.0951 74.0752 77.5087 74.0072 77.8309 73.8711C78.1747 73.735 78.3842 73.5273 78.4594 73.248C78.4808 73.1585 78.4916 73.0618 78.4916 72.958C78.4916 72.6286 78.3645 72.3815 78.1102 72.2168C77.9491 72.1165 77.6555 72.0163 77.2294 71.916L77.0682 71.8892L77.369 71.0029C77.7092 71.0531 78.0082 71.1247 78.266 71.2178C78.4916 71.2894 78.6831 71.37 78.8407 71.4595C78.9231 71.5024 79.0484 71.5687 79.2167 71.6582C79.8827 72.0521 80.4001 72.249 80.7689 72.249H81.1019V73.1729ZM76.4559 76.1646C76.4559 76.0822 76.472 76.0052 76.5043 75.9336C76.5365 75.862 76.5795 75.7993 76.6332 75.7456C76.6869 75.6919 76.7496 75.6489 76.8212 75.6167C76.8928 75.5881 76.9698 75.5737 77.0521 75.5737C77.1309 75.5737 77.2043 75.5881 77.2723 75.6167C77.344 75.6489 77.4048 75.6919 77.455 75.7456C77.5087 75.7993 77.5498 75.862 77.5785 75.9336C77.6107 76.0052 77.6268 76.0822 77.6268 76.1646C77.6268 76.2469 77.6107 76.3221 77.5785 76.3901C77.5498 76.4618 77.5087 76.5226 77.455 76.5728C77.4048 76.6265 77.344 76.6676 77.2723 76.6963C77.2043 76.7285 77.1309 76.7446 77.0521 76.7446C76.9698 76.7446 76.8928 76.7285 76.8212 76.6963C76.7496 76.6676 76.6869 76.6265 76.6332 76.5728C76.5795 76.5226 76.5365 76.4618 76.5043 76.3901C76.472 76.3221 76.4559 76.2469 76.4559 76.1646ZM75.0541 76.1646C75.0541 76.0822 75.0702 76.0052 75.1024 75.9336C75.1346 75.862 75.1776 75.7993 75.2313 75.7456C75.285 75.6919 75.3459 75.6489 75.4139 75.6167C75.4856 75.5881 75.5608 75.5737 75.6395 75.5737C75.7183 75.5737 75.7935 75.5881 75.8651 75.6167C75.9367 75.6489 75.9994 75.6919 76.0531 75.7456C76.1068 75.7993 76.148 75.862 76.1766 75.9336C76.2089 76.0052 76.225 76.0822 76.225 76.1646C76.225 76.2469 76.2089 76.3221 76.1766 76.3901C76.148 76.4618 76.1068 76.5226 76.0531 76.5728C75.9994 76.6265 75.9367 76.6676 75.8651 76.6963C75.7935 76.7285 75.7183 76.7446 75.6395 76.7446C75.5608 76.7446 75.4856 76.7285 75.4139 76.6963C75.3459 76.6676 75.285 76.6265 75.2313 76.5728C75.1776 76.5226 75.1346 76.4618 75.1024 76.3901C75.0702 76.3221 75.0541 76.2469 75.0541 76.1646ZM81.6659 67.5439C81.6659 67.4616 81.682 67.3846 81.7142 67.313C81.7465 67.2414 81.7894 67.1787 81.8431 67.125C81.8969 67.0713 81.9577 67.0301 82.0258 67.0015C82.0974 66.9692 82.1726 66.9531 82.2513 66.9531C82.3301 66.9531 82.4053 66.9692 82.4769 67.0015C82.5485 67.0301 82.6112 67.0713 82.6649 67.125C82.7186 67.1787 82.7598 67.2414 82.7885 67.313C82.8207 67.3846 82.8368 67.4616 82.8368 67.5439C82.8368 67.6263 82.8207 67.7033 82.7885 67.7749C82.7598 67.8429 82.7186 67.9038 82.6649 67.9575C82.6112 68.0076 82.5485 68.0488 82.4769 68.0811C82.4053 68.1097 82.3301 68.124 82.2513 68.124C82.1726 68.124 82.0974 68.1097 82.0258 68.0811C81.9577 68.0488 81.8969 68.0076 81.8431 67.9575C81.7894 67.9038 81.7465 67.8429 81.7142 67.7749C81.682 67.7033 81.6659 67.6263 81.6659 67.5439ZM84.2225 68.79V71.3843C84.2225 71.8569 84.0507 72.2651 83.7069 72.6089C83.3309 72.9849 82.869 73.1729 82.3212 73.1729H80.5165V72.249H82.3212C82.5002 72.249 82.6613 72.1774 82.8046 72.0342C82.98 71.8623 83.0677 71.6457 83.0677 71.3843V68.79H84.2225ZM87.4935 74.9507C87.7764 74.6893 87.9948 74.4673 88.1488 74.2847C88.3028 74.0985 88.4227 73.9266 88.5087 73.769C88.6268 73.5399 88.6949 73.3411 88.7128 73.1729H87.7728C86.9493 73.1729 86.285 72.9079 85.7802 72.3779C85.3182 71.9017 85.0873 71.2858 85.0873 70.5303C85.0873 69.7246 85.3093 69.0837 85.7533 68.6074C86.2439 68.0918 86.9188 67.8322 87.7782 67.8286H87.7943C88.2813 67.8286 88.7181 67.9146 89.1049 68.0864C89.667 68.3299 89.9481 68.6826 89.9481 69.1445V72.292C89.9481 72.9759 89.7852 73.5882 89.4594 74.1289C89.3483 74.3438 89.1944 74.5675 88.9974 74.8003C88.8184 75.0151 88.5857 75.255 88.2992 75.52L87.4935 74.9507ZM88.7933 69.1445C88.7933 69.0443 88.711 68.9583 88.5463 68.8867C88.3314 68.7936 88.0808 68.7471 87.7943 68.7471H87.7782C87.3091 68.7471 86.9439 68.8867 86.6825 69.166C86.3889 69.474 86.2421 69.9287 86.2421 70.5303C86.2421 71.0781 86.3925 71.506 86.6932 71.814C86.9725 72.104 87.3682 72.249 87.8802 72.249V72.2544H88.7933V69.1445ZM93.6542 73.1729C93.2424 73.1585 92.9255 73.0869 92.7035 72.958C92.6319 73.3376 92.4904 73.7261 92.2792 74.1235C92.1646 74.342 92.0088 74.5675 91.8119 74.8003C91.6329 75.0151 91.4001 75.255 91.1136 75.52L90.308 74.9507C90.5909 74.6893 90.8093 74.4673 90.9633 74.2847C91.1172 74.0985 91.2372 73.9248 91.3231 73.7637C91.5201 73.402 91.6185 72.992 91.6185 72.5337C91.6185 72.4585 91.6149 72.3797 91.6078 72.2974V68.79H92.7626V71.2339C92.7841 71.5454 92.8825 71.7925 93.058 71.9751C93.237 72.1577 93.4644 72.249 93.7401 72.249H94.202V73.1729H93.6542ZM95.8295 67.4634C95.8295 67.381 95.8456 67.304 95.8778 67.2324C95.91 67.1608 95.953 67.0981 96.0067 67.0444C96.0604 66.9907 96.1231 66.9495 96.1947 66.9209C96.2663 66.8887 96.3433 66.8726 96.4257 66.8726C96.5044 66.8726 96.5778 66.8887 96.6459 66.9209C96.7175 66.9495 96.7784 66.9907 96.8285 67.0444C96.8822 67.0981 96.9234 67.1608 96.952 67.2324C96.9843 67.304 97.0004 67.381 97.0004 67.4634C97.0004 67.5457 96.9843 67.6227 96.952 67.6943C96.9234 67.7624 96.8822 67.8232 96.8285 67.877C96.7784 67.9271 96.7175 67.9683 96.6459 68.0005C96.5778 68.0291 96.5044 68.0435 96.4257 68.0435C96.3433 68.0435 96.2663 68.0291 96.1947 68.0005C96.1231 67.9683 96.0604 67.9271 96.0067 67.877C95.953 67.8232 95.91 67.7624 95.8778 67.6943C95.8456 67.6227 95.8295 67.5457 95.8295 67.4634ZM94.4276 67.4634C94.4276 67.381 94.4437 67.304 94.476 67.2324C94.5082 67.1608 94.5511 67.0981 94.6049 67.0444C94.6586 66.9907 94.7194 66.9495 94.7875 66.9209C94.8591 66.8887 94.9343 66.8726 95.0131 66.8726C95.0918 66.8726 95.167 66.8887 95.2386 66.9209C95.3103 66.9495 95.3729 66.9907 95.4266 67.0444C95.4803 67.0981 95.5215 67.1608 95.5502 67.2324C95.5824 67.304 95.5985 67.381 95.5985 67.4634C95.5985 67.5457 95.5824 67.6227 95.5502 67.6943C95.5215 67.7624 95.4803 67.8232 95.4266 67.877C95.3729 67.9271 95.3103 67.9683 95.2386 68.0005C95.167 68.0291 95.0918 68.0435 95.0131 68.0435C94.9343 68.0435 94.8591 68.0291 94.7875 68.0005C94.7194 67.9683 94.6586 67.9271 94.6049 67.877C94.5511 67.8232 94.5082 67.7624 94.476 67.6943C94.4437 67.6227 94.4276 67.5457 94.4276 67.4634ZM93.7186 73.1729V72.249H94.1644C94.4545 72.249 94.6872 72.1595 94.8627 71.9805C95.0632 71.7728 95.1635 71.4756 95.1635 71.0889V68.79H96.3236V71.2017C96.3415 71.5311 96.44 71.7889 96.619 71.9751C96.7981 72.1577 97.0254 72.249 97.3011 72.249H97.7684V73.1729H97.3011C96.6459 73.1729 96.1267 72.9741 95.7435 72.5767C95.3568 72.9741 94.8304 73.1729 94.1644 73.1729H93.7186ZM97.1776 73.1729V72.249H104.557V71.2822C104.557 70.96 104.439 70.7165 104.203 70.5518C103.938 70.3691 103.544 70.2778 103.021 70.2778H98.1176L98.1122 69.8213V69.3003C98.1408 68.3514 98.6726 67.6764 99.7074 67.2754C100.284 67.0498 101.235 66.8797 102.559 66.7651C103.011 66.7257 103.351 66.6864 103.58 66.647L103.838 67.5439C103.566 67.5905 103.182 67.6353 102.688 67.6782C101.632 67.7749 100.878 67.9002 100.427 68.0542C99.6716 68.3156 99.2849 68.7345 99.267 69.311V69.354H103.021C103.827 69.354 104.473 69.5241 104.96 69.8643C105.462 70.2116 105.712 70.6842 105.712 71.2822L105.707 72.249H106.566V73.1729H97.1776ZM108.93 66.749V71.3843C108.93 71.8569 108.758 72.2651 108.414 72.6089C108.038 72.9849 107.576 73.1729 107.028 73.1729H106.083V72.249H107.028C107.207 72.249 107.368 72.1774 107.512 72.0342C107.687 71.8623 107.775 71.6457 107.775 71.3843V66.749H108.93ZM111.352 72.249H113.022C113.223 72.249 113.397 72.1667 113.543 72.002C113.694 71.8301 113.769 71.6242 113.769 71.3843V66.749H114.924V71.3843C114.924 71.8784 114.738 72.3009 114.365 72.6519C113.993 72.9992 113.545 73.1729 113.022 73.1729H109.553V72.249C109.807 72.249 110.006 72.1774 110.149 72.0342C110.321 71.8623 110.407 71.6457 110.407 71.3843V66.749H111.567V71.3843C111.567 71.7746 111.495 72.0628 111.352 72.249ZM110.149 74.6768C110.088 74.5765 110.052 74.4691 110.041 74.3545V74.3008C110.041 74.2256 110.054 74.1522 110.079 74.0806C110.165 73.8407 110.356 73.7207 110.654 73.7207C110.84 73.7207 110.996 73.769 111.121 73.8657C111.232 73.9552 111.304 74.077 111.336 74.231L110.895 74.2847C110.877 74.1987 110.845 74.1361 110.799 74.0967C110.763 74.0716 110.715 74.0591 110.654 74.0591C110.586 74.0591 110.537 74.0949 110.509 74.1665C110.494 74.2023 110.487 74.2417 110.487 74.2847C110.487 74.299 110.489 74.3151 110.493 74.333C110.496 74.3975 110.512 74.4565 110.541 74.5103C110.591 74.6034 110.652 74.6589 110.724 74.6768H111.422V75.0098H109.896V74.6768H110.149ZM116.943 66.749V72.8184H115.788V66.749H116.943ZM121.589 73.1729C121.235 73.1729 120.912 73.1102 120.622 72.9849L120.246 72.8237L120.687 71.8193C120.88 72.002 121.043 72.1219 121.176 72.1792C121.29 72.2257 121.428 72.249 121.589 72.249L123.303 72.2544C123.295 72.2043 123.278 72.0503 123.249 71.7925C123.134 70.7827 122.995 70.0827 122.83 69.6924C122.561 69.0622 122.074 68.7471 121.369 68.7471V67.8232C122.547 67.8232 123.36 68.2493 123.807 69.1016C124.065 69.5957 124.262 70.4658 124.398 71.7119C124.427 71.9626 124.448 72.1416 124.463 72.249H125.413V73.1729H121.589ZM126.955 74.5532C126.955 74.4709 126.971 74.3939 127.003 74.3223C127.036 74.2507 127.078 74.188 127.132 74.1343C127.186 74.0806 127.249 74.0376 127.32 74.0054C127.392 73.9767 127.469 73.9624 127.551 73.9624C127.63 73.9624 127.703 73.9767 127.771 74.0054C127.843 74.0376 127.904 74.0806 127.954 74.1343C128.008 74.188 128.049 74.2507 128.078 74.3223C128.11 74.3939 128.126 74.4709 128.126 74.5532C128.126 74.6356 128.11 74.7108 128.078 74.7788C128.049 74.8504 128.008 74.9113 127.954 74.9614C127.904 75.0151 127.843 75.0563 127.771 75.085C127.703 75.1172 127.63 75.1333 127.551 75.1333C127.469 75.1333 127.392 75.1172 127.32 75.085C127.249 75.0563 127.186 75.0151 127.132 74.9614C127.078 74.9113 127.036 74.8504 127.003 74.7788C126.971 74.7108 126.955 74.6356 126.955 74.5532ZM125.553 74.5532C125.553 74.4709 125.569 74.3939 125.601 74.3223C125.634 74.2507 125.677 74.188 125.73 74.1343C125.784 74.0806 125.845 74.0376 125.913 74.0054C125.985 73.9767 126.06 73.9624 126.139 73.9624C126.217 73.9624 126.293 73.9767 126.364 74.0054C126.436 74.0376 126.498 74.0806 126.552 74.1343C126.606 74.188 126.647 74.2507 126.676 74.3223C126.708 74.3939 126.724 74.4709 126.724 74.5532C126.724 74.6356 126.708 74.7108 126.676 74.7788C126.647 74.8504 126.606 74.9113 126.552 74.9614C126.498 75.0151 126.436 75.0563 126.364 75.085C126.293 75.1172 126.217 75.1333 126.139 75.1333C126.06 75.1333 125.985 75.1172 125.913 75.085C125.845 75.0563 125.784 75.0151 125.73 74.9614C125.677 74.9113 125.634 74.8504 125.601 74.7788C125.569 74.7108 125.553 74.6356 125.553 74.5532ZM128.641 68.79V71.3843C128.641 71.8569 128.47 72.2651 128.126 72.6089C127.75 72.9849 127.288 73.1729 126.74 73.1729H124.935V72.249H126.74C126.919 72.249 127.08 72.1774 127.224 72.0342C127.399 71.8623 127.487 71.6457 127.487 71.3843V68.79H128.641ZM132.24 73.1729C131.828 73.1585 131.511 73.0869 131.289 72.958C131.218 73.3376 131.076 73.7261 130.865 74.1235C130.751 74.342 130.595 74.5675 130.398 74.8003C130.219 75.0151 129.986 75.255 129.7 75.52L128.894 74.9507C129.177 74.6893 129.395 74.4673 129.549 74.2847C129.703 74.0985 129.823 73.9248 129.909 73.7637C130.106 73.402 130.204 72.992 130.204 72.5337C130.204 72.4585 130.201 72.3797 130.194 72.2974V68.79H131.349V71.2339C131.37 71.5454 131.468 71.7925 131.644 71.9751C131.823 72.1577 132.05 72.249 132.326 72.249H132.788V73.1729H132.24ZM133.749 74.5854C133.749 74.5031 133.766 74.4261 133.798 74.3545C133.83 74.2829 133.873 74.2202 133.927 74.1665C133.98 74.1128 134.041 74.0698 134.109 74.0376C134.181 74.009 134.256 73.9946 134.335 73.9946C134.414 73.9946 134.489 74.009 134.56 74.0376C134.632 74.0698 134.695 74.1128 134.748 74.1665C134.802 74.2202 134.843 74.2829 134.872 74.3545C134.904 74.4261 134.92 74.5031 134.92 74.5854C134.92 74.6678 134.904 74.743 134.872 74.811C134.843 74.8826 134.802 74.9435 134.748 74.9937C134.695 75.0474 134.632 75.0885 134.56 75.1172C134.489 75.1494 134.414 75.1655 134.335 75.1655C134.256 75.1655 134.181 75.1494 134.109 75.1172C134.041 75.0885 133.98 75.0474 133.927 74.9937C133.873 74.9435 133.83 74.8826 133.798 74.811C133.766 74.743 133.749 74.6678 133.749 74.5854ZM132.305 73.1729V72.249H132.75C133.04 72.249 133.273 72.1595 133.449 71.9805C133.649 71.7728 133.749 71.4756 133.749 71.0889V68.79H134.91V71.2017C134.927 71.5311 135.026 71.7889 135.205 71.9751C135.384 72.1577 135.611 72.249 135.887 72.249H136.354V73.1729H135.887C135.232 73.1729 134.713 72.9741 134.329 72.5767C133.943 72.9741 133.416 73.1729 132.75 73.1729H132.305ZM138.61 66.749V71.3843C138.61 71.8569 138.438 72.2651 138.095 72.6089C137.719 72.9849 137.257 73.1729 136.709 73.1729H135.764V72.249H136.709C136.888 72.249 137.049 72.1774 137.192 72.0342C137.368 71.8623 137.455 71.6457 137.455 71.3843V66.749H138.61ZM140.737 66.749V72.8184H139.582V66.749H140.737ZM145.641 70.6914C145.559 70.917 145.505 71.1193 145.48 71.2983C145.448 71.481 145.432 71.6743 145.432 71.8784C145.432 72.5659 145.621 73.1048 146.001 73.4951C146.366 73.8711 146.833 74.0591 147.403 74.0591C147.99 74.0591 148.464 73.8747 148.826 73.5059C149.206 73.1156 149.395 72.5731 149.395 71.8784V68.79H150.55V71.8784C150.55 72.7808 150.278 73.513 149.734 74.0752C149.143 74.6803 148.366 74.9829 147.403 74.9829C146.558 74.9829 145.84 74.675 145.249 74.0591C144.708 73.5005 144.438 72.7736 144.438 71.8784C144.438 71.6349 144.456 71.4022 144.492 71.1802C144.527 70.9582 144.595 70.7147 144.696 70.4497L145.641 70.6914ZM147.064 67.9468C147.064 67.8644 147.08 67.7874 147.113 67.7158C147.145 67.6442 147.188 67.5815 147.242 67.5278C147.295 67.4741 147.356 67.4329 147.424 67.4043C147.496 67.3721 147.571 67.356 147.65 67.356C147.729 67.356 147.804 67.3721 147.875 67.4043C147.947 67.4329 148.01 67.4741 148.063 67.5278C148.117 67.5815 148.158 67.6442 148.187 67.7158C148.219 67.7874 148.235 67.8644 148.235 67.9468C148.235 68.0291 148.219 68.1061 148.187 68.1777C148.158 68.2458 148.117 68.3066 148.063 68.3604C148.01 68.4105 147.947 68.4517 147.875 68.4839C147.804 68.5125 147.729 68.5269 147.65 68.5269C147.571 68.5269 147.496 68.5125 147.424 68.4839C147.356 68.4517 147.295 68.4105 147.242 68.3604C147.188 68.3066 147.145 68.2458 147.113 68.1777C147.08 68.1061 147.064 68.0291 147.064 67.9468ZM152.672 66.749V72.8184H151.517V66.749H152.672ZM157.35 69.1445C157.35 69.0443 157.268 68.9583 157.103 68.8867C156.888 68.7936 156.637 68.7471 156.351 68.7471H156.335C155.866 68.7471 155.501 68.8867 155.239 69.166C154.946 69.474 154.799 69.9287 154.799 70.5303C154.799 71.0781 154.949 71.506 155.25 71.814C155.529 72.104 155.925 72.249 156.437 72.249V72.2544H157.35V69.1445ZM158.403 73.1729C158.338 73.488 158.209 73.8066 158.016 74.1289C157.905 74.3438 157.751 74.5675 157.554 74.8003C157.375 75.0151 157.142 75.255 156.856 75.52L156.05 74.9507C156.333 74.6893 156.551 74.4673 156.705 74.2847C156.859 74.0985 156.979 73.9266 157.065 73.769C157.183 73.5399 157.252 73.3411 157.269 73.1729H156.329C155.506 73.1729 154.842 72.9079 154.337 72.3779C153.875 71.9017 153.644 71.2858 153.644 70.5303C153.644 69.7246 153.866 69.0837 154.31 68.6074C154.8 68.0918 155.475 67.8322 156.335 67.8286H156.351C156.838 67.8286 157.275 67.9146 157.661 68.0864C158.224 68.3299 158.505 68.6826 158.505 69.1445V72.249H159.461V73.1729H158.403ZM160.352 67.5547C160.352 67.4723 160.369 67.3953 160.401 67.3237C160.433 67.2521 160.476 67.1895 160.53 67.1357C160.583 67.082 160.644 67.0409 160.712 67.0122C160.784 66.98 160.859 66.9639 160.938 66.9639C161.017 66.9639 161.092 66.98 161.163 67.0122C161.235 67.0409 161.298 67.082 161.351 67.1357C161.405 67.1895 161.446 67.2521 161.475 67.3237C161.507 67.3953 161.523 67.4723 161.523 67.5547C161.523 67.637 161.507 67.714 161.475 67.7856C161.446 67.8537 161.405 67.9146 161.351 67.9683C161.298 68.0184 161.235 68.0596 161.163 68.0918C161.092 68.1204 161.017 68.1348 160.938 68.1348C160.859 68.1348 160.784 68.1204 160.712 68.0918C160.644 68.0596 160.583 68.0184 160.53 67.9683C160.476 67.9146 160.433 67.8537 160.401 67.7856C160.369 67.714 160.352 67.637 160.352 67.5547ZM158.977 73.1729V72.249H159.423C159.713 72.249 159.946 72.1595 160.121 71.9805C160.322 71.7728 160.422 71.4756 160.422 71.0889V68.79H161.582V71.2017C161.6 71.5311 161.699 71.7889 161.878 71.9751C162.057 72.1577 162.284 72.249 162.56 72.249H163.027V73.1729H162.56C161.905 73.1729 161.385 72.9741 161.002 72.5767C160.616 72.9741 160.089 73.1729 159.423 73.1729H158.977ZM163.57 72.249C163.194 71.8587 163.006 71.2858 163.006 70.5303C163.006 69.721 163.228 69.0801 163.672 68.6074C164.166 68.0846 164.841 67.8232 165.697 67.8232C166.091 67.8232 166.456 67.8823 166.792 68.0005C167.129 68.1222 167.417 68.3013 167.657 68.5376C167.779 68.6522 167.886 68.7829 167.979 68.9297C168.072 69.0729 168.164 69.2663 168.253 69.5098L167.131 69.7407C167.07 69.5724 167.011 69.4435 166.953 69.354C166.9 69.2681 166.835 69.1893 166.76 69.1177C166.635 68.9959 166.484 68.9046 166.309 68.8438C166.134 68.7793 165.929 68.7471 165.697 68.7471C165.228 68.7471 164.864 68.8849 164.606 69.1606C164.309 69.4722 164.161 69.9287 164.161 70.5303C164.161 71.0781 164.311 71.506 164.612 71.814C164.891 72.104 165.251 72.249 165.691 72.249H168.479V73.1729H162.436V72.249H163.57Z" fill="white" fill-opacity="0.8"/>
<rect x="177.016" y="61.5081" width="15.984" height="15.984" rx="4.44" fill="white"/>
<path d="M188.116 67.3633L183.842 71.6368L181.9 69.6943" stroke="#D4088C" stroke-width="1.332" stroke-linecap="round" stroke-linejoin="round"/>
<path d="M102.919 99.1445C102.919 99.0443 102.837 98.9583 102.672 98.8867C102.457 98.7936 102.207 98.7471 101.92 98.7471H101.904C101.435 98.7471 101.07 98.8867 100.808 99.166C100.515 99.474 100.368 99.9287 100.368 100.53C100.368 101.078 100.518 101.506 100.819 101.814C101.099 102.104 101.494 102.249 102.006 102.249V102.254H102.919V99.1445ZM103.934 103.173C103.838 103.506 103.562 103.873 103.107 104.274C102.592 104.732 101.809 104.969 100.76 104.983C99.7898 104.983 98.9626 104.686 98.2787 104.091C97.627 103.526 97.3011 102.752 97.3011 101.771H98.2948C98.2948 102.516 98.5186 103.082 98.9662 103.468C99.4209 103.862 100.019 104.059 100.76 104.059C101.523 104.059 102.13 103.866 102.581 103.479C102.753 103.339 102.841 103.237 102.844 103.173H101.899C101.075 103.173 100.411 102.908 99.9061 102.378C99.4442 101.902 99.2133 101.286 99.2133 100.53C99.2133 99.7246 99.4353 99.0837 99.8793 98.6074C100.37 98.0918 101.045 97.8322 101.904 97.8286H101.92C102.407 97.8286 102.844 97.9146 103.231 98.0864C103.793 98.3299 104.074 98.6826 104.074 99.1445V102.249H104.869V103.173H103.934ZM101.791 96.7329C101.791 96.6506 101.807 96.5736 101.84 96.502C101.872 96.4303 101.915 96.3677 101.969 96.314C102.022 96.2603 102.085 96.2191 102.157 96.1904C102.228 96.1582 102.305 96.1421 102.388 96.1421C102.466 96.1421 102.54 96.1582 102.608 96.1904C102.679 96.2191 102.74 96.2603 102.79 96.314C102.844 96.3677 102.885 96.4303 102.914 96.502C102.946 96.5736 102.962 96.6506 102.962 96.7329C102.962 96.8153 102.946 96.8923 102.914 96.9639C102.885 97.0319 102.844 97.0928 102.79 97.1465C102.74 97.1966 102.679 97.2378 102.608 97.27C102.54 97.2987 102.466 97.313 102.388 97.313C102.305 97.313 102.228 97.2987 102.157 97.27C102.085 97.2378 102.022 97.1966 101.969 97.1465C101.915 97.0928 101.872 97.0319 101.84 96.9639C101.807 96.8923 101.791 96.8153 101.791 96.7329ZM100.39 96.7329C100.39 96.6506 100.406 96.5736 100.438 96.502C100.47 96.4303 100.513 96.3677 100.567 96.314C100.62 96.2603 100.681 96.2191 100.749 96.1904C100.821 96.1582 100.896 96.1421 100.975 96.1421C101.054 96.1421 101.129 96.1582 101.201 96.1904C101.272 96.2191 101.335 96.2603 101.389 96.314C101.442 96.3677 101.483 96.4303 101.512 96.502C101.544 96.5736 101.56 96.6506 101.56 96.7329C101.56 96.8153 101.544 96.8923 101.512 96.9639C101.483 97.0319 101.442 97.0928 101.389 97.1465C101.335 97.1966 101.272 97.2378 101.201 97.27C101.129 97.2987 101.054 97.313 100.975 97.313C100.896 97.313 100.821 97.2987 100.749 97.27C100.681 97.2378 100.62 97.1966 100.567 97.1465C100.513 97.0928 100.47 97.0319 100.438 96.9639C100.406 96.8923 100.39 96.8153 100.39 96.7329ZM106.405 104.553C106.405 104.471 106.421 104.394 106.453 104.322C106.486 104.251 106.529 104.188 106.582 104.134C106.636 104.081 106.699 104.038 106.77 104.005C106.842 103.977 106.919 103.962 107.001 103.962C107.08 103.962 107.154 103.977 107.222 104.005C107.293 104.038 107.354 104.081 107.404 104.134C107.458 104.188 107.499 104.251 107.528 104.322C107.56 104.394 107.576 104.471 107.576 104.553C107.576 104.636 107.56 104.711 107.528 104.779C107.499 104.85 107.458 104.911 107.404 104.961C107.354 105.015 107.293 105.056 107.222 105.085C107.154 105.117 107.08 105.133 107.001 105.133C106.919 105.133 106.842 105.117 106.77 105.085C106.699 105.056 106.636 105.015 106.582 104.961C106.529 104.911 106.486 104.85 106.453 104.779C106.421 104.711 106.405 104.636 106.405 104.553ZM105.003 104.553C105.003 104.471 105.019 104.394 105.052 104.322C105.084 104.251 105.127 104.188 105.181 104.134C105.234 104.081 105.295 104.038 105.363 104.005C105.435 103.977 105.51 103.962 105.589 103.962C105.668 103.962 105.743 103.977 105.814 104.005C105.886 104.038 105.949 104.081 106.002 104.134C106.056 104.188 106.097 104.251 106.126 104.322C106.158 104.394 106.174 104.471 106.174 104.553C106.174 104.636 106.158 104.711 106.126 104.779C106.097 104.85 106.056 104.911 106.002 104.961C105.949 105.015 105.886 105.056 105.814 105.085C105.743 105.117 105.668 105.133 105.589 105.133C105.51 105.133 105.435 105.117 105.363 105.085C105.295 105.056 105.234 105.015 105.181 104.961C105.127 104.911 105.084 104.85 105.052 104.779C105.019 104.711 105.003 104.636 105.003 104.553ZM108.092 98.79V101.384C108.092 101.857 107.92 102.265 107.576 102.609C107.2 102.985 106.738 103.173 106.19 103.173H104.386V102.249H106.19C106.369 102.249 106.53 102.177 106.674 102.034C106.849 101.862 106.937 101.646 106.937 101.384V98.79H108.092ZM112.662 99.1445C112.662 99.0443 112.58 98.9583 112.415 98.8867C112.201 98.7936 111.95 98.7471 111.663 98.7471H111.647C111.178 98.7471 110.813 98.8867 110.552 99.166C110.258 99.474 110.111 99.9287 110.111 100.53C110.111 101.078 110.262 101.506 110.562 101.814C110.842 102.104 111.237 102.249 111.749 102.249V102.254H112.662V99.1445ZM113.715 103.173C113.651 103.488 113.522 103.807 113.328 104.129C113.217 104.344 113.064 104.568 112.867 104.8C112.688 105.015 112.455 105.255 112.168 105.52L111.363 104.951C111.646 104.689 111.864 104.467 112.018 104.285C112.172 104.098 112.292 103.927 112.378 103.769C112.496 103.54 112.564 103.341 112.582 103.173H111.642C110.818 103.173 110.154 102.908 109.649 102.378C109.187 101.902 108.956 101.286 108.956 100.53C108.956 99.7246 109.178 99.0837 109.622 98.6074C110.113 98.0918 110.788 97.8322 111.647 97.8286H111.663C112.15 97.8286 112.587 97.9146 112.974 98.0864C113.536 98.3299 113.817 98.6826 113.817 99.1445V102.249H114.773V103.173H113.715ZM124.645 102.249V103.173H124.178C123.523 103.173 123.004 102.974 122.62 102.577C122.234 102.974 121.707 103.173 121.041 103.173C120.386 103.173 119.867 102.974 119.484 102.577C119.093 102.974 118.565 103.173 117.899 103.173C117.244 103.173 116.725 102.974 116.342 102.577C115.951 102.974 115.423 103.173 114.757 103.173H114.29V102.249H114.757C115.047 102.249 115.282 102.16 115.461 101.98C115.661 101.773 115.762 101.476 115.762 101.089V98.79H116.916V101.089C116.916 101.472 117.017 101.767 117.217 101.975C117.396 102.158 117.624 102.249 117.899 102.249C118.189 102.249 118.422 102.16 118.598 101.98C118.802 101.773 118.904 101.476 118.904 101.089V98.79H120.058V101.089C120.058 101.472 120.159 101.767 120.359 101.975C120.538 102.158 120.766 102.249 121.041 102.249C121.331 102.249 121.564 102.16 121.74 101.98C121.94 101.773 122.04 101.476 122.04 101.089V98.79H123.201V101.202C123.218 101.531 123.317 101.789 123.496 101.975C123.675 102.158 123.902 102.249 124.178 102.249H124.645ZM126.273 97.4634C126.273 97.381 126.289 97.304 126.321 97.2324C126.353 97.1608 126.396 97.0981 126.45 97.0444C126.504 96.9907 126.566 96.9495 126.638 96.9209C126.71 96.8887 126.787 96.8726 126.869 96.8726C126.948 96.8726 127.021 96.8887 127.089 96.9209C127.161 96.9495 127.222 96.9907 127.272 97.0444C127.326 97.0981 127.367 97.1608 127.395 97.2324C127.428 97.304 127.444 97.381 127.444 97.4634C127.444 97.5457 127.428 97.6227 127.395 97.6943C127.367 97.7624 127.326 97.8232 127.272 97.877C127.222 97.9271 127.161 97.9683 127.089 98.0005C127.021 98.0291 126.948 98.0435 126.869 98.0435C126.787 98.0435 126.71 98.0291 126.638 98.0005C126.566 97.9683 126.504 97.9271 126.45 97.877C126.396 97.8232 126.353 97.7624 126.321 97.6943C126.289 97.6227 126.273 97.5457 126.273 97.4634ZM124.871 97.4634C124.871 97.381 124.887 97.304 124.919 97.2324C124.952 97.1608 124.995 97.0981 125.048 97.0444C125.102 96.9907 125.163 96.9495 125.231 96.9209C125.302 96.8887 125.378 96.8726 125.456 96.8726C125.535 96.8726 125.61 96.8887 125.682 96.9209C125.754 96.9495 125.816 96.9907 125.87 97.0444C125.924 97.0981 125.965 97.1608 125.994 97.2324C126.026 97.304 126.042 97.381 126.042 97.4634C126.042 97.5457 126.026 97.6227 125.994 97.6943C125.965 97.7624 125.924 97.8232 125.87 97.877C125.816 97.9271 125.754 97.9683 125.682 98.0005C125.61 98.0291 125.535 98.0435 125.456 98.0435C125.378 98.0435 125.302 98.0291 125.231 98.0005C125.163 97.9683 125.102 97.9271 125.048 97.877C124.995 97.8232 124.952 97.7624 124.919 97.6943C124.887 97.6227 124.871 97.5457 124.871 97.4634ZM124.162 103.173V102.249H124.608C124.898 102.249 125.131 102.16 125.306 101.98C125.507 101.773 125.607 101.476 125.607 101.089V98.79H126.767V101.202C126.785 101.531 126.883 101.789 127.062 101.975C127.241 102.158 127.469 102.249 127.745 102.249H128.212V103.173H127.745C127.089 103.173 126.57 102.974 126.187 102.577C125.8 102.974 125.274 103.173 124.608 103.173H124.162ZM130.468 96.749V101.384C130.468 101.857 130.296 102.265 129.952 102.609C129.576 102.985 129.114 103.173 128.566 103.173H127.621V102.249H128.566C128.745 102.249 128.906 102.177 129.05 102.034C129.225 101.862 129.313 101.646 129.313 101.384V96.749H130.468ZM132.595 96.749V102.818H131.44V96.749H132.595ZM142.252 103.173C141.525 103.173 140.957 102.962 140.549 102.539L140.501 102.496C140.322 102.693 140.06 102.858 139.717 102.99C139.419 103.108 139.106 103.167 138.777 103.167C138.716 103.167 138.657 103.166 138.599 103.162C138.202 103.137 137.837 103.026 137.504 102.829C136.698 102.367 136.295 101.601 136.295 100.53C136.295 99.7246 136.517 99.0837 136.961 98.6074C137.452 98.0918 138.127 97.8322 138.986 97.8286H139.002C139.489 97.8286 139.926 97.9146 140.313 98.0864C140.875 98.3299 141.156 98.6826 141.156 99.1445V101.089C141.156 101.472 141.256 101.767 141.457 101.975C141.636 102.158 141.901 102.249 142.252 102.249V103.173ZM140.001 99.1445C140.001 99.0443 139.919 98.9583 139.754 98.8867C139.539 98.7936 139.289 98.7471 139.002 98.7471H138.986C138.517 98.7471 138.152 98.8867 137.891 99.166C137.597 99.474 137.45 99.9287 137.45 100.53C137.45 101.286 137.695 101.807 138.186 102.093C138.347 102.183 138.517 102.233 138.696 102.244C138.725 102.247 138.753 102.249 138.782 102.249C138.929 102.249 139.072 102.22 139.212 102.163C139.663 101.988 139.926 101.628 140.001 101.083V99.1445ZM138.943 96.5181C138.943 96.4357 138.959 96.3587 138.992 96.2871C139.024 96.2155 139.067 96.1528 139.12 96.0991C139.174 96.0454 139.237 96.0042 139.308 95.9756C139.38 95.9434 139.457 95.9272 139.539 95.9272C139.618 95.9272 139.692 95.9434 139.76 95.9756C139.831 96.0042 139.892 96.0454 139.942 96.0991C139.996 96.1528 140.037 96.2155 140.066 96.2871C140.098 96.3587 140.114 96.4357 140.114 96.5181C140.114 96.6004 140.098 96.6774 140.066 96.749C140.037 96.8171 139.996 96.8779 139.942 96.9316C139.892 96.9818 139.831 97.0229 139.76 97.0552C139.692 97.0838 139.618 97.0981 139.539 97.0981C139.457 97.0981 139.38 97.0838 139.308 97.0552C139.237 97.0229 139.174 96.9818 139.12 96.9316C139.067 96.8779 139.024 96.8171 138.992 96.749C138.959 96.6774 138.943 96.6004 138.943 96.5181ZM137.541 96.5181C137.541 96.4357 137.557 96.3587 137.59 96.2871C137.622 96.2155 137.665 96.1528 137.719 96.0991C137.772 96.0454 137.833 96.0042 137.901 95.9756C137.973 95.9434 138.048 95.9272 138.127 95.9272C138.206 95.9272 138.281 95.9434 138.352 95.9756C138.424 96.0042 138.487 96.0454 138.54 96.0991C138.594 96.1528 138.635 96.2155 138.664 96.2871C138.696 96.3587 138.712 96.4357 138.712 96.5181C138.712 96.6004 138.696 96.6774 138.664 96.749C138.635 96.8171 138.594 96.8779 138.54 96.9316C138.487 96.9818 138.424 97.0229 138.352 97.0552C138.281 97.0838 138.206 97.0981 138.127 97.0981C138.048 97.0981 137.973 97.0838 137.901 97.0552C137.833 97.0229 137.772 96.9818 137.719 96.9316C137.665 96.8779 137.622 96.8171 137.59 96.749C137.557 96.6774 137.541 96.6004 137.541 96.5181ZM144.889 96.8242C144.889 96.7419 144.905 96.6649 144.937 96.5933C144.97 96.5216 145.013 96.459 145.066 96.4053C145.12 96.3516 145.183 96.3104 145.254 96.2817C145.326 96.2495 145.403 96.2334 145.485 96.2334C145.564 96.2334 145.637 96.2495 145.705 96.2817C145.777 96.3104 145.838 96.3516 145.888 96.4053C145.942 96.459 145.983 96.5216 146.012 96.5933C146.044 96.6649 146.06 96.7419 146.06 96.8242C146.06 96.9066 146.044 96.9836 146.012 97.0552C145.983 97.1232 145.942 97.1841 145.888 97.2378C145.838 97.2879 145.777 97.3291 145.705 97.3613C145.637 97.39 145.564 97.4043 145.485 97.4043C145.403 97.4043 145.326 97.39 145.254 97.3613C145.183 97.3291 145.12 97.2879 145.066 97.2378C145.013 97.1841 144.97 97.1232 144.937 97.0552C144.905 96.9836 144.889 96.9066 144.889 96.8242ZM143.487 96.8242C143.487 96.7419 143.503 96.6649 143.536 96.5933C143.568 96.5216 143.611 96.459 143.664 96.4053C143.718 96.3516 143.779 96.3104 143.847 96.2817C143.919 96.2495 143.994 96.2334 144.073 96.2334C144.151 96.2334 144.227 96.2495 144.298 96.2817C144.37 96.3104 144.432 96.3516 144.486 96.4053C144.54 96.459 144.581 96.5216 144.61 96.5933C144.642 96.6649 144.658 96.7419 144.658 96.8242C144.658 96.9066 144.642 96.9836 144.61 97.0552C144.581 97.1232 144.54 97.1841 144.486 97.2378C144.432 97.2879 144.37 97.3291 144.298 97.3613C144.227 97.39 144.151 97.4043 144.073 97.4043C143.994 97.4043 143.919 97.39 143.847 97.3613C143.779 97.3291 143.718 97.2879 143.664 97.2378C143.611 97.1841 143.568 97.1232 143.536 97.0552C143.503 96.9836 143.487 96.9066 143.487 96.8242ZM146.425 100.53C146.425 99.9215 146.278 99.465 145.985 99.1606C145.727 98.8849 145.36 98.7471 144.884 98.7471C144.415 98.7471 144.051 98.8849 143.793 99.1606C143.496 99.4722 143.348 99.9287 143.348 100.53C143.348 101.078 143.498 101.506 143.799 101.814C144.078 102.104 144.438 102.249 144.878 102.249C145.333 102.249 145.698 102.108 145.974 101.825C146.275 101.517 146.425 101.085 146.425 100.53ZM142.757 102.249C142.381 101.859 142.193 101.286 142.193 100.53C142.193 99.721 142.415 99.0801 142.859 98.6074C143.353 98.0846 144.028 97.8232 144.884 97.8232C145.747 97.8232 146.423 98.0828 146.914 98.6021C147.358 99.0747 147.58 99.7174 147.58 100.53C147.58 101.293 147.394 101.866 147.021 102.249H148.117V103.173H141.661V102.249H142.757ZM150.362 96.8564C150.362 96.7741 150.378 96.6971 150.411 96.6255C150.443 96.5539 150.486 96.4912 150.539 96.4375C150.593 96.3838 150.654 96.3426 150.722 96.314C150.794 96.2817 150.869 96.2656 150.948 96.2656C151.026 96.2656 151.102 96.2817 151.173 96.314C151.245 96.3426 151.307 96.3838 151.361 96.4375C151.415 96.4912 151.456 96.5539 151.485 96.6255C151.517 96.6971 151.533 96.7741 151.533 96.8564C151.533 96.9388 151.517 97.0158 151.485 97.0874C151.456 97.1554 151.415 97.2163 151.361 97.27C151.307 97.3201 151.245 97.3613 151.173 97.3936C151.102 97.4222 151.026 97.4365 150.948 97.4365C150.869 97.4365 150.794 97.4222 150.722 97.3936C150.654 97.3613 150.593 97.3201 150.539 97.27C150.486 97.2163 150.443 97.1554 150.411 97.0874C150.378 97.0158 150.362 96.9388 150.362 96.8564ZM152.505 100.53C152.505 99.9215 152.358 99.465 152.065 99.1606C151.807 98.8849 151.44 98.7471 150.964 98.7471C150.495 98.7471 150.131 98.8849 149.873 99.1606C149.576 99.4722 149.428 99.9287 149.428 100.53C149.428 101.078 149.578 101.506 149.879 101.814C150.158 102.104 150.518 102.249 150.958 102.249C151.413 102.249 151.778 102.108 152.054 101.825C152.355 101.517 152.505 101.085 152.505 100.53ZM148.837 102.249C148.461 101.859 148.273 101.286 148.273 100.53C148.273 99.721 148.495 99.0801 148.939 98.6074C149.433 98.0846 150.108 97.8232 150.964 97.8232C151.827 97.8232 152.503 98.0828 152.994 98.6021C153.438 99.0747 153.66 99.7174 153.66 100.53C153.66 101.293 153.427 101.912 152.962 102.389C152.453 102.911 151.786 103.173 150.958 103.173H147.526V102.249H148.837ZM155.68 96.749V102.818H154.525V96.749H155.68ZM160.358 99.1445C160.358 99.0443 160.275 98.9583 160.111 98.8867C159.896 98.7936 159.645 98.7471 159.359 98.7471H159.343C158.874 98.7471 158.508 98.8867 158.247 99.166C157.953 99.474 157.807 99.9287 157.807 100.53C157.807 101.078 157.957 101.506 158.258 101.814C158.537 102.104 158.933 102.249 159.445 102.249V102.254H160.358V99.1445ZM161.411 103.173C161.346 103.488 161.217 103.807 161.024 104.129C160.913 104.344 160.759 104.568 160.562 104.8C160.383 105.015 160.15 105.255 159.864 105.52L159.058 104.951C159.341 104.689 159.559 104.467 159.713 104.285C159.867 104.098 159.987 103.927 160.073 103.769C160.191 103.54 160.259 103.341 160.277 103.173H159.337C158.514 103.173 157.849 102.908 157.345 102.378C156.883 101.902 156.652 101.286 156.652 100.53C156.652 99.7246 156.874 99.0837 157.318 98.6074C157.808 98.0918 158.483 97.8322 159.343 97.8286H159.359C159.846 97.8286 160.283 97.9146 160.669 98.0864C161.231 98.3299 161.513 98.6826 161.513 99.1445V102.249H162.469V103.173H161.411ZM167.324 100.53C167.324 99.9215 167.177 99.465 166.884 99.1606C166.626 98.8849 166.259 98.7471 165.783 98.7471C165.314 98.7471 164.95 98.8849 164.692 99.1606C164.395 99.4722 164.246 99.9287 164.246 100.53C164.246 101.078 164.397 101.506 164.698 101.814C164.977 102.104 165.337 102.249 165.777 102.249C166.232 102.249 166.597 102.108 166.873 101.825C167.174 101.517 167.324 101.085 167.324 100.53ZM163.092 100.53C163.092 99.721 163.314 99.0801 163.758 98.6074C164.252 98.0846 164.927 97.8232 165.783 97.8232C166.646 97.8232 167.322 98.0828 167.813 98.6021C168.257 99.0747 168.479 99.7174 168.479 100.53C168.479 101.293 168.246 101.912 167.781 102.389C167.272 102.911 166.604 103.173 165.777 103.173C164.954 103.173 164.302 102.92 163.822 102.416C163.811 102.426 163.77 102.469 163.699 102.544C163.29 102.963 162.719 103.173 161.985 103.173V102.249C162.347 102.249 162.615 102.16 162.791 101.98C162.991 101.773 163.092 101.476 163.092 101.089V100.53Z" fill="white" fill-opacity="0.8"/>
<rect x="177.016" y="91.5081" width="15.984" height="15.984" rx="4.44" fill="white"/>
<path d="M188.116 97.3633L183.842 101.637L181.9 99.6943" stroke="#D4088C" stroke-width="1.332" stroke-linecap="round" stroke-linejoin="round"/>
<path d="M140.678 130.691C140.596 130.917 140.542 131.119 140.517 131.298C140.485 131.481 140.469 131.674 140.469 131.878C140.469 132.566 140.658 133.105 141.038 133.495C141.403 133.871 141.87 134.059 142.44 134.059C143.027 134.059 143.502 133.875 143.863 133.506C144.243 133.116 144.432 132.573 144.432 131.878V128.79H145.587V131.878C145.587 132.781 145.315 133.513 144.771 134.075C144.18 134.68 143.403 134.983 142.44 134.983C141.595 134.983 140.877 134.675 140.286 134.059C139.745 133.5 139.475 132.774 139.475 131.878C139.475 131.635 139.493 131.402 139.529 131.18C139.564 130.958 139.633 130.715 139.733 130.45L140.678 130.691ZM142.101 127.947C142.101 127.864 142.118 127.787 142.15 127.716C142.182 127.644 142.225 127.582 142.279 127.528C142.332 127.474 142.393 127.433 142.461 127.404C142.533 127.372 142.608 127.356 142.687 127.356C142.766 127.356 142.841 127.372 142.912 127.404C142.984 127.433 143.047 127.474 143.1 127.528C143.154 127.582 143.195 127.644 143.224 127.716C143.256 127.787 143.272 127.864 143.272 127.947C143.272 128.029 143.256 128.106 143.224 128.178C143.195 128.246 143.154 128.307 143.1 128.36C143.047 128.41 142.984 128.452 142.912 128.484C142.841 128.513 142.766 128.527 142.687 128.527C142.608 128.527 142.533 128.513 142.461 128.484C142.393 128.452 142.332 128.41 142.279 128.36C142.225 128.307 142.182 128.246 142.15 128.178C142.118 128.106 142.101 128.029 142.101 127.947ZM147.709 126.749V132.818H146.554V126.749H147.709ZM152.387 129.145C152.387 129.044 152.305 128.958 152.14 128.887C151.925 128.794 151.675 128.747 151.388 128.747H151.372C150.903 128.747 150.538 128.887 150.276 129.166C149.983 129.474 149.836 129.929 149.836 130.53C149.836 131.078 149.986 131.506 150.287 131.814C150.566 132.104 150.962 132.249 151.474 132.249V132.254H152.387V129.145ZM153.44 133.173C153.375 133.488 153.246 133.807 153.053 134.129C152.942 134.344 152.788 134.568 152.591 134.8C152.412 135.015 152.179 135.255 151.893 135.52L151.087 134.951C151.37 134.689 151.589 134.467 151.743 134.285C151.897 134.098 152.016 133.927 152.102 133.769C152.221 133.54 152.289 133.341 152.307 133.173H151.367C150.543 133.173 149.879 132.908 149.374 132.378C148.912 131.902 148.681 131.286 148.681 130.53C148.681 129.725 148.903 129.084 149.347 128.607C149.838 128.092 150.513 127.832 151.372 127.829H151.388C151.875 127.829 152.312 127.915 152.699 128.086C153.261 128.33 153.542 128.683 153.542 129.145V132.249H154.498V133.173H153.44ZM155.39 127.555C155.39 127.472 155.406 127.395 155.438 127.324C155.47 127.252 155.513 127.189 155.567 127.136C155.62 127.082 155.681 127.041 155.749 127.012C155.821 126.98 155.896 126.964 155.975 126.964C156.054 126.964 156.129 126.98 156.201 127.012C156.272 127.041 156.335 127.082 156.389 127.136C156.442 127.189 156.483 127.252 156.512 127.324C156.544 127.395 156.56 127.472 156.56 127.555C156.56 127.637 156.544 127.714 156.512 127.786C156.483 127.854 156.442 127.915 156.389 127.968C156.335 128.018 156.272 128.06 156.201 128.092C156.129 128.12 156.054 128.135 155.975 128.135C155.896 128.135 155.821 128.12 155.749 128.092C155.681 128.06 155.62 128.018 155.567 127.968C155.513 127.915 155.47 127.854 155.438 127.786C155.406 127.714 155.39 127.637 155.39 127.555ZM154.015 133.173V132.249H154.46C154.75 132.249 154.983 132.16 155.159 131.98C155.359 131.773 155.459 131.476 155.459 131.089V128.79H156.62V131.202C156.637 131.531 156.736 131.789 156.915 131.975C157.094 132.158 157.321 132.249 157.597 132.249H158.064V133.173H157.597C156.942 133.173 156.423 132.974 156.039 132.577C155.653 132.974 155.126 133.173 154.46 133.173H154.015ZM160.202 131.938C160.381 132.081 160.56 132.188 160.739 132.26C160.922 132.188 161.103 132.081 161.282 131.938C161.718 131.59 162.019 131.121 162.184 130.53C162.256 130.262 162.291 130.018 162.291 129.8C162.291 129.506 162.225 129.273 162.093 129.102C161.985 128.962 161.829 128.863 161.625 128.806C161.479 128.767 161.312 128.747 161.126 128.747H160.352C160.166 128.747 160.002 128.767 159.858 128.806C159.654 128.863 159.498 128.962 159.391 129.102C159.259 129.273 159.192 129.506 159.192 129.8C159.192 130.018 159.228 130.262 159.3 130.53C159.464 131.121 159.765 131.59 160.202 131.938ZM157.474 133.173V132.249H158.999C158.637 131.923 158.362 131.415 158.172 130.724C158.079 130.387 158.032 130.079 158.032 129.8C158.032 129.331 158.156 128.937 158.403 128.618C158.657 128.289 159.017 128.061 159.482 127.936C159.747 127.861 160.037 127.823 160.352 127.823H161.126C161.445 127.823 161.736 127.861 162.001 127.936C162.467 128.065 162.825 128.292 163.076 128.618C163.323 128.937 163.446 129.331 163.446 129.8C163.446 130.079 163.4 130.387 163.307 130.724C163.12 131.415 162.845 131.923 162.479 132.249H163.983V133.173H157.474ZM166.347 126.749V131.384C166.347 131.857 166.175 132.265 165.831 132.609C165.455 132.985 164.993 133.173 164.445 133.173H163.5V132.249H164.445C164.624 132.249 164.785 132.177 164.929 132.034C165.104 131.862 165.192 131.646 165.192 131.384V126.749H166.347ZM168.474 126.749V132.818H167.319V126.749H168.474Z" fill="white" fill-opacity="0.6"/>
<rect x="177.016" y="121.508" width="15.984" height="15.984" rx="4.44" fill="white" fill-opacity="0.1"/>
</g>
<defs>
<filter id="filter0_b_3461_6308" x="-4" y="-4" width="221" height="167" filterUnits="userSpaceOnUse" color-interpolation-filters="sRGB">
<feFlood flood-opacity="0" result="BackgroundImageFix"/>
<feGaussianBlur in="BackgroundImageFix" stdDeviation="2"/>
<feComposite in2="SourceAlpha" operator="in" result="effect1_backgroundBlur_3461_6308"/>
<feBlend mode="normal" in="SourceGraphic" in2="effect1_backgroundBlur_3461_6308" result="shape"/>
</filter>
</defs>
</svg>
