<svg width="275" height="223" viewBox="0 0 275 223" fill="none" xmlns="http://www.w3.org/2000/svg">
<rect x="45" y="131" width="225" height="36" rx="8" fill="white"/>
<rect x="42.5" y="128.5" width="230" height="41" rx="10.5" stroke="white" stroke-opacity="0.1" stroke-width="5"/>
<rect x="53.2" y="140.2" width="52.6" height="17.6" rx="1.8" stroke="#EAEAEA" stroke-width="0.4"/>
<path d="M65 148.5L62 150.5L59 148.5" stroke="#6F6F6F" stroke-width="0.5" stroke-linecap="round" stroke-linejoin="round"/>
<path d="M74.7227 151.98C74.2969 151.965 73.9238 151.863 73.6035 151.676C73.5059 152.188 73.3438 152.656 73.1172 153.082C72.9961 153.312 72.832 153.551 72.625 153.797C72.4336 154.027 72.2051 154.264 71.9395 154.506L71.2598 154.025C71.502 153.803 71.707 153.59 71.875 153.387C72.0508 153.176 72.1875 152.98 72.2852 152.801C72.5078 152.387 72.6191 151.92 72.6191 151.4C72.6191 151.314 72.6152 151.227 72.6074 151.137V147.434H73.6328V149.988C73.6602 150.359 73.7793 150.654 73.9902 150.873C74.209 151.096 74.4844 151.207 74.8164 151.207H75.2031V151.98H74.7227ZM80.623 149.215C80.623 148.52 80.4531 147.994 80.1133 147.639C79.8086 147.314 79.3789 147.152 78.8242 147.152C78.2773 147.152 77.8516 147.314 77.5469 147.639C77.2031 148.002 77.0312 148.527 77.0312 149.215C77.0312 149.844 77.207 150.338 77.5586 150.697C77.8867 151.037 78.3066 151.207 78.8184 151.207C79.3457 151.207 79.7715 151.041 80.0957 150.709C80.4473 150.35 80.623 149.852 80.623 149.215ZM78.8184 151.98C77.9551 151.98 77.2578 151.703 76.7266 151.148C76.707 151.129 76.6875 151.109 76.668 151.09C76.6094 151.172 76.543 151.252 76.4688 151.33C76.0469 151.764 75.4902 151.98 74.7988 151.98V151.207C75.1465 151.207 75.4277 151.098 75.6426 150.879C75.8848 150.629 76.0059 150.277 76.0059 149.824V149.215C76.0059 148.363 76.2383 147.691 76.7031 147.199C77.2188 146.652 77.9258 146.379 78.8242 146.379C79.7305 146.379 80.4395 146.65 80.9512 147.193C81.416 147.686 81.6484 148.359 81.6484 149.215C81.6484 150.016 81.4062 150.664 80.9219 151.16C80.9062 151.176 80.8906 151.191 80.875 151.207H82.2812V151.98H78.8184ZM84.2324 145.787C84.2324 145.697 84.25 145.613 84.2852 145.535C84.3203 145.457 84.3672 145.389 84.4258 145.33C84.4844 145.271 84.5527 145.227 84.6309 145.195C84.709 145.16 84.793 145.143 84.8828 145.143C84.9688 145.143 85.0488 145.16 85.123 145.195C85.2012 145.227 85.2676 145.271 85.3223 145.33C85.3809 145.389 85.4258 145.457 85.457 145.535C85.4922 145.613 85.5098 145.697 85.5098 145.787C85.5098 145.877 85.4922 145.961 85.457 146.039C85.4258 146.113 85.3809 146.18 85.3223 146.238C85.2676 146.293 85.2012 146.338 85.123 146.373C85.0488 146.404 84.9688 146.42 84.8828 146.42C84.793 146.42 84.709 146.404 84.6309 146.373C84.5527 146.338 84.4844 146.293 84.4258 146.238C84.3672 146.18 84.3203 146.113 84.2852 146.039C84.25 145.961 84.2324 145.877 84.2324 145.787ZM82.7031 145.787C82.7031 145.697 82.7207 145.613 82.7559 145.535C82.791 145.457 82.8379 145.389 82.8965 145.33C82.9551 145.271 83.0215 145.227 83.0957 145.195C83.1738 145.16 83.2559 145.143 83.3418 145.143C83.4277 145.143 83.5098 145.16 83.5879 145.195C83.666 145.227 83.7344 145.271 83.793 145.33C83.8516 145.389 83.8965 145.457 83.9277 145.535C83.9629 145.613 83.9805 145.697 83.9805 145.787C83.9805 145.877 83.9629 145.961 83.9277 146.039C83.8965 146.113 83.8516 146.18 83.793 146.238C83.7344 146.293 83.666 146.338 83.5879 146.373C83.5098 146.404 83.4277 146.42 83.3418 146.42C83.2559 146.42 83.1738 146.404 83.0957 146.373C83.0215 146.338 82.9551 146.293 82.8965 146.238C82.8379 146.18 82.791 146.113 82.7559 146.039C82.7207 145.961 82.7031 145.877 82.7031 145.787ZM85.6855 147.434V150.146C85.6855 150.631 85.5098 151.049 85.1582 151.4C84.7715 151.787 84.2949 151.98 83.7285 151.98H81.877V151.207H83.7285C83.9551 151.207 84.1582 151.117 84.3379 150.938C84.5527 150.727 84.6602 150.463 84.6602 150.146V147.434H85.6855ZM90.9062 147.703C90.9062 147.543 90.793 147.414 90.5664 147.316C90.3164 147.207 90.0273 147.152 89.6992 147.152H89.6816C89.1348 147.152 88.707 147.316 88.3984 147.645C88.0586 148.004 87.8887 148.527 87.8887 149.215C87.8887 149.844 88.0645 150.338 88.416 150.697C88.7441 151.037 89.1641 151.207 89.6758 151.207V151.213H90.9062V147.703ZM91.8438 151.98C91.7617 152.375 91.6191 152.742 91.416 153.082C91.2949 153.312 91.1309 153.551 90.9238 153.797C90.7324 154.027 90.5039 154.264 90.2383 154.506L89.5586 154.025C89.8008 153.803 90.0059 153.59 90.1738 153.387C90.3496 153.176 90.4863 152.98 90.584 152.801C90.7207 152.539 90.8027 152.266 90.8301 151.98H89.6758C88.8125 151.98 88.1152 151.703 87.584 151.148C87.1035 150.652 86.8633 150.008 86.8633 149.215C86.8633 148.367 87.0957 147.695 87.5605 147.199C88.0723 146.66 88.7793 146.389 89.6816 146.385H89.6992C90.2148 146.385 90.6758 146.475 91.082 146.654C91.6484 146.9 91.9316 147.25 91.9316 147.703V151.207H92.9746V151.98H91.8438ZM89.0195 145.248C88.9297 145.1 88.877 144.939 88.8613 144.768C88.8574 144.732 88.8555 144.697 88.8555 144.662C88.8555 144.553 88.875 144.449 88.9141 144.352C89.043 143.992 89.3301 143.812 89.7754 143.812C90.0605 143.812 90.2969 143.887 90.4844 144.035C90.6523 144.168 90.7598 144.35 90.8066 144.58L90.1445 144.662C90.1133 144.533 90.0645 144.439 89.998 144.381C89.9434 144.342 89.8691 144.322 89.7754 144.322C89.6738 144.322 89.6016 144.377 89.5586 144.486C89.543 144.541 89.5352 144.602 89.5352 144.668V144.738C89.543 144.832 89.5684 144.92 89.6113 145.002C89.6855 145.143 89.7773 145.225 89.8867 145.248H90.9355V145.752H88.6387V145.248H89.0195ZM98.3887 149.215C98.3887 148.52 98.2188 147.994 97.8789 147.639C97.5742 147.314 97.1445 147.152 96.5898 147.152C96.043 147.152 95.6172 147.314 95.3125 147.639C94.9688 148.002 94.7969 148.527 94.7969 149.215C94.7969 149.844 94.9727 150.338 95.3242 150.697C95.6523 151.037 96.0723 151.207 96.584 151.207C97.1113 151.207 97.5371 151.041 97.8613 150.709C98.2129 150.35 98.3887 149.852 98.3887 149.215ZM93.7715 149.215C93.7715 148.363 94.0039 147.691 94.4688 147.199C94.9844 146.652 95.6914 146.379 96.5898 146.379C97.4961 146.379 98.2051 146.65 98.7168 147.193C99.1816 147.686 99.4141 148.359 99.4141 149.215C99.4141 150.016 99.1719 150.664 98.6875 151.16C98.1562 151.707 97.4551 151.98 96.584 151.98C95.7207 151.98 95.0234 151.703 94.4922 151.148C94.4727 151.129 94.4531 151.109 94.4336 151.09C94.375 151.172 94.3086 151.252 94.2344 151.33C93.8125 151.764 93.2559 151.98 92.5645 151.98V151.207C92.9121 151.207 93.1934 151.098 93.4082 150.879C93.6504 150.629 93.7715 150.277 93.7715 149.824V149.215Z" fill="#6F6F6F"/>
<path d="M189.517 151.421C189.517 151.339 189.533 151.262 189.565 151.19C189.598 151.118 189.641 151.056 189.694 151.002C189.748 150.948 189.809 150.907 189.877 150.878C189.949 150.846 190.024 150.83 190.103 150.83C190.181 150.83 190.257 150.846 190.328 150.878C190.4 150.907 190.462 150.948 190.516 151.002C190.57 151.056 190.611 151.118 190.64 151.19C190.672 151.262 190.688 151.339 190.688 151.421C190.688 151.503 190.672 151.58 190.64 151.652C190.611 151.72 190.57 151.781 190.516 151.834C190.462 151.885 190.4 151.926 190.328 151.958C190.257 151.987 190.181 152.001 190.103 152.001C190.024 152.001 189.949 151.987 189.877 151.958C189.809 151.926 189.748 151.885 189.694 151.834C189.641 151.781 189.598 151.72 189.565 151.652C189.533 151.58 189.517 151.503 189.517 151.421ZM189.517 148.735C189.517 148.653 189.533 148.576 189.565 148.504C189.598 148.433 189.641 148.37 189.694 148.316C189.748 148.263 189.809 148.222 189.877 148.193C189.949 148.161 190.024 148.145 190.103 148.145C190.181 148.145 190.257 148.161 190.328 148.193C190.4 148.222 190.462 148.263 190.516 148.316C190.57 148.37 190.611 148.433 190.64 148.504C190.672 148.576 190.688 148.653 190.688 148.735C190.688 148.818 190.672 148.895 190.64 148.966C190.611 149.034 190.57 149.095 190.516 149.149C190.462 149.199 190.4 149.24 190.328 149.272C190.257 149.301 190.181 149.315 190.103 149.315C190.024 149.315 189.949 149.301 189.877 149.272C189.809 149.24 189.748 149.199 189.694 149.149C189.641 149.095 189.598 149.034 189.565 148.966C189.533 148.895 189.517 148.818 189.517 148.735ZM197.799 152.065C197.173 152.065 196.666 151.865 196.279 151.464C196.236 151.421 196.197 151.376 196.161 151.33C195.936 151.577 195.66 151.763 195.334 151.888C195.048 152.003 194.747 152.06 194.432 152.06C194.374 152.06 194.317 152.058 194.26 152.055C193.88 152.03 193.531 151.924 193.212 151.738C192.443 151.294 192.058 150.558 192.058 149.53C192.058 148.753 192.271 148.137 192.697 147.683C193.166 147.188 193.814 146.94 194.641 146.936H194.657C195.13 146.936 195.552 147.018 195.925 147.183C196.444 147.409 196.704 147.729 196.704 148.145V150.089C196.704 150.501 196.815 150.821 197.037 151.05C197.237 151.254 197.491 151.356 197.799 151.356V152.065ZM195.764 148.145C195.764 147.998 195.66 147.88 195.452 147.79C195.223 147.69 194.958 147.64 194.657 147.64H194.641C194.14 147.64 193.748 147.79 193.465 148.091C193.153 148.42 192.998 148.9 192.998 149.53C192.998 150.329 193.261 150.88 193.787 151.185C193.963 151.285 194.147 151.34 194.34 151.351C194.373 151.355 194.405 151.356 194.437 151.356C194.598 151.356 194.754 151.326 194.904 151.265C195.395 151.072 195.681 150.68 195.764 150.089V148.145ZM194.598 145.518C194.598 145.436 194.614 145.359 194.646 145.287C194.679 145.215 194.722 145.153 194.775 145.099C194.829 145.045 194.892 145.004 194.963 144.976C195.035 144.943 195.112 144.927 195.194 144.927C195.273 144.927 195.347 144.943 195.415 144.976C195.486 145.004 195.547 145.045 195.597 145.099C195.651 145.153 195.692 145.215 195.721 145.287C195.753 145.359 195.769 145.436 195.769 145.518C195.769 145.6 195.753 145.677 195.721 145.749C195.692 145.817 195.651 145.878 195.597 145.932C195.547 145.982 195.486 146.023 195.415 146.055C195.347 146.084 195.273 146.098 195.194 146.098C195.112 146.098 195.035 146.084 194.963 146.055C194.892 146.023 194.829 145.982 194.775 145.932C194.722 145.878 194.679 145.817 194.646 145.749C194.614 145.677 194.598 145.6 194.598 145.518ZM193.196 145.518C193.196 145.436 193.212 145.359 193.245 145.287C193.277 145.215 193.32 145.153 193.374 145.099C193.427 145.045 193.488 145.004 193.556 144.976C193.628 144.943 193.703 144.927 193.782 144.927C193.861 144.927 193.936 144.943 194.007 144.976C194.079 145.004 194.142 145.045 194.195 145.099C194.249 145.153 194.29 145.215 194.319 145.287C194.351 145.359 194.367 145.436 194.367 145.518C194.367 145.6 194.351 145.677 194.319 145.749C194.29 145.817 194.249 145.878 194.195 145.932C194.142 145.982 194.079 146.023 194.007 146.055C193.936 146.084 193.861 146.098 193.782 146.098C193.703 146.098 193.628 146.084 193.556 146.055C193.488 146.023 193.427 145.982 193.374 145.932C193.32 145.878 193.277 145.817 193.245 145.749C193.212 145.677 193.196 145.6 193.196 145.518ZM199.362 153.553C199.362 153.471 199.378 153.394 199.411 153.322C199.443 153.251 199.486 153.188 199.54 153.134C199.593 153.081 199.656 153.038 199.728 153.005C199.799 152.977 199.876 152.962 199.958 152.962C200.037 152.962 200.111 152.977 200.179 153.005C200.25 153.038 200.311 153.081 200.361 153.134C200.415 153.188 200.456 153.251 200.485 153.322C200.517 153.394 200.533 153.471 200.533 153.553C200.533 153.636 200.517 153.711 200.485 153.779C200.456 153.85 200.415 153.911 200.361 153.961C200.311 154.015 200.25 154.056 200.179 154.085C200.111 154.117 200.037 154.133 199.958 154.133C199.876 154.133 199.799 154.117 199.728 154.085C199.656 154.056 199.593 154.015 199.54 153.961C199.486 153.911 199.443 153.85 199.411 153.779C199.378 153.711 199.362 153.636 199.362 153.553ZM197.96 153.553C197.96 153.471 197.977 153.394 198.009 153.322C198.041 153.251 198.084 153.188 198.138 153.134C198.191 153.081 198.252 153.038 198.32 153.005C198.392 152.977 198.467 152.962 198.546 152.962C198.625 152.962 198.7 152.977 198.771 153.005C198.843 153.038 198.906 153.081 198.959 153.134C199.013 153.188 199.054 153.251 199.083 153.322C199.115 153.394 199.131 153.471 199.131 153.553C199.131 153.636 199.115 153.711 199.083 153.779C199.054 153.85 199.013 153.911 198.959 153.961C198.906 154.015 198.843 154.056 198.771 154.085C198.7 154.117 198.625 154.133 198.546 154.133C198.467 154.133 198.392 154.117 198.32 154.085C198.252 154.056 198.191 154.015 198.138 153.961C198.084 153.911 198.041 153.85 198.009 153.779C197.977 153.711 197.96 153.636 197.96 153.553ZM197.423 152.065V151.356H197.762C198.08 151.356 198.338 151.256 198.535 151.056C198.757 150.826 198.868 150.504 198.868 150.089V147.897H199.813V150.202C199.831 150.56 199.941 150.843 200.141 151.05C200.342 151.254 200.594 151.356 200.898 151.356H201.258V152.065H200.898C200.272 152.065 199.765 151.865 199.378 151.464L199.341 151.426L199.298 151.469C198.911 151.867 198.399 152.065 197.762 152.065H197.423ZM203.514 145.856V150.384C203.514 150.828 203.353 151.211 203.031 151.534C202.676 151.888 202.239 152.065 201.72 152.065H200.882V151.356H201.72C201.928 151.356 202.114 151.274 202.279 151.109C202.476 150.916 202.574 150.674 202.574 150.384V145.856H203.514ZM205.534 145.856V150.384C205.534 150.674 205.632 150.916 205.829 151.109C205.994 151.274 206.18 151.356 206.388 151.356H207.548V152.065H206.388C205.868 152.065 205.432 151.888 205.077 151.534C204.755 151.211 204.594 150.828 204.594 150.384V145.856H205.534ZM209.734 151.023C209.92 151.17 210.121 151.288 210.335 151.378C210.554 151.288 210.756 151.17 210.942 151.023C211.401 150.662 211.714 150.173 211.882 149.557C211.958 149.281 211.995 149.029 211.995 148.8C211.995 148.481 211.922 148.227 211.775 148.037C211.653 147.876 211.478 147.765 211.249 147.704C211.095 147.661 210.919 147.64 210.722 147.64H209.949C209.752 147.64 209.578 147.661 209.428 147.704C209.199 147.765 209.023 147.876 208.901 148.037C208.755 148.227 208.681 148.481 208.681 148.8C208.681 149.029 208.719 149.281 208.794 149.557C208.962 150.173 209.276 150.662 209.734 151.023ZM207.177 152.065V151.356H208.875C208.391 150.92 208.056 150.366 207.87 149.697C207.781 149.367 207.736 149.068 207.736 148.8C207.736 148.356 207.852 147.983 208.085 147.683C208.325 147.375 208.665 147.16 209.105 147.038C209.363 146.966 209.644 146.931 209.949 146.931H210.722C211.03 146.931 211.313 146.966 211.571 147.038C212.011 147.16 212.35 147.375 212.586 147.683C212.819 147.983 212.935 148.356 212.935 148.8C212.935 149.068 212.89 149.367 212.801 149.697C212.618 150.366 212.283 150.92 211.796 151.356H213.472V152.065H207.177ZM215.637 145.873C215.637 145.79 215.653 145.713 215.685 145.642C215.717 145.57 215.76 145.507 215.814 145.454C215.868 145.4 215.929 145.359 215.997 145.33C216.068 145.298 216.143 145.282 216.222 145.282C216.301 145.282 216.376 145.298 216.448 145.33C216.519 145.359 216.582 145.4 216.636 145.454C216.689 145.507 216.731 145.57 216.759 145.642C216.792 145.713 216.808 145.79 216.808 145.873C216.808 145.955 216.792 146.032 216.759 146.104C216.731 146.172 216.689 146.232 216.636 146.286C216.582 146.336 216.519 146.377 216.448 146.41C216.376 146.438 216.301 146.453 216.222 146.453C216.143 146.453 216.068 146.438 215.997 146.41C215.929 146.377 215.868 146.336 215.814 146.286C215.76 146.232 215.717 146.172 215.685 146.104C215.653 146.032 215.637 145.955 215.637 145.873ZM217.86 149.53C217.86 148.893 217.705 148.411 217.393 148.085C217.114 147.788 216.72 147.64 216.211 147.64C215.71 147.64 215.32 147.788 215.041 148.085C214.725 148.418 214.568 148.9 214.568 149.53C214.568 150.107 214.729 150.56 215.051 150.889C215.352 151.201 215.737 151.356 216.206 151.356C216.689 151.356 217.08 151.204 217.377 150.9C217.699 150.57 217.86 150.114 217.86 149.53ZM214.342 151.356L214.289 151.303C213.848 150.848 213.628 150.257 213.628 149.53C213.628 148.75 213.841 148.134 214.267 147.683C214.74 147.181 215.388 146.931 216.211 146.931C217.042 146.931 217.692 147.18 218.161 147.677C218.587 148.128 218.8 148.746 218.8 149.53C218.8 150.264 218.578 150.859 218.134 151.313L218.091 151.356H219.337V152.065H213.096V151.356H214.342ZM221.593 145.856V150.384C221.593 150.828 221.432 151.211 221.11 151.534C220.755 151.888 220.319 152.065 219.799 152.065H218.961V151.356H219.799C220.007 151.356 220.193 151.274 220.358 151.109C220.555 150.916 220.653 150.674 220.653 150.384V145.856H221.593ZM223.613 145.856V151.711H222.673V145.856H223.613ZM229.854 152.065C229.417 152.065 229.059 152.201 228.78 152.474C228.586 152.663 228.454 152.896 228.382 153.172C228.347 153.308 228.329 153.442 228.329 153.575C228.329 153.718 228.348 153.858 228.388 153.994C228.495 154.359 228.714 154.631 229.043 154.81L228.603 155.385C228.076 155.098 227.734 154.683 227.577 154.139C227.523 153.952 227.496 153.764 227.496 153.575C227.496 153.399 227.519 153.222 227.566 153.043C227.666 152.656 227.858 152.323 228.141 152.044C228.466 151.725 228.862 151.518 229.328 151.421L229.263 151.356C229.245 151.339 229.227 151.321 229.209 151.303C228.769 150.848 228.549 150.257 228.549 149.53C228.549 148.75 228.762 148.134 229.188 147.683C229.661 147.181 230.309 146.931 231.132 146.931C231.515 146.931 231.868 146.988 232.19 147.103C232.513 147.217 232.788 147.387 233.018 147.613C233.132 147.724 233.234 147.849 233.324 147.989C233.413 148.125 233.487 148.272 233.544 148.429L232.636 148.617C232.593 148.499 232.541 148.392 232.48 148.295C232.42 148.202 232.35 148.118 232.271 148.042C232.135 147.91 231.972 147.81 231.782 147.742C231.592 147.674 231.376 147.64 231.132 147.64C230.631 147.64 230.241 147.788 229.961 148.085C229.646 148.418 229.489 148.9 229.489 149.53C229.489 150.107 229.65 150.56 229.972 150.889C230.273 151.201 230.658 151.356 231.127 151.356H233.807V152.065H229.854ZM238.593 148.145C238.593 147.998 238.489 147.88 238.281 147.79C238.052 147.69 237.787 147.64 237.486 147.64H237.47C236.969 147.64 236.577 147.79 236.294 148.091C235.982 148.42 235.827 148.9 235.827 149.53C235.827 150.107 235.988 150.56 236.31 150.889C236.611 151.201 236.996 151.356 237.465 151.356V151.362H238.593V148.145ZM239.452 152.065C239.377 152.427 239.246 152.764 239.06 153.075C238.949 153.286 238.799 153.505 238.609 153.73C238.433 153.942 238.224 154.158 237.98 154.38L237.357 153.94C237.579 153.736 237.767 153.541 237.921 153.354C238.083 153.161 238.208 152.982 238.297 152.817C238.423 152.577 238.498 152.327 238.523 152.065H237.465C236.674 152.065 236.034 151.811 235.547 151.303C235.107 150.848 234.887 150.257 234.887 149.53C234.887 148.753 235.1 148.137 235.526 147.683C235.995 147.188 236.643 146.94 237.47 146.936H237.486C237.959 146.936 238.382 147.018 238.754 147.183C239.273 147.409 239.533 147.729 239.533 148.145V151.356H240.489V152.065H239.452ZM241.155 146.544C241.155 146.462 241.171 146.385 241.203 146.313C241.235 146.241 241.278 146.179 241.332 146.125C241.386 146.071 241.447 146.03 241.515 146.001C241.586 145.969 241.661 145.953 241.74 145.953C241.819 145.953 241.894 145.969 241.966 146.001C242.037 146.03 242.1 146.071 242.154 146.125C242.208 146.179 242.249 146.241 242.277 146.313C242.31 146.385 242.326 146.462 242.326 146.544C242.326 146.626 242.31 146.703 242.277 146.775C242.249 146.843 242.208 146.904 242.154 146.958C242.1 147.008 242.037 147.049 241.966 147.081C241.894 147.11 241.819 147.124 241.74 147.124C241.661 147.124 241.586 147.11 241.515 147.081C241.447 147.049 241.386 147.008 241.332 146.958C241.278 146.904 241.235 146.843 241.203 146.775C241.171 146.703 241.155 146.626 241.155 146.544ZM243.604 147.897V150.384C243.604 150.828 243.443 151.211 243.121 151.534C242.766 151.888 242.329 152.065 241.81 152.065H240.113V151.356H241.81C242.018 151.356 242.204 151.274 242.369 151.109C242.566 150.916 242.664 150.674 242.664 150.384V147.897H243.604ZM250.001 152.065C249.611 152.051 249.269 151.958 248.975 151.786C248.886 152.255 248.737 152.685 248.529 153.075C248.418 153.286 248.268 153.505 248.078 153.73C247.903 153.942 247.693 154.158 247.45 154.38L246.827 153.94C247.049 153.736 247.237 153.541 247.391 153.354C247.552 153.161 247.677 152.982 247.767 152.817C247.971 152.438 248.073 152.01 248.073 151.534C248.073 151.455 248.069 151.374 248.062 151.292V147.897H249.002V150.239C249.027 150.579 249.136 150.85 249.33 151.05C249.53 151.254 249.783 151.356 250.087 151.356H250.441V152.065H250.001ZM252.074 146.463C252.074 146.381 252.09 146.304 252.123 146.232C252.155 146.161 252.198 146.098 252.251 146.044C252.305 145.991 252.368 145.95 252.439 145.921C252.511 145.889 252.588 145.873 252.67 145.873C252.749 145.873 252.823 145.889 252.891 145.921C252.962 145.95 253.023 145.991 253.073 146.044C253.127 146.098 253.168 146.161 253.197 146.232C253.229 146.304 253.245 146.381 253.245 146.463C253.245 146.546 253.229 146.623 253.197 146.694C253.168 146.762 253.127 146.823 253.073 146.877C253.023 146.927 252.962 146.968 252.891 147C252.823 147.029 252.749 147.043 252.67 147.043C252.588 147.043 252.511 147.029 252.439 147C252.368 146.968 252.305 146.927 252.251 146.877C252.198 146.823 252.155 146.762 252.123 146.694C252.09 146.623 252.074 146.546 252.074 146.463ZM250.672 146.463C250.672 146.381 250.688 146.304 250.721 146.232C250.753 146.161 250.796 146.098 250.85 146.044C250.903 145.991 250.964 145.95 251.032 145.921C251.104 145.889 251.179 145.873 251.258 145.873C251.337 145.873 251.412 145.889 251.483 145.921C251.555 145.95 251.618 145.991 251.671 146.044C251.725 146.098 251.766 146.161 251.795 146.232C251.827 146.304 251.843 146.381 251.843 146.463C251.843 146.546 251.827 146.623 251.795 146.694C251.766 146.762 251.725 146.823 251.671 146.877C251.618 146.927 251.555 146.968 251.483 147C251.412 147.029 251.337 147.043 251.258 147.043C251.179 147.043 251.104 147.029 251.032 147C250.964 146.968 250.903 146.927 250.85 146.877C250.796 146.823 250.753 146.762 250.721 146.694C250.688 146.623 250.672 146.546 250.672 146.463ZM250.071 152.065V151.356H250.409C250.728 151.356 250.986 151.256 251.183 151.056C251.405 150.826 251.516 150.504 251.516 150.089V147.897H252.461V150.202C252.479 150.56 252.588 150.843 252.789 151.05C252.989 151.254 253.242 151.356 253.546 151.356H253.906V152.065H253.546C252.919 152.065 252.413 151.865 252.026 151.464L251.988 151.426L251.945 151.469C251.559 151.867 251.047 152.065 250.409 152.065H250.071ZM254.072 148.429C254.133 148.272 254.207 148.125 254.292 147.989C254.382 147.849 254.484 147.724 254.599 147.613C254.831 147.387 255.109 147.217 255.431 147.103C255.75 146.988 256.101 146.931 256.484 146.931C257.547 146.931 258.292 147.337 258.718 148.15C258.972 148.633 259.166 149.491 259.298 150.723C259.348 151.16 259.39 151.475 259.422 151.668C259.425 151.682 259.427 151.697 259.427 151.711C259.427 151.793 259.391 151.867 259.32 151.931C259.241 152.006 259.137 152.049 259.008 152.06C258.976 152.064 258.946 152.065 258.917 152.065H253.53V151.356L258.428 151.362C258.414 151.236 258.392 151.043 258.364 150.782C258.249 149.761 258.106 149.05 257.934 148.649C257.648 147.976 257.164 147.64 256.484 147.64C256.244 147.64 256.027 147.674 255.834 147.742C255.644 147.81 255.481 147.91 255.345 148.042C255.266 148.118 255.198 148.202 255.141 148.295C255.077 148.392 255.023 148.499 254.98 148.617L254.072 148.429ZM255.764 145.609C255.764 145.527 255.78 145.45 255.812 145.378C255.845 145.307 255.888 145.244 255.941 145.19C255.995 145.137 256.056 145.096 256.124 145.067C256.196 145.035 256.271 145.019 256.35 145.019C256.428 145.019 256.504 145.035 256.575 145.067C256.647 145.096 256.709 145.137 256.763 145.19C256.817 145.244 256.858 145.307 256.887 145.378C256.919 145.45 256.935 145.527 256.935 145.609C256.935 145.692 256.919 145.769 256.887 145.84C256.858 145.908 256.817 145.969 256.763 146.023C256.709 146.073 256.647 146.114 256.575 146.146C256.504 146.175 256.428 146.189 256.35 146.189C256.271 146.189 256.196 146.175 256.124 146.146C256.056 146.114 255.995 146.073 255.941 146.023C255.888 145.969 255.845 145.908 255.812 145.84C255.78 145.769 255.764 145.692 255.764 145.609ZM261.458 145.856V151.711H260.518V145.856H261.458Z" fill="#3E3E3E"/>
<g filter="url(#filter0_d_2732_497)">
<mask id="path-7-inside-1_2732_497" fill="white">
<path d="M38 164C38 161.791 39.7909 160 42 160H103C105.209 160 107 161.791 107 164V179H38V164Z"/>
</mask>
<path d="M38 164C38 161.791 39.7909 160 42 160H103C105.209 160 107 161.791 107 164V179H38V164Z" fill="white"/>
<path d="M38 160H107H38ZM107 179.3H38V178.7H107V179.3ZM38 179V160V179ZM107 160V179V160Z" fill="#E8E8E8" mask="url(#path-7-inside-1_2732_497)"/>
<path d="M81.2571 172.641C81.4084 172.502 81.5366 172.369 81.6416 172.242C81.7515 172.11 81.8369 171.988 81.8979 171.875C82.0566 171.578 82.136 171.237 82.136 170.854V168.521H82.7769V170.835C82.7769 171.287 82.6816 171.692 82.4912 172.051C82.4155 172.195 82.313 172.344 82.1836 172.498C82.064 172.642 81.9211 172.79 81.7551 172.941L81.2571 172.641ZM84.1501 167.129V170.217C84.1501 170.414 84.2173 170.579 84.3516 170.711C84.4639 170.823 84.5908 170.879 84.7324 170.879H85.5234V171.363H84.7324C84.3784 171.363 84.0806 171.242 83.8389 171C83.6191 170.781 83.5093 170.519 83.5093 170.217V167.129H84.1501ZM86.135 167.605C86.135 167.549 86.146 167.497 86.168 167.448C86.1899 167.399 86.2192 167.356 86.2559 167.32C86.2925 167.283 86.334 167.255 86.3804 167.236C86.4292 167.214 86.4805 167.203 86.5342 167.203C86.5879 167.203 86.6392 167.214 86.688 167.236C86.7368 167.255 86.7795 167.283 86.8162 167.32C86.8528 167.356 86.8809 167.399 86.9004 167.448C86.9224 167.497 86.9333 167.549 86.9333 167.605C86.9333 167.662 86.9224 167.714 86.9004 167.763C86.8809 167.809 86.8528 167.851 86.8162 167.887C86.7795 167.922 86.7368 167.95 86.688 167.972C86.6392 167.991 86.5879 168.001 86.5342 168.001C86.4805 168.001 86.4292 167.991 86.3804 167.972C86.334 167.95 86.2925 167.922 86.2559 167.887C86.2192 167.851 86.1899 167.809 86.168 167.763C86.146 167.714 86.135 167.662 86.135 167.605ZM85.2708 171.363V170.879H85.5015C85.7188 170.879 85.8945 170.811 86.0288 170.674C86.1802 170.518 86.2559 170.298 86.2559 170.015V168.521H86.9004V170.092C86.9126 170.336 86.9871 170.529 87.1238 170.671C87.2605 170.81 87.4326 170.879 87.6401 170.879H87.8855V171.363H87.6401C87.2129 171.363 86.8674 171.226 86.6038 170.953L86.5781 170.927L86.5488 170.956C86.2852 171.227 85.936 171.363 85.5015 171.363H85.2708ZM88.9512 172.377C88.9512 172.321 88.9622 172.269 88.9841 172.22C89.0061 172.171 89.0354 172.128 89.072 172.092C89.1086 172.055 89.1514 172.026 89.2002 172.004C89.249 171.984 89.3015 171.974 89.3577 171.974C89.4114 171.974 89.4614 171.984 89.5078 172.004C89.5566 172.026 89.5981 172.055 89.6323 172.092C89.6689 172.128 89.697 172.171 89.7166 172.22C89.7385 172.269 89.7495 172.321 89.7495 172.377C89.7495 172.433 89.7385 172.485 89.7166 172.531C89.697 172.58 89.6689 172.621 89.6323 172.656C89.5981 172.692 89.5566 172.72 89.5078 172.74C89.4614 172.762 89.4114 172.773 89.3577 172.773C89.3015 172.773 89.249 172.762 89.2002 172.74C89.1514 172.72 89.1086 172.692 89.072 172.656C89.0354 172.621 89.0061 172.58 88.9841 172.531C88.9622 172.485 88.9512 172.433 88.9512 172.377ZM87.9954 172.377C87.9954 172.321 88.0063 172.269 88.0283 172.22C88.0503 172.171 88.0796 172.128 88.1162 172.092C88.1528 172.055 88.1943 172.026 88.2407 172.004C88.2896 171.984 88.3408 171.974 88.3945 171.974C88.4482 171.974 88.4995 171.984 88.5483 172.004C88.5972 172.026 88.6399 172.055 88.6765 172.092C88.7131 172.128 88.7412 172.171 88.7607 172.22C88.7827 172.269 88.7937 172.321 88.7937 172.377C88.7937 172.433 88.7827 172.485 88.7607 172.531C88.7412 172.58 88.7131 172.621 88.6765 172.656C88.6399 172.692 88.5972 172.72 88.5483 172.74C88.4995 172.762 88.4482 172.773 88.3945 172.773C88.3408 172.773 88.2896 172.762 88.2407 172.74C88.1943 172.72 88.1528 172.692 88.1162 172.656C88.0796 172.621 88.0503 172.58 88.0283 172.531C88.0063 172.485 87.9954 172.433 87.9954 172.377ZM87.6292 171.363V170.879H87.8599C88.0771 170.879 88.2529 170.811 88.3872 170.674C88.5386 170.518 88.6143 170.298 88.6143 170.015V168.521H89.2588V170.092C89.271 170.336 89.3455 170.529 89.4822 170.671C89.6189 170.81 89.791 170.879 89.9985 170.879H90.2439V171.363H89.9985C89.5713 171.363 89.2258 171.226 88.9622 170.953L88.9365 170.927L88.9072 170.956C88.6436 171.227 88.2944 171.363 87.8599 171.363H87.6292ZM90.8994 172.399C90.8994 172.343 90.9104 172.291 90.9324 172.242C90.9543 172.193 90.9836 172.15 91.0203 172.114C91.0569 172.077 91.0984 172.048 91.1448 172.026C91.1936 172.006 91.2449 171.996 91.2986 171.996C91.3523 171.996 91.4036 172.006 91.4524 172.026C91.5012 172.048 91.5439 172.077 91.5806 172.114C91.6172 172.15 91.6453 172.193 91.6648 172.242C91.6868 172.291 91.6978 172.343 91.6978 172.399C91.6978 172.455 91.6868 172.507 91.6648 172.553C91.6453 172.602 91.6172 172.643 91.5806 172.677C91.5439 172.714 91.5012 172.742 91.4524 172.762C91.4036 172.784 91.3523 172.795 91.2986 172.795C91.2449 172.795 91.1936 172.784 91.1448 172.762C91.0984 172.742 91.0569 172.714 91.0203 172.677C90.9836 172.643 90.9543 172.602 90.9324 172.553C90.9104 172.507 90.8994 172.455 90.8994 172.399ZM89.9875 171.363V170.879H90.2183C90.4355 170.879 90.6113 170.811 90.7456 170.674C90.897 170.518 90.9727 170.298 90.9727 170.015V168.521H91.6172V170.092C91.6294 170.336 91.7039 170.529 91.8406 170.671C91.9773 170.81 92.1494 170.879 92.3569 170.879H92.6023V171.363H92.3569C91.9297 171.363 91.5842 171.226 91.3206 170.953L91.2949 170.927L91.2656 170.956C91.002 171.227 90.6528 171.363 90.2183 171.363H89.9875ZM93.6497 172.377C93.6497 172.321 93.6606 172.269 93.6826 172.22C93.7046 172.171 93.7339 172.128 93.7705 172.092C93.8071 172.055 93.8499 172.026 93.8987 172.004C93.9475 171.984 94 171.974 94.0562 171.974C94.1099 171.974 94.1599 171.984 94.2063 172.004C94.2551 172.026 94.2966 172.055 94.3308 172.092C94.3674 172.128 94.3955 172.171 94.415 172.22C94.437 172.269 94.448 172.321 94.448 172.377C94.448 172.433 94.437 172.485 94.415 172.531C94.3955 172.58 94.3674 172.621 94.3308 172.656C94.2966 172.692 94.2551 172.72 94.2063 172.74C94.1599 172.762 94.1099 172.773 94.0562 172.773C94 172.773 93.9475 172.762 93.8987 172.74C93.8499 172.72 93.8071 172.692 93.7705 172.656C93.7339 172.621 93.7046 172.58 93.6826 172.531C93.6606 172.485 93.6497 172.433 93.6497 172.377ZM92.6938 172.377C92.6938 172.321 92.7048 172.269 92.7268 172.22C92.7488 172.171 92.7781 172.128 92.8147 172.092C92.8513 172.055 92.8928 172.026 92.9392 172.004C92.988 171.984 93.0393 171.974 93.093 171.974C93.1467 171.974 93.198 171.984 93.2468 172.004C93.2957 172.026 93.3384 172.055 93.375 172.092C93.4116 172.128 93.4397 172.171 93.4592 172.22C93.4812 172.269 93.4922 172.321 93.4922 172.377C93.4922 172.433 93.4812 172.485 93.4592 172.531C93.4397 172.58 93.4116 172.621 93.375 172.656C93.3384 172.692 93.2957 172.72 93.2468 172.74C93.198 172.762 93.1467 172.773 93.093 172.773C93.0393 172.773 92.988 172.762 92.9392 172.74C92.8928 172.72 92.8513 172.692 92.8147 172.656C92.7781 172.621 92.7488 172.58 92.7268 172.531C92.7048 172.485 92.6938 172.433 92.6938 172.377ZM94.7263 168.521V170.217C94.7263 170.519 94.6165 170.781 94.3967 171C94.155 171.242 93.8572 171.363 93.5032 171.363H92.3459V170.879H93.5032C93.6448 170.879 93.7717 170.823 93.884 170.711C94.0183 170.579 94.0854 170.414 94.0854 170.217V168.521H94.7263ZM97.147 172.641C97.2983 172.502 97.4265 172.369 97.5315 172.242C97.6414 172.11 97.7268 171.988 97.7878 171.875C97.8733 171.712 97.9246 171.541 97.9417 171.363H97.2202C96.6807 171.363 96.2449 171.189 95.9128 170.843C95.6125 170.533 95.4624 170.13 95.4624 169.634C95.4624 169.104 95.6077 168.685 95.8982 168.375C96.218 168.038 96.6599 167.868 97.2239 167.865H97.2349C97.5571 167.865 97.8452 167.922 98.0991 168.034C98.4531 168.188 98.6301 168.406 98.6301 168.689V170.835C98.6301 171.287 98.5227 171.692 98.3079 172.051C98.2322 172.195 98.1296 172.344 98.0002 172.498C97.8806 172.642 97.7378 172.79 97.5718 172.941L97.147 172.641ZM97.9893 168.689C97.9893 168.589 97.9185 168.509 97.7769 168.448C97.6206 168.379 97.4399 168.345 97.2349 168.345H97.2239C96.8821 168.345 96.6147 168.448 96.4219 168.653C96.2095 168.877 96.1033 169.205 96.1033 169.634C96.1033 170.027 96.2131 170.336 96.4329 170.561C96.6379 170.773 96.9004 170.879 97.2202 170.879V170.883H97.9893V168.689Z" fill="#6F6F6F"/>
<mask id="path-10-inside-2_2732_497" fill="white">
<path d="M38 179H107V198H38V179Z"/>
</mask>
<path d="M38 179H107V198H38V179Z" fill="white"/>
<path d="M107 197.7H38V198.3H107V197.7Z" fill="#E8E8E8" mask="url(#path-10-inside-2_2732_497)"/>
<path d="M61.0459 190.363H60.8921C60.6333 190.363 60.3513 190.291 60.0461 190.147C60.051 190.193 60.0535 190.241 60.0535 190.29C60.0535 190.399 60.0413 190.502 60.0168 190.597C59.9216 190.958 59.658 191.227 59.2258 191.403C58.9011 191.537 58.5081 191.605 58.0466 191.608C57.6682 191.608 57.335 191.57 57.0469 191.494C56.5586 191.365 56.1802 191.15 55.9116 190.85C55.6479 190.559 55.5161 190.21 55.5161 189.802C55.5161 189.636 55.5271 189.483 55.5491 189.341C55.5686 189.192 55.6003 189.053 55.6443 188.924L56.2668 189.037C56.2302 189.145 56.2034 189.262 56.1863 189.389C56.1667 189.521 56.157 189.658 56.157 189.802C56.157 190.11 56.2522 190.37 56.4426 190.583C56.6331 190.792 56.9053 190.945 57.2593 191.04C57.4717 191.096 57.7207 191.125 58.0063 191.125H58.043C58.397 191.125 58.6887 191.077 58.9182 190.982C59.1746 190.879 59.3308 190.72 59.387 190.506C59.4041 190.437 59.4126 190.365 59.4126 190.29C59.4126 190.038 59.3149 189.849 59.1196 189.722C59.0024 189.649 58.7937 189.577 58.4934 189.506L58.4678 189.502L58.6252 189.037C58.8108 189.064 58.9902 189.109 59.1636 189.173C59.3125 189.219 59.4382 189.273 59.5408 189.334C59.5994 189.363 59.6848 189.407 59.7971 189.466C60.2634 189.741 60.6284 189.879 60.8921 189.879H61.0459V190.363ZM57.9514 192.476C57.9514 192.42 57.9624 192.367 57.9844 192.318C58.0063 192.27 58.0356 192.227 58.0723 192.19C58.1089 192.154 58.1516 192.124 58.2004 192.102C58.2493 192.083 58.3018 192.073 58.3579 192.073C58.4116 192.073 58.4617 192.083 58.5081 192.102C58.5569 192.124 58.5984 192.154 58.6326 192.19C58.6692 192.227 58.6973 192.27 58.7168 192.318C58.7388 192.367 58.7498 192.42 58.7498 192.476C58.7498 192.532 58.7388 192.583 58.7168 192.63C58.6973 192.678 58.6692 192.72 58.6326 192.754C58.5984 192.791 58.5569 192.819 58.5081 192.838C58.4617 192.86 58.4116 192.871 58.3579 192.871C58.3018 192.871 58.2493 192.86 58.2004 192.838C58.1516 192.819 58.1089 192.791 58.0723 192.754C58.0356 192.72 58.0063 192.678 57.9844 192.63C57.9624 192.583 57.9514 192.532 57.9514 192.476ZM56.9956 192.476C56.9956 192.42 57.0066 192.367 57.0286 192.318C57.0505 192.27 57.0798 192.227 57.1165 192.19C57.1531 192.154 57.1946 192.124 57.241 192.102C57.2898 192.083 57.3411 192.073 57.3948 192.073C57.4485 192.073 57.4998 192.083 57.5486 192.102C57.5974 192.124 57.6401 192.154 57.6768 192.19C57.7134 192.227 57.7415 192.27 57.761 192.318C57.783 192.367 57.7939 192.42 57.7939 192.476C57.7939 192.532 57.783 192.583 57.761 192.63C57.7415 192.678 57.7134 192.72 57.6768 192.754C57.6401 192.791 57.5974 192.819 57.5486 192.838C57.4998 192.86 57.4485 192.871 57.3948 192.871C57.3411 192.871 57.2898 192.86 57.241 192.838C57.1946 192.819 57.1531 192.791 57.1165 192.754C57.0798 192.72 57.0505 192.678 57.0286 192.63C57.0066 192.583 56.9956 192.532 56.9956 192.476ZM65.3928 189.879C65.7102 189.879 65.9714 189.773 66.1765 189.561C66.3962 189.336 66.5061 189.027 66.5061 188.634C66.5061 188.205 66.3999 187.876 66.1875 187.649C65.9946 187.447 65.7273 187.345 65.3855 187.345H63.353C63.0112 187.345 62.7439 187.447 62.551 187.649C62.3386 187.876 62.2324 188.205 62.2324 188.634V189.879H65.3928ZM61.5806 189.879V188.469C61.5708 187.859 61.5073 187.467 61.3901 187.294L61.9065 186.983C61.97 187.088 62.0249 187.252 62.0713 187.477C62.3472 187.072 62.7744 186.867 63.353 186.862H65.3855C65.9495 186.862 66.3914 187.033 66.7112 187.375C67.0017 187.682 67.147 188.102 67.147 188.634C67.147 189.13 66.9968 189.533 66.6965 189.843C66.3645 190.189 65.9299 190.363 65.3928 190.363H60.7932V189.879H61.5806ZM63.3457 186.129C63.3457 186.073 63.3567 186.021 63.3787 185.972C63.4006 185.923 63.4299 185.88 63.4666 185.844C63.5032 185.807 63.5447 185.779 63.5911 185.76C63.6399 185.738 63.6912 185.727 63.7449 185.727C63.7986 185.727 63.8499 185.738 63.8987 185.76C63.9475 185.779 63.9902 185.807 64.0269 185.844C64.0635 185.88 64.0916 185.923 64.1111 185.972C64.1331 186.021 64.144 186.073 64.144 186.129C64.144 186.186 64.1331 186.238 64.1111 186.287C64.0916 186.333 64.0635 186.375 64.0269 186.411C63.9902 186.446 63.9475 186.474 63.8987 186.496C63.8499 186.515 63.7986 186.525 63.7449 186.525C63.6912 186.525 63.6399 186.515 63.5911 186.496C63.5447 186.474 63.5032 186.446 63.4666 186.411C63.4299 186.375 63.4006 186.333 63.3787 186.287C63.3567 186.238 63.3457 186.186 63.3457 186.129ZM68.5203 186.129V190.121H67.8794V186.129H68.5203ZM71.0215 190.363C70.7554 190.353 70.5222 190.29 70.322 190.172C70.261 190.492 70.1597 190.785 70.0181 191.051C69.9424 191.195 69.8398 191.344 69.7104 191.498C69.5908 191.642 69.448 191.79 69.282 191.941L68.8572 191.641C69.0085 191.502 69.1367 191.369 69.2417 191.242C69.3516 191.11 69.437 190.988 69.498 190.875C69.6372 190.617 69.7068 190.325 69.7068 190C69.7068 189.947 69.7043 189.892 69.6995 189.835V187.521H70.3403V189.118C70.3574 189.35 70.4319 189.534 70.5637 189.671C70.7004 189.81 70.8726 189.879 71.0801 189.879H71.3218V190.363H71.0215ZM72.4351 186.543C72.4351 186.487 72.446 186.435 72.468 186.386C72.49 186.337 72.5193 186.294 72.5559 186.258C72.5925 186.221 72.6353 186.193 72.6841 186.173C72.7329 186.151 72.7854 186.14 72.8416 186.14C72.8953 186.14 72.9453 186.151 72.9917 186.173C73.0405 186.193 73.082 186.221 73.1162 186.258C73.1528 186.294 73.1809 186.337 73.2004 186.386C73.2224 186.435 73.2334 186.487 73.2334 186.543C73.2334 186.599 73.2224 186.652 73.2004 186.701C73.1809 186.747 73.1528 186.789 73.1162 186.825C73.082 186.859 73.0405 186.887 72.9917 186.909C72.9453 186.929 72.8953 186.939 72.8416 186.939C72.7854 186.939 72.7329 186.929 72.6841 186.909C72.6353 186.887 72.5925 186.859 72.5559 186.825C72.5193 186.789 72.49 186.747 72.468 186.701C72.446 186.652 72.4351 186.599 72.4351 186.543ZM71.4792 186.543C71.4792 186.487 71.4902 186.435 71.5122 186.386C71.5342 186.337 71.5635 186.294 71.6001 186.258C71.6367 186.221 71.6782 186.193 71.7246 186.173C71.7734 186.151 71.8247 186.14 71.8784 186.14C71.9321 186.14 71.9834 186.151 72.0322 186.173C72.0811 186.193 72.1238 186.221 72.1604 186.258C72.197 186.294 72.2251 186.337 72.2446 186.386C72.2666 186.435 72.2776 186.487 72.2776 186.543C72.2776 186.599 72.2666 186.652 72.2446 186.701C72.2251 186.747 72.197 186.789 72.1604 186.825C72.1238 186.859 72.0811 186.887 72.0322 186.909C71.9834 186.929 71.9321 186.939 71.8784 186.939C71.8247 186.939 71.7734 186.929 71.7246 186.909C71.6782 186.887 71.6367 186.859 71.6001 186.825C71.5635 186.789 71.5342 186.747 71.5122 186.701C71.4902 186.652 71.4792 186.599 71.4792 186.543ZM71.0691 190.363V189.879H71.2998C71.5171 189.879 71.6929 189.811 71.8271 189.674C71.9785 189.518 72.0542 189.298 72.0542 189.015V187.521H72.6987V189.092C72.7109 189.336 72.7854 189.529 72.9221 189.671C73.0588 189.81 73.231 189.879 73.4385 189.879H73.6838V190.363H73.4385C73.0112 190.363 72.6658 190.226 72.4021 189.953L72.3765 189.927L72.3472 189.956C72.0835 190.227 71.7344 190.363 71.2998 190.363H71.0691ZM75.2878 186.129C75.2878 186.073 75.2988 186.021 75.3208 185.972C75.3428 185.923 75.3721 185.88 75.4087 185.844C75.4453 185.807 75.4868 185.779 75.5332 185.76C75.582 185.738 75.6333 185.727 75.687 185.727C75.7407 185.727 75.792 185.738 75.8408 185.76C75.8896 185.779 75.9324 185.807 75.969 185.844C76.0056 185.88 76.0337 185.923 76.0532 185.972C76.0752 186.021 76.0862 186.073 76.0862 186.129C76.0862 186.186 76.0752 186.238 76.0532 186.287C76.0337 186.333 76.0056 186.375 75.969 186.411C75.9324 186.446 75.8896 186.474 75.8408 186.496C75.792 186.515 75.7407 186.525 75.687 186.525C75.6333 186.525 75.582 186.515 75.5332 186.496C75.4868 186.474 75.4453 186.446 75.4087 186.411C75.3721 186.375 75.3428 186.333 75.3208 186.287C75.2988 186.238 75.2878 186.186 75.2878 186.129ZM76.8223 188.634C76.8223 188.2 76.7161 187.871 76.5037 187.649C76.3132 187.447 76.0447 187.345 75.698 187.345C75.3562 187.345 75.0901 187.447 74.8997 187.649C74.6848 187.876 74.5774 188.205 74.5774 188.634C74.5774 189.027 74.6873 189.336 74.907 189.561C75.1121 189.773 75.3745 189.879 75.6943 189.879C76.0239 189.879 76.29 189.776 76.4927 189.568C76.7124 189.344 76.8223 189.032 76.8223 188.634ZM74.4236 189.879C74.4114 189.867 74.3992 189.855 74.387 189.843C74.0867 189.533 73.9365 189.13 73.9365 188.634C73.9365 188.102 74.0818 187.682 74.3723 187.375C74.6946 187.033 75.1365 186.862 75.698 186.862C76.2644 186.862 76.7075 187.031 77.0273 187.371C77.3179 187.678 77.4631 188.1 77.4631 188.634C77.4631 189.135 77.3118 189.54 77.009 189.85C76.677 190.192 76.2388 190.363 75.6943 190.363H73.4275V189.879H74.4236ZM78.8401 186.129V190.121H78.1992V186.129H78.8401ZM83.2017 190.363C82.9355 190.353 82.7024 190.29 82.5022 190.172C82.4412 190.492 82.3398 190.785 82.1982 191.051C82.1226 191.195 82.02 191.344 81.8906 191.498C81.771 191.642 81.6282 191.79 81.4622 191.941L81.0374 191.641C81.1887 191.502 81.3169 191.369 81.4219 191.242C81.5317 191.11 81.6172 190.988 81.6782 190.875C81.8174 190.617 81.887 190.325 81.887 190C81.887 189.947 81.8845 189.892 81.8796 189.835V187.521H82.5205V189.118C82.5376 189.35 82.6121 189.534 82.7439 189.671C82.8806 189.81 83.0527 189.879 83.2603 189.879H83.502V190.363H83.2017ZM86.8894 188.634C86.8894 188.2 86.7832 187.871 86.5708 187.649C86.3804 187.447 86.1118 187.345 85.7651 187.345C85.4233 187.345 85.1572 187.447 84.9668 187.649C84.752 187.876 84.6445 188.205 84.6445 188.634C84.6445 189.027 84.7544 189.336 84.9741 189.561C85.1792 189.773 85.4417 189.879 85.7615 189.879C86.0911 189.879 86.3572 189.776 86.5598 189.568C86.7795 189.344 86.8894 189.032 86.8894 188.634ZM85.7615 190.363C85.2219 190.363 84.7861 190.189 84.4541 189.843C84.4419 189.831 84.4297 189.818 84.4175 189.806C84.3809 189.857 84.3394 189.907 84.293 189.956C84.0293 190.227 83.6814 190.363 83.2493 190.363V189.879C83.4666 189.879 83.6423 189.811 83.7766 189.674C83.928 189.518 84.0037 189.298 84.0037 189.015V188.634C84.0037 188.102 84.1489 187.682 84.4395 187.375C84.7617 187.033 85.2036 186.862 85.7651 186.862C86.3315 186.862 86.7747 187.031 87.0945 187.371C87.385 187.678 87.5303 188.1 87.5303 188.634C87.5303 189.135 87.3789 189.54 87.0762 189.85C87.0664 189.86 87.0566 189.87 87.0469 189.879H87.9258V190.363H85.7615ZM89.1453 186.492C89.1453 186.436 89.1562 186.383 89.1782 186.334C89.2002 186.286 89.2295 186.243 89.2661 186.206C89.3027 186.17 89.3455 186.142 89.3943 186.122C89.4431 186.1 89.4956 186.089 89.5518 186.089C89.6055 186.089 89.6555 186.1 89.7019 186.122C89.7507 186.142 89.7922 186.17 89.8264 186.206C89.863 186.243 89.8911 186.286 89.9106 186.334C89.9326 186.383 89.9436 186.436 89.9436 186.492C89.9436 186.548 89.9326 186.601 89.9106 186.649C89.8911 186.696 89.863 186.737 89.8264 186.774C89.7922 186.808 89.7507 186.836 89.7019 186.858C89.6555 186.878 89.6055 186.887 89.5518 186.887C89.4956 186.887 89.4431 186.878 89.3943 186.858C89.3455 186.836 89.3027 186.808 89.2661 186.774C89.2295 186.737 89.2002 186.696 89.1782 186.649C89.1562 186.601 89.1453 186.548 89.1453 186.492ZM88.1895 186.492C88.1895 186.436 88.2004 186.383 88.2224 186.334C88.2444 186.286 88.2737 186.243 88.3103 186.206C88.3469 186.17 88.3884 186.142 88.4348 186.122C88.4836 186.1 88.5349 186.089 88.5886 186.089C88.6423 186.089 88.6936 186.1 88.7424 186.122C88.7913 186.142 88.834 186.17 88.8706 186.206C88.9072 186.243 88.9353 186.286 88.9548 186.334C88.9768 186.383 88.9878 186.436 88.9878 186.492C88.9878 186.548 88.9768 186.601 88.9548 186.649C88.9353 186.696 88.9072 186.737 88.8706 186.774C88.834 186.808 88.7913 186.836 88.7424 186.858C88.6936 186.878 88.6423 186.887 88.5886 186.887C88.5349 186.887 88.4836 186.878 88.4348 186.858C88.3884 186.836 88.3469 186.808 88.3103 186.774C88.2737 186.737 88.2444 186.696 88.2224 186.649C88.2004 186.601 88.1895 186.548 88.1895 186.492ZM90.0535 187.521V189.217C90.0535 189.519 89.9436 189.781 89.7239 190C89.4822 190.242 89.1843 190.363 88.8303 190.363H87.6731V189.879H88.8303C88.9719 189.879 89.0989 189.823 89.2112 189.711C89.3455 189.579 89.4126 189.414 89.4126 189.217V187.521H90.0535ZM93.3164 187.689C93.3164 187.589 93.2456 187.509 93.104 187.448C92.9478 187.379 92.7671 187.345 92.562 187.345H92.551C92.2092 187.345 91.9419 187.448 91.749 187.653C91.5366 187.877 91.4304 188.205 91.4304 188.634C91.4304 189.027 91.5403 189.336 91.76 189.561C91.9651 189.773 92.2275 189.879 92.5474 189.879V189.883H93.3164V187.689ZM93.9023 190.363C93.8511 190.609 93.762 190.839 93.635 191.051C93.5593 191.195 93.4568 191.344 93.3274 191.498C93.2078 191.642 93.0649 191.79 92.8989 191.941L92.4741 191.641C92.6255 191.502 92.7537 191.369 92.8586 191.242C92.9685 191.11 93.054 190.988 93.115 190.875C93.2004 190.712 93.2517 190.541 93.2688 190.363H92.5474C92.0078 190.363 91.572 190.189 91.24 189.843C90.9397 189.533 90.7896 189.13 90.7896 188.634C90.7896 188.104 90.9348 187.685 91.2253 187.375C91.5452 187.038 91.9871 186.868 92.551 186.865H92.562C92.8843 186.865 93.1724 186.922 93.4263 187.034C93.7803 187.188 93.9573 187.406 93.9573 187.689V189.879H94.6091V190.363H93.9023ZM92.1372 186.155C92.0811 186.062 92.0481 185.962 92.0383 185.855C92.0359 185.833 92.0347 185.811 92.0347 185.789C92.0347 185.72 92.0469 185.656 92.0713 185.595C92.1519 185.37 92.3313 185.258 92.6096 185.258C92.7878 185.258 92.9355 185.304 93.0527 185.397C93.1577 185.48 93.2249 185.594 93.2542 185.738L92.8403 185.789C92.8208 185.708 92.7903 185.65 92.7488 185.613C92.7146 185.589 92.6682 185.576 92.6096 185.576C92.5461 185.576 92.501 185.611 92.4741 185.679C92.4644 185.713 92.4595 185.751 92.4595 185.792V185.836C92.4644 185.895 92.4802 185.95 92.5071 186.001C92.5535 186.089 92.6108 186.14 92.6792 186.155H93.3347V186.47H91.8992V186.155H92.1372ZM97.9929 188.634C97.9929 188.2 97.8867 187.871 97.6743 187.649C97.4839 187.447 97.2153 187.345 96.8687 187.345C96.5269 187.345 96.2607 187.447 96.0703 187.649C95.8555 187.876 95.748 188.205 95.748 188.634C95.748 189.027 95.8579 189.336 96.0776 189.561C96.2827 189.773 96.5452 189.879 96.865 189.879C97.1946 189.879 97.4607 189.776 97.6633 189.568C97.8831 189.344 97.9929 189.032 97.9929 188.634ZM95.1072 188.634C95.1072 188.102 95.2524 187.682 95.543 187.375C95.8652 187.033 96.3071 186.862 96.8687 186.862C97.4351 186.862 97.8782 187.031 98.198 187.371C98.4885 187.678 98.6338 188.1 98.6338 188.634C98.6338 189.135 98.4824 189.54 98.1797 189.85C97.8477 190.192 97.4094 190.363 96.865 190.363C96.3254 190.363 95.8896 190.189 95.5576 189.843C95.5454 189.831 95.5332 189.818 95.521 189.806C95.4844 189.857 95.4429 189.907 95.3965 189.956C95.1328 190.227 94.7849 190.363 94.3528 190.363V189.879C94.5701 189.879 94.7458 189.811 94.8801 189.674C95.0315 189.518 95.1072 189.298 95.1072 189.015V188.634Z" fill="#6F6F6F"/>
<mask id="path-13-inside-3_2732_497" fill="white">
<path d="M38 198H107V213C107 215.209 105.209 217 103 217H42C39.7909 217 38 215.209 38 213V198Z"/>
</mask>
<path d="M38 198H107V213C107 215.209 105.209 217 103 217H42C39.7909 217 38 215.209 38 213V198Z" fill="white"/>
<path d="M38 198H107H38ZM107 213C107 215.375 105.075 217.3 102.7 217.3H42.3C39.9252 217.3 38 215.375 38 213C38 215.043 39.7909 216.7 42 216.7H103C105.209 216.7 107 215.043 107 213ZM38 217V198V217ZM107 198V217V198Z" fill="#E8E8E8" mask="url(#path-13-inside-3_2732_497)"/>
<path d="M67.5132 209.363H67.3594C67.1006 209.363 66.8186 209.291 66.5134 209.147C66.5183 209.193 66.5208 209.241 66.5208 209.29C66.5208 209.399 66.5085 209.502 66.4841 209.597C66.3889 209.958 66.1252 210.227 65.6931 210.403C65.3684 210.537 64.9753 210.605 64.5139 210.608C64.1355 210.608 63.8022 210.57 63.5142 210.494C63.0259 210.365 62.6475 210.15 62.3789 209.85C62.1152 209.559 61.9834 209.21 61.9834 208.802C61.9834 208.636 61.9944 208.483 62.0164 208.341C62.0359 208.192 62.0676 208.053 62.1116 207.924L62.7341 208.037C62.6975 208.145 62.6707 208.262 62.6536 208.389C62.634 208.521 62.6243 208.658 62.6243 208.802C62.6243 209.11 62.7195 209.37 62.9099 209.583C63.1003 209.792 63.3726 209.945 63.7266 210.04C63.939 210.096 64.188 210.125 64.4736 210.125H64.5103C64.8643 210.125 65.156 210.077 65.3855 209.982C65.6418 209.879 65.7981 209.72 65.8542 209.506C65.8713 209.437 65.8799 209.365 65.8799 209.29C65.8799 209.038 65.7822 208.849 65.5869 208.722C65.4697 208.649 65.261 208.577 64.9607 208.506L64.9351 208.502L65.0925 208.037C65.2781 208.064 65.4575 208.109 65.6309 208.173C65.7798 208.219 65.9055 208.273 66.0081 208.334C66.0667 208.363 66.1521 208.407 66.2644 208.466C66.7307 208.741 67.0957 208.879 67.3594 208.879H67.5132V209.363ZM64.4187 211.476C64.4187 211.42 64.4297 211.367 64.4517 211.318C64.4736 211.27 64.5029 211.227 64.5396 211.19C64.5762 211.154 64.6189 211.124 64.6677 211.102C64.7166 211.083 64.769 211.073 64.8252 211.073C64.8789 211.073 64.929 211.083 64.9753 211.102C65.0242 211.124 65.0657 211.154 65.0999 211.19C65.1365 211.227 65.1646 211.27 65.1841 211.318C65.2061 211.367 65.217 211.42 65.217 211.476C65.217 211.532 65.2061 211.583 65.1841 211.63C65.1646 211.678 65.1365 211.72 65.0999 211.754C65.0657 211.791 65.0242 211.819 64.9753 211.838C64.929 211.86 64.8789 211.871 64.8252 211.871C64.769 211.871 64.7166 211.86 64.6677 211.838C64.6189 211.819 64.5762 211.791 64.5396 211.754C64.5029 211.72 64.4736 211.678 64.4517 211.63C64.4297 211.583 64.4187 211.532 64.4187 211.476ZM63.4629 211.476C63.4629 211.42 63.4739 211.367 63.4958 211.318C63.5178 211.27 63.5471 211.227 63.5837 211.19C63.6204 211.154 63.6619 211.124 63.7083 211.102C63.7571 211.083 63.8083 211.073 63.8621 211.073C63.9158 211.073 63.967 211.083 64.0159 211.102C64.0647 211.124 64.1074 211.154 64.144 211.19C64.1807 211.227 64.2087 211.27 64.2283 211.318C64.2502 211.367 64.2612 211.42 64.2612 211.476C64.2612 211.532 64.2502 211.583 64.2283 211.63C64.2087 211.678 64.1807 211.72 64.144 211.754C64.1074 211.791 64.0647 211.819 64.0159 211.838C63.967 211.86 63.9158 211.871 63.8621 211.871C63.8083 211.871 63.7571 211.86 63.7083 211.838C63.6619 211.819 63.6204 211.791 63.5837 211.754C63.5471 211.72 63.5178 211.678 63.4958 211.63C63.4739 211.583 63.4629 211.532 63.4629 211.476ZM70.9006 207.634C70.9006 207.2 70.7944 206.871 70.582 206.649C70.3916 206.447 70.123 206.345 69.7764 206.345C69.4346 206.345 69.1685 206.447 68.978 206.649C68.7632 206.876 68.6558 207.205 68.6558 207.634C68.6558 208.027 68.7656 208.336 68.9854 208.561C69.1904 208.773 69.4529 208.879 69.7727 208.879C70.1023 208.879 70.3684 208.776 70.571 208.568C70.7908 208.344 70.9006 208.032 70.9006 207.634ZM68.0149 207.634C68.0149 207.102 68.1602 206.682 68.4507 206.375C68.7729 206.033 69.2148 205.862 69.7764 205.862C70.3428 205.862 70.7859 206.031 71.1057 206.371C71.3962 206.678 71.5415 207.1 71.5415 207.634C71.5415 208.135 71.3901 208.54 71.0874 208.85C70.7554 209.192 70.3171 209.363 69.7727 209.363C69.2332 209.363 68.7974 209.189 68.4653 208.843C68.4531 208.831 68.4409 208.818 68.4287 208.806C68.3921 208.857 68.3506 208.907 68.3042 208.956C68.0405 209.227 67.6926 209.363 67.2605 209.363V208.879C67.4778 208.879 67.6536 208.811 67.7878 208.674C67.9392 208.518 68.0149 208.298 68.0149 208.015V207.634ZM72.9148 205.129V208.217C72.9148 208.414 72.9819 208.579 73.1162 208.711C73.2285 208.823 73.3555 208.879 73.4971 208.879H74.2881V209.363H73.4971C73.1431 209.363 72.8452 209.242 72.6035 209C72.3838 208.781 72.2739 208.519 72.2739 208.217V205.129H72.9148ZM75.4014 205.543C75.4014 205.487 75.4124 205.435 75.4343 205.386C75.4563 205.337 75.4856 205.294 75.5222 205.258C75.5588 205.221 75.6016 205.193 75.6504 205.173C75.6992 205.151 75.7517 205.14 75.8079 205.14C75.8616 205.14 75.9116 205.151 75.958 205.173C76.0068 205.193 76.0483 205.221 76.0825 205.258C76.1191 205.294 76.1472 205.337 76.1667 205.386C76.1887 205.435 76.1997 205.487 76.1997 205.543C76.1997 205.599 76.1887 205.652 76.1667 205.701C76.1472 205.747 76.1191 205.789 76.0825 205.825C76.0483 205.859 76.0068 205.887 75.958 205.909C75.9116 205.929 75.8616 205.939 75.8079 205.939C75.7517 205.939 75.6992 205.929 75.6504 205.909C75.6016 205.887 75.5588 205.859 75.5222 205.825C75.4856 205.789 75.4563 205.747 75.4343 205.701C75.4124 205.652 75.4014 205.599 75.4014 205.543ZM74.4456 205.543C74.4456 205.487 74.4565 205.435 74.4785 205.386C74.5005 205.337 74.5298 205.294 74.5664 205.258C74.603 205.221 74.6445 205.193 74.6909 205.173C74.7397 205.151 74.791 205.14 74.8447 205.14C74.8984 205.14 74.9497 205.151 74.9985 205.173C75.0474 205.193 75.0901 205.221 75.1267 205.258C75.1633 205.294 75.1914 205.337 75.2109 205.386C75.2329 205.435 75.2439 205.487 75.2439 205.543C75.2439 205.599 75.2329 205.652 75.2109 205.701C75.1914 205.747 75.1633 205.789 75.1267 205.825C75.0901 205.859 75.0474 205.887 74.9985 205.909C74.9497 205.929 74.8984 205.939 74.8447 205.939C74.791 205.939 74.7397 205.929 74.6909 205.909C74.6445 205.887 74.603 205.859 74.5664 205.825C74.5298 205.789 74.5005 205.747 74.4785 205.701C74.4565 205.652 74.4456 205.599 74.4456 205.543ZM74.0354 209.363V208.879H74.2661C74.4834 208.879 74.6592 208.811 74.7935 208.674C74.9448 208.518 75.0205 208.298 75.0205 208.015V206.521H75.665V208.092C75.6772 208.336 75.7517 208.529 75.8884 208.671C76.0251 208.81 76.1973 208.879 76.4048 208.879H76.6501V209.363H76.4048C75.9775 209.363 75.6321 209.226 75.3684 208.953L75.3428 208.927L75.3135 208.956C75.0498 209.227 74.7007 209.363 74.2661 209.363H74.0354ZM77.7598 205.543C77.7598 205.487 77.7708 205.435 77.7927 205.386C77.8147 205.337 77.844 205.294 77.8806 205.258C77.9172 205.221 77.96 205.193 78.0088 205.173C78.0576 205.151 78.1101 205.14 78.1663 205.14C78.22 205.14 78.27 205.151 78.3164 205.173C78.3652 205.193 78.4067 205.221 78.4409 205.258C78.4775 205.294 78.5056 205.337 78.5251 205.386C78.5471 205.435 78.5581 205.487 78.5581 205.543C78.5581 205.599 78.5471 205.652 78.5251 205.701C78.5056 205.747 78.4775 205.789 78.4409 205.825C78.4067 205.859 78.3652 205.887 78.3164 205.909C78.27 205.929 78.22 205.939 78.1663 205.939C78.1101 205.939 78.0576 205.929 78.0088 205.909C77.96 205.887 77.9172 205.859 77.8806 205.825C77.844 205.789 77.8147 205.747 77.7927 205.701C77.7708 205.652 77.7598 205.599 77.7598 205.543ZM76.804 205.543C76.804 205.487 76.8149 205.435 76.8369 205.386C76.8589 205.337 76.8882 205.294 76.9248 205.258C76.9614 205.221 77.0029 205.193 77.0493 205.173C77.0981 205.151 77.1494 205.14 77.2031 205.14C77.2568 205.14 77.3081 205.151 77.3569 205.173C77.4058 205.193 77.4485 205.221 77.4851 205.258C77.5217 205.294 77.5498 205.337 77.5693 205.386C77.5913 205.435 77.6023 205.487 77.6023 205.543C77.6023 205.599 77.5913 205.652 77.5693 205.701C77.5498 205.747 77.5217 205.789 77.4851 205.825C77.4485 205.859 77.4058 205.887 77.3569 205.909C77.3081 205.929 77.2568 205.939 77.2031 205.939C77.1494 205.939 77.0981 205.929 77.0493 205.909C77.0029 205.887 76.9614 205.859 76.9248 205.825C76.8882 205.789 76.8589 205.747 76.8369 205.701C76.8149 205.652 76.804 205.599 76.804 205.543ZM76.3938 209.363V208.879H76.6245C76.8418 208.879 77.0176 208.811 77.1519 208.674C77.3032 208.518 77.3789 208.298 77.3789 208.015V206.521H78.0234V208.092C78.0356 208.336 78.1101 208.529 78.2468 208.671C78.3835 208.81 78.5557 208.879 78.7632 208.879H79.0085V209.363H78.7632C78.3359 209.363 77.9905 209.226 77.7268 208.953L77.7012 208.927L77.6719 208.956C77.4082 209.227 77.0591 209.363 76.6245 209.363H76.3938ZM79.1221 206.884C79.1636 206.776 79.2136 206.676 79.2722 206.583C79.3333 206.488 79.4028 206.403 79.481 206.327C79.6396 206.173 79.8289 206.057 80.0486 205.979C80.2659 205.901 80.5051 205.862 80.7664 205.862C81.4915 205.862 81.9993 206.139 82.2898 206.693C82.4631 207.023 82.595 207.607 82.6853 208.447C82.7195 208.745 82.7476 208.96 82.7695 209.092C82.772 209.102 82.7732 209.111 82.7732 209.121C82.7732 209.177 82.7488 209.227 82.7 209.271C82.6462 209.323 82.5754 209.352 82.4875 209.359C82.4656 209.362 82.4448 209.363 82.4253 209.363H78.7522V208.879L82.092 208.883C82.0823 208.798 82.0676 208.666 82.0481 208.488C81.97 207.792 81.8723 207.307 81.7551 207.034C81.5598 206.575 81.2302 206.345 80.7664 206.345C80.6028 206.345 80.4551 206.368 80.3232 206.415C80.1938 206.461 80.0828 206.53 79.99 206.62C79.9363 206.671 79.8899 206.729 79.8508 206.792C79.8069 206.858 79.7703 206.931 79.741 207.012L79.1221 206.884ZM80.2756 204.961C80.2756 204.905 80.2866 204.852 80.3086 204.803C80.3306 204.755 80.3599 204.712 80.3965 204.675C80.4331 204.639 80.4746 204.611 80.521 204.591C80.5698 204.569 80.6211 204.558 80.6748 204.558C80.7285 204.558 80.7798 204.569 80.8286 204.591C80.8774 204.611 80.9202 204.639 80.9568 204.675C80.9934 204.712 81.0215 204.755 81.041 204.803C81.063 204.852 81.074 204.905 81.074 204.961C81.074 205.017 81.063 205.07 81.041 205.118C81.0215 205.165 80.9934 205.206 80.9568 205.243C80.9202 205.277 80.8774 205.305 80.8286 205.327C80.7798 205.347 80.7285 205.356 80.6748 205.356C80.6211 205.356 80.5698 205.347 80.521 205.327C80.4746 205.305 80.4331 205.277 80.3965 205.243C80.3599 205.206 80.3306 205.165 80.3086 205.118C80.2866 205.07 80.2756 205.017 80.2756 204.961ZM84.1575 205.129V209.121H83.5166V205.129H84.1575ZM90.1121 209.363C90.0437 209.641 89.9119 209.879 89.7166 210.077C89.3845 210.419 88.9451 210.59 88.3982 210.59C87.9343 210.59 87.5364 210.416 87.2043 210.07C86.9041 209.76 86.7539 209.357 86.7539 208.861C86.7539 208.724 86.7637 208.594 86.7832 208.469C86.8027 208.347 86.8333 208.229 86.8748 208.114L87.3838 208.242C87.3521 208.328 87.3276 208.423 87.3105 208.528C87.2935 208.63 87.2849 208.741 87.2849 208.861C87.2849 209.254 87.3948 209.563 87.6145 209.788C87.8171 210 88.0784 210.106 88.3982 210.106C88.7302 210.106 88.9976 210.002 89.2002 209.795C89.4199 209.57 89.5298 209.259 89.5298 208.861V205.129H90.1707V208.879H90.8591V209.363H90.1121ZM92.335 205.14C92.335 205.084 92.3459 205.032 92.3679 204.983C92.3899 204.934 92.4192 204.891 92.4558 204.855C92.4924 204.818 92.5339 204.79 92.5803 204.771C92.6292 204.749 92.6804 204.738 92.7341 204.738C92.7878 204.738 92.8391 204.749 92.8879 204.771C92.9368 204.79 92.9795 204.818 93.0161 204.855C93.0527 204.891 93.0808 204.934 93.1003 204.983C93.1223 205.032 93.1333 205.084 93.1333 205.14C93.1333 205.197 93.1223 205.249 93.1003 205.298C93.0808 205.344 93.0527 205.386 93.0161 205.422C92.9795 205.457 92.9368 205.485 92.8879 205.507C92.8391 205.526 92.7878 205.536 92.7341 205.536C92.6804 205.536 92.6292 205.526 92.5803 205.507C92.5339 205.485 92.4924 205.457 92.4558 205.422C92.4192 205.386 92.3899 205.344 92.3679 205.298C92.3459 205.249 92.335 205.197 92.335 205.14ZM93.8511 207.634C93.8511 207.2 93.7449 206.871 93.5325 206.649C93.342 206.447 93.0735 206.345 92.7268 206.345C92.385 206.345 92.1189 206.447 91.9285 206.649C91.7136 206.876 91.6062 207.205 91.6062 207.634C91.6062 208.027 91.7161 208.336 91.9358 208.561C92.1409 208.773 92.4033 208.879 92.7231 208.879C93.0527 208.879 93.3188 208.776 93.5215 208.568C93.7412 208.344 93.8511 208.032 93.8511 207.634ZM91.4524 208.879L91.4158 208.843C91.1155 208.533 90.9653 208.13 90.9653 207.634C90.9653 207.102 91.1106 206.682 91.4011 206.375C91.7234 206.033 92.1653 205.862 92.7268 205.862C93.2932 205.862 93.7363 206.031 94.0562 206.371C94.3467 206.678 94.4919 207.1 94.4919 207.634C94.4919 208.135 94.3406 208.54 94.0378 208.85L94.0085 208.879H94.8582V209.363H90.6028V208.879H91.4524ZM94.9717 206.884C95.0132 206.776 95.0632 206.676 95.1218 206.583C95.1829 206.488 95.2524 206.403 95.3306 206.327C95.4893 206.173 95.6785 206.057 95.8982 205.979C96.1155 205.901 96.3547 205.862 96.616 205.862C97.3411 205.862 97.8489 206.139 98.1394 206.693C98.3127 207.023 98.4446 207.607 98.5349 208.447C98.5691 208.745 98.5972 208.96 98.6191 209.092C98.6216 209.102 98.6228 209.111 98.6228 209.121C98.6228 209.177 98.5984 209.227 98.5496 209.271C98.4958 209.323 98.425 209.352 98.3372 209.359C98.3152 209.362 98.2944 209.363 98.2749 209.363H94.6018V208.879L97.9417 208.883C97.9319 208.798 97.9172 208.666 97.8977 208.488C97.8196 207.792 97.7219 207.307 97.6047 207.034C97.4094 206.575 97.0798 206.345 96.616 206.345C96.4524 206.345 96.3047 206.368 96.1729 206.415C96.0435 206.461 95.9324 206.53 95.8396 206.62C95.7859 206.671 95.7395 206.729 95.7004 206.792C95.6565 206.858 95.6199 206.931 95.5906 207.012L94.9717 206.884Z" fill="#6F6F6F"/>
</g>
<path d="M0 1C33.6667 1 124.5 24 132 147.5" stroke="url(#paint0_linear_2732_497)"/>
<circle cx="3" cy="3" r="4.5" transform="matrix(-1 0 0 1 134.5 148)" fill="white" stroke="#D4088C" stroke-width="3"/>
<defs>
<filter id="filter0_d_2732_497" x="32" y="154" width="81" height="69" filterUnits="userSpaceOnUse" color-interpolation-filters="sRGB">
<feFlood flood-opacity="0" result="BackgroundImageFix"/>
<feColorMatrix in="SourceAlpha" type="matrix" values="0 0 0 0 0 0 0 0 0 0 0 0 0 0 0 0 0 0 127 0" result="hardAlpha"/>
<feOffset/>
<feGaussianBlur stdDeviation="3"/>
<feComposite in2="hardAlpha" operator="out"/>
<feColorMatrix type="matrix" values="0 0 0 0 0 0 0 0 0 0 0 0 0 0 0 0 0 0 0.25 0"/>
<feBlend mode="normal" in2="BackgroundImageFix" result="effect1_dropShadow_2732_497"/>
<feBlend mode="normal" in="SourceGraphic" in2="effect1_dropShadow_2732_497" result="shape"/>
</filter>
<linearGradient id="paint0_linear_2732_497" x1="137.5" y1="86" x2="13.5" y2="-2" gradientUnits="userSpaceOnUse">
<stop stop-color="#D4088C"/>
<stop offset="1" stop-color="#D4088C" stop-opacity="0"/>
</linearGradient>
</defs>
</svg>
