<svg width="213" height="107" viewBox="0 0 213 107" fill="none" xmlns="http://www.w3.org/2000/svg">
<g filter="url(#filter0_b_3461_6295)">
<rect width="213" height="107" rx="10" fill="#0A0114" fill-opacity="0.9"/>
<path d="M125.854 27.519C125.854 27.4217 125.873 27.3307 125.911 27.2461C125.949 27.1615 126 27.0874 126.063 27.0239C126.127 26.9604 126.201 26.9118 126.286 26.8779C126.37 26.8398 126.461 26.8208 126.559 26.8208C126.652 26.8208 126.738 26.8398 126.819 26.8779C126.903 26.9118 126.975 26.9604 127.035 27.0239C127.098 27.0874 127.147 27.1615 127.181 27.2461C127.219 27.3307 127.238 27.4217 127.238 27.519C127.238 27.6164 127.219 27.7074 127.181 27.792C127.147 27.8724 127.098 27.9443 127.035 28.0078C126.975 28.0671 126.903 28.1157 126.819 28.1538C126.738 28.1877 126.652 28.2046 126.559 28.2046C126.461 28.2046 126.37 28.1877 126.286 28.1538C126.201 28.1157 126.127 28.0671 126.063 28.0078C126 27.9443 125.949 27.8724 125.911 27.792C125.873 27.7074 125.854 27.6164 125.854 27.519ZM124.197 27.519C124.197 27.4217 124.216 27.3307 124.254 27.2461C124.292 27.1615 124.343 27.0874 124.407 27.0239C124.47 26.9604 124.542 26.9118 124.623 26.8779C124.707 26.8398 124.796 26.8208 124.889 26.8208C124.982 26.8208 125.071 26.8398 125.156 26.8779C125.24 26.9118 125.314 26.9604 125.378 27.0239C125.441 27.0874 125.49 27.1615 125.524 27.2461C125.562 27.3307 125.581 27.4217 125.581 27.519C125.581 27.6164 125.562 27.7074 125.524 27.792C125.49 27.8724 125.441 27.9443 125.378 28.0078C125.314 28.0671 125.24 28.1157 125.156 28.1538C125.071 28.1877 124.982 28.2046 124.889 28.2046C124.796 28.2046 124.707 28.1877 124.623 28.1538C124.542 28.1157 124.47 28.0671 124.407 28.0078C124.343 27.9443 124.292 27.8724 124.254 27.792C124.216 27.7074 124.197 27.6164 124.197 27.519ZM122.185 28.7314C122.092 28.9557 122.031 29.1483 122.001 29.3091C121.971 29.4657 121.957 29.6392 121.957 29.8296C121.957 30.5405 122.13 31.078 122.477 31.4419C122.786 31.7677 123.218 31.9307 123.772 31.9307H127.295C127.849 31.9307 128.281 31.7677 128.59 31.4419C128.937 31.078 129.11 30.5405 129.11 29.8296V27.8428H130.475V29.8296C130.475 30.7817 130.213 31.5392 129.688 32.1021C129.108 32.7157 128.311 33.0225 127.295 33.0225H123.962C122.947 33.0225 122.149 32.7157 121.569 32.1021C121.045 31.5392 120.782 30.7817 120.782 29.8296C120.782 29.5968 120.801 29.3683 120.839 29.144C120.882 28.924 120.958 28.6807 121.068 28.4141L122.185 28.7314ZM132.862 25.4307V30.9087C132.862 31.2176 132.965 31.4736 133.173 31.6768C133.342 31.846 133.533 31.9307 133.744 31.9307H135.242V33.0225H133.744C133.097 33.0225 132.551 32.8003 132.106 32.356C131.7 31.9497 131.497 31.4673 131.497 30.9087V25.4307H132.862ZM137.096 34.6538C137.096 34.5565 137.115 34.4655 137.153 34.3809C137.191 34.2962 137.242 34.2222 137.305 34.1587C137.369 34.0952 137.443 34.0444 137.527 34.0063C137.612 33.9725 137.703 33.9556 137.8 33.9556C137.893 33.9556 137.98 33.9725 138.061 34.0063C138.145 34.0444 138.217 34.0952 138.276 34.1587C138.34 34.2222 138.389 34.2962 138.422 34.3809C138.46 34.4655 138.479 34.5565 138.479 34.6538C138.479 34.7511 138.46 34.84 138.422 34.9204C138.389 35.005 138.34 35.077 138.276 35.1362C138.217 35.1997 138.145 35.2484 138.061 35.2822C137.98 35.3203 137.893 35.3394 137.8 35.3394C137.703 35.3394 137.612 35.3203 137.527 35.2822C137.443 35.2484 137.369 35.1997 137.305 35.1362C137.242 35.077 137.191 35.005 137.153 34.9204C137.115 34.84 137.096 34.7511 137.096 34.6538ZM135.439 34.6538C135.439 34.5565 135.458 34.4655 135.496 34.3809C135.534 34.2962 135.585 34.2222 135.648 34.1587C135.712 34.0952 135.784 34.0444 135.864 34.0063C135.949 33.9725 136.038 33.9556 136.131 33.9556C136.224 33.9556 136.313 33.9725 136.397 34.0063C136.482 34.0444 136.556 34.0952 136.62 34.1587C136.683 34.2222 136.732 34.2962 136.766 34.3809C136.804 34.4655 136.823 34.5565 136.823 34.6538C136.823 34.7511 136.804 34.84 136.766 34.9204C136.732 35.005 136.683 35.077 136.62 35.1362C136.556 35.1997 136.482 35.2484 136.397 35.2822C136.313 35.3203 136.224 35.3394 136.131 35.3394C136.038 35.3394 135.949 35.3203 135.864 35.2822C135.784 35.2484 135.712 35.1997 135.648 35.1362C135.585 35.077 135.534 35.005 135.496 34.9204C135.458 34.84 135.439 34.7511 135.439 34.6538ZM134.677 33.0225V31.9307H135.204C135.547 31.9307 135.822 31.8249 136.029 31.6133C136.266 31.3678 136.385 31.0166 136.385 30.5596V27.8428H137.756V30.6929C137.777 31.0822 137.893 31.3869 138.105 31.6069C138.317 31.8228 138.585 31.9307 138.911 31.9307H139.463V33.0225H138.911C138.137 33.0225 137.523 32.7876 137.07 32.3179C136.613 32.7876 135.991 33.0225 135.204 33.0225H134.677ZM140.765 30.9087V25.4307H142.129V30.9087C142.129 31.2176 142.233 31.4736 142.44 31.6768C142.61 31.846 142.8 31.9307 143.012 31.9307H144.135V33.0225H143.012C142.364 33.0225 141.837 32.8299 141.431 32.4448C141.046 32.8299 140.53 33.0225 139.882 33.0225H138.765V31.9307H139.882C140.094 31.9307 140.284 31.846 140.454 31.6768C140.661 31.4736 140.765 31.2176 140.765 30.9087ZM149.874 29.8994C149.874 29.18 149.7 28.6405 149.353 28.2808C149.048 27.9549 148.615 27.792 148.052 27.792C147.497 27.792 147.068 27.9549 146.763 28.2808C146.412 28.6489 146.236 29.1885 146.236 29.8994C146.236 30.5469 146.414 31.0526 146.77 31.4165C147.1 31.7593 147.525 31.9307 148.045 31.9307C148.583 31.9307 149.014 31.7635 149.34 31.4292C149.696 31.0653 149.874 30.5553 149.874 29.8994ZM148.045 33.0225C147.072 33.0225 146.302 32.7241 145.735 32.1274C145.722 32.1401 145.674 32.1909 145.589 32.2798C145.106 32.7749 144.431 33.0225 143.564 33.0225V31.9307C143.991 31.9307 144.309 31.8249 144.516 31.6133C144.753 31.3678 144.872 31.0166 144.872 30.5596V29.8994C144.872 28.943 145.134 28.1855 145.659 27.627C146.243 27.0091 147.04 26.7002 148.052 26.7002C149.072 26.7002 149.871 27.007 150.451 27.6206C150.976 28.1792 151.238 28.9388 151.238 29.8994C151.238 30.8008 151.018 31.4779 150.578 31.9307H151.924V33.0225H148.045ZM154.583 31.5625C154.795 31.7318 155.007 31.8587 155.218 31.9434C155.434 31.8587 155.648 31.7318 155.859 31.5625C156.376 31.152 156.731 30.5977 156.926 29.8994C157.01 29.582 157.053 29.2943 157.053 29.0361C157.053 28.6891 156.974 28.4141 156.818 28.2109C156.691 28.0459 156.507 27.9295 156.266 27.8618C156.092 27.8153 155.895 27.792 155.675 27.792H154.761C154.541 27.792 154.347 27.8153 154.177 27.8618C153.936 27.9295 153.752 28.0459 153.625 28.2109C153.468 28.4141 153.39 28.6891 153.39 29.0361C153.39 29.2943 153.432 29.582 153.517 29.8994C153.712 30.5977 154.067 31.152 154.583 31.5625ZM151.359 33.0225V31.9307H153.162C152.734 31.5456 152.408 30.9447 152.184 30.1279C152.074 29.7301 152.019 29.3662 152.019 29.0361C152.019 28.4818 152.165 28.0163 152.457 27.6396C152.757 27.2503 153.183 26.9816 153.733 26.8335C154.046 26.7446 154.389 26.7002 154.761 26.7002H155.675C156.052 26.7002 156.397 26.7446 156.71 26.8335C157.26 26.9858 157.683 27.2546 157.979 27.6396C158.271 28.0163 158.417 28.4818 158.417 29.0361C158.417 29.3662 158.362 29.7301 158.252 30.1279C158.032 30.9447 157.707 31.5456 157.275 31.9307H159.052V33.0225H151.359ZM161.845 25.4307V30.9087C161.845 31.4673 161.642 31.9497 161.236 32.356C160.792 32.8003 160.246 33.0225 159.598 33.0225H158.481V31.9307H159.598C159.81 31.9307 160 31.846 160.169 31.6768C160.377 31.4736 160.48 31.2176 160.48 30.9087V25.4307H161.845ZM164.359 25.4307V32.6035H162.994V25.4307H164.359Z" fill="white"/>
<rect x="173" y="20" width="20" height="20" rx="5" fill="#D4088C"/>
<path d="M179.62 25.9719C179.436 25.8998 179.226 25.943 179.084 26.0833L179.084 26.0839C178.943 26.2246 178.9 26.435 178.971 26.6194L181.732 33.6204L181.732 33.6211C181.808 33.8115 181.992 33.9367 182.197 33.9367H182.207L182.217 33.9359C182.391 33.9222 182.584 33.8223 182.664 33.6159L182.665 33.6147L183.51 31.394L185.995 33.8795L185.996 33.8801C186.118 34.0014 186.278 34.0622 186.438 34.0622C186.597 34.0622 186.757 34.0015 186.879 33.8795C187.123 33.6354 187.123 33.2396 186.879 32.9954L184.394 30.51L186.615 29.6649L186.615 29.6646C186.807 29.5909 186.935 29.4073 186.937 29.2011V29.1999C186.938 28.9936 186.812 28.8079 186.62 28.7321L179.621 25.9721L179.62 25.9719Z" fill="white"/>
<rect x="11" y="60" width="86" height="27" rx="6" fill="white" fill-opacity="0.1"/>
<path d="M26.3333 72.3335L24 74.6668L21.6667 72.3335" stroke="white" stroke-opacity="0.6" stroke-width="1.35" stroke-linecap="round" stroke-linejoin="round"/>
<path d="M37.2637 77.5854C37.2637 77.5031 37.2798 77.4261 37.312 77.3545C37.3442 77.2829 37.3872 77.2202 37.4409 77.1665C37.4946 77.1128 37.5555 77.0698 37.6235 77.0376C37.6951 77.009 37.7703 76.9946 37.8491 76.9946C37.9279 76.9946 38.0031 77.009 38.0747 77.0376C38.1463 77.0698 38.209 77.1128 38.2627 77.1665C38.3164 77.2202 38.3576 77.2829 38.3862 77.3545C38.4185 77.4261 38.4346 77.5031 38.4346 77.5854C38.4346 77.6678 38.4185 77.743 38.3862 77.811C38.3576 77.8826 38.3164 77.9435 38.2627 77.9937C38.209 78.0474 38.1463 78.0885 38.0747 78.1172C38.0031 78.1494 37.9279 78.1655 37.8491 78.1655C37.7703 78.1655 37.6951 78.1494 37.6235 78.1172C37.5555 78.0885 37.4946 78.0474 37.4409 77.9937C37.3872 77.9435 37.3442 77.8826 37.312 77.811C37.2798 77.743 37.2637 77.6678 37.2637 77.5854ZM36.1411 76.1729C35.2817 76.1729 34.6068 75.9132 34.1162 75.394C33.6722 74.9178 33.4502 74.2769 33.4502 73.4712C33.4502 73.2743 33.4663 73.0809 33.4985 72.8911C33.5343 72.7049 33.5988 72.499 33.6919 72.2734L34.6372 72.542C34.5584 72.7318 34.5065 72.8947 34.4814 73.0308C34.4564 73.1632 34.4438 73.3101 34.4438 73.4712C34.4438 74.0728 34.5907 74.5275 34.8843 74.8354C35.1457 75.1112 35.5109 75.249 35.98 75.249H39.4819C39.772 75.249 40.0047 75.1595 40.1802 74.9805C40.3807 74.7728 40.481 74.4756 40.481 74.0889V71.79H41.6411V74.2017C41.659 74.5311 41.7575 74.7889 41.9365 74.9751C42.1156 75.1577 42.3429 75.249 42.6187 75.249H43.0859V76.1729H42.6187C41.9634 76.1729 41.4442 75.9741 41.061 75.5767C40.6743 75.9741 40.1479 76.1729 39.4819 76.1729H36.1411ZM44.5469 77.5532C44.5469 77.4709 44.563 77.3939 44.5952 77.3223C44.6274 77.2507 44.6704 77.188 44.7241 77.1343C44.7778 77.0806 44.8405 77.0376 44.9121 77.0054C44.9837 76.9767 45.0607 76.9624 45.1431 76.9624C45.2218 76.9624 45.2952 76.9767 45.3633 77.0054C45.4349 77.0376 45.4958 77.0806 45.5459 77.1343C45.5996 77.188 45.6408 77.2507 45.6694 77.3223C45.7017 77.3939 45.7178 77.4709 45.7178 77.5532C45.7178 77.6356 45.7017 77.7108 45.6694 77.7788C45.6408 77.8504 45.5996 77.9113 45.5459 77.9614C45.4958 78.0151 45.4349 78.0563 45.3633 78.085C45.2952 78.1172 45.2218 78.1333 45.1431 78.1333C45.0607 78.1333 44.9837 78.1172 44.9121 78.085C44.8405 78.0563 44.7778 78.0151 44.7241 77.9614C44.6704 77.9113 44.6274 77.8504 44.5952 77.7788C44.563 77.7108 44.5469 77.6356 44.5469 77.5532ZM43.145 77.5532C43.145 77.4709 43.1611 77.3939 43.1934 77.3223C43.2256 77.2507 43.2686 77.188 43.3223 77.1343C43.376 77.0806 43.4368 77.0376 43.5049 77.0054C43.5765 76.9767 43.6517 76.9624 43.7305 76.9624C43.8092 76.9624 43.8844 76.9767 43.9561 77.0054C44.0277 77.0376 44.0903 77.0806 44.144 77.1343C44.1978 77.188 44.2389 77.2507 44.2676 77.3223C44.2998 77.3939 44.3159 77.4709 44.3159 77.5532C44.3159 77.6356 44.2998 77.7108 44.2676 77.7788C44.2389 77.8504 44.1978 77.9113 44.144 77.9614C44.0903 78.0151 44.0277 78.0563 43.9561 78.085C43.8844 78.1172 43.8092 78.1333 43.7305 78.1333C43.6517 78.1333 43.5765 78.1172 43.5049 78.085C43.4368 78.0563 43.376 78.0151 43.3223 77.9614C43.2686 77.9113 43.2256 77.8504 43.1934 77.7788C43.1611 77.7108 43.145 77.6356 43.145 77.5532ZM42.5005 76.1729V75.249H42.9463C43.2363 75.249 43.4691 75.1595 43.6445 74.9805C43.8451 74.7728 43.9453 74.4756 43.9453 74.0889V71.79H45.1055V74.2017C45.1234 74.5311 45.2218 74.7889 45.4009 74.9751C45.5799 75.1577 45.8073 75.249 46.083 75.249H46.5503V76.1729H46.083C45.4277 76.1729 44.9085 75.9741 44.5254 75.5767C44.1387 75.9741 43.6123 76.1729 42.9463 76.1729H42.5005ZM46.4644 72.5098C46.5575 72.2663 46.6488 72.0729 46.7383 71.9297C46.8314 71.7829 46.9388 71.6522 47.0605 71.5376C47.304 71.3013 47.5941 71.1222 47.9307 71.0005C48.2637 70.8823 48.6271 70.8232 49.021 70.8232C50.1274 70.8232 50.9045 71.2493 51.3521 72.1016C51.6099 72.5957 51.8068 73.4658 51.9429 74.7119C51.993 75.1452 52.0342 75.4567 52.0664 75.6465C52.07 75.668 52.0718 75.6895 52.0718 75.7109C52.0718 75.8255 52.0252 75.9258 51.9321 76.0117C51.8354 76.1012 51.7101 76.1532 51.5562 76.1675C51.5203 76.1711 51.4863 76.1729 51.4541 76.1729H45.9595V75.249L50.8472 75.2544C50.84 75.2078 50.8221 75.0539 50.7935 74.7925C50.6789 73.7827 50.5392 73.0827 50.3745 72.6924C50.106 72.0622 49.6548 71.7471 49.021 71.7471C48.7918 71.7471 48.5877 71.7793 48.4087 71.8438C48.2332 71.9046 48.0828 71.9959 47.9575 72.1177C47.8859 72.1893 47.8232 72.2681 47.7695 72.354C47.7087 72.4435 47.6478 72.5724 47.5869 72.7407L46.4644 72.5098ZM55.7886 76.1729C55.3768 76.1585 55.0599 76.0869 54.8379 75.958C54.7663 76.3376 54.6248 76.7261 54.4136 77.1235C54.299 77.342 54.1432 77.5675 53.9463 77.8003C53.7673 78.0151 53.5345 78.255 53.248 78.52L52.4424 77.9507C52.7253 77.6893 52.9437 77.4673 53.0977 77.2847C53.2516 77.0985 53.3716 76.9248 53.4575 76.7637C53.6545 76.402 53.7529 75.992 53.7529 75.5337C53.7529 75.4585 53.7493 75.3797 53.7422 75.2974V71.79H54.897V74.2339C54.9185 74.5454 55.0169 74.7925 55.1924 74.9751C55.3714 75.1577 55.5988 75.249 55.8745 75.249H56.3364V76.1729H55.7886ZM58.1196 70.3882C58.1196 70.3058 58.1357 70.2288 58.168 70.1572C58.2002 70.0856 58.2432 70.0229 58.2969 69.9692C58.3506 69.9155 58.4132 69.8743 58.4849 69.8457C58.5565 69.8135 58.6335 69.7974 58.7158 69.7974C58.7946 69.7974 58.868 69.8135 58.936 69.8457C59.0076 69.8743 59.0685 69.9155 59.1187 69.9692C59.1724 70.0229 59.2135 70.0856 59.2422 70.1572C59.2744 70.2288 59.2905 70.3058 59.2905 70.3882C59.2905 70.4705 59.2744 70.5475 59.2422 70.6191C59.2135 70.6872 59.1724 70.748 59.1187 70.8018C59.0685 70.8519 59.0076 70.8931 58.936 70.9253C58.868 70.9539 58.7946 70.9683 58.7158 70.9683C58.6335 70.9683 58.5565 70.9539 58.4849 70.9253C58.4132 70.8931 58.3506 70.8519 58.2969 70.8018C58.2432 70.748 58.2002 70.6872 58.168 70.6191C58.1357 70.5475 58.1196 70.4705 58.1196 70.3882ZM56.7178 70.3882C56.7178 70.3058 56.7339 70.2288 56.7661 70.1572C56.7983 70.0856 56.8413 70.0229 56.895 69.9692C56.9487 69.9155 57.0096 69.8743 57.0776 69.8457C57.1493 69.8135 57.2244 69.7974 57.3032 69.7974C57.382 69.7974 57.4572 69.8135 57.5288 69.8457C57.6004 69.8743 57.6631 69.9155 57.7168 69.9692C57.7705 70.0229 57.8117 70.0856 57.8403 70.1572C57.8726 70.2288 57.8887 70.3058 57.8887 70.3882C57.8887 70.4705 57.8726 70.5475 57.8403 70.6191C57.8117 70.6872 57.7705 70.748 57.7168 70.8018C57.6631 70.8519 57.6004 70.8931 57.5288 70.9253C57.4572 70.9539 57.382 70.9683 57.3032 70.9683C57.2244 70.9683 57.1493 70.9539 57.0776 70.9253C57.0096 70.8931 56.9487 70.8519 56.895 70.8018C56.8413 70.748 56.7983 70.6872 56.7661 70.6191C56.7339 70.5475 56.7178 70.4705 56.7178 70.3882ZM59.5591 71.79V74.3843C59.5591 74.8569 59.3872 75.2651 59.0435 75.6089C58.6675 75.9849 58.2056 76.1729 57.6577 76.1729H55.853V75.249H57.6577C57.8368 75.249 57.9979 75.1774 58.1411 75.0342C58.3166 74.8623 58.4043 74.6457 58.4043 74.3843V71.79H59.5591ZM69.1089 76.1729C68.382 76.1729 67.8145 75.9616 67.4062 75.5391L67.3579 75.4961C67.1789 75.693 66.9175 75.8577 66.5737 75.9902C66.2765 76.1084 65.9632 76.1675 65.6338 76.1675C65.5729 76.1675 65.5138 76.1657 65.4565 76.1621C65.0591 76.137 64.6938 76.026 64.3608 75.8291C63.5552 75.3672 63.1523 74.6009 63.1523 73.5303C63.1523 72.7246 63.3743 72.0837 63.8184 71.6074C64.3089 71.0918 64.9839 70.8322 65.8433 70.8286H65.8594C66.3464 70.8286 66.7832 70.9146 67.1699 71.0864C67.7321 71.3299 68.0132 71.6826 68.0132 72.1445V74.0889C68.0132 74.472 68.1134 74.7674 68.314 74.9751C68.493 75.1577 68.758 75.249 69.1089 75.249V76.1729ZM66.8584 72.1445C66.8584 72.0443 66.776 71.9583 66.6113 71.8867C66.3965 71.7936 66.1458 71.7471 65.8594 71.7471H65.8433C65.3742 71.7471 65.009 71.8867 64.7476 72.166C64.4539 72.474 64.3071 72.9287 64.3071 73.5303C64.3071 74.2858 64.5524 74.8068 65.043 75.0933C65.2041 75.1828 65.3742 75.2329 65.5532 75.2437C65.5819 75.2472 65.6105 75.249 65.6392 75.249C65.786 75.249 65.9292 75.2204 66.0688 75.1631C66.52 74.9876 66.7832 74.6278 66.8584 74.0835V72.1445ZM65.8003 69.5181C65.8003 69.4357 65.8164 69.3587 65.8486 69.2871C65.8809 69.2155 65.9238 69.1528 65.9775 69.0991C66.0312 69.0454 66.0939 69.0042 66.1655 68.9756C66.2371 68.9434 66.3141 68.9272 66.3965 68.9272C66.4753 68.9272 66.5487 68.9434 66.6167 68.9756C66.6883 69.0042 66.7492 69.0454 66.7993 69.0991C66.853 69.1528 66.8942 69.2155 66.9229 69.2871C66.9551 69.3587 66.9712 69.4357 66.9712 69.5181C66.9712 69.6004 66.9551 69.6774 66.9229 69.749C66.8942 69.8171 66.853 69.8779 66.7993 69.9316C66.7492 69.9818 66.6883 70.0229 66.6167 70.0552C66.5487 70.0838 66.4753 70.0981 66.3965 70.0981C66.3141 70.0981 66.2371 70.0838 66.1655 70.0552C66.0939 70.0229 66.0312 69.9818 65.9775 69.9316C65.9238 69.8779 65.8809 69.8171 65.8486 69.749C65.8164 69.6774 65.8003 69.6004 65.8003 69.5181ZM64.3984 69.5181C64.3984 69.4357 64.4146 69.3587 64.4468 69.2871C64.479 69.2155 64.522 69.1528 64.5757 69.0991C64.6294 69.0454 64.6903 69.0042 64.7583 68.9756C64.8299 68.9434 64.9051 68.9272 64.9839 68.9272C65.0627 68.9272 65.1379 68.9434 65.2095 68.9756C65.2811 69.0042 65.3438 69.0454 65.3975 69.0991C65.4512 69.1528 65.4924 69.2155 65.521 69.2871C65.5532 69.3587 65.5693 69.4357 65.5693 69.5181C65.5693 69.6004 65.5532 69.6774 65.521 69.749C65.4924 69.8171 65.4512 69.8779 65.3975 69.9316C65.3438 69.9818 65.2811 70.0229 65.2095 70.0552C65.1379 70.0838 65.0627 70.0981 64.9839 70.0981C64.9051 70.0981 64.8299 70.0838 64.7583 70.0552C64.6903 70.0229 64.6294 69.9818 64.5757 69.9316C64.522 69.8779 64.479 69.8171 64.4468 69.749C64.4146 69.6774 64.3984 69.6004 64.3984 69.5181ZM71.3647 69.749V74.3843C71.3647 74.8569 71.1929 75.2651 70.8491 75.6089C70.4731 75.9849 70.0112 76.1729 69.4634 76.1729H68.5181V75.249H69.4634C69.6424 75.249 69.8035 75.1774 69.9468 75.0342C70.1222 74.8623 70.21 74.6457 70.21 74.3843V69.749H71.3647ZM73.4917 69.749V74.3843C73.4917 74.6457 73.5794 74.8623 73.7549 75.0342C73.8981 75.1774 74.0592 75.249 74.2383 75.249H75.5059V76.1729H74.2383C73.6904 76.1729 73.2285 75.9849 72.8525 75.6089C72.5088 75.2651 72.3369 74.8569 72.3369 74.3843V69.749H73.4917ZM80.4365 74.0889C80.4365 74.472 80.5368 74.7674 80.7373 74.9751C80.9163 75.1577 81.1437 75.249 81.4194 75.249C81.7095 75.249 81.9422 75.1595 82.1177 74.9805C82.3182 74.7728 82.4185 74.4756 82.4185 74.0889V71.79H83.5786V74.0889C83.5786 74.6833 83.396 75.1685 83.0308 75.5444C82.6226 75.9634 82.0854 76.1729 81.4194 76.1729C80.7642 76.1729 80.245 75.9741 79.8618 75.5767C79.4715 75.9741 78.9434 76.1729 78.2773 76.1729C77.6221 76.1729 77.1029 75.9741 76.7197 75.5767C76.3294 75.9741 75.7655 76.1729 75.0278 76.1729V75.249C75.3895 75.249 75.6598 75.1595 75.8389 74.9805C76.0394 74.7728 76.1396 74.4756 76.1396 74.0889V71.79H77.2944V74.0889C77.2944 74.472 77.3947 74.7674 77.5952 74.9751C77.7743 75.1577 78.0016 75.249 78.2773 75.249C78.5674 75.249 78.8001 75.1595 78.9756 74.9805C79.1797 74.7728 79.2817 74.4756 79.2817 74.0889V71.79H80.4365V74.0889ZM83.9492 77.9561C84.2357 77.6911 84.4559 77.4673 84.6099 77.2847C84.7638 77.0985 84.8838 76.9266 84.9697 76.769C85.1953 76.3465 85.3081 75.8631 85.3081 75.3188V71.79H86.4629V75.292C86.4629 75.9723 86.3197 76.5828 86.0332 77.1235C85.9186 77.342 85.7629 77.5675 85.5659 77.8003C85.3869 78.0151 85.1541 78.2533 84.8677 78.5146L83.9492 77.9561Z" fill="white" fill-opacity="0.7"/>
<rect x="105" y="60" width="88" height="27" rx="6" fill="white" fill-opacity="0.1"/>
<path d="M120.333 72.3335L118 74.6668L115.667 72.3335" stroke="white" stroke-opacity="0.6" stroke-width="1.35" stroke-linecap="round" stroke-linejoin="round"/>
<path d="M131.958 75.3994C131.722 75.6608 131.432 75.8577 131.088 75.9902C130.791 76.1084 130.478 76.1675 130.148 76.1675C130.088 76.1675 130.028 76.1657 129.971 76.1621C129.574 76.137 129.208 76.026 128.875 75.8291C128.07 75.3672 127.667 74.6009 127.667 73.5303C127.667 72.7246 127.889 72.0837 128.333 71.6074C128.824 71.0918 129.499 70.8322 130.358 70.8286H130.374C130.861 70.8286 131.298 70.9146 131.685 71.0864C132.247 71.3299 132.528 71.6826 132.528 72.1445V74.0889C132.528 74.5257 132.338 74.9626 131.958 75.3994ZM131.373 72.1445C131.373 72.0443 131.291 71.9583 131.126 71.8867C130.911 71.7936 130.66 71.7471 130.374 71.7471H130.358C129.889 71.7471 129.524 71.8867 129.262 72.166C128.969 72.474 128.822 72.9287 128.822 73.5303C128.822 74.2858 129.067 74.8068 129.558 75.0933C129.719 75.1828 129.889 75.2329 130.068 75.2437C130.097 75.2472 130.125 75.249 130.154 75.249C130.301 75.249 130.444 75.2204 130.583 75.1631C131.035 74.9876 131.298 74.6278 131.373 74.0835V72.1445ZM130.288 69.8564C130.288 69.7741 130.304 69.6971 130.336 69.6255C130.369 69.5539 130.412 69.4912 130.465 69.4375C130.519 69.3838 130.582 69.3426 130.653 69.314C130.725 69.2817 130.802 69.2656 130.884 69.2656C130.963 69.2656 131.036 69.2817 131.104 69.314C131.176 69.3426 131.237 69.3838 131.287 69.4375C131.341 69.4912 131.382 69.5539 131.411 69.6255C131.443 69.6971 131.459 69.7741 131.459 69.8564C131.459 69.9388 131.443 70.0158 131.411 70.0874C131.382 70.1554 131.341 70.2163 131.287 70.27C131.237 70.3201 131.176 70.3613 131.104 70.3936C131.036 70.4222 130.963 70.4365 130.884 70.4365C130.802 70.4365 130.725 70.4222 130.653 70.3936C130.582 70.3613 130.519 70.3201 130.465 70.27C130.412 70.2163 130.369 70.1554 130.336 70.0874C130.304 70.0158 130.288 69.9388 130.288 69.8564ZM128.886 69.8564C128.886 69.7741 128.902 69.6971 128.935 69.6255C128.967 69.5539 129.01 69.4912 129.063 69.4375C129.117 69.3838 129.178 69.3426 129.246 69.314C129.318 69.2817 129.393 69.2656 129.472 69.2656C129.55 69.2656 129.626 69.2817 129.697 69.314C129.769 69.3426 129.832 69.3838 129.885 69.4375C129.939 69.4912 129.98 69.5539 130.009 69.6255C130.041 69.6971 130.057 69.7741 130.057 69.8564C130.057 69.9388 130.041 70.0158 130.009 70.0874C129.98 70.1554 129.939 70.2163 129.885 70.27C129.832 70.3201 129.769 70.3613 129.697 70.3936C129.626 70.4222 129.55 70.4365 129.472 70.4365C129.393 70.4365 129.318 70.4222 129.246 70.3936C129.178 70.3613 129.117 70.3201 129.063 70.27C129.01 70.2163 128.967 70.1554 128.935 70.0874C128.902 70.0158 128.886 69.9388 128.886 69.8564ZM137.099 72.1445C137.099 72.0443 137.016 71.9583 136.852 71.8867C136.637 71.7936 136.386 71.7471 136.1 71.7471H136.083C135.614 71.7471 135.249 71.8867 134.988 72.166C134.694 72.474 134.547 72.9287 134.547 73.5303C134.547 74.0781 134.698 74.506 134.999 74.814C135.278 75.104 135.674 75.249 136.186 75.249V75.2544H137.099V72.1445ZM138.151 76.1729C138.087 76.488 137.958 76.8066 137.765 77.1289C137.654 77.3438 137.5 77.5675 137.303 77.8003C137.124 78.0151 136.891 78.255 136.604 78.52L135.799 77.9507C136.082 77.6893 136.3 77.4673 136.454 77.2847C136.608 77.0985 136.728 76.9266 136.814 76.769C136.932 76.5399 137 76.3411 137.018 76.1729H136.078C135.255 76.1729 134.59 75.9079 134.085 75.3779C133.624 74.9017 133.393 74.2858 133.393 73.5303C133.393 72.7246 133.615 72.0837 134.059 71.6074C134.549 71.0918 135.224 70.8322 136.083 70.8286H136.1C136.587 70.8286 137.023 70.9146 137.41 71.0864C137.972 71.3299 138.253 71.6826 138.253 72.1445V75.249H139.209V76.1729H138.151ZM145.418 75.249C145.855 75.249 146.213 75.104 146.493 74.814C146.793 74.506 146.944 74.0781 146.944 73.5303C146.944 72.9287 146.797 72.4722 146.503 72.1606C146.242 71.8849 145.877 71.7471 145.408 71.7471H142.427C141.958 71.7471 141.592 71.8849 141.331 72.1606C141.037 72.4722 140.891 72.9287 140.891 73.5303V75.249H145.418ZM138.726 76.1729V75.249H139.87L139.73 75.1094V69.749H140.885V71.4731C141.222 71.0399 141.736 70.8232 142.427 70.8232H145.408C146.267 70.8232 146.942 71.0846 147.433 71.6074C147.877 72.0801 148.099 72.721 148.099 73.5303C148.099 74.2858 147.868 74.9017 147.406 75.3779L147.4 75.3833L147.535 75.249H148.727V76.1729H138.726ZM148.244 76.1729V75.249L153.131 75.2544C153.124 75.2078 153.106 75.0539 153.078 74.7925C152.963 73.7827 152.823 73.0827 152.659 72.6924C152.39 72.0622 151.939 71.7471 151.305 71.7471C151.076 71.7471 150.872 71.7793 150.693 71.8438C150.517 71.9046 150.367 71.9959 150.242 72.1177C150.17 72.1893 150.107 72.2681 150.054 72.354C149.993 72.4435 149.932 72.5724 149.871 72.7407L148.749 72.5098C148.842 72.2663 148.933 72.0729 149.022 71.9297C149.116 71.7829 149.223 71.6522 149.345 71.5376C149.588 71.3013 149.878 71.1222 150.215 71.0005C150.548 70.8823 150.911 70.8232 151.305 70.8232C152.412 70.8232 153.189 71.2493 153.636 72.1016C153.894 72.5957 154.091 73.4658 154.227 74.7119C154.256 74.9626 154.277 75.1416 154.292 75.249H155.135V76.1729H148.244ZM150.677 69.5342C150.677 69.4518 150.693 69.3748 150.725 69.3032C150.757 69.2316 150.8 69.1689 150.854 69.1152C150.908 69.0615 150.969 69.0203 151.037 68.9917C151.108 68.9595 151.183 68.9434 151.262 68.9434C151.341 68.9434 151.416 68.9595 151.488 68.9917C151.559 69.0203 151.622 69.0615 151.676 69.1152C151.729 69.1689 151.771 69.2316 151.799 69.3032C151.832 69.3748 151.848 69.4518 151.848 69.5342C151.848 69.6165 151.832 69.6935 151.799 69.7651C151.771 69.8332 151.729 69.894 151.676 69.9478C151.622 69.9979 151.559 70.0391 151.488 70.0713C151.416 70.0999 151.341 70.1143 151.262 70.1143C151.183 70.1143 151.108 70.0999 151.037 70.0713C150.969 70.0391 150.908 69.9979 150.854 69.9478C150.8 69.894 150.757 69.8332 150.725 69.7651C150.693 69.6935 150.677 69.6165 150.677 69.5342ZM157.396 69.749V74.3843C157.396 74.8569 157.224 75.2651 156.88 75.6089C156.504 75.9849 156.042 76.1729 155.495 76.1729H154.549V75.249H155.495C155.674 75.249 155.835 75.1774 155.978 75.0342C156.153 74.8623 156.241 74.6457 156.241 74.3843V69.749H157.396ZM159.523 69.749V75.8184H158.368V69.749H159.523ZM165.958 76.1729C165.546 76.1585 165.229 76.0869 165.007 75.958C164.935 76.3376 164.794 76.7261 164.583 77.1235C164.468 77.342 164.312 77.5675 164.115 77.8003C163.936 78.0151 163.703 78.255 163.417 78.52L162.611 77.9507C162.894 77.6893 163.113 77.4673 163.267 77.2847C163.421 77.0985 163.541 76.9248 163.626 76.7637C163.823 76.402 163.922 75.992 163.922 75.5337C163.922 75.4585 163.918 75.3797 163.911 75.2974V71.79H165.066V74.2339C165.087 74.5454 165.186 74.7925 165.361 74.9751C165.54 75.1577 165.768 75.249 166.043 75.249H166.505V76.1729H165.958ZM168.068 77.5532C168.068 77.4709 168.084 77.3939 168.117 77.3223C168.149 77.2507 168.192 77.188 168.246 77.1343C168.299 77.0806 168.362 77.0376 168.434 77.0054C168.505 76.9767 168.582 76.9624 168.665 76.9624C168.743 76.9624 168.817 76.9767 168.885 77.0054C168.956 77.0376 169.017 77.0806 169.067 77.1343C169.121 77.188 169.162 77.2507 169.191 77.3223C169.223 77.3939 169.239 77.4709 169.239 77.5532C169.239 77.6356 169.223 77.7108 169.191 77.7788C169.162 77.8504 169.121 77.9113 169.067 77.9614C169.017 78.0151 168.956 78.0563 168.885 78.085C168.817 78.1172 168.743 78.1333 168.665 78.1333C168.582 78.1333 168.505 78.1172 168.434 78.085C168.362 78.0563 168.299 78.0151 168.246 77.9614C168.192 77.9113 168.149 77.8504 168.117 77.7788C168.084 77.7108 168.068 77.6356 168.068 77.5532ZM166.667 77.5532C166.667 77.4709 166.683 77.3939 166.715 77.3223C166.747 77.2507 166.79 77.188 166.844 77.1343C166.897 77.0806 166.958 77.0376 167.026 77.0054C167.098 76.9767 167.173 76.9624 167.252 76.9624C167.331 76.9624 167.406 76.9767 167.478 77.0054C167.549 77.0376 167.612 77.0806 167.666 77.1343C167.719 77.188 167.76 77.2507 167.789 77.3223C167.821 77.3939 167.837 77.4709 167.837 77.5532C167.837 77.6356 167.821 77.7108 167.789 77.7788C167.76 77.8504 167.719 77.9113 167.666 77.9614C167.612 78.0151 167.549 78.0563 167.478 78.085C167.406 78.1172 167.331 78.1333 167.252 78.1333C167.173 78.1333 167.098 78.1172 167.026 78.085C166.958 78.0563 166.897 78.0151 166.844 77.9614C166.79 77.9113 166.747 77.8504 166.715 77.7788C166.683 77.7108 166.667 77.6356 166.667 77.5532ZM166.022 76.1729V75.249H166.468C166.758 75.249 166.991 75.1595 167.166 74.9805C167.367 74.7728 167.467 74.4756 167.467 74.0889V71.79H168.627V74.2017C168.645 74.5311 168.743 74.7889 168.922 74.9751C169.101 75.1577 169.329 75.249 169.604 75.249H170.072V76.1729H169.604C168.949 76.1729 168.43 75.9741 168.047 75.5767C167.66 75.9741 167.134 76.1729 166.468 76.1729H166.022ZM171.527 77.5532C171.527 77.4709 171.543 77.3939 171.576 77.3223C171.608 77.2507 171.651 77.188 171.705 77.1343C171.758 77.0806 171.821 77.0376 171.893 77.0054C171.964 76.9767 172.041 76.9624 172.124 76.9624C172.202 76.9624 172.276 76.9767 172.344 77.0054C172.415 77.0376 172.476 77.0806 172.526 77.1343C172.58 77.188 172.621 77.2507 172.65 77.3223C172.682 77.3939 172.698 77.4709 172.698 77.5532C172.698 77.6356 172.682 77.7108 172.65 77.7788C172.621 77.8504 172.58 77.9113 172.526 77.9614C172.476 78.0151 172.415 78.0563 172.344 78.085C172.276 78.1172 172.202 78.1333 172.124 78.1333C172.041 78.1333 171.964 78.1172 171.893 78.085C171.821 78.0563 171.758 78.0151 171.705 77.9614C171.651 77.9113 171.608 77.8504 171.576 77.7788C171.543 77.7108 171.527 77.6356 171.527 77.5532ZM170.125 77.5532C170.125 77.4709 170.142 77.3939 170.174 77.3223C170.206 77.2507 170.249 77.188 170.303 77.1343C170.356 77.0806 170.417 77.0376 170.485 77.0054C170.557 76.9767 170.632 76.9624 170.711 76.9624C170.79 76.9624 170.865 76.9767 170.937 77.0054C171.008 77.0376 171.071 77.0806 171.125 77.1343C171.178 77.188 171.219 77.2507 171.248 77.3223C171.28 77.3939 171.296 77.4709 171.296 77.5532C171.296 77.6356 171.28 77.7108 171.248 77.7788C171.219 77.8504 171.178 77.9113 171.125 77.9614C171.071 78.0151 171.008 78.0563 170.937 78.085C170.865 78.1172 170.79 78.1333 170.711 78.1333C170.632 78.1333 170.557 78.1172 170.485 78.085C170.417 78.0563 170.356 78.0151 170.303 77.9614C170.249 77.9113 170.206 77.8504 170.174 77.7788C170.142 77.7108 170.125 77.6356 170.125 77.5532ZM169.481 76.1729V75.249H169.927C170.217 75.249 170.45 75.1595 170.625 74.9805C170.826 74.7728 170.926 74.4756 170.926 74.0889V71.79H172.086V74.2017C172.104 74.5311 172.202 74.7889 172.381 74.9751C172.56 75.1577 172.788 75.249 173.063 75.249H173.531V76.1729H173.063C172.408 76.1729 171.889 75.9741 171.506 75.5767C171.119 75.9741 170.593 76.1729 169.927 76.1729H169.481ZM175.668 74.9375C175.847 75.0807 176.027 75.1882 176.206 75.2598C176.388 75.1882 176.569 75.0807 176.748 74.9375C177.185 74.5902 177.486 74.1211 177.65 73.5303C177.722 73.2617 177.758 73.0182 177.758 72.7998C177.758 72.5062 177.692 72.2734 177.559 72.1016C177.452 71.9619 177.296 71.8634 177.092 71.8062C176.945 71.7668 176.778 71.7471 176.592 71.7471H175.819C175.633 71.7471 175.468 71.7668 175.325 71.8062C175.121 71.8634 174.965 71.9619 174.857 72.1016C174.725 72.2734 174.659 72.5062 174.659 72.7998C174.659 73.0182 174.694 73.2617 174.766 73.5303C174.931 74.1211 175.232 74.5902 175.668 74.9375ZM172.94 76.1729V75.249H174.465C174.104 74.9232 173.828 74.4147 173.638 73.7236C173.545 73.387 173.499 73.0791 173.499 72.7998C173.499 72.3307 173.622 71.9368 173.869 71.6182C174.123 71.2887 174.483 71.0614 174.949 70.936C175.214 70.8608 175.504 70.8232 175.819 70.8232H176.592C176.911 70.8232 177.203 70.8608 177.468 70.936C177.933 71.0649 178.291 71.2923 178.542 71.6182C178.789 71.9368 178.913 72.3307 178.913 72.7998C178.913 73.0791 178.866 73.387 178.773 73.7236C178.587 74.4147 178.311 74.9232 177.946 75.249H179.45V76.1729H172.94ZM175.609 69.8511C175.609 69.7687 175.625 69.6917 175.658 69.6201C175.69 69.5485 175.733 69.4858 175.787 69.4321C175.84 69.3784 175.901 69.3372 175.969 69.3086C176.041 69.2764 176.116 69.2603 176.195 69.2603C176.274 69.2603 176.349 69.2764 176.42 69.3086C176.492 69.3372 176.555 69.3784 176.608 69.4321C176.662 69.4858 176.703 69.5485 176.732 69.6201C176.764 69.6917 176.78 69.7687 176.78 69.8511C176.78 69.9334 176.764 70.0104 176.732 70.082C176.703 70.1501 176.662 70.2109 176.608 70.2646C176.555 70.3148 176.492 70.356 176.42 70.3882C176.349 70.4168 176.274 70.4312 176.195 70.4312C176.116 70.4312 176.041 70.4168 175.969 70.3882C175.901 70.356 175.84 70.3148 175.787 70.2646C175.733 70.2109 175.69 70.1501 175.658 70.082C175.625 70.0104 175.609 69.9334 175.609 69.8511ZM181.125 70.3882C181.125 70.3058 181.142 70.2288 181.174 70.1572C181.206 70.0856 181.249 70.0229 181.303 69.9692C181.356 69.9155 181.419 69.8743 181.491 69.8457C181.562 69.8135 181.639 69.7974 181.722 69.7974C181.8 69.7974 181.874 69.8135 181.942 69.8457C182.014 69.8743 182.074 69.9155 182.125 69.9692C182.178 70.0229 182.219 70.0856 182.248 70.1572C182.28 70.2288 182.296 70.3058 182.296 70.3882C182.296 70.4705 182.28 70.5475 182.248 70.6191C182.219 70.6872 182.178 70.748 182.125 70.8018C182.074 70.8519 182.014 70.8931 181.942 70.9253C181.874 70.9539 181.8 70.9683 181.722 70.9683C181.639 70.9683 181.562 70.9539 181.491 70.9253C181.419 70.8931 181.356 70.8519 181.303 70.8018C181.249 70.748 181.206 70.6872 181.174 70.6191C181.142 70.5475 181.125 70.4705 181.125 70.3882ZM179.724 70.3882C179.724 70.3058 179.74 70.2288 179.772 70.1572C179.804 70.0856 179.847 70.0229 179.901 69.9692C179.955 69.9155 180.015 69.8743 180.083 69.8457C180.155 69.8135 180.23 69.7974 180.309 69.7974C180.388 69.7974 180.463 69.8135 180.535 69.8457C180.606 69.8743 180.669 69.9155 180.723 69.9692C180.776 70.0229 180.818 70.0856 180.846 70.1572C180.878 70.2288 180.895 70.3058 180.895 70.3882C180.895 70.4705 180.878 70.5475 180.846 70.6191C180.818 70.6872 180.776 70.748 180.723 70.8018C180.669 70.8519 180.606 70.8931 180.535 70.9253C180.463 70.9539 180.388 70.9683 180.309 70.9683C180.23 70.9683 180.155 70.9539 180.083 70.9253C180.015 70.8931 179.955 70.8519 179.901 70.8018C179.847 70.748 179.804 70.6872 179.772 70.6191C179.74 70.5475 179.724 70.4705 179.724 70.3882ZM182.565 71.79V74.3843C182.565 74.8569 182.393 75.2651 182.049 75.6089C181.673 75.9849 181.211 76.1729 180.664 76.1729H178.859V75.249H180.664C180.843 75.249 181.004 75.1774 181.147 75.0342C181.322 74.8623 181.41 74.6457 181.41 74.3843V71.79H182.565Z" fill="white" fill-opacity="0.7"/>
</g>
<defs>
<filter id="filter0_b_3461_6295" x="-4" y="-4" width="221" height="115" filterUnits="userSpaceOnUse" color-interpolation-filters="sRGB">
<feFlood flood-opacity="0" result="BackgroundImageFix"/>
<feGaussianBlur in="BackgroundImageFix" stdDeviation="2"/>
<feComposite in2="SourceAlpha" operator="in" result="effect1_backgroundBlur_3461_6295"/>
<feBlend mode="normal" in="SourceGraphic" in2="effect1_backgroundBlur_3461_6295" result="shape"/>
</filter>
</defs>
</svg>
