<svg width="213" height="140" viewBox="0 0 213 140" fill="none" xmlns="http://www.w3.org/2000/svg">
<g filter="url(#filter0_b_3461_6328)">
<rect width="213" height="140" rx="10" fill="#0A0114" fill-opacity="0.9"/>
<path d="M139.451 33.0225C138.592 33.0225 137.921 32.7728 137.438 32.2734L137.381 32.2227C137.17 32.4554 136.861 32.6501 136.455 32.8066C136.103 32.9463 135.733 33.0161 135.344 33.0161C135.272 33.0161 135.202 33.014 135.134 33.0098C134.665 32.9801 134.233 32.849 133.839 32.6162C132.887 32.0703 132.411 31.1647 132.411 29.8994C132.411 28.9473 132.674 28.1898 133.198 27.627C133.778 27.0176 134.576 26.7108 135.591 26.7065H135.61C136.186 26.7065 136.702 26.8081 137.159 27.0112C137.824 27.299 138.156 27.7158 138.156 28.2617V30.5596C138.156 31.0124 138.274 31.3615 138.511 31.6069C138.723 31.8228 139.036 31.9307 139.451 31.9307V33.0225ZM136.791 28.2617C136.791 28.1432 136.694 28.0417 136.499 27.957C136.245 27.847 135.949 27.792 135.61 27.792H135.591C135.037 27.792 134.605 27.957 134.296 28.2871C133.949 28.651 133.776 29.1885 133.776 29.8994C133.776 30.7923 134.066 31.408 134.646 31.7466C134.836 31.8524 135.037 31.9116 135.249 31.9243C135.282 31.9285 135.316 31.9307 135.35 31.9307C135.524 31.9307 135.693 31.8968 135.858 31.8291C136.391 31.6217 136.702 31.1965 136.791 30.5532V28.2617ZM135.541 25.1577C135.541 25.0604 135.56 24.9694 135.598 24.8848C135.636 24.8001 135.687 24.7261 135.75 24.6626C135.813 24.5991 135.888 24.5505 135.972 24.5166C136.057 24.4785 136.148 24.4595 136.245 24.4595C136.338 24.4595 136.425 24.4785 136.505 24.5166C136.59 24.5505 136.662 24.5991 136.721 24.6626C136.785 24.7261 136.833 24.8001 136.867 24.8848C136.905 24.9694 136.924 25.0604 136.924 25.1577C136.924 25.255 136.905 25.346 136.867 25.4307C136.833 25.5111 136.785 25.583 136.721 25.6465C136.662 25.7057 136.59 25.7544 136.505 25.7925C136.425 25.8263 136.338 25.8433 136.245 25.8433C136.148 25.8433 136.057 25.8263 135.972 25.7925C135.888 25.7544 135.813 25.7057 135.75 25.6465C135.687 25.583 135.636 25.5111 135.598 25.4307C135.56 25.346 135.541 25.255 135.541 25.1577ZM133.884 25.1577C133.884 25.0604 133.903 24.9694 133.941 24.8848C133.979 24.8001 134.03 24.7261 134.093 24.6626C134.157 24.5991 134.229 24.5505 134.309 24.5166C134.394 24.4785 134.483 24.4595 134.576 24.4595C134.669 24.4595 134.758 24.4785 134.842 24.5166C134.927 24.5505 135.001 24.5991 135.064 24.6626C135.128 24.7261 135.177 24.8001 135.21 24.8848C135.249 24.9694 135.268 25.0604 135.268 25.1577C135.268 25.255 135.249 25.346 135.21 25.4307C135.177 25.5111 135.128 25.583 135.064 25.6465C135.001 25.7057 134.927 25.7544 134.842 25.7925C134.758 25.8263 134.669 25.8433 134.576 25.8433C134.483 25.8433 134.394 25.8263 134.309 25.7925C134.229 25.7544 134.157 25.7057 134.093 25.6465C134.03 25.583 133.979 25.5111 133.941 25.4307C133.903 25.346 133.884 25.255 133.884 25.1577ZM141.247 26.2749C141.247 26.1776 141.266 26.0866 141.304 26.002C141.342 25.9173 141.393 25.8433 141.457 25.7798C141.52 25.7163 141.594 25.6676 141.679 25.6338C141.763 25.5957 141.854 25.5767 141.952 25.5767C142.045 25.5767 142.132 25.5957 142.212 25.6338C142.297 25.6676 142.368 25.7163 142.428 25.7798C142.491 25.8433 142.54 25.9173 142.574 26.002C142.612 26.0866 142.631 26.1776 142.631 26.2749C142.631 26.3722 142.612 26.4632 142.574 26.5479C142.54 26.6283 142.491 26.7002 142.428 26.7637C142.368 26.8229 142.297 26.8716 142.212 26.9097C142.132 26.9435 142.045 26.9604 141.952 26.9604C141.854 26.9604 141.763 26.9435 141.679 26.9097C141.594 26.8716 141.52 26.8229 141.457 26.7637C141.393 26.7002 141.342 26.6283 141.304 26.5479C141.266 26.4632 141.247 26.3722 141.247 26.2749ZM139.59 26.2749C139.59 26.1776 139.609 26.0866 139.647 26.002C139.686 25.9173 139.736 25.8433 139.8 25.7798C139.863 25.7163 139.935 25.6676 140.016 25.6338C140.1 25.5957 140.189 25.5767 140.282 25.5767C140.375 25.5767 140.464 25.5957 140.549 25.6338C140.633 25.6676 140.708 25.7163 140.771 25.7798C140.834 25.8433 140.883 25.9173 140.917 26.002C140.955 26.0866 140.974 26.1776 140.974 26.2749C140.974 26.3722 140.955 26.4632 140.917 26.5479C140.883 26.6283 140.834 26.7002 140.771 26.7637C140.708 26.8229 140.633 26.8716 140.549 26.9097C140.464 26.9435 140.375 26.9604 140.282 26.9604C140.189 26.9604 140.1 26.9435 140.016 26.9097C139.935 26.8716 139.863 26.8229 139.8 26.7637C139.736 26.7002 139.686 26.6283 139.647 26.5479C139.609 26.4632 139.59 26.3722 139.59 26.2749ZM138.752 33.0225V31.9307H139.279C139.622 31.9307 139.897 31.8249 140.104 31.6133C140.341 31.3678 140.46 31.0166 140.46 30.5596V27.8428H141.831V30.6929C141.852 31.0822 141.969 31.3869 142.18 31.6069C142.392 31.8228 142.66 31.9307 142.986 31.9307H143.539V33.0225H142.986C142.212 33.0225 141.598 32.7876 141.146 32.3179C140.688 32.7876 140.066 33.0225 139.279 33.0225H138.752ZM149.15 29.8994C149.15 29.18 148.976 28.6405 148.629 28.2808C148.325 27.9549 147.891 27.792 147.328 27.792C146.774 27.792 146.344 27.9549 146.04 28.2808C145.688 28.6489 145.513 29.1885 145.513 29.8994C145.513 30.5469 145.69 31.0526 146.046 31.4165C146.376 31.7593 146.801 31.9307 147.322 31.9307C147.859 31.9307 148.291 31.7635 148.617 31.4292C148.972 31.0653 149.15 30.5553 149.15 29.8994ZM147.322 33.0225C146.348 33.0225 145.578 32.7241 145.011 32.1274C144.999 32.1401 144.95 32.1909 144.865 32.2798C144.383 32.7749 143.708 33.0225 142.84 33.0225V31.9307C143.268 31.9307 143.585 31.8249 143.792 31.6133C144.029 31.3678 144.148 31.0166 144.148 30.5596V29.8994C144.148 28.943 144.41 28.1855 144.935 27.627C145.519 27.0091 146.317 26.7002 147.328 26.7002C148.348 26.7002 149.148 27.007 149.728 27.6206C150.252 28.1792 150.515 28.9388 150.515 29.8994C150.515 30.8008 150.295 31.4779 149.854 31.9307H151.2V33.0225H147.322ZM153.314 26.186C153.314 26.0887 153.333 25.9977 153.371 25.9131C153.409 25.8285 153.46 25.7544 153.523 25.6909C153.587 25.6274 153.661 25.5788 153.746 25.5449C153.83 25.5068 153.921 25.4878 154.019 25.4878C154.112 25.4878 154.198 25.5068 154.279 25.5449C154.363 25.5788 154.435 25.6274 154.495 25.6909C154.558 25.7544 154.607 25.8285 154.641 25.9131C154.679 25.9977 154.698 26.0887 154.698 26.186C154.698 26.2834 154.679 26.3743 154.641 26.459C154.607 26.5394 154.558 26.6113 154.495 26.6748C154.435 26.734 154.363 26.7827 154.279 26.8208C154.198 26.8547 154.112 26.8716 154.019 26.8716C153.921 26.8716 153.83 26.8547 153.746 26.8208C153.661 26.7827 153.587 26.734 153.523 26.6748C153.46 26.6113 153.409 26.5394 153.371 26.459C153.333 26.3743 153.314 26.2834 153.314 26.186ZM151.657 26.186C151.657 26.0887 151.676 25.9977 151.714 25.9131C151.752 25.8285 151.803 25.7544 151.867 25.6909C151.93 25.6274 152.002 25.5788 152.083 25.5449C152.167 25.5068 152.256 25.4878 152.349 25.4878C152.442 25.4878 152.531 25.5068 152.616 25.5449C152.7 25.5788 152.774 25.6274 152.838 25.6909C152.901 25.7544 152.95 25.8285 152.984 25.9131C153.022 25.9977 153.041 26.0887 153.041 26.186C153.041 26.2834 153.022 26.3743 152.984 26.459C152.95 26.5394 152.901 26.6113 152.838 26.6748C152.774 26.734 152.7 26.7827 152.616 26.8208C152.531 26.8547 152.442 26.8716 152.349 26.8716C152.256 26.8716 152.167 26.8547 152.083 26.8208C152.002 26.7827 151.93 26.734 151.867 26.6748C151.803 26.6113 151.752 26.5394 151.714 26.459C151.676 26.3743 151.657 26.2834 151.657 26.186ZM155.015 27.8428V30.9087C155.015 31.4673 154.812 31.9497 154.406 32.356C153.961 32.8003 153.416 33.0225 152.768 33.0225H150.635V31.9307H152.768C152.98 31.9307 153.17 31.846 153.339 31.6768C153.547 31.4736 153.65 31.2176 153.65 30.9087V27.8428H155.015ZM157.751 31.9307H159.725C159.962 31.9307 160.167 31.8333 160.341 31.6387C160.519 31.4355 160.607 31.1922 160.607 30.9087V25.4307H161.972V30.9087C161.972 31.4927 161.752 31.992 161.312 32.4067C160.872 32.8172 160.343 33.0225 159.725 33.0225H155.625V31.9307C155.925 31.9307 156.16 31.846 156.329 31.6768C156.532 31.4736 156.634 31.2176 156.634 30.9087V25.4307H158.005V30.9087C158.005 31.37 157.92 31.7106 157.751 31.9307ZM156.666 24.4468C156.594 24.3283 156.551 24.2013 156.539 24.0659V24.0024C156.539 23.9136 156.553 23.8268 156.583 23.7422C156.685 23.4587 156.911 23.3169 157.262 23.3169C157.482 23.3169 157.666 23.374 157.814 23.4883C157.946 23.5941 158.03 23.738 158.068 23.9199L157.548 23.9834C157.527 23.8818 157.489 23.8078 157.434 23.7612C157.391 23.7316 157.334 23.7168 157.262 23.7168C157.182 23.7168 157.125 23.7591 157.091 23.8438C157.074 23.8861 157.065 23.9326 157.065 23.9834C157.065 24.0003 157.068 24.0194 157.072 24.0405C157.076 24.1167 157.095 24.1865 157.129 24.25C157.188 24.36 157.26 24.4256 157.345 24.4468H158.17V24.8403H156.367V24.4468H156.666ZM164.359 25.4307V32.6035H162.994V25.4307H164.359Z" fill="white"/>
<rect x="173" y="20" width="20" height="20" rx="5" fill="#D4088C"/>
<path d="M183.359 25C183.737 25 184.079 25.21 184.268 25.52C184.36 25.67 184.421 25.855 184.406 26.05C184.396 26.2 184.442 26.35 184.524 26.49C184.784 26.915 185.362 27.075 185.811 26.835C186.317 26.545 186.956 26.72 187.247 27.215L187.589 27.805C187.886 28.3 187.722 28.935 187.211 29.22C186.777 29.475 186.624 30.04 186.884 30.47C186.966 30.605 187.058 30.72 187.201 30.79C187.38 30.885 187.518 31.035 187.615 31.185C187.804 31.495 187.789 31.875 187.605 32.21L187.247 32.81C187.058 33.13 186.705 33.33 186.343 33.33C186.164 33.33 185.965 33.28 185.801 33.18C185.668 33.095 185.515 33.065 185.351 33.065C184.845 33.065 184.421 33.48 184.406 33.975C184.406 34.55 183.936 35 183.348 35H182.653C182.061 35 181.591 34.55 181.591 33.975C181.58 33.48 181.156 33.065 180.65 33.065C180.482 33.065 180.328 33.095 180.201 33.18C180.037 33.28 179.833 33.33 179.659 33.33C179.291 33.33 178.939 33.13 178.75 32.81L178.397 32.21C178.208 31.885 178.198 31.495 178.387 31.185C178.468 31.035 178.622 30.885 178.796 30.79C178.939 30.72 179.031 30.605 179.117 30.47C179.373 30.04 179.22 29.475 178.785 29.22C178.279 28.935 178.116 28.3 178.407 27.805L178.75 27.215C179.046 26.72 179.68 26.545 180.19 26.835C180.635 27.075 181.212 26.915 181.473 26.49C181.555 26.35 181.601 26.2 181.591 26.05C181.58 25.855 181.637 25.67 181.734 25.52C181.923 25.21 182.265 25.01 182.638 25H183.359ZM183.006 28.59C182.204 28.59 181.555 29.22 181.555 30.005C181.555 30.79 182.204 31.415 183.006 31.415C183.808 31.415 184.442 30.79 184.442 30.005C184.442 29.22 183.808 28.59 183.006 28.59Z" fill="white"/>
<rect x="20" y="60" width="173" height="27" rx="6" fill="white" fill-opacity="0.1"/>
<path d="M31.25 71.25L35.75 75.75" stroke="white" stroke-opacity="0.6" stroke-width="1.3" stroke-linecap="round" stroke-linejoin="round"/>
<path d="M35.75 71.25L31.25 75.75" stroke="white" stroke-opacity="0.6" stroke-width="1.3" stroke-linecap="round" stroke-linejoin="round"/>
<path d="M70.0459 74.2554C70.0602 74.5955 70.1479 74.8337 70.3091 74.9697C70.4881 75.1559 70.7155 75.249 70.9912 75.249H71.4531V76.1729H70.9053C70.4935 76.1585 70.1605 76.0744 69.9062 75.9204C69.8024 76.3322 69.5768 76.7171 69.2295 77.0752C68.6387 77.6803 67.8617 77.9829 66.8984 77.9829C66.0534 77.9829 65.3354 77.675 64.7446 77.0591C64.2039 76.5005 63.9336 75.7736 63.9336 74.8784C63.9336 74.6349 63.9515 74.4022 63.9873 74.1802C64.0231 73.9582 64.0911 73.7147 64.1914 73.4497L65.1367 73.6914C65.0544 73.917 65.0007 74.1193 64.9756 74.2983C64.9434 74.481 64.9272 74.6743 64.9272 74.8784C64.9272 75.5659 65.117 76.1048 65.4966 76.4951C65.8618 76.8711 66.3291 77.0591 66.8984 77.0591C67.4857 77.0591 67.9601 76.8747 68.3218 76.5059C68.6226 76.1943 68.8016 75.804 68.8589 75.335L68.875 75.2329C68.8857 75.1326 68.8911 75.0145 68.8911 74.8784V71.79H70.0459V74.2554ZM66.5278 70.979C66.5278 70.8966 66.5439 70.8197 66.5762 70.748C66.6084 70.6764 66.6514 70.6138 66.7051 70.5601C66.7588 70.5063 66.8197 70.4652 66.8877 70.4365C66.9593 70.4043 67.0345 70.3882 67.1133 70.3882C67.1921 70.3882 67.2673 70.4043 67.3389 70.4365C67.4105 70.4652 67.4731 70.5063 67.5269 70.5601C67.5806 70.6138 67.6217 70.6764 67.6504 70.748C67.6826 70.8197 67.6987 70.8966 67.6987 70.979C67.6987 71.0614 67.6826 71.1383 67.6504 71.21C67.6217 71.278 67.5806 71.3389 67.5269 71.3926C67.4731 71.4427 67.4105 71.4839 67.3389 71.5161C67.2673 71.5448 67.1921 71.5591 67.1133 71.5591C67.0345 71.5591 66.9593 71.5448 66.8877 71.5161C66.8197 71.4839 66.7588 71.4427 66.7051 71.3926C66.6514 71.3389 66.6084 71.278 66.5762 71.21C66.5439 71.1383 66.5278 71.0614 66.5278 70.979ZM73.0215 77.5532C73.0215 77.4709 73.0376 77.3939 73.0698 77.3223C73.1021 77.2507 73.145 77.188 73.1987 77.1343C73.2524 77.0806 73.3151 77.0376 73.3867 77.0054C73.4583 76.9767 73.5353 76.9624 73.6177 76.9624C73.6965 76.9624 73.7699 76.9767 73.8379 77.0054C73.9095 77.0376 73.9704 77.0806 74.0205 77.1343C74.0742 77.188 74.1154 77.2507 74.144 77.3223C74.1763 77.3939 74.1924 77.4709 74.1924 77.5532C74.1924 77.6356 74.1763 77.7108 74.144 77.7788C74.1154 77.8504 74.0742 77.9113 74.0205 77.9614C73.9704 78.0151 73.9095 78.0563 73.8379 78.085C73.7699 78.1172 73.6965 78.1333 73.6177 78.1333C73.5353 78.1333 73.4583 78.1172 73.3867 78.085C73.3151 78.0563 73.2524 78.0151 73.1987 77.9614C73.145 77.9113 73.1021 77.8504 73.0698 77.7788C73.0376 77.7108 73.0215 77.6356 73.0215 77.5532ZM71.6196 77.5532C71.6196 77.4709 71.6357 77.3939 71.668 77.3223C71.7002 77.2507 71.7432 77.188 71.7969 77.1343C71.8506 77.0806 71.9115 77.0376 71.9795 77.0054C72.0511 76.9767 72.1263 76.9624 72.2051 76.9624C72.2839 76.9624 72.359 76.9767 72.4307 77.0054C72.5023 77.0376 72.5649 77.0806 72.6187 77.1343C72.6724 77.188 72.7135 77.2507 72.7422 77.3223C72.7744 77.3939 72.7905 77.4709 72.7905 77.5532C72.7905 77.6356 72.7744 77.7108 72.7422 77.7788C72.7135 77.8504 72.6724 77.9113 72.6187 77.9614C72.5649 78.0151 72.5023 78.0563 72.4307 78.085C72.359 78.1172 72.2839 78.1333 72.2051 78.1333C72.1263 78.1333 72.0511 78.1172 71.9795 78.085C71.9115 78.0563 71.8506 78.0151 71.7969 77.9614C71.7432 77.9113 71.7002 77.8504 71.668 77.7788C71.6357 77.7108 71.6196 77.6356 71.6196 77.5532ZM70.9751 76.1729V75.249H71.4209C71.7109 75.249 71.9437 75.1595 72.1191 74.9805C72.3197 74.7728 72.4199 74.4756 72.4199 74.0889V71.79H73.5801V74.2017C73.598 74.5311 73.6965 74.7889 73.8755 74.9751C74.0545 75.1577 74.2819 75.249 74.5576 75.249H75.0249V76.1729H74.5576C73.9023 76.1729 73.3831 75.9741 73 75.5767C72.6133 75.9741 72.0869 76.1729 71.4209 76.1729H70.9751ZM74.4341 75.249H80.2886C80.7756 75.249 81.1623 75.1523 81.4487 74.959C81.6922 74.7943 81.814 74.5687 81.814 74.2822C81.814 73.96 81.6958 73.7165 81.4595 73.5518C81.1945 73.3691 80.8006 73.2778 80.2778 73.2778H75.374L75.3687 72.8213V72.3003C75.3973 71.3514 75.929 70.6764 76.9639 70.2754C77.5404 70.0498 78.491 69.8797 79.8159 69.7651C80.2671 69.7257 80.6073 69.6864 80.8364 69.647L81.0942 70.5439C80.8221 70.5905 80.439 70.6353 79.9448 70.6782C78.8885 70.7749 78.1348 70.9002 77.6836 71.0542C76.9281 71.3156 76.5413 71.7345 76.5234 72.311V72.354H80.2778C81.0835 72.354 81.7298 72.5241 82.2168 72.8643C82.7181 73.2116 82.9688 73.6842 82.9688 74.2822C82.9688 74.8516 82.7109 75.3117 82.1953 75.6626C81.694 76.0028 81.0584 76.1729 80.2886 76.1729H74.4341V75.249ZM86.6694 76.1729C86.2576 76.1585 85.9408 76.0869 85.7188 75.958C85.6471 76.3376 85.5057 76.7261 85.2944 77.1235C85.1799 77.342 85.0241 77.5675 84.8271 77.8003C84.6481 78.0151 84.4154 78.255 84.1289 78.52L83.3232 77.9507C83.6061 77.6893 83.8245 77.4673 83.9785 77.2847C84.1325 77.0985 84.2524 76.9248 84.3384 76.7637C84.5353 76.402 84.6338 75.992 84.6338 75.5337C84.6338 75.4585 84.6302 75.3797 84.623 75.2974V71.79H85.7778V74.2339C85.7993 74.5454 85.8978 74.7925 86.0732 74.9751C86.2523 75.1577 86.4797 75.249 86.7554 75.249H87.2173V76.1729H86.6694ZM88.8447 70.4634C88.8447 70.381 88.8608 70.304 88.8931 70.2324C88.9253 70.1608 88.9683 70.0981 89.022 70.0444C89.0757 69.9907 89.1383 69.9495 89.21 69.9209C89.2816 69.8887 89.3586 69.8726 89.4409 69.8726C89.5197 69.8726 89.5931 69.8887 89.6611 69.9209C89.7327 69.9495 89.7936 69.9907 89.8438 70.0444C89.8975 70.0981 89.9386 70.1608 89.9673 70.2324C89.9995 70.304 90.0156 70.381 90.0156 70.4634C90.0156 70.5457 89.9995 70.6227 89.9673 70.6943C89.9386 70.7624 89.8975 70.8232 89.8438 70.877C89.7936 70.9271 89.7327 70.9683 89.6611 71.0005C89.5931 71.0291 89.5197 71.0435 89.4409 71.0435C89.3586 71.0435 89.2816 71.0291 89.21 71.0005C89.1383 70.9683 89.0757 70.9271 89.022 70.877C88.9683 70.8232 88.9253 70.7624 88.8931 70.6943C88.8608 70.6227 88.8447 70.5457 88.8447 70.4634ZM87.4429 70.4634C87.4429 70.381 87.459 70.304 87.4912 70.2324C87.5234 70.1608 87.5664 70.0981 87.6201 70.0444C87.6738 69.9907 87.7347 69.9495 87.8027 69.9209C87.8743 69.8887 87.9495 69.8726 88.0283 69.8726C88.1071 69.8726 88.1823 69.8887 88.2539 69.9209C88.3255 69.9495 88.3882 69.9907 88.4419 70.0444C88.4956 70.0981 88.5368 70.1608 88.5654 70.2324C88.5977 70.304 88.6138 70.381 88.6138 70.4634C88.6138 70.5457 88.5977 70.6227 88.5654 70.6943C88.5368 70.7624 88.4956 70.8232 88.4419 70.877C88.3882 70.9271 88.3255 70.9683 88.2539 71.0005C88.1823 71.0291 88.1071 71.0435 88.0283 71.0435C87.9495 71.0435 87.8743 71.0291 87.8027 71.0005C87.7347 70.9683 87.6738 70.9271 87.6201 70.877C87.5664 70.8232 87.5234 70.7624 87.4912 70.6943C87.459 70.6227 87.4429 70.5457 87.4429 70.4634ZM86.7339 76.1729V75.249H87.1797C87.4697 75.249 87.7025 75.1595 87.8779 74.9805C88.0785 74.7728 88.1787 74.4756 88.1787 74.0889V71.79H89.3389V74.2017C89.3568 74.5311 89.4552 74.7889 89.6343 74.9751C89.8133 75.1577 90.0407 75.249 90.3164 75.249H90.7837V76.1729H90.3164C89.6611 76.1729 89.1419 75.9741 88.7588 75.5767C88.3721 75.9741 87.8457 76.1729 87.1797 76.1729H86.7339ZM100.548 75.249V76.1729H100.081C99.4258 76.1729 98.9066 75.9741 98.5234 75.5767C98.1367 75.9741 97.6104 76.1729 96.9443 76.1729C96.2891 76.1729 95.7699 75.9741 95.3867 75.5767C94.9964 75.9741 94.4683 76.1729 93.8022 76.1729C93.147 76.1729 92.6278 75.9741 92.2446 75.5767C91.8543 75.9741 91.3262 76.1729 90.6602 76.1729H90.1929V75.249H90.6602C90.9502 75.249 91.1847 75.1595 91.3638 74.9805C91.5643 74.7728 91.6646 74.4756 91.6646 74.0889V71.79H92.8193V74.0889C92.8193 74.472 92.9196 74.7674 93.1201 74.9751C93.2992 75.1577 93.5265 75.249 93.8022 75.249C94.0923 75.249 94.325 75.1595 94.5005 74.9805C94.7046 74.7728 94.8066 74.4756 94.8066 74.0889V71.79H95.9614V74.0889C95.9614 74.472 96.0617 74.7674 96.2622 74.9751C96.4412 75.1577 96.6686 75.249 96.9443 75.249C97.2344 75.249 97.4671 75.1595 97.6426 74.9805C97.8431 74.7728 97.9434 74.4756 97.9434 74.0889V71.79H99.1035V74.2017C99.1214 74.5311 99.2199 74.7889 99.3989 74.9751C99.578 75.1577 99.8053 75.249 100.081 75.249H100.548ZM95.6821 70.4258C95.6821 70.3434 95.6982 70.2664 95.7305 70.1948C95.7627 70.1232 95.8057 70.0605 95.8594 70.0068C95.9131 69.9531 95.9757 69.9119 96.0474 69.8833C96.119 69.8511 96.196 69.835 96.2783 69.835C96.3571 69.835 96.4305 69.8511 96.4985 69.8833C96.5701 69.9119 96.631 69.9531 96.6812 70.0068C96.7349 70.0605 96.776 70.1232 96.8047 70.1948C96.8369 70.2664 96.853 70.3434 96.853 70.4258C96.853 70.5081 96.8369 70.5851 96.8047 70.6567C96.776 70.7248 96.7349 70.7856 96.6812 70.8394C96.631 70.8895 96.5701 70.9307 96.4985 70.9629C96.4305 70.9915 96.3571 71.0059 96.2783 71.0059C96.196 71.0059 96.119 70.9915 96.0474 70.9629C95.9757 70.9307 95.9131 70.8895 95.8594 70.8394C95.8057 70.7856 95.7627 70.7248 95.7305 70.6567C95.6982 70.5851 95.6821 70.5081 95.6821 70.4258ZM94.8013 69.04C94.8013 68.9577 94.8174 68.8807 94.8496 68.8091C94.8818 68.7375 94.9248 68.6748 94.9785 68.6211C95.0322 68.5674 95.0931 68.5262 95.1611 68.4976C95.2327 68.4653 95.3079 68.4492 95.3867 68.4492C95.4655 68.4492 95.5407 68.4653 95.6123 68.4976C95.6839 68.5262 95.7466 68.5674 95.8003 68.6211C95.854 68.6748 95.8952 68.7375 95.9238 68.8091C95.9561 68.8807 95.9722 68.9577 95.9722 69.04C95.9722 69.1224 95.9561 69.1994 95.9238 69.271C95.8952 69.339 95.854 69.3999 95.8003 69.4536C95.7466 69.5037 95.6839 69.5449 95.6123 69.5771C95.5407 69.6058 95.4655 69.6201 95.3867 69.6201C95.3079 69.6201 95.2327 69.6058 95.1611 69.5771C95.0931 69.5449 95.0322 69.5037 94.9785 69.4536C94.9248 69.3999 94.8818 69.339 94.8496 69.271C94.8174 69.1994 94.8013 69.1224 94.8013 69.04ZM93.915 70.4258C93.915 70.3434 93.9312 70.2664 93.9634 70.1948C93.9956 70.1232 94.0386 70.0605 94.0923 70.0068C94.146 69.9531 94.2069 69.9119 94.2749 69.8833C94.3465 69.8511 94.4217 69.835 94.5005 69.835C94.5793 69.835 94.6545 69.8511 94.7261 69.8833C94.7977 69.9119 94.8604 69.9531 94.9141 70.0068C94.9678 70.0605 95.009 70.1232 95.0376 70.1948C95.0698 70.2664 95.0859 70.3434 95.0859 70.4258C95.0859 70.5081 95.0698 70.5851 95.0376 70.6567C95.009 70.7248 94.9678 70.7856 94.9141 70.8394C94.8604 70.8895 94.7977 70.9307 94.7261 70.9629C94.6545 70.9915 94.5793 71.0059 94.5005 71.0059C94.4217 71.0059 94.3465 70.9915 94.2749 70.9629C94.2069 70.9307 94.146 70.8895 94.0923 70.8394C94.0386 70.7856 93.9956 70.7248 93.9634 70.6567C93.9312 70.5851 93.915 70.5081 93.915 70.4258ZM105.296 73.5303C105.296 72.9215 105.15 72.465 104.856 72.1606C104.598 71.8849 104.231 71.7471 103.755 71.7471C103.286 71.7471 102.922 71.8849 102.665 72.1606C102.367 72.4722 102.219 72.9287 102.219 73.5303C102.219 74.0781 102.369 74.506 102.67 74.814C102.949 75.104 103.309 75.249 103.75 75.249C104.204 75.249 104.569 75.1076 104.845 74.8247C105.146 74.5168 105.296 74.0853 105.296 73.5303ZM103.75 76.1729C102.926 76.1729 102.274 75.9204 101.794 75.4155C101.784 75.4263 101.743 75.4692 101.671 75.5444C101.263 75.9634 100.692 76.1729 99.9575 76.1729V75.249C100.319 75.249 100.588 75.1595 100.763 74.9805C100.964 74.7728 101.064 74.4756 101.064 74.0889V73.5303C101.064 72.721 101.286 72.0801 101.73 71.6074C102.224 71.0846 102.899 70.8232 103.755 70.8232C104.618 70.8232 105.295 71.0828 105.785 71.6021C106.229 72.0747 106.451 72.7174 106.451 73.5303C106.451 74.293 106.265 74.8659 105.893 75.249H107.031V76.1729H103.75ZM109.4 69.749V74.3843C109.4 74.8569 109.228 75.2651 108.884 75.6089C108.508 75.9849 108.046 76.1729 107.499 76.1729H106.553V75.249H107.499C107.678 75.249 107.839 75.1774 107.982 75.0342C108.157 74.8623 108.245 74.6457 108.245 74.3843V69.749H109.4ZM111.527 69.749V75.8184H110.372V69.749H111.527ZM121.184 76.1729C120.457 76.1729 119.89 75.9616 119.481 75.5391L119.433 75.4961C119.254 75.693 118.993 75.8577 118.649 75.9902C118.352 76.1084 118.038 76.1675 117.709 76.1675C117.648 76.1675 117.589 76.1657 117.532 76.1621C117.134 76.137 116.769 76.026 116.436 75.8291C115.63 75.3672 115.228 74.6009 115.228 73.5303C115.228 72.7246 115.45 72.0837 115.894 71.6074C116.384 71.0918 117.059 70.8322 117.918 70.8286H117.935C118.422 70.8286 118.858 70.9146 119.245 71.0864C119.807 71.3299 120.088 71.6826 120.088 72.1445V74.0889C120.088 74.472 120.189 74.7674 120.389 74.9751C120.568 75.1577 120.833 75.249 121.184 75.249V76.1729ZM118.934 72.1445C118.934 72.0443 118.851 71.9583 118.687 71.8867C118.472 71.7936 118.221 71.7471 117.935 71.7471H117.918C117.449 71.7471 117.084 71.8867 116.823 72.166C116.529 72.474 116.382 72.9287 116.382 73.5303C116.382 74.2858 116.628 74.8068 117.118 75.0933C117.279 75.1828 117.449 75.2329 117.628 75.2437C117.657 75.2472 117.686 75.249 117.714 75.249C117.861 75.249 118.004 75.2204 118.144 75.1631C118.595 74.9876 118.858 74.6278 118.934 74.0835V72.1445ZM117.875 69.5181C117.875 69.4357 117.892 69.3587 117.924 69.2871C117.956 69.2155 117.999 69.1528 118.053 69.0991C118.106 69.0454 118.169 69.0042 118.241 68.9756C118.312 68.9434 118.389 68.9272 118.472 68.9272C118.55 68.9272 118.624 68.9434 118.692 68.9756C118.764 69.0042 118.824 69.0454 118.875 69.0991C118.928 69.1528 118.969 69.2155 118.998 69.2871C119.03 69.3587 119.046 69.4357 119.046 69.5181C119.046 69.6004 119.03 69.6774 118.998 69.749C118.969 69.8171 118.928 69.8779 118.875 69.9316C118.824 69.9818 118.764 70.0229 118.692 70.0552C118.624 70.0838 118.55 70.0981 118.472 70.0981C118.389 70.0981 118.312 70.0838 118.241 70.0552C118.169 70.0229 118.106 69.9818 118.053 69.9316C117.999 69.8779 117.956 69.8171 117.924 69.749C117.892 69.6774 117.875 69.6004 117.875 69.5181ZM116.474 69.5181C116.474 69.4357 116.49 69.3587 116.522 69.2871C116.554 69.2155 116.597 69.1528 116.651 69.0991C116.705 69.0454 116.765 69.0042 116.833 68.9756C116.905 68.9434 116.98 68.9272 117.059 68.9272C117.138 68.9272 117.213 68.9434 117.285 68.9756C117.356 69.0042 117.419 69.0454 117.473 69.0991C117.526 69.1528 117.568 69.2155 117.596 69.2871C117.628 69.3587 117.645 69.4357 117.645 69.5181C117.645 69.6004 117.628 69.6774 117.596 69.749C117.568 69.8171 117.526 69.8779 117.473 69.9316C117.419 69.9818 117.356 70.0229 117.285 70.0552C117.213 70.0838 117.138 70.0981 117.059 70.0981C116.98 70.0981 116.905 70.0838 116.833 70.0552C116.765 70.0229 116.705 69.9818 116.651 69.9316C116.597 69.8779 116.554 69.8171 116.522 69.749C116.49 69.6774 116.474 69.6004 116.474 69.5181ZM125.932 73.5303C125.932 72.9215 125.785 72.465 125.492 72.1606C125.234 71.8849 124.867 71.7471 124.391 71.7471C123.922 71.7471 123.558 71.8849 123.3 72.1606C123.003 72.4722 122.854 72.9287 122.854 73.5303C122.854 74.0781 123.005 74.506 123.306 74.814C123.585 75.104 123.945 75.249 124.385 75.249C124.84 75.249 125.205 75.1076 125.481 74.8247C125.782 74.5168 125.932 74.0853 125.932 73.5303ZM124.385 76.1729C123.562 76.1729 122.91 75.9204 122.43 75.4155C122.419 75.4263 122.378 75.4692 122.307 75.5444C121.898 75.9634 121.327 76.1729 120.593 76.1729V75.249C120.955 75.249 121.223 75.1595 121.399 74.9805C121.599 74.7728 121.7 74.4756 121.7 74.0889V73.5303C121.7 72.721 121.922 72.0801 122.366 71.6074C122.86 71.0846 123.535 70.8232 124.391 70.8232C125.254 70.8232 125.93 71.0828 126.421 71.6021C126.865 72.0747 127.087 72.7174 127.087 73.5303C127.087 74.293 126.901 74.8659 126.528 75.249H127.667V76.1729H124.385ZM130.895 71.79V74.3843C130.895 74.8569 130.723 75.2651 130.379 75.6089C130.003 75.9849 129.542 76.1729 128.994 76.1729H127.189V75.249H128.994C129.173 75.249 129.334 75.1774 129.477 75.0342C129.653 74.8623 129.74 74.6457 129.74 74.3843V71.79H130.895ZM128.956 70.7749C128.874 70.6388 128.825 70.492 128.811 70.3345C128.807 70.3022 128.806 70.27 128.806 70.2378C128.806 70.1375 128.824 70.0426 128.859 69.9531C128.978 69.6237 129.241 69.459 129.649 69.459C129.91 69.459 130.127 69.527 130.299 69.6631C130.453 69.7848 130.551 69.9513 130.594 70.1626L129.987 70.2378C129.959 70.1196 129.914 70.0337 129.853 69.98C129.803 69.9442 129.735 69.9263 129.649 69.9263C129.556 69.9263 129.49 69.9764 129.45 70.0767C129.436 70.1268 129.429 70.1823 129.429 70.2432V70.3076C129.436 70.3936 129.459 70.4741 129.499 70.5493C129.567 70.6782 129.651 70.7534 129.751 70.7749H130.712V71.2368H128.607V70.7749H128.956ZM132.915 69.749V74.3843C132.915 74.6457 133.002 74.8623 133.178 75.0342C133.321 75.1774 133.482 75.249 133.661 75.249H134.929V76.1729H133.661C133.113 76.1729 132.651 75.9849 132.275 75.6089C131.932 75.2651 131.76 74.8569 131.76 74.3843V69.749H132.915ZM137.824 69.8779C137.824 69.7956 137.84 69.7186 137.872 69.647C137.904 69.5754 137.947 69.5127 138.001 69.459C138.055 69.4053 138.117 69.3641 138.189 69.3354C138.261 69.3032 138.338 69.2871 138.42 69.2871C138.499 69.2871 138.572 69.3032 138.64 69.3354C138.712 69.3641 138.773 69.4053 138.823 69.459C138.876 69.5127 138.918 69.5754 138.946 69.647C138.979 69.7186 138.995 69.7956 138.995 69.8779C138.995 69.9603 138.979 70.0373 138.946 70.1089C138.918 70.1769 138.876 70.2378 138.823 70.2915C138.773 70.3416 138.712 70.3828 138.64 70.415C138.572 70.4437 138.499 70.458 138.42 70.458C138.338 70.458 138.261 70.4437 138.189 70.415C138.117 70.3828 138.055 70.3416 138.001 70.2915C137.947 70.2378 137.904 70.1769 137.872 70.1089C137.84 70.0373 137.824 69.9603 137.824 69.8779ZM136.422 69.8779C136.422 69.7956 136.438 69.7186 136.47 69.647C136.502 69.5754 136.545 69.5127 136.599 69.459C136.653 69.4053 136.714 69.3641 136.782 69.3354C136.853 69.3032 136.929 69.2871 137.007 69.2871C137.086 69.2871 137.161 69.3032 137.233 69.3354C137.305 69.3641 137.367 69.4053 137.421 69.459C137.475 69.5127 137.516 69.5754 137.544 69.647C137.577 69.7186 137.593 69.7956 137.593 69.8779C137.593 69.9603 137.577 70.0373 137.544 70.1089C137.516 70.1769 137.475 70.2378 137.421 70.2915C137.367 70.3416 137.305 70.3828 137.233 70.415C137.161 70.4437 137.086 70.458 137.007 70.458C136.929 70.458 136.853 70.4437 136.782 70.415C136.714 70.3828 136.653 70.3416 136.599 70.2915C136.545 70.2378 136.502 70.1769 136.47 70.1089C136.438 70.0373 136.422 69.9603 136.422 69.8779ZM139.43 73.5303C139.43 72.9215 139.283 72.465 138.989 72.1606C138.731 71.8849 138.364 71.7471 137.888 71.7471C137.419 71.7471 137.056 71.8849 136.798 72.1606C136.501 72.4722 136.352 72.9287 136.352 73.5303C136.352 74.0781 136.502 74.506 136.803 74.814C137.083 75.104 137.442 75.249 137.883 75.249C138.338 75.249 138.703 75.1076 138.979 74.8247C139.279 74.5168 139.43 74.0853 139.43 73.5303ZM135.761 75.249C135.385 74.8587 135.197 74.2858 135.197 73.5303C135.197 72.721 135.419 72.0801 135.863 71.6074C136.357 71.0846 137.032 70.8232 137.888 70.8232C138.751 70.8232 139.428 71.0828 139.918 71.6021C140.362 72.0747 140.584 72.7174 140.584 73.5303C140.584 74.293 140.352 74.9124 139.886 75.3887C139.378 75.9115 138.71 76.1729 137.883 76.1729H134.451V75.249H135.761ZM152.503 76.1729H152.17C151.776 76.1729 151.402 76.1012 151.047 75.958C151.047 76.1299 151.028 76.2892 150.988 76.436C150.841 77.0018 150.435 77.4207 149.769 77.6929C149.278 77.8934 148.688 77.9954 147.997 77.999C147.431 77.999 146.933 77.9417 146.503 77.8271C145.766 77.6338 145.193 77.3079 144.785 76.8496C144.38 76.4056 144.178 75.8703 144.178 75.2437C144.178 74.993 144.194 74.762 144.226 74.5508C144.255 74.3252 144.314 74.0853 144.403 73.8311L145.526 74.0352C145.451 74.2679 145.401 74.4738 145.375 74.6528C145.347 74.839 145.333 75.036 145.333 75.2437C145.333 75.6662 145.463 76.0243 145.725 76.3179C145.99 76.6079 146.371 76.821 146.869 76.957C147.173 77.0358 147.529 77.0752 147.938 77.0752H147.991C148.496 77.0752 148.91 77.0072 149.232 76.8711C149.576 76.735 149.785 76.5273 149.86 76.248C149.882 76.1585 149.893 76.0618 149.893 75.958C149.893 75.6286 149.765 75.3815 149.511 75.2168C149.35 75.1165 149.056 75.0163 148.63 74.916L148.469 74.8892L148.77 74.0029C149.11 74.0531 149.409 74.1247 149.667 74.2178C149.893 74.2894 150.084 74.37 150.242 74.4595C150.324 74.5024 150.449 74.5687 150.618 74.6582C151.284 75.0521 151.801 75.249 152.17 75.249H152.503V76.1729ZM154.872 69.749V74.3843C154.872 74.8569 154.7 75.2651 154.356 75.6089C153.98 75.9849 153.518 76.1729 152.97 76.1729H152.025V75.249H152.97C153.149 75.249 153.31 75.1774 153.454 75.0342C153.629 74.8623 153.717 74.6457 153.717 74.3843V69.749H154.872ZM157.337 69.749V75.8184H156.182V69.749H157.337ZM156.204 77.1987C156.143 77.0985 156.107 76.991 156.096 76.8765V76.8228C156.096 76.7476 156.109 76.6742 156.134 76.6025C156.22 76.3626 156.411 76.2427 156.708 76.2427C156.895 76.2427 157.05 76.291 157.176 76.3877C157.287 76.4772 157.358 76.599 157.391 76.7529L156.95 76.8066C156.932 76.7207 156.9 76.658 156.854 76.6187C156.818 76.5936 156.769 76.5811 156.708 76.5811C156.64 76.5811 156.592 76.6169 156.563 76.6885C156.549 76.7243 156.542 76.7637 156.542 76.8066C156.542 76.821 156.544 76.8371 156.547 76.855C156.551 76.9194 156.567 76.9785 156.596 77.0322C156.646 77.1253 156.707 77.1808 156.778 77.1987H157.477V77.5317H155.951V77.1987H156.204ZM168.944 73.5303C168.944 72.9215 168.797 72.465 168.503 72.1606C168.246 71.8849 167.879 71.7471 167.402 71.7471C166.933 71.7471 166.57 71.8849 166.312 72.1606C166.015 72.4722 165.866 72.9287 165.866 73.5303C165.866 74.0781 166.017 74.506 166.317 74.814C166.597 75.104 166.957 75.249 167.397 75.249C167.852 75.249 168.217 75.1076 168.493 74.8247C168.793 74.5168 168.944 74.0853 168.944 73.5303ZM163.863 76.1729C163.003 76.1729 162.328 75.9132 161.838 75.394C161.394 74.9178 161.172 74.2769 161.172 73.4712C161.172 73.2743 161.188 73.0809 161.22 72.8911C161.256 72.7049 161.32 72.499 161.414 72.2734L162.359 72.542C162.28 72.7318 162.228 72.8947 162.203 73.0308C162.178 73.1632 162.166 73.3101 162.166 73.4712C162.166 74.0728 162.312 74.5275 162.606 74.8354C162.867 75.1112 163.233 75.249 163.702 75.249H165.275C164.899 74.8587 164.711 74.2858 164.711 73.5303C164.711 72.721 164.933 72.0801 165.377 71.6074C165.872 71.0846 166.547 70.8232 167.402 70.8232C168.265 70.8232 168.942 71.0828 169.433 71.6021C169.877 72.0747 170.099 72.7174 170.099 73.5303C170.099 74.293 169.912 74.8659 169.54 75.249H170.915V76.1729H163.863ZM166.865 69.7759C166.865 69.6935 166.881 69.6165 166.914 69.5449C166.946 69.4733 166.989 69.4106 167.042 69.3569C167.096 69.3032 167.157 69.262 167.225 69.2334C167.297 69.2012 167.372 69.1851 167.451 69.1851C167.529 69.1851 167.605 69.2012 167.676 69.2334C167.748 69.262 167.811 69.3032 167.864 69.3569C167.918 69.4106 167.959 69.4733 167.988 69.5449C168.02 69.6165 168.036 69.6935 168.036 69.7759C168.036 69.8582 168.02 69.9352 167.988 70.0068C167.959 70.0749 167.918 70.1357 167.864 70.1895C167.811 70.2396 167.748 70.2808 167.676 70.313C167.605 70.3416 167.529 70.356 167.451 70.356C167.372 70.356 167.297 70.3416 167.225 70.313C167.157 70.2808 167.096 70.2396 167.042 70.1895C166.989 70.1357 166.946 70.0749 166.914 70.0068C166.881 69.9352 166.865 69.8582 166.865 69.7759ZM177.291 75.249C177.727 75.249 178.085 75.104 178.365 74.814C178.666 74.506 178.816 74.0781 178.816 73.5303C178.816 72.9287 178.669 72.4722 178.375 72.1606C178.114 71.8849 177.749 71.7471 177.28 71.7471H174.299C173.83 71.7471 173.465 71.8849 173.203 72.1606C172.91 72.4722 172.763 72.9287 172.763 73.5303V75.249H177.291ZM171.592 75.249V73.2886C171.577 72.4149 171.47 71.8294 171.27 71.5322L172.215 70.9629C172.351 71.1885 172.437 71.389 172.473 71.5645C172.802 71.0775 173.411 70.8304 174.299 70.8232H177.28C178.139 70.8232 178.814 71.0846 179.305 71.6074C179.749 72.0801 179.971 72.721 179.971 73.5303C179.971 74.2858 179.74 74.9017 179.278 75.3779C178.773 75.9079 178.111 76.1729 177.291 76.1729H170.437V75.249H171.592ZM174.288 69.8564C174.288 69.7741 174.304 69.6971 174.336 69.6255C174.369 69.5539 174.412 69.4912 174.465 69.4375C174.519 69.3838 174.58 69.3426 174.648 69.314C174.72 69.2817 174.795 69.2656 174.874 69.2656C174.952 69.2656 175.028 69.2817 175.099 69.314C175.171 69.3426 175.233 69.3838 175.287 69.4375C175.341 69.4912 175.382 69.5539 175.411 69.6255C175.443 69.6971 175.459 69.7741 175.459 69.8564C175.459 69.9388 175.443 70.0158 175.411 70.0874C175.382 70.1554 175.341 70.2163 175.287 70.27C175.233 70.3201 175.171 70.3613 175.099 70.3936C175.028 70.4222 174.952 70.4365 174.874 70.4365C174.795 70.4365 174.72 70.4222 174.648 70.3936C174.58 70.3613 174.519 70.3201 174.465 70.27C174.412 70.2163 174.369 70.1554 174.336 70.0874C174.304 70.0158 174.288 69.9388 174.288 69.8564ZM182.28 69.749V75.8184H181.125V69.749H182.28ZM181.19 68.9434C181.129 68.8431 181.093 68.7357 181.083 68.6211V68.5674C181.083 68.4922 181.095 68.4188 181.12 68.3472C181.206 68.1073 181.398 67.9873 181.695 67.9873C181.881 67.9873 182.037 68.0356 182.162 68.1323C182.273 68.2218 182.345 68.3436 182.377 68.4976L181.937 68.5513C181.919 68.4653 181.886 68.4027 181.84 68.3633C181.804 68.3382 181.756 68.3257 181.695 68.3257C181.627 68.3257 181.578 68.3615 181.55 68.4331C181.535 68.4689 181.528 68.5083 181.528 68.5513C181.528 68.5656 181.53 68.5817 181.534 68.5996C181.537 68.6641 181.553 68.7231 181.582 68.7769C181.632 68.87 181.693 68.9255 181.765 68.9434H182.463V69.2764H180.938V68.9434H181.19Z" fill="white" fill-opacity="0.7"/>
<rect x="20" y="93" width="173" height="27" rx="6" fill="white" fill-opacity="0.1"/>
<path d="M31.25 104.25L35.75 108.75" stroke="white" stroke-opacity="0.6" stroke-width="1.3" stroke-linecap="round" stroke-linejoin="round"/>
<path d="M35.75 104.25L31.25 108.75" stroke="white" stroke-opacity="0.6" stroke-width="1.3" stroke-linecap="round" stroke-linejoin="round"/>
<path d="M137.512 109.173C136.785 109.173 136.218 108.962 135.81 108.539L135.761 108.496C135.582 108.693 135.321 108.858 134.977 108.99C134.68 109.108 134.367 109.167 134.037 109.167C133.976 109.167 133.917 109.166 133.86 109.162C133.462 109.137 133.097 109.026 132.764 108.829C131.958 108.367 131.556 107.601 131.556 106.53C131.556 105.725 131.778 105.084 132.222 104.607C132.712 104.092 133.387 103.832 134.247 103.829H134.263C134.75 103.829 135.187 103.915 135.573 104.086C136.135 104.33 136.417 104.683 136.417 105.145V107.089C136.417 107.472 136.517 107.767 136.717 107.975C136.896 108.158 137.161 108.249 137.512 108.249V109.173ZM135.262 105.145C135.262 105.044 135.179 104.958 135.015 104.887C134.8 104.794 134.549 104.747 134.263 104.747H134.247C133.778 104.747 133.412 104.887 133.151 105.166C132.857 105.474 132.71 105.929 132.71 106.53C132.71 107.286 132.956 107.807 133.446 108.093C133.607 108.183 133.778 108.233 133.957 108.244C133.985 108.247 134.014 108.249 134.042 108.249C134.189 108.249 134.333 108.22 134.472 108.163C134.923 107.988 135.187 107.628 135.262 107.083V105.145ZM139.075 110.553C139.075 110.471 139.091 110.394 139.124 110.322C139.156 110.251 139.199 110.188 139.252 110.134C139.306 110.081 139.369 110.038 139.44 110.005C139.512 109.977 139.589 109.962 139.671 109.962C139.75 109.962 139.824 109.977 139.892 110.005C139.963 110.038 140.024 110.081 140.074 110.134C140.128 110.188 140.169 110.251 140.198 110.322C140.23 110.394 140.246 110.471 140.246 110.553C140.246 110.636 140.23 110.711 140.198 110.779C140.169 110.85 140.128 110.911 140.074 110.961C140.024 111.015 139.963 111.056 139.892 111.085C139.824 111.117 139.75 111.133 139.671 111.133C139.589 111.133 139.512 111.117 139.44 111.085C139.369 111.056 139.306 111.015 139.252 110.961C139.199 110.911 139.156 110.85 139.124 110.779C139.091 110.711 139.075 110.636 139.075 110.553ZM137.673 110.553C137.673 110.471 137.689 110.394 137.722 110.322C137.754 110.251 137.797 110.188 137.851 110.134C137.904 110.081 137.965 110.038 138.033 110.005C138.105 109.977 138.18 109.962 138.259 109.962C138.338 109.962 138.413 109.977 138.484 110.005C138.556 110.038 138.619 110.081 138.672 110.134C138.726 110.188 138.767 110.251 138.796 110.322C138.828 110.394 138.844 110.471 138.844 110.553C138.844 110.636 138.828 110.711 138.796 110.779C138.767 110.85 138.726 110.911 138.672 110.961C138.619 111.015 138.556 111.056 138.484 111.085C138.413 111.117 138.338 111.133 138.259 111.133C138.18 111.133 138.105 111.117 138.033 111.085C137.965 111.056 137.904 111.015 137.851 110.961C137.797 110.911 137.754 110.85 137.722 110.779C137.689 110.711 137.673 110.636 137.673 110.553ZM137.029 109.173V108.249H137.475C137.765 108.249 137.997 108.16 138.173 107.98C138.373 107.773 138.474 107.476 138.474 107.089V104.79H139.634V107.202C139.652 107.531 139.75 107.789 139.929 107.975C140.108 108.158 140.336 108.249 140.611 108.249H141.079V109.173H140.611C139.956 109.173 139.437 108.974 139.054 108.577C138.667 108.974 138.141 109.173 137.475 109.173H137.029ZM141.933 110.585C141.933 110.503 141.949 110.426 141.981 110.354C142.013 110.283 142.056 110.22 142.11 110.167C142.164 110.113 142.224 110.07 142.292 110.038C142.364 110.009 142.439 109.995 142.518 109.995C142.597 109.995 142.672 110.009 142.744 110.038C142.815 110.07 142.878 110.113 142.932 110.167C142.985 110.22 143.027 110.283 143.055 110.354C143.087 110.426 143.104 110.503 143.104 110.585C143.104 110.668 143.087 110.743 143.055 110.811C143.027 110.883 142.985 110.944 142.932 110.994C142.878 111.047 142.815 111.089 142.744 111.117C142.672 111.149 142.597 111.166 142.518 111.166C142.439 111.166 142.364 111.149 142.292 111.117C142.224 111.089 142.164 111.047 142.11 110.994C142.056 110.944 142.013 110.883 141.981 110.811C141.949 110.743 141.933 110.668 141.933 110.585ZM140.488 109.173V108.249H140.934C141.224 108.249 141.456 108.16 141.632 107.98C141.832 107.773 141.933 107.476 141.933 107.089V104.79H143.093V107.202C143.111 107.531 143.209 107.789 143.388 107.975C143.567 108.158 143.795 108.249 144.07 108.249H144.538V109.173H144.07C143.415 109.173 142.896 108.974 142.513 108.577C142.126 108.974 141.6 109.173 140.934 109.173H140.488ZM145.322 103.555C145.322 103.472 145.338 103.395 145.37 103.324C145.402 103.252 145.445 103.189 145.499 103.136C145.553 103.082 145.614 103.041 145.682 103.012C145.753 102.98 145.828 102.964 145.907 102.964C145.986 102.964 146.061 102.98 146.133 103.012C146.204 103.041 146.267 103.082 146.321 103.136C146.375 103.189 146.416 103.252 146.444 103.324C146.477 103.395 146.493 103.472 146.493 103.555C146.493 103.637 146.477 103.714 146.444 103.786C146.416 103.854 146.375 103.915 146.321 103.968C146.267 104.018 146.204 104.06 146.133 104.092C146.061 104.12 145.986 104.135 145.907 104.135C145.828 104.135 145.753 104.12 145.682 104.092C145.614 104.06 145.553 104.018 145.499 103.968C145.445 103.915 145.402 103.854 145.37 103.786C145.338 103.714 145.322 103.637 145.322 103.555ZM143.947 109.173V108.249H144.393C144.683 108.249 144.915 108.16 145.091 107.98C145.291 107.773 145.392 107.476 145.392 107.089V104.79H146.552V107.202C146.57 107.531 146.668 107.789 146.847 107.975C147.026 108.158 147.254 108.249 147.529 108.249H147.997V109.173H147.529C146.874 109.173 146.355 108.974 145.972 108.577C145.585 108.974 145.059 109.173 144.393 109.173H143.947ZM149.517 103.463C149.517 103.381 149.533 103.304 149.565 103.232C149.597 103.161 149.64 103.098 149.694 103.044C149.748 102.991 149.81 102.95 149.882 102.921C149.953 102.889 150.03 102.873 150.113 102.873C150.192 102.873 150.265 102.889 150.333 102.921C150.405 102.95 150.465 102.991 150.516 103.044C150.569 103.098 150.611 103.161 150.639 103.232C150.671 103.304 150.688 103.381 150.688 103.463C150.688 103.546 150.671 103.623 150.639 103.694C150.611 103.762 150.569 103.823 150.516 103.877C150.465 103.927 150.405 103.968 150.333 104C150.265 104.029 150.192 104.043 150.113 104.043C150.03 104.043 149.953 104.029 149.882 104C149.81 103.968 149.748 103.927 149.694 103.877C149.64 103.823 149.597 103.762 149.565 103.694C149.533 103.623 149.517 103.546 149.517 103.463ZM148.115 103.463C148.115 103.381 148.131 103.304 148.163 103.232C148.195 103.161 148.238 103.098 148.292 103.044C148.346 102.991 148.407 102.95 148.475 102.921C148.546 102.889 148.621 102.873 148.7 102.873C148.779 102.873 148.854 102.889 148.926 102.921C148.997 102.95 149.06 102.991 149.114 103.044C149.167 103.098 149.209 103.161 149.237 103.232C149.27 103.304 149.286 103.381 149.286 103.463C149.286 103.546 149.27 103.623 149.237 103.694C149.209 103.762 149.167 103.823 149.114 103.877C149.06 103.927 148.997 103.968 148.926 104C148.854 104.029 148.779 104.043 148.7 104.043C148.621 104.043 148.546 104.029 148.475 104C148.407 103.968 148.346 103.927 148.292 103.877C148.238 103.823 148.195 103.762 148.163 103.694C148.131 103.623 148.115 103.546 148.115 103.463ZM147.406 109.173V108.249H147.852C148.142 108.249 148.374 108.16 148.55 107.98C148.75 107.773 148.851 107.476 148.851 107.089V104.79H150.011V107.202C150.029 107.531 150.127 107.789 150.306 107.975C150.485 108.158 150.713 108.249 150.988 108.249H151.456V109.173H150.988C150.333 109.173 149.814 108.974 149.431 108.577C149.044 108.974 148.518 109.173 147.852 109.173H147.406ZM153.711 102.749V107.384C153.711 107.857 153.54 108.265 153.196 108.609C152.82 108.985 152.358 109.173 151.81 109.173H150.865V108.249H151.81C151.989 108.249 152.15 108.177 152.293 108.034C152.469 107.862 152.557 107.646 152.557 107.384V102.749H153.711ZM155.838 102.749V108.818H154.684V102.749H155.838ZM164.765 102.749V108.33C164.765 109.092 164.532 109.712 164.067 110.188C163.558 110.711 162.889 110.972 162.058 110.972C161.346 110.972 160.737 110.707 160.232 110.177C159.77 109.701 159.539 109.085 159.539 108.33C159.539 108.122 159.553 107.925 159.582 107.739C159.614 107.553 159.672 107.341 159.754 107.105L160.715 107.347C160.64 107.54 160.592 107.71 160.57 107.857C160.545 108.004 160.533 108.161 160.533 108.33C160.533 108.877 160.683 109.305 160.984 109.613C161.263 109.903 161.621 110.048 162.058 110.048C162.516 110.048 162.883 109.907 163.159 109.624C163.46 109.316 163.61 108.885 163.61 108.33V102.749H164.765ZM166.892 102.749V107.384C166.892 107.646 166.98 107.862 167.155 108.034C167.299 108.177 167.46 108.249 167.639 108.249H168.906V109.173H167.639C167.091 109.173 166.629 108.985 166.253 108.609C165.909 108.265 165.737 107.857 165.737 107.384V102.749H166.892ZM173.837 107.089C173.837 107.472 173.937 107.767 174.138 107.975C174.317 108.158 174.544 108.249 174.82 108.249C175.11 108.249 175.343 108.16 175.518 107.98C175.719 107.773 175.819 107.476 175.819 107.089V104.79H176.979V107.089C176.979 107.683 176.796 108.168 176.431 108.544C176.023 108.963 175.486 109.173 174.82 109.173C174.165 109.173 173.645 108.974 173.262 108.577C172.872 108.974 172.344 109.173 171.678 109.173C171.022 109.173 170.503 108.974 170.12 108.577C169.73 108.974 169.166 109.173 168.428 109.173V108.249C168.79 108.249 169.06 108.16 169.239 107.98C169.44 107.773 169.54 107.476 169.54 107.089V104.79H170.695V107.089C170.695 107.472 170.795 107.767 170.996 107.975C171.175 108.158 171.402 108.249 171.678 108.249C171.968 108.249 172.201 108.16 172.376 107.98C172.58 107.773 172.682 107.476 172.682 107.089V104.79H173.837V107.089ZM177.35 110.956C177.636 110.691 177.856 110.467 178.01 110.285C178.164 110.098 178.284 109.927 178.37 109.769C178.596 109.347 178.708 108.863 178.708 108.319V104.79H179.863V108.292C179.863 108.972 179.72 109.583 179.434 110.124C179.319 110.342 179.163 110.568 178.966 110.8C178.787 111.015 178.555 111.253 178.268 111.515L177.35 110.956ZM182.323 102.749V108.818H181.168V102.749H182.323ZM181.19 110.199C181.129 110.098 181.093 109.991 181.083 109.876V109.823C181.083 109.748 181.095 109.674 181.12 109.603C181.206 109.363 181.398 109.243 181.695 109.243C181.881 109.243 182.037 109.291 182.162 109.388C182.273 109.477 182.345 109.599 182.377 109.753L181.937 109.807C181.919 109.721 181.886 109.658 181.84 109.619C181.804 109.594 181.756 109.581 181.695 109.581C181.627 109.581 181.578 109.617 181.55 109.688C181.535 109.724 181.528 109.764 181.528 109.807C181.528 109.821 181.53 109.837 181.534 109.855C181.537 109.919 181.553 109.979 181.582 110.032C181.632 110.125 181.693 110.181 181.765 110.199H182.463V110.532H180.938V110.199H181.19Z" fill="white" fill-opacity="0.7"/>
</g>
<defs>
<filter id="filter0_b_3461_6328" x="-4" y="-4" width="221" height="148" filterUnits="userSpaceOnUse" color-interpolation-filters="sRGB">
<feFlood flood-opacity="0" result="BackgroundImageFix"/>
<feGaussianBlur in="BackgroundImageFix" stdDeviation="2"/>
<feComposite in2="SourceAlpha" operator="in" result="effect1_backgroundBlur_3461_6328"/>
<feBlend mode="normal" in="SourceGraphic" in2="effect1_backgroundBlur_3461_6328" result="shape"/>
</filter>
</defs>
</svg>
