<svg width="38" height="38" viewBox="0 0 38 38" fill="none" xmlns="http://www.w3.org/2000/svg">
<g id="Sphere glob 1">
<path id="Vector" opacity="0.4" fill-rule="evenodd" clip-rule="evenodd" d="M19 6.1756C24.7158 6.1756 29.5925 9.8806 31.35 14.9948C28.3417 13.2531 23.5917 12.3506 19 12.3506C14.4083 12.3506 9.65833 13.2531 6.65 14.9948C8.4075 9.8806 13.2842 6.1756 19 6.1756ZM34.4217 18.8264C34.2158 10.5139 27.3758 3.8006 19 3.8006C10.6242 3.8006 3.78417 10.5139 3.57833 18.8264C3.5625 18.9689 3.5625 19.0956 3.5625 19.2381C3.5625 19.3806 3.5625 19.5073 3.57833 19.6498C3.78417 27.9781 10.6242 34.6756 19 34.6756C27.3758 34.6756 34.2158 27.9781 34.4217 19.6498C34.4375 19.5073 34.4375 19.3806 34.4375 19.2381C34.4375 19.0956 34.4375 18.9689 34.4217 18.8264Z" fill="white"/>
<path id="Vector_2" d="M5.9375 19.2388C5.9375 21.123 10.9092 23.7513 19 23.7513C27.0908 23.7513 32.0625 21.123 32.0625 19.2388C32.0625 17.3546 27.0908 14.7263 19 14.7263C10.9092 14.7263 5.9375 17.3546 5.9375 19.2388Z" fill="white"/>
</g>
</svg>
