<svg width="23" height="22" viewBox="0 0 23 22" fill="none" xmlns="http://www.w3.org/2000/svg">
<path d="M7.58805 8.42255L7.58805 8.42256C7.84499 8.21936 8.16285 8.10861 8.4904 8.10811L7.58805 8.42255ZM7.58805 8.42255L7.58548 8.42461M7.58805 8.42255L7.58548 8.42461M7.58548 8.42461L4.24339 11.1066C4.1126 11.2036 4.00565 11.329 3.93051 11.4733L4.33987 11.6865M7.58548 8.42461L4.33987 11.6865M4.33987 11.6865L3.93051 11.4733C3.85331 11.6216 3.81172 11.7857 3.80909 11.953L3.80904 11.953M4.33987 11.6865L3.80904 11.953M3.80904 11.953V11.9602M3.80904 11.953V11.9602M3.80904 11.9602V16.4127H3.80902M3.80904 11.9602L3.80902 16.4127M3.80902 16.4127L3.80905 16.4165M3.80902 16.4127L3.80905 16.4165M3.80905 16.4165C3.81249 16.8371 3.98177 17.2394 4.28009 17.5359C4.5785 17.8327 4.98188 17.9995 5.40253 18.0005H5.40357M3.80905 16.4165L5.40357 18.0005M5.40357 18.0005H11.5734H5.40357ZM13.0624 17.0257L13.0623 17.0259C12.9814 17.2168 12.864 17.3902 12.7165 17.5363C12.5683 17.6888 12.39 17.8088 12.1927 17.8888C12.1927 17.8888 12.1927 17.8888 12.1927 17.8888L12.0193 17.4611L13.0624 17.0257ZM13.0624 17.0257C13.1441 16.8328 13.187 16.6257 13.1886 16.4161H13.1886M13.0624 17.0257L13.1886 16.4161M13.1886 16.4161V16.4127M13.1886 16.4161V16.4127M13.1886 16.4127V11.9484H13.1888M13.1886 16.4127L13.1888 11.9484M13.1888 11.9484L13.1884 11.9355M13.1888 11.9484L13.1884 11.9355M13.1884 11.9355C13.1839 11.7753 13.1434 11.6182 13.0697 11.4758M13.1884 11.9355L9.3935 8.42221M9.3935 8.42221L9.3935 8.42222L12.7693 11.1178C12.8946 11.2134 12.9973 11.3356 13.0697 11.4758M9.3935 8.42221L9.39208 8.42109M9.3935 8.42221L9.39208 8.42109M13.0697 11.4758L12.6597 11.6877M13.0697 11.4758C13.0697 11.4757 13.0696 11.4756 13.0695 11.4754L12.6597 11.6877M12.6597 11.6877C12.618 11.607 12.5586 11.5367 12.4859 11.4821L12.6597 11.6877ZM9.39208 8.42109C9.13554 8.21789 8.81777 8.10758 8.49053 8.10811L9.39208 8.42109ZM5.86087 18.3491V18.3473L5.40001 18.3466C4.88717 18.3459 4.39549 18.1422 4.03237 17.7801C3.66946 17.4182 3.46444 16.9275 3.46203 16.415V11.9548C3.46338 11.7386 3.51458 11.5257 3.61162 11.3327L3.61165 11.3326C3.70885 11.1392 3.84946 10.9708 4.0225 10.8407L4.02832 10.8363L4.03399 10.8318L7.3714 8.1532C7.37164 8.15301 7.37188 8.15282 7.37212 8.15263C7.68956 7.9003 8.08312 7.76293 8.48865 7.76293C8.89438 7.76293 9.28811 7.90042 9.60558 8.15294C9.60568 8.15302 9.60578 8.1531 9.60588 8.15318L12.9755 10.8435L12.9755 10.8436L12.9833 10.8496C13.152 10.9785 13.2893 11.1443 13.3846 11.3343C13.4795 11.5236 13.5303 11.7319 13.533 11.9436V16.4194C13.529 16.9318 13.323 17.4219 12.9596 17.7834C12.5958 18.1451 12.1039 18.3484 11.5908 18.3491H5.86087Z" fill="white" stroke="white" stroke-width="0.923077"/>
<path d="M8.37155 18.0942L8.37142 18.0941C8.33904 18.0617 8.32079 18.0177 8.32079 17.9718V14.9696C8.32079 14.9237 8.33905 14.8797 8.37142 14.8473L8.37155 14.8472C8.40397 14.8148 8.44795 14.7966 8.49387 14.7966C8.53979 14.7966 8.58378 14.8148 8.61619 14.8472L8.61637 14.8474C8.64872 14.8797 8.66697 14.9237 8.66697 14.9696V17.9718C8.66697 18.0177 8.64872 18.0617 8.61637 18.094L8.61619 18.0942C8.58378 18.1266 8.53979 18.1449 8.49387 18.1449C8.44795 18.1449 8.40398 18.1266 8.37155 18.0942Z" fill="white" stroke="white" stroke-width="0.923077"/>
<path d="M15.8357 17.9599L15.8358 17.9597C15.8682 17.9274 15.9121 17.9091 15.9581 17.9091L17.0581 17.9091L17.0587 17.9091C17.4918 17.9085 17.907 17.7362 18.2133 17.43C18.5195 17.1238 18.6918 16.7086 18.6924 16.2755V16.2748V5.58285V5.58248C18.692 5.14928 18.52 4.73381 18.2136 4.42726C17.9073 4.12077 17.492 3.94833 17.0588 3.94771H17.0581L12.6378 3.94771L12.6374 3.94771C12.2069 3.94801 11.7941 4.11922 11.4896 4.42359L11.4895 4.42366C11.1851 4.72815 11.014 5.14097 11.0136 5.57147V5.57185V6.31562C11.0136 6.36154 10.9954 6.40553 10.963 6.43795L10.9628 6.43806C10.9305 6.47044 10.8865 6.4887 10.8405 6.4887C10.7946 6.4887 10.7506 6.47044 10.7182 6.43806L10.7181 6.43795C10.6857 6.40553 10.6675 6.36155 10.6675 6.31562V5.5721C10.6681 5.04968 10.8759 4.54882 11.2453 4.17938C11.6148 3.80995 12.1156 3.60215 12.638 3.60155H17.0578C17.583 3.60236 18.0865 3.8114 18.4577 4.18283C18.8291 4.55436 19.038 5.05802 19.0385 5.58333V16.2742C19.0379 16.7994 18.8289 17.3029 18.4575 17.6743C18.0861 18.0457 17.5827 18.2546 17.0575 18.2553H15.9581C15.9121 18.2553 15.8681 18.237 15.8357 18.2047C15.8032 18.1722 15.785 18.1281 15.785 18.0822C15.785 18.0364 15.8032 17.9924 15.8357 17.9599Z" fill="white" stroke="white" stroke-width="0.923077"/>
<path d="M16.5762 15.0335L16.25 14.707C16.2173 14.7396 16.1732 14.7578 16.1275 14.7578L16.1256 14.7578C16.091 14.758 16.057 14.7478 16.028 14.7287L15.7734 15.1136M16.5762 15.0335L16.2498 14.7072C16.2824 14.6745 16.3006 14.6305 16.3006 14.5847V14.5791C16.3 14.5449 16.2894 14.5116 16.2701 14.4833C16.2506 14.4546 16.223 14.4324 16.191 14.4194C16.1586 14.4063 16.1233 14.4032 16.0895 14.4102C16.0555 14.4172 16.0244 14.4341 16 14.4589L15.9998 14.459C15.9757 14.4834 15.9591 14.5147 15.9525 14.5491L15.9525 14.5492C15.946 14.5829 15.9496 14.6182 15.9631 14.6503L15.5376 14.8291M16.5762 15.0335C16.4572 15.1524 16.2958 15.2194 16.1275 15.2194M16.5762 15.0335C16.6952 14.9144 16.7621 14.753 16.7621 14.5847V14.5763C16.7609 14.4504 16.7225 14.3277 16.6517 14.2236C16.5809 14.1196 16.4808 14.0388 16.3641 13.9916C16.2474 13.9444 16.1194 13.9327 15.9961 13.9582C15.8728 13.9836 15.7599 14.0451 15.6714 14.1347C15.583 14.2242 15.5232 14.338 15.4993 14.4616L16.1275 15.2194M15.5376 14.8291L15.963 14.6501C15.9765 14.6822 15.9992 14.7096 16.0282 14.7288L15.7734 15.1136M15.5376 14.8291C15.5864 14.9451 15.6685 15.0441 15.7734 15.1136M15.5376 14.8291L16.1275 15.2194M15.7734 15.1136C15.8784 15.1831 16.0016 15.2199 16.1275 15.2194" fill="white" stroke="white" stroke-width="0.923077"/>
<path d="M16.129 11.6412C16.0459 11.6416 15.9635 11.6257 15.8866 11.5942C15.8097 11.5627 15.7398 11.5164 15.6808 11.4578C15.6218 11.3993 15.575 11.3296 15.543 11.2529C15.5111 11.1762 15.4945 11.0939 15.4944 11.0108V11.0023C15.4952 10.877 15.5331 10.7548 15.6034 10.6509C15.6736 10.5471 15.773 10.4665 15.889 10.4191C16.0051 10.3717 16.1326 10.3597 16.2554 10.3846C16.3782 10.4096 16.4909 10.4704 16.5792 10.5593C16.6676 10.6482 16.7276 10.7614 16.7517 10.8843C16.7759 11.0073 16.763 11.1347 16.7149 11.2504C16.6667 11.3661 16.5854 11.465 16.4812 11.5346C16.3768 11.604 16.2543 11.6412 16.129 11.6412Z" fill="white"/>
<path d="M13.5395 8.07326C13.4136 8.07376 13.2904 8.03695 13.1853 7.96751C13.0804 7.89806 12.9983 7.79908 12.9495 7.68305C12.9008 7.56702 12.8875 7.43912 12.9113 7.31553C12.9351 7.19193 12.995 7.07815 13.0834 6.98856C13.1718 6.89897 13.2848 6.83757 13.4081 6.81212C13.5313 6.78666 13.6594 6.79828 13.776 6.84553C13.8927 6.89277 13.9928 6.97352 14.0637 7.07757C14.1345 7.18163 14.1729 7.30431 14.1741 7.43018V7.43865C14.1741 7.60696 14.1071 7.76837 13.9882 7.88738C13.8691 8.00639 13.7078 8.07326 13.5395 8.07326Z" fill="white"/>
<path d="M16.1309 8.07326C16.005 8.07376 15.8818 8.03695 15.7768 7.96751C15.6719 7.89806 15.5898 7.79908 15.541 7.68305C15.4922 7.56702 15.4789 7.43912 15.5027 7.31553C15.5266 7.19193 15.5864 7.07815 15.6748 6.98856C15.7632 6.89897 15.8762 6.83757 15.9995 6.81212C16.1228 6.78666 16.2508 6.79828 16.3675 6.84553C16.4842 6.89277 16.5843 6.97352 16.6551 7.07757C16.7259 7.18163 16.7643 7.30431 16.7655 7.43018V7.43865C16.7655 7.60696 16.6986 7.76837 16.5796 7.88738C16.4606 8.00639 16.2992 8.07326 16.1309 8.07326Z" fill="white"/>
</svg>
