<svg width="23" height="22" viewBox="0 0 23 22" fill="none" xmlns="http://www.w3.org/2000/svg">
<path d="M3.30846 17.2867C3.30846 17.1911 3.38596 17.1136 3.48154 17.1136H18.7123C18.8079 17.1136 18.8854 17.1911 18.8854 17.2867C18.8854 17.3822 18.8079 17.4597 18.7123 17.4597H3.48154C3.38596 17.4597 3.30846 17.3822 3.30846 17.2867Z" fill="white" stroke="white" stroke-width="0.923077"/>
<path d="M7.93881 10.893C8.0344 10.893 8.11189 10.9705 8.11189 11.0661V11.0745C8.11189 11.1701 8.0344 11.2476 7.93881 11.2476C7.84323 11.2476 7.76574 11.1701 7.76574 11.0745V11.0661C7.76574 10.9705 7.84323 10.893 7.93881 10.893Z" fill="white" stroke="white" stroke-width="0.923077"/>
<path d="M7.93881 8.08025C8.0344 8.08025 8.11189 8.15774 8.11189 8.25333V8.26179C8.11189 8.35738 8.0344 8.43487 7.93881 8.43487C7.84323 8.43487 7.76574 8.35737 7.76574 8.26179V8.25333C7.76574 8.15774 7.84323 8.08025 7.93881 8.08025Z" fill="white" stroke="white" stroke-width="0.923077"/>
<path d="M14.5221 14.3305C14.6176 14.3305 14.6951 14.408 14.6951 14.5036V14.512C14.6951 14.6076 14.6176 14.6851 14.5221 14.6851C14.4264 14.6851 14.349 14.6077 14.349 14.512V14.5036C14.349 14.408 14.4264 14.3305 14.5221 14.3305Z" fill="white" stroke="white" stroke-width="0.923077"/>
<path fill-rule="evenodd" clip-rule="evenodd" d="M14.5221 11.3702C14.8725 11.3702 15.1567 11.6543 15.1567 12.0048V12.0133C15.1567 12.3637 14.8725 12.6479 14.5221 12.6479C14.1715 12.6479 13.8875 12.3637 13.8875 12.0133V12.0048C13.8875 11.6543 14.1715 11.3702 14.5221 11.3702Z" fill="white"/>
<path fill-rule="evenodd" clip-rule="evenodd" d="M16.2454 7.84446C17.3706 7.72478 18.3525 8.60588 18.3525 9.73841V17.2847C18.3525 17.6351 18.0683 17.9193 17.7179 17.9193C17.3674 17.9193 17.0832 17.6351 17.0832 17.2847V9.73841C17.0832 9.36119 16.7563 9.06666 16.3799 9.10654C16.3798 9.10655 16.38 9.10654 16.3799 9.10654L11.3927 9.64085C11.0442 9.67816 10.7314 9.42593 10.6941 9.07743C10.6567 8.72893 10.9089 8.41616 11.2575 8.37882L16.2454 7.84446Z" fill="white"/>
<path fill-rule="evenodd" clip-rule="evenodd" d="M7.93881 13.9417C8.2893 13.9417 8.57343 14.2258 8.57343 14.5763V17.2857C8.57343 17.6362 8.2893 17.9203 7.93881 17.9203C7.58833 17.9203 7.3042 17.6362 7.3042 17.2857V14.5763C7.3042 14.2258 7.58833 13.9417 7.93881 13.9417Z" fill="white"/>
<path fill-rule="evenodd" clip-rule="evenodd" d="M3.92603 5.98292C3.92603 4.85523 4.90055 3.97506 6.02248 4.08861L10.2379 4.51584C10.2378 4.51582 10.2381 4.51585 10.2379 4.51584C11.2113 4.61361 11.9511 5.43282 11.9511 6.41021V8.22009C11.957 8.25471 11.96 8.29027 11.96 8.32654V17.2863C11.96 17.6317 11.6841 17.9127 11.3407 17.9208C11.3327 17.9211 11.3246 17.9212 11.3165 17.9212C10.966 17.9212 10.6819 17.6371 10.6819 17.2866V6.41021C10.6819 6.08364 10.4352 5.81121 10.1113 5.77873L5.89468 5.35139C5.89465 5.35139 5.8947 5.35139 5.89468 5.35139C5.51992 5.31351 5.19526 5.60733 5.19526 5.98292V17.2866C5.19526 17.6371 4.91113 17.9212 4.56064 17.9212C4.21016 17.9212 3.92603 17.6371 3.92603 17.2866V5.98292Z" fill="white"/>
</svg>
