<svg width="41" height="41" viewBox="0 0 41 41" fill="none" xmlns="http://www.w3.org/2000/svg">
<path d="M38.869 0C29.4538 0 21.8202 7.64135 21.8202 17.0661V19.1991H23.951C33.3663 19.1991 40.9999 11.5578 40.9999 2.13299V0H38.869Z" fill="#B2B2B2"/>
<path d="M2.70981 0H0.578979V2.13299C0.578979 11.5578 8.2126 19.1991 17.6278 19.1991H19.7587V17.0661C19.7587 7.64135 12.125 0 2.70981 0Z" fill="#14C0D8"/>
<path d="M0.208252 38.79V40.923H2.33908C11.7543 40.923 19.3879 33.2816 19.3879 23.8569V21.7239H17.2571C7.84187 21.7239 0.208252 29.3652 0.208252 38.79Z" fill="#F27227"/>
<path d="M23.951 21.7241H21.8202V23.8571C21.8202 33.2819 29.4538 40.9232 38.869 40.9232H40.9999V38.7902C40.9999 29.3655 33.3663 21.7241 23.951 21.7241Z" fill="#D4088C"/>
</svg>
