<svg width="38" height="38" viewBox="0 0 38 38" fill="none" xmlns="http://www.w3.org/2000/svg">
<g id="Triangle2 1">
<g id="Group" opacity="0.4">
<path id="Vector" fill-rule="evenodd" clip-rule="evenodd" d="M20.187 21.3858C20.187 21.7252 20.3681 22.0389 20.6622 22.2086L33.3512 29.5292C33.6173 29.6827 33.9584 29.5461 33.9999 29.2416C34.1143 28.4052 33.9577 27.5457 33.5187 26.7762L22.4987 7.44375C22.0889 6.72424 21.488 6.17621 20.7784 5.83854C20.4924 5.70246 20.187 5.93015 20.187 6.24683V21.3858Z" fill="#D4088C"/>
<path id="Vector_2" fill-rule="evenodd" clip-rule="evenodd" d="M17.3365 22.208C17.6307 22.0384 17.8118 21.7246 17.8118 21.3851V6.33077C17.8118 6.00645 17.4929 5.77853 17.2058 5.92946C16.5698 6.26379 16.028 6.76772 15.6506 7.42412L4.49128 26.7581C4.04534 27.531 3.88563 28.3959 3.99959 29.2383C4.04084 29.5431 4.38214 29.6803 4.6486 29.5266L17.3365 22.208Z" fill="#D4088C"/>
</g>
<path id="Vector_3" fill-rule="evenodd" clip-rule="evenodd" d="M19.4732 24.2637C19.1795 24.0942 18.8176 24.0942 18.5238 24.2637L6.06804 31.4484C5.77843 31.6154 5.74959 32.021 6.04132 32.1843C6.60143 32.4978 7.23413 32.6777 7.91048 32.6777H30.0882C30.7641 32.6777 31.3963 32.4981 31.9554 32.1857C32.2474 32.0226 32.2186 31.6168 31.929 31.4498L19.4732 24.2637Z" fill="#D4088C"/>
</g>
</svg>
