<svg width="23" height="22" viewBox="0 0 23 22" fill="none" xmlns="http://www.w3.org/2000/svg">
<path d="M8.20131 12.1129C10.2818 12.1129 11.9684 10.4264 11.9684 8.34584C11.9684 6.26532 10.2818 4.57874 8.20131 4.57874C6.12079 4.57874 4.4342 6.26532 4.4342 8.34584C4.4342 10.4264 6.12079 12.1129 8.20131 12.1129Z" stroke="white" stroke-width="1.44" stroke-linecap="round" stroke-linejoin="round"/>
<path d="M3.0588 17.4238C2.96996 16.9124 3.00665 16.3823 3.00665 15.8658C3.00665 13.9189 4.58491 12.3406 6.53179 12.3406H9.96444C11.9113 12.3406 13.4895 13.9189 13.4895 15.8658C13.4895 16.3823 13.5262 16.9124 13.4375 17.4238" stroke="white" stroke-width="1.44" stroke-linecap="round" stroke-linejoin="round"/>
<path d="M15.999 13.1984C17.4224 13.1984 18.5763 12.0445 18.5763 10.6211C18.5763 9.19767 17.4224 8.04376 15.999 8.04376C14.5755 8.04376 13.4216 9.19767 13.4216 10.6211C13.4216 12.0445 14.5755 13.1984 15.999 13.1984Z" stroke="white" stroke-width="1.44" stroke-linecap="round" stroke-linejoin="round"/>
<path d="M19.6774 16.9291C19.7398 16.5698 19.714 16.1975 19.714 15.8346C19.714 14.4669 18.6053 13.3582 17.2376 13.3582H14.8262C14.127 13.3582 13.4955 13.6479 13.0452 14.1139" stroke="white" stroke-width="1.44" stroke-linecap="round" stroke-linejoin="round"/>
</svg>
