<svg width="20" height="20" viewBox="0 0 20 20" fill="none" xmlns="http://www.w3.org/2000/svg">
<path fill-rule="evenodd" clip-rule="evenodd" d="M13.041 8.5514L11.6586 11.3802C11.5546 11.593 11.341 11.717 11.1194 11.717C11.0306 11.717 10.941 11.6978 10.8562 11.6562C10.5578 11.5106 10.4354 11.1514 10.5802 10.8538L11.9626 8.025C12.1082 7.72663 12.4682 7.60423 12.765 7.74903C13.0634 7.89463 13.1866 8.2538 13.041 8.5514ZM9.0842 8.5514L7.70176 11.3802C7.59776 11.593 7.38416 11.717 7.16256 11.717C7.07376 11.717 6.98416 11.6978 6.89936 11.6562C6.60176 11.5106 6.47856 11.1514 6.62416 10.8538L8.0066 8.025C8.1522 7.72663 8.5114 7.60423 8.8082 7.74903C9.1066 7.89463 9.2298 8.2538 9.0842 8.5514ZM15.8194 5.03383C14.4658 3.31463 12.4474 2.25623 10.2834 2.13063C8.121 2.00663 5.99536 2.81223 4.46336 4.34903C2.21856 6.60103 1.60656 10.0578 2.93216 12.9338C3.02016 13.153 3.28656 13.6506 3.72416 14.4114C3.79856 14.5402 3.79136 14.6962 3.70576 14.8178C3.52736 15.0698 3.30256 15.3914 3.12736 15.6546C2.90096 15.9946 2.87936 16.4282 3.07216 16.7882C3.26336 17.1442 3.63296 17.3658 4.03696 17.3658H5.16896C6.99136 17.365 9.229 17.3642 9.8122 17.3658H9.8394C12.081 17.3658 14.2002 16.3762 15.657 14.6482C17.9746 11.8978 18.0434 7.85463 15.8194 5.03383Z" fill="white"/>
</svg>
