<svg width="20" height="20" viewBox="0 0 20 20" fill="none" xmlns="http://www.w3.org/2000/svg">
<path fill-rule="evenodd" clip-rule="evenodd" d="M3.06729 5.76807C2.73609 5.76807 2.46729 6.03687 2.46729 6.36807V13.6241C2.46729 13.9553 2.73609 14.2241 3.06729 14.2241C3.39849 14.2241 3.66728 13.9553 3.66728 13.6241V6.36807C3.66728 6.03687 3.39849 5.76807 3.06729 5.76807Z" fill="white"/>
<path fill-rule="evenodd" clip-rule="evenodd" d="M17.4672 5.76807C17.136 5.76807 16.8672 6.03687 16.8672 6.36807V13.6241C16.8672 13.9553 17.136 14.2241 17.4672 14.2241C17.7984 14.2241 18.0672 13.9553 18.0672 13.6241V6.36807C18.0672 6.03687 17.7984 5.76807 17.4672 5.76807Z" fill="white"/>
<path fill-rule="evenodd" clip-rule="evenodd" d="M9.83577 8.73903C9.78377 8.71823 9.73417 8.70703 9.69017 8.70703C9.65737 8.70703 9.62857 8.71343 9.60617 8.72623C9.55417 8.75583 9.53417 8.82943 9.52697 8.88703C9.44777 9.58703 9.44777 10.3454 9.52857 11.1294C9.53737 11.1982 9.56537 11.259 9.60137 11.2806C9.63657 11.3006 9.71817 11.307 9.83817 11.2582C10.4198 11.0254 10.975 10.6774 11.443 10.2526C11.535 10.1678 11.5846 10.0774 11.5846 9.99663C11.5838 9.88943 11.4974 9.79583 11.4462 9.75023C10.975 9.32223 10.4342 8.98383 9.83577 8.73903Z" fill="white"/>
<path fill-rule="evenodd" clip-rule="evenodd" d="M12.2526 11.1386L12.251 11.141C11.6774 11.6602 10.9982 12.0874 10.2862 12.373C10.079 12.4554 9.8718 12.497 9.6718 12.497C9.4302 12.497 9.199 12.4362 8.9926 12.3154C8.6326 12.1034 8.3934 11.721 8.3366 11.2658C8.2454 10.3834 8.2454 9.53779 8.3358 8.74099C8.3982 8.27139 8.6358 7.901 9.0062 7.6874C9.3846 7.4698 9.8526 7.449 10.2918 7.629C11.0174 7.925 11.6774 8.3402 12.2502 8.8594C12.5918 9.1666 12.7822 9.56899 12.7846 9.99059C12.7862 10.4154 12.5974 10.8218 12.2526 11.1386ZM12.623 3.2002H7.87103C6.28223 3.2002 4.99023 4.4922 4.99023 6.08019V13.9202C4.99023 15.5082 6.28223 16.8002 7.87103 16.8002H12.623C14.2118 16.8002 15.5038 15.5082 15.5038 13.9202V6.08019C15.5038 4.4922 14.2118 3.2002 12.623 3.2002Z" fill="white"/>
</svg>
