<svg width="17" height="14" viewBox="0 0 17 14" fill="none" xmlns="http://www.w3.org/2000/svg">
<path d="M17 3.09307V11.375C17 12.0445 16.7515 12.6888 16.3053 13.176C15.8591 13.6631 15.2489 13.9563 14.5996 13.9956L14.45 14H2.55C1.89957 14 1.27371 13.7442 0.800478 13.2849C0.327244 12.8255 0.0424086 12.1974 0.0042501 11.529L0 11.375V3.09307L8.02825 8.60297L8.12685 8.66072C8.24305 8.71917 8.37067 8.74955 8.5 8.74955C8.62933 8.74955 8.75695 8.71917 8.87315 8.66072L8.97175 8.60297L17 3.09307Z" fill="white"/>
<path d="M14.45 0C15.368 0 16.173 0.498753 16.6218 1.24863L8.50001 6.82241L0.378256 1.24863C0.591377 0.892302 0.884188 0.593604 1.23226 0.377462C1.58033 0.161319 1.97356 0.0339994 2.37916 0.00612501L2.55001 0H14.45Z" fill="white"/>
<path d="M17 3.09307V11.375C17 12.0445 16.7515 12.6888 16.3053 13.176C15.8591 13.6631 15.2489 13.9563 14.5996 13.9956L14.45 14H2.55C1.89957 14 1.27371 13.7442 0.800478 13.2849C0.327244 12.8255 0.0424086 12.1974 0.0042501 11.529L0 11.375V3.09307L8.02825 8.60297L8.12685 8.66072C8.24305 8.71917 8.37067 8.74955 8.5 8.74955C8.62933 8.74955 8.75695 8.71917 8.87315 8.66072L8.97175 8.60297L17 3.09307Z" stroke="white"/>
<path d="M14.45 0C15.368 0 16.173 0.498753 16.6218 1.24863L8.50001 6.82241L0.378256 1.24863C0.591377 0.892302 0.884188 0.593604 1.23226 0.377462C1.58033 0.161319 1.97356 0.0339994 2.37916 0.00612501L2.55001 0H14.45Z" stroke="white"/>
</svg>
