<svg width="22" height="22" viewBox="0 0 22 22" fill="none" xmlns="http://www.w3.org/2000/svg">
<path fill-rule="evenodd" clip-rule="evenodd" d="M13.435 11.7677L10.2037 13.6069C10.069 13.6799 9.92473 13.716 9.78217 13.716C9.62993 13.716 9.47945 13.6746 9.34393 13.5937C9.08341 13.4388 8.92765 13.1669 8.92765 12.8641V9.18485C8.92765 8.87685 9.08781 8.59881 9.35537 8.44481C9.62113 8.29081 9.93793 8.28905 10.2054 8.44305L13.435 10.2822C13.7008 10.4318 13.8662 10.7178 13.8662 11.0241C13.8662 11.3321 13.7008 11.6163 13.435 11.7677ZM18.9773 6.50353C18.7494 5.56193 18.0383 4.80865 17.1222 4.53321C15.5673 4.02017 6.30877 4.04921 4.89021 4.56401C3.97061 4.82625 3.25517 5.58305 3.03429 6.50001C2.51333 8.02329 2.51333 14.0451 3.02637 15.5517C3.28157 16.4713 3.99613 17.199 4.86117 17.4393C5.62237 17.7156 8.34069 17.852 11.0432 17.852C13.7281 17.852 16.3989 17.7173 17.1152 17.4481C18.0348 17.1753 18.7485 16.4193 18.9658 15.5165C19.485 14.0222 19.4868 8.01625 18.9773 6.50353Z" fill="#4B4851"/>
</svg>
