<?xml version="1.0" encoding="UTF-8"?>
<svg id="Layer_1" data-name="Layer 1" xmlns="http://www.w3.org/2000/svg" viewBox="0 0 1920 1080">
  <defs>
    <style>
      .cls-1 {
        fill: #480683;
      }

      .cls-2 {
        fill: #480689;
      }

      .cls-3 {
        fill: #f27227;
      }

      .cls-4 {
        fill: #14c0d8;
      }

      .cls-5 {
        fill: #d4088c;
      }
    </style>
  </defs>
  <g>
    <path class="cls-1" d="M265.66,503.61c4.25-3.97,9.69-5.96,16.31-5.96h56.73v41.98h-56.73c-6.62,0-12.05-1.99-16.31-5.96-4.25-3.97-6.38-8.98-6.38-15.03s2.13-11.06,6.38-15.03Z"/>
    <path class="cls-1" d="M481.22,394.7c11.63,7.19,20.8,16.97,27.51,29.36,6.71,12.39,10.07,26.05,10.07,40.98s-3.31,28.89-9.93,40.13c-6.62,11.25-15.41,19.81-26.38,25.67-10.97,5.86-22.97,8.79-36.02,8.79-10.21,0-20.28-1.79-30.21-5.39-9.93-3.59-19.15-8.98-27.65-16.17-5.67,7-12.81,12.34-21.41,16.03-8.61,3.69-18.11,5.53-28.5,5.53-6.43,0-11.81-2.08-16.17-6.24-4.35-4.16-6.52-9.26-6.52-15.32s2.08-10.96,6.24-14.75c4.16-3.78,9.64-5.67,16.45-5.67,6.05,0,10.68-1.09,13.9-3.26,3.21-2.17,5.53-5.15,6.95-8.93,1.42-3.78,3.07-9.64,4.96-17.59,1.89-8.13,3.21-13.42,3.97-15.88,5.86-21.56,15.08-38.29,27.65-50.2,12.57-11.91,27.84-17.87,45.81-17.87,14.56,0,27.65,3.59,39.28,10.78ZM465.77,491.27c6.81-6.14,10.21-14.89,10.21-26.24s-3.12-20.09-9.36-27.37c-6.24-7.28-14.47-10.92-24.68-10.92-7.76,0-14.04,2.6-18.86,7.8-4.82,5.2-9.12,13.47-12.91,24.82-1.89,5.49-3.31,11.25-4.25,17.3-.38,1.32-.71,2.88-.99,4.68-.28,1.8-.81,3.83-1.56,6.1,5.48,4.35,11.44,7.61,17.87,9.79,6.43,2.18,12.67,3.26,18.72,3.26,10.4,0,19-3.07,25.81-9.22ZM562.2,497.66v41.98c-25.34,0-43.54-5.67-54.6-17.02-11.06-11.35-16.59-28.55-16.59-51.62,0-4.16.09-7.37.28-9.64h27.23c0,10.78,3.02,19.38,9.08,25.81,6.99,7,18.53,10.49,34.6,10.49Z"/>
    <path class="cls-1" d="M725.86,220.26v19.57c0,7.37-2.46,13.57-7.37,18.58-4.92,5.01-10.97,7.52-18.15,7.52-6.81,0-12.67-2.46-17.59-7.37-4.54,4.91-10.4,7.37-17.58,7.37s-13.47-2.46-18.29-7.37c-4.82-4.92-7.23-11.15-7.23-18.72v-19.85h15.6v19.85c0,3.22.9,5.77,2.69,7.66,1.79,1.89,4.21,2.84,7.23,2.84s5.48-.99,7.37-2.98c1.89-1.99,2.84-4.49,2.84-7.52v-19.85h15.32v19.85c0,3.22.85,5.77,2.55,7.66,1.7,1.89,4.06,2.84,7.09,2.84,3.21,0,5.72-.94,7.52-2.84,1.79-1.89,2.69-4.44,2.69-7.66v-19.57h15.32ZM640.48,285.78l84.81-14.47v15.03l-85.09,15.03.28-15.6Z"/>
    <path class="cls-1" d="M839.88,497.66v41.98c-29.12,0-49.17-7.94-60.13-23.83-6.81,7.56-15.51,13.43-26.09,17.59-10.59,4.16-22.31,6.24-35.17,6.24h-156.28c-6.62,0-12.05-1.99-16.31-5.96-4.25-3.97-6.38-8.98-6.38-15.03s2.13-11.06,6.38-15.03c4.25-3.97,9.69-5.96,16.31-5.96h14.75v-166.21h42.54l-.28,94.45c8.13-13.8,19.1-24.2,32.9-31.2,13.8-6.99,30.16-10.49,49.07-10.49,17.4,0,33.37,3.69,47.93,11.06,14.56,7.37,26.09,17.49,34.6,30.35,8.51,12.86,12.86,27.23,13.05,43.11,1.13,7.76,3.97,13.9,8.51,18.44,6.99,7,18.53,10.49,34.6,10.49ZM753.94,469.86c0-12.86-4.73-23.21-14.18-31.06-9.46-7.84-22.31-11.77-38.57-11.77-14,0-27.18,2.84-39.57,8.51-12.39,5.67-22.46,13.71-30.21,24.11-7.76,10.4-11.82,22.31-12.2,35.74v2.27h99.27c23.63,0,35.45-9.26,35.45-27.8ZM673.95,353.29c-4.73-4.72-7.09-10.4-7.09-17.02s2.36-12.29,7.09-17.02,10.4-7.09,17.02-7.09,12.29,2.37,17.02,7.09c4.72,4.73,7.09,10.4,7.09,17.02s-2.37,12.29-7.09,17.02-10.4,7.09-17.02,7.09-12.29-2.36-17.02-7.09Z"/>
    <path class="cls-1" d="M875.33,403.49h42.83v136.14h-78.28c-6.43,0-11.81-2.08-16.17-6.24-4.35-4.16-6.52-9.26-6.52-15.32s2.08-10.96,6.24-14.75c4.16-3.78,9.64-5.67,16.45-5.67h35.45v-94.17ZM878.74,370.87c-4.73-4.72-7.09-10.4-7.09-17.02s2.36-12.29,7.09-17.02,10.4-7.09,17.02-7.09,12.29,2.37,17.02,7.09c4.72,4.73,7.09,10.4,7.09,17.02s-2.37,12.29-7.09,17.02c-4.73,4.73-10.4,7.09-17.02,7.09s-12.29-2.36-17.02-7.09Z"/>
  </g>
  <g>
    <path class="cls-1" d="M363.09,713.48c0,5.73-2.79,8.67-8.52,8.67h-14.87c-5.11,0-7.28-2.32-9.6-7.12l-28.5-57.77c-2.32-4.8-5.42-11.46-6.66-16.88h-1.7c.77,5.73,1.08,11.62,1.08,17.35v64.44h-22.77v-99.91c0-5.58,2.94-8.52,8.67-8.52h14.56c5.11,0,7.28,2.32,9.6,6.97l27.57,56.23c2.32,4.65,5.27,11.31,7.9,17.35h1.55c-.46-6.04-.93-12.08-.93-18.12v-62.42h22.61v99.75Z"/>
    <path class="cls-1" d="M438.06,613.73c4.03,0,7.12,2.32,8.36,6.2l31.29,102.23h-24.47l-7.74-28.5h-37.33l-7.9,28.5h-24.47l31.29-102.23c1.24-3.87,4.34-6.2,8.36-6.2h22.61ZM424.74,631.7c-.77,3.41-1.39,6.97-2.48,10.22l-8.98,33.3h26.95l-9.14-33.3c-.93-3.25-1.7-6.81-2.17-10.22h-4.18Z"/>
    <path class="cls-1" d="M578.71,667.94c0,42.91-12.08,55.61-46.16,55.61-16.26,0-29.74-.62-42.13-1.39v-108.42c12.39-.77,25.56-1.39,42.13-1.39,34.08,0,46.16,12.7,46.16,55.61ZM514.27,704.5c5.58,0,11.62.15,18.28.15,16.26,0,21.07-8.21,21.07-36.71s-4.8-37.17-21.07-37.02l-18.28.16v73.42Z"/>
    <path class="cls-1" d="M661.12,722.15v-48.48h-38.41v48.48h-23.85v-108.42h23.85v41.51h38.41v-41.51h23.85v108.42h-23.85Z"/>
    <path class="cls-1" d="M781.78,614.81l-1.08,17.66h-41.67c-5.27,0-7.44,2.48-7.44,8.05v16.57h43.21v17.19h-43.21v20.91c0,5.89,2.17,8.21,7.44,8.21h41.67l1.08,17.66c-14.71,1.55-33.46,1.55-50.34,1.55-14.4,0-23.85-8.52-23.85-21.84v-65.67c0-13.48,9.45-21.84,23.85-21.84,16.88,0,35.62,0,50.34,1.55Z"/>
    <path class="cls-1" d="M910.97,613.73c5.73,0,8.52,3.1,8.83,8.98l4.34,99.44h-22.61l-3.72-89.84h-2.63l-16.26,67.22c-1.39,5.11-4.49,7.75-9.76,7.75h-15.8c-5.27,0-8.52-2.63-9.76-7.75l-16.42-67.22h-2.79l-3.1,89.84h-22.61l3.87-99.44c.15-5.89,3.25-8.98,8.98-8.98h23.08c5.27,0,8.21,2.63,9.45,7.59l13.17,54.21c1.39,5.11,2.17,10.22,2.94,15.18h2.01c.93-4.96,1.55-10.07,2.79-15.18l13.01-54.21c1.39-4.96,4.49-7.59,9.76-7.59h23.23Z"/>
  </g>
  <g>
    <path class="cls-2" d="M1626.68,198.25c-157.64,0-285.44,127.79-285.44,285.44v35.69h35.69c157.64,0,285.44-127.79,285.44-285.44v-35.69h-35.69Z"/>
    <path class="cls-4" d="M1021.22,198.25h-35.69v35.69c0,157.64,127.79,285.44,285.44,285.44h35.69v-35.69c0-157.64-127.8-285.44-285.44-285.44Z"/>
    <path class="cls-3" d="M979.49,847.03v35.69h35.69c157.64,0,285.44-127.79,285.44-285.44v-35.69h-35.69c-157.64,0-285.44,127.79-285.44,285.44Z"/>
    <path class="cls-5" d="M1376.93,561.59h-35.69v35.69c0,157.64,127.79,285.44,285.44,285.44h35.69v-35.69c0-157.64-127.79-285.44-285.44-285.44Z"/>
  </g>
</svg>